<svg width="155" height="134" viewBox="0 0 155 134" fill="none" xmlns="http://www.w3.org/2000/svg">
<path d="M153.482 14.1684C153.482 14.1684 152.078 11.5356 149.752 7.89355C149.752 7.89355 142.512 13.3347 142.556 13.0275C142.6 12.7203 153.482 14.1684 153.482 14.1684Z" fill="#231F20"/>
<path d="M153.482 14.4767C149.621 13.994 143.39 13.2041 142.688 13.2919C142.512 13.3797 142.468 13.3358 142.381 13.2919C142.249 13.2041 142.205 13.0725 142.249 12.9409C142.249 12.8531 142.293 12.7653 142.468 12.7215C142.907 12.5459 147.032 9.51823 149.533 7.63139C149.621 7.58751 149.708 7.54363 149.752 7.58751C149.84 7.58751 149.928 7.67527 149.972 7.71915C152.253 11.3173 153.702 13.9501 153.702 13.994C153.789 14.1695 153.702 14.345 153.526 14.3889C153.57 14.4328 153.526 14.4328 153.482 14.4767ZM143.653 12.7215C145.013 12.8092 147.646 13.0725 152.912 13.7746C152.385 12.8531 151.244 10.8346 149.665 8.33347C146.374 10.7907 144.618 12.0633 143.653 12.7215Z" fill="#231F20"/>
<path d="M57.2534 123.692L53.6113 117.681L58.6575 113.117L57.2534 123.692Z" fill="#231F20"/>
<path d="M57.2549 123.999C57.1671 123.999 57.0355 123.955 56.9916 123.868L53.3496 117.812C53.2618 117.68 53.3057 117.505 53.3935 117.417L58.3958 112.898C58.5274 112.766 58.7029 112.81 58.8346 112.898C58.8785 112.985 58.9223 113.073 58.9223 113.161L57.5182 123.736C57.5182 123.867 57.3865 123.955 57.2549 123.999ZM54.0517 117.724L57.0794 122.771L58.2641 113.907L54.0517 117.724Z" fill="#231F20"/>
<path d="M59.6228 124.966L117.983 133.303C120.44 133.61 122.81 132.118 123.512 129.705L153.701 16.7582C154.316 14.4326 152.824 12.3702 150.366 12.1508L90.8652 7.32406C88.4518 7.19242 86.2579 8.77209 85.5558 11.0977L56.5951 120.315C56.0246 122.245 57.0777 124.264 59.0085 124.834C59.184 124.922 59.4034 124.966 59.6228 124.966Z" fill="#231F20"/>
<path d="M118.599 133.652C118.38 133.652 118.116 133.652 117.897 133.609L59.5805 125.271C58.4396 125.14 57.4304 124.482 56.7722 123.56C56.114 122.595 55.9384 121.366 56.2895 120.269L85.2502 11.0521C85.9962 8.59483 88.3218 6.92739 90.8668 7.05903L150.368 11.8419C151.597 11.8858 152.737 12.5001 153.483 13.5094C154.142 14.4747 154.361 15.7034 154.01 16.8442L123.777 129.835C123.075 132.073 121.012 133.652 118.599 133.652ZM59.6682 124.657L118.028 132.994C120.354 133.301 122.548 131.853 123.206 129.616L153.396 16.6248C153.659 15.6595 153.527 14.6503 152.957 13.8165C152.343 12.9828 151.377 12.4563 150.324 12.4124L90.7791 7.62947C88.4973 7.49783 86.4349 8.98975 85.8206 11.1837L56.8599 120.401C56.5966 121.366 56.7283 122.375 57.2548 123.209C57.8253 124.043 58.7029 124.569 59.6682 124.657Z" fill="#231F20"/>
<path d="M55.8057 118.736L114.166 127.073C116.623 127.38 118.993 125.888 119.695 123.475L149.884 10.4839C150.498 8.15824 149.007 6.09589 146.549 5.87649L87.0043 1.09359C84.5909 0.961948 82.3969 2.54162 81.6948 4.86726L52.7341 114.084C52.1637 116.015 53.2606 118.033 55.1475 118.604C55.4108 118.692 55.5863 118.736 55.8057 118.736Z" fill="white"/>
<path d="M114.824 127.423C114.604 127.423 114.341 127.423 114.121 127.379L55.7613 119.042C54.6204 118.91 53.6111 118.252 52.9529 117.331C52.3386 116.365 52.1192 115.137 52.4703 113.996L81.431 4.77866C82.1769 2.32139 84.4587 0.653955 87.0476 0.785595L146.549 5.5685C147.777 5.61238 148.918 6.2267 149.664 7.23594C150.322 8.2013 150.542 9.42993 150.191 10.5708L120.001 123.561C119.299 125.843 117.193 127.423 114.824 127.423ZM86.6527 1.39991C84.5026 1.44379 82.6157 2.89183 82.0014 4.95418L53.0407 114.171C52.7774 115.137 52.9529 116.146 53.4795 116.979C54.0061 117.769 54.8837 118.34 55.849 118.428L114.209 126.765C116.535 127.028 118.685 125.624 119.343 123.386L149.533 10.3953C149.796 9.42993 149.664 8.42069 149.094 7.58698C148.479 6.75326 147.514 6.2267 146.461 6.18282L87.0037 1.39991C86.8721 1.39991 86.7843 1.39991 86.6527 1.39991Z" fill="#231F20"/>
<path d="M144.136 17.9414L83.1869 12.6758L59.8428 100.787L119.87 108.773L144.136 17.9414Z" fill="#4832A2"/>
<path d="M117.413 96.6185C117.281 96.6185 117.194 96.5307 117.15 96.443L104.863 70.4661C104.776 70.2905 104.863 70.115 104.995 70.0711C105.127 70.0273 105.346 70.0711 105.39 70.2028L117.676 96.1797C117.764 96.3552 117.676 96.5307 117.545 96.5746C117.501 96.6185 117.457 96.6185 117.413 96.6185Z" fill="white"/>
<path d="M79.9393 118.077L91.348 119.656C92.84 119.832 94.2441 118.91 94.6829 117.462L95.8238 113.206C96.1748 111.977 95.4728 110.749 94.288 110.354C94.1564 110.31 94.0247 110.266 93.8492 110.266L82.4404 108.73C80.9485 108.555 79.5882 109.476 79.1494 110.924L78.0086 115.137C77.6575 116.322 78.3596 117.594 79.5444 117.945C79.676 118.033 79.8076 118.077 79.9393 118.077Z" fill="white"/>
<path d="M91.6992 120.051C91.5676 120.051 91.3921 120.051 91.2604 120.007L79.8517 118.428C78.4475 118.252 77.3944 117.024 77.5699 115.576C77.5699 115.444 77.6138 115.268 77.6577 115.137L78.7986 110.924C79.2812 109.345 80.7732 108.335 82.3967 108.511L93.8055 110.047C94.5953 110.135 95.2535 110.529 95.6923 111.188C96.1311 111.802 96.2189 112.592 96.0433 113.338L94.9025 117.594C94.4637 118.998 93.1912 120.007 91.6992 120.051ZM79.9833 117.77L91.3921 119.349C92.7524 119.525 93.981 118.691 94.3759 117.375L95.5168 113.118C95.6923 112.548 95.6045 111.934 95.2535 111.451C94.9025 110.968 94.3759 110.661 93.8055 110.573L82.3967 109.038C81.0803 108.906 79.8078 109.696 79.4568 111.012L78.3159 115.225C78.0087 116.278 78.5792 117.375 79.6323 117.682C79.72 117.77 79.8517 117.77 79.9833 117.77Z" fill="#D1D3D4"/>
<path d="M126.102 10.3512L108.682 8.90316C108.506 8.90316 108.375 8.72764 108.419 8.596C108.419 8.42048 108.594 8.28884 108.77 8.33272L126.19 9.78076C126.366 9.78076 126.497 9.9124 126.497 10.0879C126.409 10.2196 126.278 10.3512 126.102 10.3512Z" fill="#D1D3D4"/>
<path d="M106.268 8.72705L103.943 8.55153C103.767 8.55153 103.636 8.37601 103.679 8.20049C103.679 8.02497 103.855 7.89334 104.03 7.93722L106.312 8.11274C106.488 8.11274 106.619 8.24437 106.619 8.41989C106.575 8.59541 106.444 8.72705 106.268 8.72705Z" fill="#D1D3D4"/>
<path d="M114.385 31.589C114.298 31.589 114.166 31.5451 114.122 31.4573L105.873 18.5128C105.785 18.3811 105.829 18.1617 105.961 18.074C106.092 17.9862 106.312 18.0301 106.399 18.1617C106.399 18.1617 106.399 18.1617 106.399 18.2056L114.649 31.1063C114.737 31.2379 114.737 31.4135 114.561 31.5451C114.561 31.5451 114.561 31.5451 114.517 31.5451C114.473 31.589 114.429 31.589 114.385 31.589Z" fill="white"/>
<path d="M89.4613 27.859C89.3296 27.859 89.2419 27.8152 89.198 27.6835L84.9855 19.5657C84.8978 19.4341 84.9855 19.2147 85.1172 19.1708C85.2488 19.0831 85.4682 19.127 85.5121 19.3025L89.7246 27.4202C89.8123 27.5519 89.7245 27.7713 89.5929 27.8152C89.549 27.8152 89.5052 27.8152 89.4613 27.859Z" fill="white"/>
<path d="M123.38 66.5626C123.38 66.5626 130.84 41.9021 124.39 36.4172L92.6206 32.5996C92.6206 32.5996 87.1795 38.2601 86.3896 42.6481C85.5998 47.0361 79.0178 56.2509 81.4751 61.7797L123.38 66.5626Z" fill="#231F20"/>
<path d="M123.38 66.8693L81.4744 62.0864C81.3867 62.0864 81.255 61.9987 81.2111 61.9109C79.4998 58.0495 82.001 52.5206 84.0195 48.0449C84.9848 45.8509 85.8624 43.964 86.1257 42.5599C86.9155 38.1719 92.225 32.5992 92.4444 32.3798C92.4883 32.292 92.6199 32.292 92.7077 32.292L124.477 36.1095C124.521 36.1095 124.608 36.1534 124.652 36.1973C131.234 41.7262 124.082 65.6407 123.775 66.6499C123.643 66.7816 123.511 66.8693 123.38 66.8693ZM81.6938 61.516L123.16 66.255C123.906 63.6661 130.049 41.8578 124.257 36.7239L92.7515 32.9502C92.0056 33.74 87.3982 38.8301 86.6961 42.6915C86.4328 44.1396 85.5552 46.0703 84.546 48.3081C82.6153 52.6084 80.2458 57.9178 81.6938 61.516Z" fill="#231F20"/>
<path d="M126.364 67.3083H126.32L73.2691 59.8487C73.0936 59.8048 73.0059 59.6732 73.0059 59.4977C73.0497 59.3221 73.1814 59.2344 73.3569 59.2344L126.408 66.694C126.583 66.7378 126.671 66.8695 126.671 67.045C126.627 67.1766 126.495 67.2644 126.364 67.3083Z" fill="#231F20"/>
<path d="M124.346 36.4172C124.346 36.4172 121.143 36.856 119.168 43.5696C116.141 53.8375 112.191 75.4264 109.646 83.5881C106.004 95.4357 96.1314 97.1031 96.1314 97.1031L54.5771 91.0915C54.5771 91.0915 71.4709 85.2116 74.3231 75.2509C77.3508 64.7636 81.5194 44.9299 82.6164 40.4981C84.591 32.6436 92.621 32.6436 92.621 32.6436L124.346 36.4172Z" fill="white"/>
<path d="M96.1309 97.3669H96.0871L54.5328 91.3554C54.4012 91.3554 54.2695 91.2237 54.2695 91.0921C54.2695 90.9604 54.3573 90.8288 54.4889 90.7849C54.6645 90.741 71.2949 84.8611 74.0594 75.1637C76.1656 67.8796 78.7984 55.9882 80.5975 48.0898C81.3873 44.5355 82.0016 41.7711 82.3527 40.4108C84.3711 32.4247 92.5328 32.3369 92.6205 32.3369L124.39 36.1545C124.565 36.1545 124.697 36.33 124.653 36.5055C124.653 36.6371 124.521 36.7688 124.39 36.7688C124.346 36.7688 121.318 37.3392 119.431 43.7018C117.895 48.8796 116.14 56.9535 114.429 64.808C112.761 72.487 111.182 79.6833 109.909 83.7203C107.979 89.9073 104.38 93.3299 101.66 95.0851C99.9924 96.1383 98.1494 96.9281 96.1309 97.3669ZM55.8053 90.9166L96.1309 96.7526C96.833 96.6209 105.96 94.5586 109.383 83.457C110.611 79.4639 112.191 72.2237 113.858 64.5886C115.57 56.778 117.325 48.6602 118.861 43.4385C120.177 39.0505 121.976 37.2515 123.161 36.5494L92.5767 32.8635C92.3134 32.8635 84.8099 32.9512 82.9231 40.4986C82.5721 41.8589 81.9577 44.6233 81.1679 48.1776C79.4127 56.0759 76.736 67.9674 74.6298 75.2953C73.1379 80.5609 67.7845 84.6417 63.5282 87.1429C61.0709 88.5909 58.482 89.8634 55.8053 90.9166Z" fill="#231F20"/>
<path d="M104.382 84.2908H104.338L98.721 83.6326C98.5455 83.6326 98.4138 83.4571 98.4577 83.2816C98.5016 83.106 98.6332 82.9744 98.8088 83.0183L104.425 83.6765C104.601 83.6765 104.733 83.852 104.689 84.0275C104.645 84.1591 104.513 84.2908 104.382 84.2908Z" fill="#D1D3D4"/>
<path d="M94.2001 83.1485L77.3502 81.2178C77.1747 81.174 77.0869 81.0423 77.0869 80.8668C77.1308 80.6913 77.2624 80.6035 77.3941 80.6035L94.2439 82.5342C94.4195 82.5781 94.5072 82.7098 94.5072 82.8853C94.4634 83.0169 94.3756 83.1485 94.2001 83.1485Z" fill="#D1D3D4"/>
<path d="M99.3343 90.6972L94.1126 90.1267C93.9371 90.1267 93.8054 89.9512 93.8493 89.7757C93.8493 89.6002 94.0248 89.4685 94.2004 89.5124L99.3782 90.0829C99.5537 90.0829 99.6853 90.2584 99.6853 90.39C99.6853 90.5216 99.5098 90.7411 99.3343 90.6972Z" fill="#D1D3D4"/>
<path d="M88.4518 89.4668L72.304 87.6238C72.1285 87.6238 71.9969 87.4483 72.0407 87.2728C72.0407 87.0972 72.2163 86.9656 72.3918 87.0095L88.4957 88.8524C88.6712 88.8963 88.759 89.028 88.759 89.2035C88.7151 89.3351 88.5834 89.4668 88.4518 89.4668Z" fill="#D1D3D4"/>
<path d="M96.1311 97.0593C91.2165 92.4958 88.7154 85.8699 89.4613 79.2002L45.8447 71.3457C45.8447 71.3457 49.5745 85.9577 54.5768 91.0478L96.1311 97.0593Z" fill="white"/>
<path d="M96.131 97.366H96.0872L54.5329 91.3545C54.4452 91.3545 54.4013 91.3106 54.3574 91.2667C49.399 86.1766 45.7131 72.0473 45.5375 71.433C45.4937 71.2575 45.5814 71.082 45.7569 71.0381C45.8008 71.0381 45.8447 71.0381 45.8886 71.0381L89.5052 78.8926C89.6807 78.9365 89.7685 79.0681 89.7685 79.2436C89.0664 85.8256 91.4798 92.3198 96.3504 96.8394C96.4821 96.9272 96.4821 97.1466 96.3943 97.2782C96.3066 97.3221 96.2188 97.366 96.131 97.366ZM54.7084 90.7401L95.2096 96.62C90.7777 92.0565 88.5398 85.7817 89.1103 79.463L46.2396 71.7402C46.9417 74.2413 50.4082 86.2205 54.7084 90.7401Z" fill="#231F20"/>
<path d="M113.42 46.0264L86.346 42.9549C86.1705 42.9549 86.0388 42.7793 86.0827 42.6038C86.0827 42.4283 86.2583 42.2967 86.4338 42.3405L113.464 45.4121C113.639 45.4121 113.771 45.5438 113.771 45.7193C113.727 45.8948 113.595 46.0264 113.42 46.0264Z" fill="#D1D3D4"/>
<path d="M112.278 52.9601L107.188 52.3897C107.013 52.3458 106.925 52.2142 106.925 52.0387C106.969 51.8631 107.1 51.7754 107.232 51.7754L112.322 52.3458C112.498 52.3458 112.629 52.5213 112.629 52.653C112.629 52.7846 112.454 52.9601 112.278 52.9601Z" fill="#D1D3D4"/>
<path d="M101.529 51.7314L85.2493 49.8884C85.0738 49.8884 84.9422 49.7129 84.986 49.5374C84.986 49.3619 85.1616 49.2302 85.3371 49.2741L101.617 51.1171C101.792 51.1171 101.924 51.2926 101.88 51.4681C101.792 51.6436 101.66 51.7314 101.529 51.7314Z" fill="#D1D3D4"/>
<path d="M110.611 59.4544L102.23 58.489C102.054 58.489 101.923 58.3135 101.967 58.138C101.967 57.9625 102.142 57.8308 102.318 57.8747L110.655 58.8401C110.83 58.884 110.918 59.0156 110.918 59.1911C110.874 59.3228 110.742 59.4544 110.611 59.4544Z" fill="#D1D3D4"/>
<path d="M94.1995 57.5676L83.5367 56.3829C83.3612 56.339 83.2734 56.2074 83.2734 56.0318C83.3173 55.8563 83.449 55.7686 83.5806 55.7686L94.1995 56.9972C94.375 56.9972 94.5067 57.1727 94.4628 57.3482C94.4628 57.4799 94.3312 57.5676 94.1995 57.5676Z" fill="#D1D3D4"/>
<path d="M109.165 65.5972L102.188 64.8074C102.012 64.8074 101.881 64.6319 101.925 64.4564C101.925 64.2808 102.1 64.1492 102.276 64.1931L109.252 64.9829C109.428 64.9829 109.56 65.1584 109.516 65.3339C109.472 65.4656 109.34 65.5972 109.165 65.5972Z" fill="#D1D3D4"/>
<path d="M94.7705 63.9293L82.1331 62.4812C81.9576 62.4812 81.826 62.3057 81.8698 62.1302C81.8698 61.9547 82.0454 61.823 82.2209 61.8669L94.8144 63.3149C94.9899 63.3588 95.0777 63.4905 95.0777 63.666C95.0338 63.8415 94.9022 63.9293 94.7705 63.9293Z" fill="#D1D3D4"/>
<path d="M107.716 72.3981L101.485 71.6961C101.309 71.6961 101.178 71.5205 101.221 71.345C101.265 71.1695 101.397 71.0379 101.572 71.0817L107.759 71.7838C107.935 71.8277 108.023 71.9594 108.023 72.1349C107.979 72.2665 107.847 72.3543 107.716 72.3981Z" fill="#D1D3D4"/>
<path d="M97.6673 71.2137L80.6419 69.283C80.4664 69.283 80.3347 69.1075 80.3786 68.9319C80.3786 68.7564 80.5541 68.6248 80.7297 68.6687L97.7112 70.5994C97.8867 70.6433 97.9745 70.7749 97.9745 70.9504C97.9306 71.1259 97.7989 71.2137 97.6673 71.2137Z" fill="#D1D3D4"/>
<path d="M106.136 77.8836H106.092L98.7203 77.0499C98.5448 77.006 98.457 76.8743 98.457 76.6988C98.5009 76.5233 98.6325 76.4355 98.7642 76.4355L106.136 77.2693C106.312 77.3131 106.399 77.4448 106.399 77.6203C106.399 77.7519 106.268 77.8836 106.136 77.8836Z" fill="#D1D3D4"/>
<path d="M95.428 76.6543L79.0608 74.8113C78.8853 74.8113 78.7537 74.6358 78.7976 74.4603C78.7976 74.2847 78.9731 74.1531 79.1486 74.197L95.4719 76.0399C95.6474 76.0399 95.7791 76.2155 95.7352 76.391C95.7352 76.5665 95.6036 76.6543 95.428 76.6543Z" fill="#D1D3D4"/>
<path d="M24.6943 67.0439L10.6089 36.7229C9.42411 34.2218 10.5211 31.2379 13.0223 30.0532L59.5349 8.42039C62.0361 7.23563 65.0199 8.33263 66.2047 10.8338L80.2901 41.1548C81.4749 43.6559 80.3779 46.6398 77.8767 47.8245L31.364 69.4573C28.819 70.6421 25.8791 69.5451 24.6943 67.0439Z" fill="white"/>
<path d="M29.2582 70.2475C27.1958 70.2475 25.309 69.0628 24.4314 67.1759L10.346 36.8549C9.11733 34.1783 10.2582 31.0189 12.9349 29.7903L59.4475 8.15749C62.1242 6.92885 65.2836 8.06973 66.5122 10.7464L80.5976 41.0674C81.8263 43.7441 80.6854 46.9034 78.0087 48.1321L31.4961 69.7648C30.794 70.072 30.0041 70.2475 29.2582 70.2475ZM61.6415 8.28913C60.9395 8.28913 60.2813 8.42077 59.6669 8.72793L13.1543 30.3607C10.7848 31.4577 9.77553 34.266 10.8725 36.5916L24.958 66.9126C26.055 69.2822 28.8633 70.2914 31.1889 69.1944L77.7016 47.5616C80.0711 46.4646 81.0803 43.6563 79.9833 41.3307L65.8979 11.0097C65.1519 9.34225 63.4845 8.28913 61.6415 8.28913Z" fill="#231F20"/>
<path d="M54.8397 30.6245L51.2855 22.9894C50.4517 21.1903 51.2416 19.0402 53.0407 18.1626L58.4379 15.6614C60.2369 14.8277 62.3871 15.6176 63.2647 17.4166L66.8189 25.0517C67.6526 26.8508 66.8628 29.0009 65.0637 29.8785L59.6665 32.3797C57.8236 33.2134 55.6734 32.4235 54.8397 30.6245Z" fill="#4832A2"/>
<path d="M16.8836 37.4257C16.3571 36.3287 16.8398 34.9684 17.9806 34.4857L28.4241 29.6151C29.521 29.0885 30.8813 29.5712 31.364 30.7121C31.8906 31.8091 31.4079 33.1694 30.267 33.652L19.8236 38.5227C18.7266 39.0054 17.3663 38.5227 16.8836 37.4257Z" fill="#D1D3D4"/>
<path d="M63.968 44.7096L62.9588 42.5595C62.6955 41.9891 62.9588 41.3309 63.4853 41.0676L71.3398 37.4256C71.9103 37.1623 72.5684 37.4256 72.8317 37.9521L73.841 40.1022C74.1042 40.6727 73.841 41.3309 73.3144 41.5941L65.4599 45.2362C64.8895 45.4994 64.1874 45.28 63.968 44.7096Z" fill="#D1D3D4"/>
<path d="M51.9875 50.2828L50.9783 48.1327C50.715 47.5623 50.9783 46.9041 51.5048 46.6408L59.3593 42.9988C59.9298 42.7355 60.588 42.9988 60.8513 43.5254L61.8605 45.6755C62.1238 46.2459 61.8605 46.9041 61.3339 47.1674L53.4794 50.8094C52.909 51.0727 52.2508 50.8533 51.9875 50.2828Z" fill="#D1D3D4"/>
<path d="M40.009 55.8551L38.9998 53.705C38.7365 53.1346 38.9998 52.4764 39.5263 52.2131L47.3808 48.5711C47.9513 48.3078 48.6095 48.5711 48.8727 49.0976L49.882 51.2477C50.1453 51.8182 49.882 52.4764 49.3554 52.7396L41.5009 56.3817C40.9305 56.645 40.2723 56.4256 40.009 55.8551Z" fill="#D1D3D4"/>
<path d="M28.0285 61.4274L27.0193 59.2773C26.756 58.7068 27.0193 58.0486 27.5459 57.7854L35.4004 54.1433C35.9708 53.88 36.629 54.1433 36.8923 54.6699L37.9015 56.82C38.1648 57.3904 37.9015 58.0486 37.3749 58.3119L29.5205 61.9539C28.95 62.2172 28.2918 61.9978 28.0285 61.4274Z" fill="#D1D3D4"/>
<path d="M20.8329 75.4685L18.244 78.4085C16.6204 80.4708 11.3987 79.0228 6.61583 75.1614C1.83292 71.2999 -0.712111 66.5609 0.911444 64.4985L3.50035 61.5586L20.8329 75.4685Z" fill="white"/>
<path d="M15.83 79.681C13.3728 79.681 9.8185 78.1452 6.43975 75.4686C4.28964 73.8011 2.49056 71.7388 1.0864 69.3693C-0.0544727 67.263 -0.18611 65.464 0.691488 64.367L3.2804 61.3831C3.36816 61.2515 3.58756 61.2076 3.7192 61.3393L21.0518 75.2053C21.0956 75.2492 21.1395 75.3369 21.1834 75.4247C21.1834 75.5125 21.1834 75.6002 21.0956 75.6441L18.5067 78.584C17.9363 79.33 17.0148 79.681 15.83 79.681ZM3.54368 61.9974L1.17417 64.718C0.472088 65.5956 0.647607 67.1753 1.65684 69.0182C2.97324 71.3 4.72844 73.3185 6.83467 74.942C11.3982 78.584 16.5321 80.076 18.024 78.233L20.3936 75.5124L3.54368 61.9974Z" fill="#231F20"/>
<path d="M20.8486 75.4656C22.4847 73.4228 19.9316 68.6598 15.1462 64.8272C10.3607 60.9945 5.15508 59.5435 3.51901 61.5863C1.88294 63.6291 4.43601 68.3921 9.22145 72.2248C14.0069 76.0574 19.2125 77.5084 20.8486 75.4656Z" fill="white"/>
<path d="M18.4189 76.6971C15.9616 76.6971 12.4074 75.1613 9.02862 72.4846C6.87851 70.8172 5.07943 68.7548 3.67527 66.3853C2.5344 64.2352 2.40276 62.48 3.28035 61.383C4.15795 60.286 5.91315 60.0227 8.23878 60.6809C10.8277 61.5146 13.2411 62.831 15.3473 64.5424C20.3496 68.5354 22.8508 73.4061 21.0956 75.644C20.5251 76.3899 19.5598 76.6971 18.4189 76.6971ZM5.95703 60.9881C4.94779 60.9881 4.20183 61.2514 3.76304 61.8218C3.06096 62.6994 3.23648 64.2791 4.24571 66.1659C5.56211 68.4477 7.3173 70.4661 9.42354 72.0458C13.987 75.6878 19.121 77.2236 20.6129 75.3368C22.1048 73.45 19.5598 68.7548 14.9524 65.1128C12.9339 63.4015 10.6083 62.129 8.06326 61.3391C7.36118 61.0758 6.65911 60.9881 5.95703 60.9881Z" fill="#231F20"/>
<path d="M8.15162 63.2695L9.29249 64.3226L9.42413 64.3665C9.77517 64.4543 10.1262 64.4982 10.4772 64.5859C11.4426 64.8492 12.3641 65.288 13.1978 65.8584C13.7244 66.2095 14.1632 66.6044 14.602 67.0871C14.8652 67.3504 15.0408 67.6575 15.0846 68.0086C15.0846 68.2718 14.953 68.4912 14.7336 68.6229C14.5581 68.7545 14.3387 68.8423 14.1632 68.9739L16.2694 70.9924C16.6204 70.7291 16.4888 70.2903 15.9622 69.7638L17.2786 69.5444C17.6735 69.8954 17.9807 70.3342 18.244 70.773C18.4634 71.124 18.4195 71.5628 18.1562 71.9139C18.0246 72.0455 17.8491 72.1771 17.6735 72.3088L18.4634 73.0547L17.2347 73.4497L16.4449 72.7037C16.05 72.7037 15.699 72.7037 15.304 72.7037C14.5581 72.6598 13.8121 72.4404 13.11 72.1333C12.1886 71.7384 11.3548 71.124 10.6528 70.3781C9.95069 69.5882 9.77517 69.0178 10.214 68.579C10.5211 68.3157 10.8283 68.1402 11.2232 68.0086C11.2671 68.0086 11.311 67.9647 11.3548 67.9647L9.20473 65.9462H9.11697C9.07309 66.0778 9.02921 66.2095 9.02921 66.3411C9.11697 66.6044 9.24861 66.8677 9.46801 67.0432L7.44954 67.1748C7.27402 66.9993 7.14238 66.8238 7.01074 66.6922C6.48418 66.0778 6.30866 65.5513 6.4403 65.1564C6.6597 64.7614 7.05462 64.4982 7.49342 64.4543C7.58118 64.4543 7.58118 64.4104 7.49342 64.3665L6.35254 63.2695H8.15162ZM12.9784 69.4566C12.8029 69.5882 12.5396 69.7199 12.5835 70.027C12.6274 70.3781 13.2856 70.9046 13.9438 71.124C14.2509 71.2118 14.5581 71.2996 14.9091 71.2557L12.9784 69.4566ZM12.4957 67.3942C12.6712 67.3065 12.8468 67.2187 12.8468 67.0432C12.8906 66.736 12.2324 66.1656 11.5742 65.9023C11.2671 65.8146 11.0038 65.7268 10.6966 65.639L12.4957 67.3942Z" fill="#D1D3D4"/>
<path d="M40.7981 106.623L42.29 110.221C43.387 112.591 39.7888 116.628 34.2161 119.217C28.6434 121.805 23.2461 121.981 22.1491 119.611L20.6572 116.013L40.7981 106.623Z" fill="white"/>
<path d="M26.2295 121.629C24.0794 121.629 22.4997 121.015 21.9293 119.786L20.4374 116.144C20.3935 116.013 20.4374 115.837 20.569 115.749L40.7099 106.359C40.7976 106.315 40.8854 106.315 40.9731 106.359C41.0609 106.403 41.1048 106.447 41.1487 106.535L42.6406 110.133C43.8253 112.678 40.2272 116.802 34.435 119.523C31.4073 120.927 28.5112 121.629 26.2295 121.629ZM21.0956 116.188L22.4997 119.523C23.5089 121.717 28.8623 121.454 34.1718 118.996C39.4812 116.539 43.0794 112.59 42.0701 110.396L40.666 107.061L21.0956 116.188Z" fill="#231F20"/>
<path d="M32.7352 115.612C38.2932 113.024 41.9032 109.003 40.7985 106.63C39.6937 104.257 34.2925 104.432 28.7345 107.02C23.1765 109.608 19.5665 113.629 20.6712 116.002C21.776 118.375 27.1772 118.2 32.7352 115.612Z" fill="white"/>
<path d="M24.6935 117.988C22.4995 117.988 20.9637 117.33 20.3933 116.145C19.2085 113.556 22.8066 109.431 28.5988 106.754C34.3909 104.078 39.8759 103.946 41.0607 106.535C42.2454 109.124 38.6473 113.249 32.8551 115.925C30.3979 117.11 27.7651 117.812 25.0445 117.988H24.6935ZM36.8043 105.263C34.6103 105.263 31.7143 105.965 28.8621 107.281C23.5526 109.738 19.9545 113.687 20.9637 115.881C21.4464 116.891 22.9383 117.461 25.0445 117.373C27.6773 117.198 30.2662 116.496 32.6357 115.355C37.9452 112.898 41.5434 108.948 40.5341 106.754C40.0514 105.789 38.6912 105.263 36.8043 105.263Z" fill="#231F20"/>
<path d="M24.2556 112.59L25.7036 112.064L25.7914 111.976C26.0108 111.669 26.2302 111.405 26.4496 111.098C27.1078 110.352 27.8976 109.694 28.7752 109.255C29.3018 108.948 29.9161 108.729 30.4865 108.553C30.8376 108.422 31.1886 108.422 31.5397 108.553C31.7591 108.641 31.9346 108.86 31.9346 109.124C31.9785 109.343 31.9785 109.562 31.9785 109.782L34.699 108.773C34.6112 108.334 34.1724 108.29 33.4704 108.509L33.8653 107.237C34.348 107.017 34.8745 106.93 35.4011 106.93C35.796 106.93 36.1909 107.149 36.3664 107.544C36.4542 107.72 36.4981 107.939 36.542 108.158L37.5512 107.807L37.3757 109.08L36.3664 109.475C36.1909 109.826 36.0593 110.133 35.8399 110.484C35.445 111.142 34.9184 111.713 34.348 112.195C33.5581 112.853 32.6805 113.336 31.7152 113.599C30.7059 113.907 30.0916 113.775 29.9161 113.205C29.8283 112.853 29.7845 112.459 29.8722 112.064C29.8722 112.02 29.8722 111.976 29.8722 111.888L27.1078 112.941L27.0639 112.985C27.1517 113.073 27.2833 113.161 27.3711 113.248C27.6343 113.292 27.9415 113.292 28.2048 113.161L27.4149 115.004C27.1955 115.047 26.9761 115.135 26.7567 115.179C25.9669 115.398 25.4404 115.311 25.1332 115.004C24.8699 114.653 24.826 114.17 25.0015 113.775C25.0015 113.731 25.0016 113.687 24.9138 113.731L23.4219 114.258L24.2556 112.59ZM31.9785 111.011C32.0223 111.23 32.0223 111.493 32.3295 111.625C32.6366 111.756 33.4704 111.362 33.9092 110.923C34.1286 110.703 34.348 110.44 34.4357 110.133L31.9785 111.011ZM29.9161 110.528C29.9161 110.352 29.9161 110.133 29.7845 110.045C29.5212 109.87 28.7313 110.221 28.2048 110.703C27.9854 110.923 27.8099 111.142 27.5905 111.362L29.9161 110.528Z" fill="#D1D3D4"/>
<path d="M26.0978 84.0244C23.9038 87.6664 26.361 95.7403 26.361 95.7403L29.6082 98.1098C34.4788 101.006 40.7536 99.4701 43.6936 94.5994C46.5897 89.7288 45.0539 83.4539 40.1832 80.514L36.5851 78.7588C36.5851 78.7588 28.2918 80.3823 26.0978 84.0244Z" fill="white"/>
<path d="M34.8739 99.8645C32.9432 99.8645 31.1003 99.338 29.4328 98.3726L26.1857 96.0031C26.1419 95.9592 26.098 95.9154 26.0541 95.8276C25.9663 95.4766 23.5968 87.5782 25.8347 83.8484C28.0726 80.1186 36.1465 78.4951 36.4975 78.4512C36.5853 78.4512 36.6291 78.4512 36.673 78.4951L40.2712 80.2502C45.2735 83.2341 46.897 89.7283 43.9132 94.7306C42.4652 97.144 40.1395 98.8553 37.419 99.5574C36.5853 99.7768 35.7515 99.8645 34.8739 99.8645ZM26.6245 95.5643L29.7839 97.8461C34.479 100.654 40.6222 99.1186 43.4305 94.4234C46.2388 89.7283 44.703 83.5851 40.0079 80.7768L36.5414 79.0655C35.6199 79.2849 28.3359 80.9084 26.3613 84.1556C24.3867 87.4465 26.3613 94.6428 26.6245 95.5643Z" fill="#231F20"/>
<path d="M32.637 98.2418C38.3078 98.2418 42.9049 93.6447 42.9049 87.9739C42.9049 82.3031 38.3078 77.7061 32.637 77.7061C26.9662 77.7061 22.3691 82.3031 22.3691 87.9739C22.3691 93.6447 26.9662 98.2418 32.637 98.2418Z" fill="white"/>
<path d="M32.636 98.5499C26.7999 98.5499 22.0609 93.8109 22.1048 87.9748C22.1487 82.1388 26.8438 77.3998 32.6798 77.4437C34.6106 77.4437 36.4535 77.9702 38.121 78.9356C43.1233 81.9194 44.7468 88.4136 41.7191 93.4159C39.7884 96.6192 36.3219 98.5499 32.636 98.5499ZM32.6798 78.0141C27.1949 78.0141 22.7191 82.446 22.7191 87.931C22.7191 93.4159 27.151 97.8917 32.636 97.8917C38.121 97.8917 42.5967 93.4598 42.5967 87.9748C42.5967 84.4644 40.7537 81.2173 37.7699 79.4183C36.2341 78.5407 34.4789 78.0141 32.6798 78.0141Z" fill="#231F20"/>
<path d="M26.8872 83.2785L28.1597 84.0684C28.2036 84.1123 28.2913 84.1123 28.3352 84.0684C28.8179 83.4979 29.4761 83.103 30.1343 82.8398C30.8802 82.5765 31.6701 82.5765 32.416 82.8836C32.5916 82.9714 32.811 83.0591 33.0304 83.1469L31.8456 85.1215C31.5384 84.946 31.1874 84.8582 30.8364 84.946C30.5731 85.0337 30.3098 85.0776 30.0465 85.2093V85.297L32.5038 86.7889L32.6793 86.6134C33.1181 86.1307 33.6008 85.7358 34.1273 85.3409C34.9172 84.7705 35.9264 84.6827 36.804 85.1215C37.6377 85.4725 38.2959 86.0869 38.647 86.9206C38.9541 87.5788 38.998 88.3247 38.8664 89.0268C38.7786 89.4656 38.647 89.9044 38.5153 90.3432L39.4807 90.9136L38.3837 92.7127L37.4183 92.0984C37.1112 92.4056 36.804 92.7127 36.4969 92.976C35.8825 93.5026 35.0927 93.8097 34.3029 93.8536C33.6008 93.8536 32.8987 93.6781 32.3283 93.327L33.513 91.3963C34.2151 91.7912 35.0927 91.6596 35.6631 91.0892L33.0304 89.5095C32.6793 89.8166 32.3722 90.1238 32.065 90.431C31.6701 90.782 31.1874 91.0892 30.7047 91.2208C30.1782 91.3524 29.6077 91.3086 29.0812 91.133C28.4668 90.9136 27.8964 90.5187 27.4576 89.9922C26.8433 89.2462 26.58 88.237 26.7994 87.2716C26.8872 86.8767 27.0188 86.5257 27.1505 86.1307C27.1505 86.0869 27.1943 86.043 27.1943 85.9991L25.8779 85.2093L26.8872 83.2785ZM36.7601 89.2023C36.8918 88.8952 36.9357 88.5003 36.8918 88.1492C36.7601 87.5349 36.2336 87.0961 35.6193 87.14C35.1805 87.2716 34.8294 87.491 34.5223 87.7982L36.7601 89.2023ZM28.8179 86.9206C28.774 87.2277 28.774 87.5349 28.774 87.8421C28.8179 88.4564 29.3883 88.939 30.0026 88.8952C30.0465 88.8952 30.1343 88.8952 30.1782 88.8513C30.4853 88.7196 30.7925 88.5002 31.0119 88.237L28.8179 86.9206Z" fill="#D1D3D4"/>
</svg>
