<svg width="173" height="115" viewBox="0 0 173 115" fill="none" xmlns="http://www.w3.org/2000/svg">
<path d="M143.55 103.125L159.004 114.396L165.3 0.889648L148.173 8.41857L143.55 103.125Z" fill="#4832A2"/>
<path d="M159.004 114.704C158.959 114.704 158.871 114.704 158.827 114.66L143.373 103.389C143.285 103.345 143.241 103.213 143.241 103.125L147.864 8.4187C147.864 8.28661 147.952 8.19856 148.04 8.15453L165.168 0.6256C165.256 0.581572 165.388 0.581571 165.476 0.669629C165.564 0.713657 165.608 0.845743 165.608 0.933801L159.312 114.396C159.312 114.528 159.224 114.616 159.136 114.66C159.092 114.66 159.048 114.704 159.004 114.704ZM143.902 102.949L158.739 113.78L164.991 1.37409L148.525 8.59482L143.902 102.949Z" fill="#231F20"/>
<path d="M159.004 114.396L167.281 114.132L172.609 4.05972L165.3 0.889648L159.004 114.396Z" fill="#4832A2"/>
<path d="M159.004 114.705C158.915 114.705 158.827 114.661 158.783 114.617C158.739 114.573 158.695 114.484 158.695 114.396L164.991 0.934177C164.991 0.758062 165.124 0.625977 165.3 0.625977C165.344 0.625977 165.388 0.625976 165.432 0.670005L172.74 3.84008C172.873 3.88411 172.917 4.01619 172.917 4.14828L167.589 114.22C167.589 114.396 167.457 114.529 167.281 114.529L159.004 114.705ZM165.564 1.37446L159.312 114.088L166.973 113.868L172.256 4.28037L165.564 1.37446Z" fill="#231F20"/>
<path d="M162.439 6.83398L157.507 99.7348L145.84 91.5454L150.331 11.7212L162.439 6.83398Z" fill="white"/>
<path d="M162.438 6.8332L157.507 99.734L145.839 91.5446L150.33 11.7204L162.438 6.8332ZM162.438 6.2168C162.35 6.2168 162.262 6.2168 162.218 6.26083L150.11 11.148C149.89 11.2361 149.758 11.4562 149.714 11.6764L145.223 91.5006C145.223 91.7207 145.311 91.8969 145.487 92.0289L157.154 100.218C157.243 100.306 157.375 100.35 157.507 100.306C157.595 100.306 157.683 100.306 157.771 100.262C157.991 100.174 158.123 99.9541 158.123 99.734L163.054 6.8332C163.054 6.61306 162.966 6.43694 162.79 6.30485C162.702 6.26082 162.57 6.2168 162.438 6.2168Z" fill="#231F20"/>
<path d="M150.814 105.986C150.682 105.986 150.55 105.986 150.418 105.942C149.273 105.546 148.393 103.476 148.393 101.187C148.393 99.6019 148.833 98.325 149.537 97.8407C149.846 97.6206 150.242 97.5325 150.638 97.6646C151.783 98.0609 152.663 100.13 152.663 102.42C152.663 104.005 152.223 105.282 151.519 105.766C151.298 105.898 151.078 105.986 150.814 105.986ZM150.242 98.193C150.11 98.193 149.978 98.237 149.89 98.325C149.361 98.7213 149.009 99.822 149.009 101.187C149.009 103.344 149.846 105.105 150.638 105.37C150.814 105.414 151.034 105.414 151.166 105.282C151.695 104.885 152.047 103.785 152.047 102.42C152.047 100.262 151.21 98.5012 150.418 98.237C150.374 98.193 150.286 98.1489 150.242 98.193Z" fill="#231F20"/>
<path d="M153.501 8.55061C153.369 8.55061 153.281 8.46255 153.237 8.37449C153.193 8.19838 153.237 8.02226 153.413 7.97823L156.231 6.83349C156.407 6.78946 156.583 6.87751 156.627 7.05363C156.671 7.18572 156.627 7.36183 156.495 7.40585L153.677 8.55061C153.589 8.50658 153.545 8.50658 153.501 8.55061Z" fill="#231F20"/>
<path d="M157.286 6.87842C157.154 6.87842 157.066 6.7903 157.022 6.70219C156.934 6.52595 157.022 6.34971 157.198 6.30565L157.727 6.08535C157.903 5.99723 158.079 6.08535 158.123 6.26159C158.167 6.43783 158.123 6.61406 157.947 6.65812L157.418 6.87842C157.374 6.87842 157.33 6.87842 157.286 6.87842Z" fill="#231F20"/>
<path d="M29.7786 103.125L14.3244 114.397L8.02832 0.890625L25.1555 8.41955L29.7786 103.125Z" fill="#4832A2"/>
<path d="M14.324 114.705C14.28 114.705 14.236 114.705 14.192 114.661C14.1039 114.617 14.0158 114.529 14.0158 114.397L7.71973 0.934836C7.71973 0.846779 7.76376 0.714693 7.85181 0.670664C7.93987 0.626635 8.07196 0.582607 8.16001 0.626636L25.2432 8.15556C25.3312 8.19959 25.4193 8.28765 25.4193 8.41973L30.0423 103.126C30.0423 103.214 29.9983 103.346 29.9102 103.39L14.4561 114.661C14.4561 114.661 14.4121 114.705 14.324 114.705ZM8.38016 1.37512L14.6322 113.781L29.47 102.994L24.8469 8.63988L8.38016 1.37512Z" fill="#231F20"/>
<path d="M14.3246 114.397L6.04721 114.133L0.719727 4.0607L8.02851 0.890625L14.3246 114.397Z" fill="#4832A2"/>
<path d="M14.3242 114.705L6.04682 114.441C5.87071 114.441 5.73862 114.309 5.73862 114.133L0.411133 4.0606C0.411133 3.92851 0.499191 3.79642 0.587249 3.75239L7.89603 0.582321C8.02812 0.494264 8.24826 0.582319 8.29229 0.714406C8.29229 0.758434 8.33632 0.802465 8.33632 0.846493L14.6324 114.309C14.6324 114.397 14.5884 114.485 14.5444 114.529C14.5003 114.661 14.4123 114.705 14.3242 114.705ZM6.35502 113.824L14.016 114.045L7.76395 1.33081L1.07156 4.23671L6.35502 113.824Z" fill="#231F20"/>
<path d="M10.8906 6.83398L15.8218 99.7348L27.4895 91.5454L22.9985 11.7212L10.8906 6.83398Z" fill="white"/>
<path d="M10.8898 6.83418L22.9978 11.7214L27.4887 91.5456L15.8211 99.735L10.8898 6.83418ZM10.8898 6.21777C10.5376 6.21777 10.2734 6.48195 10.2734 6.83418V6.87821L15.2047 99.779C15.2047 99.9991 15.3368 100.219 15.5569 100.307C15.645 100.351 15.733 100.351 15.8211 100.351C15.9532 100.351 16.0852 100.307 16.1733 100.263L27.8409 92.0739C28.017 91.9419 28.1051 91.7657 28.1051 91.5456L23.6142 11.7214C23.6142 11.5012 23.4381 11.2811 23.2179 11.193L11.11 6.30583C11.0219 6.21777 10.9779 6.21777 10.8898 6.21777Z" fill="#231F20"/>
<path d="M22.5133 105.987C22.2491 105.987 21.9849 105.899 21.8088 105.767C21.1043 105.239 20.6641 103.962 20.6641 102.421C20.6641 100.131 21.5446 98.0618 22.6894 97.6656C23.0416 97.5335 23.4819 97.6215 23.7901 97.8417C24.4946 98.37 24.9349 99.6469 24.9349 101.188C24.9349 103.477 24.0543 105.547 22.9095 105.943C22.7774 105.943 22.6454 105.987 22.5133 105.987ZM23.0856 98.1939C23.0416 98.1939 22.9536 98.1939 22.9095 98.238C22.117 98.5021 21.2805 100.219 21.2805 102.421C21.2805 103.786 21.6327 104.886 22.161 105.283C22.2931 105.415 22.5133 105.459 22.6894 105.371C23.4819 105.106 24.3185 103.389 24.3185 101.188C24.3185 99.823 23.9662 98.7223 23.4379 98.326C23.3498 98.238 23.2177 98.1939 23.0856 98.1939Z" fill="#231F20"/>
<path d="M19.8274 8.55093C19.7834 8.55093 19.7394 8.55093 19.6953 8.55093L16.8775 7.40618C16.7454 7.31813 16.6573 7.14201 16.7454 7.00993C16.8335 6.87784 16.9656 6.83381 17.0976 6.87784L19.9155 8.02259C20.0916 8.11065 20.1356 8.28676 20.0916 8.41885C20.0476 8.5069 19.9595 8.55093 19.8274 8.55093Z" fill="#231F20"/>
<path d="M16.0432 6.87912C15.9991 6.87912 15.9551 6.87913 15.911 6.83507L15.3823 6.61477C15.2061 6.52665 15.162 6.35041 15.2501 6.21823C15.3382 6.04199 15.5145 5.99793 15.6466 6.08605L16.1754 6.30635C16.3516 6.39447 16.3957 6.57071 16.3516 6.70289C16.2635 6.79101 16.1754 6.87912 16.0432 6.87912Z" fill="#231F20"/>
<path d="M36.7354 46.6359C36.7354 46.6359 42.4592 48.0448 45.6733 46.6799C48.8874 45.3151 49.7239 42.2771 53.3343 41.9689C56.9447 41.6607 66.3228 41.2644 66.3228 41.2644L66.8952 32.943C66.8952 32.943 61.0393 26.2506 55.1395 25.6782C49.2396 25.1058 39.9936 33.8676 36.6914 35.0563L36.7354 46.6359Z" fill="white"/>
<path d="M41.9754 47.604C40.1702 47.5599 38.409 47.3398 36.6479 46.9435C36.5158 46.8995 36.4277 46.7674 36.4277 46.6353V35.0117C36.4277 34.8797 36.5158 34.7476 36.6479 34.7035C37.6605 34.3513 39.3777 33.1185 41.359 31.7536C45.4536 28.8917 51.0893 24.9291 55.184 25.3254C61.1719 25.8978 66.8957 32.414 67.1158 32.6782C67.1598 32.7222 67.2039 32.8103 67.2039 32.8984L66.6315 41.2638C66.6315 41.4399 66.4994 41.528 66.3233 41.528C66.2352 41.528 56.9011 41.9243 53.3348 42.2325C51.3535 42.4086 50.2528 43.3772 48.9759 44.566C48.0513 45.5346 46.9506 46.3271 45.7178 46.8995C44.5731 47.4719 43.2522 47.692 41.9754 47.604ZM37.0441 46.4152C38.1449 46.6794 42.8559 47.604 45.5417 46.4152C46.6865 45.8428 47.7431 45.0943 48.6237 44.1697C49.9006 42.9809 51.1334 41.8362 53.3348 41.6601C56.5489 41.3959 64.4741 41.0437 66.0591 40.9556L66.5875 33.0304C65.839 32.2379 60.4675 26.4702 55.14 25.9418C51.2654 25.5896 45.7618 29.4201 41.7112 32.2379C39.818 33.5588 38.1449 34.7035 37.0441 35.1879V46.4152Z" fill="#231F20"/>
<path d="M19.6961 54.9135L37.5718 50.3786C37.5718 50.3786 35.5465 40.6922 37.5718 33.5596H17.891C17.891 33.5596 15.8216 37.6102 16.6581 44.7429C17.4947 51.8755 19.6961 54.9135 19.6961 54.9135Z" fill="#231F20"/>
<path d="M19.6958 55.2214C19.6078 55.2214 19.5197 55.1774 19.4317 55.0893C19.3436 54.9573 17.1422 51.9633 16.3056 44.7866C15.4691 37.6099 17.4944 33.6033 17.5824 33.3831C17.6265 33.2951 17.7586 33.207 17.8466 33.207H37.5275C37.6156 33.207 37.7036 33.2511 37.7917 33.3391C37.8357 33.4272 37.8797 33.5152 37.8357 33.6033C35.8544 40.5598 37.8357 50.2022 37.8357 50.2902C37.8797 50.4663 37.7917 50.5984 37.6156 50.6424L19.7399 55.1774C19.7399 55.2214 19.7399 55.2214 19.6958 55.2214ZM18.0668 33.9115C17.7145 34.748 16.2176 38.5785 16.922 44.7426C17.6265 50.8186 19.3436 53.8565 19.8279 54.561L37.1753 50.1581C36.8671 48.5291 35.4581 40.2516 37.1312 33.8675L18.0668 33.9115Z" fill="#231F20"/>
<path d="M52.5852 30.6523H82.877C83.8016 30.6523 84.5501 31.4008 84.5501 32.3254V50.2452C84.5501 51.1698 83.8016 51.9183 82.877 51.9183H52.5852C51.6606 51.9183 50.9121 51.1698 50.9121 50.2452V32.3254C50.9121 31.4008 51.6606 30.6523 52.5852 30.6523Z" fill="white"/>
<path d="M82.2168 30.6525C83.4936 30.6525 84.5503 31.7092 84.5503 32.9861V49.5409C84.5503 50.8177 83.4936 51.8744 82.2168 51.8744H53.2458C51.969 51.8744 50.9123 50.8177 50.9123 49.5409V32.9861C50.9123 31.7092 51.969 30.6525 53.2458 30.6525H82.2168ZM82.2168 30.0361H53.2458C51.6168 30.0361 50.2959 31.357 50.2959 32.9861V49.5849C50.2959 51.214 51.6168 52.5348 53.2458 52.5348H82.2168C83.8458 52.5348 85.1667 51.214 85.1667 49.5849V32.9861C85.1667 31.357 83.8458 30.0361 82.2168 30.0361Z" fill="#231F20"/>
<path d="M84.5501 34.8799H50.9121V40.0753H84.5501V34.8799Z" fill="#D1D3D4"/>
<path d="M46.9941 43.0251C46.9941 43.0251 54.8753 43.4213 58.1775 42.4527C61.4796 41.4841 62.1401 38.9744 60.6871 37.4334C59.2341 35.8924 55.8439 37.3454 51.7933 36.817C47.7426 36.2887 46.9941 35.9805 46.9941 35.9805" fill="white"/>
<path d="M50.7352 43.4211C48.7099 43.4211 47.1249 43.3331 46.9928 43.3331C46.8167 43.3331 46.6846 43.201 46.6846 43.0249C46.6846 42.8488 46.8167 42.7167 46.9928 42.7167C46.9928 42.7167 46.9928 42.7167 47.0368 42.7167C47.1249 42.7167 54.8739 43.1129 58.1321 42.1883C59.7171 41.748 60.7738 40.8675 61.082 39.8108C61.2581 39.0623 61.038 38.2698 60.5096 37.6974C59.7611 36.9049 58.3522 37.037 56.503 37.1691C54.918 37.3452 53.3329 37.3452 51.7919 37.1691C47.7853 36.5967 46.9487 36.3325 46.9487 36.3325C46.7726 36.2885 46.6846 36.1124 46.7726 35.9362C46.8167 35.7601 46.9928 35.6721 47.1689 35.7601C47.2129 35.7601 48.0054 36.0243 51.924 36.5967C53.465 36.7728 55.006 36.7728 56.503 36.5967C58.4843 36.4206 60.0253 36.3325 60.9939 37.3011C61.6984 38.0056 61.9626 39.0183 61.7424 39.9869C61.3902 41.2637 60.1574 42.2764 58.3522 42.8047C56.547 43.3331 53.2889 43.4211 50.7352 43.4211Z" fill="#231F20"/>
<path d="M74.468 50.2015C72.4426 50.2015 70.7695 48.5284 70.7695 46.5031C70.7695 44.4778 72.4426 42.8047 74.468 42.8047C76.4933 42.8047 78.1664 44.4778 78.1664 46.5031C78.1664 48.5725 76.5373 50.2015 74.468 50.2015ZM74.468 43.4211C72.7508 43.4211 71.3859 44.786 71.3859 46.5031C71.3859 48.2202 72.7508 49.5851 74.468 49.5851C76.1851 49.5851 77.55 48.2202 77.55 46.5031C77.55 44.786 76.1851 43.4211 74.468 43.4211Z" fill="#D1D3D4"/>
<path d="M79.1349 50.2015C77.1096 50.2015 75.4365 48.5284 75.4365 46.5031C75.4365 44.4778 77.1096 42.8047 79.1349 42.8047C81.1603 42.8047 82.8334 44.4778 82.8334 46.5031C82.7893 48.5725 81.1603 50.2015 79.1349 50.2015ZM79.1349 43.4211C77.4178 43.4211 76.0529 44.786 76.0529 46.5031C76.0529 48.2202 77.4178 49.5851 79.1349 49.5851C80.8521 49.5851 82.217 48.2202 82.217 46.5031C82.217 44.786 80.808 43.4211 79.1349 43.4211Z" fill="#D1D3D4"/>
<path d="M56.1524 46.3713H53.8629C53.6868 46.3713 53.5547 46.2392 53.5547 46.0631C53.5547 45.887 53.6868 45.7549 53.8629 45.7549H56.1524C56.3285 45.7549 56.4606 45.887 56.4606 46.0631C56.4606 46.1952 56.2845 46.3713 56.1524 46.3713Z" fill="#D1D3D4"/>
<path d="M59.9375 46.3713H57.6481C57.4719 46.3713 57.3398 46.2392 57.3398 46.0631C57.3398 45.887 57.4719 45.7549 57.6481 45.7549H59.9375C60.1137 45.7549 60.2457 45.887 60.2457 46.0631C60.2457 46.1952 60.1137 46.3713 59.9375 46.3713Z" fill="#D1D3D4"/>
<path d="M63.7687 46.3713H61.4352C61.259 46.3713 61.127 46.2392 61.127 46.0631C61.127 45.887 61.259 45.7549 61.4352 45.7549H63.7687C63.9448 45.7549 64.0769 45.887 64.0769 46.0631C64.0769 46.1952 63.9448 46.3713 63.7687 46.3713Z" fill="#D1D3D4"/>
<path d="M67.5547 46.3713H65.2652C65.0891 46.3713 64.957 46.2392 64.957 46.0631C64.957 45.887 65.0891 45.7549 65.2652 45.7549H67.5547C67.7308 45.7549 67.8629 45.887 67.8629 46.0631C67.8629 46.1952 67.7308 46.3713 67.5547 46.3713Z" fill="#D1D3D4"/>
<path d="M61.4349 49.3654H53.818C53.6419 49.3654 53.5098 49.2333 53.5098 49.0572C53.5098 48.8811 53.6419 48.749 53.818 48.749H61.4349C61.6111 48.749 61.7431 48.8811 61.7431 49.0572C61.7431 49.2333 61.6111 49.3654 61.4349 49.3654Z" fill="#D1D3D4"/>
<path d="M132.982 53.2842H92.0791V93.1743H132.982V53.2842Z" fill="white"/>
<path d="M132.982 53.2844V93.1745H92.0793V53.2844H132.982ZM132.982 52.668H92.0793C91.7271 52.668 91.4629 52.9321 91.4629 53.2844V93.1745C91.4629 93.5267 91.7271 93.7909 92.0793 93.7909H132.982C133.334 93.7909 133.598 93.5267 133.598 93.1745V53.2844C133.598 52.9321 133.334 52.668 132.982 52.668Z" fill="#231F20"/>
<path d="M129.769 31.1376C128.448 29.5966 126.335 28.8921 124.309 28.5399C122.284 28.1877 120.171 28.0556 118.277 27.2631C116.869 26.6907 115.592 25.8101 114.095 25.678C112.598 25.5459 110.837 26.7347 111.145 28.1877C111.321 28.9802 111.981 29.5525 112.642 30.0369C114.007 31.0495 115.416 31.9741 116.869 32.8107C115.592 32.5905 114.095 32.4585 113.126 33.339C112.29 34.0875 112.157 35.3203 112.113 36.421C112.025 39.7672 112.554 43.1134 113.654 46.2835C114.007 47.3402 114.491 48.4409 115.416 49.0573C116.428 49.7618 117.793 49.8058 119.026 49.8058L138.751 49.6737C139.587 49.6737 139.015 36.7292 137.87 35.4084C136.858 34.2636 135.757 34.5718 134.348 34.3957C131.882 34.1756 131.222 32.8547 129.769 31.1376Z" fill="white"/>
<path d="M118.674 50.1137C117.573 50.1137 116.252 50.0697 115.24 49.3212C114.227 48.5727 113.787 47.516 113.39 46.3713C112.29 43.1572 111.717 39.811 111.805 36.4208C111.849 35.276 111.982 33.9551 112.906 33.1186C113.655 32.5022 114.623 32.238 115.548 32.3701C114.491 31.7097 113.479 31.0052 112.51 30.3007C111.805 29.7724 111.057 29.156 110.881 28.2754C110.749 27.615 110.969 26.9546 111.409 26.4702C112.114 25.7218 113.126 25.3255 114.139 25.3695C115.196 25.5016 116.252 25.8538 117.177 26.4262C117.573 26.6023 118.014 26.8225 118.41 26.9986C119.819 27.4829 121.228 27.8351 122.725 27.9672C123.297 28.0553 123.825 28.1433 124.398 28.2314C127.083 28.7157 128.845 29.5963 130.033 30.9612C130.254 31.2254 130.474 31.4895 130.65 31.7097C131.75 33.0305 132.455 33.9551 134.436 34.1313C134.744 34.1753 135.053 34.1753 135.361 34.1753C136.329 34.2193 137.298 34.2193 138.179 35.232C139.323 36.5528 139.94 48.1324 139.235 49.6734C139.191 49.8495 139.015 49.9816 138.839 49.9816L119.114 50.1137H118.674ZM115.196 32.9865C114.491 32.9425 113.831 33.1626 113.258 33.6029C112.51 34.2633 112.378 35.4081 112.378 36.4648C112.29 39.7669 112.818 43.0691 113.919 46.2392C114.271 47.2518 114.711 48.2645 115.548 48.8809C116.428 49.5413 117.661 49.5854 118.982 49.5854L138.575 49.4533C139.103 48.1764 138.619 36.861 137.606 35.7163C136.902 34.9238 136.197 34.9238 135.229 34.8797C134.921 34.8797 134.612 34.8357 134.26 34.8357C132.059 34.6156 131.178 33.5149 130.077 32.194C129.857 31.9738 129.681 31.7097 129.461 31.4455C128.36 30.2127 126.687 29.4202 124.178 28.9359C123.649 28.8478 123.077 28.7597 122.548 28.6717C121.051 28.4956 119.555 28.1433 118.102 27.659C117.661 27.4829 117.221 27.2628 116.825 27.0867C115.944 26.6023 114.976 26.2501 114.007 26.118C113.17 26.074 112.334 26.3822 111.761 26.9986C111.453 27.3508 111.277 27.7911 111.365 28.2754C111.497 28.9799 112.158 29.5082 112.774 29.9485C114.095 30.9172 115.504 31.8858 116.957 32.7223C117.089 32.8104 117.133 32.9425 117.089 33.0746C117.045 33.2067 116.913 33.2947 116.737 33.2947C116.208 33.2067 115.68 33.1626 115.152 33.1186L115.196 32.9865Z" fill="#231F20"/>
<path d="M102.69 57.1589C102.514 57.1589 102.382 57.0268 102.382 56.8507C102.382 55.8381 102.778 32.0625 112.508 32.0625C116.647 32.0625 119.597 36.2452 121.314 44.5227C122.107 48.5733 122.547 52.668 122.679 56.8067C122.679 56.9828 122.547 57.1149 122.371 57.1149C122.195 57.1149 122.063 56.9828 122.063 56.8067C122.063 56.5425 121.666 32.6349 112.552 32.6349C103.439 32.6349 103.042 56.5425 103.042 56.8067C103.042 57.0268 102.866 57.1589 102.69 57.1589Z" fill="#231F20"/>
<path d="M153.059 54.1645L136.681 50.378C136.681 50.378 138.706 40.6917 136.681 33.559L154.865 32.8105C154.865 32.8105 156.934 36.8612 156.097 43.9939C155.261 51.1265 153.059 54.2085 153.059 54.1645Z" fill="#231F20"/>
<path d="M153.06 54.4723C153.016 54.4723 153.016 54.4723 152.972 54.4723L136.593 50.6859C136.417 50.6418 136.329 50.5097 136.373 50.3336C136.373 50.2456 138.354 40.6033 136.373 33.6467C136.329 33.5586 136.373 33.4706 136.417 33.3825C136.461 33.2945 136.549 33.2504 136.637 33.2504L154.821 32.502C154.953 32.502 155.041 32.546 155.085 32.6781C155.173 32.8542 157.198 36.8608 156.362 44.0375C155.525 51.2142 153.324 54.2082 153.236 54.3402C153.236 54.4723 153.148 54.5164 153.06 54.4723ZM137.033 50.1575L152.928 53.8119C153.368 53.1074 155.129 50.0254 155.833 43.9935C156.538 37.8294 155.085 33.9989 154.689 33.1624L137.077 33.9109C138.706 40.251 137.341 48.5284 137.033 50.1575Z" fill="#231F20"/>
<path d="M124.836 47.3842C124.792 47.3842 124.792 47.3842 124.748 47.3842C118.98 45.6671 118.1 42.2328 118.056 42.1008C118.011 41.9246 118.144 41.7926 118.276 41.7485C118.452 41.7045 118.584 41.7926 118.628 41.9687C118.628 42.0127 119.508 45.1828 124.88 46.8118C125.056 46.8559 125.144 47.032 125.1 47.2081C125.1 47.2962 124.968 47.3842 124.836 47.3842Z" fill="#231F20"/>
<path d="M113.037 32.8981C114.886 32.6339 116.735 32.5459 118.585 32.5899C119.818 32.6339 121.314 32.9421 121.667 34.0869C121.843 34.8354 121.623 35.5839 121.094 36.1122C120.566 36.6406 119.906 37.0368 119.201 37.301C120.302 37.301 121.667 37.5211 122.063 38.5338C122.283 39.2823 122.019 40.0748 121.403 40.5591C120.786 40.9994 120.082 41.3516 119.377 41.4837C120.61 41.7039 122.107 42.2322 122.239 43.465C122.371 44.6978 121.05 45.4023 119.906 45.7986C120.258 46.459 121.27 46.2829 121.799 46.7672C122.327 47.2515 122.195 48.1761 121.667 48.6604C121.094 49.1007 120.434 49.3649 119.729 49.4089C118.277 49.585 116.824 49.6291 115.371 49.541C114.49 49.497 113.477 49.3649 112.861 48.7045C112.245 48.044 112.333 46.7232 113.169 46.459C111.716 46.3709 110.571 45.0941 110.704 43.5971C110.748 42.9367 111.056 42.3203 111.54 41.836C110.748 41.5278 110.175 40.7793 110.043 39.8987C109.999 39.0621 110.351 38.2256 110.968 37.6973C107.622 36.0242 110.615 33.2063 113.037 32.8981Z" fill="white"/>
<path d="M117.088 49.9378C116.559 49.9378 115.987 49.8937 115.37 49.8937C114.358 49.8497 113.345 49.6736 112.685 48.9691C112.244 48.4848 112.068 47.8244 112.244 47.208C112.288 47.0319 112.376 46.8558 112.465 46.6796C110.879 46.1953 110.043 44.5222 110.527 42.9372C110.615 42.585 110.791 42.2768 111.012 42.0126C110.307 41.5723 109.823 40.8238 109.735 40.0313C109.647 39.2388 109.955 38.4462 110.483 37.8739C109.25 37.1254 109.118 36.2448 109.206 35.6284C109.471 34.1314 111.408 32.8546 112.993 32.6344C114.842 32.3703 116.735 32.2822 118.629 32.3262C120.478 32.3703 121.667 32.9867 122.019 34.0434C122.239 34.8799 121.975 35.7605 121.358 36.3769C121.05 36.6851 120.742 36.9052 120.39 37.1254C121.182 37.2575 122.063 37.6097 122.415 38.4903C122.767 39.3709 122.239 40.3395 121.667 40.8678C121.314 41.132 120.918 41.3962 120.522 41.5283C122.107 42.0566 122.547 42.8932 122.591 43.5536C122.679 44.5662 121.931 45.4468 120.522 46.0192C120.698 46.1073 120.874 46.1513 121.05 46.1953C121.402 46.2393 121.755 46.4155 122.063 46.6356C122.327 46.8998 122.503 47.252 122.503 47.6483C122.503 48.1766 122.327 48.6609 121.931 49.0132C121.314 49.4975 120.566 49.8057 119.817 49.8497C118.849 49.8937 117.968 49.9378 117.088 49.9378ZM113.037 32.8986L113.081 33.2068C111.716 33.3829 110.043 34.4837 109.823 35.6724C109.691 36.3769 110.131 36.9933 111.1 37.4776C111.188 37.5216 111.232 37.6097 111.276 37.6978C111.276 37.7858 111.232 37.9179 111.188 37.9619C110.615 38.4462 110.307 39.1507 110.351 39.8992C110.439 40.6477 110.923 41.3081 111.628 41.5723C111.716 41.6163 111.804 41.7044 111.804 41.7924C111.848 41.8805 111.804 42.0126 111.716 42.0566C110.791 42.9812 110.747 44.4782 111.628 45.4028C112.024 45.8431 112.597 46.1073 113.169 46.1073C113.345 46.1073 113.477 46.2834 113.477 46.4155C113.477 46.5475 113.389 46.6356 113.257 46.6796C113.037 46.7677 112.861 46.9878 112.773 47.208C112.685 47.6483 112.773 48.0886 113.037 48.3968C113.565 48.9691 114.446 49.1012 115.326 49.1452C116.735 49.2333 118.188 49.2333 119.597 49.0572C120.258 49.0132 120.874 48.793 121.358 48.3968C121.578 48.1766 121.711 47.8684 121.711 47.5162C121.711 47.296 121.622 47.1199 121.49 46.9878C121.27 46.8117 121.006 46.7237 120.698 46.6796C120.214 46.6356 119.773 46.3274 119.509 45.9311C119.465 45.8431 119.465 45.755 119.509 45.667C119.553 45.5789 119.597 45.5349 119.685 45.4909C120.214 45.3147 121.887 44.6983 121.799 43.5096C121.711 42.4529 120.346 42.0126 119.201 41.7924C119.069 41.7484 118.937 41.6603 118.937 41.5283C118.937 41.3962 119.025 41.2641 119.157 41.2201C119.861 41.0439 120.522 40.7798 121.094 40.3395C121.622 39.9432 121.843 39.2828 121.667 38.6664C121.402 38.006 120.566 37.6537 119.113 37.6097C118.981 37.6097 118.849 37.5216 118.805 37.3455C118.761 37.2134 118.849 37.0814 118.981 36.9933C119.641 36.7291 120.214 36.3769 120.742 35.8926C121.226 35.4523 121.402 34.7919 121.27 34.1754C120.962 33.1628 119.553 32.8986 118.452 32.8986C116.603 32.8546 114.754 32.9426 112.949 33.2068L113.037 32.8986Z" fill="#231F20"/>
<path d="M112.421 38.0499C112.245 38.0499 112.113 37.9178 112.113 37.7417C112.113 37.5655 112.245 37.4335 112.421 37.4335L119.246 36.9932C119.422 36.9932 119.554 37.0812 119.554 37.2573C119.554 37.2573 119.554 37.2573 119.554 37.3014C119.554 37.4775 119.422 37.6096 119.29 37.6096L112.421 38.0499Z" fill="#231F20"/>
<path d="M113.346 42.1443C113.17 42.1443 113.038 42.0122 113.038 41.8361C113.038 41.66 113.17 41.5279 113.346 41.5279L119.378 41.2197C119.554 41.2197 119.686 41.3078 119.686 41.4839C119.686 41.66 119.554 41.7921 119.378 41.7921L113.346 42.1443Z" fill="#231F20"/>
<path d="M114.622 46.5468C114.446 46.5468 114.313 46.4148 114.313 46.2827C114.313 46.1066 114.446 45.9745 114.578 45.9304L119.817 45.5342C119.993 45.5342 120.125 45.6222 120.125 45.7984C120.125 45.9745 119.993 46.1066 119.861 46.1506L114.622 46.5468Z" fill="#231F20"/>
<path d="M105.2 63.9387H97.4068C97.2307 63.9387 97.0986 63.8066 97.0986 63.6305C97.0986 63.4544 97.2307 63.3223 97.4068 63.3223H105.2C105.376 63.3223 105.508 63.4544 105.508 63.6305C105.508 63.8066 105.376 63.9387 105.2 63.9387Z" fill="#D1D3D4"/>
</svg>
