<svg width="589" height="439" viewBox="0 0 589 439" fill="none" xmlns="http://www.w3.org/2000/svg">
<path d="M153.568 350.747C151.048 350.747 148.668 350.607 146.427 350.467C146.007 350.467 145.727 350.047 145.727 349.627C145.727 349.207 146.147 348.927 146.567 348.927C148.808 349.067 151.328 349.207 153.708 349.207C154.128 349.207 154.408 349.487 154.408 349.907C154.408 350.467 153.988 350.747 153.568 350.747ZM160.708 350.607C160.288 350.607 160.008 350.327 160.008 349.907C160.008 349.487 160.288 349.207 160.708 349.207C163.089 349.067 165.469 348.927 167.849 348.647C168.269 348.647 168.549 348.927 168.689 349.347C168.689 349.767 168.409 350.047 167.989 350.187C165.609 350.467 163.089 350.607 160.848 350.747L160.708 350.607ZM139.147 349.487C136.627 349.067 134.247 348.507 131.866 347.947C131.446 347.807 131.166 347.387 131.306 347.107C131.446 346.687 131.866 346.407 132.146 346.547C134.387 347.107 136.767 347.667 139.147 347.947C139.567 347.947 139.847 348.367 139.847 348.787C139.847 349.207 139.427 349.487 139.147 349.487ZM174.989 349.067C174.569 349.067 174.289 348.787 174.289 348.507C174.289 348.087 174.569 347.807 174.849 347.667C177.23 347.247 179.61 346.827 181.85 346.407C182.27 346.267 182.55 346.547 182.69 346.967C182.83 347.387 182.55 347.807 182.13 347.807C179.89 348.367 177.37 348.787 174.989 349.067ZM189.13 346.267C188.85 346.267 188.57 345.987 188.43 345.707C188.29 345.287 188.57 344.867 188.99 344.867C191.231 344.307 193.611 343.747 195.991 343.047C196.411 342.907 196.831 343.187 196.831 343.607C196.971 344.027 196.691 344.447 196.271 344.447C193.891 345.147 191.511 345.707 189.27 346.267H189.13ZM125.286 345.847C125.146 345.847 125.146 345.847 125.006 345.847C122.766 345.007 120.526 343.887 118.425 342.767C118.145 342.487 118.005 342.067 118.145 341.787C118.285 341.507 118.705 341.367 119.125 341.507C121.226 342.627 123.326 343.607 125.566 344.447C125.986 344.587 126.126 345.007 125.986 345.287C125.846 345.567 125.566 345.847 125.286 345.847ZM203.131 342.487C202.851 342.487 202.571 342.347 202.431 341.927C202.291 341.507 202.571 341.087 202.851 341.087C205.092 340.387 207.332 339.686 209.712 338.846C210.132 338.706 210.552 338.846 210.692 339.266C210.832 339.686 210.552 340.106 210.272 340.106C208.032 340.947 205.652 341.647 203.411 342.347L203.131 342.487ZM112.825 338.706C112.685 338.706 112.545 338.706 112.405 338.566C110.445 337.026 108.625 335.346 107.085 333.666C106.805 333.386 106.805 332.966 107.085 332.686C107.365 332.406 107.785 332.406 108.065 332.686C109.605 334.366 111.425 336.046 113.245 337.446C113.525 337.726 113.665 338.146 113.385 338.426C113.245 338.706 112.965 338.706 112.825 338.706ZM216.712 337.866C216.292 338.006 215.872 337.726 215.872 337.306C215.732 336.886 216.012 336.466 216.432 336.466C218.673 335.626 220.913 334.786 223.153 333.806C223.573 333.666 223.993 333.806 224.133 334.226C224.273 334.646 224.133 335.066 223.713 335.206C221.473 336.046 219.233 337.026 216.992 337.866C216.852 337.726 216.852 337.726 216.712 337.866ZM230.013 332.406C229.593 332.546 229.173 332.266 229.173 331.846C229.033 331.426 229.313 331.006 229.733 331.006C231.833 330.026 234.074 329.046 236.314 328.066C236.734 327.926 237.154 328.066 237.294 328.346C237.434 328.766 237.294 329.186 236.874 329.326C234.634 330.306 232.394 331.286 230.293 332.266C230.293 332.266 230.153 332.406 230.013 332.406ZM103.164 328.066C102.884 328.066 102.744 327.926 102.604 327.786C101.344 325.685 100.224 323.585 99.3841 321.205C99.244 320.785 99.384 320.365 99.8041 320.225C100.224 320.085 100.644 320.225 100.784 320.645C101.624 322.885 102.744 324.985 104.004 326.946C104.144 327.226 104.144 327.786 103.724 327.926C103.444 328.066 103.304 328.066 103.164 328.066ZM243.174 326.386C242.754 326.386 242.474 326.105 242.474 325.685C242.474 325.405 242.614 325.125 242.894 324.985C244.994 324.005 247.235 322.885 249.335 321.765C249.755 321.625 250.175 321.765 250.315 322.045C250.455 322.465 250.315 322.885 250.035 323.025C247.795 324.145 245.694 325.125 243.594 326.245C243.454 326.386 243.314 326.386 243.174 326.386ZM256.055 319.945C255.775 319.945 255.495 319.805 255.355 319.525C255.215 319.245 255.355 318.685 255.635 318.545C257.735 317.425 259.835 316.305 261.936 315.185C262.356 315.045 262.776 315.185 262.916 315.465C263.056 315.745 262.916 316.305 262.636 316.445C260.536 317.565 258.435 318.685 256.335 319.805C256.335 319.805 256.195 319.945 256.055 319.945ZM97.984 314.765C97.7039 314.765 97.2839 314.485 97.2839 314.205C96.8639 311.824 96.5839 309.444 96.4438 307.064C96.4438 306.644 96.7239 306.364 97.1439 306.364C97.5639 306.364 97.8439 306.644 97.8439 307.064C97.8439 307.064 97.8439 307.064 97.8439 307.204C97.984 309.584 98.124 311.964 98.684 314.205C98.824 314.625 98.544 315.045 98.124 315.045L97.984 314.765ZM268.656 312.945C268.376 312.945 268.096 312.805 267.956 312.524C267.816 312.244 267.956 311.684 268.236 311.544C270.336 310.424 272.436 309.164 274.397 307.904C274.677 307.764 275.237 307.764 275.377 308.184C275.517 308.464 275.517 308.884 275.097 309.164C272.996 310.424 270.896 311.544 268.796 312.805C268.936 312.945 268.796 312.945 268.656 312.945ZM281.117 305.664C280.837 305.664 280.697 305.524 280.557 305.384C280.417 305.104 280.417 304.544 280.837 304.404C282.797 303.144 284.897 301.884 286.997 300.624C287.277 300.344 287.837 300.484 287.977 300.904C288.258 301.184 288.117 301.744 287.697 301.884C285.597 303.144 283.637 304.404 281.537 305.664C281.397 305.524 281.257 305.664 281.117 305.664ZM97.4239 300.344C97.0039 300.344 96.7239 299.924 96.7239 299.504C97.0039 297.123 97.4239 294.603 97.984 292.363C98.124 291.943 98.544 291.663 98.824 291.803C99.104 291.943 99.5241 292.363 99.3841 292.643C98.824 294.883 98.404 297.263 98.124 299.644C98.124 300.064 97.8439 300.344 97.4239 300.344ZM293.298 297.963C293.018 297.963 292.878 297.823 292.738 297.683C292.458 297.403 292.598 296.983 292.878 296.703C294.838 295.443 296.938 294.043 298.898 292.783C299.178 292.503 299.598 292.643 299.878 292.923C300.158 293.203 300.018 293.763 299.738 293.903C297.778 295.303 295.678 296.563 293.718 297.823C293.578 297.963 293.438 297.963 293.298 297.963ZM305.339 290.123C304.919 290.123 304.639 289.843 304.639 289.423C304.639 289.143 304.779 289.003 304.919 288.863L310.939 284.943C311.219 284.663 311.639 284.803 311.919 285.083C312.199 285.363 312.059 285.923 311.639 286.063L305.619 289.983C305.619 289.983 305.479 290.123 305.339 290.123ZM100.924 286.483C100.784 286.483 100.784 286.483 100.644 286.483C100.224 286.343 100.084 285.923 100.224 285.643C101.064 283.402 102.044 281.162 103.164 278.922C103.304 278.502 103.724 278.362 104.144 278.642C104.424 278.782 104.564 279.202 104.424 279.622C103.304 281.722 102.324 283.962 101.484 286.203C101.344 286.203 101.064 286.343 100.924 286.483ZM317.52 282.282C317.24 282.282 317.1 282.142 316.96 282.002C316.68 281.722 316.82 281.162 317.24 281.022C319.34 279.762 321.3 278.362 323.4 277.102C323.68 276.822 324.1 276.962 324.38 277.242C324.66 277.522 324.52 278.082 324.1 278.222L318.08 282.002C317.8 282.142 317.66 282.282 317.52 282.282ZM329.7 274.582C329.42 274.582 329.28 274.442 329.14 274.302C328.86 274.022 329 273.462 329.42 273.322C331.521 272.062 333.481 270.802 335.581 269.541C335.861 269.261 336.421 269.401 336.561 269.681C336.841 269.961 336.701 270.522 336.421 270.662C336.421 270.662 336.421 270.662 336.281 270.662L330.121 274.442C329.98 274.442 329.84 274.582 329.7 274.582ZM560.997 267.301C560.857 267.021 560.857 266.741 560.997 266.601C561.277 265.761 562.257 263.661 563.377 260.441C563.517 260.021 563.937 259.881 564.357 260.021C564.777 260.161 564.917 260.581 564.777 261.001C563.657 264.221 562.677 266.461 562.397 267.301L561.697 267.021L560.997 267.301ZM342.021 267.021C341.741 267.021 341.461 266.881 341.461 266.741C341.321 266.461 341.321 266.041 341.741 265.761L347.902 262.121C348.182 261.981 348.742 261.981 348.882 262.401C349.022 262.681 349.022 263.241 348.602 263.381L342.441 267.021C342.301 266.881 342.161 267.021 342.021 267.021ZM354.482 259.601C354.202 259.601 353.922 259.461 353.922 259.181C353.782 258.901 353.782 258.341 354.202 258.201L360.503 254.56C360.783 254.42 361.203 254.42 361.483 254.84C361.623 255.26 361.623 255.68 361.203 255.82L355.042 259.461C354.622 259.741 354.622 259.741 354.482 259.601ZM566.317 254.56H566.037C565.617 254.42 565.477 254 565.617 253.72C566.317 251.48 567.017 249.1 567.717 246.86C567.857 246.44 568.277 246.3 568.557 246.3C568.978 246.44 569.117 246.86 569.117 247.14C568.417 249.38 567.857 251.76 567.017 254.14C566.877 254.42 566.597 254.56 566.317 254.56ZM366.943 252.6C366.663 252.6 366.383 252.46 366.243 252.18C366.103 251.9 366.103 251.48 366.523 251.2C368.623 249.94 370.723 248.82 372.824 247.7C373.244 247.56 373.664 247.7 373.804 247.98C373.944 248.4 373.804 248.82 373.524 248.96L367.223 252.46C367.223 252.46 367.083 252.6 366.943 252.6ZM379.684 245.6C379.404 245.6 379.124 245.46 378.984 245.18C378.844 244.9 378.984 244.34 379.264 244.2L385.704 240.839C386.124 240.699 386.545 240.839 386.685 241.119C386.825 241.399 386.685 241.959 386.404 242.099L379.964 245.46C379.824 245.6 379.684 245.74 379.684 245.6ZM570.098 240.559H569.958C569.538 240.419 569.258 240.139 569.398 239.719C569.958 237.339 570.378 234.959 570.798 232.719C570.798 232.299 571.218 232.019 571.638 232.159C572.058 232.159 572.338 232.579 572.198 232.999C571.778 235.239 571.358 237.619 570.798 240.139C570.798 240.419 570.518 240.699 570.098 240.559ZM392.425 239.159C392.145 239.159 391.865 239.019 391.725 238.739C391.585 238.319 391.725 237.899 392.005 237.759C394.245 236.639 396.345 235.519 398.445 234.539C398.865 234.399 399.285 234.539 399.425 234.819C399.565 235.239 399.425 235.659 399.145 235.799C397.045 236.779 394.805 237.899 392.705 239.019C392.565 239.159 392.565 239.159 392.425 239.159ZM405.446 232.719C405.166 232.719 404.886 232.579 404.746 232.299C404.606 231.879 404.746 231.459 405.026 231.319C407.266 230.199 409.366 229.219 411.606 228.239C412.026 228.098 412.446 228.239 412.586 228.519C412.726 228.939 412.586 229.359 412.306 229.499C410.206 230.479 407.966 231.459 405.726 232.579C405.586 232.719 405.446 232.719 405.446 232.719ZM418.467 226.698C418.047 226.838 417.627 226.558 417.627 226.138C417.487 225.718 417.767 225.298 418.187 225.298C420.427 224.318 422.667 223.338 424.767 222.358C425.187 222.218 425.607 222.358 425.747 222.778C425.887 223.198 425.747 223.618 425.327 223.758C423.227 224.738 420.987 225.718 418.747 226.698C418.607 226.558 418.607 226.698 418.467 226.698ZM572.478 226.418C572.058 226.418 571.778 225.998 571.778 225.718C571.918 223.618 572.058 221.658 572.058 219.698C572.058 219.278 572.058 218.998 572.058 218.578C572.058 218.158 572.338 217.878 572.758 217.878C573.178 217.878 573.458 218.158 573.458 218.578C573.458 218.998 573.458 219.418 573.458 219.698C573.458 221.658 573.318 223.618 573.178 225.858C573.318 226.138 572.898 226.418 572.478 226.418ZM431.628 220.958C431.208 221.098 430.788 220.818 430.788 220.398C430.788 219.978 430.928 219.558 431.348 219.558C433.588 218.578 435.828 217.738 438.068 216.898C438.488 216.758 438.908 216.898 439.048 217.318C439.188 217.738 439.048 218.158 438.628 218.298C436.388 219.138 434.148 220.118 431.908 220.958C431.908 220.818 431.768 220.818 431.628 220.958ZM445.069 215.498C444.789 215.498 444.509 215.358 444.369 215.078C444.229 214.658 444.369 214.238 444.789 214.097C447.029 213.257 449.269 212.417 451.509 211.577C451.929 211.437 452.349 211.717 452.489 211.997C452.629 212.417 452.489 212.697 452.069 212.837C449.829 213.677 447.589 214.518 445.349 215.358L445.069 215.498ZM572.058 212.137C571.778 212.137 571.358 211.857 571.358 211.577C570.938 209.337 570.098 207.097 568.838 205.137C568.698 204.857 568.697 204.297 569.117 204.157C569.398 204.017 569.818 204.017 570.098 204.437C571.358 206.537 572.198 208.917 572.758 211.437C572.898 211.857 572.618 212.137 572.198 212.277L572.058 212.137ZM458.65 210.597C458.37 210.597 458.09 210.457 457.95 210.037C457.81 209.617 458.09 209.197 458.37 209.197C460.75 208.357 462.99 207.657 465.23 206.957C465.65 206.817 466.07 207.097 466.21 207.517C466.35 207.937 466.07 208.357 465.65 208.497C463.41 209.197 461.17 209.897 458.79 210.737L458.65 210.597ZM472.371 206.257C472.091 206.257 471.811 205.977 471.671 205.697C471.531 205.277 471.811 204.997 472.091 204.857C474.471 204.157 476.711 203.457 479.091 202.897C479.511 202.757 479.791 203.037 479.931 203.317C480.071 203.737 479.791 204.017 479.511 204.157C477.271 204.717 474.891 205.417 472.651 206.117L472.371 206.257ZM486.232 202.477C485.812 202.477 485.532 202.197 485.392 201.777C485.392 201.357 485.672 201.077 486.092 200.937C488.472 200.377 490.852 199.816 493.092 199.256C493.512 199.116 493.932 199.396 493.932 199.816C494.072 200.237 493.792 200.657 493.372 200.657C491.132 201.217 488.752 201.637 486.372 202.337L486.232 202.477ZM564.357 200.517C564.217 200.517 564.077 200.517 563.937 200.377C563.097 199.956 562.257 199.536 561.277 199.256C560.017 198.836 558.757 198.556 557.357 198.136C556.937 197.996 556.797 197.576 556.797 197.296C556.937 196.876 557.217 196.736 557.637 196.736C559.037 197.016 560.437 197.436 561.697 197.856C562.677 198.136 563.657 198.556 564.637 199.116C564.917 199.256 565.057 199.816 564.917 200.096C564.917 200.377 564.637 200.517 564.357 200.517ZM500.373 199.396C500.093 199.396 499.673 199.116 499.673 198.836C499.533 198.416 499.813 198.136 500.233 197.996C502.613 197.576 504.993 197.156 507.373 196.736C507.793 196.736 508.073 197.016 508.213 197.296C508.213 197.716 508.073 197.996 507.653 198.136C505.273 198.556 502.893 198.976 500.373 199.396ZM514.514 197.156C514.094 197.156 513.814 196.876 513.814 196.456C513.814 196.036 514.094 195.756 514.514 195.756C516.894 195.476 519.414 195.196 521.654 195.056C522.074 195.056 522.354 195.336 522.494 195.756C522.494 196.176 522.214 196.456 521.794 196.596C519.414 196.596 517.034 196.876 514.514 197.156ZM550.496 196.876C548.116 196.596 545.736 196.316 543.216 196.176C542.796 196.176 542.516 195.756 542.516 195.336C542.516 194.916 542.936 194.636 543.356 194.636C545.876 194.776 548.256 195.056 550.496 195.336C550.916 195.336 551.196 195.756 551.056 196.176C551.056 196.596 550.776 196.876 550.496 196.876ZM528.935 196.036C528.515 196.036 528.235 195.756 528.235 195.336C528.235 194.916 528.515 194.636 528.935 194.636C530.895 194.496 532.855 194.496 534.675 194.496H536.075C536.495 194.496 536.775 194.776 536.775 195.196C536.775 195.616 536.495 195.896 536.075 195.896H534.535C532.715 195.896 530.755 195.896 528.935 196.036Z" fill="#0F3261"/>
<path d="M179.944 73.4195L1.52148 181.784L67.0781 289.723L245.501 181.359L179.944 73.4195Z" fill="#0F3261"/>
<path d="M67.041 290.541H66.901C66.761 290.541 66.621 290.401 66.481 290.261L0.956296 182.174C0.816286 181.894 0.816284 181.474 1.23631 181.194L179.609 72.8259C179.889 72.6859 180.449 72.6859 180.589 73.1059L246.114 181.054C246.254 181.194 246.254 181.474 246.254 181.614C246.254 181.754 246.114 182.034 245.974 182.034L67.461 290.401C67.321 290.541 67.181 290.541 67.041 290.541ZM2.49641 182.034L67.321 288.721L244.434 181.194L179.609 74.506L2.49641 182.034Z" fill="#0F3261"/>
<path d="M56.9269 184.517L30.1216 200.797L44.076 223.773L70.8813 207.493L56.9269 184.517Z" fill="white"/>
<path d="M44.0796 224.597C43.7996 224.597 43.6596 224.457 43.5196 224.317L29.5186 201.356C29.3786 201.216 29.3786 200.936 29.5186 200.796C29.5186 200.656 29.6586 200.516 29.7986 200.376L56.6805 184.135C56.9605 183.995 57.5206 183.995 57.6606 184.415L71.5216 207.376C71.6616 207.516 71.6616 207.796 71.6616 207.936C71.6616 208.076 71.5216 208.216 71.3816 208.356L44.4997 224.597C44.3596 224.457 44.2196 224.457 44.0796 224.597ZM31.0587 201.076L44.2196 222.777L69.8415 207.236L56.6805 185.535L31.0587 201.076Z" fill="#0F3261"/>
<path d="M70.9608 208.215H70.8208L60.6001 206.815C60.4601 206.815 60.1801 206.675 60.0401 206.535L53.0396 195.054C52.8996 194.914 52.8996 194.634 53.0396 194.494L56.2598 184.554C56.3998 184.134 56.8198 183.994 57.0999 184.134C57.5199 184.274 57.6599 184.694 57.5199 184.974L54.2997 194.634L60.8801 205.555L70.8208 206.955C71.2409 206.955 71.5209 207.375 71.5209 207.795C71.5209 208.215 71.3809 208.215 70.9608 208.215Z" fill="#0F3261"/>
<path d="M44.0798 224.597C43.9397 224.597 43.9397 224.597 43.7997 224.597C43.3797 224.457 43.2397 224.037 43.3797 223.757L46.5999 214.376L40.0195 203.456L29.9387 201.775C29.5187 201.635 29.2387 201.355 29.3787 200.935C29.3787 200.515 29.7987 200.235 30.2188 200.375L40.5795 202.055C40.7195 202.055 40.9995 202.195 41.1395 202.335L48.14 213.816C48.2801 213.956 48.2801 214.236 48.14 214.376L44.9198 224.037C44.6398 224.317 44.3598 224.597 44.0798 224.597Z" fill="#0F3261"/>
<path d="M33.7185 207.375C33.4385 207.375 33.2985 207.235 33.1584 207.095C33.0184 206.815 33.0184 206.255 33.4385 206.115L60.3204 189.594C60.6004 189.314 61.1604 189.454 61.3004 189.874C61.4405 190.154 61.4405 190.714 61.0204 190.854L33.9985 207.375C33.9985 207.375 33.8585 207.375 33.7185 207.375Z" fill="#0F3261"/>
<path d="M40.4377 218.996C40.1577 218.996 40.0177 218.856 39.8777 218.716C39.7377 218.436 39.7377 217.876 40.1577 217.736L67.1796 201.355C67.4596 201.215 67.8797 201.215 68.1597 201.635C68.2997 201.915 68.2997 202.335 68.0197 202.615L40.9978 218.996C40.7177 218.996 40.5777 218.996 40.4377 218.996Z" fill="#0F3261"/>
<path d="M36.9393 213.117C36.5193 213.117 36.2393 212.837 36.2393 212.417C36.2393 212.137 36.3793 211.857 36.6593 211.857L63.6812 195.475C63.9612 195.335 64.5213 195.335 64.6613 195.755C64.8013 196.035 64.8013 196.455 64.3813 196.735L37.3593 213.117C37.2193 213.117 37.0793 213.117 36.9393 213.117Z" fill="#0F3261"/>
<path d="M57.6589 216.336C57.3789 216.336 57.2389 216.196 57.0989 216.056L43.0979 193.094C42.9579 192.814 42.9579 192.254 43.3779 192.114C43.7979 191.974 44.218 191.974 44.358 192.394L58.219 215.356C58.499 215.636 58.359 216.196 57.939 216.336C57.939 216.196 57.7989 216.336 57.6589 216.336Z" fill="#0F3261"/>
<path d="M63.5407 246.579L91.4027 229.637C93.6428 228.237 96.723 228.937 98.1231 231.317L98.6832 232.298C100.083 234.538 99.3832 237.618 97.0031 239.018L69.1411 255.959C66.9009 257.359 63.8207 256.659 62.4206 254.279L61.8605 253.299C60.6005 250.919 61.3005 247.979 63.5407 246.579Z" fill="white"/>
<path d="M66.7613 257.22C66.3413 257.22 65.9213 257.22 65.5012 257.08C64.1011 256.66 62.841 255.82 62.001 254.559L61.441 253.579C59.9008 250.919 60.7409 247.559 63.2611 246.019L91.1231 229.078C93.7833 227.538 97.1435 228.378 98.8236 230.898L99.3837 231.878C100.924 234.538 100.224 237.898 97.5635 239.578L69.7015 256.52C68.7215 256.94 67.7414 257.22 66.7613 257.22ZM94.0633 229.638C93.3632 229.638 92.5232 229.778 91.9631 230.198L64.1011 247.139C63.1211 247.699 62.561 248.679 62.281 249.659C62.001 250.779 62.141 251.899 62.701 252.739L63.2611 253.719C64.3812 255.68 66.9013 256.38 68.8615 255.26C68.8615 255.26 68.8615 255.26 69.0015 255.26L96.8635 238.318C98.8236 237.198 99.5237 234.678 98.2636 232.718L97.7035 231.738C96.8635 230.338 95.4634 229.638 94.0633 229.638Z" fill="#0F3261"/>
<path d="M105.964 220.956L133.826 204.015C136.066 202.615 139.146 203.315 140.546 205.695L141.106 206.675C142.507 208.916 141.807 211.996 139.426 213.396L111.564 230.337C109.324 231.737 106.244 231.037 104.844 228.657L104.284 227.677C102.884 225.297 103.584 222.217 105.964 220.956Z" fill="white"/>
<path d="M109.044 231.597C108.624 231.597 108.204 231.597 107.644 231.457C106.244 231.177 104.984 230.197 104.144 228.937L103.584 227.957C102.044 225.297 102.744 221.936 105.404 220.256L133.266 203.315C135.926 201.775 139.286 202.615 140.826 205.135L141.386 206.115C142.927 208.775 142.086 212.136 139.566 213.816L111.704 230.757C111.004 231.317 110.024 231.597 109.044 231.597ZM136.346 203.875C135.646 203.875 134.806 204.015 134.246 204.435L106.384 221.376C104.424 222.496 103.724 225.017 104.984 226.977L105.544 227.957C106.104 228.937 107.084 229.497 108.064 229.777C109.184 230.057 110.304 229.917 111.144 229.357L139.006 212.416C140.966 211.296 141.666 208.775 140.406 206.815L139.846 205.835C139.286 204.855 138.306 204.295 137.326 204.015C137.046 204.015 136.626 203.875 136.346 203.875Z" fill="#0F3261"/>
<path d="M148.247 195.195L192.91 168.033C195.15 166.633 198.23 167.333 199.63 169.713L200.19 170.693C201.591 172.933 200.89 176.013 198.51 177.414L153.847 204.575C151.607 205.976 148.527 205.275 147.127 202.895L146.567 201.915C145.307 199.535 146.007 196.595 148.247 195.195Z" fill="white"/>
<path d="M151.329 205.836C149.369 205.836 147.548 204.856 146.568 203.176L146.008 202.196C144.468 199.536 145.308 196.176 147.828 194.495L192.492 167.334C195.152 165.793 198.512 166.633 200.192 169.154L200.752 170.134C201.592 171.394 201.732 172.934 201.452 174.334C201.172 175.734 200.192 176.994 198.932 177.834L154.269 204.996C153.429 205.556 152.449 205.836 151.329 205.836ZM195.432 168.034C194.732 168.034 193.892 168.314 193.332 168.594L148.529 195.756C146.568 196.876 145.868 199.396 147.128 201.356L147.688 202.336C148.809 204.296 151.469 204.856 153.289 203.736L197.952 176.574C199.912 175.454 200.612 172.934 199.352 170.974L198.792 169.994C198.232 168.734 196.832 168.034 195.432 168.034Z" fill="#0F3261"/>
<path d="M181.43 139.75C180.17 142.131 178.35 143.951 175.969 145.351C168.969 149.691 159.728 147.311 155.388 140.311C151.048 133.31 153.428 124.069 160.428 119.729C162.669 118.329 165.189 117.629 167.849 117.629C163.929 124.909 166.589 134.01 173.729 137.93C176.109 139.19 178.77 139.89 181.43 139.75Z" fill="#B4EDFF"/>
<path d="M168.408 148.291C167.148 148.291 165.887 148.151 164.627 147.871C156.227 145.77 151.046 137.37 153.147 128.969C154.127 124.909 156.647 121.549 160.147 119.309C162.527 117.908 165.187 117.068 167.988 117.068C168.268 117.068 168.408 117.208 168.548 117.348C168.688 117.628 168.688 117.908 168.548 118.048C164.767 124.909 167.288 133.59 174.148 137.37C176.388 138.63 178.768 139.19 181.289 139.19C181.569 139.19 181.849 139.33 181.989 139.47C182.129 139.75 182.129 140.03 181.989 140.17C179.188 145.21 174.008 148.291 168.408 148.291ZM166.728 118.468C164.627 118.748 162.667 119.309 160.847 120.429C154.127 124.489 152.026 133.31 156.087 139.89C160.147 146.47 168.968 148.711 175.548 144.65C177.368 143.53 178.908 142.13 180.028 140.31C171.348 139.75 164.767 132.469 165.327 123.789C165.607 122.109 166.027 120.149 166.728 118.468Z" fill="#0F3261"/>
<path d="M181.15 124.909C183.95 129.53 184.09 135.13 181.43 139.891C173.169 140.031 166.309 133.59 166.169 125.329C166.169 122.669 166.729 120.149 167.989 117.769C173.309 117.629 178.35 120.289 181.15 124.909Z" fill="#97C3FF"/>
<path d="M181.011 140.59C172.33 140.59 165.33 133.59 165.33 124.909C165.33 122.249 166.03 119.729 167.29 117.349C167.43 117.069 167.71 116.929 167.85 116.929H168.13C176.81 116.929 183.811 123.929 183.811 132.61C183.811 135.27 183.111 137.79 181.851 140.17C181.711 140.45 181.431 140.59 181.291 140.59H181.011ZM168.41 118.469C164.77 125.469 167.57 134.01 174.57 137.65C176.53 138.63 178.771 139.19 181.011 139.19C183.251 134.85 183.111 129.53 180.451 125.329C177.93 120.989 173.31 118.469 168.41 118.469Z" fill="#0F3261"/>
<path d="M193.888 117.069C198.228 124.07 195.988 133.31 188.847 137.511C186.607 138.911 184.087 139.611 181.427 139.751C185.347 132.47 182.687 123.37 175.546 119.449C173.306 118.189 170.646 117.489 167.986 117.629C171.906 110.349 181.007 107.689 188.287 111.749C190.527 113.009 192.488 114.829 193.888 117.069Z" fill="white"/>
<path d="M181.428 140.59C181.148 140.59 181.008 140.45 180.868 140.31C180.728 140.03 180.728 139.75 180.868 139.61C184.649 132.75 182.128 124.069 175.268 120.289C173.028 119.029 170.648 118.469 168.127 118.609C167.847 118.609 167.567 118.469 167.427 118.329C167.287 118.049 167.287 117.769 167.427 117.629C171.628 110.068 181.148 107.268 188.709 111.468C191.089 112.728 193.189 114.688 194.589 117.069C199.07 124.489 196.689 134.01 189.409 138.63C186.889 139.75 184.228 140.45 181.428 140.59ZM169.247 117.069C177.928 117.629 184.508 124.909 183.948 133.59C183.808 135.55 183.388 137.37 182.548 139.05C190.389 138.21 195.989 131.21 195.289 123.369C195.009 121.269 194.449 119.309 193.329 117.489C189.269 110.768 180.448 108.668 173.728 112.728C171.908 113.848 170.367 115.248 169.247 117.069Z" fill="#0F3261"/>
<path d="M210.83 395.269C210.97 395.409 210.97 395.549 211.11 395.549V395.689C213.631 398.77 217.131 401.01 221.051 401.99C222.031 402.27 223.011 402.41 223.991 402.55L233.092 403.39L402.224 420.051C412.305 421.031 421.405 414.031 423.085 404.09L479.65 65.8259L483.85 41.0441C484.13 39.644 484.13 38.1039 484.13 36.7038C483.99 33.0636 482.73 29.5633 480.63 26.7631C477.409 22.2828 472.369 19.3426 466.909 18.7825L288.536 1.14128C278.455 0.161207 269.354 7.16171 267.674 17.1024L206.91 380.148C206.07 385.609 207.47 391.069 210.83 395.269Z" fill="white"/>
<path d="M404.186 420.891C403.486 420.891 402.925 420.891 402.225 420.751L223.993 403.109C218.812 402.549 214.052 400.029 210.692 395.969C210.552 395.829 210.412 395.689 210.412 395.549C206.911 391.209 205.511 385.468 206.351 379.868L267.116 16.8219C268.936 6.46119 278.317 -0.679312 288.677 0.300758L466.91 18.082C472.65 18.6421 477.831 21.7223 481.191 26.3426C483.431 29.4228 484.691 33.0631 484.831 36.7034C484.971 38.2435 484.831 39.6436 484.551 41.1837L423.787 404.23C422.247 413.89 413.986 420.891 404.186 420.891ZM286.577 1.84087C277.617 1.84087 269.916 8.42133 268.376 17.242L207.752 380.288C206.911 385.468 208.312 390.649 211.532 394.849L211.672 395.129C214.192 398.209 217.552 400.309 221.333 401.289C222.313 401.569 223.153 401.709 224.133 401.849L402.365 419.491C412.026 420.471 420.847 413.75 422.387 404.09L483.151 40.9037C483.431 39.5036 483.431 38.2435 483.291 36.8434C483.151 33.3431 481.891 29.9829 479.931 27.1827C476.851 22.8424 471.95 20.0422 466.63 19.4821L288.537 1.98087C287.837 1.84086 287.277 1.84087 286.577 1.84087Z" fill="#0F3261"/>
<path d="M467.75 37.6841V37.8242C467.75 37.9642 467.75 38.1042 467.75 38.3842L461.029 78.7071L406.985 401.43C406.845 402.55 406.005 403.39 404.885 403.67C404.605 403.81 404.325 403.81 403.905 403.81L225.672 386.309H225.392H225.252C224.832 386.169 224.412 385.889 223.992 385.609L223.712 385.329C223.292 384.769 223.012 383.929 223.152 383.229L276.916 61.9059L283.916 20.0429C284.056 18.9228 284.897 18.0828 286.017 17.8027C286.297 17.8027 286.577 17.8027 286.997 17.8027L465.229 35.444C466.069 35.444 466.77 36.004 467.19 36.5641L467.33 36.7041C467.47 36.8441 467.61 37.2641 467.75 37.6841Z" fill="white"/>
<path d="M404.185 404.51H403.765L225.252 386.869L224.972 386.729C224.412 386.589 223.852 386.309 223.432 385.749L223.152 385.469C222.592 384.768 222.312 383.788 222.452 382.808L283.216 19.7625C283.496 18.3624 284.476 17.2423 285.876 16.8223C286.296 16.8223 286.716 16.8223 286.996 16.8223L465.229 34.3235C466.209 34.4635 467.189 34.8836 467.749 35.7236C468.169 36.2837 468.309 36.8437 468.449 37.4037V37.5437C468.449 37.8238 468.449 37.9638 468.449 38.2438L407.685 401.29C407.405 402.69 406.425 403.81 405.025 404.23C404.745 404.37 404.465 404.51 404.185 404.51ZM286.576 18.2224C286.436 18.2224 286.296 18.2224 286.156 18.2224C285.316 18.3624 284.756 19.0624 284.616 19.9025L223.852 382.948C223.712 383.508 223.852 384.068 224.272 384.488L224.552 384.768C224.832 385.049 225.112 385.189 225.392 385.189L225.812 385.329L404.045 402.97C404.325 402.97 404.465 402.97 404.745 402.97C405.585 402.83 406.145 402.13 406.285 401.29L467.049 38.2438C467.049 38.1038 467.049 37.9638 467.049 37.8238V37.6838C467.049 37.4037 466.909 36.9837 466.769 36.8437C466.489 36.2837 465.789 36.0036 465.229 35.8636L286.856 18.2224H286.576Z" fill="#0F3261"/>
<path d="M211.111 395.688L225.252 412.91L225.672 413.47L225.812 413.61C229.033 417.25 233.513 419.63 238.413 420.05L416.786 437.691C426.867 438.671 435.967 431.671 437.647 421.73L498.412 58.6842C499.252 53.7839 498.132 48.8835 495.332 44.8233C495.332 44.8233 495.332 44.6832 495.192 44.6832L493.091 42.1631L480.631 27.042C482.731 29.9822 483.991 33.4824 484.131 36.9827C484.271 38.3828 484.131 39.9229 483.851 41.323L479.65 66.1048L423.086 404.369C421.406 414.31 412.306 421.31 402.225 420.33L233.093 403.669L223.992 402.829C223.012 402.689 222.032 402.549 221.052 402.269C217.272 401.009 213.772 398.769 211.111 395.688Z" fill="#0F3261"/>
<path d="M418.606 438.392C417.906 438.392 417.346 438.392 416.646 438.252L238.273 420.61C233.233 420.19 228.472 417.67 225.252 413.89L224.692 413.33L210.551 396.109C210.271 395.829 210.271 395.409 210.691 395.129C210.971 394.849 211.391 394.849 211.671 395.269C214.191 398.209 217.552 400.449 221.192 401.289C222.172 401.569 223.012 401.709 223.992 401.849L402.225 419.49C411.885 420.47 420.706 413.75 422.246 404.089L483.151 40.9034C483.431 39.5033 483.431 38.2432 483.291 36.8431C483.151 33.3428 481.89 29.9826 479.93 27.1824C479.79 26.9024 479.79 26.3423 480.21 26.2023C480.49 26.0623 480.91 26.0623 481.05 26.3423L495.611 44.1236L495.751 44.2636C498.692 48.4639 499.812 53.6443 498.972 58.6846L438.207 421.73C436.527 431.391 428.267 438.392 418.606 438.392ZM216.432 400.869L226.372 413.05C229.452 416.55 233.793 418.79 238.413 419.21L416.786 436.852C426.447 437.832 435.127 431.111 436.807 421.451L497.432 58.4046C498.272 53.7843 497.152 48.8839 494.491 44.9636V44.8236L483.991 31.9427C484.411 33.4828 484.691 35.0229 484.831 36.563C484.971 38.1032 484.831 39.5033 484.551 41.0434L423.646 404.089C421.826 414.45 412.446 421.59 402.085 420.61L223.852 402.969C222.872 402.829 221.892 402.689 220.772 402.409C219.372 402.269 217.832 401.709 216.432 400.869Z" fill="#0F3261"/>
<path d="M403.486 136.392L307.299 126.451L311.779 99.1494L407.966 108.95L403.486 136.392Z" fill="#0F3261"/>
<path d="M403.485 137.091L307.298 127.15C307.158 127.15 306.878 127.01 306.738 126.87C306.598 126.73 306.598 126.45 306.598 126.31L311.218 98.8679C311.218 98.4479 311.639 98.1679 312.059 98.3079L408.245 108.249C408.665 108.249 408.945 108.669 408.945 108.949C408.945 108.949 408.945 108.949 408.945 109.089L404.325 136.531C404.185 136.811 403.765 137.091 403.485 137.091ZM308.138 125.89L402.925 135.551L407.265 109.649L312.479 99.988L308.138 125.89Z" fill="#0F3261"/>
<path d="M384.304 247.838L288.117 238.038L289.657 227.257L385.844 237.198L384.304 247.838Z" fill="#0F3261"/>
<path d="M384.304 248.679L287.977 238.878C287.837 238.878 287.557 238.738 287.417 238.598C287.277 238.458 287.277 238.178 287.277 238.038L288.957 227.258C288.957 226.838 289.377 226.558 289.798 226.698L385.984 236.638C386.124 236.638 386.404 236.778 386.544 236.918C386.684 237.058 386.684 237.338 386.684 237.478L385.004 248.259C384.864 248.399 384.584 248.679 384.304 248.679ZM288.817 237.338L383.604 246.999L385.004 237.758L290.218 227.958L288.817 237.338Z" fill="#0F3261"/>
<path d="M362.043 191.836C348.602 191.836 343.982 213.677 338.941 243.359C336.421 257.92 333.761 274.442 329.841 291.103C317.66 342.906 285.457 360.828 262.496 357.047C260.256 356.627 258.015 356.067 255.775 355.227C235.474 347.387 239.254 323.865 241.494 315.324C246.955 305.244 251.155 294.463 253.535 283.122C265.296 232.859 265.576 183.995 285.737 183.995L287.978 184.275L362.043 191.836Z" fill="white"/>
<path d="M268.796 358.167C266.696 358.167 264.596 358.027 262.496 357.607C260.115 357.187 257.875 356.627 255.635 355.787C248.775 353.126 233.513 343.746 240.934 315.044V314.904C246.394 304.823 250.455 294.042 252.975 282.981C256.335 268.56 258.855 253.999 260.955 241.118C266.416 208.776 270.756 183.154 285.737 183.154L288.117 183.434L362.043 191.135C362.463 191.135 362.743 191.555 362.743 191.835C362.743 192.255 362.323 192.535 362.043 192.535C349.442 192.535 344.681 213.676 339.641 243.359L338.661 249.239C336.421 262.12 334.041 276.681 330.54 291.102C319.62 338.145 292.038 358.167 268.796 358.167ZM242.334 315.604C239.954 324.844 236.734 346.966 256.195 354.527C258.295 355.367 260.535 355.927 262.776 356.347C286.437 360.267 317.379 341.366 329.28 290.962C332.641 276.541 335.161 261.98 337.261 249.099L338.241 243.219C343.001 215.777 347.062 196.455 357.282 192.115L285.737 184.694C272.016 184.694 267.816 209.756 262.496 241.398C260.255 254.279 257.875 268.84 254.375 283.261C251.995 294.462 247.935 305.383 242.334 315.604Z" fill="#0F3261"/>
<path d="M288.118 184.136L285.877 183.855C286.577 183.855 287.418 183.995 288.118 184.136Z" fill="white"/>
<path d="M288.116 184.834L285.736 184.554C285.316 184.554 285.036 184.134 285.036 183.854C285.036 183.434 285.456 183.154 285.736 183.154C286.576 183.154 287.416 183.294 288.116 183.434C288.536 183.574 288.676 183.854 288.676 184.274C288.816 184.554 288.536 184.834 288.116 184.834Z" fill="#0F3261"/>
<path d="M374.503 246.859L338.94 243.219C343.981 213.677 348.601 191.695 362.042 191.695C383.184 191.835 374.503 246.859 374.503 246.859Z" fill="#0F3261"/>
<path d="M374.503 247.559L338.941 243.919C338.521 243.919 338.241 243.499 338.241 243.219C338.241 243.219 338.241 243.219 338.241 243.079C343.701 211.577 348.181 190.995 362.042 190.995C365.403 190.995 368.483 192.395 370.583 195.055C381.224 207.516 375.343 245.459 375.203 246.999C375.203 247.419 374.783 247.699 374.503 247.559ZM339.921 242.519L373.943 246.019C374.643 240.839 379.124 207.096 369.603 195.895C367.783 193.655 364.983 192.395 362.182 192.395C349.442 192.535 344.821 213.117 339.921 242.519Z" fill="#0F3261"/>
<path d="M262.637 356.907L190.532 349.486L186.752 349.066C184.371 348.786 181.991 348.086 179.751 347.246C154.689 337.445 166.45 304.123 166.45 304.123L242.616 311.964C242.616 311.964 242.196 313.224 241.635 315.184C239.395 323.724 235.615 347.246 255.916 355.087C258.157 355.927 260.397 356.487 262.637 356.907Z" fill="#0F3261"/>
<path d="M262.635 357.607L186.61 349.767C184.089 349.347 181.709 348.787 179.469 347.947C153.987 338.006 165.608 304.264 165.608 303.984C165.748 303.704 166.028 303.424 166.308 303.564L242.474 311.404C242.754 311.404 242.894 311.544 243.034 311.684C243.174 311.824 243.174 312.104 243.174 312.244C243.174 312.244 242.754 313.504 242.334 315.324C239.953 324.565 236.593 346.827 256.195 354.387C258.295 355.227 260.535 355.787 262.775 356.207C263.195 356.207 263.475 356.627 263.335 357.047C263.195 357.327 262.915 357.607 262.635 357.607ZM166.868 304.824C165.468 309.164 157.487 337.726 180.029 346.547C182.269 347.387 184.509 347.947 186.89 348.367L254.794 355.367C247.654 352.147 234.073 342.486 241.073 315.044C241.353 314.064 241.633 313.224 241.774 312.664L166.868 304.824Z" fill="#0F3261"/>
<path d="M332.08 204.997L285.456 200.656C285.036 200.656 284.756 200.236 284.756 199.816C284.756 199.396 285.176 199.116 285.596 199.116L332.22 203.457C332.64 203.457 332.92 203.877 332.92 204.297C332.92 204.717 332.5 204.997 332.08 204.997Z" fill="#0F3261"/>
<path d="M327.041 221.237L280.278 216.897C279.858 216.897 279.578 216.477 279.578 216.056C279.578 215.636 279.998 215.356 280.418 215.356L327.041 219.697C327.461 219.697 327.741 220.117 327.741 220.537C327.741 220.957 327.461 221.237 327.041 221.237Z" fill="#0F3261"/>
<path d="M323.12 239.438L276.356 235.098C275.936 235.098 275.656 234.678 275.656 234.258C275.656 233.838 276.076 233.558 276.496 233.558L323.12 237.898C323.54 237.898 323.82 238.318 323.82 238.738C323.82 239.158 323.4 239.438 323.12 239.438Z" fill="#0F3261"/>
<path d="M320.459 258.479L273.836 254.139C273.416 254.139 273.136 253.719 273.136 253.299C273.136 252.879 273.556 252.599 273.976 252.599L320.599 256.939C321.019 256.939 321.299 257.359 321.299 257.639C321.299 258.199 320.879 258.479 320.459 258.479Z" fill="#0F3261"/>
<path d="M316.4 279.762L269.776 275.422C269.356 275.422 269.076 275.002 269.076 274.722C269.076 274.302 269.496 274.021 269.916 274.021L316.54 278.362C316.96 278.362 317.24 278.782 317.24 279.062C317.1 279.622 316.82 279.902 316.4 279.762Z" fill="#0F3261"/>
<path d="M533.973 385.608C563.511 385.608 587.457 361.663 587.457 332.124C587.457 302.586 563.511 278.641 533.973 278.641C504.435 278.641 480.489 302.586 480.489 332.124C480.489 361.663 504.435 385.608 533.973 385.608Z" fill="#0F3261"/>
<path d="M533.834 386.448C503.872 386.448 479.65 362.086 479.65 332.124C479.65 302.162 504.012 277.94 533.974 277.94C563.236 277.94 587.178 301.182 588.158 330.444C589.138 360.406 565.616 385.328 535.654 386.448H533.834ZM533.974 279.341H532.294C503.172 280.321 480.35 304.682 481.33 333.804C482.31 362.226 505.552 384.768 533.974 384.908H535.654C564.776 383.928 587.598 359.566 586.618 330.444C585.637 302.022 562.396 279.341 533.974 279.341Z" fill="#0F3261"/>
<path d="M526.692 385.888C556.231 385.888 580.176 361.942 580.176 332.404C580.176 302.865 556.231 278.92 526.692 278.92C497.154 278.92 473.208 302.865 473.208 332.404C473.208 361.942 497.154 385.888 526.692 385.888Z" fill="white"/>
<path d="M526.693 386.588C496.731 386.588 472.509 362.226 472.509 332.264C472.509 302.302 496.871 278.08 526.833 278.08C556.095 278.08 580.036 301.322 581.017 330.584C581.997 360.546 558.475 385.608 528.513 386.588H526.693ZM526.833 279.62H525.153C496.03 280.6 473.069 304.962 474.049 334.084C475.029 363.206 499.391 386.168 528.513 385.188C557.635 384.208 580.596 359.846 579.616 330.724C578.636 302.162 555.255 279.62 526.833 279.62Z" fill="#0F3261"/>
<path d="M526.692 376.648C551.127 376.648 570.935 356.84 570.935 332.405C570.935 307.97 551.127 288.162 526.692 288.162C502.257 288.162 482.449 307.97 482.449 332.405C482.449 356.84 502.257 376.648 526.692 376.648Z" fill="white"/>
<path d="M526.693 377.207C501.911 377.207 481.749 357.046 481.889 332.264C481.889 307.482 502.051 287.321 526.833 287.461C551.054 287.461 570.936 306.782 571.636 331.004C572.336 355.786 553.014 376.507 528.233 377.347L526.693 377.207ZM526.693 288.861H525.292C501.351 289.701 482.449 309.722 483.289 333.664C484.13 357.606 504.151 376.507 528.093 375.667C552.034 374.827 570.936 354.805 570.096 330.864C569.256 307.622 550.214 289.001 526.693 288.861Z" fill="#0F3261"/>
<path d="M539.714 334.786C537.054 332.546 533.974 331.006 530.754 330.166L529.074 329.606L528.654 316.725C530.894 317.285 532.994 318.405 534.814 319.945C536.634 321.625 539.434 321.485 541.255 319.805C542.935 317.985 542.795 315.045 541.115 313.365C537.474 310.424 533.134 308.324 528.514 307.624L528.374 302.164C528.234 300.904 527.114 300.064 525.853 300.204C524.733 300.344 523.893 301.184 523.753 302.444L523.893 307.764C522.633 307.904 521.373 308.184 520.253 308.744C513.253 311.404 508.352 319.385 511.432 326.806C513.813 332.546 519.273 335.766 524.873 338.006L525.293 351.027C522.073 350.327 519.133 348.787 516.753 346.547C512.413 342.767 506.112 349.347 510.592 353.127C514.793 357.048 519.973 359.428 525.713 359.988L525.853 363.348C525.853 364.608 526.974 365.588 528.234 365.588C529.494 365.588 530.474 364.468 530.474 363.208L530.334 359.848C530.614 359.848 531.034 359.708 531.314 359.708C538.594 358.448 543.915 352.287 544.195 344.867C543.915 340.807 542.375 337.306 539.714 334.786ZM522.633 326.106C521.513 325.265 520.533 324.285 519.833 323.025C519.413 322.185 519.413 321.205 519.693 320.225C520.393 318.265 522.073 316.865 524.173 316.445L524.453 327.226C523.893 326.946 523.193 326.666 522.633 326.106ZM533.414 347.947C532.434 349.067 531.174 349.907 529.774 350.327L529.494 339.126C530.474 339.406 531.454 339.827 532.434 340.387C532.854 340.667 533.274 340.947 533.694 341.227C533.974 341.507 534.254 341.927 534.534 342.347C535.094 344.307 534.674 346.407 533.414 347.947Z" fill="#0F3261"/>
</svg>
