<svg width="573" height="519" viewBox="0 0 573 519" fill="none" xmlns="http://www.w3.org/2000/svg">
<path d="M290.213 129.214H80.8156C67.1901 129.214 56.1445 140.259 56.1445 153.885V360.616C56.1445 374.241 67.1901 385.287 80.8156 385.287H290.213C303.839 385.287 314.884 374.241 314.884 360.616V153.885C314.884 140.259 303.839 129.214 290.213 129.214Z" fill="#F2F2F2"/>
<path d="M124.788 134.288C107.928 134.288 91.7592 140.986 79.8375 152.907C67.9158 164.829 61.2183 180.998 61.2183 197.858V360.617C61.2183 363.19 61.7252 365.739 62.71 368.116C63.6949 370.494 65.1384 372.655 66.9582 374.474C68.778 376.294 70.9384 377.738 73.3161 378.723C75.6938 379.707 78.2421 380.214 80.8157 380.214H214.458C239.747 380.214 264.001 370.168 281.883 352.286C299.765 334.404 309.811 310.151 309.811 284.862V153.885C309.811 148.688 307.746 143.703 304.071 140.028C300.395 136.353 295.411 134.288 290.213 134.288H124.788Z" fill="#5795E8"/>
<path d="M542.557 44.6975H19.7565C19.5118 44.6975 19.2772 44.6003 19.1042 44.4273C18.9312 44.2543 18.834 44.0197 18.834 43.775C18.834 43.5304 18.9312 43.2957 19.1042 43.1227C19.2772 42.9497 19.5118 42.8525 19.7565 42.8525H542.557C542.802 42.8525 543.037 42.9497 543.21 43.1227C543.383 43.2957 543.48 43.5304 543.48 43.775C543.48 44.0197 543.383 44.2543 543.21 44.4273C543.037 44.6003 542.802 44.6975 542.557 44.6975Z" fill="#0F3261"/>
<path d="M45.9139 17.0036C50.2223 17.0036 53.715 13.4331 53.715 9.02866C53.715 4.62422 50.2223 1.05371 45.9139 1.05371C41.6055 1.05371 38.1128 4.62422 38.1128 9.02866C38.1128 13.4331 41.6055 17.0036 45.9139 17.0036Z" fill="#0F3261"/>
<path d="M72.8621 17.0036C77.1706 17.0036 80.6632 13.4331 80.6632 9.02866C80.6632 4.62422 77.1706 1.05371 72.8621 1.05371C68.5537 1.05371 65.061 4.62422 65.061 9.02866C65.061 13.4331 68.5537 17.0036 72.8621 17.0036Z" fill="#0F3261"/>
<path d="M99.8123 17.0036C104.121 17.0036 107.613 13.4331 107.613 9.02866C107.613 4.62422 104.121 1.05371 99.8123 1.05371C95.5039 1.05371 92.0112 4.62422 92.0112 9.02866C92.0112 13.4331 95.5039 17.0036 99.8123 17.0036Z" fill="#0F3261"/>
<path d="M130.54 15.3314C130.417 15.3316 130.296 15.3071 130.183 15.2595C130.069 15.2118 129.967 15.1419 129.881 15.054L124.617 9.67309C124.448 9.50078 124.354 9.26924 124.354 9.02809C124.354 8.78694 124.448 8.55539 124.617 8.38307L129.881 3.00265C129.965 2.91468 130.066 2.8443 130.178 2.7956C130.29 2.74689 130.41 2.72081 130.532 2.71887C130.654 2.71693 130.775 2.73917 130.888 2.78429C131.001 2.82942 131.105 2.89654 131.192 2.98178C131.279 3.06702 131.348 3.16868 131.396 3.28089C131.443 3.39311 131.468 3.51364 131.469 3.63554C131.47 3.75744 131.446 3.87828 131.4 3.99107C131.354 4.10387 131.286 4.20637 131.2 4.29268L126.567 9.02807L131.2 13.7639C131.327 13.8937 131.413 14.0581 131.447 14.2365C131.48 14.4149 131.461 14.5993 131.391 14.7667C131.32 14.934 131.202 15.0769 131.051 15.1774C130.899 15.2778 130.722 15.3314 130.54 15.3314Z" fill="#0F3261"/>
<path d="M139.387 15.3314C139.205 15.3314 139.028 15.2778 138.876 15.1774C138.725 15.0769 138.607 14.934 138.537 14.7667C138.466 14.5993 138.447 14.4149 138.481 14.2365C138.515 14.0581 138.6 13.8937 138.727 13.7639L143.36 9.02807L138.727 4.29268C138.641 4.20637 138.573 4.10385 138.527 3.99106C138.481 3.87826 138.457 3.75742 138.458 3.63553C138.459 3.51363 138.484 3.39309 138.531 3.28088C138.579 3.16867 138.648 3.067 138.735 2.98176C138.823 2.89653 138.926 2.8294 139.039 2.78428C139.152 2.73915 139.273 2.71693 139.395 2.71887C139.517 2.72081 139.637 2.74689 139.749 2.7956C139.861 2.8443 139.962 2.91467 140.046 3.00264L145.309 8.38306C145.478 8.55538 145.573 8.78693 145.573 9.02807C145.573 9.26922 145.478 9.50077 145.309 9.67309L140.046 15.0539C139.96 15.1419 139.858 15.2118 139.745 15.2595C139.631 15.3071 139.51 15.3316 139.387 15.3314Z" fill="#0F3261"/>
<path d="M495.935 1.97656H486.147C485.882 1.97648 485.619 2.02869 485.374 2.13019C485.129 2.23169 484.906 2.3805 484.719 2.56811C484.531 2.75572 484.382 2.97846 484.281 3.2236C484.179 3.46874 484.127 3.73148 484.127 3.99681V13.7936C484.127 14.0589 484.179 14.3217 484.281 14.5668C484.382 14.812 484.531 15.0347 484.719 15.2223C484.906 15.4099 485.129 15.5587 485.374 15.6602C485.619 15.7617 485.882 15.8139 486.147 15.8138H495.935C496.472 15.8144 496.987 15.602 497.367 15.2233C497.748 14.8445 497.963 14.3304 497.964 13.7936V3.99681C497.963 3.46 497.748 2.94587 497.367 2.56715C496.987 2.18843 496.472 1.97605 495.935 1.97656Z" fill="#0F3261"/>
<path d="M471.95 1.97656H462.163C461.897 1.97648 461.635 2.02869 461.39 2.13019C461.145 2.23169 460.922 2.3805 460.734 2.56811C460.547 2.75572 460.398 2.97846 460.296 3.2236C460.195 3.46874 460.142 3.73148 460.143 3.99681V13.7936C460.142 14.0589 460.195 14.3217 460.296 14.5668C460.398 14.812 460.547 15.0347 460.734 15.2223C460.922 15.4099 461.145 15.5587 461.39 15.6602C461.635 15.7617 461.897 15.8139 462.163 15.8138H471.95C472.487 15.8144 473.002 15.602 473.383 15.2233C473.763 14.8445 473.978 14.3304 473.98 13.7936V3.99681C473.978 3.46 473.763 2.94587 473.383 2.56715C473.002 2.18843 472.487 1.97605 471.95 1.97656Z" fill="#0F3261"/>
<path d="M518.536 2.4375H508.748C508.483 2.43742 508.22 2.48963 507.975 2.59113C507.73 2.69262 507.507 2.84143 507.32 3.02905C507.132 3.21666 506.983 3.43939 506.882 3.68454C506.78 3.92968 506.728 4.19242 506.728 4.45775V14.2545C506.728 14.5199 506.78 14.7826 506.882 15.0277C506.983 15.2729 507.132 15.4956 507.32 15.6833C507.507 15.8709 507.73 16.0197 507.975 16.1212C508.22 16.2227 508.483 16.2749 508.748 16.2748H518.536C519.073 16.2753 519.588 16.0629 519.968 15.6842C520.349 15.3055 520.563 14.7913 520.565 14.2545V4.45775C520.563 3.92094 520.349 3.4068 519.968 3.02809C519.588 2.64937 519.073 2.43698 518.536 2.4375Z" fill="#0F3261"/>
<path d="M322.254 16.8098H258.603C256.401 16.8098 254.289 15.9351 252.732 14.3781C251.175 12.8211 250.301 10.7094 250.301 8.50745C250.301 6.30552 251.175 4.19379 252.732 2.63679C254.289 1.0798 256.401 0.205078 258.603 0.205078H322.254C324.456 0.205078 326.568 1.0798 328.125 2.63679C329.682 4.19379 330.557 6.30552 330.557 8.50745C330.557 10.7094 329.682 12.8211 328.125 14.3781C326.568 15.9351 324.456 16.8098 322.254 16.8098Z" fill="#0F3261"/>
<path d="M217.453 293.002H75.3965C74.584 293.002 73.8048 292.679 73.2303 292.105C72.6558 291.53 72.333 290.751 72.333 289.938C72.333 289.126 72.6558 288.347 73.2303 287.772C73.8048 287.198 74.584 286.875 75.3965 286.875H217.453C218.265 286.875 219.044 287.198 219.619 287.772C220.193 288.347 220.516 289.126 220.516 289.938C220.516 290.751 220.193 291.53 219.619 292.105C219.044 292.679 218.265 293.002 217.453 293.002Z" fill="#F2F2F2"/>
<path d="M217.451 205.621H3.48381C3.08106 205.622 2.68213 205.543 2.30984 205.389C1.93755 205.236 1.59922 205.01 1.31419 204.726C1.02916 204.441 0.803042 204.103 0.648757 203.731C0.494472 203.359 0.415039 202.96 0.415039 202.558C0.415039 202.155 0.494472 201.756 0.648757 201.384C0.803042 201.012 1.02916 200.674 1.31419 200.39C1.59922 200.105 1.93755 199.879 2.30984 199.726C2.68213 199.572 3.08106 199.493 3.48381 199.494H217.451C218.263 199.496 219.041 199.819 219.614 200.393C220.187 200.968 220.509 201.746 220.509 202.558C220.509 203.369 220.187 204.148 219.614 204.722C219.041 205.296 218.263 205.62 217.451 205.621Z" fill="#F2F2F2"/>
<path d="M217.455 227.496H3.47895C2.66676 227.498 1.88834 227.821 1.31454 228.396C0.740732 228.971 0.418457 229.75 0.418457 230.562C0.418457 231.374 0.740732 232.153 1.31454 232.728C1.88834 233.303 2.66676 233.626 3.47895 233.628H217.455C218.268 233.626 219.046 233.303 219.62 232.728C220.194 232.153 220.516 231.374 220.516 230.562C220.516 229.75 220.194 228.971 219.62 228.396C219.046 227.821 218.268 227.498 217.455 227.496Z" fill="#F2F2F2"/>
<path d="M217.451 261.635H3.48386C2.67138 261.635 1.89218 261.312 1.31767 260.737C0.743164 260.163 0.42041 259.384 0.42041 258.571C0.42041 257.759 0.743164 256.98 1.31767 256.405C1.89218 255.831 2.67138 255.508 3.48386 255.508H217.451C218.264 255.508 219.043 255.831 219.617 256.405C220.192 256.98 220.515 257.759 220.515 258.571C220.515 259.384 220.192 260.163 219.617 260.737C219.043 261.312 218.264 261.635 217.451 261.635Z" fill="#F2F2F2"/>
<path d="M397.625 506.386L387.802 506.385L383.129 468.496L397.627 468.497L397.625 506.386Z" fill="#FEB0BB"/>
<path d="M397.972 516.634L367.764 516.633V516.251C367.765 513.133 369.003 510.142 371.208 507.937C373.413 505.733 376.404 504.494 379.522 504.494L385.04 500.308L395.335 504.494L397.972 504.494L397.972 516.634Z" fill="#2F2E41"/>
<path d="M496.465 506.386L486.642 506.385L481.969 468.496L496.467 468.497L496.465 506.386Z" fill="#FEB0BB"/>
<path d="M496.811 516.634L466.604 516.633V516.251C466.604 513.133 467.843 510.142 470.047 507.937C472.252 505.733 475.243 504.494 478.361 504.494L483.88 500.308L494.175 504.494L496.811 504.494L496.811 516.634Z" fill="#2F2E41"/>
<path d="M405.641 288.712C405.641 288.712 399.19 295.558 398.918 300C398.645 304.442 402.007 296.374 398.645 304.442C395.283 312.511 395.283 307.132 395.283 312.511C395.283 317.89 388.16 323.142 388.16 323.142L376.413 371.473L383.181 484.638H397.973C411.72 442.734 418.115 410.375 410.748 395.885L431.29 350.226C431.29 350.226 470.107 471.69 471.693 473.121C473.278 474.552 473.278 472.535 473.278 474.552C473.278 476.569 471.261 474.552 473.278 476.569L482.692 485.982L496.811 484.638C496.811 484.638 498.701 396.697 482.964 381.499C482.964 381.499 486.598 334.435 482.964 334.567C479.33 334.699 479.33 340.75 479.33 334.699C479.33 328.648 483.636 327.033 483.636 327.033L471.534 284.527L405.641 288.712Z" fill="#2F2E41"/>
<path d="M481.858 195.021L468.187 252.261L471.416 273.552L475.29 299.059L461.896 298.192L441.167 296.845L402.681 294.354L399.314 181.396L416.971 162.946L420.125 153.989L445.651 153.832L451.758 164.588L467.458 169.053C469.476 170.334 471.372 171.797 473.122 173.426C476.997 177.014 480.428 181.571 482.034 186.239C482.517 187.599 482.824 189.016 482.947 190.455L481.858 195.021Z" fill="#0F3261"/>
<path d="M363.044 340.255C364.073 339.686 364.966 338.901 365.661 337.953C366.356 337.006 366.838 335.919 367.071 334.767C367.305 333.615 367.286 332.427 367.015 331.283C366.744 330.14 366.228 329.068 365.503 328.144L384.974 292.697L376.493 284.9L353.675 327.171C352.21 328.508 351.286 330.336 351.078 332.308C350.87 334.281 351.394 336.262 352.548 337.874C353.703 339.487 355.41 340.62 357.344 341.059C359.279 341.497 361.307 341.211 363.044 340.255Z" fill="#0F3261"/>
<path d="M410.533 174.489L405.995 255.792L384.129 306.886L369.898 325.759L371.515 317.207L361.706 312.298L360.784 311.841L379.618 238.754L381.352 210.354C381.651 205.466 382.962 200.694 385.2 196.339C387.438 191.984 390.556 188.14 394.356 185.052L405.248 176.204L410.533 174.489Z" fill="#0F3261"/>
<path d="M363.044 340.255C364.073 339.686 364.966 338.901 365.661 337.953C366.356 337.006 366.838 335.919 367.071 334.767C367.305 333.615 367.286 332.427 367.015 331.283C366.744 330.14 366.228 329.068 365.503 328.144L384.974 292.697L376.493 284.9L353.675 327.171C352.21 328.508 351.286 330.336 351.078 332.308C350.87 334.281 351.394 336.262 352.548 337.874C353.703 339.487 355.41 340.62 357.344 341.059C359.279 341.497 361.307 341.211 363.044 340.255Z" fill="#FEB0BB"/>
<path d="M410.533 174.489L405.995 255.792L384.129 306.886L369.898 325.759L371.515 317.207L361.706 312.298L360.784 311.841L379.618 238.754L381.352 210.354C381.651 205.466 382.962 200.694 385.2 196.339C387.438 191.984 390.556 188.14 394.356 185.052L405.248 176.204L410.533 174.489Z" fill="#0F3261"/>
<path d="M431.607 177.292H222.21C208.584 177.292 197.539 188.338 197.539 201.963V309.988C197.539 323.614 208.584 334.659 222.21 334.659H431.607C445.233 334.659 456.279 323.614 456.279 309.988V201.963C456.279 188.338 445.233 177.292 431.607 177.292Z" fill="white"/>
<path d="M431.608 335.582H222.21C215.424 335.574 208.919 332.875 204.121 328.077C199.323 323.279 196.624 316.774 196.616 309.988V201.963C196.624 195.177 199.323 188.672 204.121 183.874C208.919 179.076 215.424 176.377 222.21 176.369H431.608C438.393 176.377 444.898 179.076 449.696 183.874C454.494 188.672 457.193 195.177 457.201 201.963V309.988C457.193 316.774 454.494 323.279 449.696 328.077C444.898 332.875 438.393 335.574 431.608 335.582ZM222.21 178.214C215.911 178.214 209.871 180.716 205.417 185.17C200.963 189.624 198.461 195.664 198.461 201.963V242.34C198.461 266.58 208.09 289.827 225.231 306.967C242.371 324.107 265.618 333.737 289.858 333.737H431.608C437.906 333.737 443.947 331.235 448.4 326.781C452.854 322.327 455.356 316.287 455.356 309.989V201.963C455.356 198.844 454.742 195.756 453.548 192.875C452.355 189.993 450.605 187.375 448.4 185.17C446.195 182.965 443.577 181.215 440.695 180.022C437.814 178.828 434.726 178.214 431.607 178.214L222.21 178.214Z" fill="#3F3D56"/>
<path d="M277.555 291.953H228.664C226.88 291.953 225.435 293.399 225.435 295.182C225.435 296.965 226.88 298.411 228.664 298.411H277.555C279.338 298.411 280.784 296.965 280.784 295.182C280.784 293.399 279.338 291.953 277.555 291.953Z" fill="#6C63FF"/>
<path d="M425.153 283.189H391.021C389.238 283.189 387.792 284.635 387.792 286.418V303.945C387.792 305.729 389.238 307.174 391.021 307.174H425.153C426.936 307.174 428.382 305.729 428.382 303.945V286.418C428.382 284.635 426.936 283.189 425.153 283.189Z" fill="#6C63FF"/>
<path d="M242.04 237.988C251.21 237.988 258.644 230.554 258.644 221.383C258.644 212.213 251.21 204.778 242.04 204.778C232.869 204.778 225.435 212.213 225.435 221.383C225.435 230.554 232.869 237.988 242.04 237.988Z" fill="#6C63FF"/>
<path d="M431.956 149.077C443.471 149.077 452.806 139.743 452.806 128.228C452.806 116.713 443.471 107.378 431.956 107.378C420.441 107.378 411.107 116.713 411.107 128.228C411.107 139.743 420.441 149.077 431.956 149.077Z" fill="#FEB0BB"/>
<path d="M449.06 139.004C449.223 140.25 446.969 140.381 446.461 139.233C445.953 138.084 446.612 136.782 447.253 135.701L448.74 133.193C449.02 132.721 449.183 132.188 449.216 131.64C449.249 131.092 449.15 130.544 448.928 130.042C448.706 129.54 448.367 129.098 447.939 128.753C447.512 128.409 447.008 128.171 446.47 128.06C447.831 125 446.354 121.179 443.643 119.213C440.931 117.246 436.897 120.926 433.607 121.557C430.317 122.188 427.684 119.67 424.685 121.163L426.486 117.009L416.514 121.306L418.831 116.634C416.314 116.771 415.243 119.836 414.741 122.306C414.207 124.938 412.805 128.228 409.944 127.683C409.265 127.532 408.643 127.192 408.149 126.703C407.655 126.213 407.309 125.594 407.152 124.917C404.941 116.393 411.36 107.073 419.869 105.578C420.779 103.066 422.469 100.911 424.693 99.4289C426.916 97.9471 429.556 97.2162 432.225 97.3433C434.894 97.4703 437.452 98.4487 439.525 100.135C441.598 101.822 443.076 104.127 443.743 106.715L446.533 103.299L447.077 108.139C449.082 107.926 450.976 109.341 451.95 111.106C452.924 112.871 452.464 115.15 453.399 116.936C457.592 124.94 456.205 133.952 449.731 140.091" fill="#2F2E41"/>
<path d="M522.188 502.68C522.617 502.7 523.041 502.587 523.404 502.358C523.767 502.128 524.05 501.792 524.216 501.396C524.381 501 524.421 500.563 524.33 500.144C524.238 499.724 524.02 499.343 523.705 499.052L523.562 498.481C523.581 498.436 523.6 498.39 523.619 498.344C524.051 497.324 524.775 496.454 525.699 495.844C526.624 495.234 527.709 494.91 528.817 494.914C529.925 494.919 531.007 495.25 531.927 495.867C532.847 496.484 533.564 497.359 533.989 498.383C535.685 502.468 537.844 506.56 538.376 510.879C538.61 512.788 538.511 514.723 538.084 516.599C542.068 507.909 544.136 498.464 544.149 488.905C544.15 486.506 544.017 484.109 543.75 481.725C543.53 479.771 543.224 477.831 542.833 475.904C540.698 465.451 536.113 455.654 529.457 447.317C526.235 445.559 523.629 442.855 521.991 439.571C521.397 438.39 520.978 437.13 520.746 435.829C521.109 435.877 522.116 430.342 521.842 430.002C522.348 429.234 523.255 428.852 523.808 428.102C526.559 424.372 530.35 425.023 532.328 430.092C536.555 432.225 536.596 435.763 534.003 439.166C532.353 441.331 532.126 444.26 530.678 446.578C530.827 446.769 530.982 446.953 531.131 447.144C533.854 450.645 536.227 454.405 538.216 458.369C537.733 453.928 538.31 449.436 539.901 445.261C541.514 441.371 544.537 438.094 547.199 434.731C547.903 433.828 548.859 433.153 549.946 432.793C551.033 432.433 552.203 432.403 553.307 432.707C554.411 433.012 555.4 433.637 556.15 434.503C556.899 435.37 557.374 436.439 557.516 437.575C557.521 437.625 557.526 437.674 557.532 437.724C557.136 437.947 556.749 438.184 556.371 438.434C555.895 438.752 555.526 439.206 555.313 439.737C555.1 440.268 555.052 440.851 555.176 441.41C555.299 441.968 555.589 442.476 556.007 442.867C556.424 443.259 556.95 443.515 557.515 443.602L557.573 443.611C557.432 445.036 557.183 446.448 556.829 447.835C560.243 461.041 552.871 465.851 542.344 466.067C542.112 466.186 541.885 466.306 541.653 466.419C543.652 472.083 544.906 477.984 545.383 483.972C545.653 487.504 545.637 491.053 545.335 494.583L545.353 494.458C546.116 490.533 548.21 486.991 551.281 484.43C555.844 480.683 562.289 479.303 567.211 476.29C567.734 475.954 568.342 475.775 568.964 475.774C569.586 475.772 570.195 475.948 570.719 476.282C571.244 476.615 571.663 477.091 571.925 477.655C572.188 478.218 572.285 478.845 572.203 479.461L572.183 479.592C571.449 479.891 570.735 480.235 570.044 480.623C569.648 480.846 569.261 481.083 568.883 481.333C568.407 481.651 568.038 482.105 567.825 482.636C567.612 483.167 567.564 483.75 567.688 484.309C567.812 484.867 568.101 485.375 568.519 485.767C568.936 486.158 569.462 486.414 570.028 486.501L570.086 486.51C570.127 486.516 570.163 486.522 570.205 486.528C568.951 489.521 567.192 492.276 565.003 494.673C562.868 506.201 553.697 507.295 543.887 503.938H543.881C542.805 508.615 541.245 513.168 539.228 517.522H522.605C522.545 517.338 522.491 517.147 522.438 516.962C523.976 517.059 525.521 516.967 527.037 516.688C525.804 515.175 524.571 513.649 523.337 512.136C523.31 512.108 523.284 512.078 523.26 512.047C522.634 511.272 522.003 510.504 521.377 509.729L521.377 509.728C521.343 507.354 521.616 504.985 522.188 502.68Z" fill="#F2F2F2"/>
<path d="M265.228 517.572C265.228 517.717 265.256 517.86 265.311 517.993C265.366 518.126 265.447 518.248 265.549 518.35C265.651 518.452 265.772 518.532 265.905 518.587C266.039 518.642 266.182 518.671 266.326 518.67H571.014C571.305 518.67 571.584 518.554 571.79 518.349C571.996 518.143 572.111 517.864 572.111 517.572C572.111 517.281 571.996 517.002 571.79 516.796C571.584 516.59 571.305 516.475 571.014 516.475H266.326C266.182 516.474 266.039 516.502 265.905 516.557C265.772 516.612 265.651 516.693 265.549 516.795C265.447 516.897 265.366 517.018 265.311 517.152C265.256 517.285 265.228 517.428 265.228 517.572Z" fill="#CCCCCC"/>
<path d="M440.835 335.319C441.843 334.715 442.707 333.898 443.368 332.927C444.03 331.955 444.472 330.852 444.665 329.692C444.857 328.533 444.796 327.346 444.485 326.213C444.173 325.079 443.62 324.027 442.862 323.129L461.061 287.012L452.309 279.522L431.007 322.577C429.59 323.965 428.731 325.825 428.594 327.804C428.457 329.782 429.05 331.743 430.261 333.314C431.473 334.884 433.218 335.956 435.167 336.326C437.116 336.695 439.133 336.337 440.835 335.319Z" fill="#FEB0BB"/>
<path d="M482.034 186.239L482.947 190.455L480.761 249.383L471.416 273.552L461.896 298.192L460.725 301.227L447.173 320.59L448.483 311.983L438.502 307.426L437.57 307.011L441.168 296.845L449.443 273.488L453.022 263.377L453.797 233.295L454.516 204.855C454.642 199.96 455.781 195.145 457.863 190.713C459.944 186.281 462.923 182.33 466.61 179.108L473.123 173.426C476.997 177.014 480.429 181.571 482.034 186.239Z" fill="#0F3261"/>
<path d="M264.319 333.45L221.074 332.527C215.695 332.519 210.538 330.378 206.735 326.574C202.932 322.77 200.793 317.612 200.787 312.233L198.942 267.02C204.252 303.881 224.657 327.263 264.319 333.45Z" fill="#6C63FF"/>
</svg>
