<svg width="348" height="261" viewBox="0 0 348 261" fill="none" xmlns="http://www.w3.org/2000/svg">
<path d="M142.32 4.5498L142.32 201.068L99.9607 201.068C45.6937 201.068 1.70168 157.076 1.70169 102.809C1.70169 48.5419 45.6937 4.5498 99.9607 4.5498L142.32 4.5498Z" fill="#61458D" fill-opacity="0.5" style="mix-blend-mode:hard-light"/>
<rect x="0.609953" y="258.931" width="347.179" height="1.31011" fill="#1D1926" stroke="black" stroke-width="0.436704"/>
<path d="M331.928 63.8249C332.278 64.2762 332.959 64.2762 333.309 63.8249L336.261 60.0146H337.524V141.054C337.524 147.67 332.161 153.033 325.546 153.033C325.02 153.033 324.502 152.999 323.994 152.933C323.418 152.999 322.833 153.033 322.24 153.033H273.162V60.0146H274.593L277.545 63.8249C277.894 64.2762 278.576 64.2762 278.925 63.8249L281.256 60.8165L283.587 63.8249C283.937 64.2762 284.618 64.2762 284.968 63.8249L287.299 60.8162L289.63 63.8249C289.98 64.2762 290.661 64.2762 291.011 63.8249L293.342 60.8164L295.673 63.8249C296.022 64.2762 296.704 64.2762 297.053 63.8249L299.384 60.8165L301.715 63.8249C302.065 64.2762 302.746 64.2762 303.096 63.8249L305.427 60.8164L307.758 63.8249C308.107 64.2762 308.789 64.2762 309.138 63.8249L311.469 60.8162L313.8 63.8249C314.15 64.2762 314.832 64.2762 315.181 63.8249L317.512 60.8165L319.843 63.8249C320.192 64.2762 320.874 64.2762 321.224 63.8249L323.555 60.8164L325.885 63.8249C326.235 64.2762 326.917 64.2762 327.266 63.8249L329.597 60.8164L331.928 63.8249Z" fill="#5A12DE"/>
<path d="M325.739 61.3511L323.667 64.0255L323.408 63.8249L323.667 64.0255C323.186 64.646 322.249 64.646 321.768 64.0255L319.697 61.3513L317.625 64.0255L317.366 63.8249L317.625 64.0255C317.144 64.646 316.207 64.646 315.726 64.0255L313.654 61.351L311.582 64.0255L311.323 63.8249L311.582 64.0255C311.101 64.646 310.164 64.646 309.683 64.0255L307.611 61.3511L305.539 64.0255C305.058 64.646 304.121 64.646 303.641 64.0255L301.569 61.3513L299.497 64.0255C299.016 64.646 298.079 64.646 297.598 64.0255L295.526 61.3511L293.454 64.0255C292.973 64.646 292.036 64.646 291.556 64.0255L289.483 61.351L287.411 64.0255C286.931 64.646 285.993 64.646 285.513 64.0255L283.441 61.3513L281.369 64.0255C280.888 64.646 279.951 64.646 279.47 64.0255L276.617 60.3422H275.674V152.705H324.424C325.005 152.705 325.578 152.672 326.142 152.608L326.181 152.603L326.221 152.608C326.715 152.672 327.219 152.705 327.73 152.705C334.165 152.705 339.381 147.489 339.381 141.054V60.3422H338.606L335.752 64.0255L335.494 63.8249L335.752 64.0255C335.272 64.646 334.335 64.646 333.854 64.0255L331.782 61.3511L329.71 64.0255C329.229 64.646 328.292 64.646 327.811 64.0255L325.739 61.3511Z" stroke="black" stroke-width="0.655056"/>
<path d="M301.278 115.039H243.129C233.278 115.039 225.292 123.544 225.292 134.036V191.026H277.02C277.171 191.026 277.321 191.023 277.471 191.017C277.617 191.023 277.764 191.026 277.912 191.026C284.512 191.026 289.863 185.327 289.863 178.298V129.856H301.278V115.039Z" fill="#7F42F0"/>
<path d="M277.696 191.023V191.024H241.887V165.759C241.887 158.73 247.257 153.031 253.883 153.031C260.508 153.031 265.879 158.73 265.879 165.759V178.297C265.879 185.263 271.153 190.922 277.696 191.023Z" fill="#4F2AA2"/>
<path d="M243.962 190.697H275.756C270.836 188.977 267.3 184.064 267.3 178.297V165.759C267.3 158.892 262.057 153.359 255.631 153.359C249.204 153.359 243.962 158.892 243.962 165.759V190.697Z" stroke="black" stroke-width="0.655056"/>
<path d="M325.299 153.031V153.032H289.489V127.767C289.489 120.737 294.86 115.039 301.485 115.039C308.111 115.039 313.482 120.737 313.482 127.767V140.305C313.482 147.27 318.756 152.929 325.299 153.031Z" fill="#2D185C"/>
<path d="M291.999 152.705H323.793C318.873 150.985 315.337 146.072 315.337 140.305V127.767C315.337 120.9 310.094 115.367 303.668 115.367C297.242 115.367 291.999 120.9 291.999 127.767V152.705Z" stroke="black" stroke-width="0.655056"/>
<path d="M253.679 153.044V153.031H195.614C185.716 153.031 177.692 161.53 177.692 172.014V246.049H178.626C178.655 245.94 178.706 245.832 178.783 245.733L181.908 241.7C182.258 241.249 182.939 241.249 183.289 241.7L185.62 244.708L187.95 241.7C188.3 241.249 188.982 241.249 189.331 241.7L191.662 244.708L193.993 241.7C194.343 241.249 195.024 241.249 195.374 241.7L197.705 244.708L200.036 241.7C200.385 241.249 201.067 241.249 201.417 241.7L203.747 244.708L206.078 241.7C206.428 241.249 207.109 241.249 207.459 241.7L209.79 244.708L212.121 241.7C212.471 241.249 213.152 241.249 213.502 241.7L215.833 244.708L218.164 241.7C218.513 241.249 219.195 241.249 219.545 241.7L221.875 244.708L224.206 241.7C224.556 241.249 225.237 241.249 225.587 241.7L227.918 244.708L230.249 241.7C230.598 241.249 231.28 241.249 231.63 241.7L233.96 244.708L236.291 241.7C236.641 241.249 237.323 241.249 237.672 241.7L240.797 245.733C240.874 245.832 240.925 245.94 240.954 246.049H242.209V165.75C242.209 158.916 247.297 153.342 253.679 153.044Z" fill="#BFA1F7"/>
<path d="M175.835 172.014V245.722H176.219C176.253 245.656 176.293 245.593 176.34 245.532L179.464 241.499C179.945 240.879 180.882 240.879 181.363 241.499L183.435 244.173L185.507 241.499C185.988 240.879 186.925 240.879 187.406 241.499L189.478 244.174L191.55 241.499C192.03 240.879 192.968 240.879 193.448 241.499L195.52 244.174L197.592 241.499C198.073 240.879 199.01 240.879 199.491 241.499L201.563 244.173L203.635 241.499C204.116 240.879 205.053 240.879 205.533 241.499L207.605 244.174L209.677 241.499C210.158 240.879 211.095 240.879 211.576 241.499L213.648 244.174L215.72 241.499C216.201 240.879 217.138 240.879 217.619 241.499L219.691 244.173L221.763 241.499C222.243 240.879 223.181 240.879 223.661 241.499L225.733 244.174L227.805 241.499C228.286 240.879 229.223 240.879 229.704 241.499L231.776 244.174L233.848 241.499C234.329 240.879 235.266 240.879 235.747 241.499L238.871 245.532C238.918 245.593 238.958 245.656 238.992 245.722H239.697V165.75C239.697 159.987 243.236 155.078 248.16 153.359H193.429C183.73 153.359 175.835 161.693 175.835 172.014Z" stroke="black" stroke-width="0.655056"/>
<path d="M175.835 172.014V245.722H176.219C176.253 245.656 176.293 245.593 176.34 245.532L179.464 241.499C179.945 240.879 180.882 240.879 181.363 241.499L183.435 244.173L185.507 241.499C185.988 240.879 186.925 240.879 187.406 241.499L189.478 244.174L191.55 241.499C192.03 240.879 192.968 240.879 193.448 241.499L195.52 244.174L197.592 241.499C198.073 240.879 199.01 240.879 199.491 241.499L201.563 244.173L203.635 241.499C204.116 240.879 205.053 240.879 205.533 241.499L207.605 244.174L209.677 241.499C210.158 240.879 211.095 240.879 211.576 241.499L213.648 244.174L215.72 241.499C216.201 240.879 217.138 240.879 217.619 241.499L219.691 244.173L221.763 241.499C222.243 240.879 223.181 240.879 223.661 241.499L225.733 244.174L227.805 241.499C228.286 240.879 229.223 240.879 229.704 241.499L231.776 244.174L233.848 241.499C234.329 240.879 235.266 240.879 235.747 241.499L238.871 245.532C238.918 245.593 238.958 245.656 238.992 245.722H239.697V165.75C239.697 159.987 243.236 155.078 248.16 153.359H193.429C183.73 153.359 175.835 161.693 175.835 172.014Z" stroke="black" stroke-opacity="0.2" stroke-width="0.655056"/>
<rect width="52.4044" height="3.49363" transform="matrix(-1 0 0 1 331.412 73.9883)" fill="#BFA0F7"/>
<rect width="52.4044" height="3.49363" transform="matrix(-1 0 0 1 331.412 80.9746)" fill="#BFA0F7"/>
<rect width="26.6389" height="3.49363" transform="matrix(-1 0 0 1 331.412 87.9629)" fill="#BFA0F7"/>
<rect width="20.0884" height="3.49363" transform="matrix(-1 0 0 1 331.412 94.9502)" fill="#BFA0F7"/>
<rect width="52.4044" height="3.49363" transform="matrix(-1 0 0 1 283.375 128.577)" fill="#BFA0F7"/>
<rect width="26.6389" height="3.49363" transform="matrix(-1 0 0 1 283.375 135.563)" fill="#BFA0F7"/>
<rect width="20.0884" height="3.49363" transform="matrix(-1 0 0 1 283.375 142.552)" fill="#BFA0F7"/>
<rect width="52.4044" height="3.49363" transform="matrix(-1 0 0 1 235.337 176.616)" fill="#F9F6FE"/>
<rect width="26.6389" height="3.49363" transform="matrix(-1 0 0 1 235.337 183.603)" fill="#F9F6FE"/>
<rect width="20.0884" height="3.49363" transform="matrix(-1 0 0 1 235.337 190.591)" fill="#F9F6FE"/>
<rect width="52.4044" height="3.49363" transform="matrix(1 0 0 -1 182.933 225.088)" fill="#F9F6FE"/>
<rect width="26.6389" height="3.49363" transform="matrix(1 0 0 -1 182.933 218.102)" fill="#F9F6FE"/>
<rect width="20.0884" height="3.49363" transform="matrix(1 0 0 -1 182.933 211.113)" fill="#F9F6FE"/>
<path d="M214.813 118.967C215.776 118.967 216.56 118.184 216.56 117.22C216.56 116.257 215.776 115.474 214.813 115.474C213.85 115.474 213.066 116.257 213.066 117.22C213.066 118.184 213.85 118.967 214.813 118.967ZM214.813 115.95C215.514 115.95 216.083 116.519 216.083 117.22C216.083 117.92 215.514 118.49 214.813 118.49C214.113 118.49 213.543 117.92 213.543 117.22C213.542 116.519 214.113 115.95 214.813 115.95Z" fill="#C28AFF"/>
<path d="M327.919 159.583C330.568 159.583 332.724 157.427 332.724 154.778C332.724 152.129 330.568 149.976 327.919 149.976C325.269 149.976 323.116 152.131 323.116 154.778C323.114 157.427 325.269 159.583 327.919 159.583ZM327.919 151.067C329.965 151.067 331.63 152.732 331.63 154.778C331.63 156.824 329.965 158.489 327.919 158.489C325.873 158.489 324.208 156.824 324.208 154.778C324.208 152.732 325.873 151.067 327.919 151.067Z" fill="#C28AFF"/>
<path d="M207.609 98.88C211.583 98.88 214.814 95.6482 214.814 91.6744C214.814 87.7005 211.583 84.4688 207.609 84.4688C203.635 84.4688 200.403 87.7005 200.403 91.6744C200.403 95.6482 203.635 98.88 207.609 98.88ZM207.609 86.2489C210.601 86.2489 213.034 88.6818 213.034 91.6744C213.034 94.6669 210.601 97.0999 207.609 97.0999C204.616 97.0999 202.183 94.6669 202.183 91.6744C202.179 88.6818 204.616 86.2489 207.609 86.2489Z" fill="#FCD91E"/>
<path d="M209.354 99.9722C213.207 99.9722 216.341 96.8382 216.341 92.9849C216.341 89.1317 213.207 85.9976 209.354 85.9976C205.501 85.9976 202.367 89.1317 202.367 92.9849C202.367 96.8381 205.501 99.9722 209.354 99.9722ZM209.354 87.3411C212.467 87.3411 214.998 89.8718 214.998 92.9849H203.928L203.71 92.9852C203.71 92.9851 203.71 92.985 203.71 92.9849C203.706 89.8714 206.241 87.3411 209.354 87.3411Z" stroke="black" stroke-width="0.436704"/>
<path d="M269.4 208.933C268.437 208.933 267.653 209.717 267.653 210.68C267.653 211.643 268.437 212.427 269.4 212.427C270.363 212.427 271.147 211.643 271.147 210.68C271.147 209.717 270.363 208.933 269.4 208.933ZM269.4 211.951C268.699 211.951 268.129 211.381 268.129 210.68C268.129 209.98 268.699 209.41 269.4 209.41C270.1 209.41 270.67 209.98 270.67 210.68C270.671 211.381 270.1 211.951 269.4 211.951Z" fill="#C28AFF"/>
<path d="M156.293 168.316C153.644 168.316 151.488 170.472 151.488 173.121C151.488 175.771 153.644 177.924 156.293 177.924C158.942 177.924 161.096 175.768 161.096 173.121C161.098 170.472 158.942 168.316 156.293 168.316ZM156.293 176.832C154.247 176.832 152.582 175.167 152.582 173.121C152.582 171.075 154.247 169.41 156.293 169.41C158.339 169.41 160.004 171.075 160.004 173.121C160.004 175.167 158.339 176.832 156.293 176.832Z" fill="#C28AFF"/>
<path d="M276.603 229.02C272.629 229.02 269.397 232.252 269.397 236.226C269.397 240.2 272.629 243.432 276.603 243.432C280.577 243.432 283.809 240.2 283.809 236.226C283.809 232.252 280.577 229.02 276.603 229.02ZM276.603 241.652C273.611 241.652 271.178 239.219 271.178 236.226C271.178 233.233 273.611 230.801 276.603 230.801C279.596 230.801 282.029 233.233 282.029 236.226C282.033 239.219 279.596 241.652 276.603 241.652Z" fill="#FCD91E"/>
<path d="M274.859 227.928C271.006 227.928 267.872 231.062 267.872 234.915C267.872 238.769 271.006 241.903 274.859 241.903C278.712 241.903 281.846 238.769 281.846 234.915C281.846 231.062 278.712 227.928 274.859 227.928ZM274.859 240.559C271.746 240.559 269.215 238.029 269.215 234.915H280.284L280.503 234.915C280.503 234.915 280.503 234.915 280.503 234.915C280.507 238.029 277.972 240.559 274.859 240.559Z" stroke="black" stroke-width="0.436704"/>
<path d="M215.035 145.824L20.0469 116.346C7.12046 99.053 19.9013 73.9134 27.9076 64.8154L221.149 116.346L261.544 141.457L215.035 145.824Z" fill="#F8F5EF"/>
<path d="M215.035 145.824L20.0469 116.346C7.12046 99.053 19.9013 73.9134 27.9076 64.8154L221.149 116.346L260.994 141.115C261.171 141.225 261.107 141.498 260.899 141.518L215.035 145.824Z" stroke="black" stroke-width="0.655056"/>
<path d="M247.134 132.504C249.754 138.618 246.042 142.184 243.858 143.203L261.114 141.52C261.323 141.499 261.386 141.225 261.207 141.116L247.134 132.504Z" fill="#1D1926" stroke="black" stroke-width="0.655056"/>
<circle cx="178.48" cy="221.104" r="35.4247" stroke="#FCD91E" stroke-width="2.62022"/>
<circle cx="176.467" cy="216.838" r="36.4073" stroke="black" stroke-width="0.655056"/>
<circle cx="176.469" cy="216.84" r="33.4537" stroke="black" stroke-width="0.655056"/>
<rect x="136.205" y="246.048" width="86.904" height="11.3543" fill="#FCD91E"/>
<rect x="134.787" y="247.686" width="86.249" height="10.6992" stroke="black" stroke-width="0.655056"/>
<path d="M79.8721 185.787H61.9673L59.4688 259.59H97.3968C98.0935 238.519 86.3557 202.43 79.8721 185.787Z" fill="#A1C3FC" stroke="black" stroke-width="0.655056"/>
<path d="M8.90744 247.141C5.06445 215.873 21.2807 186.803 29.8692 176.177L64.1505 187.749C66.2612 187.167 70.0023 189.016 68.0808 201.069C66.6566 210.003 67.7836 237.243 69.1143 259.369H10.2451C9.92009 255.865 9.4817 251.814 8.90744 247.141Z" fill="#A1C3FC" stroke="black" stroke-width="0.655056"/>
<path d="M71.5755 68.9651C103.717 66.5196 96.4676 31.263 88.8253 13.9404C87.0785 31.1902 75.7241 35.994 67.6451 36.4307C61.1819 36.78 59.4205 40.9433 59.3477 42.9812C59.3477 50.1432 55.5629 51.9337 53.6705 51.9337C51.225 38.3085 43.9781 42.1078 43.1896 44.9464C40.5694 54.3792 49.0851 58.4842 53.6705 59.3576C65.5489 65.8208 57.1642 76.4618 51.487 80.9745C65.6362 88.3111 71.9394 87.525 73.3223 86.2149C70.5274 78.7036 70.9932 71.5853 71.5755 68.9651Z" fill="#FFE6E6" stroke="black" stroke-width="0.655056"/>
<path d="M194.289 149.536C188.175 148.138 180.824 149.827 177.913 150.846L176.821 147.571C176.384 147.498 175.991 147.003 177.913 145.605C180.314 143.859 183.371 141.893 186.21 140.583C189.049 139.273 189.267 139.273 191.669 137.09C194.071 134.906 195.381 132.941 195.599 135.125C195.817 137.308 191.014 141.893 192.105 141.893C193.197 141.893 199.311 143.204 201.495 144.514C203.678 145.824 211.757 146.261 214.814 144.95C217.26 143.902 218.308 144.514 218.526 144.95C211.975 152.156 201.931 151.283 194.289 149.536Z" fill="#1D1926" stroke="black" stroke-width="0.436704"/>
<path d="M195.6 109.362C187.914 95.9111 172.891 98.6624 166.341 101.719L173.328 103.466C175.075 103.976 179.093 105.3 181.189 106.523C183.809 108.051 184.682 113.51 185.992 114.165C187.041 114.689 187.303 113.219 187.303 112.419C187.521 113.947 187.739 115.475 189.268 115.694C190.491 115.868 190.068 111.982 189.704 110.017C189.704 109.798 190.578 113.074 190.36 114.165C190.141 115.257 190.796 116.349 192.325 114.602C193.547 113.205 192.834 110.963 192.325 110.017C192.325 109.798 192.325 110.672 194.072 111.545C195.818 112.419 195.818 110.453 195.6 109.362Z" fill="#1D1926" stroke="black" stroke-width="0.436704"/>
<path d="M34.6735 98.0049C38.0061 89.9258 49.3031 80.3911 53.0151 80.3184L72.0116 84.467C80.5273 91.6727 88.8247 134.251 89.0431 148.662C89.2178 160.191 96.9765 184.472 100.834 195.171C97.9955 198.01 78.1255 208.928 63.4959 198.01C51.7922 189.276 34.8918 182.143 27.9045 179.668C24.935 183.686 21.2812 189.785 19.8255 192.333L10.4364 186.437C7.85413 184.521 5.84307 182.698 4.32254 180.949C-6.62834 168.352 7.86381 159.57 17.6421 146.916C28.778 132.504 27.4679 115.473 34.6735 98.0049Z" fill="#8DADFF"/>
<path d="M27.9045 179.668C24.935 183.686 21.2812 189.785 19.8255 192.333L10.4364 186.437C-10.7437 170.716 6.50611 161.327 17.6421 146.916C28.778 132.504 27.4679 115.473 34.6735 98.0049C38.0061 89.9258 49.3031 80.3911 53.0151 80.3184L72.0116 84.467C80.5273 91.6727 88.8247 134.251 89.0431 148.662C89.2178 160.191 96.9765 184.472 100.834 195.171C97.9955 198.01 78.1255 208.928 63.4959 198.01C51.7922 189.276 34.8918 182.143 27.9045 179.668ZM27.9045 179.668C19.8255 176.807 11.8686 172.247 7.16112 170.934C3.95893 170.041 -1.3546 173.088 4.32254 180.949" stroke="black" stroke-width="0.655056"/>
<path d="M19.6058 192.116L10.6491 186.48C9.4269 185.593 6.508 183.261 4.61011 181.03C-0.997491 173.224 4.25095 170.198 7.41391 171.085C12.0637 172.389 19.4865 176.828 27.4665 179.67C24.5333 183.659 21.0437 189.586 19.6058 192.116Z" fill="#3B108F"/>
<path d="M101.708 185.564C80.3968 191.852 42.0251 127.628 32.0537 105.865L72.2305 107.83C74.1228 108.995 79.2177 115.342 84.4582 131.412C89.6986 147.483 98.1415 147.57 101.708 145.605C140.138 130.059 166.34 138.4 177.913 145.169L179.66 151.064C162.41 159.58 123.019 179.275 101.708 185.564Z" fill="#8DADFF"/>
<path d="M35.5449 120.277C49.0827 151.065 80.3944 191.853 101.706 185.565C123.017 179.276 162.407 159.581 179.657 151.065L177.91 145.169C166.338 138.401 140.135 130.06 101.706 145.606C98.1391 147.571 89.6962 147.484 84.4557 131.413" stroke="black" stroke-width="0.655056"/>
<path d="M71.5749 68.9653C103.716 66.5197 96.467 31.2632 88.8247 13.9406C87.0779 31.1904 75.7235 35.9941 67.6444 36.4308C61.1812 36.7802 59.4198 40.9434 59.3471 42.9814C59.3471 50.1433 55.5623 51.9338 53.6699 51.9338C51.2244 38.3087 44.1595 41.4529 43.189 44.9466C40.5688 54.3794 49.0845 58.4844 53.6699 59.3578C67.9939 66.8691 59.6382 82.2847 53.6699 89.0536L39.2586 90.1454C36.9877 87.8745 35.9833 79.4462 35.765 75.5158C34.5422 80.7563 36.2745 87.4524 37.2934 90.1454H27.4676C26.2448 90.1454 26.0847 84.0315 26.1575 80.9746C24.76 85.3417 25.5752 88.9081 26.1575 90.1454H17.6419C8.03438 72.8519 24.7019 42.9086 34.2366 30.0986C51.006 -6.93386 73.8311 -0.616207 83.1474 7.17168C88.0239 6.1527 98.432 9.7919 101.052 32.5005C104.327 60.8862 113.28 53.2439 106.293 77.2626L95.8117 79.4462C96.7579 77.6993 98.563 73.1576 98.2136 68.9653C97.6313 71.6583 95.8117 77.5247 93.1915 79.4462L72.3478 83.1581C70.6567 76.8363 71.0724 71.2262 71.5749 68.9653Z" fill="#F8F5EF" stroke="black" stroke-width="0.655056"/>
<g style="mix-blend-mode:overlay">
<path d="M325.389 5.45312L325.389 255.521L128.422 255.521C59.3682 255.521 3.38866 199.541 3.38866 130.487C3.38867 61.4327 59.3682 5.45312 128.422 5.45312L325.389 5.45312Z" fill="#61458D" fill-opacity="0.36" style="mix-blend-mode:hard-light"/>
</g>
<path d="M182.946 32.4678C180.1 43.8531 186.073 53.4918 189.415 56.888H173.728C166.353 50.5485 165.372 37.9664 165.803 32.4678H182.946Z" fill="#119B48"/>
<path d="M180.357 29.8789C177.511 41.2642 183.484 50.903 186.826 54.2992H171.139C163.764 47.9596 162.783 35.3775 163.215 29.8789H180.357Z" stroke="black" stroke-width="0.873408"/>
<path d="M183.431 62.71C175.927 56.888 172.541 45.8369 171.787 41.0391L156.261 46.5377C158.849 57.4055 167.69 64.3272 171.787 66.4297L183.431 62.71Z" fill="#119B48"/>
<path d="M180.844 60.1211C173.34 54.2991 169.954 43.248 169.2 38.4502L153.674 43.9488C156.262 54.8166 165.103 61.7384 169.2 63.8408L180.844 60.1211Z" stroke="black" stroke-width="0.873408"/>
<path d="M178.904 68.3692C173.6 67.3342 169.255 58.1267 167.745 53.6523L158.365 59.3127C160.177 68.8867 166.344 73.2209 169.201 74.1912L178.904 68.3692Z" fill="#119B48"/>
<path d="M176.316 65.7823C171.012 64.7472 166.667 55.5398 165.157 51.0654L155.778 56.7258C157.589 66.2998 163.756 70.634 166.613 71.6043L176.316 65.7823Z" stroke="black" stroke-width="0.873408"/>
</svg>
