<svg width="396" height="353" viewBox="0 0 396 353" fill="none" xmlns="http://www.w3.org/2000/svg">
<path d="M304.733 163.672L341.22 150.699C339.7 148.469 319.226 101.035 299.969 91.5081C283.144 80.3592 251.927 82.4876 216.656 84.9201C205.304 85.5282 194.156 87.758 183.615 91.8121C143.884 107.623 138.208 160.023 138.208 160.023L174.797 172.591C174.797 172.591 168.817 243.742 163.243 281.04C163.243 281.04 209.055 308 308.989 291.479C308.989 291.479 304.935 174.213 304.733 163.672Z" fill="#3860C6"/>
<path d="M214.629 114.718L231.251 195.396L259.225 102.252L214.629 114.718Z" fill="#231F20"/>
<path d="M231.251 196.207C230.946 196.207 230.642 195.903 230.541 195.599L213.919 114.921C213.818 114.516 214.122 114.11 214.426 114.009L258.92 101.542C259.326 101.441 259.731 101.644 259.832 102.049C259.832 102.151 259.832 102.353 259.832 102.455L231.96 195.599C231.96 196.004 231.656 196.207 231.251 196.207ZM215.541 115.327L231.453 192.254L258.109 103.367L215.541 115.327Z" fill="#231F20"/>
<path d="M250.914 4.34535C247.873 3.93994 245.745 5.05483 242.907 5.76431C239.258 6.67649 240.272 6.77785 236.927 4.64942C229.224 -0.316919 219.089 1.91286 210.474 4.95348C201.858 7.99409 192.635 11.7442 183.817 9.21034C186.858 12.555 191.014 14.5821 195.574 14.7848C188.378 19.0417 177.838 15.7983 171.756 21.5755C177.534 28.873 183.919 35.5623 190.912 41.6436C185.743 40.8327 180.675 39.3124 175.912 37.0826C184.527 46.8126 195.574 54.1101 207.433 59.3805C216.149 63.2319 225.677 65.9685 235.204 65.3604C250.508 64.3468 266.218 52.2857 267.434 36.3732C268.347 25.4269 264.191 6.16972 250.914 4.34535Z" fill="white"/>
<path d="M232.467 66.0688C224.866 66.0688 216.555 64.0417 207.129 59.9875C194.257 54.3117 183.513 46.7102 175.304 37.487C175.101 37.1829 175.101 36.7775 175.304 36.4734C175.506 36.1694 175.912 36.068 176.216 36.2707C180.067 38.0951 184.121 39.4127 188.277 40.3249C182.094 34.7504 176.317 28.5679 171.148 21.9799C170.945 21.6758 170.945 21.2704 171.249 20.9663C174.797 17.6216 179.662 17.1149 184.425 16.6081C187.263 16.4054 190.101 15.8986 192.838 15.0878C189.189 14.277 185.844 12.3512 183.311 9.61469C183.108 9.31062 183.007 9.00657 183.209 8.70251C183.412 8.39845 183.716 8.29709 184.121 8.39844C192.027 10.6282 200.338 7.68897 208.345 4.85106L210.271 4.14159C217.872 1.40503 229.021 -1.53423 237.434 3.93887C237.94 4.24293 238.346 4.547 238.65 4.74971C239.967 5.66189 239.967 5.66189 241.69 5.15512L242.704 4.85106C243.413 4.64835 244.123 4.44565 244.832 4.24294C246.859 3.43211 248.988 3.2294 251.015 3.4321C264.292 5.35783 269.157 24.1083 268.245 36.2707C266.927 53.2982 250.103 64.9539 235.305 65.9674C234.393 66.0688 233.379 66.0688 232.467 66.0688ZM179.054 39.1087C187.365 47.3183 197.095 53.9063 207.838 58.4672C218.176 63.0281 227.095 64.9539 235.204 64.3457C253.447 63.1295 265.711 48.7373 266.725 36.1694C267.637 24.6151 263.177 6.77678 250.812 5.05376C248.886 4.85106 247.062 5.15512 245.238 5.8646C244.528 6.06731 243.819 6.27001 243.109 6.47272L242.096 6.77678C239.866 7.38491 239.562 7.28355 237.839 6.0673C237.535 5.86459 237.129 5.56054 236.623 5.25648C228.818 0.188785 218.176 3.02669 210.777 5.66189L208.852 6.37137C201.554 9.00657 193.953 11.6418 186.453 10.5269C189.088 12.6553 192.331 13.8715 195.676 13.9729C195.98 13.9729 196.284 14.277 196.385 14.581C196.487 14.8851 196.284 15.2905 195.98 15.3919C192.534 17.4189 188.48 17.723 184.628 18.1284C180.169 18.5338 176.013 18.9392 172.871 21.5744C178.446 28.5679 184.73 35.0545 191.419 40.933C191.723 41.1357 191.723 41.5411 191.622 41.8452C191.52 42.1493 191.115 42.352 190.811 42.2506C186.757 41.7439 182.804 40.629 179.054 39.1087Z" fill="#231F20"/>
<path d="M215.744 87.9599L214.629 114.717C214.629 114.717 225.372 129.819 241.893 122.826C258.414 115.832 259.123 102.251 259.123 102.251L253.853 51.2699C253.853 51.2699 239.967 46.6076 239.157 18.2285C239.157 18.2285 221.622 30.7964 195.473 31.8099C195.473 31.8099 192.635 63.1283 196.892 76.1015C201.149 89.0748 215.744 87.9599 215.744 87.9599Z" fill="white"/>
<path d="M233.379 125.462C221.521 125.462 214.122 115.326 214.021 115.225C213.92 115.124 213.92 114.921 213.92 114.718L215.034 88.7718C211.791 88.7718 200.135 87.961 196.284 76.4067C192.027 63.4334 194.662 33.0272 194.865 31.811C194.865 31.4055 195.27 31.1015 195.575 31.1015C210.879 30.4934 225.879 25.9324 238.853 17.6214C239.157 17.4187 239.663 17.4187 239.967 17.8241C240.069 17.9255 240.069 18.1282 240.069 18.2296C240.474 32.5204 244.326 40.5274 247.468 44.7843C250.812 49.3452 254.157 50.5614 254.258 50.5614C254.562 50.6628 254.765 50.8655 254.765 51.1695L260.036 102.151C260.036 102.455 259.123 116.441 242.299 123.536C239.461 124.854 236.42 125.462 233.379 125.462ZM215.44 114.516C216.859 116.34 226.791 128.503 241.69 122.219C257.603 115.529 258.414 102.455 258.414 102.252L253.143 51.879C250.61 50.7641 239.562 44.4802 238.447 19.7499C225.677 27.5541 211.183 32.0137 196.183 32.7231C195.777 37.3854 193.851 64.4469 197.602 76.0012C201.656 88.265 215.034 87.3529 215.643 87.2515C215.845 87.2515 216.048 87.3529 216.251 87.4542C216.453 87.5556 216.453 87.8596 216.453 88.0623L215.44 114.516Z" fill="#231F20"/>
<path d="M246.657 64.7519C250.204 65.6641 254.056 65.1573 257.198 63.2316C261.758 60.495 263.988 55.5287 264.09 50.3596C264.191 48.4339 263.887 46.6096 263.177 44.7852C262.468 43.0622 260.948 41.6432 259.123 41.0351C256.893 40.427 254.664 41.2378 252.535 42.15C249.393 43.3662 249.191 45.0892 247.265 47.5217C247.468 47.319 247.67 46.7109 247.873 46.5082" fill="white"/>
<path d="M250.103 65.9674C248.886 65.9674 247.67 65.7647 246.454 65.562C246.049 65.4606 245.744 65.0552 245.846 64.6498C245.947 64.2444 246.353 63.9403 246.758 64.0417C246.859 64.0417 246.859 64.0417 246.961 64.0417C250.305 64.8525 253.954 64.3458 256.893 62.6227C260.948 60.1903 263.279 55.7307 263.38 50.3589C263.481 48.5346 263.177 46.8116 262.468 45.1899C261.86 43.6696 260.542 42.4533 258.92 41.9466C256.995 41.4398 255.069 42.1493 252.839 42.9601C251.319 43.5682 250.001 44.6831 249.292 46.1021C248.886 46.7102 248.481 47.3183 247.974 47.9264L247.873 48.1291C247.569 48.4332 247.062 48.3319 246.758 47.9264C246.555 47.7237 246.555 47.3183 246.657 47.1156L246.758 47.0143L246.859 46.7102C246.961 46.4061 247.163 46.2034 247.366 46.0007C247.467 45.8994 247.569 45.8994 247.67 45.798L248.076 45.2912C248.988 43.5682 250.508 42.2506 252.332 41.5411C254.258 40.7303 256.893 39.7168 259.427 40.4263C261.454 41.0344 263.177 42.5547 263.988 44.5818C264.799 46.4061 265.103 48.4332 265.002 50.4603C264.9 56.4402 262.265 61.3051 257.806 64.0417C255.373 65.2579 252.738 65.9674 250.103 65.9674Z" fill="#231F20"/>
<path d="M215.135 102.048C221.318 102.251 227.197 99.3113 230.845 94.345C237.231 85.8312 235.609 79.75 235.609 79.75C235.609 79.75 227.298 88.3651 215.642 87.9597L215.135 102.048Z" fill="#231F20"/>
<path d="M215.946 102.86C215.642 102.86 215.44 102.86 215.136 102.86C214.73 102.86 214.426 102.455 214.426 102.049L215.034 87.9611C215.034 87.5557 215.338 87.2516 215.744 87.2516C226.893 87.5557 235.001 79.346 235.102 79.2446C235.406 78.9406 235.913 78.9406 236.217 79.2446C236.318 79.346 236.42 79.4474 236.42 79.5487C236.521 79.8528 238.041 86.0354 231.555 94.7518C228.007 99.8195 222.129 102.759 215.946 102.86ZM216.554 88.7719L216.048 101.34C221.724 101.238 226.994 98.5019 230.339 93.941C234.595 88.1638 235.204 83.6029 235.102 81.4744C232.467 83.7042 225.575 88.7719 216.554 88.7719Z" fill="#231F20"/>
<path d="M217.974 45.4932C217.974 45.4932 210.676 60.1895 213.109 62.2166C215.541 64.2436 221.42 61.9125 221.42 61.9125" fill="white"/>
<path d="M216.048 63.9401C214.832 64.0414 213.615 63.636 212.602 62.9265C209.865 60.6967 215.541 48.8383 217.264 45.1896C217.467 44.7842 217.974 44.6828 218.278 44.8855C218.582 45.0882 218.784 45.4937 218.582 45.8991C215.136 52.6898 212.298 60.6967 213.514 61.7103C215.237 63.1292 219.494 61.913 221.014 61.3048C221.42 61.1021 221.825 61.3049 222.028 61.7103C222.23 62.1157 222.028 62.5211 221.622 62.7238C219.798 63.4333 217.974 63.8387 216.048 63.9401Z" fill="#231F20"/>
<path d="M229.384 46.2403C230.587 45.9795 231.265 44.3933 230.897 42.6974C230.53 41.0015 229.256 39.8382 228.053 40.099C226.849 40.3598 226.171 41.9461 226.539 43.6419C226.907 45.3378 228.18 46.5011 229.384 46.2403Z" fill="#231F20"/>
<path d="M209.767 46.2318C209.916 44.503 209.041 43.016 207.815 42.9106C206.588 42.8052 205.473 44.1213 205.324 45.8501C205.176 47.579 206.05 49.0659 207.277 49.1713C208.504 49.2767 209.619 47.9607 209.767 46.2318Z" fill="#231F20"/>
<path d="M217.061 82.387C215.237 82.4884 213.514 81.8802 212.095 80.664C207.534 76.6098 208.041 68.7042 208.041 68.4002C208.041 67.9948 208.345 67.6907 208.75 67.6907C229.122 65.2582 229.427 65.4609 229.731 65.765C229.933 65.8663 230.035 66.1704 230.035 66.3731C230.035 69.5151 229.325 72.6571 227.906 75.3936C226.183 78.8396 222.839 81.3735 219.088 82.0829C218.278 82.2857 217.67 82.387 217.061 82.387ZM209.561 69.211C209.561 71.1367 209.865 76.6098 213.109 79.5491C214.73 80.7653 216.757 81.1708 218.683 80.7653C222.028 80.0559 224.866 77.9274 226.487 74.7855C227.704 72.4543 228.312 69.8191 228.413 67.2853C225.676 67.3867 216.048 68.5015 209.561 69.211Z" fill="#231F20"/>
<path d="M227.096 75.1901C223.447 82.0822 215.845 82.9943 212.602 80.1564C213.616 77.5212 215.339 74.7847 218.177 73.9739C221.116 73.3657 224.359 73.7711 227.096 75.1901Z" fill="#231F20"/>
<path d="M217.062 82.3866C215.237 82.488 213.514 81.8799 212.095 80.765C211.893 80.5623 211.791 80.1569 211.893 79.8528C213.311 76.2041 215.339 73.9743 217.974 73.2648C221.217 72.5553 224.562 72.9607 227.501 74.3797C227.704 74.4811 227.805 74.6838 227.906 74.7851C228.008 74.9878 228.008 75.1905 227.906 75.3932C226.183 78.8393 222.839 81.3731 219.089 82.0826C218.278 82.2853 217.67 82.3866 217.062 82.3866ZM213.514 79.8528C215.035 80.765 216.859 81.069 218.582 80.6636C221.623 80.0555 224.359 78.1298 225.879 75.3932C223.447 74.3797 220.812 74.0756 218.278 74.6837C216.352 75.2919 214.73 77.0149 213.514 79.8528Z" fill="#231F20"/>
<path d="M186.25 112.791C186.453 114.413 174.797 172.691 174.797 172.691L186.25 112.791Z" fill="#231F20"/>
<path d="M174.695 173.403H174.594C174.189 173.301 173.885 172.896 173.986 172.491C178.648 149.483 185.439 114.618 185.439 112.793C185.439 112.388 185.642 111.982 186.148 111.982C186.554 111.982 186.959 112.286 186.959 112.692C187.162 114.314 177.432 163.065 175.405 172.795C175.405 173.099 175.101 173.403 174.695 173.403Z" fill="#231F20"/>
<path d="M251.826 37.0809L277.874 39.7161C280.711 40.0202 282.739 42.554 282.536 45.3919L276.657 103.67C276.353 106.508 273.819 108.535 270.982 108.333L244.934 105.697C242.096 105.393 240.069 102.86 240.271 100.022L246.15 41.7432C246.454 38.8039 248.988 36.7769 251.826 37.0809Z" fill="#231F20"/>
<path d="M271.59 109.043C271.387 109.043 271.184 109.043 270.982 109.043L244.934 106.407C241.69 106.103 239.258 103.164 239.663 99.9208L245.542 41.6424C245.643 40.0207 246.454 38.6018 247.67 37.5882C248.887 36.5747 250.407 36.0679 252.029 36.2706L278.076 38.9058C281.32 39.2099 283.752 42.1491 283.448 45.3925L277.57 103.671C277.164 106.712 274.63 109.043 271.59 109.043ZM251.319 37.7909C250.305 37.7909 249.292 38.1963 248.583 38.8045C247.67 39.5139 247.062 40.6288 246.961 41.7437L241.082 100.022C240.88 102.455 242.603 104.583 245.035 104.887L271.083 107.522C272.299 107.624 273.414 107.218 274.326 106.509C275.239 105.799 275.847 104.684 275.948 103.57L281.827 45.2911C281.928 44.0749 281.522 42.96 280.813 42.0478C280.104 41.1356 278.989 40.5275 277.874 40.4261L251.826 37.7909H251.319Z" fill="#231F20"/>
<path d="M341.22 150.699C341.22 150.699 351.964 173.098 353.991 182.017C360.376 209.383 335.848 245.465 306.152 227.322C296.422 221.342 289.834 211.207 285.577 200.666C276.354 178.166 271.793 153.233 270.07 129.11C269.259 118.164 271.286 99.8191 257.907 95.2582C253.549 93.7379 248.583 98.5015 247.569 96.4744C245.846 93.1297 251.826 85.2241 261.252 89.481C261.252 89.481 254.664 82.6903 247.975 84.616C241.285 86.5417 244.123 79.751 248.38 78.3321C252.231 76.9131 261.252 78.1294 264.394 84.4133C264.394 84.4133 261.455 74.4806 256.184 73.4671C250.914 72.4536 249.191 71.0346 249.495 69.4129C250.002 66.6764 254.867 67.2845 257.704 67.8926C260.542 68.5008 268.144 72.6563 270.07 78.1294C270.07 78.1294 267.536 69.4129 261.151 65.3588C257.096 62.825 253.853 63.129 254.664 61.9128C255.475 60.6965 260.137 57.2505 266.015 61.5073C271.894 65.7642 279.8 79.5483 279.8 79.5483C279.8 79.5483 279.8 70.0211 280.61 70.3251C285.171 71.44 287.503 82.4876 288.111 86.035C289.631 94.5487 292.266 100.427 296.219 108.231C303.516 122.928 312.233 143.604 318.821 158.604" fill="white"/>
<path d="M322.267 232.897C316.388 232.795 310.712 230.971 305.847 227.829C297.131 222.559 290.138 213.437 284.968 200.869C276.455 180.294 271.286 156.07 269.36 129.009C269.259 127.286 269.157 125.36 269.157 123.333C268.853 112.691 268.549 99.515 257.806 95.8662C255.779 95.1567 253.346 96.0689 251.522 96.8798C249.697 97.6906 247.873 98.2987 247.062 96.7784C246.15 95.0554 246.961 92.4202 248.887 90.3931C251.218 88.062 254.562 86.9471 257.806 87.5552C255.373 85.9336 251.927 84.4132 248.38 85.4268C244.832 86.4403 243.819 85.1227 243.515 84.2105C242.805 82.0821 245.339 78.6361 248.38 77.6225C251.42 76.609 257.704 76.9131 262.063 80.2577C260.745 77.6225 258.819 74.7846 256.285 74.2779C252.941 73.5684 248.481 72.2508 248.988 69.3115C249.697 65.5614 256.083 66.7777 258.11 67.1831C261.15 68.0953 263.988 69.6156 266.319 71.6427C264.9 69.4129 263.076 67.4871 260.948 66.0682C259.529 65.156 257.907 64.5479 256.285 64.0411C255.069 63.6357 254.258 63.433 254.056 62.7235C253.954 62.3181 253.954 61.9127 254.258 61.5073C255.475 60.0883 257.096 59.0748 258.921 58.7707C261.758 58.3653 264.596 59.0748 266.725 60.8992C271.184 64.2438 276.657 72.6562 279.191 76.8117C279.293 70.4264 280.002 69.9196 280.205 69.7169C280.408 69.5142 280.712 69.5142 281.016 69.5142C286.083 70.7305 288.415 82.3862 289.023 85.9336C290.442 94.3459 293.178 100.123 297.03 107.927C302.908 119.786 309.597 135.293 315.577 149.077C316.996 152.32 318.314 155.462 319.632 158.402C319.733 158.807 319.53 159.212 319.125 159.415C318.719 159.516 318.314 159.415 318.213 159.01C316.895 156.07 315.577 152.928 314.158 149.685C308.28 136.002 301.489 120.495 295.712 108.637C291.759 100.63 289.023 94.7513 287.502 86.1363C286.489 80.055 284.158 72.6562 281.117 71.2372C280.813 73.9738 280.61 76.8117 280.712 79.5483C280.712 79.9537 280.306 80.3591 279.901 80.3591C279.597 80.3591 279.394 80.2577 279.293 79.9537C279.191 79.8523 271.488 66.3723 265.813 62.1154C263.988 60.5951 261.556 59.8856 259.225 60.1897C257.907 60.3924 256.691 61.1019 255.677 62.1154C255.981 62.2168 256.387 62.3181 256.792 62.5208C258.515 63.0276 260.238 63.7371 261.758 64.6492C268.346 68.8048 270.982 77.4198 271.083 77.8252C271.184 78.2307 270.982 78.6361 270.576 78.7374C270.171 78.8388 269.765 78.6361 269.563 78.2307C267.738 73.0616 260.441 69.0075 257.806 68.5007C253.346 67.6899 250.812 67.9939 250.508 69.4129C250.305 70.5278 252.434 71.6427 256.589 72.5549C262.164 73.6697 265.205 83.6024 265.407 84.1092C265.509 84.5146 265.306 84.92 264.9 85.0214C264.495 85.2241 264.09 85.0214 263.887 84.6159C260.948 78.7374 252.434 77.6225 248.785 78.9401C246.353 79.8523 244.528 82.4875 244.934 83.6024C245.136 84.2105 246.251 84.2105 247.873 83.8051C254.968 81.778 261.657 88.5687 261.961 88.8728C262.265 89.1769 262.265 89.5823 262.063 89.8863C261.86 90.1904 261.454 90.2918 261.15 90.1904C254.765 87.2511 251.015 90.4945 250.001 91.508C248.481 93.0283 247.873 94.954 248.481 96.0689C248.785 96.2716 250.103 95.7649 251.015 95.4608C253.042 94.65 255.779 93.5351 258.414 94.4473C270.171 98.5014 270.576 112.286 270.88 123.333C270.982 125.36 270.982 127.286 271.083 129.009C273.009 155.868 278.178 179.889 286.59 200.362C291.658 212.626 298.449 221.444 306.861 226.613C317.503 233.099 328.449 232.998 337.774 226.207C350.24 217.187 357.132 197.828 353.484 182.22C351.457 173.605 340.814 151.307 340.713 151.104C340.51 150.699 340.713 150.293 341.118 150.091C341.524 149.888 341.929 150.091 342.132 150.496C342.537 151.408 352.876 173.098 355.004 181.916C358.855 198.436 351.862 217.998 338.686 227.525C333.72 230.87 328.044 232.795 322.267 232.897Z" fill="#231F20"/>
<path d="M264.089 51.3717C265.713 51.3717 267.029 50.0557 267.029 48.4324C267.029 46.8091 265.713 45.4932 264.089 45.4932C262.466 45.4932 261.15 46.8091 261.15 48.4324C261.15 50.0557 262.466 51.3717 264.089 51.3717Z" fill="white"/>
<path d="M264.09 52.0817C262.063 52.0817 260.441 50.46 260.441 48.4329C260.441 46.4058 262.063 44.7842 264.09 44.7842C266.117 44.7842 267.738 46.4058 267.738 48.4329C267.84 50.46 266.117 52.0817 264.09 52.0817ZM264.09 46.3045C262.873 46.3045 261.961 47.2167 261.961 48.4329C261.961 49.6492 262.873 50.5613 264.09 50.5613C265.306 50.5613 266.218 49.6492 266.218 48.4329C266.218 47.2167 265.306 46.3045 264.09 46.3045Z" fill="#231F20"/>
<path d="M331.895 190.227C331.591 190.227 331.287 190.024 331.186 189.72L316.895 156.071C316.692 155.665 316.895 155.26 317.3 155.057C317.706 154.854 318.111 155.057 318.314 155.462L332.605 189.112C332.808 189.517 332.605 189.923 332.199 190.125C332.098 190.227 331.997 190.227 331.895 190.227Z" fill="#231F20"/>
<path d="M138.107 160.023L130.505 197.726L104.356 166.915C104.356 166.915 99.8963 159.415 96.957 158.401C93.511 157.083 79.4228 156.273 74.7605 152.421C70.0983 148.57 67.4631 147.759 67.0576 150.698C66.6522 153.637 79.4228 161.34 79.4228 161.34C79.4228 161.34 69.1861 164.381 67.0576 163.469C64.9292 162.557 59.6588 151.509 57.5304 151.509C56.4155 151.509 54.0844 153.84 56.3141 158.705C54.4898 154.043 51.8546 148.772 49.6248 148.772C47.395 148.772 47.4964 152.725 48.9153 157.894C48.9153 157.894 43.2395 148.772 41.1111 154.347C39.084 159.516 53.983 177.861 57.3277 178.672C60.6724 179.483 83.3756 172.692 83.3756 172.692C83.3756 172.692 110.842 251.14 150.776 261.478C160.709 264.012 174.695 172.489 174.695 172.489L138.107 160.023Z" fill="white"/>
<path d="M151.182 262.491C150.979 262.491 150.776 262.491 150.573 262.39C133.85 258.133 117.228 241.714 101.417 213.841C94.2207 201.071 88.0381 187.692 82.869 173.908C78.5108 175.226 60.3685 180.496 57.1252 179.685C54.1859 178.976 45.7735 168.942 42.1248 161.847C40.3004 158.401 39.7937 155.968 40.4018 154.347C41.0099 152.928 41.8207 152.117 42.9356 152.016C44.4559 151.914 46.179 153.232 47.3952 154.752C46.9898 152.016 47.0911 150.09 47.902 149.076C48.3074 148.57 49.0169 148.164 49.7263 148.266C51.348 148.266 53.071 150.09 54.9967 153.739C55.0981 153.232 55.3008 152.826 55.6049 152.32C56.0103 151.509 56.8211 151.002 57.7333 150.901C59.2536 150.901 60.9766 153.435 63.6118 157.59C64.9294 159.719 66.8551 162.658 67.5646 162.962C68.6795 163.367 73.7472 162.354 77.8014 161.239C73.7472 158.705 66.1457 153.536 66.5511 150.698C66.5511 149.684 67.1592 148.772 68.0714 148.367C69.5917 147.759 71.8215 148.874 75.4702 151.914C78.5108 154.347 85.9096 155.563 91.2814 156.475C93.4098 156.779 95.4369 157.185 97.464 157.793C100.505 158.908 104.761 165.901 105.167 166.712L130.201 196.105L137.499 160.023C137.499 159.82 137.701 159.617 137.904 159.516C138.107 159.414 138.31 159.414 138.512 159.414L175.101 171.982C175.405 172.084 175.709 172.489 175.608 172.793C175.101 176.138 162.837 255.397 152.905 261.985C152.296 262.187 151.79 262.39 151.182 262.491ZM83.3758 172.084C83.6799 172.084 83.9839 172.286 84.0853 172.59C84.3894 173.401 111.856 250.836 150.979 260.87C151.384 260.971 151.688 260.87 151.992 260.667C159.391 255.701 169.527 201.679 173.885 173.199L138.715 161.036L131.316 197.929C131.215 198.233 131.012 198.436 130.708 198.537C130.404 198.638 130.1 198.537 129.897 198.334L103.748 167.624C102.43 165.496 98.8829 160.124 96.6532 159.313C94.7274 158.806 92.7004 158.401 90.7746 158.097C84.8961 157.083 77.5986 155.867 74.254 153.131C70.1998 149.887 68.8822 149.685 68.3755 149.887C68.0714 149.989 67.8687 150.597 67.8687 151.002C67.666 152.522 73.9499 157.286 79.9298 160.935C80.2338 161.137 80.3352 161.442 80.3352 161.746C80.3352 162.05 80.0311 162.252 79.7271 162.354C78.0041 162.86 69.0849 165.394 66.8551 164.482C65.7403 163.975 64.3213 161.948 62.1929 158.502C60.7739 156.374 58.4428 152.725 57.6319 152.522C57.3279 152.624 57.0238 152.928 56.8211 153.232C56.5171 153.739 55.8076 155.259 56.8211 157.894L57.1252 158.705C57.3279 159.11 57.1252 159.516 56.7198 159.719C56.3143 159.921 55.9089 159.719 55.7062 159.313C55.6049 159.009 55.5035 158.705 55.4022 158.401C52.8683 152.117 50.7399 149.887 49.7263 149.887C49.5236 149.887 49.3209 149.989 49.2196 150.09C48.9155 150.394 48.206 152.016 49.8277 157.996C49.9291 158.401 49.7263 158.806 49.4223 158.908C49.0169 159.11 48.6115 159.009 48.4087 158.604C47.0911 156.475 44.5573 153.435 43.1384 153.637C42.6316 153.637 42.2262 154.144 41.9221 154.955C41.7194 155.563 41.5167 157.286 43.6451 161.137C47.4966 168.435 55.6049 177.76 57.6319 178.266C59.9631 178.874 74.254 175.023 83.2745 172.286L83.3758 172.084Z" fill="#231F20"/>
<path d="M61.2806 166.51C61.0779 166.51 60.7738 166.409 60.6725 166.206L55.7061 159.213C55.5034 158.909 55.5034 158.402 55.9089 158.098C56.2129 157.895 56.7197 157.895 57.0237 158.301L61.8887 165.294C62.0914 165.598 62.0914 166.105 61.686 166.409C61.5847 166.51 61.382 166.51 61.2806 166.51Z" fill="#231F20"/>
<path d="M48.9158 157.996C50.6388 160.631 52.5645 163.266 54.5916 165.699L48.9158 157.996Z" fill="white"/>
<path d="M54.49 166.511C54.2873 166.511 54.0846 166.409 53.8819 166.308C51.8548 163.774 49.9291 161.24 48.2061 158.504C47.902 158.2 48.0033 157.693 48.3074 157.389C48.6115 157.085 49.1182 157.186 49.4223 157.49L49.5236 157.591C51.2467 160.227 53.071 162.76 55.0981 165.193C55.4022 165.497 55.4022 166.004 55.0981 166.308C54.8954 166.409 54.6927 166.511 54.49 166.511Z" fill="#231F20"/>
<path d="M48.9151 258.135H346.693L394.43 351.684H1.17749L48.9151 258.135Z" fill="white"/>
<path d="M394.43 352.394H1.17758C0.873521 352.394 0.670813 352.293 0.468105 351.988C0.366751 351.786 0.366751 351.482 0.468105 351.178L48.2058 257.628C48.3071 257.324 48.6112 257.223 48.9152 257.223H346.693C346.997 257.223 347.301 257.425 347.402 257.628L395.14 351.178C395.241 351.38 395.241 351.684 395.14 351.988C395.039 352.293 394.734 352.394 394.43 352.394ZM2.39383 350.874H393.214L346.186 258.844H49.422L2.39383 350.874Z" fill="#D1D3D4"/>
<path d="M76.4834 299.893L76.8888 304.656L184.121 320.366L183.006 315.4L76.4834 299.893Z" fill="white"/>
<path d="M184.121 321.076H184.02L76.7873 305.366C76.3818 305.265 76.1791 305.062 76.0778 304.656L75.6724 299.893C75.6724 299.69 75.7737 299.386 75.8751 299.285C76.0778 299.082 76.2805 299.082 76.4832 299.082L183.107 314.488C183.411 314.488 183.716 314.792 183.716 315.096L184.83 320.062C184.932 320.468 184.628 320.873 184.222 320.974C184.222 321.076 184.121 321.076 184.121 321.076ZM77.5981 303.947L183.107 319.353L182.398 316.008L77.294 300.805L77.5981 303.947Z" fill="#231F20"/>
<path d="M76.4834 299.893C76.4834 299.893 100.91 279.014 101.72 279.116C102.531 279.217 212.196 292.393 212.196 292.393L183.108 315.198L76.4834 299.893Z" fill="white"/>
<path d="M183.006 316.111H182.905L76.2807 300.705C75.9766 300.705 75.7739 300.401 75.6726 300.198C75.5712 299.894 75.6726 299.59 75.8753 299.387C100.606 278.205 101.315 278.306 101.822 278.509C103.444 278.813 211.081 291.685 212.196 291.786C212.5 291.786 212.804 292.09 212.804 292.293C212.906 292.597 212.804 292.901 212.5 293.104L183.412 315.908C183.412 316.111 183.209 316.111 183.006 316.111ZM78.2064 299.387L182.804 314.489L210.169 293.002C188.885 290.468 107.092 280.637 101.721 279.928C99.9975 281.042 87.0242 291.887 78.2064 299.387Z" fill="#231F20"/>
<path d="M184.121 320.366L212.601 297.258L212.196 292.494L183.006 315.4L184.121 320.366Z" fill="white"/>
<path d="M184.121 321.075C183.716 321.075 183.411 320.872 183.31 320.466L182.195 315.5C182.094 315.196 182.195 314.892 182.499 314.689L211.588 291.885C211.791 291.682 212.095 291.682 212.399 291.783C212.703 291.885 212.804 292.189 212.905 292.391L213.311 297.155C213.311 297.459 213.209 297.662 213.007 297.865L184.628 320.973C184.526 321.075 184.324 321.176 184.121 321.075ZM183.918 315.602L184.628 318.845L211.791 296.851L211.486 293.912L183.918 315.602Z" fill="#231F20"/>
<path d="M76.4831 299.892L55.8069 230.87L168.918 250.127L183.006 315.399L76.4831 299.892Z" fill="white"/>
<path d="M183.006 316.109H182.905L76.2803 300.703C75.9763 300.703 75.7736 300.399 75.6722 300.197L55.0974 231.175C54.996 230.871 55.0974 230.668 55.3001 230.465C55.5028 230.262 55.7055 230.161 56.0096 230.262L169.019 249.52C169.323 249.621 169.627 249.824 169.627 250.128L183.817 315.298C183.918 315.501 183.817 315.805 183.614 316.008C183.513 316.008 183.209 316.109 183.006 316.109ZM77.0912 299.183L182.094 314.386L168.31 250.736L56.9217 231.884L77.0912 299.183Z" fill="#231F20"/>
<path d="M277.772 310.738C300.834 310.738 319.529 305.111 319.529 298.17C319.529 291.229 300.834 285.603 277.772 285.603C254.709 285.603 236.014 291.229 236.014 298.17C236.014 305.111 254.709 310.738 277.772 310.738Z" fill="white"/>
<path d="M277.772 311.548C256.893 311.548 235.203 306.582 235.203 298.17C235.203 289.757 256.791 284.791 277.772 284.791C298.752 284.791 320.34 289.757 320.34 298.17C320.34 306.582 298.651 311.548 277.772 311.548ZM277.772 286.413C253.244 286.413 236.825 292.494 236.825 298.17C236.825 303.846 253.244 309.927 277.772 309.927C302.299 309.927 318.719 303.846 318.719 298.17C318.719 292.494 302.299 286.413 277.772 286.413Z" fill="#D1D3D4"/>
<path d="M246.352 262.291L245.338 262.494C242.298 262.899 239.561 264.521 237.635 266.852C235.304 270.095 235.507 274.656 237.433 278.102C241.892 286.109 252.636 288.339 260.947 289.048C262.163 289.251 263.278 289.15 264.494 288.744C265.913 288.44 266.724 287.021 266.42 285.602C266.217 284.791 265.609 284.082 264.9 283.778C263.987 283.373 263.075 283.068 262.163 282.967C256.994 282.156 251.521 281.447 246.859 279.116C244.122 277.697 240.271 274.555 242.298 271.109C243.007 269.994 244.021 269.183 245.237 268.575C250.001 266.345 254.46 268.068 259.224 269.386C259.528 269.487 259.933 269.588 260.237 269.588C261.15 269.284 261.758 268.372 261.555 267.46C261.454 265.433 259.325 264.014 257.399 263.304C253.751 262.19 250.001 261.784 246.352 262.291Z" fill="white"/>
<path d="M262.264 289.961C261.758 289.961 261.251 289.961 260.744 289.86C248.075 288.643 240.169 284.995 236.622 278.508C234.392 274.454 234.493 269.589 236.926 266.345C239.054 263.406 242.602 262.19 245.136 261.683C245.44 261.582 245.845 261.582 246.149 261.481C250.001 260.974 253.852 261.379 257.399 262.798C259.021 263.406 261.859 264.825 261.96 267.562C262.163 268.879 261.251 270.197 259.933 270.501C259.426 270.501 259.021 270.501 258.514 270.298L257.298 269.893C253.143 268.677 249.19 267.46 245.136 269.386C244.122 269.792 243.21 270.602 242.602 271.515C242.095 272.224 241.994 273.136 242.298 273.947C242.804 275.873 245.136 277.596 246.859 278.508C250.913 280.535 255.575 281.244 260.035 281.954L261.96 282.258C262.974 282.359 264.089 282.663 265.001 283.17C266.116 283.677 266.927 284.792 267.028 286.008C267.028 287.528 266.014 288.947 264.595 289.454C263.987 289.86 263.177 289.961 262.264 289.961ZM246.453 263.102C246.149 263.102 245.845 263.204 245.44 263.305C243.21 263.71 240.068 264.825 238.244 267.359C236.216 270.096 236.115 274.352 238.041 277.798C241.385 283.778 248.886 287.224 260.947 288.339C261.96 288.542 263.075 288.441 264.089 288.137C264.9 287.832 265.508 287.123 265.508 286.211C265.406 285.501 264.9 284.893 264.291 284.589C263.481 284.184 262.67 283.981 261.758 283.88L259.832 283.576C255.17 282.866 250.406 282.055 246.149 279.927C244.021 278.812 241.487 276.886 240.777 274.454C240.372 273.238 240.575 271.92 241.284 270.805C242.095 269.589 243.21 268.575 244.527 267.967C249.088 265.737 253.548 267.055 257.805 268.373L259.021 268.778C259.224 268.879 259.528 268.879 259.731 268.879C260.136 268.778 260.44 268.17 260.44 267.562C260.339 265.636 257.906 264.521 256.791 264.116C253.649 262.899 250.001 262.494 246.453 263.102Z" fill="#231F20"/>
<path d="M250.204 253.777C250.204 253.777 258.008 292.799 258.616 295.13C259.224 297.461 277.772 307.089 292.468 297.664L305.34 257.831L250.204 253.777Z" fill="white"/>
<path d="M278.075 302.427C273.616 302.427 269.258 301.515 265.204 299.995C261.96 298.778 258.311 296.751 257.906 295.231C257.298 292.9 249.798 255.399 249.392 253.879C249.392 253.676 249.392 253.372 249.595 253.169C249.798 252.967 250 252.865 250.203 252.967L305.34 257.021C305.542 257.021 305.745 257.122 305.948 257.325C306.049 257.527 306.15 257.73 306.049 258.034L293.177 297.866C293.076 298.069 292.974 298.17 292.873 298.272C288.515 301.11 283.346 302.529 278.075 302.427ZM251.217 254.588C252.433 260.669 258.92 292.799 259.426 294.927C259.629 295.434 262.467 297.664 267.636 299.285C272.805 300.907 282.738 302.833 291.86 297.157L304.326 258.541L251.217 254.588Z" fill="#231F20"/>
<path d="M305.547 255.99C305.817 249.39 293.659 243.532 278.389 242.905C263.12 242.279 250.522 247.121 250.252 253.721C249.981 260.321 262.139 266.179 277.409 266.805C292.678 267.432 305.276 262.59 305.547 255.99Z" fill="#231F20"/>
<path d="M280.001 267.663C279.089 267.663 278.177 267.663 277.366 267.663C261.454 267.055 249.19 260.872 249.494 253.777C249.595 250.23 252.838 247.088 258.413 244.96C263.785 242.932 270.879 241.919 278.38 242.223C294.292 242.831 306.556 249.014 306.252 256.108C306.151 259.656 302.907 262.798 297.333 264.926C291.758 266.852 285.88 267.764 280.001 267.663ZM275.643 243.642C269.967 243.541 264.291 244.453 258.92 246.379C253.953 248.304 251.115 250.939 251.014 253.777C250.811 259.859 262.873 265.433 277.366 266.041C284.664 266.345 291.556 265.433 296.725 263.406C301.691 261.48 304.529 258.845 304.63 256.007C304.833 249.926 292.772 244.351 278.278 243.743C277.467 243.642 276.555 243.642 275.643 243.642Z" fill="#231F20"/>
<path d="M170.134 81.8812C170.134 81.8812 160.1 81.0704 154.221 74.9891C157.667 70.4282 159.492 64.9551 159.593 59.2793C159.593 38.8058 134.052 22.2852 102.531 22.2852C71.0099 22.2852 45.4688 38.8058 45.4688 59.2793C45.4688 79.7528 71.0099 96.2734 102.531 96.2734C120.065 96.2734 135.775 91.1044 146.214 83.0975C154.221 84.0096 162.228 83.6042 170.134 81.8812Z" fill="white"/>
<path d="M102.531 97.0838C70.6047 97.0838 44.7595 80.1577 44.7595 59.2788C44.7595 38.3999 70.6047 21.5752 102.531 21.5752C134.458 21.5752 160.404 38.5013 160.404 59.3802C160.303 64.9546 158.58 70.4277 155.235 74.9887C160.911 80.4618 170.033 81.1712 170.134 81.1712C170.54 81.1712 170.844 81.4753 170.844 81.8807C170.844 82.2861 170.641 82.5902 170.236 82.6916C162.431 84.3132 154.323 84.7186 146.417 83.9078C135.471 92.3202 119.457 97.0838 102.531 97.0838ZM102.531 23.0955C71.5169 23.0955 46.2798 39.3121 46.2798 59.2788C46.2798 79.2455 71.5169 95.5635 102.531 95.5635C119.255 95.5635 134.964 90.7999 145.708 82.4888C145.911 82.3875 146.012 82.2861 146.215 82.2861C152.701 82.8943 159.188 82.7929 165.675 81.8807C162.127 81.0699 157.161 79.2455 153.614 75.4954C153.309 75.1914 153.309 74.7859 153.512 74.4819C156.857 70.1237 158.681 64.7519 158.681 59.2788C158.783 39.4135 133.545 23.0955 102.531 23.0955Z" fill="#D1D3D4"/>
</svg>
