<svg width="411" height="438" viewBox="0 0 411 438" fill="none" xmlns="http://www.w3.org/2000/svg">
<path d="M123.682 27.6305L265.056 1.75392C269.727 0.870326 274.145 4.02601 275.028 8.69643L290.302 92.3852C291.185 97.0556 288.03 101.474 283.359 102.357L141.985 128.234C137.314 129.117 132.896 125.962 132.013 121.291L116.739 37.6025C115.982 32.9321 119.011 28.3879 123.682 27.6305Z" fill="white"/>
<path d="M140.47 128.991C136.052 128.991 132.265 125.836 131.382 121.418L116.108 37.729C115.224 32.6799 118.506 27.8833 123.555 26.9997L264.93 1.12306C269.979 0.239473 274.776 3.52139 275.659 8.57048L290.933 92.2592C291.817 97.3083 288.535 102.105 283.612 102.989L142.237 128.865C141.606 128.865 141.101 128.991 140.47 128.991ZM265.183 2.38534L123.808 28.262C119.516 29.0193 116.613 33.1848 117.37 37.4765L132.77 121.165C133.527 125.457 137.693 128.36 141.985 127.603L283.359 101.726C287.651 100.969 290.554 96.8034 289.797 92.5117L274.397 8.82293C273.64 4.40497 269.474 1.62797 265.183 2.38534Z" fill="#090D73"/>
<path d="M216.05 114.508L209.471 115.725L220.538 175.55L227.117 174.333L216.05 114.508Z" fill="#3860C6"/>
<path d="M220.625 176.074C220.372 176.074 220.12 175.821 219.993 175.569L208.885 115.737C208.885 115.611 208.885 115.358 209.012 115.232C209.138 115.106 209.264 114.98 209.39 114.98L216.08 113.717C216.459 113.591 216.712 113.844 216.838 114.222L227.946 174.054C227.946 174.433 227.82 174.685 227.441 174.811L220.625 176.074ZM210.274 116.116L221.13 174.811L226.557 173.802L215.702 115.232L210.274 116.116Z" fill="#090D73"/>
<path d="M227.693 154.616C227.693 155.373 227.441 156.131 226.936 156.762C225.421 158.782 223.149 160.17 220.624 160.549C219.741 160.801 218.731 160.801 217.721 160.675C216.838 161.18 216.08 161.811 215.197 162.316C214.187 162.947 213.177 163.326 212.041 163.704L210.526 175.822L192.097 170.268C192.476 163.831 196.767 150.198 196.767 150.198C197.904 146.916 199.418 143.887 201.564 141.11C203.584 138.333 206.361 136.313 209.643 135.051C210.4 134.672 211.284 134.546 212.167 134.798C213.051 134.925 213.682 135.556 213.808 136.439C213.808 137.07 213.556 137.702 213.177 138.206L212.798 138.711C214.818 137.954 216.964 137.449 219.11 137.07C220.372 136.692 221.76 136.818 222.897 137.575C224.033 138.711 224.033 140.479 223.149 141.867L223.023 142.12C224.159 142.246 225.295 143.003 225.926 143.887C226.178 145.023 226.052 146.159 225.295 147.042C225.169 147.295 224.916 147.547 224.664 147.674C226.431 148.557 227.062 150.577 226.305 152.344C226.178 152.47 226.052 152.723 225.926 152.849C226.052 152.849 226.178 152.849 226.178 152.849C227.188 153.101 227.693 153.859 227.693 154.616Z" fill="white"/>
<path d="M210.653 176.454H210.526L192.223 170.9C191.971 170.774 191.718 170.521 191.718 170.269C192.097 163.831 196.263 150.577 196.515 149.946C197.651 146.664 199.292 143.509 201.312 140.732C203.458 137.828 206.361 135.682 209.643 134.42C210.526 134.041 211.536 133.915 212.42 134.041C213.556 134.168 214.439 135.051 214.566 136.187C214.566 136.566 214.566 137.071 214.313 137.45C215.954 136.945 217.469 136.566 219.11 136.314C220.624 135.935 222.139 136.187 223.528 136.945C224.79 138.207 225.042 139.974 224.159 141.489C225.169 141.741 226.178 142.499 226.683 143.509C227.062 144.771 226.81 146.159 225.926 147.169C225.926 147.295 225.8 147.295 225.8 147.422C226.557 148.053 227.188 148.936 227.315 149.946C227.441 150.703 227.315 151.587 227.062 152.344C227.819 152.849 228.198 153.607 228.198 154.49C228.198 155.374 227.946 156.257 227.441 157.015C225.8 159.161 223.401 160.675 220.751 161.054C219.867 161.307 218.857 161.307 217.847 161.18C217.469 161.433 217.09 161.685 216.711 161.938L215.575 162.695C214.692 163.2 213.682 163.705 212.672 163.957L211.157 175.697C211.157 175.823 211.031 176.075 210.905 176.201C210.905 176.328 210.779 176.328 210.653 176.454ZM192.981 169.764L210.148 174.939L211.536 163.579C211.536 163.326 211.789 163.074 212.041 163.074C213.051 162.821 214.061 162.316 215.07 161.812C215.449 161.559 215.828 161.307 216.207 161.054C216.585 160.802 217.216 160.423 217.721 160.044C217.847 159.918 217.974 159.918 218.1 159.918C218.984 160.044 219.867 160.044 220.751 159.792C223.149 159.413 225.169 158.151 226.557 156.258C226.936 155.753 227.188 155.121 227.188 154.49C227.188 153.985 226.936 153.48 226.431 153.354H226.178C225.8 153.354 225.547 153.102 225.547 152.723C225.547 152.597 225.547 152.471 225.674 152.344C226.557 151.082 226.305 149.315 225.042 148.305C224.916 148.179 224.79 148.179 224.664 148.053C224.537 147.926 224.285 147.8 224.285 147.548C224.285 147.295 224.285 147.169 224.538 147.043C224.79 146.917 224.916 146.664 225.169 146.412C225.8 145.654 225.926 144.771 225.674 143.887C225.042 143.13 224.159 142.625 223.275 142.499C223.023 142.499 222.897 142.246 222.77 142.12C222.644 141.868 222.77 141.741 222.897 141.489C222.897 141.489 223.023 141.363 223.023 141.236C223.78 140.227 223.78 138.838 222.897 137.828C221.887 137.197 220.751 137.071 219.615 137.45C217.469 137.828 215.449 138.333 213.429 139.091C213.177 139.217 212.925 139.091 212.672 138.838C212.546 138.586 212.546 138.333 212.672 138.081L213.051 137.576C213.303 137.197 213.556 136.692 213.556 136.187C213.429 135.556 212.925 135.178 212.42 135.051C211.662 134.925 210.905 135.051 210.274 135.304C207.118 136.44 204.467 138.459 202.448 141.11C200.428 143.761 198.913 146.79 197.777 149.946C197.525 150.451 193.486 163.326 192.981 169.764Z" fill="#090D73"/>
<path d="M206.74 146.285C206.487 146.285 206.361 146.158 206.235 146.032C205.982 145.78 206.108 145.401 206.361 145.149C208.759 143.255 210.779 140.983 212.546 138.332C212.672 138.08 213.177 137.954 213.43 138.08C213.682 138.206 213.808 138.711 213.556 138.963C211.789 141.614 209.643 144.139 207.118 146.032C206.992 146.158 206.866 146.285 206.74 146.285Z" fill="#090D73"/>
<path d="M212.293 147.169C211.662 147.169 211.157 147.042 210.653 146.538C210.274 146.159 210.148 145.654 210.148 145.149C209.895 144.013 209.895 142.877 210.274 141.867C210.4 141.488 210.779 141.362 211.031 141.488C211.284 141.615 211.536 141.993 211.41 142.246C211.157 143.129 211.157 144.013 211.41 144.897C211.41 145.149 211.536 145.528 211.662 145.654C211.789 145.78 212.167 145.906 212.798 145.78C215.07 145.401 217.343 144.77 219.488 143.761C220.751 143.256 221.887 142.498 222.77 141.488C223.023 141.236 223.401 141.11 223.654 141.362C223.906 141.615 224.033 141.993 223.78 142.246C222.77 143.382 221.508 144.265 219.993 144.897C217.721 146.033 215.323 146.664 212.925 147.042L212.293 147.169Z" fill="#090D73"/>
<path d="M215.071 151.965C214.692 151.965 214.187 151.965 213.808 151.839C211.789 151.082 210.653 148.936 211.41 146.916C211.41 146.79 211.536 146.538 211.662 146.411C211.789 146.159 212.167 146.033 212.546 146.159C212.798 146.285 212.925 146.664 212.798 147.042C212.42 147.674 212.42 148.431 212.798 149.188C213.051 149.946 213.682 150.451 214.313 150.703C215.071 150.829 215.828 150.829 216.585 150.703C218.731 150.324 220.751 149.567 222.644 148.557C223.275 148.179 223.906 147.8 224.538 147.295C224.79 147.042 225.169 147.042 225.421 147.295C225.674 147.547 225.674 147.926 225.421 148.179C224.79 148.683 224.033 149.188 223.275 149.567C221.256 150.703 219.11 151.46 216.838 151.839C216.207 151.839 215.702 151.965 215.071 151.965Z" fill="#090D73"/>
<path d="M217.595 156.131C217.216 156.131 216.711 156.131 216.333 156.005C215.323 155.878 214.313 155.373 213.682 154.49C213.303 153.985 213.177 153.228 213.303 152.596C213.429 152.092 213.682 151.587 214.187 151.208C214.439 150.955 214.818 151.082 215.07 151.334C215.323 151.587 215.197 151.965 214.944 152.218C214.818 152.344 214.692 152.47 214.692 152.723C214.692 153.101 214.692 153.354 214.818 153.732C215.323 154.237 215.954 154.616 216.711 154.742C217.974 154.869 219.362 154.742 220.624 154.49C221.256 154.364 222.013 154.237 222.644 154.111C223.654 153.859 224.537 153.354 225.295 152.723L225.674 152.344C225.926 152.092 226.305 151.965 226.557 152.218C226.81 152.47 226.936 152.849 226.683 153.101C226.557 153.228 226.431 153.354 226.305 153.606C225.421 154.49 224.285 155.121 223.149 155.373C222.392 155.5 221.76 155.626 221.003 155.752C219.741 156.005 218.731 156.131 217.595 156.131Z" fill="#090D73"/>
<path d="M217.848 161.179C217.216 161.053 216.585 160.801 216.08 160.548C214.313 159.412 213.682 157.014 214.692 155.12C214.818 154.868 215.197 154.742 215.576 154.868C215.828 154.994 215.954 155.373 215.828 155.751C215.197 157.14 215.576 158.655 216.838 159.538C217.216 159.791 217.595 159.917 217.974 160.043C218.352 160.043 218.605 160.422 218.479 160.801C218.352 161.053 218.1 161.179 217.848 161.179Z" fill="#090D73"/>
<path d="M208.128 164.84C205.604 164.84 202.953 164.209 200.681 163.199C200.302 163.073 200.176 162.694 200.302 162.316C200.428 161.937 200.807 161.811 201.186 161.937C204.594 163.452 208.381 163.83 212.041 162.947C212.42 162.821 212.672 163.073 212.799 163.452C212.925 163.83 212.672 164.083 212.42 164.209C210.905 164.588 209.517 164.84 208.128 164.84Z" fill="#090D73"/>
<path d="M145.519 173.297C160.667 177.841 181.873 205.864 181.873 205.864L188.058 172.414C188.563 169.637 190.835 167.491 193.738 167.112C198.661 166.481 203.71 166.481 208.633 167.112C211.915 167.743 214.187 170.646 213.935 173.928C213.051 185.289 215.197 215.457 206.74 228.332C202.448 234.77 179.979 242.975 152.841 230.352C125.702 217.729 145.519 173.297 145.519 173.297Z" fill="#3860C6"/>
<path d="M59.5583 219.369C4.64943 235.779 -7.34218 280.337 4.27074 335.625C11.8444 371.852 78.7449 445.19 203.079 437.111C327.413 429.033 310.246 350.014 294.215 316.564C278.184 283.114 236.782 257.364 198.787 253.955C160.793 250.547 149.937 229.972 149.937 229.972L59.5583 219.369Z" fill="#3860C6"/>
<path d="M120.4 281.601L122.167 286.397L153.345 296.874L164.201 268.726L120.4 281.601Z" fill="white"/>
<path d="M153.345 297.506C153.219 297.506 153.219 297.506 153.093 297.506L121.915 286.902C121.788 286.902 121.536 286.65 121.536 286.524L119.769 281.727C119.642 281.601 119.642 281.348 119.769 281.222C119.895 281.096 120.021 280.97 120.147 280.844L163.948 267.968C164.201 267.842 164.453 267.968 164.579 268.095C164.706 268.221 164.832 268.473 164.706 268.726L153.85 297.001C153.85 297.379 153.598 297.506 153.345 297.506ZM122.672 285.893L152.966 296.117L163.065 269.609L121.157 281.98L122.672 285.893Z" fill="#090D73"/>
<path d="M77.1038 298.516L76.3465 319.091L76.4727 323.761C83.7939 329.568 91.4938 334.869 99.5723 339.54C142.616 364.785 211.41 335.879 211.41 335.879L222.013 327.169L244.103 282.737H212.42L115.856 285.893L71.1711 291.952L77.1038 298.516Z" fill="white"/>
<path d="M52.9944 283.746C55.8976 294.98 74.958 301.418 74.958 301.418L76.3465 319.089C83.0365 321.362 90.2315 322.371 97.3002 321.74C97.3002 321.74 100.582 311.011 103.107 307.729C103.107 307.729 114.972 309.622 117.623 305.457C120.274 301.291 130.877 292.834 130.877 292.834C133.654 288.669 133.401 284.377 123.934 280.969C123.429 280.716 122.798 280.59 122.167 280.338L157.132 270.113C157.132 270.113 159.657 258.753 160.666 249.664C159.783 248.402 159.278 246.887 159.152 245.373C159.152 245.373 166.725 186.298 151.073 175.443C142.363 171.403 131.382 168.879 117.497 168.879C83.289 169.131 59.0533 190.085 53.878 216.972C48.7027 243.858 49.965 272.512 52.9944 283.746Z" fill="#3860C6"/>
<path d="M99.0676 307.225C90.7366 306.468 82.5318 304.574 74.7057 301.924C74.327 301.797 74.2008 301.419 74.327 301.166C74.4532 300.788 74.8319 300.661 75.0844 300.788C82.9105 303.438 90.8628 305.206 99.0676 306.089C99.4463 306.089 99.6987 306.342 99.6987 306.72C99.6987 307.099 99.4463 307.351 99.0676 307.225Z" fill="#090D73"/>
<path d="M83.0367 269.608C82.658 269.608 82.4055 269.23 82.4055 268.977C82.4055 268.599 85.9399 234.265 82.4055 211.67C82.4055 211.291 82.5317 211.039 82.9104 210.913C83.2891 210.786 83.5416 211.039 83.6678 211.418C87.3284 234.139 83.6678 268.725 83.6678 269.104C83.5416 269.356 83.2891 269.608 83.0367 269.608Z" fill="#090D73"/>
<path d="M122.167 281.095H122.041L76.8515 268.598C76.4728 268.472 76.3466 268.093 76.3466 267.841C76.4728 267.462 76.8515 267.336 77.1039 267.336L122.293 279.832C122.672 279.959 122.798 280.337 122.798 280.59C122.798 280.842 122.546 281.095 122.167 281.095Z" fill="#090D73"/>
<path d="M171.396 306.594C201.312 321.362 226.305 342.695 226.305 342.695C226.305 342.695 218.605 373.999 207.497 378.038C196.389 382.078 142.995 357.211 142.995 357.211C142.995 357.211 115.729 349.764 97.174 337.898C97.174 337.898 95.5331 336.762 97.3002 321.741" fill="white"/>
<path d="M204.467 379.048C188.815 379.048 144.762 358.726 142.742 357.842C142.616 357.842 115.225 350.269 96.7956 338.403C96.1644 338.025 95.0284 335.5 96.6693 321.615C96.6693 321.236 97.048 320.984 97.4267 321.11C97.8054 321.236 98.0578 321.489 97.9316 321.867C96.4169 334.616 97.4267 337.141 97.5529 337.52C115.73 349.259 142.869 356.706 143.121 356.706C143.752 356.959 196.515 381.321 207.245 377.534C217.216 373.873 224.664 346.608 225.547 342.947C222.644 340.549 198.787 320.984 171.143 307.351C170.765 307.225 170.639 306.846 170.765 306.594C170.891 306.215 171.27 306.089 171.522 306.215C171.522 306.215 171.648 306.215 171.648 306.342C201.186 320.858 226.431 342.19 226.684 342.443C226.81 342.569 226.936 342.821 226.936 343.074C226.684 344.336 219.11 374.757 207.749 378.922C206.613 378.922 205.604 379.048 204.467 379.048Z" fill="#090D73"/>
<path d="M126.459 288.165C139.334 294.476 142.994 296.875 149.306 297.758C155.617 298.642 157.637 299.273 157.132 302.176C156.627 305.079 145.898 303.312 145.898 303.312C148.422 307.856 149.937 313.032 150.189 318.207C150.568 326.286 151.578 341.938 150.189 342.695C148.801 343.453 146.024 340.044 145.014 332.344C144.004 324.645 142.868 316.945 142.868 316.945C142.868 316.945 141.732 324.14 140.217 329.315C138.703 334.49 136.683 337.52 134.663 337.52C132.644 337.52 133.654 333.481 135.042 327.169C135.926 323.382 136.304 319.469 136.052 315.556C135.926 313.41 135.421 311.391 134.537 309.371C134.537 309.371 133.654 318.081 131.003 322.751C128.352 327.422 124.565 330.577 123.429 327.8C122.293 325.023 125.449 319.974 125.954 317.576C126.206 315.304 126.08 313.032 125.828 310.886C125.828 310.886 122.167 317.071 119.642 318.586C117.118 320.1 113.079 320.353 115.982 315.556L118.885 310.76C118.885 310.76 109.67 305.458 109.544 298.137C109.292 298.011 112.069 285.64 126.459 288.165Z" fill="white"/>
<path d="M149.811 343.325C149.558 343.325 149.18 343.199 148.927 343.073C147.413 342.189 145.267 338.907 144.383 332.343C143.878 328.052 143.247 323.76 142.742 320.73C142.237 323.255 141.48 326.663 140.722 329.44C139.082 334.994 136.936 338.15 134.537 338.15C134.032 338.15 133.527 337.897 133.275 337.519C132.265 336.256 132.896 333.227 134.032 328.304L134.285 327.042C135.042 323.76 135.421 320.352 135.295 316.944C135.295 316.439 135.295 316.06 135.295 315.555C135.295 314.419 135.042 313.157 134.664 312.021C134.159 315.05 133.275 319.847 131.382 323.129C129.488 326.411 126.711 329.692 124.565 329.566C123.682 329.44 122.924 328.935 122.798 328.052C121.915 325.906 123.177 322.75 124.313 320.225C124.692 319.342 125.07 318.458 125.323 317.575C125.575 316.06 125.575 314.419 125.323 312.904C124.06 314.924 121.662 318.206 119.895 319.342C118.128 320.478 115.856 320.857 114.846 319.847C113.962 318.963 114.215 317.575 115.351 315.429L117.875 311.137C115.856 309.875 108.913 304.826 108.787 298.388V298.262C108.787 298.136 111.816 285.26 126.585 287.911H126.711C128.983 289.047 131.003 290.057 132.77 290.941C140.849 294.98 144.257 296.747 149.18 297.378C153.724 298.009 156.122 298.514 157.132 299.903C157.637 300.66 157.763 301.544 157.637 302.427C157.132 305.204 150.316 304.699 146.908 304.321C149.053 308.739 150.442 313.535 150.694 318.458C150.694 319.72 150.821 321.109 150.947 322.75C151.704 338.655 151.578 342.946 150.442 343.578C150.19 343.199 150.063 343.199 149.811 343.325ZM142.868 316.186C143.121 316.186 143.499 316.439 143.499 316.691C143.499 316.817 144.636 324.517 145.645 332.091C146.403 338.15 148.422 341.305 149.558 341.937C149.685 341.937 149.811 342.063 149.937 342.063C150.694 340.548 150.19 328.809 149.811 322.498C149.685 320.983 149.685 319.468 149.558 318.206C149.18 313.03 147.791 308.108 145.267 303.563C145.14 303.311 145.14 303.058 145.267 302.932C145.393 302.68 145.645 302.68 145.898 302.68C150.821 303.437 156.122 303.311 156.375 302.049C156.501 301.544 156.501 300.913 156.122 300.534C155.365 299.524 153.093 299.019 149.053 298.514C143.878 297.757 140.47 296.116 132.139 291.95L126.08 288.921C112.952 286.649 110.049 297.126 109.797 298.262C110.049 304.952 118.759 310.127 118.885 310.253C119.011 310.38 119.138 310.506 119.138 310.632C119.264 310.758 119.264 311.011 119.138 311.137L116.361 315.934C115.351 317.575 115.351 318.458 115.603 318.711C115.856 318.963 117.623 318.963 119.138 318.08C121.536 316.691 125.07 310.632 125.07 310.632C125.196 310.38 125.575 310.253 125.954 310.38C126.08 310.506 126.206 310.632 126.206 310.885C126.585 313.157 126.585 315.555 126.333 317.827C126.08 318.837 125.701 319.847 125.323 320.73C124.313 323.002 123.177 325.906 123.808 327.673C124.06 328.304 124.439 328.304 124.565 328.304C125.701 328.304 128.1 326.411 130.246 322.498C132.77 317.953 133.654 309.496 133.654 309.37C133.654 308.991 133.78 308.739 134.159 308.613C134.537 308.613 134.79 308.739 134.916 309.117C135.8 311.137 136.304 313.283 136.431 315.555C136.431 316.06 136.431 316.439 136.431 316.944C136.557 320.478 136.178 323.886 135.421 327.294L135.168 328.556C134.411 332.343 133.654 336.004 134.159 336.761C134.159 336.761 134.285 336.887 134.411 336.887C135.673 336.887 137.693 334.868 139.334 329.188C140.849 324.138 141.985 316.944 141.985 316.817C142.363 316.439 142.616 316.186 142.868 316.186Z" fill="#090D73"/>
<path d="M142.868 317.449C142.49 317.449 142.237 317.196 142.237 316.818C142.237 316.818 142.111 310.632 140.091 306.972C139.965 306.719 140.091 306.341 140.344 306.088C140.596 305.962 140.975 305.962 141.227 306.341C143.373 310.254 143.626 316.439 143.626 316.691C143.499 317.196 143.247 317.449 142.868 317.449Z" fill="#090D73"/>
<path d="M134.411 309.876C134.159 309.876 133.78 309.624 133.78 309.371L133.275 306.468C133.275 306.089 133.402 305.837 133.78 305.711C134.159 305.584 134.411 305.837 134.538 306.215L135.042 309.119C135.042 309.497 134.916 309.75 134.538 309.876H134.411Z" fill="#090D73"/>
<path d="M125.702 311.39C125.323 311.39 125.07 311.137 125.07 310.885C124.818 308.486 124.187 306.088 123.303 303.816C123.177 303.437 123.303 303.185 123.556 302.932C123.808 302.806 124.187 302.932 124.439 303.185C125.449 305.583 126.08 308.108 126.333 310.632C126.459 311.011 126.207 311.263 125.702 311.39Z" fill="#090D73"/>
<path d="M118.759 311.138H118.633C118.254 311.011 118.128 310.633 118.254 310.38C119.012 307.982 119.643 305.331 119.643 305.331C119.769 304.952 120.148 304.826 120.4 304.826C120.652 304.826 120.905 305.331 120.905 305.584C120.905 305.584 120.148 308.234 119.516 310.633C119.264 311.011 119.012 311.138 118.759 311.138Z" fill="#090D73"/>
<path d="M145.898 303.816C145.645 303.816 145.519 303.69 145.393 303.564C143.626 301.039 141.732 298.641 139.713 296.495C139.46 296.242 139.46 295.864 139.713 295.611C139.965 295.359 140.344 295.359 140.596 295.611C142.742 297.883 144.636 300.282 146.403 302.932C146.655 303.185 146.529 303.564 146.277 303.816C146.024 303.816 146.024 303.816 145.898 303.816Z" fill="#090D73"/>
<path d="M153.345 296.874L153.976 297.127C158.899 299.399 163.696 302.176 168.114 305.458L232.237 282.863L252.939 219.497L173.163 244.49L164.58 267.842L153.345 296.874Z" fill="white"/>
<path d="M168.114 306.089C167.988 306.089 167.861 306.089 167.735 305.963C163.317 302.681 158.647 300.03 153.724 297.758L153.093 297.506C152.967 297.506 152.84 297.379 152.714 297.127C152.588 297.001 152.588 296.748 152.714 296.622L163.822 267.59L172.406 244.238C172.532 244.111 172.658 243.859 172.784 243.859L252.56 218.74C252.812 218.614 253.065 218.74 253.191 218.866C253.317 218.992 253.444 219.245 253.317 219.497L232.616 282.863C232.616 283.116 232.364 283.242 232.237 283.242L168.114 305.963C168.24 306.089 168.24 306.089 168.114 306.089ZM154.229 296.496C159.152 298.768 163.822 301.545 168.24 304.701L231.733 282.232L251.929 220.255L173.668 244.869L165.084 267.968L154.229 296.496Z" fill="#090D73"/>
<path d="M142.995 357.843C142.868 357.843 142.742 357.843 142.616 357.716C142.49 357.59 129.362 348.123 114.467 336.258C114.215 336.005 114.089 335.627 114.341 335.374C114.593 335.122 114.972 334.996 115.225 335.248C130.119 347.113 143.247 356.58 143.373 356.707C143.626 356.959 143.752 357.338 143.5 357.59C143.373 357.716 143.121 357.843 142.995 357.843Z" fill="#090D73"/>
<path d="M97.1742 338.529C97.0479 338.529 96.9217 338.529 96.7955 338.402C67.2583 320.604 49.8389 304.321 48.3242 274.153C48.3242 273.774 48.5766 273.521 48.9553 273.521C49.334 273.521 49.5864 273.774 49.5864 274.153C51.1012 303.942 67.5107 319.342 97.4266 337.393C97.6791 337.519 97.8053 338.024 97.6791 338.276C97.5528 338.402 97.4266 338.529 97.1742 338.529Z" fill="#090D73"/>
<path d="M214.313 333.227C225.8 332.722 237.287 331.208 248.647 328.809L329.559 399.118C329.559 399.118 355.057 390.156 357.707 369.328C357.707 369.328 275.029 283.241 262.784 282.863C250.54 282.484 238.549 282.863 238.549 282.863" fill="white"/>
<path d="M329.433 399.749C329.306 399.749 329.18 399.749 329.054 399.623L248.395 329.567C237.16 331.965 225.8 333.48 214.313 333.859C213.934 333.859 213.682 333.606 213.682 333.228C213.682 332.849 213.934 332.597 214.313 332.597C225.8 332.092 237.287 330.577 248.521 328.179C248.773 328.179 248.899 328.179 249.026 328.305L329.685 398.361C334.103 396.594 338.395 394.322 342.308 391.418C348.24 387.127 355.562 379.806 356.95 369.455C328.423 339.665 272.125 283.747 262.658 283.368C250.414 282.989 238.549 283.368 238.423 283.368C238.044 283.368 237.791 283.115 237.791 282.863C237.791 282.484 238.044 282.232 238.423 282.232C238.549 282.232 250.54 281.853 262.784 282.232C275.281 282.61 354.804 365.416 358.212 368.95C358.339 369.076 358.465 369.329 358.339 369.455C357.203 378.165 352.027 386.117 343.065 392.681C339.026 395.584 334.482 397.982 329.811 399.876C329.685 399.749 329.559 399.749 329.433 399.749Z" fill="#090D73"/>
<path d="M74.7057 301.924C73.9484 301.671 55.2667 295.234 52.3635 283.873C49.5865 273.27 48.0718 244.743 53.3733 216.973L54.6356 217.225C49.334 244.743 50.8488 273.018 53.6258 283.494C56.4028 294.224 74.9582 300.661 75.2106 300.661L74.7057 301.924Z" fill="#090D73"/>
<path d="M209.39 380.815L236.403 401.264C238.296 402.653 240.947 402.274 242.462 400.507L280.456 350.773C281.971 348.88 281.592 346.103 279.699 344.714C279.573 344.588 279.447 344.462 279.194 344.462L277.932 343.705C277.932 343.705 252.434 328.683 231.985 352.162C231.985 352.162 226.052 366.93 209.39 380.815Z" fill="#3860C6"/>
<path d="M239.054 402.778C237.918 402.778 236.908 402.4 236.024 401.768L208.38 380.941L209.012 380.436C225.295 366.804 231.354 352.035 231.48 351.909L231.606 351.782C252.055 328.178 278.058 343.073 278.31 343.199L279.573 343.956C281.971 345.345 282.855 348.374 281.466 350.646C281.34 350.899 281.214 351.025 281.087 351.151L243.093 400.885C242.083 402.021 240.569 402.778 239.054 402.778ZM210.4 380.815L236.908 400.759C238.549 402.021 240.821 401.642 242.083 400.001L280.078 350.268C281.34 348.627 280.961 346.355 279.32 345.092C279.194 344.966 279.068 344.84 278.942 344.84L277.679 344.083C277.427 343.956 252.434 329.566 232.616 352.287C231.985 353.802 225.8 367.687 210.4 380.815Z" fill="#090D73"/>
<path d="M234.762 399.622C234.636 399.622 234.509 399.622 234.383 399.496C234.131 399.244 234.005 398.865 234.257 398.612L276.417 343.577C276.669 343.325 277.048 343.199 277.301 343.451C277.553 343.704 277.679 344.082 277.427 344.335L235.267 399.496C235.141 399.622 234.888 399.749 234.762 399.622Z" fill="#090D73"/>
<path d="M221.634 390.787C221.256 390.787 221.003 390.535 221.003 390.156C221.003 390.03 221.003 389.903 221.13 389.777C231.985 376.902 245.113 385.233 245.239 385.233C245.618 385.359 245.744 385.738 245.491 386.117C245.365 386.495 244.987 386.622 244.608 386.369C244.608 386.369 244.482 386.369 244.482 386.243C243.977 385.99 232.238 378.543 222.013 390.535C222.013 390.661 221.887 390.787 221.634 390.787Z" fill="#090D73"/>
<path d="M245.87 355.444C245.491 355.444 245.239 355.191 245.239 354.813L243.977 335.752C243.977 335.374 244.229 335.121 244.608 335.121C244.986 335.121 245.239 335.374 245.239 335.752L246.501 354.813C246.501 355.065 246.249 355.444 245.87 355.444Z" fill="#090D73"/>
<path d="M239.432 359.483C239.054 359.483 238.801 359.23 238.801 358.852L237.539 339.791C237.539 339.413 237.791 339.16 238.17 339.16C238.549 339.16 238.801 339.413 238.801 339.791L240.063 358.852C240.063 359.104 239.811 359.483 239.432 359.483Z" fill="#090D73"/>
<path d="M331.452 401.516L349.377 430.296C350.639 432.316 353.29 432.947 355.309 431.685L408.703 398.992C410.723 397.73 411.354 395.079 410.092 393.059C409.966 392.933 409.839 392.68 409.713 392.554L408.703 391.418C408.703 391.418 390.274 368.192 362.757 382.835C362.883 382.835 352.027 394.448 331.452 401.516Z" fill="#3860C6"/>
<path d="M348.493 428.15C348.114 428.15 347.862 427.898 347.862 427.519C347.862 427.267 347.988 427.14 348.114 427.014L407.315 390.787C407.567 390.661 407.946 390.787 408.199 391.039C408.325 391.292 408.199 391.67 407.946 391.797L348.745 428.024C348.745 428.15 348.619 428.15 348.493 428.15Z" fill="#090D73"/>
<path d="M362.883 419.441C362.63 419.441 362.504 419.315 362.378 419.189C361.999 418.684 353.794 407.576 339.909 415.15C339.657 415.276 339.278 415.15 339.026 414.897C338.9 414.645 339.026 414.266 339.278 414.014C354.173 405.935 363.262 418.305 363.388 418.432C363.64 418.684 363.514 419.063 363.262 419.315C363.135 419.441 363.009 419.441 362.883 419.441Z" fill="#090D73"/>
<path d="M374.874 390.914H374.748C374.369 390.788 374.243 390.409 374.369 390.157L380.05 371.854C380.176 371.475 380.555 371.349 380.807 371.475C381.186 371.601 381.312 371.854 381.186 372.232L375.505 390.535C375.379 390.788 375.127 390.914 374.874 390.914Z" fill="#090D73"/>
<path d="M367.301 392.303H367.174C366.796 392.176 366.67 391.798 366.796 391.545L372.476 373.242C372.602 372.864 372.981 372.737 373.233 372.737C373.612 372.864 373.738 373.242 373.738 373.495L367.932 391.798C367.806 392.176 367.553 392.303 367.301 392.303Z" fill="#090D73"/>
<path d="M157.763 270.366L156.501 269.988C158.394 263.171 159.53 237.673 160.035 223.157C160.414 213.059 159.278 202.961 156.753 193.241L153.724 181.628L154.986 181.376L158.016 192.989C160.54 202.835 161.676 213.059 161.298 223.283C160.667 241.082 159.53 263.802 157.763 270.366Z" fill="#090D73"/>
<path d="M93.7659 111.193C89.6004 119.65 76.9777 140.099 76.9777 140.099C73.5695 141.614 69.7827 142.119 65.9959 141.614C62.5877 141.109 59.5583 139.594 57.0337 137.196C48.324 128.991 47.5667 105.513 68.268 93.8999C84.0464 84.9378 92.8823 94.6573 94.5233 103.619C95.0282 106.144 94.7757 108.795 93.7659 111.193Z" fill="white"/>
<path d="M68.7729 142.372C67.7631 142.372 66.8795 142.246 65.996 142.119C62.4616 141.614 59.3059 139.973 56.7813 137.575C52.3634 133.283 50.0913 125.457 51.1011 117.631C51.8585 111.698 55.0142 100.717 68.1418 93.2693C76.7253 88.3464 82.7842 89.3563 86.3185 90.9972C91.7463 93.5218 94.3971 99.0758 95.1545 103.367C95.6594 106.018 95.4069 108.795 94.3971 111.32C90.2316 119.777 77.7351 140.1 77.6089 140.226C77.6089 140.352 77.4826 140.352 77.3564 140.478C74.4532 141.741 71.6762 142.372 68.7729 142.372ZM79.881 90.9972C75.8417 91.1234 71.9286 92.3857 68.5205 94.4054C55.8978 101.6 52.7421 112.203 52.1109 117.884C51.2273 125.331 53.247 132.778 57.4125 136.692C59.8108 138.964 62.714 140.478 65.996 140.983C69.5303 141.488 73.0647 140.983 76.3466 139.595C77.6089 137.575 89.0956 118.893 93.0086 110.941C94.0184 108.669 94.2709 106.144 93.766 103.746C93.1348 99.7069 90.6103 94.6578 85.5612 92.2595C83.794 91.3759 81.9006 90.871 79.881 90.9972Z" fill="#090D73"/>
<path d="M93.7659 111.193C89.6004 119.65 76.9777 140.099 76.9777 140.099C73.5696 141.614 69.7827 142.118 65.9959 141.614C66.2484 125.835 77.8613 106.396 94.5233 103.619C95.0282 106.144 94.7758 108.794 93.7659 111.193Z" fill="#3860C6"/>
<path d="M68.7728 142.372C67.763 142.372 66.8794 142.246 65.9958 142.12C65.7434 142.12 65.4909 141.741 65.4909 141.489C65.7434 125.458 77.6087 105.767 94.5232 102.863C94.9019 102.863 95.1544 102.99 95.2806 103.368C95.7855 106.019 95.533 108.796 94.5232 111.321C90.3577 119.778 77.8612 140.1 77.735 140.227C77.735 140.353 77.6087 140.353 77.4825 140.479C74.5793 141.741 71.6761 142.372 68.7728 142.372ZM66.627 140.984C70.0351 141.363 73.317 140.858 76.4727 139.595C77.735 137.576 89.2217 118.894 93.1347 110.942C94.0183 108.922 94.2708 106.65 93.8921 104.378C78.2399 107.407 67.1319 125.837 66.627 140.984Z" fill="#090D73"/>
<path d="M99.3201 170.267C56.2765 164.587 71.55 131.515 81.9007 116.747C92.2513 101.978 115.225 102.735 115.225 102.735C119.769 97.4339 129.993 96.929 136.431 108.668C140.218 115.737 141.354 123.942 139.46 131.642L99.3201 170.267Z" fill="white"/>
<path d="M99.32 170.898C84.6776 169.005 75.463 163.703 71.8024 155.372C65.491 140.983 77.6089 121.922 81.3957 116.368C91.2414 102.357 112.195 101.978 114.972 101.978C117.497 99.3275 121.031 98.0652 124.565 98.4439C129.488 98.9488 133.906 102.483 136.936 108.163C140.849 115.358 141.985 123.689 139.965 131.642C139.965 131.768 139.839 131.894 139.839 131.894L99.6987 170.646C99.5724 170.898 99.4462 170.898 99.32 170.898ZM114.846 103.241C111.816 103.241 91.7463 103.745 82.4055 116.999C78.6187 122.301 66.8795 140.983 72.9385 154.741C76.4728 162.694 85.1825 167.616 99.0675 169.51L138.829 131.137C140.47 123.563 139.46 115.611 135.8 108.795C132.896 103.367 128.857 100.211 124.313 99.7061C121.031 99.3275 117.749 100.59 115.603 102.988C115.477 103.114 115.351 103.241 115.098 103.241H114.846Z" fill="#090D73"/>
<path d="M96.6693 157.266C97.8053 167.742 98.0578 179.987 98.0578 179.987C98.0578 179.987 102.097 189.327 112.448 188.696C122.798 188.065 121.789 179.229 121.41 177.462C121.031 175.695 118.759 170.015 118.254 168.121C117.749 166.228 96.6693 157.266 96.6693 157.266Z" fill="white"/>
<path d="M111.312 189.455C101.466 189.455 97.4267 180.492 97.4267 180.366C97.4267 180.24 97.4267 180.24 97.4267 180.114C97.4267 179.988 97.1742 167.743 96.0381 157.393C96.0381 157.14 96.1644 156.888 96.2906 156.762C96.5431 156.635 96.6693 156.635 96.9218 156.762C103.359 159.412 118.254 165.976 118.885 167.996C119.138 168.753 119.643 170.142 120.148 171.53C120.905 173.424 121.536 175.317 122.041 177.337C122.672 180.24 122.041 183.396 120.274 185.794C118.633 187.94 115.982 189.076 112.448 189.328C112.069 189.328 111.69 189.455 111.312 189.455ZM98.6889 179.861C99.1938 180.871 103.107 188.697 112.448 188.066C115.603 187.814 118.002 186.804 119.39 185.037C120.905 182.891 121.41 180.114 120.905 177.589C120.4 175.696 119.769 173.802 119.012 172.035C118.507 170.52 117.876 169.132 117.749 168.375C117.118 167.239 107.146 162.442 97.5529 158.403C98.3103 167.87 98.6889 178.599 98.6889 179.861Z" fill="#090D73"/>
<path d="M134.285 120.534C134.285 120.534 148.801 145.4 140.218 158.402C131.634 171.403 103.864 174.938 92.3774 158.654C92.3774 158.654 88.0856 165.976 82.153 160.295C76.2203 154.615 80.7645 146.41 88.843 148.177C88.843 148.177 90.2315 140.351 102.728 133.03C110.049 128.865 116.234 122.932 120.526 115.863C120.652 115.863 124.06 120.155 134.285 120.534Z" fill="white"/>
<path d="M115.603 170.268C105.884 170.268 97.5529 166.481 92.5038 159.918C91.3677 161.559 89.6005 162.821 87.5809 163.2C85.435 163.452 83.2892 162.568 81.9007 160.927C78.9974 158.15 78.2401 154.49 79.881 151.334C81.522 148.178 84.8039 146.916 88.5907 147.547C89.2218 145.528 91.8726 138.838 102.602 132.653C109.797 128.613 115.856 122.807 120.274 115.738C120.4 115.486 120.526 115.359 120.779 115.359C121.031 115.359 121.157 115.486 121.284 115.612C121.284 115.612 124.692 119.525 134.537 119.904C134.79 119.904 134.916 120.03 135.042 120.156C137.567 124.7 139.587 129.497 141.228 134.42C144.636 145.023 144.509 153.228 140.849 158.782C136.305 165.598 126.711 170.016 116.361 170.268H115.603ZM92.3775 158.15C92.63 158.15 92.7562 158.277 92.8824 158.403C97.8053 165.345 106.263 169.132 116.108 169.006C125.954 168.88 135.295 164.588 139.587 158.15C147.413 146.285 135.421 124.069 133.906 121.166C125.954 120.787 122.167 118.263 120.779 117C116.361 123.943 110.302 129.749 103.107 133.789C90.989 140.857 89.4743 148.431 89.4743 148.431C89.4743 148.557 89.3481 148.81 89.2218 148.81C89.0956 148.936 88.8432 148.936 88.7169 148.936C85.3088 148.179 82.1531 149.315 80.7646 151.965C79.6286 153.985 79.6286 157.141 82.658 160.044C83.7941 161.432 85.5613 162.064 87.3284 161.937C90.1054 161.559 91.8726 158.529 91.8726 158.529C91.9989 158.277 92.1251 158.15 92.3775 158.15Z" fill="#090D73"/>
<path d="M112.7 138.08C111.943 138.206 111.185 138.333 110.428 138.459C109.67 138.585 108.913 138.711 108.156 138.964C106.641 139.342 105.252 139.847 103.612 140.352C103.233 140.478 102.854 140.226 102.854 139.974C102.728 139.721 102.854 139.469 102.98 139.342C103.612 138.711 104.369 138.206 105.126 137.828C106.641 137.07 108.408 136.565 110.175 136.565C111.059 136.565 111.943 136.692 112.826 136.944C113.205 137.07 113.331 137.449 113.205 137.701C113.205 137.828 112.952 138.08 112.7 138.08Z" fill="#090D73"/>
<path d="M135.168 129.37C134.411 129.623 133.401 129.875 132.644 130.254L130.119 131.264C128.478 131.895 126.837 132.652 125.07 133.283C124.691 133.41 124.439 133.283 124.313 132.905C124.187 132.652 124.313 132.4 124.439 132.147C125.196 131.516 125.954 131.011 126.837 130.506C127.721 130.002 128.605 129.623 129.488 129.244C130.372 128.865 131.382 128.613 132.265 128.487C133.275 128.234 134.159 128.234 135.168 128.234C135.547 128.234 135.799 128.487 135.799 128.866C135.799 129.118 135.547 129.37 135.295 129.497L135.168 129.37Z" fill="#090D73"/>
<path d="M128.983 148.557C126.964 148.557 125.196 147.295 124.692 145.401C124.565 145.023 124.818 144.77 125.196 144.644C125.575 144.518 125.828 144.77 125.954 145.149C126.459 146.664 127.973 147.547 129.488 147.295C130.624 147.169 131.382 146.285 131.255 145.149V145.023C131.255 144.518 131.003 144.013 130.624 143.634C129.488 143.129 128.1 143.003 126.837 143.255C126.459 143.382 126.206 143.129 126.08 142.877C125.196 139.595 124.565 136.187 124.187 132.779C124.187 132.4 124.439 132.147 124.692 132.147C125.07 132.147 125.323 132.4 125.449 132.652C125.701 135.808 126.332 138.838 127.09 141.993C128.478 141.741 129.993 141.993 131.255 142.624C132.013 143.129 132.391 144.013 132.391 144.896C132.644 146.664 131.382 148.305 129.614 148.557C129.614 148.557 129.614 148.557 129.488 148.557C129.362 148.557 129.236 148.557 128.983 148.557Z" fill="#090D73"/>
<path d="M108.913 145.402C109.544 146.916 110.807 147.926 111.943 147.547C113.079 147.169 113.457 145.528 112.826 144.013C112.7 143.508 112.448 143.129 112.069 142.751L110.554 144.518V141.867C110.302 141.867 110.049 141.867 109.671 141.993C108.787 142.246 108.282 143.887 108.913 145.402Z" fill="#090D73"/>
<path d="M130.372 137.448C131.003 138.963 132.265 139.973 133.401 139.594C134.537 139.216 134.916 137.575 134.285 136.06C134.159 135.555 133.906 135.176 133.528 134.798L132.013 136.565V133.914C131.76 133.788 131.508 133.788 131.129 133.914C130.246 134.166 129.867 135.807 130.372 137.448Z" fill="#090D73"/>
<path d="M123.177 158.402C121.41 158.276 119.769 157.392 118.885 155.751C118.759 155.499 118.885 155.12 119.138 154.868C119.39 154.741 119.769 154.741 119.895 154.994C120.526 156.13 121.789 157.013 123.177 157.013C124.944 156.761 126.459 155.751 127.216 154.236C127.469 153.984 127.847 153.858 128.1 154.11C128.352 154.363 128.479 154.741 128.226 154.994C126.838 157.266 125.07 158.402 123.177 158.402Z" fill="#090D73"/>
<path d="M82.5316 156.382C82.1529 156.382 81.9005 156.003 81.9005 155.751C81.9005 154.362 82.5316 153.226 83.5414 152.342C84.9299 151.459 86.5709 151.08 88.2118 151.333C88.5905 151.333 88.843 151.711 88.7167 152.09C88.5905 152.469 88.3381 152.721 87.9594 152.595C86.6971 152.342 85.4348 152.721 84.2988 153.352C83.5414 153.983 83.1627 154.867 83.1627 155.877C83.1627 156.129 82.9103 156.382 82.5316 156.382Z" fill="#090D73"/>
<path d="M87.5809 159.412C86.4449 159.412 85.4351 158.781 84.8039 157.897C83.6679 156.382 83.163 154.615 83.2892 152.722C83.4154 152.343 83.6679 152.217 84.0466 152.217C84.4252 152.343 84.5515 152.595 84.5515 152.974C84.4252 154.489 84.9302 155.877 85.8137 157.14C86.3187 157.771 86.9498 158.149 87.7072 158.149C88.0858 158.149 88.3383 158.402 88.3383 158.781C88.3383 159.159 88.0858 159.412 87.5809 159.412Z" fill="#090D73"/>
<path d="M190.709 47.9536C187.806 48.3323 185.029 46.3127 184.65 43.4094L184.524 42.5258C184.271 40.38 184.397 38.2341 184.902 36.2145C185.407 34.1948 186.417 32.3014 187.553 30.6605C188.815 29.0195 190.456 27.631 192.224 26.6212C196.263 24.2229 201.059 23.7179 205.604 25.1065C207.876 25.8638 209.895 27.1261 211.536 28.767C212.294 29.6506 213.051 30.408 213.556 31.1654C214.187 31.9227 214.692 32.8063 215.071 33.6899C215.954 36.0882 216.585 38.4866 216.838 41.0111C217.09 42.7783 217.343 44.293 217.469 45.5553C217.595 46.5651 217.721 47.7011 217.595 48.8372C217.595 49.5946 217.469 50.4782 217.469 51.2355C217.343 51.8667 217.217 52.4978 216.838 53.1289L211.41 66.3828C211.031 67.2664 210.779 68.15 210.526 69.1598C210.274 70.0434 210.274 71.0532 210.4 71.9368L210.779 74.9663C211.158 77.8695 209.138 80.6465 206.235 81.0252C203.332 81.4039 200.554 79.3842 200.176 76.481L199.545 72.063C199.292 70.5483 199.418 69.0336 199.671 67.5188C199.923 66.0041 200.428 64.6156 200.933 63.2271L206.109 51.488C206.487 50.4782 206.74 49.4683 206.74 48.4585C206.74 47.4487 206.74 46.3127 206.613 45.3028L205.856 39.7488C205.73 38.2341 204.846 36.9718 203.71 36.0882C202.953 35.5833 202.069 35.2046 201.186 35.0784C199.418 34.9522 197.651 35.5833 196.389 36.9718C195.253 38.1079 194.874 39.6226 195.127 41.1373L195.253 41.8947C195.505 44.9241 193.486 47.5749 190.709 47.9536C190.583 48.0798 190.583 48.0798 190.709 47.9536ZM202.7 94.6577C202.322 91.7545 204.341 88.9775 207.245 88.5988C210.148 88.2201 212.925 90.2398 213.303 93.143C213.682 96.0462 211.663 98.8232 208.759 99.2019C205.856 99.7068 203.079 97.6872 202.7 94.6577Z" fill="white"/>
<path d="M208.002 99.9593C204.972 99.9593 202.448 97.8135 202.069 94.784C201.564 91.5021 203.836 88.4726 207.118 87.9677C210.4 87.4628 213.43 89.7349 213.934 93.0168C214.439 96.2987 212.167 99.3282 208.885 99.8331C208.507 99.9593 208.254 99.9593 208.002 99.9593ZM208.002 89.23C207.749 89.23 207.497 89.23 207.371 89.23C204.846 89.6087 202.953 92.007 203.331 94.5315C203.71 97.0561 206.108 98.9495 208.759 98.5708C211.284 98.1921 213.177 95.7938 212.798 93.143C212.672 91.8808 211.915 90.8709 211.031 90.1136C210.021 89.6087 209.012 89.23 208.002 89.23ZM205.351 81.6563C202.322 81.6563 199.797 79.5105 199.418 76.481L198.787 72.0631C198.535 70.5483 198.661 68.9074 198.913 67.3927C199.166 65.8779 199.671 64.3632 200.302 62.9747L205.477 51.2355C205.856 50.352 206.108 49.3421 206.108 48.4585C206.108 47.4487 206.108 46.4389 205.982 45.4291L205.225 39.8751C205.099 38.6128 204.341 37.3505 203.331 36.5932C202.7 36.0883 201.943 35.8358 201.185 35.7096C199.545 35.5834 198.03 36.2145 196.894 37.3505C196.01 38.3603 195.631 39.7489 195.884 41.0111L196.01 41.7685C196.515 45.0504 194.243 48.0799 190.961 48.5848C187.679 49.0897 184.65 46.8176 184.145 43.5357L184.019 42.6521C183.64 40.5062 183.892 38.2341 184.397 36.0883C184.902 33.9424 185.912 32.049 187.174 30.2818C188.563 28.6408 190.204 27.1261 191.971 26.1163C196.136 23.5917 201.185 23.0868 205.856 24.4753C208.128 25.2327 210.274 26.495 212.041 28.2622C212.798 29.0195 213.556 29.9031 214.187 30.7867C214.818 31.5441 215.323 32.4277 215.702 33.4375C216.585 35.8358 217.216 38.3604 217.343 40.8849C217.595 42.6521 217.848 44.1668 217.974 45.4291C218.1 46.5651 218.1 47.5749 218.1 48.711C218.1 49.5946 217.974 50.352 217.847 51.2355C217.721 51.9929 217.469 52.6241 217.216 53.3814L211.789 66.6353C211.41 67.5189 211.157 68.4025 210.905 69.2861C210.653 70.1697 210.653 70.927 210.779 71.8106L211.157 74.8401C211.41 76.3548 211.031 77.9958 210.021 79.258C209.012 80.5203 207.623 81.4039 206.108 81.5301C205.982 81.6564 205.603 81.6563 205.351 81.6563ZM200.554 34.4473H201.185C202.195 34.5735 203.205 34.9522 203.962 35.5833C205.351 36.5932 206.235 37.9817 206.361 39.6226L207.118 45.1766C207.244 46.3127 207.371 47.3225 207.244 48.4585C207.244 49.5946 206.992 50.7306 206.487 51.7405L201.312 63.4796C200.807 64.8681 200.302 66.2566 200.049 67.6451C199.797 69.0336 199.671 70.5483 199.923 71.9368L200.554 76.3548C200.933 78.8793 203.331 80.7727 205.856 80.3941C208.38 80.0154 210.274 77.6171 209.895 75.0925L209.516 72.0631C209.39 71.0532 209.39 70.0434 209.643 69.0336C209.895 68.0238 210.148 67.1402 210.526 66.2566L215.954 52.8765C216.207 52.2454 216.333 51.7405 216.459 51.1093C216.585 50.352 216.585 49.5946 216.585 48.8372C216.585 47.8274 216.585 46.6914 216.459 45.6815C216.333 44.4193 216.08 42.9045 215.828 41.1374C215.575 38.739 214.944 36.3407 214.061 33.9424C213.682 33.0588 213.177 32.3014 212.672 31.5441C212.167 30.7867 211.41 30.0293 210.653 29.1457C209.138 27.5048 207.118 26.3688 204.972 25.7376C202.7 24.9802 200.302 24.854 198.03 25.2327C196.01 25.4852 193.991 26.2425 192.223 27.2523C190.456 28.2622 188.941 29.6507 187.805 31.1654C186.543 32.8063 185.66 34.5735 185.155 36.4669C184.65 38.4866 184.523 40.5062 184.776 42.5259L184.902 43.4094C185.281 45.934 187.805 47.7012 190.33 47.3225C192.854 46.9438 194.495 44.6717 194.243 42.1472L194.117 41.3898C193.738 39.6226 194.243 37.8554 195.505 36.5932C197.02 35.2047 198.787 34.4473 200.554 34.4473Z" fill="#090D73"/>
<path d="M228.577 57.6738C226.683 57.1689 225.547 55.1493 226.052 53.2559L226.179 52.751C226.557 51.3625 227.188 50.1002 228.072 48.9642C228.956 47.8281 229.965 46.9445 231.228 46.3134C232.49 45.6822 233.752 45.1773 235.141 45.0511C238.296 44.6724 241.452 45.6822 243.724 47.7019C244.86 48.7117 245.744 49.974 246.375 51.4887C246.627 52.1198 246.88 52.8772 247.006 53.5083C247.132 54.1395 247.259 54.7706 247.259 55.4018C247.132 57.0427 246.88 58.6837 246.375 60.3246C245.996 61.4607 245.744 62.4705 245.491 63.2278C245.239 63.859 244.986 64.6163 244.734 65.2475C244.482 65.7524 244.229 66.2573 243.977 66.636C243.724 67.0147 243.472 67.3934 243.093 67.6458L236.151 74.3359C235.646 74.8408 235.267 75.2194 234.888 75.7244C234.51 76.2293 234.257 76.8604 234.005 77.3653L233.5 79.3849C232.995 81.2784 230.975 82.4144 229.082 81.9095C227.188 81.4046 226.052 79.385 226.557 77.4915L227.315 74.7145C227.567 73.7047 227.946 72.8211 228.577 72.0638C229.208 71.1802 229.839 70.4228 230.47 69.7917L236.782 63.9852C237.287 63.4803 237.791 62.9754 238.044 62.3443C238.296 61.7131 238.549 61.082 238.801 60.3246L239.811 56.7903C240.064 55.9067 239.937 54.7706 239.432 54.0133C239.18 53.5083 238.675 53.0034 238.17 52.751C237.16 52.1198 235.898 52.1198 234.762 52.6247C233.752 53.0034 233.121 53.887 232.869 54.8968L232.742 55.4018C232.49 57.1689 230.597 58.305 228.577 57.6738C228.703 57.8001 228.703 57.8001 228.577 57.6738ZM223.402 89.4831C223.906 87.5897 225.926 86.4537 227.82 86.9586C229.713 87.4635 230.849 89.4831 230.344 91.3765C229.839 93.27 227.82 94.406 225.926 93.9011C223.906 93.3962 222.77 91.3765 223.402 89.4831C223.275 89.4831 223.275 89.4831 223.402 89.4831Z" fill="white"/>
<path d="M226.81 94.6577C226.431 94.6577 226.052 94.6576 225.674 94.5314C223.402 93.9003 222.139 91.6282 222.77 89.3561C223.402 87.084 225.674 85.8217 227.946 86.4529C230.218 87.084 231.48 89.3561 230.849 91.6282C230.344 93.3954 228.703 94.6577 226.81 94.6577ZM223.906 89.6086C223.402 91.1233 224.411 92.7642 225.926 93.2691C227.441 93.7741 229.082 92.7643 229.587 91.2495C230.092 89.7348 229.082 88.0938 227.567 87.5889C226.052 87.084 224.411 87.9676 223.906 89.6086ZM230.092 82.6661C229.713 82.6661 229.334 82.666 228.956 82.5398C226.683 81.9087 225.421 79.6366 226.052 77.3645L226.81 74.5875C227.062 73.5777 227.567 72.5679 228.198 71.6843C228.829 70.8007 229.46 70.0433 230.218 69.286L236.529 63.4795C237.034 63.1008 237.413 62.5959 237.665 61.9648C237.918 61.3336 238.17 60.7025 238.423 60.0714L239.432 56.537C239.685 55.7796 239.559 54.896 239.18 54.2649C238.928 53.8862 238.549 53.5075 238.17 53.2551C237.287 52.7502 236.277 52.7502 235.267 53.1288C234.51 53.5075 234.005 54.1387 233.752 55.0223L233.626 55.5272C232.995 57.7993 230.723 59.0615 228.451 58.4304C226.179 57.7993 224.916 55.5272 225.547 53.2551L225.674 52.7502C226.052 51.3617 226.81 49.9732 227.693 48.8371C228.577 47.7011 229.713 46.6912 230.975 46.0601C232.237 45.429 233.626 44.9241 235.141 44.7978C238.423 44.4192 241.705 45.429 244.229 47.5748C245.491 48.7109 246.375 50.0994 247.006 51.6141C247.259 52.2453 247.511 53.0026 247.637 53.76C247.763 54.3911 247.89 55.1485 247.89 55.7796C247.763 57.5468 247.511 59.1878 247.006 60.8287C246.627 61.9648 246.375 62.9746 246.122 63.7319C245.87 64.4893 245.618 65.1204 245.365 65.8778C245.113 66.3827 244.86 66.8876 244.608 67.3925C244.355 67.7712 243.977 68.1499 243.598 68.5286L236.655 75.2186C236.151 75.5973 235.772 76.1022 235.393 76.6071C235.014 76.9858 234.762 77.4907 234.636 78.1219L234.131 80.1415C233.626 81.4038 231.985 82.6661 230.092 82.6661ZM236.655 51.4879C237.413 51.4879 238.044 51.7403 238.675 51.9928C239.306 52.3715 239.811 52.8764 240.19 53.5075C240.821 54.5173 240.947 55.6534 240.568 56.7894L239.559 60.3238C239.306 61.0812 239.054 61.7123 238.801 62.3434C238.423 63.1008 238.044 63.7319 237.413 64.2369L231.101 70.0433C230.47 70.6745 229.839 71.4318 229.208 72.1892C228.703 72.9465 228.324 73.8301 228.072 74.7137L227.315 77.4907C226.81 79.0055 227.693 80.6464 229.208 81.1513H229.334C230.849 81.6562 232.49 80.6464 232.995 79.1317L233.5 77.112C233.626 76.4809 234.005 75.7235 234.51 75.2186C234.888 74.7137 235.393 74.2088 235.898 73.7039L242.841 67.0139C243.093 66.7614 243.345 66.3827 243.598 66.1303C243.85 65.7516 244.103 65.2467 244.355 64.7418C244.608 64.1106 244.86 63.4795 245.113 62.8484C245.365 62.091 245.618 61.0812 245.996 59.9451C246.501 58.4304 246.754 56.7894 246.88 55.1485C246.88 54.5173 246.754 54.0124 246.627 53.3813C246.501 52.7502 246.249 52.119 245.996 51.3617C245.491 49.9732 244.608 48.8371 243.598 47.8273C241.326 45.9339 238.423 44.9241 235.519 45.3027C234.257 45.429 232.995 45.8077 231.859 46.4388C230.723 47.0699 229.713 47.9535 228.829 48.9633C227.946 49.9732 227.315 51.2354 227.062 52.4977L226.936 53.0026C226.431 54.5173 227.441 56.1583 228.956 56.6632C230.47 57.1681 232.111 56.1583 232.616 54.6436L232.742 54.1387C232.995 53.0026 233.878 51.9928 235.014 51.4879C235.393 51.6141 236.024 51.4879 236.655 51.4879Z" fill="#090D73"/>
<path d="M166.094 74.9663C164.453 76.1023 162.307 75.8499 161.045 74.2089L160.667 73.704C159.783 72.568 159.278 71.3057 158.899 69.9172C158.521 68.5287 158.521 67.1402 158.773 65.7517C159.026 64.3632 159.53 63.1009 160.162 61.9649C160.919 60.7026 161.929 59.6928 163.065 58.8092C164.327 57.7994 165.842 57.1682 167.483 56.7895C168.998 56.5371 170.638 56.6633 172.027 57.042C172.784 57.2945 173.415 57.5469 174.047 57.7994C174.678 58.0518 175.183 58.4305 175.688 58.8092C176.95 59.9452 178.086 61.2075 178.969 62.596C179.727 63.6058 180.232 64.3632 180.737 65.1206C181.115 65.7517 181.494 66.2566 181.873 66.8877C182.125 67.3926 182.378 67.8976 182.504 68.4025C182.63 68.7811 182.756 69.2861 182.756 69.6647L183.766 79.258C183.892 79.8892 183.892 80.5203 184.145 81.1514C184.271 81.7826 184.65 82.2875 184.902 82.9186L186.164 84.5596C187.301 86.2005 187.048 88.3464 185.407 89.6087C183.892 90.7447 181.62 90.4922 180.358 88.8513L178.591 86.453C177.96 85.6956 177.581 84.6858 177.202 83.8022C176.95 82.7924 176.697 81.9088 176.571 80.899L175.814 72.3155C175.814 71.5582 175.688 70.8008 175.309 70.0434C175.056 69.4123 174.678 68.7811 174.173 68.2762L171.901 65.2468C171.27 64.4894 170.512 63.9845 169.502 63.8583C168.871 63.732 168.24 63.8583 167.735 64.1107C166.599 64.6156 165.842 65.6255 165.589 66.7615C165.337 67.7713 165.589 68.7811 166.221 69.6647L166.473 70.0434C168.114 71.4319 167.735 73.704 166.094 74.9663C166.221 74.9663 166.221 74.9663 166.094 74.9663ZM188.058 98.5708C186.922 97.0561 187.174 94.784 188.689 93.5217C190.33 92.3857 192.476 92.6381 193.738 94.2791C194.874 95.92 194.622 98.0659 192.981 99.3282C191.466 100.464 189.194 100.212 188.058 98.5708Z" fill="white"/>
<path d="M190.835 100.59C190.582 100.59 190.456 100.59 190.204 100.59C189.068 100.464 188.058 99.8327 187.427 98.9491C186.038 97.0557 186.417 94.4049 188.31 93.0164C190.204 91.6279 192.854 92.0066 194.243 93.9C194.874 94.7836 195.253 95.9196 195 97.0557C194.748 99.0753 192.981 100.59 190.835 100.59ZM190.835 93.5213C190.204 93.5213 189.572 93.7738 189.068 94.1525C187.805 95.1623 187.427 96.9295 188.436 98.318C189.446 99.5802 191.213 99.9589 192.602 98.9491C193.864 97.9393 194.243 96.1721 193.233 94.7836C192.728 94.1525 192.097 93.7738 191.34 93.6475C191.087 93.5213 190.961 93.5213 190.835 93.5213ZM183.514 90.7443C182.125 90.7443 180.863 90.1132 180.105 88.9771L178.338 86.5788C177.707 85.6952 177.202 84.8116 176.95 83.6756C176.697 82.6658 176.445 81.6559 176.319 80.6461L175.561 72.0627C175.561 71.4315 175.309 70.8004 175.056 70.2955C174.804 69.6643 174.425 69.1594 174.046 68.6545L171.901 65.6251C171.396 64.9939 170.765 64.489 169.881 64.3628C169.376 64.2366 168.871 64.3628 168.492 64.489C167.609 64.8677 166.852 65.7513 166.725 66.7611C166.473 67.5185 166.725 68.4021 167.23 69.0332L167.483 69.4119C168.871 71.3053 168.492 73.9561 166.599 75.3446C164.706 76.7331 162.055 76.3544 160.666 74.461L160.288 73.9561C159.404 72.6938 158.773 71.4315 158.394 69.9168C158.016 68.5283 158.016 67.0136 158.268 65.4988C158.52 64.1103 159.025 62.7218 159.783 61.4596C161.55 58.6826 164.327 56.7892 167.483 56.158C169.124 55.9056 170.765 55.9056 172.406 56.4105C173.163 56.6629 173.92 56.9154 174.425 57.1678C175.056 57.4203 175.687 57.799 176.192 58.3039C177.455 59.4399 178.717 60.7022 179.727 62.0907C180.484 63.1005 180.989 63.8579 181.494 64.6152C181.873 65.2464 182.251 65.8775 182.63 66.5087C182.882 67.0136 183.135 67.5185 183.261 68.0234C183.387 68.5283 183.514 69.0332 183.514 69.5381L184.523 79.0052C184.65 79.6363 184.65 80.2674 184.776 80.7724C184.902 81.2773 185.154 81.7822 185.533 82.2871L186.795 83.928C188.184 85.8215 187.805 88.4722 185.912 89.8607C185.407 90.3656 184.523 90.7443 183.514 90.7443ZM169.376 63.2267C169.629 63.2267 169.755 63.2267 170.007 63.2267C171.143 63.353 172.153 63.9841 172.784 64.8677L175.056 67.8972C175.435 68.5283 175.94 69.1594 176.192 69.7906C176.571 70.5479 176.823 71.3053 176.823 72.0627L177.581 80.6461C177.707 81.6559 177.833 82.5395 178.212 83.4231C178.464 84.3067 178.969 85.1903 179.474 85.9477L181.241 88.346C182.251 89.6083 184.145 89.7345 185.407 88.7247C186.543 87.7149 186.795 86.0739 186.038 84.8116L184.776 83.1707C184.397 82.5395 184.018 81.9084 183.892 81.2773C183.766 80.6461 183.64 80.015 183.514 79.2576L182.504 69.6643C182.504 69.2857 182.377 68.907 182.251 68.5283C182.125 68.0234 181.873 67.6447 181.62 67.1398C181.241 66.5087 180.989 65.8775 180.484 65.3726L178.717 62.8481C177.833 61.4596 176.697 60.3235 175.435 59.3137C174.93 58.935 174.425 58.6826 173.92 58.4301C173.289 58.1777 172.658 57.9252 172.027 57.6727C170.638 57.2941 169.124 57.1678 167.735 57.4203C164.832 57.9252 162.307 59.6924 160.919 62.2169C160.288 63.353 159.783 64.6152 159.53 65.8775C159.404 67.1398 159.404 68.5283 159.657 69.7906C159.909 71.0529 160.54 72.3151 161.298 73.3249L161.676 73.8299C162.181 74.461 162.812 74.8397 163.57 74.9659C164.327 75.0921 165.084 74.8397 165.715 74.461C166.347 73.9561 166.725 73.3249 166.852 72.5676C166.978 71.8102 166.725 71.0529 166.347 70.4217L166.094 70.043C165.337 69.0332 165.084 67.7709 165.337 66.6349C165.715 65.2464 166.599 64.1103 167.861 63.6054C168.366 63.2268 168.871 63.1005 169.376 63.2267Z" fill="#090D73"/>
</svg>
