<svg width="340" height="221" viewBox="0 0 340 221" fill="none" xmlns="http://www.w3.org/2000/svg">
<path d="M257.361 1.31445H1.30566V150.008H257.361V1.31445Z" fill="#4986D7"/>
<path d="M257.278 150.59H1.30528C0.972628 150.59 0.723145 150.341 0.723145 150.008V1.31457C0.723145 0.981918 0.972628 0.732422 1.30528 0.732422H257.361C257.694 0.732422 257.943 0.981918 257.943 1.31457V150.008C257.86 150.341 257.611 150.59 257.278 150.59ZM1.80425 149.426H256.779V1.81353H1.80425V149.426Z" fill="#3767A6"/>
<path d="M52.3669 36.4922H17.522V66.7632H52.3669V36.4922Z" fill="white"/>
<path d="M52.3665 67.2614H17.5216C17.1889 67.2614 16.9395 67.0119 16.9395 66.6793V36.4083C16.9395 36.0757 17.1889 35.8262 17.5216 35.8262H52.3665C52.6991 35.8262 52.8654 36.0757 52.9486 36.4083V66.6793C52.8654 67.0119 52.616 67.2614 52.3665 67.2614ZM18.0206 66.1803H51.7843V36.9904H18.0206V66.1803Z" fill="#3767A6"/>
<path d="M52.3679 67.2617C52.2015 67.2617 52.1184 67.1785 52.0352 67.0954L43.22 59.694C43.0537 59.6108 43.0537 59.4445 43.0537 59.2781V44.1427C43.0537 43.9763 43.1369 43.81 43.22 43.7268L52.0352 35.9928C52.2015 35.7433 52.5342 35.7433 52.7837 35.9928C52.95 36.2423 52.95 36.5749 52.7837 36.7412L44.1348 44.309V59.0287L52.7837 66.2637C53.0331 66.4301 53.0331 66.7627 52.8668 67.0122C52.7005 67.1785 52.5342 67.1785 52.3679 67.2617Z" fill="#3767A6"/>
<path d="M17.522 67.2624C17.3556 67.2624 17.1893 67.1792 17.1062 67.096C16.9398 66.8465 16.9398 66.5139 17.1893 66.3476L25.8382 59.1125V44.476L17.1893 36.9082C16.9398 36.7419 16.9398 36.3261 17.1062 36.1598C17.3556 35.9103 17.6883 35.9103 17.8546 36.1598L26.6698 43.8938C26.7529 43.977 26.8361 44.1433 26.8361 44.3097V59.4451C26.8361 59.6115 26.7529 59.7778 26.6698 59.8609L17.8546 67.2624C17.7714 67.2624 17.6051 67.2624 17.522 67.2624Z" fill="#3767A6"/>
<path d="M52.616 44.7248H17.5216C17.1889 44.7248 16.9395 44.4753 16.9395 44.1427C16.9395 43.81 17.1889 43.5605 17.5216 43.5605H52.616C52.9486 43.5605 53.1981 43.81 53.1981 44.1427C53.1981 44.4753 52.9486 44.7248 52.616 44.7248Z" fill="#3767A6"/>
<path d="M52.3666 59.8606H17.1891C16.8564 59.8606 16.6901 59.6111 16.6069 59.2784C16.6069 58.9458 16.8564 58.6963 17.1891 58.6963H52.3666C52.6992 58.6963 52.9487 58.9458 52.9487 59.2784C52.8656 59.6111 52.6161 59.8606 52.3666 59.8606Z" fill="#3767A6"/>
<path d="M52.3666 52.1262H17.1891C16.8564 52.1262 16.6901 51.8767 16.6069 51.544C16.6069 51.2114 16.8564 50.9619 17.1891 50.9619H52.3666C52.6992 50.9619 52.9487 51.2114 52.9487 51.544C52.8656 51.8767 52.6161 52.1262 52.3666 52.1262Z" fill="#3767A6"/>
<path d="M35.0694 67.2614C34.7368 67.2614 34.4873 67.0119 34.4873 66.6793V36.4083C34.4873 36.0757 34.7368 35.8262 35.0694 35.8262C35.4021 35.8262 35.6516 36.0757 35.6516 36.4083V66.6793C35.6516 67.0119 35.4021 67.2614 35.0694 67.2614Z" fill="#3767A6"/>
<path d="M22.678 100.111H59.3525C62.18 100.111 64.5085 102.44 64.5085 105.267V107.18C64.5085 110.008 62.18 112.336 59.3525 112.336H22.678C19.8505 112.336 17.522 110.008 17.522 107.18V105.267C17.522 102.44 19.8505 100.111 22.678 100.111Z" fill="white"/>
<path d="M59.3521 112.834H22.6776C19.5175 112.834 17.0226 110.256 16.9395 107.096V105.183C16.9395 102.023 19.5175 99.4453 22.6776 99.4453H59.3521C62.5122 99.4453 65.0903 102.023 65.0903 105.183V107.096C65.0903 110.34 62.5122 112.834 59.3521 112.834ZM22.6776 100.61C20.0996 100.61 18.0206 102.689 18.0206 105.267V107.179C18.0206 109.757 20.0996 111.836 22.6776 111.836H59.3521C61.9301 111.836 64.0091 109.757 64.0091 107.179V105.267C64.0091 102.689 61.9301 100.61 59.3521 100.61H22.6776Z" fill="#3767A6"/>
<path d="M77.6477 100.111H114.322C117.15 100.111 119.478 102.44 119.478 105.267V107.18C119.478 110.008 117.15 112.336 114.322 112.336H77.6477C74.8202 112.336 72.4917 110.008 72.4917 107.18V105.267C72.4917 102.44 74.8202 100.111 77.6477 100.111Z" fill="white"/>
<path d="M114.322 112.834H77.6478C74.4877 112.834 71.9097 110.256 71.9097 107.096V105.183C71.9097 102.023 74.4877 99.4453 77.6478 99.4453H114.322C117.482 99.4453 120.06 102.023 120.06 105.183V107.096C120.06 110.34 117.482 112.834 114.322 112.834ZM77.6478 100.61C75.0698 100.61 72.9908 102.689 72.9908 105.267V107.179C72.9908 109.757 75.0698 111.836 77.6478 111.836H114.322C116.9 111.836 118.979 109.757 118.979 107.179V105.267C118.979 102.689 116.9 100.61 114.322 100.61H77.6478Z" fill="#3767A6"/>
<path d="M132.618 100.111H196.986C199.813 100.111 202.142 102.44 202.142 105.267V107.18C202.142 110.008 199.813 112.336 196.986 112.336H132.618C129.791 112.336 127.462 110.008 127.462 107.18V105.267C127.462 102.44 129.791 100.111 132.618 100.111Z" fill="white"/>
<path d="M196.985 112.834H132.701C129.54 112.834 126.962 110.256 126.962 107.096V105.183C126.962 102.023 129.54 99.4453 132.701 99.4453H197.068C200.228 99.4453 202.806 102.023 202.806 105.183V107.096C202.723 110.34 200.145 112.918 196.985 112.834ZM132.701 100.61C130.123 100.61 128.044 102.689 128.044 105.267V107.179C128.044 109.757 130.123 111.836 132.701 111.836H197.068C199.646 111.836 201.725 109.757 201.725 107.179V105.267C201.725 102.689 199.646 100.61 197.068 100.61H132.701Z" fill="#3767A6"/>
<path d="M220.52 66.1815C218.026 67.6784 215.115 68.4269 212.204 68.4269C202.89 68.4269 195.322 60.8591 195.322 51.545C195.322 42.2308 202.89 34.6631 212.204 34.6631C215.115 34.6631 217.942 35.4115 220.52 36.9085C212.454 41.7319 209.792 52.1271 214.616 60.1938C216.113 62.6887 218.109 64.7677 220.52 66.1815Z" fill="white"/>
<path d="M212.287 69.0078C202.723 69.0078 194.906 61.1906 194.906 51.627C194.906 42.0633 202.723 34.2461 212.287 34.2461C215.28 34.2461 218.274 35.0777 220.852 36.5746C221.102 36.741 221.185 37.0736 221.019 37.3231C220.935 37.4062 220.935 37.4894 220.852 37.4894C213.035 42.1465 210.54 52.2091 215.197 60.0263C216.611 62.3549 218.524 64.2676 220.852 65.6813C221.102 65.8477 221.185 66.1803 221.019 66.4298C220.935 66.513 220.935 66.5961 220.852 66.5961C218.274 68.1762 215.28 68.9247 212.287 69.0078ZM212.287 35.3272C203.305 35.3272 195.987 42.6455 195.987 51.627C195.987 60.6085 203.305 67.9267 212.287 67.9267C214.781 67.9267 217.276 67.2614 219.522 66.0972C211.455 60.6916 209.293 49.7974 214.698 41.8138C215.946 39.9011 217.609 38.2379 219.522 36.9904C217.276 35.8262 214.781 35.244 212.287 35.3272Z" fill="#3767A6"/>
<path d="M228.836 51.6277C228.836 57.6154 225.676 63.1872 220.52 66.1811C212.453 61.3577 209.792 50.9624 214.615 42.8957C216.029 40.484 218.108 38.405 220.52 36.9912C225.676 40.0682 228.836 45.6401 228.836 51.6277Z" fill="#3767A6"/>
<path d="M220.521 66.6807C220.438 66.6807 220.355 66.6807 220.272 66.5975C211.955 61.691 209.211 50.8799 214.201 42.6469C215.698 40.152 217.777 37.9898 220.272 36.576C220.438 36.4929 220.688 36.4929 220.854 36.576C229.17 41.5658 231.914 52.2937 226.925 60.6099C225.428 63.1047 223.349 65.1838 220.854 66.6807C220.771 66.6807 220.688 66.6807 220.521 66.6807ZM220.521 37.6572C212.787 42.4805 210.459 52.6263 215.282 60.2772C216.613 62.4394 218.442 64.1858 220.521 65.5164C228.255 60.693 230.584 50.5473 225.76 42.8964C224.513 40.7341 222.683 38.9877 220.521 37.6572Z" fill="#3767A6"/>
<path d="M245.385 51.6269C245.469 60.8578 238.067 68.4256 228.836 68.5087C225.926 68.5087 223.015 67.7603 220.52 66.2634C228.587 61.44 231.248 51.0447 226.425 42.978C225.011 40.5663 222.932 38.4873 220.52 37.0735C223.015 35.5766 225.926 34.8281 228.836 34.8281C238.067 34.8281 245.469 42.3959 245.385 51.6269Z" fill="white"/>
<path d="M228.836 69.008C225.842 69.008 222.848 68.1763 220.27 66.6794C220.021 66.5131 219.938 66.1805 220.021 65.931C220.104 65.8478 220.104 65.7646 220.27 65.6815C228.088 61.0244 230.583 50.8786 225.925 43.1446C224.512 40.816 222.599 38.9033 220.27 37.4896C220.021 37.3232 219.938 36.9906 220.021 36.7411C220.104 36.6579 220.104 36.5748 220.27 36.4916C222.848 34.9947 225.842 34.1631 228.836 34.1631C238.4 34.1631 246.217 41.9803 246.217 51.5439C246.217 61.2739 238.483 69.008 228.836 69.008ZM221.601 66.0973C223.846 67.2616 226.341 67.8437 228.836 67.8437C237.818 67.8437 245.136 60.5254 245.136 51.5439C245.136 42.5624 237.818 35.2442 228.836 35.2442C226.341 35.2442 223.846 35.8263 221.601 36.9906C229.668 42.3961 231.747 53.2903 226.341 61.3571C225.094 63.1866 223.514 64.8499 221.601 66.0973Z" fill="#3767A6"/>
<path d="M290.627 32.749H34.5713V181.443H290.627V32.749Z" fill="#3767A6"/>
<path d="M290.627 182.025H34.5709C34.2383 182.025 33.9888 181.775 33.9888 181.443V32.7491C33.9888 32.4165 34.2383 32.167 34.5709 32.167H290.627C290.959 32.167 291.209 32.4165 291.209 32.7491V181.443C291.209 181.775 290.959 182.025 290.627 182.025ZM35.153 180.944H290.128V33.3313H35.0699L35.153 180.944Z" fill="#3767A6"/>
<path d="M85.633 67.9268H50.7881V98.1977H85.633V67.9268Z" fill="white"/>
<path d="M85.6326 98.697H50.7877C50.455 98.697 50.2056 98.4475 50.2056 98.1148V67.8439C50.2056 67.5112 50.455 67.2617 50.7877 67.2617H85.6326C85.9652 67.2617 86.1315 67.5112 86.2147 67.8439V98.1148C86.2147 98.5306 85.9652 98.697 85.6326 98.697ZM51.3698 97.6159H85.1336V68.426H51.3698V97.6159Z" fill="#3767A6"/>
<path d="M85.633 98.6964C85.4667 98.6964 85.3835 98.6132 85.3003 98.53L76.4852 91.1286C76.3188 91.0455 76.3188 90.8791 76.3188 90.7128V75.5773C76.3188 75.411 76.402 75.2447 76.4852 75.1615L85.3003 67.4274C85.5498 67.2611 85.8825 67.2611 86.0488 67.5106C86.2151 67.7601 86.2151 68.0096 85.9656 68.2591L77.3168 75.8268V90.4633L85.9656 97.6984C86.2151 97.8647 86.2151 98.1974 86.0488 98.4469C85.9656 98.6963 85.7993 98.6964 85.633 98.6964Z" fill="#3767A6"/>
<path d="M50.7875 98.6972C50.4549 98.6972 50.2886 98.4477 50.2886 98.1151C50.2886 97.9488 50.3717 97.7824 50.4549 97.6993L59.1037 90.4642V75.8277L50.4549 68.2599C50.2886 68.0104 50.2886 67.6778 50.4549 67.5115C50.7044 67.3451 51.037 67.3451 51.2034 67.5115L60.0185 75.2455C60.1017 75.3287 60.1849 75.495 60.1849 75.6613V90.7968C60.1849 90.9631 60.1017 91.1295 60.0185 91.2126L51.1202 98.6141C51.037 98.6972 50.9539 98.7804 50.7875 98.6972Z" fill="#3767A6"/>
<path d="M85.9651 76.1594H50.8707C50.5381 76.1594 50.2886 75.9099 50.2886 75.5772C50.2886 75.2446 50.5381 74.9951 50.8707 74.9951H85.9651C86.2977 74.9951 86.5472 75.2446 86.5472 75.5772C86.5472 75.9099 86.2146 76.1594 85.9651 76.1594Z" fill="#3767A6"/>
<path d="M85.6321 91.3791H50.5377C50.2051 91.3791 50.0387 91.1296 49.9556 90.797C49.9556 90.4643 50.2051 90.2148 50.5377 90.2148H85.6321C85.9647 90.2148 86.2142 90.4643 86.2142 90.797C86.2142 91.1296 85.9647 91.3791 85.6321 91.3791Z" fill="#3767A6"/>
<path d="M85.6321 83.6447H50.5377C50.2051 83.6447 50.0387 83.3952 49.9556 83.0626C49.9556 82.73 50.2051 82.4805 50.5377 82.4805H85.6321C85.9647 82.4805 86.2142 82.73 86.2142 83.0626C86.2142 83.3952 85.9647 83.5616 85.6321 83.6447Z" fill="#3767A6"/>
<path d="M68.4176 98.697C68.0849 98.697 67.8354 98.4475 67.8354 98.1148V67.8439C67.8354 67.5112 68.0849 67.3449 68.4176 67.2617C68.7502 67.2617 68.9997 67.5112 68.9997 67.8439V98.1148C68.9166 98.5306 68.6671 98.697 68.4176 98.697Z" fill="#3767A6"/>
<path d="M55.9441 131.546H92.6186C95.4461 131.546 97.7746 133.874 97.7746 136.702V138.615C97.7746 141.442 95.4461 143.771 92.6186 143.771H55.9441C53.1166 143.771 50.7881 141.442 50.7881 138.615V136.702C50.7881 133.874 53.1166 131.546 55.9441 131.546Z" fill="white"/>
<path d="M92.7012 144.353H56.0268C52.8666 144.353 50.2886 141.775 50.2886 138.615V136.702C50.2886 133.542 52.8666 131.047 56.0268 130.964H92.7012C95.8614 130.964 98.3562 133.542 98.4394 136.702V138.615C98.3562 141.775 95.7782 144.353 92.7012 144.353ZM55.9436 132.128C53.3656 132.128 51.2865 134.207 51.2865 136.785V138.698C51.2865 141.276 53.3656 143.355 55.9436 143.355H92.618C95.1961 143.355 97.2751 141.276 97.2751 138.698V136.785C97.2751 134.207 95.1961 132.128 92.618 132.128H55.9436Z" fill="#3767A6"/>
<path d="M110.913 131.546H147.588C150.415 131.546 152.744 133.874 152.744 136.702V138.615C152.744 141.442 150.415 143.771 147.588 143.771H110.913C108.086 143.771 105.757 141.442 105.757 138.615V136.702C105.757 133.874 108.086 131.546 110.913 131.546Z" fill="white"/>
<path d="M147.671 144.353H110.997C107.837 144.353 105.259 141.775 105.259 138.615V136.702C105.259 133.542 107.837 130.964 110.997 130.964H147.671C150.832 130.964 153.326 133.542 153.41 136.702V138.615C153.41 141.775 150.832 144.353 147.671 144.353ZM110.997 132.128C108.419 132.128 106.34 134.207 106.34 136.785V138.698C106.34 141.276 108.419 143.355 110.997 143.355H147.671C150.249 143.355 152.328 141.276 152.328 138.698V136.785C152.328 134.207 150.249 132.128 147.671 132.128H110.997Z" fill="#3767A6"/>
<path d="M165.967 131.546H230.334C233.162 131.546 235.49 133.874 235.49 136.702V138.615C235.49 141.442 233.162 143.771 230.334 143.771H165.967C163.139 143.771 160.811 141.442 160.811 138.615V136.702C160.811 133.874 163.056 131.546 165.967 131.546Z" fill="white"/>
<path d="M230.251 144.353H165.884C162.724 144.353 160.146 141.775 160.146 138.615V136.702C160.146 133.542 162.724 130.964 165.884 130.964H230.251C233.411 130.964 235.906 133.542 235.989 136.702V138.615C235.989 141.775 233.411 144.353 230.251 144.353ZM165.967 132.128C163.389 132.128 161.31 134.207 161.31 136.785V138.698C161.31 141.276 163.389 143.355 165.967 143.355H230.334C232.912 143.355 234.991 141.276 234.991 138.698V136.785C234.991 134.207 232.912 132.128 230.334 132.128H165.967Z" fill="#3767A6"/>
<path d="M253.868 97.6161C251.374 99.113 248.463 99.8614 245.552 99.8614C236.238 99.8614 228.67 92.2937 228.67 82.9795C228.67 73.6654 236.238 66.0977 245.552 66.0977C248.463 66.0977 251.29 66.8461 253.868 68.343C245.802 73.1664 243.141 83.5617 247.964 91.6284C249.378 94.2064 251.457 96.2023 253.868 97.6161Z" fill="white"/>
<path d="M245.553 100.442C235.989 100.442 228.172 92.6252 228.172 83.0615C228.172 73.4979 235.989 65.6807 245.553 65.6807C248.547 65.6807 251.54 66.5123 254.118 68.0092C254.368 68.1755 254.451 68.5082 254.285 68.7577C254.202 68.8408 254.202 68.924 254.118 68.924C246.301 73.5811 243.806 83.6437 248.463 91.4609C249.877 93.7894 251.79 95.7022 254.118 97.1159C254.285 97.1991 254.368 97.3654 254.368 97.6149C254.368 97.7812 254.285 97.9475 254.118 98.1139C251.54 99.6108 248.63 100.442 245.553 100.442ZM245.553 66.7618C236.571 66.7618 229.253 74.08 229.253 83.0615C229.253 92.043 236.571 99.3613 245.553 99.3613C248.048 99.3613 250.542 98.7791 252.788 97.6149C244.721 92.2093 242.559 81.3151 247.964 73.3316C249.212 71.4188 250.875 69.7556 252.788 68.5082C250.542 67.3439 248.048 66.7618 245.553 66.7618Z" fill="#3767A6"/>
<path d="M262.186 83.0623C262.186 89.05 259.026 94.6218 253.87 97.6156C245.803 92.7922 243.142 82.397 247.966 74.3303C249.379 71.9186 251.458 69.8395 253.87 68.4258C259.026 71.5028 262.186 77.0746 262.186 83.0623Z" fill="#3767A6"/>
<path d="M253.868 98.1973C253.785 98.1973 253.702 98.1973 253.619 98.1141C245.303 93.2076 242.558 82.3965 247.548 74.1635C249.045 71.6686 251.124 69.5064 253.619 68.0926C253.785 68.0095 254.035 68.0095 254.201 68.0926C262.517 73.0824 265.262 83.8103 260.272 92.1265C258.775 94.6213 256.696 96.7004 254.201 98.1973C254.035 98.1973 253.951 98.1973 253.868 98.1973ZM253.868 69.0906C246.134 73.914 243.806 84.0598 248.629 91.7107C249.96 93.8729 251.789 95.6193 253.868 96.9499C261.602 92.1265 263.931 81.9807 259.108 74.3298C257.777 72.2507 256.031 70.4212 253.868 69.0906Z" fill="#3767A6"/>
<path d="M278.736 83.0624C278.819 92.2934 271.417 99.8611 262.186 99.9443C259.276 99.9443 256.365 99.1958 253.87 97.6989C261.937 92.8755 264.598 82.4803 259.775 74.4136C258.361 72.0019 256.282 69.9228 253.87 68.509C256.365 67.0121 259.276 66.2637 262.186 66.2637C271.417 66.2637 278.819 73.8314 278.736 83.0624Z" fill="white"/>
<path d="M262.186 100.443C259.192 100.443 256.199 99.6109 253.621 98.114C253.454 98.0308 253.371 97.8645 253.371 97.615C253.371 97.4487 253.454 97.2824 253.621 97.1161C261.438 92.459 263.933 82.3132 259.276 74.5792C257.862 72.2506 255.949 70.3379 253.621 68.9241C253.371 68.7578 253.288 68.4252 253.371 68.1757C253.454 68.0925 253.454 68.0094 253.621 67.9262C256.199 66.4293 259.192 65.5977 262.186 65.5977C271.75 65.5977 279.567 73.4149 279.567 82.9785C279.567 92.7085 271.75 100.526 262.186 100.443ZM254.951 97.615C257.196 98.7793 259.691 99.3614 262.186 99.3614C271.168 99.3614 278.486 92.0432 278.486 83.0617C278.486 74.0802 271.168 66.7619 262.186 66.7619C259.691 66.7619 257.196 67.3441 254.951 68.5083C263.018 73.9139 265.097 84.8081 259.691 92.8748C258.444 94.7044 256.781 96.3676 254.951 97.615Z" fill="#3767A6"/>
<path d="M327.384 71.4199H71.3286V220.114H327.384V71.4199Z" fill="white"/>
<path d="M327.384 220.696H71.3282C70.9956 220.696 70.7461 220.446 70.7461 220.114V71.42C70.7461 71.0874 70.9956 70.8379 71.3282 70.8379H327.384C327.717 70.8379 327.966 71.0874 327.966 71.42V220.114C327.966 220.446 327.717 220.696 327.384 220.696ZM71.9104 219.615H326.885V72.0022H71.9935L71.9104 219.615Z" fill="#3767A6"/>
<path d="M122.39 106.598H87.5449V136.869H122.39V106.598Z" fill="white"/>
<path d="M122.472 137.367H87.6275C87.2949 137.367 87.0454 137.117 87.0454 136.785V106.514C87.0454 106.181 87.2949 105.932 87.6275 105.932H122.472C122.805 105.932 123.055 106.181 123.055 106.514V136.785C122.971 137.117 122.722 137.367 122.472 137.367ZM88.1265 136.286H121.89V107.096H88.1265V136.286Z" fill="#3767A6"/>
<path d="M122.473 137.368C122.307 137.368 122.223 137.285 122.14 137.202L113.325 129.8C113.242 129.717 113.159 129.551 113.159 129.385V114.249C113.159 114.083 113.242 113.917 113.325 113.833L122.14 106.099C122.39 105.933 122.722 105.933 122.889 106.182C123.138 106.432 123.138 106.765 122.889 106.931L114.24 114.499V129.135L122.889 136.37C123.138 136.537 123.138 136.869 122.972 137.119C122.805 137.368 122.639 137.368 122.473 137.368Z" fill="#3767A6"/>
<path d="M87.5444 137.367C87.3781 137.367 87.2118 137.284 87.1286 137.201C86.9623 136.951 86.9623 136.619 87.2118 136.452L95.8606 129.217V114.581L87.2118 107.013C86.9623 106.847 86.9623 106.431 87.1286 106.265C87.2949 106.098 87.7107 106.015 87.8771 106.181L96.6922 113.916C96.7754 113.999 96.8586 114.165 96.8586 114.331V129.467C96.8586 129.633 96.7754 129.799 96.6922 129.883L87.8771 137.284C87.8771 137.367 87.7108 137.367 87.5444 137.367Z" fill="#3767A6"/>
<path d="M122.722 114.913H87.6275C87.2949 114.913 87.0454 114.664 87.0454 114.331C87.0454 113.999 87.2949 113.749 87.6275 113.749H122.722C123.055 113.749 123.304 113.999 123.304 114.331C123.221 114.664 122.971 114.913 122.722 114.913Z" fill="#3767A6"/>
<path d="M122.473 129.967H87.295C86.9624 129.967 86.7129 129.718 86.7129 129.385C86.7129 129.052 86.9624 128.886 87.295 128.803H122.389C122.722 128.803 122.888 129.052 122.972 129.385C122.972 129.718 122.722 129.967 122.473 129.967Z" fill="#3767A6"/>
<path d="M122.473 122.232H87.295C86.9624 122.232 86.7129 121.982 86.7129 121.65C86.7129 121.317 86.9624 121.151 87.295 121.067H122.389C122.722 121.067 122.888 121.317 122.972 121.65C122.972 121.982 122.722 122.232 122.473 122.232Z" fill="#3767A6"/>
<path d="M105.175 137.367C104.842 137.367 104.593 137.117 104.593 136.785V106.514C104.593 106.181 104.842 105.932 105.175 105.932C105.508 105.932 105.757 106.181 105.757 106.514V136.785C105.674 137.117 105.424 137.367 105.175 137.367Z" fill="#3767A6"/>
<path d="M92.7842 170.217H129.459C132.286 170.217 134.615 172.545 134.615 175.373V177.286C134.615 180.113 132.286 182.442 129.459 182.442H92.7842C89.9567 182.442 87.6281 180.113 87.6281 177.286V175.373C87.545 172.545 89.8735 170.217 92.7842 170.217Z" fill="#3767A6"/>
<path d="M129.375 183.024H92.7006C89.5404 183.024 87.0456 180.446 86.9624 177.286V175.373C86.9624 172.213 89.5404 169.718 92.7006 169.635H129.375C132.535 169.635 135.03 172.213 135.113 175.373V177.286C135.113 180.446 132.535 183.024 129.375 183.024ZM92.7006 170.716C90.1226 170.716 88.0435 172.795 88.0435 175.373V177.286C88.0435 179.864 90.1226 181.943 92.7006 181.943H129.375C131.953 181.943 134.032 179.864 134.032 177.286V175.373C134.032 172.795 131.953 170.716 129.375 170.716H92.7006Z" fill="#3767A6"/>
<path d="M147.755 170.217H184.429C187.257 170.217 189.585 172.545 189.585 175.373V177.286C189.585 180.113 187.257 182.442 184.429 182.442H147.755C144.927 182.442 142.599 180.113 142.599 177.286V175.373C142.599 172.545 144.844 170.217 147.755 170.217Z" fill="#3767A6"/>
<path d="M184.429 183.024H147.755C144.595 183.024 142.017 180.446 142.017 177.286V175.373C142.017 172.213 144.595 169.635 147.755 169.635H184.429C187.589 169.635 190.084 172.213 190.167 175.373V177.286C190.084 180.446 187.589 183.024 184.429 183.024ZM147.755 170.716C145.177 170.716 143.098 172.795 143.098 175.373V177.286C143.098 179.864 145.177 181.943 147.755 181.943H184.429C187.007 181.943 189.086 179.864 189.086 177.286V175.373C189.086 172.795 187.007 170.716 184.429 170.716H147.755Z" fill="#3767A6"/>
<path d="M202.724 170.217H267.092C269.919 170.217 272.248 172.545 272.248 175.373V177.286C272.248 180.113 269.919 182.442 267.092 182.442H202.724C199.897 182.442 197.568 180.113 197.568 177.286V175.373C197.568 172.545 199.814 170.217 202.724 170.217Z" fill="#3767A6"/>
<path d="M267.091 183.024H202.724C199.563 183.024 196.985 180.446 196.985 177.286V175.373C196.985 172.213 199.563 169.635 202.724 169.635H267.091C270.251 169.635 272.746 172.213 272.829 175.373V177.286C272.746 180.446 270.251 183.024 267.091 183.024ZM202.724 170.716C200.146 170.716 198.066 172.795 198.066 175.373V177.286C198.066 179.864 200.146 181.943 202.724 181.943H267.091C269.669 181.943 271.748 179.864 271.748 177.286V175.373C271.748 172.795 269.669 170.716 267.091 170.716H202.724Z" fill="#3767A6"/>
<path d="M290.626 136.287C288.131 137.784 285.22 138.532 282.31 138.532C272.995 138.283 265.677 130.549 265.927 121.234C266.176 112.253 273.411 105.018 282.31 104.852C285.22 104.852 288.131 105.6 290.626 107.097C282.559 111.92 279.898 122.316 284.721 130.382C286.135 132.794 288.214 134.873 290.626 136.287Z" fill="white"/>
<path d="M282.31 139.114C272.746 139.114 264.929 131.297 264.929 121.733C264.929 112.17 272.746 104.353 282.31 104.353C285.304 104.353 288.298 105.184 290.876 106.681C291.125 106.847 291.208 107.18 291.042 107.43C290.959 107.513 290.959 107.596 290.876 107.596C283.059 112.253 280.48 122.316 285.138 130.133C286.551 132.461 288.547 134.457 290.876 135.871C291.042 135.954 291.125 136.12 291.125 136.37C291.125 136.536 291.042 136.703 290.876 136.869C288.298 138.283 285.387 139.114 282.31 139.114ZM282.31 105.434C273.329 105.434 266.01 112.752 266.01 121.733C266.01 130.715 273.329 138.033 282.31 138.033C284.805 138.033 287.3 137.451 289.545 136.287C281.478 130.881 279.316 119.987 284.722 112.003C285.969 110.091 287.632 108.427 289.545 107.18C287.3 106.016 284.888 105.434 282.31 105.434Z" fill="#3767A6"/>
<path d="M298.943 121.733C298.943 127.721 295.783 133.293 290.627 136.287C282.56 131.463 279.899 121.068 284.722 113.001C286.136 110.589 288.215 108.51 290.627 107.097C295.783 110.174 298.943 115.746 298.943 121.733Z" fill="#3767A6"/>
<path d="M290.626 136.869C290.543 136.869 290.459 136.869 290.376 136.786C282.06 131.88 279.316 121.069 284.305 112.752C285.802 110.257 287.881 108.178 290.376 106.682C290.543 106.598 290.792 106.598 290.958 106.682C299.275 111.671 302.019 122.399 297.029 130.715C295.532 133.21 293.453 135.289 290.958 136.786C290.792 136.786 290.709 136.869 290.626 136.869ZM290.626 107.763C282.892 112.586 280.563 122.732 285.386 130.383C286.717 132.545 288.547 134.291 290.626 135.622C298.36 130.799 300.688 120.653 295.865 113.002C294.534 110.923 292.788 109.093 290.626 107.763Z" fill="#3767A6"/>
<path d="M315.492 121.733C315.576 130.964 308.174 138.532 298.943 138.615C296.032 138.615 293.122 137.867 290.627 136.37C298.694 131.546 301.355 121.151 296.531 113.084C295.118 110.673 293.039 108.594 290.627 107.18C293.122 105.683 296.032 104.935 298.943 104.935C308.174 104.935 315.576 112.502 315.492 121.733Z" fill="white"/>
<path d="M298.943 139.113C295.949 139.113 292.955 138.282 290.377 136.785C290.211 136.702 290.127 136.535 290.127 136.286C290.127 136.12 290.211 135.953 290.377 135.787C298.194 131.13 300.772 121.067 296.115 113.25C294.701 110.922 292.789 108.926 290.377 107.512C290.127 107.346 290.044 107.013 290.211 106.763C290.294 106.68 290.294 106.597 290.377 106.597C292.955 105.1 295.949 104.269 298.943 104.269C308.506 104.269 316.323 112.086 316.323 121.649C316.323 131.296 308.506 139.113 298.943 139.113ZM291.707 136.286C293.953 137.45 296.448 138.032 298.943 138.032C307.924 138.032 315.242 130.714 315.242 121.733C315.242 112.751 307.924 105.433 298.943 105.433C296.448 105.433 293.953 106.015 291.707 107.179C299.774 112.585 301.853 123.479 296.448 131.546C295.2 133.375 293.62 134.955 291.707 136.286Z" fill="#3767A6"/>
<path d="M294.368 58.7798H262.184C261.851 58.7798 261.602 59.0293 261.602 59.3619C261.602 59.6946 261.352 95.2879 240.978 97.1175H237.235C229.834 96.4522 224.927 88.4686 221.185 71.3373C220.021 65.9317 219.023 59.9441 218.025 54.2059C215.031 36.2429 212.12 19.1115 203.804 14.7871H275.906C286.883 14.7871 290.126 33.9975 293.536 54.3722C293.869 55.8691 294.118 57.2829 294.368 58.7798Z" fill="white"/>
<path d="M339.193 59.3624C339.193 60.3603 339.026 83.3962 327.883 93.6252C324.556 96.7022 320.232 98.3654 315.741 98.2822C315.076 98.2822 314.411 98.2822 313.745 98.1991H241.062C240.729 98.1991 240.563 97.9496 240.479 97.7001C240.479 97.4506 240.646 97.2011 240.978 97.118C261.353 95.2052 261.603 59.6951 261.603 59.3624C261.603 59.0298 261.852 58.7803 262.185 58.7803H338.694C338.943 58.7803 339.193 59.0298 339.193 59.3624Z" fill="white"/>
<path d="M315.741 98.2822C315.076 98.2822 314.41 98.2822 313.745 98.1991H241.062C240.812 98.1991 240.563 97.9496 240.479 97.7001C240.479 97.4506 240.646 97.2011 240.978 97.118C261.353 95.2052 261.603 59.6951 261.603 59.3624C261.603 59.0298 261.852 58.7803 262.185 58.7803H338.694C339.026 58.7803 339.276 59.0298 339.276 59.3624C339.276 60.3603 339.11 83.3962 327.966 93.6252C324.639 96.7022 320.232 98.3654 315.741 98.2822ZM245.802 97.118H313.828C318.735 97.7001 323.641 96.12 327.217 92.7935C337.114 83.7289 338.029 63.4373 338.195 59.8614H262.767C262.601 64.1026 261.27 91.1303 245.802 97.118Z" fill="white"/>
<path d="M220.687 71.4204H166.05C166.632 27.6772 185.177 14.2881 199.398 14.2881C214.117 14.2881 215.365 46.9708 220.687 71.4204Z" fill="white"/>
<path d="M220.686 72.0025H166.049C165.716 72.0025 165.467 71.753 165.467 71.4203C165.716 51.5446 169.625 36.326 177.109 26.1802C185.01 15.3691 194.49 13.7891 199.314 13.7891C211.206 13.7891 214.532 33.4153 218.025 54.289C219.023 60.0271 220.021 65.9316 221.185 71.4203C221.185 71.5867 221.185 71.753 221.102 71.8361C221.019 71.9193 220.853 72.0025 220.686 72.0025ZM166.631 70.9214H220.021C218.94 65.6822 217.942 59.944 217.027 54.4553C213.618 34.0806 210.374 14.8702 199.397 14.8702C175.945 14.787 167.13 44.8917 166.631 70.9214Z" fill="white"/>
<path d="M237.235 98.1987C227.09 97.2839 222.931 84.2274 220.187 71.5868C219.023 66.1813 218.025 60.1936 217.027 54.4554C213.617 34.0807 210.374 14.8703 199.397 14.8703C199.064 14.8703 198.814 14.6208 198.814 14.2882C198.814 13.9555 199.064 13.7061 199.397 13.7061H275.906C287.798 13.7061 291.041 33.3323 294.617 54.1228C294.867 55.786 295.199 57.5324 295.449 59.1957C295.449 59.362 295.449 59.5283 295.366 59.6115C295.282 59.6946 295.116 59.7778 294.95 59.7778H262.766C262.683 64.3517 261.103 96.2859 241.144 98.1155L237.235 98.1987ZM203.887 14.7872C212.204 19.1116 215.114 36.243 218.108 54.2059C219.106 59.9441 220.104 65.8486 221.268 71.3373C225.01 88.5519 229.917 96.4522 237.318 97.1175H241.061C261.435 95.2048 261.685 59.6946 261.685 59.362C261.685 59.0293 261.934 58.7799 262.267 58.7799H294.368C294.118 57.2829 293.869 55.8692 293.619 54.3723C290.21 33.9976 286.966 14.7872 275.989 14.7872H203.887Z" fill="white"/>
<path d="M239.232 98.2815C238.566 98.2815 237.901 98.2815 237.236 98.1983C236.986 98.1983 236.737 97.9488 236.737 97.6162C236.737 97.3667 236.986 97.1172 237.319 97.1172H241.061C241.311 97.1172 241.56 97.3667 241.643 97.6162C241.643 97.8656 241.477 98.1983 241.144 98.1983C240.479 98.1983 239.897 98.2815 239.232 98.2815Z" fill="white"/>
<path d="M272.58 31.9182H220.52C220.187 31.9182 219.938 31.6687 219.938 31.336C219.938 31.0034 220.187 30.7539 220.52 30.7539H272.58C272.912 30.7539 273.162 31.0034 273.162 31.336C273.079 31.6687 272.829 31.835 272.58 31.9182Z" fill="white"/>
<path d="M275.491 43.3117H223.431C223.099 43.3117 222.849 43.0622 222.849 42.7296C222.849 42.3969 223.099 42.1475 223.431 42.1475H275.491C275.823 42.1475 276.073 42.3969 276.073 42.7296C276.073 43.0622 275.823 43.3117 275.491 43.3117Z" fill="white"/>
<path d="M278.4 54.9553H226.341C226.008 54.9553 225.759 54.7058 225.759 54.3731C225.759 54.0405 226.008 53.791 226.341 53.791H278.4C278.733 53.791 278.982 54.0405 278.982 54.3731C278.982 54.7058 278.733 54.9553 278.4 54.9553Z" fill="white"/>
<path d="M324.223 73.0832H272.163C271.831 73.0832 271.581 72.8337 271.581 72.5011C271.581 72.1684 271.831 71.9189 272.163 71.9189H324.223C324.555 71.9189 324.805 72.1684 324.805 72.5011C324.805 72.8337 324.555 73.0832 324.223 73.0832Z" fill="white"/>
<path d="M320.231 85.0588H268.172C267.839 85.0588 267.59 84.8093 267.59 84.4767C267.59 84.144 267.839 83.8945 268.172 83.8945H320.231C320.564 83.8945 320.814 84.144 320.814 84.4767C320.814 84.8093 320.564 85.0588 320.231 85.0588Z" fill="white"/>
<path d="M315.741 98.2822C315.076 98.2822 314.41 98.2822 313.745 98.1991H241.062C240.812 98.1991 240.563 97.9496 240.479 97.7001C240.479 97.4506 240.646 97.2011 240.978 97.118C261.353 95.2052 261.603 59.6951 261.603 59.3624C261.603 59.0298 261.852 58.7803 262.185 58.7803H338.694C339.026 58.7803 339.276 59.0298 339.276 59.3624C339.276 60.3603 339.11 83.3962 327.966 93.6252C324.639 96.7022 320.232 98.3654 315.741 98.2822ZM245.802 97.118H313.828C318.735 97.7001 323.641 96.12 327.217 92.7935C337.114 83.7289 338.029 63.4373 338.195 59.8614H262.767C262.601 64.1026 261.27 91.1303 245.802 97.118Z" fill="#3767A6"/>
<path d="M220.687 71.4204H166.05C166.632 27.6772 185.177 14.2881 199.398 14.2881C214.117 14.2881 215.365 46.9708 220.687 71.4204Z" fill="#3767A6"/>
<path d="M220.686 72.0025H166.049C165.716 72.0025 165.467 71.753 165.467 71.4203C165.716 51.5446 169.625 36.326 177.109 26.1802C185.01 15.3691 194.49 13.7891 199.314 13.7891C211.206 13.7891 214.532 33.4153 218.025 54.289C219.023 60.0271 220.021 65.9316 221.185 71.4203C221.185 71.5867 221.185 71.753 221.102 71.8361C221.019 71.9193 220.853 72.0025 220.686 72.0025ZM166.631 70.9214H220.021C218.94 65.6822 217.942 59.944 217.027 54.4553C213.618 34.0806 210.374 14.8702 199.397 14.8702C175.945 14.787 167.13 44.8917 166.631 70.9214Z" fill="#3767A6"/>
<path d="M294.617 54.2058C291.124 33.4153 287.798 13.7891 275.906 13.7891H199.397C199.064 13.7891 198.814 14.0385 198.814 14.3712C198.814 14.7038 199.064 14.9533 199.397 14.9533C210.374 14.9533 213.617 34.1638 217.027 54.5384C218.025 60.2766 219.023 66.2643 220.187 71.6698C222.931 84.3104 227.173 97.3669 237.235 98.2817H241.144C261.103 96.4521 262.6 64.5179 262.766 59.944H294.95C295.116 59.944 295.282 59.8608 295.366 59.7776C295.449 59.6945 295.532 59.5282 295.449 59.3618C295.199 57.5323 294.867 55.869 294.617 54.2058ZM262.184 58.7797C261.851 58.7797 261.602 59.0292 261.602 59.3618C261.602 59.6945 261.352 95.2878 240.978 97.1174H237.235C229.834 96.4521 224.927 88.4685 221.185 71.3372C220.021 65.9316 219.023 59.944 218.025 54.2058C215.031 36.2428 212.12 19.1114 203.804 14.787H275.906C286.883 14.787 290.126 33.9974 293.536 54.3721C293.785 55.869 294.035 57.2828 294.284 58.7797H262.184Z" fill="#3767A6"/>
<path d="M239.232 98.2815C238.566 98.2815 237.901 98.2815 237.236 98.1983C236.986 98.1983 236.737 97.9488 236.737 97.6162C236.737 97.3667 236.986 97.1172 237.319 97.1172H241.061C241.311 97.1172 241.56 97.3667 241.643 97.6162C241.643 97.8656 241.477 98.1983 241.144 98.1983C240.479 98.1983 239.897 98.2815 239.232 98.2815Z" fill="#3767A6"/>
<path d="M272.58 31.9182H220.52C220.187 31.9182 219.938 31.6687 219.938 31.336C219.938 31.0034 220.187 30.7539 220.52 30.7539H272.58C272.912 30.7539 273.162 31.0034 273.162 31.336C273.079 31.6687 272.829 31.835 272.58 31.9182Z" fill="#3767A6"/>
<path d="M275.491 43.3117H223.431C223.099 43.3117 222.849 43.0622 222.849 42.7296C222.849 42.3969 223.099 42.1475 223.431 42.1475H275.491C275.823 42.1475 276.073 42.3969 276.073 42.7296C276.073 43.0622 275.823 43.3117 275.491 43.3117Z" fill="#3767A6"/>
<path d="M278.4 54.9553H226.341C226.008 54.9553 225.759 54.7058 225.759 54.3731C225.759 54.0405 226.008 53.791 226.341 53.791H278.4C278.733 53.791 278.982 54.0405 278.982 54.3731C278.982 54.7058 278.733 54.9553 278.4 54.9553Z" fill="#3767A6"/>
<path d="M324.223 73.0832H272.163C271.831 73.0832 271.581 72.8337 271.581 72.5011C271.581 72.1684 271.831 71.9189 272.163 71.9189H324.223C324.555 71.9189 324.805 72.1684 324.805 72.5011C324.805 72.8337 324.555 73.0832 324.223 73.0832Z" fill="#3767A6"/>
<path d="M320.231 85.0588H268.172C267.839 85.0588 267.59 84.8093 267.59 84.4767C267.59 84.144 267.839 83.8945 268.172 83.8945H320.231C320.564 83.8945 320.814 84.144 320.814 84.4767C320.814 84.8093 320.564 85.0588 320.231 85.0588Z" fill="#3767A6"/>
</svg>
