<svg width="460" height="336" viewBox="0 0 460 336" fill="none" xmlns="http://www.w3.org/2000/svg">
<path d="M275.035 117.681L244.827 0.807617H69.3467L99.4419 117.681H275.035Z" fill="white"/>
<path d="M275.035 118.247H99.4422C99.2159 118.247 98.9896 118.134 98.8765 117.795L68.7812 0.921025C68.7812 0.807885 68.7812 0.581604 68.8944 0.468464C69.0075 0.355324 69.1207 0.242188 69.3469 0.242188H244.94C245.166 0.242188 245.393 0.355329 245.506 0.694749L275.601 117.568C275.601 117.681 275.601 117.908 275.488 118.021C275.375 118.134 275.149 118.247 275.035 118.247ZM99.8947 117.116H274.243L244.488 1.37359H70.0258L99.8947 117.116Z" fill="#150652"/>
<path d="M294.496 208.76H113.698C112.227 208.76 110.983 207.742 110.643 206.384L79.1905 84.5322C78.738 82.8351 79.7562 81.138 81.4533 80.6854C81.6796 80.5723 82.019 80.5723 82.2453 80.5723H262.93C264.401 80.5723 265.645 81.5905 265.985 82.9482L297.438 204.8C297.89 206.497 296.872 208.194 295.175 208.647C295.062 208.76 294.722 208.76 294.496 208.76Z" fill="#8DADFF"/>
<path d="M294.495 209.326H113.698C112.001 209.326 110.53 208.194 110.077 206.497L78.6244 84.6456C78.1719 82.6091 79.3033 80.5725 81.3398 80.12C81.6792 80.0068 81.9055 80.0068 82.2449 80.0068H262.929C264.627 80.0068 266.097 81.1382 266.55 82.8353L298.003 204.687C298.342 205.818 298.003 206.95 297.324 207.855C296.758 208.76 295.627 209.326 294.495 209.326ZM82.3581 81.1382C80.8872 81.1382 79.7558 82.2696 79.7558 83.7405C79.7558 83.9667 79.7559 84.193 79.869 84.3062L111.209 206.271C111.548 207.402 112.566 208.194 113.698 208.194H294.495C295.966 208.194 297.098 207.063 297.098 205.592C297.098 205.366 297.098 205.14 296.985 205.026L265.532 83.1748C265.192 82.0434 264.174 81.2514 263.043 81.2514H82.3581V81.1382Z" fill="#150652"/>
<path d="M300.492 208.76H119.694C118.223 208.76 116.979 207.742 116.64 206.384L85.1866 84.5322C84.7341 82.8351 85.7523 81.138 87.4494 80.6854C87.6757 80.5723 88.0151 80.5723 88.2414 80.5723H268.926C270.397 80.5723 271.641 81.5905 271.981 82.9482L303.547 204.8C303.999 206.497 302.981 208.194 301.284 208.647C301.058 208.76 300.718 208.76 300.492 208.76Z" fill="white"/>
<path d="M300.492 209.326H119.694C117.997 209.326 116.526 208.194 116.073 206.497L84.6205 84.6456C84.168 82.6091 85.2994 80.5725 87.3359 80.12C87.6753 80.0068 87.9016 80.0068 88.241 80.0068H268.925C270.623 80.0068 272.093 81.1382 272.546 82.8353L303.999 204.687C304.565 206.724 303.32 208.76 301.284 209.213C301.057 209.213 300.718 209.326 300.492 209.326ZM88.3542 81.1382C86.8833 81.1382 85.7519 82.3828 85.7519 83.7405C85.7519 83.9667 85.7519 84.193 85.8651 84.3062L117.318 206.158C117.657 207.289 118.676 208.081 119.807 208.081H300.492C301.962 208.081 303.094 206.95 303.094 205.479C303.094 205.253 303.094 205.026 302.981 204.8L271.641 82.9485C271.301 81.8171 270.283 81.0251 269.152 81.0251H88.3542V81.1382Z" fill="#150652"/>
<path d="M297.213 203.103L267.118 86.2295H91.5244L121.62 203.103H297.213Z" fill="#8DADFF"/>
<path d="M297.212 203.67H121.619C121.393 203.67 121.166 203.444 121.053 203.217L90.958 86.3439C90.958 86.2307 90.958 86.0045 91.0711 85.8913C91.1843 85.7782 91.2974 85.665 91.5237 85.665H267.117C267.343 85.665 267.569 85.8913 267.683 86.1176L297.778 202.991C297.778 203.104 297.778 203.331 297.665 203.444C297.552 203.557 297.438 203.67 297.212 203.67ZM122.071 202.539H296.42L266.551 86.7964H92.3157L122.071 202.539Z" fill="#150652"/>
<path d="M181.696 208.759H223.105L202.401 247.792H174.794C170.269 247.792 166.535 244.058 166.535 239.533C166.535 238.175 166.875 236.818 167.44 235.686L181.696 208.759Z" fill="white"/>
<path d="M202.401 248.359H174.795C169.93 248.359 165.97 244.399 165.97 239.534C165.97 238.063 166.309 236.705 166.988 235.348L181.244 208.42C181.357 208.194 181.583 208.081 181.696 208.081H223.105C223.445 208.081 223.671 208.307 223.671 208.647C223.671 208.76 223.671 208.873 223.558 208.986L202.853 248.019C202.853 248.246 202.627 248.359 202.401 248.359ZM182.036 209.326L168.006 235.913C165.97 239.647 167.441 244.286 171.174 246.322C172.306 246.888 173.55 247.227 174.795 247.227H202.061L222.2 209.326H182.036Z" fill="#150652"/>
<path d="M411.142 247.791H108.153V262.839H411.142V247.791Z" fill="white"/>
<path d="M411.029 263.518H108.154C107.814 263.518 107.588 263.292 107.588 262.952V247.905C107.588 247.565 107.814 247.339 108.154 247.339H411.029C411.369 247.339 411.595 247.565 411.595 247.905V262.952C411.595 263.178 411.369 263.518 411.029 263.518ZM108.719 262.387H410.577V248.47H108.719V262.387Z" fill="#150652"/>
<path d="M108.042 247.791H4.74512V262.839H108.042V247.791Z" fill="#8DADFF"/>
<path d="M108.154 263.518H4.74441C4.40499 263.518 4.17871 263.292 4.17871 262.952V247.905C4.17871 247.565 4.40499 247.339 4.74441 247.339H108.041C108.381 247.339 108.607 247.565 108.607 247.905V262.952C108.72 263.178 108.381 263.518 108.154 263.518ZM5.31011 262.387H107.475V248.47H5.31011V262.387Z" fill="#150652"/>
<path d="M95.9294 28.8626C97.7351 28.1615 98.3923 25.5156 97.3973 22.9526C96.4023 20.3897 94.1319 18.8803 92.3262 19.5813C90.5205 20.2823 89.8632 22.9283 90.8582 25.4912C91.8532 28.0542 94.1236 29.5636 95.9294 28.8626Z" fill="#8DADFF"/>
<path d="M94.9178 29.5463C92.655 29.5463 90.3922 27.2835 89.9397 24.3419C89.6002 22.871 89.9397 21.2871 90.8448 20.0425C91.4105 19.3637 92.3156 18.9111 93.3339 18.9111C95.5967 18.9111 97.8595 21.1739 98.312 24.1156C98.6514 25.5864 98.312 27.1704 97.4069 28.4149C96.7281 29.0937 95.8229 29.5463 94.9178 29.5463ZM93.2207 19.9294C92.655 19.9294 91.9762 20.1557 91.6368 20.7214C90.9579 21.7396 90.7316 22.9842 90.9579 24.1156C91.4105 26.4915 93.2207 28.4149 94.9178 28.4149C95.4835 28.4149 96.1624 28.1886 96.5018 27.6229C97.1806 26.6046 97.4069 25.3601 97.1806 24.2287C96.7281 21.9659 94.9178 19.9294 93.2207 19.9294Z" fill="#150652"/>
<path d="M131.122 24.7955H103.403C103.063 24.7955 102.837 24.5692 102.837 24.2298C102.837 23.8903 103.063 23.6641 103.403 23.6641H131.122C131.461 23.6641 131.688 23.8903 131.688 24.2298C131.688 24.5692 131.461 24.7955 131.122 24.7955Z" fill="#150652"/>
<path d="M230.911 24.7955H146.735C146.395 24.7955 146.169 24.5692 146.169 24.2298C146.169 23.8903 146.395 23.6641 146.735 23.6641H230.911C231.25 23.6641 231.476 23.8903 231.476 24.2298C231.476 24.5692 231.25 24.7955 230.911 24.7955Z" fill="#150652"/>
<path d="M101.81 47.2981C103.616 46.5971 104.273 43.9511 103.278 41.3882C102.283 38.8252 100.013 37.3158 98.207 38.0168C96.4013 38.7178 95.7441 41.3638 96.7391 43.9268C97.7341 46.4897 100.005 47.9991 101.81 47.2981Z" fill="#8DADFF"/>
<path d="M100.8 47.9877C98.5377 47.9877 96.2749 45.7249 95.7092 42.7833C95.3698 41.3124 95.7092 39.7285 96.6143 38.4839C97.18 37.8051 98.0851 37.3525 98.9902 37.3525C101.253 37.3525 103.516 39.6153 103.968 42.557C104.308 44.0278 103.968 45.6117 103.063 46.8563C102.611 47.5351 101.819 47.9877 100.8 47.9877ZM99.1034 38.4839C98.5377 38.4839 97.8588 38.7102 97.5194 39.2759C96.8406 40.2942 96.6143 41.5387 96.8406 42.6701C97.2931 45.0461 99.1034 46.9694 100.8 46.9694C101.366 46.9694 101.932 46.7432 102.384 46.1775C103.063 45.1592 103.29 43.9147 103.063 42.7833C102.611 40.4073 100.8 38.4839 99.1034 38.4839Z" fill="#150652"/>
<path d="M137.004 43.2349H109.284C108.945 43.2349 108.719 43.0086 108.719 42.6692C108.719 42.3298 108.945 42.1035 109.284 42.1035H137.004C137.343 42.1035 137.569 42.3298 137.569 42.6692C137.569 42.8955 137.343 43.2349 137.004 43.2349Z" fill="#150652"/>
<path d="M236.796 43.2349H152.619C152.28 43.2349 152.054 43.0086 152.054 42.6692C152.054 42.3298 152.28 42.1035 152.619 42.1035H236.796C237.135 42.1035 237.361 42.3298 237.361 42.6692C237.361 42.8955 237.135 43.2349 236.796 43.2349Z" fill="#150652"/>
<path d="M107.682 65.7444C109.488 65.0434 110.145 62.3974 109.15 59.8345C108.155 57.2715 105.885 55.7621 104.079 56.4631C102.273 57.1641 101.616 59.8101 102.611 62.3731C103.606 64.936 105.877 66.4454 107.682 65.7444Z" fill="#8DADFF"/>
<path d="M106.684 66.4301C104.422 66.4301 102.159 64.1673 101.706 61.2256C101.367 59.7548 101.706 58.1709 102.611 56.9263C103.177 56.2475 104.082 55.7949 105.1 55.7949C107.363 55.7949 109.626 58.0577 110.079 60.9993C110.418 62.4702 110.079 64.0541 109.173 65.2987C108.495 66.0906 107.59 66.4301 106.684 66.4301ZM104.987 56.9263C104.422 56.9263 103.743 57.1526 103.403 57.7183C102.725 58.7366 102.498 59.9811 102.725 61.1125C103.177 63.4884 104.987 65.4118 106.684 65.4118C107.25 65.4118 107.929 65.1855 108.268 64.6198C108.947 63.6016 109.173 62.357 108.947 61.2256C108.495 58.8497 106.684 56.9263 104.987 56.9263Z" fill="#150652"/>
<path d="M142.889 61.6773H115.17C114.831 61.6773 114.604 61.451 114.604 61.1116C114.604 60.7722 114.831 60.5459 115.17 60.5459H142.889C143.229 60.5459 143.455 60.7722 143.455 61.1116C143.455 61.451 143.229 61.6773 142.889 61.6773Z" fill="#150652"/>
<path d="M242.677 61.6773H158.501C158.162 61.6773 157.936 61.451 157.936 61.1116C157.936 60.7722 158.162 60.5459 158.501 60.5459H242.677C243.017 60.5459 243.243 60.7722 243.243 61.1116C243.243 61.451 243.017 61.6773 242.677 61.6773Z" fill="#150652"/>
<path d="M124.084 116.09C125.889 115.389 126.547 112.743 125.552 110.18C124.557 107.617 122.286 106.108 120.48 106.809C118.675 107.51 118.018 110.156 119.013 112.719C120.008 115.282 122.278 116.791 124.084 116.09Z" fill="white"/>
<path d="M123.09 116.775C120.827 116.775 118.564 114.512 118.112 111.57C117.772 110.1 118.112 108.516 119.017 107.271C119.582 106.592 120.487 106.14 121.506 106.14C123.769 106.14 126.031 108.402 126.484 111.344C126.823 112.815 126.484 114.399 125.579 115.643C124.9 116.435 123.995 116.775 123.09 116.775ZM121.393 107.271C120.827 107.271 120.148 107.497 119.809 108.063C119.13 109.081 118.904 110.326 119.13 111.457C119.582 113.833 121.393 115.757 123.09 115.757C123.655 115.757 124.334 115.53 124.674 114.965C125.352 113.946 125.579 112.702 125.352 111.57C124.9 109.194 123.09 107.271 121.393 107.271Z" fill="#150652"/>
<path d="M159.295 112.025H131.575C131.236 112.025 131.01 111.799 131.01 111.459C131.01 111.12 131.236 110.894 131.575 110.894H159.295C159.634 110.894 159.86 111.12 159.86 111.459C159.86 111.799 159.521 112.025 159.295 112.025Z" fill="#150652"/>
<path d="M259.083 112.025H174.907C174.567 112.025 174.341 111.799 174.341 111.459C174.341 111.12 174.567 110.894 174.907 110.894H259.083C259.422 110.894 259.648 111.12 259.648 111.459C259.648 111.799 259.422 112.025 259.083 112.025Z" fill="#150652"/>
<path d="M127.7 136.043C129.506 135.342 130.163 132.696 129.168 130.133C128.173 127.57 125.902 126.061 124.097 126.762C122.291 127.463 121.634 130.109 122.629 132.672C123.624 135.235 125.894 136.744 127.7 136.043Z" fill="white"/>
<path d="M126.821 136.803C124.558 136.803 122.295 134.54 121.73 131.599C121.39 130.128 121.73 128.544 122.635 127.299C123.201 126.621 124.106 126.168 125.011 126.168C127.274 126.168 129.536 128.431 129.989 131.372C130.328 132.843 129.989 134.427 129.084 135.672C128.631 136.351 127.726 136.803 126.821 136.803ZM125.124 127.186C124.558 127.186 123.992 127.412 123.54 127.978C122.861 128.996 122.635 130.241 122.861 131.372C123.314 133.748 125.011 135.672 126.821 135.672C127.387 135.672 127.952 135.445 128.405 134.88C129.084 133.861 129.31 132.617 129.084 131.486C128.631 129.11 126.821 127.186 125.124 127.186Z" fill="#150652"/>
<path d="M163.028 131.938H135.309C134.969 131.938 134.743 131.712 134.743 131.372C134.743 131.033 134.969 130.807 135.309 130.807H163.028C163.368 130.807 163.594 131.033 163.594 131.372C163.594 131.712 163.368 131.938 163.028 131.938Z" fill="#150652"/>
<path d="M262.817 131.938H178.641C178.301 131.938 178.075 131.712 178.075 131.372C178.075 131.033 178.301 130.807 178.641 130.807H262.817C263.156 130.807 263.383 131.033 263.383 131.372C263.383 131.712 263.156 131.938 262.817 131.938Z" fill="#150652"/>
<path d="M131.429 155.958C133.235 155.257 133.892 152.611 132.897 150.048C131.902 147.485 129.632 145.976 127.826 146.677C126.02 147.378 125.363 150.024 126.358 152.587C127.353 155.15 129.624 156.659 131.429 155.958Z" fill="white"/>
<path d="M130.556 156.716C128.294 156.716 126.031 154.453 125.578 151.512C125.239 150.041 125.578 148.457 126.483 147.212C127.049 146.534 127.954 146.081 128.973 146.081C131.235 146.081 133.498 148.344 133.951 151.285C134.29 152.756 133.951 154.34 133.046 155.585C132.367 156.264 131.462 156.716 130.556 156.716ZM128.859 147.099C128.294 147.099 127.615 147.326 127.275 147.891C126.597 148.91 126.37 150.154 126.597 151.285C127.049 153.661 128.859 155.585 130.556 155.585C131.122 155.585 131.801 155.359 132.14 154.793C132.819 153.775 133.046 152.53 132.819 151.399C132.367 149.136 130.556 147.099 128.859 147.099Z" fill="#150652"/>
<path d="M166.762 151.848H139.042C138.703 151.848 138.477 151.622 138.477 151.282C138.477 150.943 138.703 150.717 139.042 150.717H166.762C167.101 150.717 167.327 150.943 167.327 151.282C167.327 151.622 167.101 151.848 166.762 151.848Z" fill="#150652"/>
<path d="M266.55 151.848H182.374C182.035 151.848 181.809 151.622 181.809 151.282C181.809 150.943 182.035 150.717 182.374 150.717H266.55C266.89 150.717 267.116 150.943 267.116 151.282C267.116 151.622 266.89 151.848 266.55 151.848Z" fill="#150652"/>
<path d="M135.19 175.972C136.996 175.271 137.653 172.625 136.658 170.062C135.663 167.499 133.393 165.99 131.587 166.691C129.781 167.392 129.124 170.038 130.119 172.601C131.114 175.164 133.384 176.673 135.19 175.972Z" fill="white"/>
<path d="M134.29 176.626C132.027 176.626 129.764 174.364 129.198 171.422C128.859 169.951 129.198 168.367 130.104 167.123C130.669 166.444 131.574 165.991 132.48 165.991C134.742 165.991 137.005 168.254 137.458 171.196C137.797 172.666 137.458 174.25 136.553 175.495C136.1 176.174 135.195 176.626 134.29 176.626ZM132.593 167.009C132.027 167.009 131.461 167.236 131.009 167.801C130.33 168.82 130.104 170.064 130.33 171.196C130.782 173.572 132.48 175.495 134.29 175.495C134.855 175.495 135.421 175.269 135.874 174.703C136.553 173.685 136.779 172.44 136.553 171.309C136.1 169.046 134.29 167.009 132.593 167.009Z" fill="#150652"/>
<path d="M170.493 171.876H142.774C142.434 171.876 142.208 171.649 142.208 171.31C142.208 170.97 142.434 170.744 142.774 170.744H170.493C170.832 170.744 171.059 170.97 171.059 171.31C171.059 171.649 170.719 171.876 170.493 171.876Z" fill="#150652"/>
<path d="M270.283 171.876H186.107C185.767 171.876 185.541 171.649 185.541 171.31C185.541 170.97 185.767 170.744 186.107 170.744H270.283C270.622 170.744 270.849 170.97 270.849 171.31C270.849 171.649 270.622 171.876 270.283 171.876Z" fill="#150652"/>
<path d="M283.636 239.193H201.949V247.792H283.636V239.193Z" fill="white"/>
<path d="M283.636 248.358H201.949C201.609 248.358 201.383 248.132 201.383 247.792V239.194C201.383 238.854 201.609 238.628 201.949 238.628H283.636C283.975 238.628 284.201 238.854 284.201 239.194V247.792C284.201 248.132 283.975 248.358 283.636 248.358ZM202.514 247.227H283.07V239.759H202.514V247.227Z" fill="#150652"/>
<path d="M201.947 239.193H187.126V247.792H201.947V239.193Z" fill="#8DADFF"/>
<path d="M201.949 248.358H187.127C186.788 248.358 186.562 248.132 186.562 247.792V239.194C186.562 238.854 186.788 238.628 187.127 238.628H201.949C202.288 238.628 202.514 238.854 202.514 239.194V247.792C202.514 248.132 202.288 248.358 201.949 248.358ZM187.693 247.227H201.383V239.759H187.693V247.227Z" fill="#150652"/>
<path d="M87.0002 212.494C86.887 219.622 86.2082 238.969 83.7191 247.907H45.591C43.5544 238.403 41.7442 219.735 41.1785 212.72C41.0654 211.362 42.0836 210.118 43.4413 209.892C43.5544 209.892 43.6676 209.892 43.7807 209.892C64.1459 210.231 78.741 210.005 84.398 209.892C85.8688 209.892 87.0002 211.023 87.0002 212.381C87.0002 212.381 87.0002 212.381 87.0002 212.494Z" fill="white"/>
<path d="M83.7178 248.358H45.5897C45.3634 248.358 45.1371 248.132 45.024 247.906C42.8743 237.949 41.0641 218.376 40.6115 212.606C40.4984 211.701 40.8378 210.909 41.4035 210.23C41.9692 209.551 42.8743 209.212 43.7794 209.212C64.1446 209.551 78.966 209.325 84.3967 209.212C85.1887 209.212 86.0938 209.551 86.6595 210.117C87.2252 210.683 87.5646 211.588 87.5646 212.38C87.3383 220.073 86.7726 239.081 84.2835 247.906C84.1704 248.245 84.0573 248.358 83.7178 248.358ZM46.0422 247.227H83.2653C85.6412 238.063 86.3201 218.263 86.4332 212.38C86.4332 211.248 85.5281 210.343 84.5098 210.343C84.5098 210.343 84.5098 210.343 84.3967 210.343C78.966 210.456 64.1446 210.683 43.7794 210.343C43.2137 210.343 42.648 210.57 42.3086 211.022C41.9692 211.475 41.7429 212.04 41.7429 212.606C42.1955 218.263 44.0057 237.271 46.0422 247.227Z" fill="#150652"/>
<path d="M86.6597 223.694H52.4915C52.1521 223.694 51.9258 223.468 51.9258 223.128C51.9258 222.789 52.1521 222.562 52.4915 222.562H86.6597C86.9992 222.562 87.2254 222.789 87.2254 223.128C87.2254 223.468 86.886 223.694 86.6597 223.694Z" fill="#150652"/>
<path d="M68.4443 203.216C68.6706 179.683 86.773 172.895 86.773 172.895C86.773 172.895 94.6928 199.03 68.4443 203.216Z" fill="#8DADFF"/>
<path d="M66.5204 177.533C62.8999 154.226 79.6446 144.609 79.6446 144.609C79.6446 144.609 91.7506 169.161 66.5204 177.533Z" fill="#8DADFF"/>
<path d="M62.2189 194.956C62.1058 171.423 43.8903 164.635 43.8903 164.635C43.8903 164.635 35.9705 190.883 62.2189 194.956Z" fill="#8DADFF"/>
<path d="M64.0306 210.57H63.9174C63.6911 210.457 63.4649 210.231 63.4649 210.005C63.4649 209.778 63.1254 189.413 65.9539 177.42C68.7824 165.427 77.6074 148.004 77.6074 147.891C77.7205 147.664 78.0599 147.551 78.3993 147.665C78.6256 147.778 78.7388 148.117 78.6256 148.456C78.5125 148.683 69.8007 165.88 66.9722 177.76C64.7094 187.49 64.4831 202.764 64.5963 208.194L65.0488 207.402C66.8591 204.461 70.819 198.464 83.9432 177.307C84.0563 177.081 84.3958 176.968 84.7352 177.081C84.9615 177.194 85.0746 177.533 84.9615 177.873C71.7241 199.03 67.8773 205.026 66.0671 207.968C65.3882 208.986 65.0488 209.665 64.5963 210.344C64.4831 210.457 64.2568 210.57 64.0306 210.57Z" fill="#150652"/>
<path d="M64.0319 210.571C63.6925 210.571 63.4662 210.344 63.4662 210.005C63.4662 209.892 63.4662 201.067 61.656 195.184C59.8458 189.3 44.9113 169.275 44.7981 169.161C44.5719 168.935 44.685 168.596 44.9113 168.369C45.1376 168.143 45.477 168.256 45.7033 168.483C46.269 169.275 60.7509 188.848 62.7874 194.844C64.8239 200.841 64.7108 209.666 64.7108 210.118C64.5976 210.344 64.3714 210.571 64.0319 210.571Z" fill="#150652"/>
<path d="M219.372 334.685C219.372 334.685 222.879 307.305 236.23 292.823C249.58 278.341 317.917 270.534 317.917 270.534L350.275 283.885L369.509 309.907V334.232" fill="white"/>
<path d="M219.371 335.25C219.032 335.25 218.806 334.91 218.806 334.684C218.806 334.458 222.426 306.965 235.777 292.483C249.127 278.001 314.975 270.307 317.803 269.968C317.916 269.968 318.029 269.968 318.029 269.968L350.387 283.318C350.501 283.318 350.614 283.431 350.614 283.545L369.847 309.567C369.961 309.68 369.961 309.793 369.961 309.906V334.231C369.961 334.571 369.734 334.797 369.395 334.797C369.056 334.797 368.829 334.571 368.829 334.231V310.132L349.935 284.337L317.803 271.099C314.296 271.552 249.467 279.358 236.569 293.275C223.444 307.417 219.824 334.571 219.824 334.797C219.824 335.023 219.598 335.25 219.371 335.25Z" fill="#150652"/>
<path d="M343.824 183.984C334.773 173.236 338.507 149.024 338.507 149.024L334.32 109.312C334.32 109.312 329.908 101.392 334.32 90.7567C338.733 80.1216 351.065 77.5194 357.967 84.3078C357.967 84.3078 387.27 79.669 395.982 106.709C404.694 133.75 390.777 138.502 404.693 153.436C418.61 168.371 419.062 172.67 419.289 181.608C419.515 190.546 429.697 191.791 435.92 199.258C442.143 206.725 452.325 231.163 402.657 229.693C352.989 228.222 343.824 183.984 343.824 183.984Z" fill="white"/>
<path d="M406.957 230.37C405.599 230.37 404.128 230.37 402.658 230.257C354.573 228.786 343.938 187.037 343.372 184.209C334.547 173.574 337.715 150.719 337.942 148.909L333.755 109.423C333.19 108.405 329.569 100.712 333.755 90.4158C335.792 85.2114 340.204 81.3646 345.635 80.1201C350.048 79.1018 354.799 80.3464 358.081 83.5143C361.135 83.1749 388.176 80.5726 396.435 106.369C399.377 114.967 400.282 124.132 399.037 133.07C398.245 140.311 397.793 145.062 405.034 152.869C418.837 167.69 419.515 172.103 419.742 181.38C419.855 186.585 423.702 189.074 428.001 192.015C431.056 193.826 433.771 196.089 436.147 198.691C439.428 202.538 443.841 211.136 440.22 218.49C436.713 226.41 425.399 230.37 406.957 230.37ZM348.803 81.1383C347.898 81.1383 346.88 81.2515 345.975 81.3646C340.883 82.496 336.697 86.1165 334.887 90.9815C330.588 101.277 334.774 108.971 334.887 109.084C334.887 109.197 335 109.197 335 109.31L339.186 149.022V149.135C339.186 149.362 335.679 173.234 344.391 183.643C344.504 183.756 344.504 183.756 344.504 183.869C344.617 184.322 354.234 227.655 402.771 229.125C423.023 229.691 435.695 225.958 439.541 218.264C442.935 211.362 438.41 203.103 435.581 199.596C433.319 196.994 430.603 194.844 427.662 193.034C423.249 190.092 419.063 187.377 418.837 181.493C418.61 173.121 418.497 168.822 404.468 153.661C396.774 145.515 397.34 140.197 398.132 133.07C399.377 124.245 398.585 115.193 395.643 106.821C387.157 80.4595 358.533 84.7588 358.194 84.7588C357.967 84.7588 357.854 84.7588 357.741 84.6457C355.365 82.3829 352.084 81.0252 348.803 81.1383Z" fill="#150652"/>
<path d="M357.063 152.192C357.063 152.192 356.723 161.583 354.008 167.466L374.939 167.579L373.468 144.838L357.063 152.192Z" fill="white"/>
<path d="M374.938 168.256L354.007 168.143C353.781 168.143 353.668 168.03 353.555 167.917C353.441 167.804 353.441 167.578 353.555 167.351C356.157 161.694 356.609 152.417 356.609 152.304C356.609 152.077 356.723 151.851 356.949 151.851L373.354 144.497C373.467 144.384 373.693 144.384 373.92 144.497C374.033 144.61 374.146 144.723 374.146 144.95L375.617 167.691C375.617 167.917 375.391 168.143 374.938 168.256C375.051 168.143 375.051 168.143 374.938 168.256ZM354.912 167.012L374.372 167.125L373.015 145.855L357.628 152.643C357.514 154.34 357.062 161.694 354.912 167.012Z" fill="#150652"/>
<path d="M341.225 99.126C341.225 99.126 322.443 119.378 328.666 141.44C334.889 163.503 370.302 158.977 376.072 141.44C376.072 141.44 384.557 144.269 385.915 137.707C387.046 132.502 383.878 128.882 379.918 129.674C378.108 130.126 376.524 131.371 375.845 133.068L373.356 138.159L371.885 124.809C371.885 124.809 359.78 120.057 354.801 111.458C348.805 109.309 343.94 104.896 341.225 99.126Z" fill="white"/>
<path d="M350.952 156.83H350.16C339.073 156.603 330.813 150.833 328.098 141.556C321.762 119.607 340.543 99.0152 340.77 98.7889C340.883 98.6758 341.109 98.5626 341.335 98.6758C341.562 98.6758 341.675 98.7889 341.788 99.0152C344.39 104.559 349.142 108.858 354.912 111.008C355.025 111.008 355.138 111.121 355.252 111.234C360.003 119.494 371.883 124.359 371.996 124.359C372.223 124.472 372.336 124.585 372.336 124.811L373.58 136.238L375.277 132.844C376.182 131.034 377.766 129.676 379.803 129.224C381.613 128.771 383.537 129.337 384.781 130.694C386.478 132.618 387.157 135.333 386.478 137.935C386.252 139.519 385.234 140.99 383.876 141.782C381.274 143.253 377.88 142.574 376.522 142.121C373.693 149.589 364.19 156.83 350.952 156.83ZM341.109 100.147C338.054 103.767 323.799 121.983 329.229 141.216C331.718 150.041 339.525 155.472 350.16 155.698C363.624 155.925 373.128 148.684 375.617 141.216C375.617 141.103 375.73 140.99 375.843 140.877C375.956 140.764 376.182 140.764 376.296 140.877C376.296 140.877 380.595 142.235 383.31 140.764C384.442 140.085 385.234 138.954 385.46 137.596C386.026 135.446 385.573 133.07 384.102 131.373C383.084 130.355 381.5 129.902 380.142 130.242C378.445 130.581 377.088 131.713 376.409 133.297L373.92 138.388C373.807 138.614 373.467 138.727 373.128 138.614C373.015 138.501 372.901 138.388 372.788 138.162L371.317 125.151C369.281 124.245 359.098 119.72 354.46 111.8C348.576 109.763 343.938 105.577 341.109 100.147Z" fill="#150652"/>
<path d="M225.934 210.684C225.934 210.684 209.415 208.194 204.664 207.629C200.025 207.063 203.193 212.833 211.565 214.417C219.937 216.001 224.124 213.399 224.124 213.399L225.934 210.684Z" fill="white"/>
<path d="M216.769 215.435C214.959 215.435 213.261 215.209 211.564 214.983C205.229 213.851 201.721 210.457 202.061 208.42C202.174 207.968 202.513 206.837 204.776 207.063C209.415 207.628 225.82 210.118 226.046 210.118C226.273 210.118 226.386 210.231 226.499 210.457C226.612 210.57 226.612 210.796 226.499 211.023L224.802 213.625C224.802 213.738 224.689 213.738 224.575 213.738C224.462 213.851 221.86 215.435 216.769 215.435ZM204.21 208.081C203.645 208.081 203.192 208.194 203.192 208.534C203.079 209.552 205.907 212.72 211.791 213.738C219.145 215.096 223.218 213.172 223.897 212.833L225.028 211.023C221.521 210.457 208.736 208.534 204.663 208.081H204.21Z" fill="#150652"/>
<path d="M227.969 209.325C217.9 210.343 210.885 212.719 206.586 215.548C202.286 218.376 212.695 217.245 219.257 215.548C225.819 213.851 227.969 209.325 227.969 209.325Z" fill="white"/>
<path d="M208.055 217.81C206.471 217.81 205.34 217.584 205.114 216.905C204.661 216 205.905 215.208 206.245 214.981C211.11 211.813 218.803 209.551 227.968 208.646C228.194 208.646 228.42 208.759 228.533 208.872C228.647 208.985 228.647 209.211 228.647 209.437C228.533 209.664 226.271 214.189 219.595 216C215.749 217.018 211.902 217.697 208.055 217.81ZM206.245 216.565C207.489 217.131 213.825 216.452 219.143 214.981C222.198 214.189 224.913 212.492 226.95 209.89C218.464 210.908 211.449 212.945 206.924 216C206.697 216.226 206.471 216.339 206.245 216.565Z" fill="#150652"/>
<path d="M212.244 226.297C213.488 226.976 218.919 224.034 221.634 222.677C221.521 223.129 221.521 223.695 221.521 224.148C221.182 231.841 226.839 232.52 228.083 230.257C228.989 228.56 229.667 224.6 231.704 222.224C231.365 223.129 231.251 223.921 231.138 224.826C230.346 232.633 234.646 234.783 236.569 234.443C238.492 234.104 238.379 225.958 238.379 225.958L256.934 234.104C256.934 234.104 255.35 221.432 260.894 215.096L240.529 212.947C240.529 212.947 227.065 205.027 219.824 212.947C212.583 220.866 210.66 225.392 212.244 226.297Z" fill="white"/>
<path d="M236.115 234.897C234.87 234.897 233.739 234.331 232.834 233.539C231.589 232.294 230.118 229.918 230.458 225.166C230.005 226.072 229.779 227.09 229.44 227.995C229.213 228.787 228.874 229.579 228.534 230.371C227.742 231.615 226.272 232.181 224.801 231.729C222.764 231.163 220.728 228.9 220.841 224.035C220.841 223.922 220.841 223.809 220.841 223.696C213.487 227.656 212.242 227.09 211.903 226.864C211.45 226.637 211.111 226.185 211.111 225.619C210.658 223.243 213.6 218.491 219.144 212.495C226.385 204.575 239.056 211.477 240.414 212.382L260.666 214.531C260.893 214.531 261.006 214.645 261.119 214.871C261.232 215.097 261.119 215.323 261.006 215.436C255.801 221.546 257.159 233.878 257.159 234.105C257.159 234.444 256.933 234.67 256.706 234.783C256.593 234.783 256.48 234.783 256.367 234.783L238.604 226.977C238.604 229.918 238.378 234.897 236.341 235.236C236.454 234.897 236.228 234.897 236.115 234.897ZM231.589 221.546C231.702 221.546 231.816 221.546 231.929 221.659C232.155 221.772 232.268 222.112 232.155 222.338C231.929 223.13 231.702 224.035 231.589 224.827C231.137 229.353 232.381 231.615 233.626 232.747C234.305 233.539 235.323 233.878 236.454 233.765C237.246 233.652 237.812 229.918 237.812 225.845C237.812 225.619 237.925 225.506 238.038 225.393C238.151 225.28 238.378 225.28 238.604 225.393L256.254 233.199C256.027 230.258 255.688 221.207 259.761 215.55L240.414 213.513C240.301 213.513 240.301 213.513 240.188 213.4C240.075 213.287 227.064 205.82 220.162 213.287C214.053 219.962 212.129 224.035 212.469 225.506C212.469 225.732 212.582 225.845 212.695 225.958C213.034 226.185 215.41 225.619 221.52 222.338C221.746 222.225 221.972 222.225 222.085 222.338C222.312 222.451 222.312 222.677 222.312 222.904C222.199 223.356 222.199 223.809 222.199 224.261C221.972 228.448 223.669 230.371 225.253 230.823C226.159 231.163 227.064 230.824 227.629 230.032C227.969 229.353 228.195 228.561 228.421 227.769C228.987 225.619 229.892 223.583 231.25 221.885C231.25 221.659 231.363 221.546 231.589 221.546Z" fill="#150652"/>
<path d="M221.635 223.241C221.182 223.128 221.069 222.902 221.069 222.562C222.427 215.887 229.894 214.529 230.234 214.416C230.573 214.416 230.799 214.529 230.913 214.869C230.913 215.208 230.799 215.434 230.46 215.547C230.347 215.547 223.332 216.792 222.201 222.788C222.088 223.015 221.861 223.241 221.635 223.241Z" fill="#150652"/>
<path d="M231.59 222.677H231.363C231.024 222.563 230.911 222.224 231.024 221.998C231.816 219.056 234.871 217.246 237.812 217.925C238.152 218.038 238.265 218.264 238.265 218.604C238.152 218.943 237.925 219.056 237.586 219.056C235.21 218.49 232.721 220.074 232.155 222.45C232.042 222.563 231.816 222.677 231.59 222.677Z" fill="#150652"/>
<path d="M383.991 303.234C349.936 307.08 328.213 287.507 320.519 278.909C318.483 276.646 317.465 273.478 317.917 270.423C318.822 263.069 320.972 256.054 324.14 249.379C291.556 247.795 254.898 235.576 254.898 235.576C254.106 228.222 255.69 220.642 259.424 214.193C265.647 203.218 290.085 212.609 301.399 213.401C304.001 213.627 306.716 213.627 309.319 213.401C309.432 213.401 309.545 213.401 309.771 213.287H309.997H310.111C310.789 213.174 311.355 212.948 311.921 212.722C320.746 208.988 331.494 193.262 339.527 181.495L339.98 180.929C351.067 164.411 358.195 163.166 364.644 163.053C370.301 162.94 379.918 162.601 386.933 171.991C388.517 174.254 389.761 176.63 390.666 179.345C396.097 195.751 424.948 282.529 426.079 286.602C427.097 290.788 427.097 298.255 383.991 303.234Z" fill="#8DADFF"/>
<path d="M324.139 249.943C323.913 249.943 323.573 249.716 323.573 249.49C323.573 249.151 323.8 248.924 324.026 248.811C324.365 248.811 361.136 242.928 371.658 209.891C371.771 209.552 372.11 209.438 372.337 209.438C372.563 209.438 372.789 209.891 372.789 210.117C362.041 244.059 324.592 249.943 324.139 249.943Z" fill="#150652"/>
<path d="M377.427 222.336C377.314 222.336 377.087 222.222 376.974 222.109C372.562 217.244 369.507 217.357 369.507 217.357C369.168 217.357 368.941 217.131 368.941 216.792C368.941 216.452 369.168 216.226 369.394 216.226C369.507 216.226 373.014 216 377.766 221.317C377.993 221.544 377.993 221.883 377.766 222.109C377.766 222.336 377.653 222.336 377.427 222.336Z" fill="#150652"/>
<path d="M290.197 330.271L322.103 330.158C337.264 330.045 350.388 319.976 354.461 305.494L377.089 224.259C381.275 209.325 394.286 198.463 409.786 197.106L437.506 194.73C448.254 193.824 457.871 201.744 458.776 212.606C459.002 214.755 458.776 217.018 458.21 219.055L436.827 304.136C432.414 321.673 416.688 334.005 398.585 334.118L290.084 334.684C288.84 334.684 287.935 333.665 287.935 332.534C287.935 331.855 288.274 331.176 288.727 330.837C289.292 330.384 289.745 330.271 290.197 330.271Z" fill="white"/>
<path d="M290.198 335.251C288.727 335.251 287.482 334.007 287.482 332.536C287.482 331.744 287.822 330.839 288.501 330.386C288.953 330.047 289.519 329.821 290.198 329.821L322.103 329.708C336.925 329.594 349.936 319.638 354.009 305.383L376.637 224.148C380.936 208.987 394.173 198.013 409.9 196.542L437.619 194.166C448.707 193.148 458.55 201.407 459.455 212.495C459.681 214.757 459.455 217.02 458.889 219.17L437.506 304.251C432.98 322.014 417.028 334.573 398.699 334.686L290.198 335.251ZM290.198 330.839C289.858 330.839 289.519 330.952 289.18 331.178C288.501 331.744 288.388 332.762 288.84 333.441C289.18 333.894 289.632 334.12 290.085 334.12L398.586 333.554C416.462 333.441 431.962 321.335 436.261 304.025L457.645 218.944C460.247 208.761 454.024 198.352 443.842 195.863C441.805 195.297 439.656 195.184 437.506 195.411L409.787 197.786C394.513 199.144 381.728 209.779 377.542 224.601L354.914 305.835C350.728 320.656 337.264 330.839 321.99 330.952L290.198 330.839Z" fill="#150652"/>
<path d="M344.618 115.532C345.523 115.193 346.541 114.967 347.56 114.853C348.578 114.74 349.596 114.74 350.501 114.853C351.52 114.967 352.425 115.193 353.443 115.532C354.348 115.872 355.253 116.324 356.158 116.89C356.385 117.116 356.498 117.456 356.271 117.682C356.158 117.908 355.932 118.021 355.706 117.908C353.895 117.456 352.198 117.116 350.388 116.89C349.483 116.777 348.578 116.777 347.673 116.664C346.768 116.55 345.863 116.664 344.957 116.664C344.618 116.777 344.392 116.551 344.279 116.211C344.052 115.872 344.279 115.532 344.618 115.532Z" fill="#150652"/>
<path d="M330.023 112.592C330.815 112.253 331.607 112.14 332.399 112.026C333.191 112.026 333.983 112.026 334.775 112.253C335.567 112.366 336.359 112.705 337.038 113.045C337.717 113.384 338.395 113.95 338.961 114.515C339.187 114.742 339.187 115.081 338.961 115.307C338.848 115.421 338.622 115.534 338.395 115.421C337.151 114.855 335.793 114.515 334.435 114.176C333.757 114.063 333.078 113.95 332.399 113.837C331.72 113.723 331.041 113.723 330.362 113.723H330.249C329.91 113.723 329.684 113.497 329.684 113.158C329.684 112.818 329.797 112.705 330.023 112.592Z" fill="#150652"/>
<path d="M336.582 117.569C335.451 120.85 334.093 124.018 332.396 127.073C332.396 127.073 327.644 124.81 326.626 128.205C325.381 132.278 331.378 133.296 332.962 130.015" fill="white"/>
<path d="M329.682 132.503C329.116 132.503 328.551 132.39 327.985 132.163C326.288 131.598 325.383 129.674 326.062 128.09C326.062 128.09 326.062 128.09 326.062 127.977C326.288 127.072 326.967 126.393 327.759 126.054C329.23 125.601 330.814 125.714 332.171 126.393C333.755 123.565 335 120.51 336.018 117.455C336.131 117.116 336.471 117.003 336.697 117.116C337.036 117.229 337.149 117.568 337.036 117.794C335.905 121.076 334.547 124.357 332.85 127.411C332.737 127.638 332.397 127.751 332.171 127.638C331.492 127.298 329.456 126.619 328.211 127.185C327.646 127.411 327.306 127.864 327.193 128.43C326.74 129.448 327.193 130.692 328.324 131.145H328.438C329.908 131.824 331.719 131.258 332.511 129.787C332.624 129.561 332.963 129.335 333.303 129.561C333.529 129.674 333.755 130.014 333.529 130.353C332.737 131.711 331.266 132.503 329.682 132.503Z" fill="#150652"/>
<path d="M349.367 123.793C349.028 125.264 347.897 126.282 346.878 126.056C345.86 125.83 345.294 124.472 345.634 123.001C345.747 122.549 345.86 122.209 346.2 121.87L347.67 123.227L347.331 120.851C347.557 120.738 347.783 120.738 348.123 120.851C349.141 120.965 349.707 122.322 349.367 123.793Z" fill="#150652"/>
<path d="M333.19 121.19C332.964 122.321 332.059 123 331.38 122.887C330.701 122.774 330.249 121.642 330.475 120.624C330.588 120.284 330.701 120.058 330.814 119.719L331.946 120.737L331.719 118.927C331.946 118.927 332.059 118.927 332.285 118.927C333.077 119.04 333.53 120.058 333.19 121.19Z" fill="#150652"/>
<path d="M377.315 135.673C377.315 135.673 378.56 131.713 382.18 132.392L377.315 135.673Z" fill="white"/>
<path d="M377.314 136.237H377.088C376.748 136.124 376.635 135.785 376.748 135.558C377.201 133.974 379.011 131.259 382.292 131.938C382.632 132.051 382.745 132.277 382.745 132.617C382.632 132.956 382.405 133.069 382.066 133.069C379.011 132.39 377.88 135.785 377.767 135.898C377.767 136.124 377.54 136.237 377.314 136.237Z" fill="#150652"/>
<path d="M382.18 138.613C382.18 138.613 383.311 134.54 380.144 132.504L382.18 138.613Z" fill="white"/>
<path d="M382.179 139.179H382.066C381.726 139.066 381.613 138.84 381.613 138.5C381.613 138.387 382.518 134.767 379.803 133.069C379.577 132.956 379.463 132.504 379.69 132.277C379.803 132.051 380.255 131.938 380.482 132.051C383.876 134.201 382.745 138.613 382.745 138.84C382.631 139.066 382.405 139.292 382.179 139.179Z" fill="#150652"/>
<path d="M343.711 140.762C342.353 140.649 340.996 140.084 340.091 139.178C339.864 138.952 339.864 138.613 340.091 138.386C340.317 138.16 340.656 138.16 340.883 138.386C341.788 139.292 343.032 139.857 344.277 139.631C346.54 139.292 348.01 136.463 348.01 136.463C348.124 136.237 348.463 136.124 348.802 136.237C349.029 136.35 349.142 136.689 349.029 137.029C348.916 137.142 347.218 140.31 344.503 140.762C344.164 140.762 343.937 140.762 343.711 140.762Z" fill="#150652"/>
<path d="M1.12487 77.1792C1.80371 77.1792 2.59569 76.9529 3.16139 76.5003C3.72709 76.1609 4.06651 75.4821 4.17965 74.9164C4.51907 73.2193 4.40593 71.5222 3.84023 69.8251L1.12487 61.3396C0.446034 59.3031 0.559173 57.606 1.46429 56.3614C2.36941 55.1169 3.72709 54.438 5.19791 54.438L10.6286 54.0986L11.8732 57.9454L8.81839 58.0585C7.91327 58.0585 7.23443 58.7374 7.12129 59.6425C7.00815 60.887 7.23443 62.0184 7.57385 63.1498L10.0629 70.8433C10.4023 71.8616 10.6286 72.993 10.5155 74.1244C10.5155 75.0295 10.1761 75.8215 9.72351 76.5003C9.15781 77.4054 8.36583 78.1974 7.34757 78.65V78.7631C7.91327 78.8763 8.36583 78.9894 8.93153 79.2157C9.72351 79.5551 10.4023 80.0077 10.968 80.4602C11.8732 81.1391 12.552 81.8179 13.2308 82.723C14.0228 83.7413 14.5885 84.9858 14.9279 86.2304L17.417 93.8107C17.7564 94.9421 18.3221 96.0736 19.1141 97.0918C19.6798 97.9969 20.6981 98.5626 21.8295 98.5626L24.8843 98.3363L26.1288 102.183L20.8112 102.523C19.1141 102.523 17.3039 101.957 15.9462 100.939C14.3622 99.8072 13.1177 98.1101 12.552 96.2998L9.83665 87.9275C9.27095 86.0041 8.36583 84.307 7.00815 82.8362C5.87675 81.5916 4.29279 80.9128 2.59569 80.9128L1.12487 77.1792Z" fill="#8DADFF"/>
<path d="M30.5412 89.8506C32.3515 89.7374 34.0486 90.8688 34.7274 92.5659L34.8406 92.6791C35.2931 93.8105 34.7274 95.1681 33.596 95.6207C33.2566 95.7338 32.9172 95.847 32.5778 95.7338C30.7675 95.847 29.0704 94.7156 28.3916 93.0185C27.939 91.8871 28.5047 90.5294 29.6361 90.0768C29.8624 89.9637 30.2018 89.8506 30.5412 89.8506Z" fill="white"/>
<path d="M32.239 96.5264C30.2025 96.5264 28.3922 95.2819 27.7134 93.3585V93.1322C27.374 92.2271 27.4871 91.322 28.0528 90.53C28.6185 89.738 29.5236 89.2854 30.5419 89.2854C32.5784 89.1723 34.5018 90.4168 35.2938 92.4534V92.6796C35.6332 93.5848 35.52 94.4899 34.9543 95.2819C34.3886 96.0738 33.4835 96.5264 32.4653 96.5264H32.239ZM30.5419 90.4168C29.863 90.4168 29.2973 90.7562 28.9579 91.2088C28.6185 91.6614 28.6185 92.2271 28.7316 92.7928V93.0191C29.2973 94.4899 30.7682 95.395 32.3521 95.395C33.031 95.395 33.5967 95.0556 33.9361 94.603C34.2755 94.1504 34.2755 93.5848 34.1624 93.0191L34.0492 92.9059C33.4835 91.3219 32.1258 90.4168 30.5419 90.4168Z" fill="#150652"/>
<path d="M46.1555 88.9472C47.9658 88.8341 49.6629 89.9655 50.3417 91.6626V91.7757C50.7943 92.9071 50.2286 94.2648 49.0972 94.7174C48.7577 94.8305 48.4183 94.9437 48.0789 94.8305C46.2687 94.9437 44.5716 93.8123 43.8927 92.1152V92.002C43.4402 90.7575 44.119 89.3998 45.2504 89.0604C45.5898 89.0604 45.9293 88.9472 46.1555 88.9472Z" fill="white"/>
<path d="M47.9655 95.6221C45.929 95.6221 44.1188 94.3776 43.4399 92.4542V92.2279C43.1005 91.3228 43.2137 90.4177 43.7794 89.6257C44.3451 88.8337 45.2502 88.3811 46.2684 88.3811C48.305 88.268 50.2283 89.5126 51.0203 91.4359V91.6622C51.3597 92.5673 51.2466 93.4725 50.6809 94.2644C50.1152 95.0564 49.2101 95.509 48.1918 95.509L47.9655 95.6221ZM46.2684 89.5125C45.5896 89.5125 45.0239 89.852 44.6845 90.3045C44.3451 90.7571 44.3451 91.3228 44.4582 91.8885L44.5713 92.1148C45.137 93.5856 46.6079 94.4907 48.1918 94.4907C48.8707 94.4907 49.4364 94.1513 49.7758 93.6987C50.1152 93.2462 50.1152 92.6805 50.0021 92.1148V91.8885C49.3232 90.4177 47.8524 89.5125 46.2684 89.5125Z" fill="#150652"/>
<path d="M56.9027 96.7526L59.9574 96.6394C60.8626 96.6394 61.6545 95.8474 61.5414 94.9423C61.6545 93.8109 61.5414 92.6795 61.0888 91.5481L58.5998 83.8546C58.2604 82.7232 58.0341 81.5918 58.1472 80.4604C58.1472 79.6684 58.4866 78.7633 58.826 78.0845C59.7312 76.8399 60.41 76.1611 60.9757 76.0479V75.9348L59.618 75.3691C58.9392 75.0297 58.2603 74.6903 57.5815 74.1246C56.6764 73.4457 55.9976 72.7669 55.3187 71.8618C54.5267 70.8435 53.961 69.7121 53.5085 68.4676L51.0194 60.8872C50.68 59.6427 50.0011 58.5113 49.2092 57.493C48.6435 56.5879 47.6252 56.1353 46.6069 56.1353L43.5522 56.3616L42.3076 52.5148L47.6252 52.1754C49.4354 52.0623 51.1325 52.628 52.6033 53.6462C54.1873 54.8908 55.3187 56.4747 55.8844 58.3981L58.5998 66.7705C59.1655 68.6939 60.1837 70.3909 61.5414 71.7486C62.6728 72.9932 64.2568 73.672 65.8407 73.7851L67.1984 77.6319C65.8407 77.6319 64.483 78.537 64.1436 79.8947C63.6911 81.5918 63.8042 83.402 64.3699 84.986L67.0853 93.4715C67.7641 95.0555 67.651 96.8657 66.859 98.3365C65.9539 99.5811 64.5962 100.373 63.0122 100.373L57.5815 100.712L56.9027 96.7526Z" fill="#8DADFF"/>
<path d="M1.12487 77.1792C1.80371 77.1792 2.59569 76.9529 3.16139 76.5003C3.72709 76.1609 4.06651 75.4821 4.17965 74.9164C4.51907 73.2193 4.40593 71.5222 3.84023 69.8251L1.12487 61.3396C0.446034 59.3031 0.559173 57.606 1.46429 56.3614C2.36941 55.1169 3.72709 54.438 5.19791 54.438L10.6286 54.0986L11.8732 57.9454L8.81839 58.0585C7.91327 58.0585 7.23443 58.7374 7.12129 59.6425C7.00815 60.887 7.23443 62.0184 7.57385 63.1498L10.0629 70.8433C10.4023 71.8616 10.6286 72.993 10.5155 74.1244C10.5155 75.0295 10.1761 75.8215 9.72351 76.5003C9.15781 77.4054 8.36583 78.1974 7.34757 78.65V78.7631C7.91327 78.8763 8.36583 78.9894 8.93153 79.2157C9.72351 79.5551 10.4023 80.0077 10.968 80.4602C11.8732 81.1391 12.552 81.8179 13.2308 82.723C14.0228 83.7413 14.5885 84.9858 14.9279 86.2304L17.417 93.8107C17.7564 94.9421 18.3221 96.0736 19.1141 97.0918C19.6798 97.9969 20.6981 98.5626 21.8295 98.5626L24.8843 98.3363L26.1288 102.183L20.8112 102.523C19.1141 102.523 17.3039 101.957 15.9462 100.939C14.3622 99.8072 13.1177 98.1101 12.552 96.2998L9.83665 87.9275C9.27095 86.0041 8.36583 84.307 7.00815 82.8362C5.87675 81.5916 4.29279 80.9128 2.59569 80.9128L1.12487 77.1792Z" stroke="#150652" stroke-width="1.1314" stroke-linecap="round" stroke-linejoin="round"/>
<path d="M30.5412 89.8506C32.3515 89.7374 34.0486 90.8688 34.7274 92.5659L34.8406 92.6791C35.2931 93.8105 34.7274 95.1681 33.596 95.6207C33.2566 95.7338 32.9172 95.847 32.5778 95.7338C30.7675 95.847 29.0704 94.7156 28.3916 93.0185C27.939 91.8871 28.5047 90.5294 29.6361 90.0768C29.8624 89.9637 30.2018 89.8506 30.5412 89.8506Z" stroke="#150652" stroke-width="1.1314" stroke-linecap="round" stroke-linejoin="round"/>
<path d="M32.239 96.5264C30.2025 96.5264 28.3922 95.2819 27.7134 93.3585V93.1322C27.374 92.2271 27.4871 91.322 28.0528 90.53C28.6185 89.738 29.5236 89.2854 30.5419 89.2854C32.5784 89.1723 34.5018 90.4168 35.2938 92.4534V92.6796C35.6332 93.5848 35.52 94.4899 34.9543 95.2819C34.3886 96.0738 33.4835 96.5264 32.4653 96.5264H32.239ZM30.5419 90.4168C29.863 90.4168 29.2973 90.7562 28.9579 91.2088C28.6185 91.6614 28.6185 92.2271 28.7316 92.7928V93.0191C29.2973 94.4899 30.7682 95.395 32.3521 95.395C33.031 95.395 33.5967 95.0556 33.9361 94.603C34.2755 94.1504 34.2755 93.5848 34.1624 93.0191L34.0492 92.9059C33.4835 91.3219 32.1258 90.4168 30.5419 90.4168Z" stroke="#150652" stroke-width="1.1314" stroke-linecap="round" stroke-linejoin="round"/>
<path d="M46.1555 88.9472C47.9658 88.8341 49.6629 89.9655 50.3417 91.6626V91.7757C50.7943 92.9071 50.2286 94.2648 49.0972 94.7174C48.7577 94.8305 48.4183 94.9437 48.0789 94.8305C46.2687 94.9437 44.5716 93.8123 43.8927 92.1152V92.002C43.4402 90.7575 44.119 89.3998 45.2504 89.0604C45.5898 89.0604 45.9293 88.9472 46.1555 88.9472Z" stroke="#150652" stroke-width="1.1314" stroke-linecap="round" stroke-linejoin="round"/>
<path d="M47.9655 95.6221C45.929 95.6221 44.1188 94.3776 43.4399 92.4542V92.2279C43.1005 91.3228 43.2137 90.4177 43.7794 89.6257C44.3451 88.8337 45.2502 88.3811 46.2684 88.3811C48.305 88.268 50.2283 89.5126 51.0203 91.4359V91.6622C51.3597 92.5673 51.2466 93.4725 50.6809 94.2644C50.1152 95.0564 49.2101 95.509 48.1918 95.509L47.9655 95.6221ZM46.2684 89.5125C45.5896 89.5125 45.0239 89.852 44.6845 90.3045C44.3451 90.7571 44.3451 91.3228 44.4582 91.8885L44.5713 92.1148C45.137 93.5856 46.6079 94.4907 48.1918 94.4907C48.8707 94.4907 49.4364 94.1513 49.7758 93.6987C50.1152 93.2462 50.1152 92.6805 50.0021 92.1148V91.8885C49.3232 90.4177 47.8524 89.5125 46.2684 89.5125Z" stroke="#150652" stroke-width="1.1314" stroke-linecap="round" stroke-linejoin="round"/>
<path d="M56.9027 96.7526L59.9574 96.6394C60.8626 96.6394 61.6545 95.8474 61.5414 94.9423C61.6545 93.8109 61.5414 92.6795 61.0888 91.5481L58.5998 83.8546C58.2604 82.7232 58.0341 81.5918 58.1472 80.4604C58.1472 79.6684 58.4866 78.7633 58.826 78.0845C59.7312 76.8399 60.41 76.1611 60.9757 76.0479V75.9348L59.618 75.3691C58.9392 75.0297 58.2603 74.6903 57.5815 74.1246C56.6764 73.4457 55.9975 72.7669 55.3187 71.8618C54.5267 70.8435 53.961 69.7121 53.5085 68.4676L51.0194 60.8872C50.68 59.6427 50.0011 58.5113 49.2092 57.493C48.6435 56.5879 47.6252 56.1353 46.6069 56.1353L43.5522 56.3616L42.3076 52.5148L47.6252 52.1754C49.4354 52.0623 51.1325 52.628 52.6033 53.6462C54.1873 54.8908 55.3187 56.4747 55.8844 58.3981L58.5998 66.7705C59.1655 68.6939 60.1837 70.3909 61.5414 71.7486C62.6728 72.9932 64.2568 73.672 65.8407 73.7851L67.1984 77.6319C65.8407 77.6319 64.483 78.537 64.1436 79.8947C63.6911 81.5918 63.8042 83.402 64.3699 84.986L67.0853 93.4715C67.7641 95.0555 67.651 96.8657 66.859 98.3365C65.9539 99.5811 64.5962 100.373 63.0122 100.373L57.5815 100.712L56.9027 96.7526Z" stroke="#150652" stroke-width="1.1314" stroke-linecap="round" stroke-linejoin="round"/>
<path d="M311.355 67.4455C310.45 67.3324 309.658 66.8798 309.092 66.201L292.687 48.6643C291.329 47.1935 290.99 45.0438 291.895 43.9124L303.096 29.5437C304.001 28.4123 305.811 28.6385 307.169 30.1094C308.526 31.5802 308.866 33.7298 307.961 34.8612L298.344 47.0803L312.26 62.0148C313.618 63.4856 313.957 65.6353 313.052 66.7667C312.713 67.2193 312.034 67.5587 311.355 67.4455Z" fill="#8DADFF"/>
<path d="M311.692 68.0139H311.24C310.221 67.7876 309.316 67.335 308.637 66.5431L292.345 49.0064C290.761 47.3093 290.422 44.9333 291.44 43.5757L302.641 29.2069C303.094 28.6412 303.772 28.3018 304.451 28.3018C305.583 28.3018 306.714 28.8675 307.506 29.7726C309.09 31.4697 309.429 33.8456 308.411 35.2033L299.134 47.083L312.711 61.678C314.294 63.3751 314.634 65.7511 313.616 67.1088C313.163 67.6745 312.484 68.0139 311.692 68.0139ZM304.678 29.32C304.225 29.32 303.886 29.5463 303.659 29.7726L292.458 44.1414C291.78 45.0465 292.119 46.8567 293.25 48.1012L309.543 65.6379C309.995 66.2036 310.674 66.5431 311.466 66.6562C311.919 66.7693 312.484 66.5431 312.824 66.2036C313.503 65.2985 313.163 63.4883 312.032 62.2437L298.115 47.3093C297.889 47.083 297.889 46.7436 298.115 46.6304L307.732 34.4113C308.411 33.5062 308.072 31.6959 306.94 30.4514C306.375 29.7726 305.583 29.4332 304.678 29.32Z" fill="#150652"/>
<path d="M336.582 69.8223C335.677 69.7092 334.885 69.2566 334.319 68.5778C332.961 67.107 332.622 64.9573 333.527 63.8259L342.805 52.0594L328.436 36.5592C327.078 35.0884 326.739 32.9387 327.644 31.8073C328.549 30.6759 330.359 30.9022 331.717 32.373L348.575 50.4754C349.932 51.9462 350.272 54.0959 349.367 55.2273L338.505 69.1435C338.053 69.7092 337.374 69.9355 336.582 69.8223Z" fill="#8DADFF"/>
<path d="M336.923 70.3897H336.47C335.452 70.1634 334.547 69.7109 333.868 68.9189C332.284 67.2218 331.945 64.8458 332.963 63.4882L341.901 52.061L327.758 36.9003C326.174 35.2032 325.835 32.8272 326.853 31.4696C327.306 30.9039 327.985 30.5645 328.664 30.5645C329.908 30.5645 330.926 31.1301 331.718 32.0353L348.576 50.1377C350.16 51.8348 350.5 54.2107 349.481 55.5684L338.62 69.4846C338.394 70.0503 337.715 70.3897 336.923 70.3897ZM329.116 31.6959C328.664 31.6959 328.211 31.9221 327.985 32.1484C327.306 33.0535 327.645 34.8638 328.777 36.1083L343.259 51.6085C343.485 51.8348 343.485 52.1742 343.259 52.4005L333.981 64.167C333.302 65.0721 333.642 66.8824 334.773 68.1269C335.226 68.6926 335.904 69.032 336.696 69.1452C337.262 69.2583 337.715 69.032 338.054 68.6926L348.916 54.7764C349.594 53.8713 349.255 52.061 348.124 50.8165L331.266 32.7141C330.7 32.1484 329.908 31.6959 329.116 31.6959Z" fill="#150652"/>
<path d="M328.776 72.9903C327.305 72.6509 326.061 71.5195 325.495 70.0487L310.674 30.4497C309.995 28.6395 310.674 26.9424 312.031 26.7161C313.389 26.4898 315.312 27.8475 315.991 29.6577L330.812 69.2567C331.491 71.0669 330.812 72.764 329.342 72.9903C329.228 72.9903 329.002 72.9903 328.776 72.9903Z" fill="white"/>
<path d="M329.115 73.5562C329.002 73.5562 328.889 73.5562 328.663 73.5562C326.966 73.2167 325.495 71.9722 324.929 70.2751L310.108 30.6761C309.655 29.6579 309.655 28.4133 310.221 27.3951C310.56 26.7162 311.239 26.2637 312.031 26.1505C313.728 25.9242 315.765 27.2819 316.557 29.4316L331.378 69.0306C331.831 70.0488 331.831 71.2934 331.265 72.3116C330.925 72.9905 330.247 73.443 329.455 73.5562C329.455 73.5562 329.228 73.5562 329.115 73.5562ZM312.484 27.1688H312.257C311.805 27.1688 311.465 27.5082 311.239 27.8476C310.9 28.6396 310.9 29.4316 311.239 30.2236L326.06 69.8225C326.513 71.0671 327.531 72.0853 328.889 72.4248C329.002 72.4248 329.228 72.4248 329.341 72.4248C329.794 72.3116 330.134 72.0853 330.36 71.7459C330.699 70.9539 330.699 70.162 330.36 69.37L315.538 29.771C315.086 28.3002 313.841 27.3951 312.484 27.1688Z" fill="#150652"/>
</svg>
