<svg width="343" height="371" viewBox="0 0 343 371" fill="none" xmlns="http://www.w3.org/2000/svg">
<path d="M140.816 34.324C138.294 33.1653 135.156 37.0488 123.447 45.7755C111.599 54.6062 106.578 56.7652 107.073 60.264C107.261 61.5902 108.414 64.2969 116.255 66.8089C124.202 68.203 131.423 64.3965 136.598 58.63C138.356 55.7468 140.115 52.8636 141.868 49.9803C144.444 36.7908 141.796 34.7721 140.816 34.324Z" fill="#FFE5B2"/>
<mask id="mask0_37_554" style="mask-type:luminance" maskUnits="userSpaceOnUse" x="99" y="88" width="245" height="221">
<path d="M99.5859 88.0469H343.007V308.204H99.5859V88.0469Z" fill="white"/>
</mask>
<g mask="url(#mask0_37_554)">
<path d="M100.961 111.366C99.4619 174.358 105.996 237.106 120.391 298.635L279.447 307.299L303.639 276.421L342.993 269.916C315.948 209.414 288.898 148.912 261.853 88.4092C208.219 96.0631 154.59 103.712 100.961 111.366Z" fill="#8189FF"/>
</g>
<mask id="mask1_37_554" style="mask-type:luminance" maskUnits="userSpaceOnUse" x="225" y="88" width="119" height="221">
<path d="M225.044 88.0469H343.007V308.204H225.044V88.0469Z" fill="white"/>
</mask>
<g mask="url(#mask1_37_554)">
<path d="M279.446 307.299C261.578 236.019 243.709 164.735 225.846 93.4514C237.848 91.7722 249.85 90.0884 261.851 88.4092L342.992 269.916L303.637 276.421L279.446 307.299Z" fill="#5247BD"/>
</g>
<path d="M174.481 42.9241C165.847 35.999 155.224 33.3013 146.59 39.8101C137.803 46.432 133.32 59.5536 130.288 70.842C126.464 85.0726 125.037 100.715 127.021 115.969C127.247 117.68 132.263 117.155 132.162 115.335C131.35 100.417 132.22 85.8149 135.953 71.8288C139.004 60.3774 145.668 37.9996 159.318 40.3623C165.247 41.3852 170.638 46.2147 175.082 50.827C192.181 68.5925 200.354 89.4449 205.735 112.361C206.225 114.457 211.443 113.828 211.198 111.687C208.171 85.5116 191.076 56.2313 174.481 42.9241Z" fill="#8189FF"/>
<path d="M252.725 125.293C245.465 106.998 244.591 104.653 241.554 97.5744C241.304 96.9905 240.425 97.416 240.632 97.9863C246.061 113.086 257.116 140.47 258.471 143.507C258.779 144.19 259.783 143.692 259.552 143.023C257.496 137.052 255.06 131.173 252.725 125.293Z" fill="#E5E5FF"/>
<path d="M288.543 222.824C275.383 187.456 276.877 192.041 275.1 187.542C274.893 187.026 274.115 187.397 274.288 187.904C275.647 191.792 274.225 188.23 278.266 199.274C278.304 199.369 292.286 237.485 295.702 245.714C295.923 246.243 296.922 245.962 296.735 245.401C294.222 237.806 291.339 230.329 288.543 222.824Z" fill="#E5E5FF"/>
<mask id="mask2_37_554" style="mask-type:luminance" maskUnits="userSpaceOnUse" x="0" y="100" width="243" height="271">
<path d="M0.765625 100.793H242.265V370.626H0.765625V100.793Z" fill="white"/>
</mask>
<g mask="url(#mask2_37_554)">
<path d="M61.236 101.901C32.6774 165.884 12.4403 232.66 0.793945 301.197L160.057 370.634L198.095 348.206L241.217 356.526C239.463 284.232 237.709 211.935 235.956 139.641C177.714 127.063 119.477 114.484 61.236 101.901Z" fill="#D1CFFF"/>
</g>
<mask id="mask3_37_554" style="mask-type:luminance" maskUnits="userSpaceOnUse" x="159" y="130" width="84" height="241">
<path d="M159.856 130.92H242.265V370.626H159.856V130.92Z" fill="white"/>
</mask>
<g mask="url(#mask3_37_554)">
<path d="M160.058 370.634C172.338 290.791 184.619 210.943 196.895 131.096C209.915 133.947 222.936 136.794 235.956 139.641L241.217 356.526L198.096 348.206L160.058 370.634Z" fill="#5247BD"/>
</g>
<path d="M165.943 59.7618C160.067 49.3831 150.342 42.5711 138.701 45.9523C126.857 49.3967 116.628 61.1333 108.681 71.5437C98.6541 84.6743 90.4767 100.159 85.9699 116.544C85.4654 118.381 90.8322 119.753 91.5096 117.847C97.0782 102.254 104.237 87.6255 114.058 74.7121C122.101 64.1387 138.532 43.748 151.505 51.3656C157.141 54.6743 160.595 61.6719 163.166 68.0947C166.269 75.8391 168.441 84.1402 169.772 92.6722C172.357 109.27 171.04 125.863 168.172 142.814C167.778 145.15 173.395 146.494 174.062 144.204C182.187 116.236 177.238 79.7181 165.943 59.7618Z" fill="#D1CFFF"/>
<path d="M210.776 173.96C211.189 152.447 211.299 149.713 211.222 141.303C211.218 140.611 210.137 140.71 210.103 141.376C209.185 158.915 208.762 191.187 208.849 194.813C208.868 195.627 210.108 195.501 210.161 194.727C210.617 187.824 210.646 180.876 210.776 173.96Z" fill="#E5E5FF"/>
<path d="M205.629 287.537C207.301 246.629 206.888 251.264 206.989 246.267C207.004 245.66 206.043 245.742 206.004 246.33C205.73 250.834 205.798 246.638 205.202 259.492L203.525 298.939C203.323 303.868 203.155 308.783 203.141 313.717C203.141 314.346 204.284 314.437 204.332 313.794C205.019 305.054 205.269 296.291 205.629 287.537Z" fill="#E5E5FF"/>
<path d="M59.9488 132.305C43.786 163.817 30.5541 205.481 23.8757 239.464C22.9869 243.999 21.8962 248.639 21.7233 253.256C21.6896 254.125 23.0589 254.274 23.3088 253.459C25.2643 247.104 26.7585 232.933 34.5228 205.454C42.7723 176.264 51.3245 155.837 61.3277 132.848C61.6496 132.11 60.3187 131.581 59.9488 132.305Z" fill="#5247BD"/>
<path d="M16.6587 274.8C16.2696 274.701 15.8035 274.922 15.7122 275.307C15.1069 277.819 14.4342 280.336 14.1555 282.902C14.0691 283.69 15.3519 283.794 15.5825 283.083C16.3561 280.68 16.7356 278.163 17.1921 275.692C17.2641 275.307 17.0816 274.913 16.6587 274.8Z" fill="#5247BD"/>
<path d="M138.135 348.397C136.612 347.315 135.33 346.876 128.925 344.196L105.512 334.519C104.292 334.017 102.586 332.971 101.236 333.261C100.818 333.351 100.655 333.822 100.852 334.152C101.39 335.067 100.928 334.682 127.94 346.188C134.22 348.831 135.637 349.515 137.482 349.859C138.462 350.04 138.904 348.935 138.135 348.397Z" fill="#5247BD"/>
<path d="M271.098 298.292C269.599 297.495 267.956 297.283 266.288 296.952C258.692 295.458 254.777 294.675 251.817 294.463C250.779 294.39 250.693 295.798 251.582 296.088C254.315 296.975 257.15 297.495 265.832 299.165C267.451 299.478 269.022 299.899 270.685 299.736C271.444 299.659 271.871 298.699 271.098 298.292Z" fill="#5247BD"/>
<path d="M227.034 347.206C223.709 345.726 220.38 344.798 214.768 343.11C211.702 342.187 212.298 342.323 210.323 342.019C209.56 341.902 208.949 342.902 209.757 343.296C210.434 343.626 211.001 343.957 211.731 344.187C218.823 346.46 222.796 347.827 226.453 348.505C227.236 348.65 227.856 347.573 227.034 347.206Z" fill="#E5E5FF"/>
<path d="M71.115 67.711C63.9513 61.845 54.3132 55.0647 31.1262 38.6842C27.3209 35.9956 23.5973 32.9811 19.5086 30.6863C18.2834 29.9983 16.8949 31.6277 17.9663 32.5692C20.705 34.9726 21.0365 34.9545 38.04 46.9672C44.7905 51.7379 51.5794 56.4542 58.3491 61.1932C62.1928 63.8863 66.1182 66.4437 70.1492 68.8878C70.8988 69.3405 71.802 68.2723 71.115 67.711Z" fill="#5247BD"/>
<path d="M90.156 54.032C89.8725 52.5791 89.6419 52.4207 88.1092 50.2933C84.5826 45.3959 75.3962 33.7363 68.3094 26.1322C67.6464 25.417 66.3684 26.3495 66.9113 27.1506C71.9177 34.5058 77.467 41.4264 83.1268 48.252C86.9465 52.8597 87.8594 53.9415 89.3296 54.6295C89.786 54.8422 90.2425 54.4937 90.156 54.032Z" fill="#5247BD"/>
<path d="M65.1428 78.274C58.1857 76.4409 50.6953 75.3364 33.0528 72.503C29.5358 71.9372 25.9852 71.2176 22.4202 71.0501C21.3679 71.0003 21.2334 72.4396 22.1799 72.7203C25.6248 73.7432 29.2619 74.232 32.8125 74.8657C52.3193 78.3419 58.277 79.4282 64.9025 79.9487C65.9355 80.0302 66.0989 78.5275 65.1428 78.274Z" fill="#5247BD"/>
<path d="M107.005 195.618L131.72 177.133L135.319 206.667L166.674 210.057L147.047 233.34L166.674 256.623L135.319 260.008L131.72 289.547L107.005 271.057L82.2856 289.547L78.6869 260.008L47.332 256.623L66.9589 233.34L47.332 210.057L78.6869 206.667L82.2856 177.133L107.005 195.618Z" fill="#FFE4AE"/>
<path d="M99.5919 217.335C97.1271 213.632 91.7075 212.374 88.1425 215.511C87.9695 215.66 87.8254 215.828 87.6908 216C79.3596 220.385 79.6335 229.551 84.9907 232.534C93.9561 237.522 104.8 225.138 99.5919 217.335ZM95.2389 223.545C94.5086 226.116 90.3766 229.958 87.2873 228.32C84.5198 226.849 85.8026 222.92 87.2008 221.092C87.4122 220.815 87.638 220.544 87.8686 220.281C88.4067 220.571 89.1563 220.603 90.1364 220.191C91.549 219.602 92.5051 218.29 94.2107 219.408C95.5848 220.309 95.6233 222.205 95.2389 223.545Z" fill="#FF6A00"/>
<path d="M131.466 240.129C129.001 236.431 123.582 235.169 120.017 238.31C119.844 238.459 119.699 238.627 119.565 238.799C111.234 243.185 111.512 252.35 116.865 255.329C125.83 260.316 136.674 247.937 131.466 240.129ZM127.113 246.344C126.383 248.915 122.251 252.758 119.161 251.115C116.394 249.648 117.677 245.719 119.075 243.891C119.286 243.61 119.512 243.343 119.743 243.08C120.281 243.366 121.03 243.397 122.01 242.99C123.423 242.402 124.379 241.089 126.085 242.207C127.459 243.108 127.497 245.004 127.113 246.344Z" fill="#FF6A00"/>
<path d="M114.972 209.79C114.799 208.844 113.435 208.106 112.676 209.038C110.244 212.017 109.726 215.946 108.688 219.521C106.66 226.501 105.137 232.403 101.865 244.751C100.818 248.697 99.3091 253.02 100.155 257.089C100.323 257.881 101.409 258.483 102.067 257.718C104.902 254.432 105.406 251.219 109.701 234.77C110.802 230.556 111.912 226.351 112.906 222.115C113.829 218.204 115.693 213.791 114.972 209.79Z" fill="#FF6A00"/>
<path d="M224.099 0.77153C175.366 28.9112 145.664 15.4321 133.595 32.1294C131.346 35.2344 130.246 41.0597 128.045 52.7103C125.047 68.5522 126.902 73.6895 129.434 76.8805C130.409 78.1161 132.994 81.3343 136.727 81.2347C140.749 81.1261 143.3 76.8805 143.3 76.8805C143.3 76.8805 151.627 89.296 157.522 74.5947C157.522 74.5947 161.51 88.8796 170.35 76.5546C170.35 76.5546 174.501 83.8599 182.222 79.4966C189.939 75.1288 211.04 56.3041 211.04 56.3041C211.04 56.3041 245.254 51.0763 247.334 46.1744C249.415 41.277 233.963 -4.79576 224.099 0.77153Z" fill="#FFE5B2"/>
<path d="M144.554 60.5005C144.876 58.5769 145.395 56.6442 145.491 54.6933C145.524 54.0235 144.429 53.7202 144.112 54.3448C142.603 57.3005 140.888 66.6291 141.772 75.5956C141.854 76.3967 141.839 77.2205 142.651 77.6505C142.906 77.7863 143.189 77.732 143.401 77.56C144.131 76.967 143.891 76.0256 143.833 75.2063C143.492 70.1143 143.872 64.5515 144.554 60.5005Z" fill="#5247BD"/>
<path d="M161.849 51.4428C160.802 53.1989 160.245 55.3308 159.596 57.2454C157.636 63.0481 155.882 69.9778 155.445 76.1199C155.392 76.8667 156.699 77.0478 156.843 76.3009C157.948 70.6069 158.871 65.1482 161.153 58.0511C161.797 56.046 162.782 54.0363 163.228 51.9904C163.392 51.2345 162.287 50.7095 161.849 51.4428Z" fill="#5247BD"/>
<path d="M179.335 56.1729C179.253 55.8516 178.821 55.589 178.475 55.7112C177.567 56.0417 177.326 56.7613 176.904 57.5489C174.732 61.5863 172.43 66.5516 170.931 70.8606C170.331 72.5896 169.375 74.5857 169.452 76.4279C169.476 76.9213 170.11 77.0525 170.398 76.6678C171.465 75.242 171.873 73.2776 172.517 71.6572C174.41 66.8866 176.125 62.9849 178.58 58.4677C178.998 57.7028 179.556 57.051 179.335 56.1729Z" fill="#5247BD"/>
<path d="M131.394 40.3032C131.235 39.8369 130.63 39.6695 130.245 40.018C129.534 40.6653 129.429 41.8828 129.188 42.7519C128.962 43.5666 128.972 43.5621 127.79 48.1924C127.545 49.1475 127.19 50.1387 127.127 51.1254C127.084 51.827 128.261 52.1619 128.583 51.4966C128.977 50.6818 128.962 50.4736 130.212 45.9202C130.462 45.015 130.721 44.1143 130.947 43.209C131.168 42.3354 131.696 41.1858 131.394 40.3032Z" fill="#5247BD"/>
</svg>
