<svg width="296" height="378" viewBox="0 0 296 378" fill="none" xmlns="http://www.w3.org/2000/svg">
<path d="M291.571 320.545C291.571 320.645 291.465 320.745 291.359 320.845V320.945C289.445 323.749 286.575 325.952 283.28 327.154C282.43 327.454 281.579 327.655 280.729 327.855L272.756 329.557L125.319 360.501C116.602 362.303 107.78 357.497 105.228 349.385L19.1259 74.0978L12.8542 53.9694C12.5353 52.8679 12.3227 51.6662 12.2164 50.4645C12.0038 47.4603 12.7479 44.4561 14.2361 41.7522C16.5747 37.6465 20.7204 34.7424 25.5038 33.741L180.807 1.09503C189.63 -0.707505 198.347 4.09926 200.898 12.3108L293.379 307.727C294.76 311.932 294.123 316.639 291.571 320.545Z" fill="white"/>
<path d="M121.705 361.302C113.945 361.302 107.036 356.495 104.803 349.385L12.3228 53.9697C11.8976 52.768 11.685 51.5663 11.685 50.3646C11.4724 47.2602 12.2165 44.1558 13.811 41.452C16.2559 37.2461 20.5079 34.1418 25.5039 33.1404L180.808 0.494404C189.843 -1.40827 198.878 3.59878 201.536 12.0106L294.016 307.426C295.398 311.933 294.654 316.739 292.103 320.745C291.997 320.845 291.997 320.945 291.89 321.046C289.977 324.05 287.001 326.353 283.599 327.555C282.749 327.855 281.898 328.156 281.048 328.256L125.638 360.801C124.256 361.202 122.981 361.302 121.705 361.302ZM184.528 1.19539C183.359 1.19539 182.083 1.29553 180.914 1.59596L25.6102 34.1418C20.9331 35.1432 17 37.9471 14.6614 41.9527C12.5354 45.5578 12.1102 49.8639 13.3858 53.7694L105.866 349.185C108.311 356.996 116.815 361.703 125.319 360L280.623 327.354C281.473 327.154 282.217 326.954 283.068 326.653C286.257 325.452 289.02 323.349 290.934 320.645C291.04 320.545 291.04 320.445 291.146 320.345C293.591 316.639 294.229 312.033 292.953 307.827L200.473 12.4112C198.347 5.80187 191.863 1.19539 184.528 1.19539Z" fill="#3767A6"/>
<path d="M121.386 347.082C120.429 346.982 119.579 346.281 119.26 345.38L26.7791 49.9641C26.7791 49.864 26.6729 49.6637 26.6729 49.5635V49.3633C26.6729 48.9627 26.7791 48.5621 26.8854 48.2617C27.2043 47.6609 27.8421 47.2603 28.5862 47.06L183.996 14.4141C184.315 14.4141 184.528 14.4141 184.847 14.4141C185.803 14.5142 186.654 15.2152 186.973 16.1165L279.453 311.532C279.666 312.133 279.559 312.834 279.24 313.335L279.028 313.635C278.709 313.936 278.39 314.236 277.965 314.336L277.859 314.436L277.54 314.536L122.236 347.082C122.024 347.082 121.705 347.182 121.386 347.082Z" fill="white"/>
<path d="M121.705 347.584H121.386C120.217 347.483 119.154 346.682 118.835 345.581L26.3543 50.165C26.248 49.9647 26.248 49.7644 26.248 49.6643V49.464C26.248 48.9633 26.3543 48.5627 26.5669 48.062V47.9619C26.9921 47.2609 27.7362 46.6601 28.5866 46.5599L183.89 13.914C184.209 13.8138 184.528 13.8138 184.847 13.914C186.016 14.0141 187.079 14.8152 187.398 15.9168L279.879 311.333C280.091 312.134 279.985 312.935 279.56 313.536L279.347 313.736C279.028 314.137 278.603 314.537 278.072 314.637L277.965 314.737L277.646 314.838L122.237 347.383C122.13 347.584 121.918 347.584 121.705 347.584ZM121.492 346.582C121.705 346.582 121.918 346.582 122.13 346.582L277.434 314.036H277.646L277.753 313.936C278.072 313.836 278.39 313.636 278.497 313.335L278.603 313.135C278.922 312.735 278.922 312.234 278.816 311.733L186.335 16.3174C186.123 15.6164 185.485 15.1157 184.634 15.0155C184.422 15.0155 184.209 15.0155 183.997 15.0155L28.6929 47.5613C28.1614 47.6615 27.6299 48.062 27.4173 48.4626C27.2047 48.763 27.2047 49.0634 27.2047 49.3639V49.5642C27.2047 49.6643 27.2047 49.7644 27.311 49.8646L119.792 345.28C120.111 345.981 120.748 346.482 121.492 346.582Z" fill="#3767A6"/>
<path d="M291.36 320.845L280.73 336.567L280.411 336.968L280.304 337.068C277.86 340.473 274.139 342.876 269.887 343.777L114.583 376.423C105.867 378.226 97.0441 373.419 94.4929 365.308L2.01229 69.892C0.736695 65.9865 1.1619 61.6805 3.18159 58.0754V57.9752L4.77608 55.672L14.1304 41.8525C12.6422 44.4562 11.8981 47.4604 12.1107 50.5648C12.217 51.7665 12.4296 52.9682 12.7485 54.0697L19.0202 74.1981L105.123 349.486C107.674 357.597 116.391 362.504 125.213 360.601L272.545 329.658L280.517 327.955C281.367 327.755 282.218 327.555 283.068 327.254C286.47 325.952 289.34 323.749 291.36 320.845Z" fill="#3767A6"/>
<path d="M110.969 377.325C103.209 377.325 96.2994 372.518 94.0671 365.408L1.58651 69.9926C0.310916 65.8869 0.736112 61.5808 2.7558 57.7755C2.7558 57.6753 2.8621 57.5752 2.8621 57.5752L13.811 41.4525C14.0236 41.2522 14.3424 41.1521 14.555 41.3523C14.7676 41.4525 14.8739 41.7529 14.7676 41.9532C12.6417 45.5583 12.2165 49.8643 13.4921 53.7698L105.973 349.186C108.418 356.997 116.921 361.703 125.425 360.001L280.729 327.355C281.579 327.155 282.324 326.954 283.174 326.654C286.363 325.452 289.127 323.349 291.04 320.645C291.146 320.445 291.465 320.345 291.784 320.445C291.997 320.545 292.103 320.846 291.997 321.146L281.048 337.369C278.497 340.874 274.67 343.377 270.312 344.279L114.902 376.925C113.52 377.225 112.244 377.325 110.969 377.325ZM3.8188 58.176C1.90541 61.7811 1.48021 65.8869 2.64951 69.7924L95.1301 365.208C97.575 373.019 106.079 377.726 114.477 376.023L269.78 343.377C273.926 342.476 277.54 340.173 279.879 336.868L280.304 336.368L287.745 325.352C285.725 326.854 283.387 327.856 280.942 328.356L125.638 361.002C116.603 362.905 107.567 357.898 104.91 349.486L12.4291 54.0702C12.0039 52.8685 11.7913 51.6669 11.7913 50.4652C11.685 48.963 11.7913 47.4609 12.1102 45.9588L3.8188 58.176Z" fill="#3767A6"/>
<path d="M120.961 260.862L230.875 238.43C236.296 237.329 239.804 232.221 238.635 227.114C238.635 226.914 238.529 226.714 238.422 226.413L212.06 141.293C210.572 136.487 205.363 133.583 200.154 134.684L90.2407 157.116C84.8194 158.217 81.3115 163.324 82.4808 168.432C82.4808 168.632 82.5871 168.832 82.6934 169.133L109.056 254.252C110.544 259.059 115.753 261.963 120.961 260.862Z" fill="white"/>
<path d="M118.835 261.663C114.051 261.663 109.906 258.759 108.63 254.452L82.2677 169.333C80.5669 164.025 83.8622 158.417 89.496 156.915C89.7086 156.815 90.0275 156.815 90.2401 156.715L200.154 134.283C205.575 133.182 211.103 136.186 212.697 141.293L239.059 226.413C240.76 231.721 237.465 237.328 231.831 238.831C231.618 238.931 231.3 238.931 231.087 239.031L121.173 261.462C120.323 261.563 119.579 261.663 118.835 261.663ZM202.386 134.984C201.748 134.984 201.004 135.085 200.366 135.185L90.4527 157.616C85.244 158.618 81.9488 163.424 83.1181 168.331C83.1181 168.532 83.2244 168.732 83.3307 169.032L109.693 254.152C111.075 258.759 115.965 261.462 120.961 260.461L230.874 238.029C236.083 237.028 239.378 232.221 238.209 227.314C238.209 227.114 238.103 226.914 237.996 226.613L211.634 141.494C210.359 137.588 206.638 134.984 202.386 134.984Z" fill="#3767A6"/>
<path d="M226.303 167.33L226.515 168.131L232.787 193.367C232.255 192.666 230.767 192.466 228.216 192.966C222.795 194.268 194.732 199.576 194.732 199.576L187.822 173.138C188.035 173.138 222.901 165.227 226.303 167.33Z" fill="white"/>
<path d="M194.839 200.076C194.627 200.076 194.414 199.876 194.308 199.675L187.398 173.238C187.398 173.138 187.398 172.938 187.505 172.838C187.611 172.738 187.717 172.637 187.824 172.637C191.438 171.836 223.009 164.726 226.623 166.929C226.729 167.03 226.836 167.13 226.836 167.23L227.048 168.031L233.32 193.266C233.426 193.467 233.214 193.767 233.001 193.867C232.788 193.967 232.469 193.867 232.363 193.667C232.044 193.166 230.769 192.966 228.43 193.467C223.009 194.769 195.265 199.976 194.839 200.076ZM188.674 173.539L195.265 198.974C199.091 198.273 223.221 193.667 228.217 192.565C229.493 192.165 230.769 192.165 232.044 192.365L225.879 167.731C222.902 166.429 202.28 170.434 188.674 173.539Z" fill="#3767A6"/>
<path d="M232.894 193.367C233.426 194.268 232.469 195.771 229.599 197.473L228.323 192.967C230.768 192.466 232.363 192.666 232.894 193.367Z" fill="#3767A6"/>
<path d="M229.599 197.973C229.493 197.973 229.493 197.973 229.387 197.973C229.28 197.873 229.068 197.773 229.068 197.673L227.792 193.166C227.686 192.866 227.899 192.666 228.217 192.566C230.875 191.965 232.682 192.165 233.32 193.166C234.17 194.368 232.788 196.171 229.812 197.973C229.706 197.973 229.706 197.973 229.599 197.973ZM228.962 193.367L229.918 196.671C232.151 195.169 232.682 194.068 232.469 193.667C232.151 193.266 230.981 192.966 228.962 193.367Z" fill="#3767A6"/>
<path d="M213.255 189.252C217.029 187.116 218.349 182.655 216.202 179.289C214.056 175.923 209.256 174.927 205.481 177.063C201.707 179.199 200.388 183.659 202.534 187.025C204.681 190.391 209.481 191.388 213.255 189.252Z" fill="#3767A6"/>
<path d="M208.977 190.964C208.339 190.964 207.808 190.864 207.17 190.763C203.024 189.962 200.261 186.057 201.111 182.151C201.111 181.951 201.217 181.751 201.217 181.55C201.855 179.548 203.237 177.845 205.15 176.744C208.871 174.44 213.867 175.342 216.312 178.847C218.757 182.352 217.8 187.058 214.08 189.361C213.867 189.462 213.654 189.562 213.442 189.662C212.166 190.463 210.572 190.964 208.977 190.964ZM209.721 176.543C208.339 176.543 206.957 176.944 205.682 177.645C203.981 178.546 202.705 180.148 202.174 181.851C201.111 185.155 203.131 188.66 206.639 189.662C206.851 189.762 207.064 189.762 207.276 189.762C209.19 190.163 211.209 189.862 212.91 188.861C216.418 187.058 217.694 182.852 215.674 179.648C214.505 177.645 212.166 176.443 209.721 176.543Z" fill="#3767A6"/>
<path d="M211.121 185.904C212.832 184.936 213.435 182.921 212.468 181.404C211.5 179.887 209.329 179.442 207.618 180.411C205.907 181.379 205.304 183.394 206.271 184.911C207.239 186.428 209.41 186.873 211.121 185.904Z" fill="white"/>
<path d="M209.189 186.957C208.871 186.957 208.552 186.957 208.339 186.857C207.276 186.657 206.426 186.056 205.788 185.155C204.831 183.152 205.682 180.849 207.807 179.947C209.615 179.146 211.741 179.647 212.91 181.149C213.441 182.05 213.654 183.052 213.335 184.053C212.804 185.856 211.103 187.057 209.189 186.957ZM209.508 180.448C208.87 180.448 208.339 180.648 207.807 180.849C206.319 181.65 205.788 183.352 206.638 184.654C207.063 185.255 207.701 185.756 208.445 185.856C210.146 186.156 211.741 185.255 212.272 183.753C212.485 183.052 212.378 182.351 211.953 181.65C211.528 180.949 210.571 180.448 209.508 180.448Z" fill="#3767A6"/>
<path d="M97.7867 217.601C97.5741 217.601 97.3615 217.401 97.2552 217.2C97.1489 216.9 97.3615 216.7 97.6804 216.599L129.889 209.489L143.495 195.269C143.708 195.069 144.027 195.069 144.24 195.269C144.452 195.47 144.452 195.77 144.24 195.97L130.527 210.29C130.421 210.391 130.314 210.391 130.208 210.391L97.893 217.601H97.7867Z" fill="#3767A6"/>
<path d="M138.925 225.112H138.819L117.347 220.405L99.9135 223.91C99.5946 224.01 99.382 223.81 99.2757 223.51C99.1694 223.209 99.382 223.009 99.7009 222.909L117.347 219.304C117.453 219.304 117.453 219.304 117.559 219.304L139.032 224.01L158.697 220.005C159.016 219.905 159.229 220.105 159.335 220.405C159.441 220.706 159.229 220.906 158.91 221.006L139.138 225.012L138.925 225.112Z" fill="#3767A6"/>
<path d="M127.87 216.9C127.551 216.9 127.339 216.7 127.232 216.5C127.232 216.199 127.445 215.999 127.658 215.899L136.799 214.096L148.173 200.878C148.386 200.678 148.705 200.678 148.918 200.778C149.13 200.978 149.13 201.278 149.024 201.479L137.543 214.898C137.437 214.998 137.331 215.098 137.225 215.098L127.87 216.9Z" fill="#3767A6"/>
<path d="M95.2349 209.29C95.0223 209.29 94.8097 209.09 94.7034 208.89C94.5971 208.589 94.8097 208.389 95.1286 208.289L114.9 204.383L127.444 189.162C127.656 188.962 127.975 188.962 128.188 189.162C128.4 189.362 128.4 189.562 128.294 189.863L115.644 205.285C115.538 205.385 115.432 205.485 115.326 205.485L95.3412 209.39L95.2349 209.29Z" fill="#3767A6"/>
<path d="M137.012 232.821H136.8L116.922 227.714L102.146 231.419C101.827 231.52 101.614 231.319 101.508 231.119C101.402 230.819 101.614 230.618 101.933 230.518L116.815 226.713C116.922 226.713 117.028 226.713 117.134 226.713L137.118 231.82C137.437 231.92 137.544 232.12 137.544 232.421C137.437 232.621 137.225 232.821 137.012 232.821Z" fill="#3767A6"/>
<path d="M124.149 205.584C124.043 205.584 123.937 205.584 123.831 205.484C123.618 205.284 123.512 204.983 123.724 204.783L139.669 184.454C139.882 184.254 140.201 184.154 140.413 184.354C140.626 184.555 140.732 184.855 140.52 185.055L124.575 205.384C124.468 205.484 124.362 205.584 124.149 205.584Z" fill="#3767A6"/>
<path d="M105.866 154.412C105.76 154.412 105.653 154.412 105.547 154.312C105.441 154.212 105.334 154.112 105.334 153.911C103.846 131.58 116.815 112.954 125.319 100.636C127.551 97.532 129.571 94.3274 131.484 91.1229C135.523 83.4121 136.48 77.704 136.693 75.0002C136.799 74.2993 137.118 73.5983 137.649 73.0976C138.287 72.5969 139.031 72.3966 139.775 72.4967L190.374 76.4022C191.756 76.5024 192.819 77.5038 193.032 78.8056C193.563 82.4107 193.988 92.2245 187.823 104.141C185.059 109.449 181.87 114.556 178.256 119.363C172.835 127.174 168.157 133.983 168.37 141.294C168.37 141.494 168.157 141.794 167.945 141.794L105.972 154.412H105.866ZM139.563 73.4981C139.138 73.4981 138.712 73.5983 138.394 73.8987C137.968 74.1991 137.756 74.5997 137.756 75.1004C137.543 77.9043 136.586 83.7125 132.441 91.5235C130.527 94.8281 128.508 98.1328 126.169 101.237C117.771 113.354 105.122 131.68 106.291 153.31L167.307 140.793C167.201 133.282 171.984 126.473 177.405 118.662C180.913 113.855 183.996 108.848 186.866 103.641C192.819 91.9241 192.394 82.4107 191.969 78.8056C191.862 78.0045 191.224 77.4036 190.374 77.3035L139.775 73.398L139.563 73.4981Z" fill="#3767A6"/>
<path d="M112.563 153.11C112.244 153.11 112.032 152.91 112.032 152.609C110.756 133.282 121.386 118.061 129.89 105.743L130.953 104.141C133.398 100.837 135.524 97.4317 137.543 93.9268C138.925 91.3231 140.095 88.6193 141.051 85.9155C141.158 85.7152 141.37 85.5149 141.583 85.6151C145.516 85.9155 149.13 83.6123 150.299 80.1073C150.406 79.9071 150.618 79.7068 150.831 79.8069L180.382 82.1102C180.488 82.1102 180.701 82.2103 180.807 82.3104C180.914 82.4106 180.914 82.6108 180.914 82.711C180.701 84.0128 181.02 85.4148 181.87 86.4162C182.721 87.5178 184.103 88.2187 185.484 88.3189C185.591 88.3189 185.803 88.419 185.91 88.5192C186.016 88.6193 186.016 88.7195 186.016 88.9197C185.272 93.3259 183.784 97.5319 181.764 101.537C179.107 106.545 176.13 111.351 172.729 115.958C166.882 124.37 161.461 132.181 161.78 141.594C161.78 141.894 161.567 142.095 161.248 142.095C160.929 142.095 160.717 141.894 160.717 141.594C160.398 131.88 165.925 123.869 171.878 115.357C175.173 110.75 178.256 106.044 180.807 101.037C182.721 97.3316 184.103 93.3259 184.847 89.2202C183.358 88.9197 181.977 88.2187 181.02 87.0171C180.063 85.9155 179.638 84.4134 179.744 83.0114L151.256 80.8083C149.768 84.4134 146.047 86.7166 142.008 86.6165C141.051 89.2202 139.882 91.8238 138.606 94.3273C136.587 97.9324 134.354 101.337 132.016 104.642L130.953 106.244C122.555 118.361 112.032 133.482 113.307 152.509C113.307 152.81 113.095 153.01 112.776 153.01L112.563 153.11Z" fill="#3767A6"/>
<path d="M144.985 138.49C154.202 138.49 161.674 132.661 161.674 125.471C161.674 118.282 154.202 112.453 144.985 112.453C135.768 112.453 128.296 118.282 128.296 125.471C128.296 132.661 135.768 138.49 144.985 138.49Z" fill="white"/>
<path d="M144.984 138.99C135.417 138.99 127.764 132.882 127.764 125.471C127.764 118.061 135.524 111.952 144.984 111.952C154.445 111.952 162.311 118.061 162.311 125.471C162.311 132.882 154.551 138.99 144.984 138.99ZM144.984 112.954C136.055 112.954 128.827 118.561 128.827 125.471C128.827 132.381 136.055 137.989 144.984 137.989C153.913 137.989 161.248 132.381 161.248 125.471C161.248 118.561 153.913 112.954 144.984 112.954Z" fill="#3767A6"/>
<path d="M159.548 142.996L120.323 151.008C125.532 136.788 134.142 129.678 141.796 129.077C146.26 128.676 150.3 130.579 153.17 134.484C155.296 137.489 157.422 140.393 159.548 142.996Z" fill="#3767A6"/>
<path d="M120.323 151.509C120.216 151.509 120.004 151.408 119.897 151.308C119.791 151.208 119.685 151.008 119.791 150.808C123.512 140.593 131.271 129.277 141.689 128.476C146.366 128.076 150.618 130.078 153.594 134.084L153.913 134.485C156.039 137.389 157.953 140.092 159.972 142.596C160.185 142.796 160.079 143.097 159.866 143.297C159.76 143.297 159.76 143.397 159.653 143.397L120.323 151.509ZM142.858 129.477C142.539 129.477 142.22 129.477 141.901 129.477C135.523 129.978 126.807 135.686 121.279 150.307L158.697 142.696C156.89 140.393 155.083 137.889 153.169 135.186L152.85 134.785C150.512 131.48 146.791 129.477 142.858 129.477Z" fill="#3767A6"/>
<path d="M220.564 147.101L176.024 155.713C169.859 154.712 164.756 149.705 159.441 142.995C157.422 140.392 155.296 137.487 153.063 134.483C150.193 130.578 146.048 128.675 141.689 129.076C141.689 129.076 171.879 121.865 179.319 121.265C179.745 121.265 180.17 121.265 180.595 121.265C184.528 121.865 189.205 122.967 196.859 130.678C204.512 138.389 220.564 147.101 220.564 147.101Z" fill="white"/>
<path d="M176.024 156.215C169.22 155.113 163.905 149.305 159.122 143.296C157.102 140.793 155.189 138.089 153.063 135.185L152.744 134.784C149.98 131.079 146.153 129.277 141.901 129.577C141.583 129.577 141.37 129.477 141.264 129.176C141.264 128.876 141.37 128.676 141.689 128.576C142.964 128.275 171.984 121.365 179.425 120.765C179.957 120.765 180.382 120.765 180.913 120.765C185.272 121.466 189.949 122.767 197.39 130.378C204.831 137.989 220.776 146.601 220.882 146.701C221.095 146.801 221.201 147.002 221.095 147.202C221.095 147.402 220.882 147.602 220.669 147.602L176.024 156.215ZM145.303 128.676C148.705 129.377 151.681 131.38 153.594 134.083L153.913 134.484C156.039 137.388 157.953 140.092 159.972 142.595C164.65 148.504 169.752 154.011 176.024 155.113L219.181 146.801C215.354 144.598 203.024 137.488 196.646 130.979C189.311 123.569 184.953 122.367 180.701 121.666C180.276 121.666 179.85 121.666 179.531 121.666C173.579 122.167 153.382 126.773 145.303 128.676Z" fill="#3767A6"/>
<path d="M154.444 128.976C162.098 133.082 165.818 141.293 170.602 146.601C174.535 145.9 178.681 147.302 181.232 150.206L203.767 146.4C202.704 145.8 202.385 144.498 203.023 143.496C203.342 142.996 203.874 142.595 204.511 142.495C200.153 139.991 196.22 136.887 192.606 133.482C183.145 124.47 179.425 123.568 179.425 123.568" fill="white"/>
<path d="M181.232 150.707C181.126 150.707 180.913 150.607 180.807 150.507C178.362 147.703 174.429 146.401 170.708 147.102C170.496 147.102 170.283 147.102 170.177 146.901C168.689 145.099 167.2 143.296 165.925 141.394C162.736 136.887 159.441 132.281 154.232 129.477C154.019 129.377 153.913 129.076 154.019 128.776C154.126 128.576 154.444 128.476 154.763 128.576C160.185 131.48 163.693 136.487 166.881 140.793C168.263 142.696 169.539 144.498 170.815 146C174.748 145.399 178.787 146.801 181.445 149.605L202.704 146C201.854 144.798 202.173 143.196 203.449 142.295C199.409 139.892 195.689 136.987 192.287 133.783C183.145 125.071 179.425 123.969 179.319 123.969C179 123.869 178.893 123.569 178.893 123.368C179 123.068 179.212 122.968 179.531 122.968C179.637 122.968 183.464 124.069 192.925 133.082C196.433 136.487 200.472 139.491 204.724 141.995C204.937 142.095 205.043 142.295 204.937 142.495C204.937 142.696 204.724 142.896 204.512 142.896C203.767 142.996 203.236 143.497 203.13 144.198C203.023 144.899 203.342 145.499 203.98 145.9C204.193 146 204.299 146.2 204.193 146.401C204.193 146.601 203.98 146.801 203.767 146.801L181.232 150.707Z" fill="#3767A6"/>
<path d="M230.132 122.066C236.003 122.066 240.762 117.583 240.762 112.052C240.762 106.522 236.003 102.038 230.132 102.038C224.261 102.038 219.502 106.522 219.502 112.052C219.502 117.583 224.261 122.066 230.132 122.066Z" fill="#3767A6"/>
<path d="M220.671 90.0205C220.459 89.6199 220.246 89.1192 220.14 88.7186C219.608 86.115 221.415 83.6115 224.179 83.1108C241.187 80.0064 257.557 90.5212 260.852 106.544C262.447 114.255 260.64 122.266 255.963 128.775C254.368 130.978 251.179 131.479 248.947 130.077C246.608 128.575 246.077 125.571 247.565 123.468C254.155 114.355 251.711 101.937 242.037 95.7285C237.36 92.7243 231.726 91.6227 226.199 92.6241C223.966 92.9246 221.734 91.9232 220.671 90.0205Z" fill="#3767A6"/>
<path d="M220.991 73.2971C220.672 72.7964 220.566 72.1956 220.46 71.5947C220.141 68.9911 222.161 66.5877 224.924 66.2872C251.818 63.6836 275.842 82.1095 278.606 107.345C279.562 116.157 277.755 125.17 273.503 133.081C272.228 135.384 269.145 136.386 266.7 135.184C264.255 133.983 263.192 131.078 264.468 128.775C274.247 110.85 266.7 88.9191 247.673 79.7061C240.976 76.5016 233.428 75.1998 225.987 75.9008C223.968 76.0009 222.054 74.9995 220.991 73.2971Z" fill="#3767A6"/>
<path d="M220.246 58.0754C218.97 55.7722 219.927 52.8681 222.372 51.5662C223.01 51.2658 223.648 51.0655 224.285 51.0655C260.108 48.0613 291.679 72.8963 294.868 106.644C295.931 117.459 293.805 128.274 288.916 138.088C287.746 140.491 284.664 141.493 282.112 140.391C279.561 139.29 278.498 136.386 279.667 133.982C292.53 108.146 280.73 77.3025 253.305 65.1854C244.482 61.2799 234.809 59.6777 225.136 60.4788C223.222 60.7792 221.203 59.7778 220.246 58.0754Z" fill="#3767A6"/>
<path d="M230.132 122.066C236.003 122.066 240.762 117.583 240.762 112.052C240.762 106.522 236.003 102.038 230.132 102.038C224.261 102.038 219.502 106.522 219.502 112.052C219.502 117.583 224.261 122.066 230.132 122.066Z" fill="#3767A6"/>
<path d="M220.671 90.0205C220.459 89.6199 220.246 89.1192 220.14 88.7186C219.608 86.115 221.415 83.6115 224.179 83.1108C241.187 80.0064 257.557 90.5212 260.852 106.544C262.447 114.255 260.64 122.266 255.963 128.775C254.368 130.978 251.179 131.479 248.947 130.077C246.608 128.575 246.077 125.571 247.565 123.468C254.155 114.355 251.711 101.937 242.037 95.7285C237.36 92.7243 231.726 91.6227 226.199 92.6241C223.966 92.9246 221.734 91.9232 220.671 90.0205Z" fill="#3767A6"/>
<path d="M220.991 73.2971C220.672 72.7964 220.566 72.1956 220.46 71.5947C220.141 68.9911 222.161 66.5877 224.924 66.2872C251.818 63.6836 275.842 82.1095 278.606 107.345C279.562 116.157 277.755 125.17 273.503 133.081C272.228 135.384 269.145 136.386 266.7 135.184C264.255 133.983 263.192 131.078 264.468 128.775C274.247 110.85 266.7 88.9191 247.673 79.7061C240.976 76.5016 233.428 75.1998 225.987 75.9008C223.968 76.0009 222.054 74.9995 220.991 73.2971Z" fill="#3767A6"/>
<path d="M220.246 58.0754C218.97 55.7722 219.927 52.8681 222.372 51.5662C223.01 51.2658 223.648 51.0655 224.285 51.0655C260.108 48.0613 291.679 72.8963 294.868 106.644C295.931 117.459 293.805 128.274 288.916 138.088C287.746 140.491 284.664 141.493 282.112 140.391C279.561 139.29 278.498 136.386 279.667 133.982C292.53 108.146 280.73 77.3025 253.305 65.1854C244.482 61.2799 234.809 59.6777 225.136 60.4788C223.222 60.7792 221.203 59.7778 220.246 58.0754Z" fill="#3767A6"/>
</svg>
