<svg width="279" height="319" viewBox="0 0 279 319" fill="none" xmlns="http://www.w3.org/2000/svg">
<path d="M3.16406 162.966H277.834V180.693C277.834 256.54 216.347 318.027 140.499 318.027C64.6509 318.027 3.16406 256.54 3.16406 180.693V162.966Z" fill="#61458D" fill-opacity="0.5" style="mix-blend-mode:hard-light"/>
<path d="M17.533 254.908C10.4307 251.316 10.2547 246.163 11.0545 244.035L42.7271 238.599L52.8047 265.073C44.0068 263.182 24.6353 258.501 17.533 254.908Z" fill="#3B108F" stroke="black" stroke-width="0.946157"/>
<mask id="mask0_37_727" style="mask-type:alpha" maskUnits="userSpaceOnUse" x="2" y="162" width="275" height="157">
<path d="M2.21973 162.961H276.889V180.688C276.889 256.536 215.402 318.022 139.554 318.022C63.7066 318.022 2.21973 256.536 2.21973 180.688V162.961Z" fill="#61458D"/>
</mask>
<g mask="url(#mask0_37_727)">
<path d="M197.386 393.023C188.151 380.939 179.749 339.873 176.703 320.851L94.2139 239.328C103.513 231.815 124.708 217.413 135.098 219.907C148.084 223.024 173.577 243.404 197.626 255.633C216.866 265.416 221.515 280.969 221.435 287.523C227.207 324.544 214.861 374.88 207.967 395.421C202.195 397.339 198.508 394.622 197.386 393.023Z" fill="#8DADFF" stroke="black" stroke-width="0.946157"/>
<path d="M115.492 304.669C49.3977 292.976 37.9977 259.223 40.5595 243.808C44.082 239.255 58.6201 225.214 104.924 236.14C162.805 249.798 176.645 267.036 194.267 293.407C208.196 314.254 147.914 379.188 143.831 384.699C132.211 400.384 114.051 423.995 108.767 423.037C105.405 422.427 104.284 417.606 102.763 414.171C102.283 381.584 112.37 349.476 128.461 326.474C141.334 308.072 126.299 306.346 115.492 304.669Z" fill="#8DADFF" stroke="black" stroke-width="0.946157"/>
</g>
<path d="M113.316 259.16V257.269L115.207 258.214L113.316 259.16Z" fill="#A59BB7" stroke="black" stroke-width="0.946157"/>
<path d="M165.071 281.613L113.316 259.108L181.843 225.829L236.233 245.94L165.071 281.613Z" fill="#ACA9B4" stroke="black" stroke-width="0.946157"/>
<path d="M165.071 279.726L113.316 257.22L181.843 223.941L236.233 244.052L165.071 279.726Z" fill="#ACA9B4" stroke="black" stroke-width="0.946157"/>
<path d="M176.003 237.645C174.64 235.084 171.962 234.111 170.793 233.945C171.345 232.538 172.622 229.895 173.313 230.585C174.178 231.448 179.544 234.553 184.216 236.841C188.888 239.129 192.282 244.891 195.896 247.747C199.509 250.603 201.469 260.435 200.854 260.697C200.24 260.959 199.414 259.259 198.574 256.921C197.902 255.051 194.652 251.09 193.111 249.344C192.737 249.387 192.16 249.644 192.851 250.334C193.715 251.197 198.869 262.715 198.084 262.932C197.3 263.149 194.863 259.968 194.311 257.917C193.87 256.276 191.245 252.523 189.987 250.851C189.817 250.806 189.446 250.836 189.321 251.311C189.164 251.905 193.11 259.718 193.322 261.679C193.533 263.641 192.724 265.333 191.582 262.069C190.669 259.457 188.134 254.669 186.981 252.601L186.3 252.422C186.32 254.191 186.377 258.074 186.452 259.449C186.546 261.167 184.98 264.355 184.845 260.72C184.71 257.085 183.985 252.236 182.218 251.348C180.451 250.46 177.707 240.845 176.003 237.645Z" fill="#201E25" stroke="black" stroke-width="0.946157"/>
<path d="M164.373 281.621L182.422 205.261L257.506 175.726L236.328 246.083L164.373 281.621Z" fill="#D7E4FD" stroke="black" stroke-width="0.946157"/>
<path d="M176.666 230.2C172.665 222.3 146.897 197.526 134.513 186.127C127.463 197.109 129.194 213.341 130.94 220.085C137.99 224.516 160.551 233.33 170.95 237.184C173.427 236.991 175.793 232.447 176.666 230.2Z" fill="#6215DD" stroke="black" stroke-width="0.946157"/>
<path d="M176.666 233.984C172.665 226.084 146.897 201.311 134.513 189.911C127.463 200.893 129.194 217.125 130.94 223.869C137.99 228.3 160.551 237.115 170.95 240.968C173.427 240.775 175.793 236.232 176.666 233.984Z" fill="#C6A4FF" fill-opacity="0.47"/>
<path d="M118.431 98.1372C113.82 96.6056 105.943 88.0859 102.581 84.0176L93.9355 94.0688C96.8174 136.268 103.35 222.773 106.423 231.197C109.497 239.621 121.633 239.653 127.317 238.616C127.317 238.616 134.718 234.895 138.364 231.197C143.407 226.08 141.966 224.735 141.966 224.735C142.686 212.291 137.243 181.1 133.08 166.342C139.997 118.479 126.196 104.599 118.431 103.641V98.1372Z" fill="#8DADFF" stroke="black" stroke-width="0.946157"/>
<path d="M112.19 98.1809C107.597 96.6446 99.7512 88.0985 96.4024 84.0176L87.791 94.1C90.6615 136.43 97.1678 223.203 100.23 231.653C103.291 240.103 112.748 244.216 118.409 243.175C118.409 243.175 124.759 240.399 133.479 235.013C136.589 233.093 140.655 228.532 140.655 228.532C141.803 218.354 130.928 181.401 126.781 166.597L112.19 103.702V98.1809Z" fill="#4390BB"/>
<path d="M141.84 31.542C138.782 38.8746 129.785 44.1692 112.77 41.6642C109.327 41.1511 102.242 42.3255 101.443 51.1278C101.1 54.9048 98.4092 55.9605 96.6246 50.3319C94.3938 43.2961 84.8732 44.0572 86.8902 54.3913C88.8342 64.3516 90.0103 64.7397 91.8291 65.34C91.8974 65.3626 91.9666 65.3854 92.0368 65.4091C93.3644 65.8566 91.8661 67.3999 90.041 67.5634C91.0541 76.0102 87.8052 84.1334 85.8818 87.3709L87.3571 97.2406L98.8873 99.145C98.9481 87.1913 105.292 83.1856 108.457 82.6769C119.402 88.8851 129.708 85.4994 133.493 83.0305C149.4 71.193 146.331 46.0604 141.84 31.542Z" fill="#FFE1E6" stroke="black" stroke-width="0.946157"/>
<path d="M112.743 41.5264C142.327 45.924 147.555 26.398 139.455 13.8268C135.223 7.25983 111.768 0.501319 90.0523 20.6606C68.3371 40.8199 85.3319 64.2526 87.6513 66.6491C89.9707 69.0455 94.0406 66.0399 92.1109 65.3831C90.1811 64.7264 88.9966 64.6963 86.9894 54.3135C84.9822 43.9306 94.4564 43.166 96.6763 50.2349C98.4523 55.8901 101.13 54.8294 101.471 51.0345C102.266 42.1908 109.317 41.0109 112.743 41.5264Z" stroke="black" stroke-width="0.946157"/>
<path d="M141.663 31.2974C143.636 26.5145 143.135 20.8731 140.717 15.9404C144.209 18.8517 149.245 24.8052 148.715 31.6437C148.278 37.2819 146.392 42.66 144.784 46.1963C144.15 40.7201 142.966 35.5566 141.663 31.2974Z" stroke="black" stroke-width="0.946157"/>
<path d="M110.307 102.222C106.281 101.839 92.6541 89.9255 86.3438 84.0166C87.0627 85.933 76.519 106.375 70.7678 114.679C60.2241 148.536 35.3025 218.932 19.9662 229.664C4.62979 240.396 4.9493 246.432 7.0261 248.109C10.8602 257.116 30.0306 261.285 39.1366 262.243C24.7588 259.368 17.6497 253.22 15.8924 250.505C10.8602 239.006 36.7403 253.379 70.7678 258.17C97.9899 262.003 113.582 251.463 117.975 245.714C125.643 183.191 100.961 121.387 104.556 117.314C107.431 114.056 109.588 105.896 110.307 102.222Z" fill="#8DADFF" stroke="black" stroke-width="0.946157"/>
<path d="M128.12 244.363C125.424 241.897 121.54 241.597 119.936 241.755C120.176 240.016 120.947 236.68 122.102 237.249C123.546 237.961 131.731 239.858 138.712 241.043C145.693 242.229 152.192 247.683 157.97 249.817C163.747 251.952 169.765 262.386 169.043 262.86C168.321 263.334 166.636 261.674 164.71 259.303C163.169 257.406 157.488 253.928 154.84 252.426C154.359 252.584 153.685 253.043 154.84 253.612C156.285 254.323 167.117 265.706 166.154 266.18C165.191 266.654 160.858 263.809 159.414 261.674C158.259 259.967 153.476 256.536 151.229 255.035C150.989 255.035 150.507 255.177 150.507 255.746C150.507 256.457 158.451 264.046 159.414 266.18C160.377 268.314 159.895 270.449 157.248 267.129C155.129 264.473 150.106 259.856 147.859 257.88H146.896C147.538 259.856 148.967 264.188 149.544 265.706C150.267 267.603 149.304 271.634 147.859 267.603C146.415 263.572 143.767 258.355 141.119 257.88C138.471 257.406 131.49 247.446 128.12 244.363Z" fill="#201E25" stroke="black" stroke-width="0.946157"/>
<path d="M68.0587 103.057C71.5113 101.145 80.047 94.2932 83.8832 91.1064C83.8832 119.404 65.1815 167.428 55.8307 187.903C74.5324 192.444 126.082 233.313 126.082 235.225C126.082 236.755 124.004 241.439 122.965 243.591C107.38 249.805 -3.39121 230.445 0.924562 199.614C5.24033 168.783 63.7429 105.447 68.0587 103.057Z" fill="#8DADFF"/>
<path d="M83.8832 91.1064C80.047 94.2932 71.5113 101.145 68.0587 103.057C63.7429 105.447 5.24033 168.783 0.924562 199.614C-3.39121 230.445 107.38 249.805 122.965 243.591C124.004 241.44 126.082 236.755 126.082 235.225C126.082 233.313 74.5324 192.444 55.8307 187.903C60.8885 176.828 68.6821 157.694 74.7721 137.98" stroke="black" stroke-width="0.946157"/>
<path d="M120.409 125.146C123.576 133.025 130.374 152.376 132.228 166.747" stroke="black" stroke-width="0.946157"/>
<path d="M64.4267 50.6602C61.3454 62.9852 67.8115 73.4195 71.4297 77.096H54.4475C46.4641 70.2332 45.402 56.6126 45.8688 50.6602H64.4267Z" fill="#119B48"/>
<path d="M61.625 47.8574C58.5437 60.1825 65.0097 70.6168 68.6279 74.2933H51.6457C43.6623 67.4304 42.6002 53.8099 43.0671 47.8574H61.625Z" stroke="black" stroke-width="0.946157"/>
<path d="M64.9492 83.3981C56.8258 77.0955 53.1609 65.1323 52.3439 59.9385L35.5367 65.8909C38.3379 77.6557 47.9087 85.1488 52.3439 87.4248L64.9492 83.3981Z" fill="#119B48"/>
<path d="M62.1494 80.5944C54.026 74.2918 50.3611 62.3286 49.5441 57.1348L32.7369 63.0872C35.5381 74.852 45.1089 82.3451 49.5441 84.621L62.1494 80.5944Z" stroke="black" stroke-width="0.946157"/>
<path d="M60.0479 89.5253C54.3054 88.4048 49.6018 78.4374 47.9677 73.5938L37.8134 79.7213C39.7742 90.0855 46.4504 94.7774 49.5434 95.8279L60.0479 89.5253Z" fill="#119B48"/>
<path d="M57.248 86.7245C51.5056 85.604 46.8019 75.6366 45.1679 70.793L35.0136 76.9205C36.9744 87.2847 43.6506 91.9767 46.7436 93.0271L57.248 86.7245Z" stroke="black" stroke-width="0.946157"/>
<g style="mix-blend-mode:overlay">
<path d="M3.16992 163.08H278.026V180.82C278.026 256.719 216.497 318.248 140.598 318.248C64.6985 318.248 3.16992 256.719 3.16992 180.82V163.08Z" fill="#61458D" fill-opacity="0.36" style="mix-blend-mode:hard-light"/>
</g>
<path d="M246.156 87.8005C245.113 87.8005 244.265 86.9521 244.265 85.9095C244.265 84.867 245.113 84.0186 246.156 84.0186C247.198 84.0186 248.047 84.867 248.047 85.9095C248.047 86.9521 247.198 87.8005 246.156 87.8005ZM246.156 84.534C245.397 84.534 244.78 85.1506 244.78 85.9095C244.78 86.6674 245.397 87.284 246.156 87.284C246.913 87.284 247.53 86.6674 247.53 85.9095C247.531 85.1506 246.913 84.534 246.156 84.534Z" fill="#C28AFF"/>
<path d="M40.5112 127.981C37.6433 127.981 35.3096 125.647 35.3096 122.779C35.3096 119.911 37.6433 117.58 40.5112 117.58C43.3791 117.58 45.7102 119.914 45.7102 122.779C45.7129 125.647 43.3791 127.981 40.5112 127.981ZM40.5112 118.762C38.2962 118.762 36.494 120.564 36.494 122.779C36.494 124.994 38.2962 126.796 40.5112 126.796C42.7262 126.796 44.5285 124.994 44.5285 122.779C44.5285 120.564 42.7262 118.762 40.5112 118.762Z" fill="#C28AFF"/>
<path d="M253.945 66.0519C249.643 66.0519 246.145 62.5533 246.145 58.2515C246.145 53.9497 249.643 50.4512 253.945 50.4512C258.247 50.4512 261.745 53.9497 261.745 58.2515C261.745 62.5533 258.247 66.0519 253.945 66.0519ZM253.945 52.3782C250.705 52.3782 248.072 55.012 248.072 58.2515C248.072 61.4911 250.705 64.1248 253.945 64.1248C257.185 64.1248 259.818 61.4911 259.818 58.2515C259.823 55.012 257.185 52.3782 253.945 52.3782Z" fill="#FCD91E"/>
<path d="M258.175 59.6718C258.18 56.301 255.435 53.5616 252.065 53.5616C248.695 53.5616 245.955 56.3013 245.955 59.6714C245.955 63.0416 248.695 65.7813 252.065 65.7813C255.435 65.7813 258.175 63.0418 258.175 59.6718ZM258.175 59.6718L257.938 59.6714H258.175C258.175 59.6716 258.175 59.6717 258.175 59.6718ZM252.065 67.2353C247.894 67.2353 244.501 63.8426 244.501 59.6714C244.501 55.5003 247.894 52.1076 252.065 52.1076C256.236 52.1076 259.629 55.5003 259.629 59.6714C259.629 63.8426 256.236 67.2353 252.065 67.2353Z" stroke="black" stroke-width="0.473078"/>
<path d="M185.17 140.036C185.17 131.526 176.266 116.556 171.696 110.016C189.661 105.289 198.013 108.046 202.662 110.962C204.175 100.561 211.802 90.8698 215.426 87.3242C216.75 93.1863 225.906 105.525 230.318 110.962C221.997 115.311 216.45 130.266 214.717 137.199C200.156 133.417 188.952 137.514 185.17 140.036Z" fill="#C28AFF"/>
<path d="M183.132 150.201C183.132 140.585 171.357 123.668 165.312 116.278C189.072 110.935 200.118 114.052 206.267 117.346C208.268 105.593 218.355 94.6415 223.149 90.6348C224.899 97.2592 237.009 111.203 242.844 117.346C234.962 120.867 228.962 130.536 225.349 138.619C212.108 134.128 210.697 145.001 210.461 145.368C197.036 144.63 187.059 147.964 183.132 150.201Z" fill="#C28AFF"/>
<path d="M183.542 143.11C183.542 134.562 173.058 119.525 167.678 112.956C188.83 108.207 198.664 110.977 204.137 113.906C205.918 103.458 214.899 93.7236 219.166 90.1621C220.725 96.0505 231.505 108.445 236.7 113.906C228.716 117.466 222.9 128.103 219.917 135.686C215.001 133.53 212.096 137.058 211.259 139.092C197.606 137.602 187.36 140.938 183.542 143.11Z" fill="#C28AFF"/>
<path d="M223.307 137.298C226.884 130.535 231.781 124.506 237.671 119.622C239.339 118.24 241.086 116.957 242.899 115.772C243.085 115.65 243.193 115.379 243.055 115.176C238.482 108.454 233.557 101.972 229.212 95.0951C228.087 93.3142 227.003 91.5065 226.015 89.6451C225.752 89.1495 225 89.5895 225.263 90.0851C227.102 93.5526 229.257 96.8501 231.455 100.098C233.812 103.581 236.259 107.003 238.688 110.436C239.905 112.154 241.118 113.875 242.303 115.616C242.354 115.418 242.407 115.219 242.459 115.021C235.963 119.27 230.339 124.793 225.962 131.203C224.719 133.023 223.584 134.912 222.554 136.86C222.291 137.353 223.043 137.794 223.307 137.298Z" fill="#231F20"/>
<path d="M212.969 143.007C213.038 141.303 213.424 138.81 215.054 137.865C216.016 137.306 217.428 137.437 218.458 137.705C219.656 138.017 220.735 138.638 221.805 139.242C222.294 139.518 222.734 138.766 222.245 138.49C221.029 137.804 219.784 137.096 218.405 136.797C217.214 136.539 215.706 136.479 214.615 137.113C212.692 138.229 212.181 140.978 212.099 143.008C212.075 143.568 212.947 143.567 212.969 143.007Z" fill="#231F20"/>
<path d="M163.93 117.86C165.834 121.72 167.399 125.755 169.004 129.745C170.898 134.452 172.747 139.177 174.709 143.856C175.549 145.859 176.398 147.864 177.36 149.814C177.467 150.031 177.759 150.073 177.956 149.969C185.643 145.943 194.393 144.316 202.979 143.715C205.404 143.545 207.833 143.462 210.264 143.442C210.824 143.437 210.826 142.566 210.264 142.571C201.486 142.644 192.535 143.499 184.19 146.362C181.899 147.149 179.662 148.093 177.516 149.218C177.715 149.269 177.913 149.322 178.112 149.374C176.208 145.514 174.643 141.478 173.038 137.488C171.144 132.781 169.295 128.057 167.333 123.377C166.493 121.374 165.643 119.37 164.682 117.42C164.435 116.917 163.683 117.358 163.93 117.86Z" fill="#231F20"/>
<path d="M200.708 109.696C203.552 116.762 206.865 123.655 210.531 130.331C211.535 132.158 212.568 133.966 213.642 135.753C213.93 136.233 214.684 135.796 214.394 135.313C210.506 128.843 207.066 122.09 203.987 115.2C203.138 113.303 202.323 111.392 201.547 109.464C201.342 108.951 200.498 109.175 200.708 109.696Z" fill="#231F20"/>
<path d="M211.164 142.748C211.071 140.336 211.899 137.662 214.069 136.348C216.82 134.681 220.108 136.141 222.469 137.809C222.928 138.133 223.364 137.378 222.909 137.057C220.724 135.514 217.958 134.248 215.233 134.929C213.183 135.441 211.67 137.033 210.902 138.956C210.423 140.155 210.243 141.462 210.293 142.749C210.315 143.307 211.186 143.309 211.164 142.748Z" fill="#231F20"/>
<path d="M166.551 112.529C170.142 121.008 173.204 129.7 176.567 138.27C177.481 140.598 178.419 142.918 179.394 145.222C179.465 145.388 179.721 145.477 179.886 145.422C187.504 142.896 195.478 141.655 203.468 141.106C205.737 140.95 208.01 140.85 210.285 140.79C210.844 140.775 210.847 139.904 210.285 139.919C202.233 140.132 194.154 140.854 186.3 142.706C184.059 143.234 181.841 143.858 179.655 144.583C179.818 144.65 179.982 144.716 180.146 144.784C176.556 136.304 173.493 127.612 170.13 119.043C169.216 116.715 168.279 114.394 167.303 112.091C167.086 111.576 166.335 112.018 166.551 112.529Z" fill="#231F20"/>
<path d="M168.775 110.464C173.379 117.987 176.74 126.277 179.31 134.697C180.023 137.034 180.669 139.392 181.244 141.768C181.298 141.993 181.559 142.137 181.78 142.072C189.249 139.858 196.983 138.582 204.769 138.303C206.984 138.224 209.201 138.227 211.416 138.305C211.977 138.325 211.976 137.454 211.416 137.434C203.59 137.158 195.734 137.866 188.085 139.546C185.887 140.028 183.707 140.594 181.55 141.233C181.728 141.335 181.907 141.436 182.086 141.537C179.996 132.894 177.019 124.401 173.06 116.433C171.975 114.248 170.804 112.106 169.53 110.025C169.236 109.546 168.482 109.983 168.775 110.464Z" fill="#231F20"/>
<path d="M213.946 135.163C206.118 133.73 197.669 132.811 189.881 134.939C187.733 135.526 185.652 136.38 183.767 137.571C183.98 137.657 184.194 137.745 184.406 137.831C181.679 127.606 177.329 117.813 171.54 108.953C171.492 108.879 171.401 108.691 171.325 108.626C171.289 108.571 171.254 108.518 171.218 108.463C171.069 108.89 171.055 109.043 171.175 108.92C171.191 108.929 171.061 108.936 171.208 108.913C171.247 108.907 171.403 108.833 171.54 108.788C172.005 108.632 172.481 108.511 172.957 108.391C174.326 108.046 175.706 107.75 177.088 107.465C178.453 107.183 179.819 106.914 181.191 106.668C182.379 106.456 183.255 106.378 184.506 106.325C190.127 106.085 195.853 106.613 200.546 110.005C201.001 110.333 201.436 109.578 200.986 109.253C196.738 106.183 191.566 105.346 186.431 105.4C184.861 105.417 183.274 105.435 181.723 105.695C180.424 105.912 179.132 106.165 177.842 106.424C176.355 106.723 174.87 107.034 173.394 107.386C172.82 107.523 172.246 107.664 171.681 107.831C171.363 107.926 170.976 108.012 170.696 108.2C170.053 108.632 170.708 109.27 171 109.72C171.743 110.868 172.462 112.031 173.158 113.208C174.564 115.591 175.87 118.032 177.072 120.523C179.787 126.149 181.956 132.029 183.566 138.064C183.637 138.328 183.968 138.474 184.206 138.324C187.57 136.197 191.518 135.207 195.446 134.819C199.443 134.423 203.487 134.603 207.471 135.059C209.563 135.298 211.643 135.624 213.714 136.004C214.263 136.104 214.498 135.265 213.946 135.163Z" fill="#231F20"/>
<path d="M218.963 88.4999C219.732 88.2427 220.511 88.0291 221.303 87.8553C221.139 87.7888 220.975 87.7222 220.811 87.6547C224.407 94.9401 228.557 101.948 233.23 108.594C234.557 110.481 235.926 112.338 237.334 114.166C237.385 113.968 237.438 113.769 237.49 113.57C231.252 117.665 226.206 123.512 223.063 130.28C222.186 132.168 221.457 134.121 220.883 136.122C220.728 136.662 221.569 136.893 221.724 136.353C223.723 129.373 227.69 123.014 233.047 118.114C234.571 116.721 236.203 115.456 237.93 114.322C238.108 114.206 238.236 113.921 238.086 113.726C233.127 107.29 228.665 100.475 224.756 93.3529C223.647 91.3307 222.583 89.2836 221.562 87.2156C221.474 87.0379 221.249 86.9763 221.07 87.015C220.279 87.1898 219.499 87.4024 218.731 87.6596C218.203 87.8364 218.429 88.6787 218.963 88.4999Z" fill="#231F20"/>
<path d="M213.318 84.8927C211.212 87.2606 209.349 89.8688 207.639 92.5337C205.454 95.9366 203.498 99.539 202.146 103.359C201.43 105.38 200.903 107.478 200.745 109.621C200.703 110.181 201.575 110.178 201.616 109.621C201.898 105.804 203.385 102.114 205.088 98.7276C206.793 95.3396 208.834 92.1136 211.084 89.0633C211.986 87.8416 212.925 86.6448 213.934 85.5095C214.307 85.0913 213.692 84.4735 213.318 84.8927Z" fill="#231F20"/>
<path d="M219.261 134.943C221.276 128.325 224.857 122.214 229.639 117.215C230.979 115.814 232.411 114.506 233.921 113.292C234.094 113.153 234.087 112.816 233.921 112.676C232.887 111.806 231.897 110.875 230.938 109.924C230.538 109.529 229.922 110.145 230.322 110.54C231.282 111.491 232.271 112.422 233.305 113.292C233.305 113.087 233.305 112.881 233.305 112.676C227.831 117.078 223.414 122.777 220.511 129.173C219.695 130.972 218.997 132.822 218.421 134.712C218.258 135.249 219.098 135.478 219.261 134.943Z" fill="#231F20"/>
<path d="M214.5 87.2595C215.635 86.605 216.81 86.0358 218.034 85.57C217.856 85.4687 217.677 85.3674 217.498 85.2661C219.432 91.7976 222.193 98.0839 225.713 103.917C226.713 105.574 227.775 107.193 228.892 108.773C228.915 108.597 228.937 108.422 228.96 108.246C226.066 111.005 223.454 113.985 221.246 117.326C219.02 120.695 217.208 124.335 215.856 128.14C215.092 130.291 214.484 132.493 214.028 134.729C213.916 135.276 214.756 135.51 214.868 134.96C216.452 127.191 219.949 119.833 224.991 113.71C226.412 111.985 227.961 110.401 229.576 108.862C229.705 108.738 229.753 108.487 229.645 108.334C225.738 102.805 222.53 96.7867 220.15 90.4478C219.482 88.666 218.879 86.8602 218.338 85.0347C218.276 84.8251 218.026 84.6453 217.802 84.7307C216.508 85.2234 215.26 85.8163 214.06 86.5086C213.576 86.7867 214.014 87.5396 214.5 87.2595Z" fill="#231F20"/>
<path d="M164.896 117.677C166.013 117.164 167.204 116.817 168.418 116.627C168.65 116.591 168.779 116.3 168.722 116.091C168.653 115.843 168.419 115.75 168.185 115.787C166.892 115.99 165.644 116.379 164.456 116.925C164.242 117.024 164.188 117.333 164.3 117.521C164.428 117.741 164.68 117.777 164.896 117.677Z" fill="#231F20"/>
<path d="M167.155 112.697C167.2 112.669 167.247 112.644 167.296 112.62C167.315 112.61 167.336 112.601 167.356 112.592C167.302 112.617 167.32 112.606 167.365 112.59C167.47 112.552 167.576 112.518 167.684 112.491C167.806 112.461 167.93 112.436 168.054 112.415C168.088 112.409 168.122 112.404 168.156 112.399C168.164 112.398 168.246 112.387 168.2 112.392C168.147 112.399 168.257 112.385 168.267 112.384C168.302 112.38 168.337 112.376 168.371 112.373C168.851 112.324 169.335 112.317 169.816 112.32C170.044 112.321 170.262 112.119 170.253 111.884C170.242 111.647 170.061 111.45 169.816 111.448C169.306 111.445 168.795 111.453 168.288 111.509C167.751 111.569 167.183 111.658 166.714 111.944C166.513 112.066 166.437 112.334 166.558 112.54C166.676 112.741 166.953 112.819 167.155 112.697Z" fill="#231F20"/>
<path d="M168.916 110.427C169.696 110.396 170.47 110.249 171.203 109.978C171.417 109.9 171.585 109.679 171.507 109.442C171.44 109.233 171.2 109.053 170.971 109.138C170.629 109.264 170.28 109.364 169.922 109.437C169.837 109.454 169.75 109.47 169.664 109.483C169.617 109.491 169.57 109.497 169.524 109.505C169.619 109.49 169.488 109.509 169.479 109.51C169.291 109.532 169.104 109.547 168.915 109.554C168.687 109.563 168.469 109.748 168.479 109.99C168.49 110.219 168.672 110.436 168.916 110.427Z" fill="#231F20"/>
<path d="M222.077 88.9985C222.442 88.7591 222.808 88.5198 223.173 88.2804C223.361 88.1572 223.549 88.0351 223.737 87.9119C223.826 87.8533 223.914 87.7957 224.004 87.7371C224.045 87.7103 224.11 87.6854 224.141 87.6477C224.19 87.5891 224.227 87.6566 224.129 87.606C224.09 87.6109 224.06 87.599 224.04 87.5692C224.011 87.5364 224.007 87.5364 224.028 87.5672C224.038 87.605 224.07 87.6467 224.087 87.6844C224.132 87.7798 224.175 87.8771 224.218 87.9735C224.311 88.1771 224.402 88.3797 224.494 88.5833C224.678 88.9896 224.863 89.3958 225.047 89.802C225.144 90.0166 225.455 90.0682 225.643 89.958C225.863 89.8288 225.896 89.5776 225.799 89.362C225.585 88.8912 225.373 88.4214 225.159 87.9506C225.058 87.7262 224.956 87.5007 224.854 87.2772C224.747 87.0428 224.588 86.8392 224.328 86.7716C224.058 86.7011 223.813 86.8223 223.593 86.9653C223.375 87.1074 223.158 87.2504 222.941 87.3924C222.506 87.6775 222.072 87.9616 221.637 88.2466C221.44 88.3757 221.358 88.632 221.481 88.8426C221.595 89.0372 221.879 89.1276 222.077 88.9985Z" fill="#231F20"/>
<path d="M216.847 134.856C219.344 127.516 222.088 119.951 227.065 113.88C228.448 112.193 229.998 110.65 231.707 109.294C231.892 109.147 231.858 108.831 231.707 108.679C229.407 106.361 227.322 103.852 225.551 101.106C223.786 98.3687 222.332 95.4495 220.988 92.4867C220.756 91.9772 220.006 92.4192 220.236 92.9267C221.603 95.9392 223.084 98.907 224.888 101.684C226.678 104.437 228.779 106.965 231.091 109.295C231.091 109.09 231.091 108.884 231.091 108.68C224.824 113.648 221.105 120.94 218.285 128.264C217.476 130.366 216.733 132.494 216.007 134.625C215.826 135.156 216.667 135.385 216.847 134.856Z" fill="#231F20"/>
<path d="M213.283 85.612C215.698 92.53 219.793 98.7298 224.425 104.357C225.746 105.962 227.118 107.522 228.528 109.05C228.908 109.463 229.524 108.845 229.144 108.434C224.27 103.148 219.761 97.4128 216.509 90.9716C215.594 89.1599 214.792 87.2966 214.123 85.3806C213.94 84.8552 213.098 85.0807 213.283 85.612Z" fill="#231F20"/>
<path d="M207.013 102.687C208.347 99.9815 209.873 97.3574 211.752 94.9915C211.925 94.7739 211.618 94.4641 211.444 94.6836C209.54 97.0803 207.989 99.7263 206.637 102.468C206.514 102.718 206.89 102.939 207.013 102.687Z" fill="#231F20"/>
<path d="M204.116 110.217C204.627 108.272 205.331 106.385 206.144 104.546C206.256 104.292 205.881 104.07 205.767 104.327C204.94 106.2 204.217 108.119 203.695 110.101C203.625 110.373 204.045 110.488 204.116 110.217Z" fill="#231F20"/>
<path d="M212.809 100.565C213.258 99.907 213.723 99.2594 214.204 98.6247C214.276 98.5313 214.219 98.3814 214.126 98.3267C214.014 98.2612 213.899 98.3108 213.828 98.4052C213.346 99.0399 212.88 99.6875 212.432 100.346C212.366 100.443 212.413 100.587 212.511 100.644C212.618 100.707 212.742 100.663 212.809 100.565Z" fill="#231F20"/>
<path d="M206.565 113.613C207.81 110.01 209.259 106.468 211.174 103.164C211.315 102.921 210.938 102.701 210.797 102.945C208.865 106.28 207.401 109.86 206.145 113.498C206.053 113.763 206.474 113.877 206.565 113.613Z" fill="#231F20"/>
<path d="M213.482 106.751C214.294 105.373 215.178 104.036 216.171 102.782C216.343 102.564 216.037 102.254 215.863 102.474C214.846 103.758 213.937 105.121 213.106 106.531C212.963 106.772 213.34 106.992 213.482 106.751Z" fill="#231F20"/>
<path d="M208.418 117.564C209.559 114.674 210.775 111.813 212.207 109.055C212.336 108.806 211.96 108.586 211.83 108.835C210.381 111.626 209.152 114.524 207.998 117.448C207.896 117.709 208.317 117.822 208.418 117.564Z" fill="#231F20"/>
<path d="M211.996 117.389C213.546 114.221 215.266 111.124 217.345 108.268C217.949 107.439 218.584 106.632 219.251 105.851C219.432 105.64 219.126 105.33 218.943 105.544C216.614 108.269 214.686 111.308 212.999 114.466C212.522 115.358 212.065 116.261 211.621 117.169C211.496 117.421 211.872 117.641 211.996 117.389Z" fill="#231F20"/>
<path d="M210.15 121.398C210.354 120.929 210.562 120.461 210.774 119.995C210.821 119.892 210.807 119.755 210.695 119.697C210.6 119.646 210.447 119.664 210.397 119.775C210.187 120.242 209.978 120.71 209.773 121.179C209.727 121.283 209.739 121.417 209.852 121.477C209.946 121.526 210.101 121.511 210.15 121.398Z" fill="#231F20"/>
<path d="M217.079 116.625C218.05 114.967 219.058 113.329 220.166 111.758C220.328 111.528 219.95 111.31 219.789 111.538C218.683 113.109 217.674 114.747 216.702 116.405C216.56 116.647 216.937 116.867 217.079 116.625Z" fill="#231F20"/>
<path d="M212.212 126.32C213.27 123.513 214.684 120.86 216.148 118.247C216.285 118.001 215.908 117.782 215.771 118.027C214.288 120.673 212.864 123.362 211.791 126.205C211.692 126.467 212.113 126.58 212.212 126.32Z" fill="#231F20"/>
<path d="M186.61 109.74C190.546 109.359 194.54 109.693 198.316 110.896C198.584 110.981 198.698 110.561 198.432 110.476C194.624 109.262 190.582 108.92 186.611 109.304C186.333 109.331 186.33 109.767 186.61 109.74Z" fill="#231F20"/>
<path d="M178.578 111.47C180.305 110.906 182.065 110.45 183.852 110.124C184.127 110.074 184.01 109.655 183.735 109.704C181.948 110.031 180.188 110.486 178.462 111.05C178.197 111.137 178.311 111.558 178.578 111.47Z" fill="#231F20"/>
<path d="M181.23 114.747C185.79 113.859 190.478 112.97 195.137 113.538C196.444 113.698 197.734 113.986 198.981 114.407C199.247 114.497 199.362 114.077 199.097 113.987C194.586 112.466 189.746 112.831 185.125 113.591C183.783 113.812 182.448 114.068 181.114 114.327C180.839 114.381 180.956 114.801 181.23 114.747Z" fill="#231F20"/>
<path d="M191.661 117.372C194.639 117.198 197.628 117.287 200.593 117.626C200.871 117.658 200.869 117.222 200.593 117.19C197.628 116.851 194.639 116.761 191.661 116.935C191.382 116.951 191.38 117.388 191.661 117.372Z" fill="#231F20"/>
<path d="M183.009 118.593C184.917 118.176 186.843 117.844 188.784 117.619C189.059 117.587 189.062 117.151 188.784 117.182C186.805 117.412 184.84 117.747 182.894 118.171C182.62 118.232 182.735 118.652 183.009 118.593Z" fill="#231F20"/>
<path d="M201.172 121.526C201.792 121.562 202.413 121.605 203.033 121.655C203.15 121.664 203.251 121.548 203.251 121.437C203.251 121.312 203.15 121.228 203.033 121.219C202.413 121.171 201.792 121.128 201.172 121.091C201.054 121.084 200.954 121.196 200.954 121.309C200.954 121.432 201.054 121.52 201.172 121.526Z" fill="#231F20"/>
<path d="M185.351 122.914C188.657 121.917 192.103 121.505 195.548 121.42C196.519 121.396 197.491 121.398 198.462 121.418C198.742 121.424 198.742 120.988 198.462 120.982C194.999 120.91 191.514 121.081 188.113 121.771C187.143 121.967 186.183 122.208 185.235 122.494C184.968 122.575 185.082 122.995 185.351 122.914Z" fill="#231F20"/>
<path d="M192.468 125.632C196.321 125.161 200.215 125.073 204.085 125.374C204.364 125.396 204.363 124.96 204.085 124.938C200.215 124.637 196.322 124.725 192.468 125.195C192.193 125.229 192.19 125.665 192.468 125.632Z" fill="#231F20"/>
<path d="M186.795 126.627C187.74 126.412 188.692 126.221 189.647 126.053C189.922 126.004 189.806 125.585 189.531 125.633C188.576 125.801 187.625 125.991 186.679 126.206C186.405 126.268 186.521 126.688 186.795 126.627Z" fill="#231F20"/>
<path d="M200.762 129.418C202.873 129.38 204.984 129.431 207.095 129.496C207.375 129.505 207.375 129.069 207.095 129.06C204.984 128.995 202.873 128.943 200.762 128.982C200.482 128.988 200.482 129.424 200.762 129.418Z" fill="#231F20"/>
<path d="M188.256 131.616C191.358 130.345 194.681 129.76 198.014 129.532C198.292 129.513 198.294 129.077 198.014 129.096C194.644 129.327 191.278 129.911 188.141 131.196C187.883 131.3 187.996 131.722 188.256 131.616Z" fill="#231F20"/>
<path d="M210.297 142.194C210.186 142.581 210.144 143.008 210.258 143.4C210.357 143.738 210.56 144.019 210.848 144.219C211.36 144.573 212.089 144.502 212.534 144.076C212.827 143.796 212.954 143.392 212.966 142.996C212.973 142.768 212.76 142.55 212.53 142.56C212.287 142.571 212.102 142.752 212.094 142.996C212.093 143.032 212.09 143.069 212.087 143.104C212.084 143.146 212.06 143.195 212.094 143.058C212.09 143.074 212.089 143.092 212.086 143.107C212.074 143.17 212.058 143.232 212.036 143.291C212.031 143.305 212.024 143.319 212.02 143.333C212.067 143.194 212.058 143.248 212.04 143.282C212.029 143.303 212.018 143.325 212.006 143.346C211.992 143.37 211.977 143.392 211.962 143.416C211.941 143.448 211.899 143.479 211.997 143.372C211.987 143.384 211.978 143.395 211.968 143.407C211.934 143.445 211.896 143.477 211.859 143.511C211.977 143.403 211.919 143.466 211.88 143.491C211.857 143.506 211.834 143.52 211.81 143.533C211.768 143.554 211.677 143.578 211.835 143.526C211.815 143.533 211.796 143.54 211.776 143.546C211.752 143.554 211.728 143.56 211.704 143.566C211.656 143.577 211.546 143.58 211.722 143.568C211.677 143.571 211.632 143.576 211.585 143.575C211.56 143.574 211.536 143.572 211.511 143.57C211.477 143.568 211.429 143.55 211.589 143.581C211.572 143.578 211.556 143.576 211.54 143.572C211.494 143.563 211.449 143.551 211.406 143.535C211.304 143.499 211.507 143.584 211.428 143.545C211.401 143.533 211.375 143.519 211.349 143.504C211.33 143.493 211.312 143.481 211.294 143.469C211.204 143.407 211.376 143.54 211.309 143.482C211.268 143.446 211.231 143.408 211.195 143.369C211.135 143.302 211.268 143.473 211.204 143.38C211.189 143.358 211.175 143.336 211.162 143.314C211.148 143.291 211.136 143.267 211.124 143.243C211.117 143.231 211.112 143.216 211.105 143.203C211.176 143.337 211.135 143.275 211.121 143.236C211.098 143.169 211.082 143.101 211.069 143.032C211.061 142.991 211.071 142.94 211.075 143.08C211.074 143.057 211.07 143.033 211.068 143.009C211.065 142.972 211.064 142.936 211.064 142.899C211.064 142.853 211.066 142.808 211.069 142.763C211.071 142.743 211.073 142.722 211.075 142.702C211.082 142.627 211.057 142.815 211.07 142.735C211.088 142.63 211.109 142.526 211.139 142.424C211.202 142.206 211.063 141.94 210.835 141.888C210.6 141.836 210.364 141.958 210.297 142.194Z" fill="#231F20"/>
<path d="M221.399 139.048C221.918 139.336 222.557 139.534 223.124 139.266C223.594 139.044 223.741 138.461 223.575 137.999C223.46 137.677 223.258 137.401 223.013 137.165C222.848 137.007 222.558 136.989 222.397 137.165C222.24 137.336 222.221 137.613 222.397 137.781C222.477 137.859 222.553 137.94 222.622 138.028C222.6 137.999 222.577 137.97 222.554 137.94C222.633 138.042 222.702 138.153 222.754 138.271C222.739 138.236 222.725 138.201 222.71 138.166C222.743 138.245 222.768 138.326 222.78 138.412C222.775 138.373 222.77 138.334 222.764 138.296C222.772 138.358 222.774 138.421 222.766 138.483C222.771 138.445 222.776 138.406 222.782 138.367C222.775 138.414 222.763 138.459 222.746 138.504C222.761 138.469 222.774 138.435 222.789 138.4C222.771 138.443 222.749 138.481 222.721 138.518C222.744 138.488 222.766 138.459 222.789 138.43C222.762 138.463 222.732 138.493 222.698 138.519C222.728 138.496 222.757 138.473 222.786 138.451C222.747 138.48 222.705 138.504 222.659 138.523C222.694 138.508 222.729 138.494 222.763 138.479C222.702 138.504 222.638 138.521 222.573 138.53C222.612 138.525 222.65 138.52 222.689 138.514C222.589 138.527 222.487 138.525 222.387 138.512C222.426 138.517 222.465 138.522 222.503 138.528C222.336 138.505 222.175 138.455 222.02 138.39C222.054 138.405 222.089 138.419 222.124 138.434C222.026 138.392 221.932 138.345 221.84 138.295C221.64 138.184 221.355 138.24 221.244 138.451C221.134 138.657 221.185 138.93 221.399 139.048Z" fill="#231F20"/>
<path d="M236.95 61.8095C236.134 64.3378 235.321 66.8614 234.505 69.3898C234.323 69.9548 234.651 70.5945 235.216 70.7767C235.786 70.9605 236.419 70.6361 236.603 70.0663C237.418 67.5379 238.232 65.0143 239.047 62.486C239.231 61.9161 238.902 61.2813 238.337 61.099C237.768 60.9104 237.134 61.2396 236.95 61.8095Z" fill="#C28AFF"/>
<path d="M232.646 65.7599C235.174 66.5753 237.698 67.3893 240.226 68.2048C240.791 68.3871 241.431 68.0594 241.613 67.4943C241.797 66.9245 241.472 66.2912 240.903 66.1074C238.374 65.2919 235.85 64.4779 233.322 63.6625C232.752 63.4787 232.117 63.8079 231.935 64.3729C231.751 64.9428 232.076 65.5761 232.646 65.7599Z" fill="#C28AFF"/>
<ellipse cx="5.43668" cy="5.43661" rx="5.43668" ry="5.43661" transform="matrix(-1 0 0 1 92.9844 54.7061)" fill="#FCD91E"/>
<path d="M80.6944 59.1964C80.6944 61.9376 82.9167 64.1599 85.658 64.1599C88.3994 64.1599 90.6216 61.9376 90.6216 59.1964C90.6216 56.4551 88.3994 54.2328 85.658 54.2328C82.9167 54.2328 80.6944 56.4551 80.6944 59.1964Z" stroke="black" stroke-width="0.946157"/>
<ellipse cx="8.50959" cy="8.50947" rx="8.50959" ry="8.50947" transform="matrix(-1 0 0 1 203.609 96.3076)" fill="#FCD91E"/>
<path d="M188.953 103.872C188.953 108.31 192.551 111.908 196.989 111.908C201.428 111.908 205.026 108.31 205.026 103.872C205.026 99.4334 201.428 95.8354 196.989 95.8354C192.551 95.8354 188.953 99.4334 188.953 103.872Z" stroke="black" stroke-width="0.946157"/>
<path d="M147.351 178.092C147.351 182.53 150.949 186.128 155.388 186.128C159.826 186.128 163.424 182.53 163.424 178.092C163.424 173.653 159.826 170.055 155.388 170.055C150.949 170.055 147.351 173.653 147.351 178.092Z" fill="#FCD91E" stroke="black" stroke-width="0.946157"/>
</svg>
