<svg width="576" height="248" viewBox="0 0 576 248" fill="none" xmlns="http://www.w3.org/2000/svg">
<path d="M54.5952 233.552L103.088 177.95H276.495L324.988 233.552H54.5952Z" fill="white"/>
<path d="M324.987 234.187H54.5941C54.3402 234.187 54.0863 234.06 54.0863 233.806C53.9593 233.552 54.0863 233.298 54.2132 233.171L102.706 177.569C102.833 177.442 102.96 177.315 103.214 177.315H276.621C276.748 177.315 277.002 177.442 277.129 177.569L325.622 233.171C325.749 233.298 325.875 233.679 325.749 233.806C325.495 234.06 325.241 234.187 324.987 234.187ZM55.9904 232.917H323.59L276.24 178.585H103.341L55.9904 232.917Z" fill="#0F3261"/>
<path d="M315.339 229.109H64.2422L104.992 182.394H274.463L315.339 229.109Z" fill="white"/>
<path d="M315.339 229.744H64.2421C63.8613 229.744 63.6074 229.49 63.6074 229.109C63.6074 228.982 63.6074 228.855 63.7344 228.728L104.484 182.013C104.611 181.886 104.738 181.759 104.991 181.759H274.463C274.59 181.759 274.844 181.886 274.971 182.013L315.72 228.728C315.847 228.855 315.974 229.236 315.847 229.363C315.72 229.617 315.593 229.744 315.339 229.744ZM65.6385 228.475H313.943L274.209 183.028H105.372L65.6385 228.475Z" fill="#0F3261"/>
<path d="M137.998 217.938H120.098C118.829 217.938 117.813 216.922 117.813 215.653C117.813 215.399 117.813 215.145 117.94 214.764L127.588 190.771C127.969 189.883 128.731 189.375 129.619 189.375H143.076C144.345 189.375 145.361 190.391 145.361 191.66C145.361 191.787 145.361 191.914 145.361 192.168L140.156 216.16C140.029 217.176 139.013 217.938 137.998 217.938Z" fill="#0F3261"/>
<path d="M137.997 218.572H120.097C118.574 218.572 117.178 217.303 117.178 215.653C117.178 215.272 117.305 214.891 117.432 214.637L127.206 190.644C127.587 189.502 128.73 188.867 129.872 188.867H143.328C144.852 188.867 146.248 190.137 146.248 191.787C146.248 192.041 146.248 192.168 146.121 192.422L140.916 216.414C140.536 217.684 139.393 218.572 137.997 218.572ZM129.745 190.137C129.111 190.137 128.476 190.517 128.222 191.152L118.574 215.145C118.32 215.653 118.447 216.16 118.701 216.668C118.955 217.049 119.463 217.303 119.971 217.303H137.87C138.631 217.303 139.266 216.795 139.393 216.033L144.598 192.041C144.725 191.533 144.598 191.025 144.344 190.644C144.09 190.264 143.582 190.01 143.075 190.01L129.745 190.137Z" fill="#0F3261"/>
<path d="M54.5937 233.552H324.987V243.327C324.987 245.104 323.463 246.627 321.686 246.627H57.7674C55.9901 246.627 54.4668 245.231 54.4668 243.327V233.552H54.5937Z" fill="#0F3261"/>
<path d="M321.686 247.135H57.7678C55.6097 247.135 53.9595 245.485 53.8325 243.326V233.552C53.8325 233.171 54.0864 232.917 54.4672 232.917H324.86C325.241 232.917 325.495 233.171 325.495 233.552V243.326C325.495 245.485 323.844 247.135 321.686 247.135ZM55.102 234.186V243.326C55.102 244.723 56.3714 245.865 57.7678 245.865H321.686C323.083 245.865 324.225 244.723 324.352 243.326V234.186H55.102Z" fill="#0F3261"/>
<path d="M254.92 204.277C255.094 195.656 244.269 188.444 230.74 188.17C217.212 187.896 206.103 194.664 205.929 203.285C205.754 211.907 216.58 219.119 230.108 219.392C243.637 219.666 254.745 212.899 254.92 204.277Z" fill="white"/>
<path d="M230.92 219.969C217.718 219.969 206.293 213.241 205.404 204.608C205.15 201.308 206.166 198.007 208.451 195.595C212.64 190.771 220.13 187.725 228.762 187.471C242.599 186.963 254.659 193.818 255.675 202.831C255.928 206.132 254.913 209.432 252.628 211.844C248.439 216.668 240.949 219.715 232.317 219.969H230.92ZM230.032 188.74H228.762C220.511 188.994 213.275 191.914 209.34 196.357C207.308 198.515 206.293 201.435 206.547 204.354C207.435 212.606 218.987 218.953 232.19 218.572C240.441 218.318 247.677 215.399 251.485 210.956C253.516 208.798 254.532 205.878 254.278 202.958C253.389 194.961 242.599 188.74 230.032 188.74Z" fill="#0F3261"/>
<path d="M229.651 209.051C230.793 208.163 231.682 206.893 232.063 205.497C232.189 205.243 232.189 205.116 232.316 204.862L240.06 204.481C239.679 205.37 239.171 206.259 238.41 206.893C237.775 207.274 237.648 208.163 238.029 208.924C238.156 209.178 238.537 209.432 238.791 209.432C240.06 210.067 241.456 209.94 242.726 209.178C244.376 207.909 245.392 206.005 245.773 203.974L249.073 203.847C250.85 203.72 250.596 201.942 248.819 202.069L245.519 202.196C245.392 201.689 245.138 201.181 244.757 200.8C242.853 198.134 237.775 196.357 233.459 197.753C230.666 198.642 228.381 200.546 227.239 203.212L219.368 203.593C219.749 202.196 220.511 201.054 221.653 200.165C223.811 198.388 219.495 196.103 217.337 197.88C215.179 199.657 213.782 201.689 213.782 203.847L211.751 203.974C209.974 204.101 210.228 205.878 212.005 205.751L214.036 205.624C214.036 205.751 214.163 205.878 214.163 206.005C215.306 208.797 219.241 210.829 223.811 210.702C225.842 210.702 227.873 210.194 229.651 209.051ZM234.094 202.196C234.601 201.689 235.109 201.308 235.871 201.054C236.379 200.927 237.013 200.8 237.521 200.927C238.537 201.054 239.425 201.689 239.933 202.577L233.332 202.958C233.586 202.704 233.84 202.45 234.094 202.196ZM221.272 206.893C220.637 206.639 220.003 206.132 219.622 205.497L226.477 205.116C226.35 205.497 226.096 205.878 225.842 206.259C225.715 206.512 225.588 206.639 225.334 206.766C225.207 206.893 224.7 207.02 224.7 207.02C223.557 207.401 222.288 207.274 221.272 206.893Z" fill="#0F3261"/>
<path d="M52.69 92.2621C45.9619 94.0394 36.4411 91.2466 28.9513 77.0287C21.4616 62.8109 0.896484 29.1705 0.896484 29.1705C0.896484 29.1705 36.0602 -2.05799 68.3043 0.100076L96.613 58.6217C96.9938 64.969 93.4394 70.9354 87.7268 73.8551C77.8251 79.1868 52.69 92.2621 52.69 92.2621Z" fill="#0F3261"/>
<path d="M110.703 132.378C97.6279 136.821 77.9514 144.057 73.1275 140.757C68.3036 137.456 85.3142 121.969 100.167 118.922C115.019 115.876 110.703 132.378 110.703 132.378Z" fill="white"/>
<path d="M77.063 142.153C75.5396 142.28 74.0163 141.899 72.7468 141.137C71.7313 140.503 71.3505 139.233 71.7313 138.091C72.8738 132.505 87.0916 120.826 100.04 118.16C104.356 117.272 107.53 117.906 109.561 120.064C113.369 124.127 111.465 132.124 111.338 132.378C111.338 132.632 111.084 132.759 110.957 132.886L107.657 134.028C96.8664 137.837 84.1719 142.153 77.063 142.153ZM103.468 119.176C102.452 119.176 101.309 119.303 100.294 119.557C87.9802 122.096 74.0163 133.394 73.0007 138.471C72.7468 139.487 73.1277 139.995 73.5085 140.249C77.6977 143.168 95.47 137.075 107.276 133.013L110.196 131.997C110.449 130.474 111.592 124.254 108.672 121.207C107.149 119.684 105.372 119.049 103.468 119.176Z" fill="#0F3261"/>
<path d="M114.639 136.948C104.356 146.215 88.9958 160.559 83.2833 159.29C77.5707 158.021 87.2185 137.202 99.6592 128.696C112.1 120.191 114.639 136.948 114.639 136.948Z" fill="white"/>
<path d="M84.0452 159.924C83.7913 159.924 83.4105 159.924 83.1566 159.797C82.0141 159.543 81.1255 158.528 80.9985 157.385C79.856 151.8 88.3613 135.424 99.2786 127.934C102.96 125.522 106.134 124.761 108.799 125.903C114.004 128.188 115.147 136.186 115.274 136.566C115.274 136.82 115.274 136.947 115.02 137.074L112.481 139.359C102.452 148.753 90.0116 159.924 84.0452 159.924ZM106.134 126.792C103.976 126.919 101.818 127.68 100.04 129.077C89.6308 136.186 81.2524 152.054 82.268 157.258C82.5219 158.274 83.0297 158.528 83.4105 158.655C88.3613 159.797 102.452 147.103 111.592 138.724L113.877 136.693C113.623 135.17 112.227 129.077 108.165 127.299C107.657 127.046 106.895 126.792 106.134 126.792Z" fill="#0F3261"/>
<path d="M121.748 143.802C120.733 157.639 112.227 170.588 107.53 181.759C102.833 192.93 91.0275 194.199 93.4395 182.14C95.8514 170.08 107.403 136.947 107.403 136.947L121.748 143.802Z" fill="white"/>
<path d="M97.3745 191.153C96.8667 191.153 96.3589 191.026 95.8512 190.899C92.9314 190.011 91.7889 186.583 92.8045 181.886C95.2164 169.953 106.641 136.948 106.768 136.694C106.768 136.567 106.895 136.44 107.149 136.313C107.276 136.186 107.53 136.186 107.657 136.313L122.002 143.168C122.256 143.295 122.383 143.549 122.383 143.803C121.621 154.212 116.67 164.241 112.354 173C110.831 176.047 109.434 179.093 108.165 181.886C105.499 187.98 100.929 191.153 97.3745 191.153ZM107.784 137.709C106.134 142.533 96.3589 171.223 94.0739 182.14C93.1853 186.202 94.0739 188.995 96.232 189.757C99.2787 190.645 104.23 187.599 106.895 181.378C108.165 178.586 109.561 175.539 111.085 172.492C115.401 163.86 120.225 154.085 120.986 144.184L107.784 137.709Z" fill="#0F3261"/>
<path d="M88.2351 64.0791C102.072 88.5795 112.736 93.7842 121.241 112.826C132.031 136.819 138.505 178.456 137.744 193.563C136.982 208.669 131.904 208.542 128.223 199.149C124.541 189.755 116.544 152.56 116.544 152.56L93.5668 124.251C92.0435 122.347 89.2507 122.093 87.3465 123.616C86.204 124.505 85.5693 126.028 85.6962 127.425C86.204 132.375 86.8387 137.834 87.4735 142.658C89.1237 155.353 91.9165 167.158 79.7298 168.809C67.5431 170.459 56.8797 132.502 54.3408 114.476C51.8019 96.4501 46.8511 85.152 46.8511 85.152C57.7683 74.8694 71.2245 67.6336 85.9501 64.4599L88.2351 64.0791Z" fill="white"/>
<path d="M133.426 206.386C131.395 206.386 129.364 203.974 127.587 199.404C124.032 190.264 116.543 155.862 116.035 152.942L93.1848 124.761C91.7884 123.237 89.3765 122.983 87.8531 124.38C86.9645 125.142 86.4567 126.284 86.5837 127.427C87.2184 133.266 87.7262 138.471 88.3609 142.66C88.4879 143.802 88.6148 144.945 88.8687 145.961C89.8843 153.831 91.0268 161.194 87.5993 165.637C85.949 167.795 83.537 168.938 80.1095 169.445C72.7467 170.588 66.7803 159.163 62.9719 149.388C58.7827 138.217 55.7361 126.538 53.9588 114.732C52.6894 104.703 50.1505 94.9286 46.4691 85.6617C46.3421 85.4078 46.4691 85.1539 46.596 84.9C57.6402 74.4905 71.2234 67.2546 85.949 63.9541L88.107 63.4463C88.3609 63.4463 88.6148 63.5732 88.8687 63.7002C93.9465 72.7133 99.9129 81.3455 106.641 89.2161C112.354 96.325 117.304 102.418 121.747 112.447C132.411 136.313 139.139 178.078 138.25 193.565C137.869 201.435 136.219 205.752 133.68 206.259H133.426V206.386ZM90.2651 122.095C91.7884 122.095 93.1848 122.857 94.0734 123.999L117.05 152.308C117.177 152.435 117.177 152.435 117.177 152.562C117.304 152.942 125.175 189.757 128.729 199.023C130.634 203.847 132.411 205.244 133.553 205.117C134.95 204.863 136.6 201.816 136.981 193.692C137.743 178.331 131.141 136.82 120.478 113.209C116.162 103.434 111.211 97.3406 105.498 90.3586C98.8974 82.488 92.9309 73.9827 87.7262 64.9696L85.949 65.3505C71.6042 68.5241 58.275 75.633 47.4846 85.6617C51.166 95.0556 53.578 104.703 54.8475 114.732C57.8941 134.155 68.6845 169.826 79.7287 168.43C82.2676 168.303 84.8065 167.033 86.4568 165.129C89.5034 161.194 88.4879 153.958 87.4723 146.468C87.3454 145.326 87.2184 144.183 87.0915 143.168C86.5837 138.979 85.949 133.774 85.3142 127.807C85.0604 125.522 86.3298 123.364 88.3609 122.603C88.9957 122.222 89.6304 122.095 90.2651 122.095Z" fill="#0F3261"/>
<path d="M357.485 233.552L315.339 177.95L526.068 176.427L574.561 232.029L357.485 233.552Z" fill="white"/>
<path d="M357.486 234.186C357.232 234.186 357.105 234.059 356.978 233.932L314.705 178.33C314.451 178.076 314.578 177.695 314.832 177.441C314.959 177.314 315.086 177.314 315.213 177.314L525.942 175.791C526.069 175.791 526.323 175.918 526.449 176.045L574.942 231.647C575.196 231.901 575.196 232.282 574.942 232.535C574.815 232.662 574.689 232.662 574.562 232.662L357.486 234.186ZM316.609 178.584L357.867 232.916L573.165 231.393L525.815 177.06L316.609 178.584Z" fill="#0F3261"/>
<path d="M324.098 182.265L524.036 180.868L564.912 227.711L359.642 229.107L324.098 182.265Z" fill="white"/>
<path d="M359.643 229.743C359.389 229.743 359.262 229.616 359.135 229.489L323.591 182.646C323.464 182.392 323.464 182.139 323.591 182.012C323.718 181.758 323.972 181.631 324.099 181.631L524.037 180.234C524.164 180.234 524.418 180.361 524.545 180.488L565.421 227.331C565.548 227.585 565.675 227.839 565.548 227.966C565.421 228.22 565.167 228.347 564.913 228.347L359.643 229.743ZM325.368 182.9L360.024 228.473L563.517 227.077L523.783 181.504L325.368 182.9Z" fill="#0F3261"/>
<path d="M466.679 206.596C467.486 198.01 455.748 189.885 440.462 188.448C425.175 187.011 412.129 192.806 411.322 201.392C410.515 209.978 422.252 218.102 437.539 219.539C452.825 220.976 465.872 215.181 466.679 206.596Z" fill="white"/>
<path d="M442.158 220.35H441.016C425.528 219.969 411.945 212.352 410.803 203.466C410.422 200.419 411.437 197.373 413.595 195.215C418.039 190.264 426.925 187.471 437.08 187.598C452.568 187.979 466.151 195.468 467.293 204.482C467.674 207.528 466.658 210.575 464.5 212.733C460.184 217.43 451.679 220.35 442.158 220.35ZM441.016 219.08C450.663 219.334 459.296 216.541 463.485 211.971C465.389 210.067 466.278 207.401 466.024 204.735C464.881 196.357 451.933 189.248 436.953 188.994C427.306 188.74 418.673 191.533 414.484 196.103C412.58 198.007 411.691 200.673 411.945 203.339C413.088 211.59 426.163 218.699 441.016 219.08Z" fill="#0F3261"/>
<path d="M438.096 209.178C439.365 208.289 440.254 207.146 440.889 205.75C441.016 205.496 441.143 205.369 441.269 205.115H450.029C449.648 206.004 449.013 206.893 448.124 207.4C447.109 208.162 447.236 209.178 448.632 209.939C450.029 210.574 451.679 210.574 453.075 209.939C454.853 208.797 455.995 207.146 456.376 205.115H460.184C462.215 205.115 461.835 203.338 459.803 203.338H456.122C455.995 202.83 455.614 202.322 455.36 201.942C453.202 199.149 447.49 197.118 442.539 198.26C439.619 198.768 436.953 200.672 435.557 203.338H426.671C427.179 201.942 428.067 200.799 429.21 200.037C431.622 198.387 426.798 195.848 424.386 197.499C421.974 199.149 420.45 201.053 420.45 203.211H418.165C416.134 203.211 416.515 204.988 418.419 204.988H420.704C420.704 205.115 420.831 205.242 420.831 205.369C422.101 208.162 426.544 210.447 431.622 210.574C433.907 210.701 436.065 210.193 438.096 209.178ZM443.174 202.576C443.681 202.069 444.443 201.688 445.078 201.561C445.713 201.434 446.347 201.434 446.982 201.561C448.124 201.688 449.14 202.322 449.775 203.338H442.412C442.666 203.084 442.92 202.83 443.174 202.576ZM428.702 206.512C427.94 206.258 427.306 205.75 426.925 204.988H434.541C434.287 205.369 434.034 205.75 433.78 206.131C433.653 206.385 433.399 206.512 433.272 206.639C433.145 206.766 432.637 206.892 432.637 206.892C431.241 207.146 429.844 207.019 428.702 206.512Z" fill="#0F3261"/>
<path d="M574.562 232.027V245.103L357.486 246.499V233.551L574.562 232.027Z" fill="#0F3261"/>
<path d="M357.485 247.134C357.104 247.134 356.851 246.88 356.851 246.499V233.551C356.851 233.17 357.104 232.916 357.485 232.916L574.561 231.393C574.688 231.393 574.942 231.52 575.069 231.52C575.196 231.646 575.196 231.773 575.196 232.027V245.103C575.196 245.483 574.942 245.737 574.561 245.737L357.485 247.134ZM358.12 234.058V245.864L573.926 244.341V232.662L358.12 234.058Z" fill="#0F3261"/>
<path d="M315.339 177.949V191.025L357.485 246.499V233.551L315.339 177.949Z" fill="#0F3261"/>
<path d="M357.485 247.134C357.231 247.134 357.104 247.007 356.977 246.88L314.705 191.278C314.578 191.151 314.578 191.025 314.578 190.898V177.949C314.578 177.568 314.832 177.314 315.212 177.314C315.466 177.314 315.593 177.441 315.72 177.568L357.993 233.17C358.12 233.297 358.12 233.424 358.12 233.551V246.499C358.12 246.753 357.993 247.007 357.612 247.134C357.612 247.134 357.612 247.134 357.485 247.134ZM315.847 190.771L356.85 244.595V233.678L315.974 179.853L315.847 190.771Z" fill="#0F3261"/>
<path d="M189.791 178.585C189.41 178.585 189.156 178.331 189.156 177.95V171.603C189.156 171.222 189.41 170.968 189.791 170.968C190.172 170.968 190.426 171.222 190.426 171.603V177.95C190.426 178.331 190.172 178.585 189.791 178.585ZM400.139 171.73C399.758 171.73 399.504 171.476 399.504 171.095V164.748C399.504 164.367 399.758 164.113 400.139 164.113C400.52 164.113 400.773 164.367 400.773 164.748V171.095C400.773 171.476 400.52 171.73 400.139 171.73ZM189.791 165.89C189.41 165.89 189.156 165.636 189.156 165.255V158.908C189.156 158.527 189.41 158.273 189.791 158.273C190.172 158.273 190.426 158.527 190.426 158.908V165.255C190.426 165.636 190.172 165.89 189.791 165.89ZM400.139 159.035C399.758 159.035 399.504 158.781 399.504 158.4V152.053C399.504 151.672 399.758 151.418 400.139 151.418C400.52 151.418 400.773 151.672 400.773 152.053V158.4C400.773 158.781 400.52 159.035 400.139 159.035ZM189.791 153.196C189.41 153.196 189.156 152.942 189.156 152.561V146.214C189.156 145.833 189.41 145.579 189.791 145.579C190.172 145.579 190.426 145.833 190.426 146.214V152.561C190.426 152.942 190.172 153.196 189.791 153.196ZM400.139 146.341C399.758 146.341 399.504 146.087 399.504 145.706V139.359C399.504 138.978 399.758 138.724 400.139 138.724C400.52 138.724 400.773 138.978 400.773 139.359V145.706C400.773 146.087 400.52 146.341 400.139 146.341ZM189.791 140.501C189.41 140.501 189.156 140.247 189.156 139.866V133.519C189.156 133.138 189.41 132.884 189.791 132.884C190.172 132.884 190.426 133.138 190.426 133.519V139.866C190.426 140.247 190.172 140.501 189.791 140.501ZM400.139 133.646C399.758 133.646 399.504 133.392 399.504 133.011V126.664C399.504 126.283 399.758 126.029 400.139 126.029C400.52 126.029 400.773 126.283 400.773 126.664V133.011C400.773 133.392 400.52 133.646 400.139 133.646ZM189.791 127.807C189.41 127.807 189.156 127.553 189.156 127.172V120.825C189.156 120.444 189.41 120.19 189.791 120.19C190.172 120.19 190.426 120.444 190.426 120.825V127.172C190.426 127.553 190.172 127.807 189.791 127.807ZM400.139 120.952C399.758 120.952 399.504 120.698 399.504 120.317V113.97C399.504 113.589 399.758 113.335 400.139 113.335C400.52 113.335 400.773 113.589 400.773 113.97V120.317C400.773 120.698 400.52 120.952 400.139 120.952ZM189.791 115.112C189.41 115.112 189.156 114.858 189.156 114.477V108.13C189.156 107.749 189.41 107.495 189.791 107.495C190.172 107.495 190.426 107.749 190.426 108.13V114.477C190.426 114.858 190.172 115.112 189.791 115.112ZM400.139 108.257C399.758 108.257 399.504 108.003 399.504 107.622V101.275C399.504 100.894 399.758 100.64 400.139 100.64C400.52 100.64 400.773 100.894 400.773 101.275V107.622C400.773 108.003 400.52 108.257 400.139 108.257ZM189.791 102.418C189.41 102.418 189.156 102.164 189.156 101.783V95.4356C189.156 95.0548 189.41 94.8009 189.791 94.8009C190.172 94.8009 190.426 95.0548 190.426 95.4356V101.783C190.426 102.164 190.172 102.418 189.791 102.418ZM400.139 95.5626C399.758 95.5626 399.504 95.3087 399.504 94.9278V91.8811C399.504 90.8656 399.377 89.7231 398.996 88.8345C398.869 88.4536 399.123 88.1997 399.504 88.0728C399.758 88.0728 400.139 88.1997 400.266 88.4536C400.647 89.5961 400.9 90.7386 400.9 92.0081V95.0548C400.773 95.3087 400.52 95.5626 400.139 95.5626ZM190.172 89.7231H190.045C189.664 89.5961 189.537 89.3422 189.664 88.9614C190.299 86.8033 191.568 84.8992 193.345 83.5028C193.599 83.2489 193.98 83.3758 194.234 83.6297C194.488 83.8836 194.361 84.2644 194.107 84.5183C192.584 85.7878 191.441 87.4381 190.807 89.3422C190.68 89.5961 190.426 89.7231 190.172 89.7231ZM395.823 84.2644C395.696 84.2644 395.569 84.2645 395.442 84.1375C393.792 82.995 391.887 82.3603 389.856 82.3603C389.475 82.3603 389.221 82.1064 389.221 81.7255C389.221 81.3447 389.475 81.0908 389.856 81.0908C392.141 81.0908 394.299 81.8525 396.203 83.1219C396.457 83.3758 396.584 83.7567 396.33 84.0106C396.203 84.1375 396.077 84.2644 395.823 84.2644ZM199.439 82.3603C199.058 82.3603 198.804 82.1064 198.804 81.7255C198.804 81.3447 199.058 81.0908 199.439 81.0908H205.786C206.167 81.0908 206.421 81.3447 206.421 81.7255C206.421 82.1064 206.167 82.3603 205.786 82.3603H199.439ZM383.509 82.3603H377.162C376.781 82.3603 376.527 82.1064 376.527 81.7255C376.527 81.3447 376.781 81.0908 377.162 81.0908H383.509C383.89 81.0908 384.144 81.3447 384.144 81.7255C384.144 82.1064 383.89 82.3603 383.509 82.3603ZM370.814 82.3603H364.467C364.086 82.3603 363.833 82.1064 363.833 81.7255C363.833 81.3447 364.086 81.0908 364.467 81.0908H370.814C371.195 81.0908 371.449 81.3447 371.449 81.7255C371.449 82.1064 371.195 82.3603 370.814 82.3603ZM358.12 82.3603H351.773C351.392 82.3603 351.138 82.1064 351.138 81.7255C351.138 81.3447 351.392 81.0908 351.773 81.0908H358.12C358.501 81.0908 358.755 81.3447 358.755 81.7255C358.755 82.1064 358.501 82.3603 358.12 82.3603ZM345.425 82.3603H339.078C338.697 82.3603 338.444 82.1064 338.444 81.7255C338.444 81.3447 338.697 81.0908 339.078 81.0908H345.425C345.806 81.0908 346.06 81.3447 346.06 81.7255C346.06 82.1064 345.806 82.3603 345.425 82.3603ZM332.731 82.3603H326.384C326.003 82.3603 325.749 82.1064 325.749 81.7255C325.749 81.3447 326.003 81.0908 326.384 81.0908H332.731C333.112 81.0908 333.366 81.3447 333.366 81.7255C333.366 82.1064 333.112 82.3603 332.731 82.3603ZM320.036 82.3603H313.689C313.308 82.3603 313.055 82.1064 313.055 81.7255C313.055 81.3447 313.308 81.0908 313.689 81.0908H320.036C320.417 81.0908 320.671 81.3447 320.671 81.7255C320.671 82.1064 320.417 82.3603 320.036 82.3603ZM307.342 82.3603H300.995C300.614 82.3603 300.36 82.1064 300.36 81.7255C300.36 81.3447 300.614 81.0908 300.995 81.0908H307.342C307.723 81.0908 307.977 81.3447 307.977 81.7255C307.977 82.1064 307.723 82.3603 307.342 82.3603ZM294.648 82.3603H288.3C287.919 82.3603 287.666 82.1064 287.666 81.7255C287.666 81.3447 287.919 81.0908 288.3 81.0908H294.648C295.028 81.0908 295.282 81.3447 295.282 81.7255C295.282 82.1064 295.028 82.3603 294.648 82.3603ZM281.953 82.3603H275.606C275.225 82.3603 274.971 82.1064 274.971 81.7255C274.971 81.3447 275.225 81.0908 275.606 81.0908H281.953C282.334 81.0908 282.588 81.3447 282.588 81.7255C282.588 82.1064 282.334 82.3603 281.953 82.3603ZM269.259 82.3603H262.911C262.53 82.3603 262.277 82.1064 262.277 81.7255C262.277 81.3447 262.53 81.0908 262.911 81.0908H269.259C269.639 81.0908 269.893 81.3447 269.893 81.7255C269.893 82.1064 269.639 82.3603 269.259 82.3603ZM256.564 82.3603H250.217C249.836 82.3603 249.582 82.1064 249.582 81.7255C249.582 81.3447 249.836 81.0908 250.217 81.0908H256.564C256.945 81.0908 257.199 81.3447 257.199 81.7255C257.199 82.1064 256.945 82.3603 256.564 82.3603ZM243.87 82.3603H237.522C237.141 82.3603 236.888 82.1064 236.888 81.7255C236.888 81.3447 237.141 81.0908 237.522 81.0908H243.87C244.25 81.0908 244.504 81.3447 244.504 81.7255C244.504 82.1064 244.25 82.3603 243.87 82.3603ZM231.175 82.3603H224.828C224.447 82.3603 224.193 82.1064 224.193 81.7255C224.193 81.3447 224.447 81.0908 224.828 81.0908H231.175C231.556 81.0908 231.81 81.3447 231.81 81.7255C231.81 82.1064 231.556 82.3603 231.175 82.3603ZM218.481 82.3603H212.133C211.752 82.3603 211.499 82.1064 211.499 81.7255C211.499 81.3447 211.752 81.0908 212.133 81.0908H218.481C218.861 81.0908 219.115 81.3447 219.115 81.7255C219.115 82.1064 218.861 82.3603 218.481 82.3603Z" fill="#0F3261"/>
<path d="M314.999 82.2451C317.312 67.9888 307.631 54.5561 293.375 52.2424C279.118 49.9287 265.686 59.6101 263.372 73.8664C261.058 88.1227 270.74 101.555 284.996 103.869C299.252 106.183 312.685 96.5014 314.999 82.2451Z" fill="#0F3261"/>
<path d="M289.19 104.829C274.465 104.829 262.405 92.8958 262.405 78.0432C262.405 63.3176 274.338 51.2578 289.19 51.2578C303.916 51.2578 315.976 63.1906 315.976 78.0432C315.849 92.7688 303.916 104.829 289.19 104.829ZM289.19 52.5273C275.099 52.5273 263.674 63.9523 263.674 78.0432C263.674 92.1341 275.099 103.559 289.19 103.559C303.281 103.559 314.706 92.1341 314.706 78.0432C314.579 63.9523 303.281 52.6542 289.19 52.5273Z" fill="#0F3261"/>
<path d="M285.126 86.0407C284.999 86.0407 284.745 85.9137 284.745 85.7867L275.479 73.8539C275.225 73.6 275.225 73.2192 275.479 72.9653C275.732 72.7114 276.113 72.7114 276.367 72.9653L285.253 84.3904L303.66 69.5378C303.914 69.2839 304.295 69.4109 304.549 69.6647C304.803 69.9186 304.676 70.2995 304.422 70.5534L285.507 85.7867C285.507 86.0406 285.253 86.0407 285.126 86.0407Z" fill="white"/>
<path d="M514.898 112.446V157.893H395.316L385.287 167.16V112.446H514.898Z" fill="white"/>
<path d="M385.287 167.794C384.906 167.794 384.652 167.54 384.652 167.16V112.446C384.652 112.065 384.906 111.812 385.287 111.812H514.898C515.279 111.812 515.533 112.065 515.533 112.446V157.893C515.533 158.273 515.279 158.527 514.898 158.527H395.57L385.795 167.54C385.668 167.667 385.541 167.794 385.287 167.794ZM385.922 113.081V165.636L394.808 157.385C394.935 157.258 395.062 157.258 395.189 157.258H514.263V113.081H385.922Z" fill="#0F3261"/>
<path d="M399.505 128.695H465.517C467.421 128.695 468.944 130.219 468.944 132.123V138.343C468.944 140.247 467.421 141.771 465.517 141.771H399.505C397.601 141.771 396.078 140.247 396.078 138.343V132.123C396.078 130.219 397.601 128.695 399.505 128.695Z" fill="white"/>
<path d="M465.517 142.277H399.506C397.348 142.277 395.443 140.5 395.443 138.215V131.995C395.443 129.837 397.221 127.933 399.506 127.933H465.517C467.802 127.933 469.579 129.71 469.579 131.995V138.215C469.452 140.5 467.675 142.277 465.517 142.277ZM399.506 129.329C397.982 129.329 396.713 130.598 396.713 132.122V138.342C396.713 139.865 397.982 141.135 399.506 141.135H465.517C467.04 141.135 468.31 139.865 468.31 138.342V132.122C468.31 130.598 467.04 129.329 465.517 129.329H399.506Z" fill="#0F3261"/>
<path d="M493.319 136.439L497.889 142.151H485.448L490.018 136.439C490.653 135.677 490.653 134.662 490.018 133.9L485.448 128.188H497.889L493.319 133.9C492.684 134.662 492.684 135.677 493.319 136.439Z" fill="white"/>
<path d="M497.887 142.786H485.447C485.193 142.786 484.939 142.659 484.812 142.405C484.685 142.151 484.685 141.898 484.939 141.771L489.509 136.058C489.89 135.55 489.89 134.789 489.509 134.281L484.939 128.568C484.685 128.314 484.812 127.934 485.066 127.68C485.193 127.553 485.32 127.553 485.447 127.553H497.887C498.141 127.553 498.395 127.68 498.522 127.934C498.649 128.187 498.649 128.441 498.395 128.568L493.825 134.281C493.444 134.789 493.444 135.55 493.825 136.058L498.395 141.771C498.522 142.024 498.522 142.278 498.522 142.405C498.395 142.659 498.141 142.786 497.887 142.786ZM486.843 141.517H496.618L492.809 136.82C492.048 135.804 492.048 134.408 492.809 133.519L496.618 128.822H486.843L490.651 133.519C491.413 134.535 491.413 135.931 490.651 136.82L486.843 141.517Z" fill="#0F3261"/>
<path d="M499.538 124.76H483.67V128.06H499.538V124.76Z" fill="#0F3261"/>
<path d="M499.664 128.695H483.669C483.289 128.695 483.035 128.441 483.035 128.06V124.76C483.035 124.379 483.289 124.125 483.669 124.125H499.664C500.045 124.125 500.299 124.379 500.299 124.76V128.06C500.299 128.441 500.045 128.695 499.664 128.695ZM484.431 127.426H499.03V125.394H484.304L484.431 127.426Z" fill="#0F3261"/>
<path d="M499.538 142.15H483.67V145.451H499.538V142.15Z" fill="#0F3261"/>
<path d="M499.664 146.087H483.669C483.289 146.087 483.035 145.833 483.035 145.452V142.151C483.035 141.77 483.289 141.517 483.669 141.517H499.664C500.045 141.517 500.299 141.77 500.299 142.151V145.579C500.299 145.96 500.045 146.214 499.664 146.087ZM484.431 144.817H499.03V142.786H484.304L484.431 144.817Z" fill="#0F3261"/>
<path d="M407.122 128.695H402.933L398.998 141.644H403.187L407.122 128.695Z" fill="#0F3261"/>
<path d="M403.187 142.277H398.998C398.744 142.277 398.617 142.15 398.49 142.024C398.363 141.897 398.363 141.643 398.363 141.516L402.298 128.567C402.425 128.313 402.679 128.06 402.933 128.06H407.122C407.376 128.06 407.503 128.187 407.63 128.313C407.757 128.44 407.757 128.694 407.757 128.821L403.821 141.77C403.694 142.024 403.441 142.277 403.187 142.277ZM399.886 141.008H402.679L406.233 129.329H403.441L399.886 141.008Z" fill="#0F3261"/>
<path d="M415.247 128.695H411.057L407.122 141.644H411.311L415.247 128.695Z" fill="#0F3261"/>
<path d="M411.311 142.277H407.122C406.868 142.277 406.741 142.15 406.614 142.024C406.487 141.897 406.487 141.643 406.487 141.516L410.423 128.567C410.55 128.313 410.803 128.06 411.057 128.06H415.247C415.5 128.06 415.627 128.187 415.754 128.313C415.881 128.44 415.881 128.694 415.881 128.821L411.946 141.77C411.819 142.024 411.565 142.277 411.311 142.277ZM408.011 141.008H410.803L414.358 129.329H411.565L408.011 141.008Z" fill="#0F3261"/>
<path d="M423.37 128.695H419.181L415.246 141.644H419.435L423.37 128.695Z" fill="#0F3261"/>
<path d="M419.435 142.277H415.246C414.992 142.277 414.865 142.15 414.738 142.024C414.611 141.897 414.611 141.643 414.611 141.516L418.547 128.567C418.674 128.313 418.927 128.06 419.181 128.06H423.371C423.624 128.06 423.751 128.187 423.878 128.313C424.005 128.44 424.005 128.694 424.005 128.821L420.07 141.77C419.943 142.024 419.689 142.277 419.435 142.277ZM416.135 141.008H418.927L422.482 129.329H419.689L416.135 141.008Z" fill="#0F3261"/>
<path d="M431.495 128.695H427.305L423.37 141.644H427.559L431.495 128.695Z" fill="#0F3261"/>
<path d="M427.56 142.277H423.371C423.117 142.277 422.99 142.15 422.863 142.024C422.736 141.897 422.736 141.643 422.736 141.516L426.671 128.567C426.798 128.313 427.052 128.06 427.306 128.06H431.495C431.749 128.06 431.876 128.187 432.003 128.313C432.13 128.44 432.13 128.694 432.13 128.821L428.194 141.77C428.068 142.024 427.814 142.277 427.56 142.277ZM424.259 141.008H427.052L430.606 129.329H427.814L424.259 141.008Z" fill="#0F3261"/>
<path d="M439.62 128.695H435.431L431.496 141.644H435.685L439.62 128.695Z" fill="#0F3261"/>
<path d="M435.685 142.277H431.496C431.242 142.277 431.115 142.15 430.988 142.024C430.861 141.897 430.861 141.643 430.861 141.516L434.796 128.567C434.923 128.313 435.177 128.06 435.431 128.06H439.62C439.874 128.06 440.001 128.187 440.128 128.313C440.255 128.44 440.255 128.694 440.255 128.821L436.319 141.77C436.193 142.024 435.939 142.277 435.685 142.277ZM432.384 141.008H435.177L438.731 129.329H435.939L432.384 141.008Z" fill="#0F3261"/>
<path d="M447.744 128.695H443.555L439.62 141.644H443.809L447.744 128.695Z" fill="#0F3261"/>
<path d="M443.808 142.277H439.619C439.365 142.277 439.238 142.15 439.111 142.024C438.984 141.897 438.984 141.643 438.984 141.516L442.92 128.567C443.047 128.313 443.3 128.06 443.554 128.06H447.744C447.997 128.06 448.124 128.187 448.251 128.313C448.378 128.44 448.378 128.694 448.378 128.821L444.443 141.77C444.316 142.024 444.062 142.277 443.808 142.277ZM440.508 141.008H443.3L446.855 129.329H444.062L440.508 141.008Z" fill="#0F3261"/>
<path d="M455.869 128.695H451.68L447.745 141.644H451.934L455.869 128.695Z" fill="#0F3261"/>
<path d="M451.933 142.277H447.744C447.49 142.277 447.363 142.15 447.236 142.024C447.109 141.897 447.109 141.643 447.109 141.516L451.045 128.567C451.172 128.313 451.426 128.06 451.679 128.06H455.869C456.122 128.06 456.249 128.187 456.376 128.313C456.503 128.44 456.503 128.694 456.503 128.821L452.568 141.77C452.441 142.024 452.187 142.277 451.933 142.277ZM448.633 141.008H451.425L454.98 129.329H452.187L448.633 141.008Z" fill="#0F3261"/>
<path d="M463.993 128.695H459.803L455.868 141.644H460.057L463.993 128.695Z" fill="#0F3261"/>
<path d="M460.058 142.277H455.869C455.615 142.277 455.488 142.15 455.361 142.024C455.234 141.897 455.234 141.643 455.234 141.516L459.169 128.567C459.296 128.313 459.55 128.06 459.804 128.06H463.993C464.247 128.06 464.374 128.187 464.501 128.313C464.628 128.44 464.628 128.694 464.628 128.821L460.693 141.77C460.566 142.024 460.312 142.277 460.058 142.277ZM456.757 141.008H459.55L463.104 129.329H460.312L456.757 141.008Z" fill="#0F3261"/>
</svg>
