<svg width="288" height="251" viewBox="0 0 288 251" fill="none" xmlns="http://www.w3.org/2000/svg">
<path d="M22.7217 39.6144L169.454 0.834961L194.469 15.3685L241.982 194.802L75.4756 238.822L22.7217 39.6144Z" fill="white"/>
<path d="M75.4062 239.31C75.1965 239.31 75.0568 239.17 75.0568 239.031L22.3028 39.7535C22.233 39.5439 22.3727 39.3343 22.5823 39.2644L169.245 0.485022C169.315 0.415149 169.455 0.415149 169.525 0.485022L194.609 15.0884C194.679 15.1583 194.749 15.2282 194.819 15.2981L242.332 194.731C242.332 194.801 242.332 194.941 242.262 195.011C242.192 195.081 242.123 195.151 242.053 195.22L75.5459 239.24C75.476 239.31 75.476 239.31 75.4062 239.31ZM23.2112 39.8933L75.6856 238.402L241.424 194.522L194.12 15.6474L169.315 1.25362L23.2112 39.8933Z" fill="#0F3261"/>
<path d="M58.8457 68.1919C57.588 68.1919 56.5399 67.3535 56.1906 66.1656L53.8848 57.5014C53.4655 56.0341 54.3739 54.5667 55.8412 54.1475L147.305 29.9715C148.003 29.7619 148.772 29.9017 149.401 30.251C150.03 30.6004 150.449 31.2292 150.659 31.928L152.964 40.5922C153.174 41.2909 153.034 42.0595 152.685 42.6884C152.336 43.3172 151.707 43.7365 151.008 43.9461L59.5445 68.1221C59.265 68.1919 59.0554 68.1919 58.8457 68.1919ZM56.0508 54.9161C55.0027 55.1956 54.3739 56.2437 54.6534 57.2918L56.9592 65.956C57.2387 67.0041 58.2868 67.633 59.3349 67.3535L150.798 43.1775C151.287 43.0377 151.707 42.6884 151.986 42.2691C152.266 41.8499 152.335 41.2909 152.196 40.8018L149.89 32.1376C149.75 31.6485 149.401 31.2292 148.982 30.9498C148.562 30.6703 148.003 30.6004 147.514 30.7401L56.0508 54.9161Z" fill="#0F3261"/>
<path d="M70.4461 86.6391C70.2365 86.6391 70.0269 86.4993 70.0269 86.2897C70.0269 86.0801 70.1666 85.8705 70.3762 85.8705C73.1013 85.032 75.8962 84.8224 78.6911 85.1718C84.1412 85.8006 89.6611 84.2634 93.9932 80.9095C98.5349 77.4858 104.195 75.8787 109.854 76.5075C115.304 77.1364 120.824 75.5992 125.156 72.2453C129.698 68.8215 135.358 67.2145 141.018 67.8433C143.743 68.1927 146.468 67.9831 149.053 67.2145C149.263 67.1446 149.472 67.2843 149.542 67.494C149.612 67.7036 149.472 67.9132 149.263 67.9831C146.538 68.8215 143.673 69.0312 140.878 68.6818C135.428 68.0529 129.908 69.5901 125.576 72.944C121.034 76.3678 115.374 77.9749 109.715 77.346C104.265 76.7172 98.8144 78.2544 94.4823 81.5384C89.9406 84.9622 84.2809 86.5692 78.6212 85.9404C75.8962 85.591 73.1711 85.8006 70.516 86.5692L70.4461 86.6391Z" fill="#0F3261"/>
<path d="M75.1966 105.225C74.987 105.225 74.8473 105.085 74.8473 104.945C74.7774 104.736 74.9171 104.526 75.1268 104.456C77.3627 103.757 79.6685 103.618 81.9743 103.897C86.4462 104.386 90.918 103.128 94.4815 100.403C98.1848 97.6085 102.866 96.2809 107.548 96.8399C112.02 97.329 116.491 96.0713 120.055 93.3463C123.758 90.4815 128.44 89.2238 133.121 89.7129C135.357 89.9924 137.593 89.8526 139.689 89.1539C139.899 89.084 140.108 89.2238 140.178 89.4334C140.248 89.643 140.108 89.8527 139.899 89.9225C137.663 90.6213 135.357 90.761 133.051 90.4815C130.815 90.202 128.579 90.3418 126.483 91.0405C124.317 91.5995 122.291 92.5777 120.544 93.9751C116.841 96.8399 112.159 98.0976 107.478 97.6085C103.006 97.1194 98.5341 98.3771 94.9706 101.102C91.2674 103.897 86.5859 105.225 81.9743 104.666C79.7384 104.386 77.5024 104.526 75.4063 105.225H75.1966Z" fill="#0F3261"/>
<path d="M169.386 63.2309C169.176 63.2309 169.036 63.0912 168.966 62.9514C168.897 62.7418 169.036 62.5322 169.246 62.4623L191.186 56.3834C191.396 56.3135 191.605 56.4533 191.675 56.6629C191.745 56.8725 191.605 57.0821 191.396 57.152L169.456 63.2309H169.386Z" fill="#0F3261"/>
<path d="M173.299 71.7544C173.089 71.7544 172.949 71.6146 172.949 71.4749C172.879 71.2653 173.019 71.0556 173.229 70.9858L195.169 64.9068C195.378 64.837 195.588 64.9767 195.658 65.1863C195.728 65.396 195.588 65.6056 195.378 65.6754L173.438 71.7544C173.369 71.7544 173.299 71.7544 173.299 71.7544Z" fill="#0F3261"/>
<path d="M85.4681 133.243C85.2585 133.243 85.1188 133.103 85.1188 132.963C85.0489 132.754 85.1886 132.544 85.3982 132.474L136.266 118.36C136.475 118.29 136.685 118.43 136.755 118.639C136.825 118.849 136.685 119.059 136.475 119.129L85.538 133.243H85.4681Z" fill="#0F3261"/>
<path d="M88.473 140.3C88.2634 140.3 88.1236 140.16 88.1236 140.02C88.0538 139.81 88.1935 139.601 88.4031 139.531L139.271 125.417C139.48 125.347 139.69 125.486 139.76 125.696C139.829 125.906 139.69 126.115 139.48 126.185L88.6128 140.3H88.473Z" fill="#0F3261"/>
<path d="M90.0106 147.917C89.801 147.917 89.6612 147.777 89.6612 147.637C89.5914 147.428 89.7311 147.218 89.9407 147.148L140.808 133.034C141.018 132.964 141.227 133.104 141.297 133.313C141.367 133.523 141.227 133.733 141.018 133.802L90.1504 147.847C90.0805 147.917 90.0106 147.917 90.0106 147.917Z" fill="#0F3261"/>
<path d="M95.18 194.591C94.9704 194.591 94.7607 194.451 94.7607 194.242C94.7607 194.032 94.9005 193.822 95.1101 193.822L110.552 189.56C110.762 189.49 110.971 189.63 111.041 189.84C111.111 190.049 110.971 190.259 110.762 190.329L95.3197 194.591C95.2499 194.591 95.2498 194.591 95.18 194.591Z" fill="#0F3261"/>
<path d="M96.9266 202.207C96.717 202.207 96.5773 202.067 96.5773 201.928C96.5074 201.718 96.6471 201.508 96.8568 201.439L112.299 197.176C112.508 197.107 112.718 197.246 112.788 197.456C112.858 197.665 112.718 197.875 112.508 197.945L97.0664 202.207H96.9266Z" fill="#0F3261"/>
<path d="M177.211 80.2085C177.002 80.2085 176.862 80.0687 176.862 79.929C176.792 79.7194 176.932 79.5098 177.141 79.4399L199.081 73.3609C199.291 73.2911 199.501 73.4308 199.571 73.6404C199.64 73.8501 199.501 74.0597 199.291 74.1296L177.351 80.2085H177.211Z" fill="#0F3261"/>
<path d="M129.906 189.63C128.928 189.141 127.81 188.931 126.762 188.931L126.203 188.861L125.085 184.948C125.854 184.948 126.553 185.158 127.251 185.438C127.95 185.787 128.858 185.577 129.208 184.879C129.557 184.18 129.347 183.271 128.649 182.922C127.321 182.293 125.784 182.014 124.247 182.154L123.758 180.477C123.618 180.057 123.269 179.848 122.849 179.987C122.43 180.127 122.22 180.477 122.36 180.896L122.849 182.573C122.5 182.712 122.081 182.922 121.801 183.132C119.845 184.529 118.936 187.394 120.543 189.42C121.731 191.027 123.688 191.586 125.574 191.796L126.762 195.779C125.714 195.779 124.666 195.569 123.758 195.08C122.081 194.241 120.683 196.757 122.36 197.665C123.967 198.504 125.784 198.853 127.601 198.643L127.88 199.692C128.02 200.041 128.439 200.251 128.858 200.111C129.208 199.971 129.347 199.622 129.278 199.272L128.998 198.224L129.278 198.084C131.444 197.106 132.562 194.731 132.072 192.495C131.723 191.167 130.955 190.189 129.906 189.63ZM123.897 188.302C123.478 188.163 123.059 187.883 122.779 187.604C122.57 187.394 122.5 187.045 122.5 186.765C122.57 186.136 122.989 185.507 123.548 185.228L124.526 188.582C124.386 188.512 124.107 188.372 123.897 188.302ZM128.998 194.241C128.788 194.661 128.439 195.01 128.02 195.29L127.042 191.866C127.391 191.866 127.74 191.936 128.09 192.006C128.229 192.006 128.369 192.075 128.509 192.215C128.579 192.285 128.858 192.495 128.858 192.495C129.208 192.984 129.278 193.613 128.998 194.241Z" fill="#0F3261"/>
<path d="M145 185.438C144.022 184.948 142.904 184.739 141.856 184.739L141.297 184.669L140.179 180.756C140.948 180.756 141.646 180.966 142.345 181.245C143.044 181.594 143.952 181.385 144.301 180.686C144.651 179.987 144.441 179.079 143.742 178.73C142.345 178.101 140.878 177.821 139.34 177.961L138.851 176.284C138.712 175.865 138.362 175.655 137.943 175.795C137.524 175.935 137.314 176.284 137.454 176.703L137.943 178.38C137.594 178.52 137.174 178.73 136.895 178.939C134.938 180.337 134.03 183.202 135.637 185.228C136.825 186.835 138.781 187.394 140.668 187.604L141.856 191.586C140.808 191.586 139.76 191.377 138.851 190.888C137.174 190.049 135.777 192.565 137.454 193.403C139.061 194.241 140.878 194.591 142.694 194.381L142.974 195.429C143.114 195.849 143.463 196.058 143.882 195.918C144.301 195.779 144.511 195.429 144.371 195.01L144.092 193.962L144.371 193.822C146.537 192.844 147.655 190.468 147.166 188.232C146.747 187.045 145.978 186.066 145 185.438ZM138.991 184.18C138.572 184.04 138.153 183.761 137.873 183.481C137.664 183.271 137.594 182.922 137.594 182.643C137.664 182.014 138.083 181.385 138.642 181.105L139.62 184.459C139.41 184.32 139.201 184.25 138.991 184.18ZM144.092 190.119C143.882 190.538 143.533 190.888 143.114 191.167L142.135 187.743C142.485 187.743 142.834 187.813 143.183 187.883C143.323 187.883 143.463 187.953 143.603 188.093C143.742 188.163 143.812 188.232 143.952 188.372C144.301 188.791 144.301 189.49 144.092 190.119Z" fill="#0F3261"/>
<path d="M159.952 181.316C158.974 180.826 157.856 180.617 156.808 180.617L156.249 180.547L155.131 176.634C155.9 176.634 156.598 176.844 157.297 177.123C157.996 177.473 158.904 177.263 159.254 176.564C159.603 175.865 159.393 174.957 158.695 174.608C157.297 173.979 155.83 173.699 154.293 173.839L153.804 172.162C153.664 171.813 153.245 171.603 152.825 171.743C152.476 171.883 152.266 172.232 152.336 172.581L152.825 174.258C152.476 174.398 152.057 174.608 151.777 174.817C149.821 176.215 148.912 179.08 150.52 181.106C151.707 182.713 153.664 183.272 155.55 183.482L156.738 187.464C155.69 187.464 154.642 187.255 153.734 186.766C152.057 185.927 150.659 188.443 152.336 189.281C153.943 190.12 155.76 190.469 157.577 190.259L157.856 191.307C157.996 191.727 158.345 191.936 158.765 191.796C159.184 191.657 159.393 191.307 159.254 190.888L158.974 189.84L159.254 189.7C161.42 188.722 162.538 186.416 162.049 184.11C161.769 182.923 161 181.875 159.952 181.316ZM153.943 179.988C153.524 179.848 153.175 179.569 152.825 179.289C152.616 179.08 152.546 178.73 152.546 178.451C152.616 177.822 153.035 177.193 153.594 176.914L154.572 180.267C154.432 180.198 154.223 180.128 153.943 179.988ZM159.044 185.927C158.834 186.346 158.485 186.696 158.066 186.975L157.088 183.551C157.437 183.551 157.786 183.621 158.136 183.691C158.275 183.691 158.415 183.761 158.555 183.831C158.695 183.901 158.765 183.971 158.904 184.11C159.254 184.669 159.323 185.368 159.044 185.927Z" fill="#0F3261"/>
<path d="M169.386 0.834961L175.325 17.9538C175.815 19.4211 177.422 20.2596 178.889 19.8404L194.471 15.4384L169.386 0.834961Z" fill="#0F3261"/>
<path d="M178.119 20.3293C176.722 20.3293 175.394 19.421 174.975 18.0934L169.036 0.974575C168.966 0.83483 169.036 0.625207 169.175 0.555334C169.315 0.485461 169.455 0.485461 169.595 0.555334L194.679 15.0889C194.819 15.1587 194.889 15.2985 194.889 15.5081C194.889 15.6479 194.749 15.7876 194.609 15.8575L179.028 20.2595C178.678 20.2595 178.399 20.2595 178.119 20.3293ZM170.154 1.6733L175.744 17.8139C176.163 19.0716 177.56 19.7703 178.818 19.421L193.491 15.2985L170.154 1.6733Z" fill="#0F3261"/>
<path d="M2.59848 170.138L10.0749 160.006C9.65563 159.447 9.16652 159.028 8.46779 158.818L0.921532 169.02C0.781786 169.229 0.711914 169.439 0.711914 169.649C0.711914 170.208 1.20102 170.627 1.76001 170.557C2.17924 170.557 2.45873 170.417 2.59848 170.138Z" fill="#0F3261"/>
<path d="M1.76074 170.976C1.48125 170.976 1.13188 170.836 0.922263 170.696C0.572899 170.417 0.433154 170.067 0.363281 169.648C0.363281 169.299 0.433152 169.019 0.642771 168.74L8.18903 158.538C8.32878 158.398 8.46852 158.329 8.67814 158.399C9.37687 158.678 10.0057 159.167 10.4948 159.796C10.5647 159.936 10.5647 160.075 10.4948 160.215L3.01845 170.347C2.80883 170.626 2.45946 170.836 2.1101 170.906L1.76074 170.976ZM8.60827 159.237L1.27163 169.159C1.06201 169.438 1.13188 169.788 1.41137 169.997C1.55112 170.067 1.69086 170.137 1.83061 170.137C1.97035 170.137 2.1101 169.997 2.24985 169.928L9.58649 160.006C9.307 159.726 9.0275 159.447 8.60827 159.237Z" fill="#0F3261"/>
<path d="M59.8247 90.2026L61.9908 87.827C62.0606 87.7571 62.1305 87.827 62.2004 87.827C62.2004 87.827 62.2004 87.8968 62.2004 87.9667L60.6632 90.9712L59.8247 90.2026Z" fill="#0F3261"/>
<path d="M60.6637 91.3911C60.5938 91.3911 60.4541 91.3213 60.3842 91.2514L59.5457 90.4828C59.406 90.343 59.406 90.0635 59.5457 89.9238L61.7118 87.5481C61.9214 87.3385 62.2009 87.3385 62.4105 87.4783C62.6201 87.618 62.6201 87.8975 62.5503 88.1071L61.0131 91.1116C60.9432 91.2514 60.8733 91.3213 60.7336 91.3213L60.6637 91.3911ZM60.3842 90.2033L60.5938 90.4129L61.0131 89.6443L60.3842 90.2033Z" fill="#0F3261"/>
<path d="M46.8283 115.636C45.1514 113.331 42.8456 111.584 40.1904 110.605L33.9019 119.13C36.557 120.108 38.8628 121.855 40.5398 124.161L46.8283 115.636Z" fill="#0F3261"/>
<path d="M40.5401 124.651C40.4004 124.651 40.2607 124.581 40.1908 124.441C38.5837 122.205 36.3478 120.528 33.7625 119.55C33.6227 119.48 33.5529 119.41 33.5529 119.27C33.483 119.131 33.5529 118.991 33.6227 118.921L39.9113 110.397C39.9812 110.257 40.1908 110.187 40.3305 110.257C43.0556 111.235 45.4312 113.052 47.1781 115.427C47.2479 115.567 47.2479 115.777 47.1781 115.917L40.8895 124.511C40.8196 124.581 40.6799 124.651 40.5401 124.651ZM34.601 118.991C36.9766 119.969 39.0728 121.506 40.61 123.533L46.4095 115.637C44.8723 113.611 42.7761 112.004 40.4004 111.095L34.601 118.991Z" fill="#0F3261"/>
<path d="M9.44572 166.364L40.5391 124.231C38.932 121.925 36.6262 120.178 33.9012 119.2L2.73794 161.473C1.34048 163.29 1.75972 165.945 3.64629 167.273C5.46298 168.6 8.11814 168.251 9.44572 166.364Z" fill="white"/>
<path d="M6.09222 168.46C5.114 168.46 4.13579 168.111 3.29731 167.482C1.34087 165.944 0.991511 163.15 2.45884 161.193L33.6221 118.92C33.7618 118.78 33.9016 118.71 34.1112 118.78C36.8362 119.759 39.2119 121.575 40.8889 123.951C40.9587 124.091 40.9587 124.23 40.8889 124.37L9.79548 166.573C9.09675 167.552 7.97879 168.25 6.72108 168.39C6.51146 168.46 6.30184 168.46 6.09222 168.46ZM34.0413 119.619L3.01782 161.682C2.52871 162.381 2.24922 163.219 2.31909 164.128C2.38897 165.176 2.87807 166.224 3.78642 166.853C5.46337 168.111 7.76917 167.831 9.09675 166.154C9.09675 166.154 9.09675 166.084 9.16662 166.084L40.1203 124.161C38.5132 122.134 36.417 120.597 34.0413 119.619Z" fill="#0F3261"/>
<path d="M59.5452 89.295L55.6323 90.972C54.6541 91.3912 53.8156 92.0899 53.1169 92.9284L40.1904 110.606C42.8456 111.584 45.1514 113.331 46.8283 115.637L59.7548 97.9592C60.3138 97.1906 60.733 96.2124 60.8728 95.2342L61.5016 90.7623C61.6414 89.9937 61.0824 89.2251 60.3138 89.1553C60.1042 89.1553 59.8247 89.1553 59.5452 89.295Z" fill="white"/>
<path d="M46.8279 116.056C46.6882 116.056 46.5484 115.986 46.4786 115.847C44.8715 113.611 42.6356 111.934 40.0503 111.025C39.8407 110.955 39.7708 110.746 39.8407 110.536C39.8407 110.536 39.8407 110.466 39.9105 110.466L52.837 92.7885C53.5357 91.8802 54.4441 91.1116 55.4922 90.6923L59.405 89.0154C60.3134 88.5962 61.4313 89.0154 61.7807 89.9936C61.9205 90.2731 61.9903 90.6225 61.9205 90.9718L61.2916 95.4437C61.1518 96.4918 60.7326 97.47 60.1038 98.3085L47.1773 115.986C47.1074 115.986 46.9677 116.056 46.8279 116.056ZM40.8189 110.466C43.1945 111.445 45.2907 112.982 46.8279 115.008L59.4749 97.7495C60.0339 96.9809 60.3833 96.1424 60.523 95.2341L61.1518 90.7622C61.2217 90.4129 61.082 89.9936 60.7326 89.784C60.4531 89.5744 60.0339 89.5045 59.6845 89.6442L55.7716 91.3212C54.8633 91.7404 54.0248 92.3693 53.396 93.1379L40.8189 110.466Z" fill="#0F3261"/>
<path d="M60.2436 97.6101C60.1039 97.6101 59.9641 97.5402 59.8943 97.4004C57.868 93.9068 53.6756 92.6491 53.6756 92.6491C53.466 92.5792 53.3262 92.3696 53.3961 92.16C53.466 91.9504 53.6756 91.8106 53.8852 91.8805C54.0948 91.9504 58.3571 93.2779 60.593 97.0511C60.7327 97.2607 60.6629 97.4703 60.4533 97.6101C60.3834 97.6101 60.3135 97.6101 60.2436 97.6101Z" fill="#0F3261"/>
<path d="M11.4025 166.014C11.123 166.014 10.9134 165.944 10.7037 165.804L10.2146 165.455C10.005 165.315 10.005 165.105 10.1448 164.896C10.2845 164.686 10.4941 164.686 10.7037 164.826L11.1928 165.175C11.4025 165.315 11.682 165.245 11.8217 165.105L17.9705 156.93C18.1103 156.79 18.3199 156.721 18.5295 156.86C18.7391 157 18.7391 157.21 18.5994 157.419L12.4506 165.594C12.1012 165.804 11.7518 166.014 11.4025 166.014Z" fill="#0F3261"/>
<path d="M20.5574 151.761C20.4177 151.761 20.2779 151.691 20.2081 151.621C18.601 149.385 16.3651 147.708 13.7798 146.73C13.5701 146.66 13.5003 146.45 13.5701 146.241C13.64 146.031 13.8496 145.961 14.0593 146.031C16.7843 147.009 19.16 148.826 20.9068 151.202C21.0465 151.411 20.9767 151.621 20.767 151.761C20.6972 151.761 20.6273 151.761 20.5574 151.761Z" fill="#0F3261"/>
<path d="M199.64 141.418L282.649 158.257C285.234 158.816 286.981 161.331 286.422 163.917L269.653 246.506C269.094 249.092 266.578 250.839 263.993 250.28L180.984 233.44C178.399 232.881 176.652 230.366 177.211 227.78L193.98 145.191C194.469 142.606 196.985 140.929 199.64 141.418Z" fill="white"/>
<path d="M264.901 250.769C264.552 250.769 264.202 250.769 263.853 250.699L180.844 233.86C178.049 233.301 176.163 230.506 176.792 227.711L193.561 145.121C194.12 142.326 196.915 140.44 199.71 141.069L282.719 157.908C285.514 158.467 287.4 161.262 286.771 164.057L270.002 246.646C269.513 249.022 267.417 250.769 264.901 250.769ZM264.063 249.93C266.438 250.419 268.814 248.882 269.303 246.437L286.073 163.847C286.562 161.471 285.025 159.096 282.579 158.607L199.57 141.767C197.194 141.278 194.819 142.815 194.33 145.191L177.56 227.781C177.071 230.156 178.608 232.532 180.984 233.021L264.063 249.93Z" fill="#0F3261"/>
<path d="M201.665 149.594L277.547 164.966C278.595 165.175 279.294 166.224 279.084 167.272L275.94 182.783C275.73 183.831 274.682 184.53 273.634 184.321L197.752 168.949C196.704 168.739 196.005 167.691 196.215 166.643L199.359 151.131C199.569 150.083 200.617 149.384 201.665 149.594Z" fill="#0F3261"/>
<path d="M274.055 184.739C273.915 184.739 273.705 184.739 273.566 184.669L197.684 169.297C197.055 169.157 196.496 168.808 196.147 168.249C195.797 167.69 195.657 167.061 195.797 166.432L198.941 150.99C199.221 149.732 200.409 148.894 201.736 149.103L277.618 164.475C278.876 164.755 279.714 165.943 279.505 167.27L276.361 182.712C276.151 183.97 275.103 184.808 274.055 184.739ZM273.705 183.97C274.544 184.18 275.382 183.621 275.592 182.782L278.736 167.34C278.806 166.921 278.736 166.502 278.527 166.152C278.317 165.803 277.898 165.524 277.548 165.454L201.667 150.082C201.247 150.012 200.828 150.082 200.479 150.291C200.129 150.501 199.85 150.92 199.78 151.269L196.636 166.711C196.566 167.131 196.636 167.55 196.845 167.899C197.055 168.249 197.474 168.528 197.824 168.598L273.705 183.97Z" fill="#0F3261"/>
<path d="M197.473 175.726L207.255 177.752C209.072 178.102 210.19 179.848 209.841 181.665L208.443 188.513C208.094 190.329 206.347 191.447 204.53 191.098L194.748 189.072C192.931 188.722 191.814 186.975 192.163 185.159L193.56 178.311C193.91 176.495 195.656 175.307 197.473 175.726Z" fill="white"/>
<path d="M205.509 191.238C205.23 191.238 204.95 191.238 204.741 191.168L194.959 189.212C192.932 188.793 191.675 186.836 192.024 184.81L193.421 177.962C193.841 175.936 195.797 174.678 197.753 175.028L207.536 176.984C209.562 177.403 210.82 179.36 210.47 181.386L209.143 188.304C208.793 190.05 207.256 191.308 205.509 191.238ZM197.125 175.796C196.566 175.796 196.007 175.936 195.518 176.286C194.889 176.705 194.4 177.403 194.26 178.172L192.862 185.02C192.513 186.627 193.561 188.164 195.168 188.443L204.88 190.4C206.488 190.749 208.025 189.701 208.304 188.094L209.702 181.246C210.051 179.639 209.003 178.102 207.396 177.823L197.614 175.866C197.474 175.796 197.334 175.796 197.125 175.796Z" fill="#0F3261"/>
<path d="M218.925 179.708L228.707 181.664C230.524 182.013 231.642 183.76 231.292 185.577L229.895 192.424C229.546 194.241 227.799 195.359 225.982 195.01L216.2 193.053C214.383 192.704 213.265 190.957 213.615 189.14L215.012 182.293C215.431 180.546 217.178 179.358 218.925 179.708Z" fill="white"/>
<path d="M226.681 195.569C226.401 195.569 226.192 195.569 225.982 195.499L216.2 193.543C214.173 193.124 212.916 191.167 213.265 189.141L214.663 182.294C215.082 180.267 217.038 179.01 218.995 179.359L228.777 181.315C230.803 181.735 232.061 183.691 231.642 185.717L230.244 192.565C229.965 194.312 228.428 195.569 226.681 195.569ZM218.296 180.058C216.899 180.058 215.711 181.036 215.431 182.433L214.034 189.281C213.684 190.888 214.732 192.425 216.34 192.705L226.122 194.661C227.729 195.01 229.266 193.962 229.545 192.355L230.943 185.438C231.083 184.669 230.943 183.901 230.524 183.272C230.104 182.643 229.406 182.154 228.637 182.014L218.855 180.058C218.645 180.058 218.506 180.058 218.296 180.058Z" fill="#0F3261"/>
<path d="M240.096 184.039L249.878 185.996C251.695 186.345 252.813 188.092 252.463 189.909L251.066 196.756C250.716 198.573 248.97 199.691 247.153 199.341L237.371 197.385C235.554 197.036 234.436 195.289 234.785 193.472L236.183 186.625C236.602 184.808 238.349 183.69 240.096 184.039Z" fill="white"/>
<path d="M247.852 199.832C247.573 199.832 247.363 199.832 247.084 199.762L237.301 197.736C235.275 197.317 234.017 195.36 234.367 193.334L235.764 186.486C236.183 184.46 238.14 183.202 240.166 183.621L249.948 185.578C251.975 185.997 253.232 187.954 252.883 189.98L251.486 196.827C251.136 198.574 249.599 199.832 247.852 199.832ZM247.293 198.994C248.9 199.343 250.437 198.295 250.717 196.688L252.114 189.84C252.464 188.233 251.416 186.696 249.809 186.416L240.026 184.46C238.419 184.111 236.882 185.159 236.603 186.766L235.205 193.613C234.856 195.22 235.904 196.758 237.511 197.037L247.293 198.994Z" fill="#0F3261"/>
<path d="M261.267 188.372L271.049 190.329C272.866 190.678 273.984 192.425 273.635 194.242L272.237 201.089C271.888 202.906 270.141 204.024 268.324 203.675L258.542 201.718C256.725 201.369 255.607 199.622 255.957 197.805L257.354 190.958C257.774 189.141 259.52 187.953 261.267 188.372Z" fill="white"/>
<path d="M269.023 204.164C268.744 204.164 268.534 204.164 268.325 204.094L258.543 202.138C256.516 201.719 255.259 199.762 255.608 197.736L257.005 190.888C257.215 189.91 257.774 189.072 258.612 188.513C259.451 187.954 260.429 187.744 261.407 187.954L271.19 189.98C273.216 190.399 274.474 192.356 274.124 194.312L272.797 201.16C272.377 202.907 270.84 204.164 269.023 204.164ZM268.464 203.256C270.072 203.605 271.609 202.557 271.888 200.95L273.286 194.103C273.635 192.495 272.587 190.958 271.05 190.679L261.268 188.722C259.661 188.373 258.123 189.421 257.844 191.028L256.446 197.876C256.097 199.483 257.145 201.02 258.752 201.299L268.464 203.256Z" fill="#0F3261"/>
<path d="M194.26 192.775L204.042 194.731C205.859 195.081 206.977 196.828 206.627 198.644L205.23 205.492C204.88 207.308 203.134 208.426 201.317 208.077L191.535 206.121C189.718 205.771 188.6 204.024 188.949 202.208L190.347 195.36C190.696 193.613 192.443 192.426 194.26 192.775Z" fill="white"/>
<path d="M202.015 208.565C201.735 208.565 201.525 208.565 201.246 208.496L191.464 206.539C189.438 206.12 188.18 204.163 188.599 202.137L189.996 195.29C190.416 193.263 192.372 192.006 194.398 192.355L204.181 194.311C206.207 194.731 207.465 196.687 207.045 198.713L205.648 205.631C205.299 207.378 203.761 208.635 202.015 208.565ZM193.63 193.124C192.232 193.124 191.045 194.102 190.765 195.499L189.368 202.347C189.018 203.954 190.066 205.491 191.673 205.771L201.456 207.727C203.063 208.076 204.6 207.028 204.879 205.421L206.277 198.574C206.626 196.967 205.578 195.429 203.971 195.15L194.189 193.193C193.979 193.124 193.77 193.124 193.63 193.124Z" fill="#0F3261"/>
<path d="M215.431 197.106L225.213 199.062C227.03 199.412 228.148 201.158 227.799 202.975L226.401 209.823C226.052 211.639 224.305 212.757 222.488 212.408L212.706 210.451C210.889 210.102 209.772 208.355 210.121 206.539L211.518 199.691C211.868 197.874 213.615 196.756 215.431 197.106Z" fill="white"/>
<path d="M223.187 212.898C222.907 212.898 222.697 212.898 222.418 212.828L212.636 210.872C210.61 210.452 209.352 208.496 209.701 206.47L211.099 199.622C211.518 197.596 213.474 196.338 215.431 196.757L225.213 198.714C227.239 199.133 228.497 201.089 228.148 203.116L226.75 209.963C226.471 211.64 224.933 212.898 223.187 212.898ZM214.802 197.386C213.404 197.386 212.217 198.364 211.937 199.762L210.54 206.609C210.19 208.216 211.238 209.754 212.845 210.033L222.628 211.989C223.396 212.129 224.165 211.99 224.794 211.57C225.423 211.151 225.912 210.452 226.051 209.684L227.449 202.836C227.798 201.229 226.75 199.692 225.143 199.412L215.361 197.456C215.151 197.456 215.011 197.386 214.802 197.386Z" fill="#0F3261"/>
<path d="M236.603 201.369L246.385 203.325C248.201 203.674 249.319 205.421 248.97 207.238L247.573 214.086C247.223 215.902 245.476 217.02 243.66 216.671L233.878 214.714C232.061 214.365 230.943 212.618 231.292 210.802L232.69 203.954C233.039 202.207 234.786 201.019 236.603 201.369Z" fill="white"/>
<path d="M244.289 217.16C244.009 217.16 243.799 217.16 243.52 217.09L233.738 215.064C231.711 214.644 230.454 212.688 230.873 210.662L232.27 203.814C232.69 201.788 234.646 200.53 236.603 200.879L246.385 202.836C248.411 203.255 249.669 205.211 249.249 207.238L247.852 214.085C247.642 215.902 246.105 217.16 244.289 217.16ZM235.974 201.718C234.576 201.718 233.388 202.696 233.109 204.094L231.711 210.941C231.362 212.548 232.41 214.085 234.017 214.365L243.799 216.321C245.406 216.671 246.944 215.623 247.223 214.015L248.621 207.168C248.97 205.561 247.922 204.024 246.315 203.744L236.533 201.788C236.323 201.718 236.183 201.718 235.974 201.718Z" fill="#0F3261"/>
<path d="M257.773 205.701L267.555 207.658C269.372 208.007 270.49 209.754 270.14 211.571L265.249 235.747C264.9 237.563 263.153 238.681 261.337 238.332L251.554 236.376C249.738 236.026 248.62 234.279 248.969 232.463L253.86 208.287C254.209 206.47 255.956 205.352 257.773 205.701Z" fill="#0F3261"/>
<path d="M261.966 238.82C261.686 238.82 261.477 238.82 261.267 238.75L251.485 236.794C249.459 236.375 248.201 234.418 248.55 232.392L253.441 208.146C253.861 206.12 255.817 204.862 257.773 205.211L267.556 207.168C269.582 207.587 270.84 209.544 270.49 211.57L265.529 235.816C265.25 237.562 263.713 238.82 261.966 238.82ZM261.407 237.982C263.014 238.331 264.551 237.283 264.831 235.676L269.722 211.43C270.071 209.823 269.023 208.286 267.416 208.006L257.634 206.05C256.027 205.701 254.489 206.749 254.21 208.286L249.319 232.532C248.97 234.139 250.018 235.676 251.625 235.955L261.407 237.982Z" fill="#0F3261"/>
<path d="M190.768 210.173L200.55 212.13C202.367 212.479 203.484 214.226 203.135 216.043L201.738 222.89C201.388 224.707 199.641 225.825 197.825 225.475L188.043 223.519C186.226 223.17 185.108 221.423 185.457 219.606L186.855 212.758C187.204 210.942 188.951 209.754 190.768 210.173Z" fill="white"/>
<path d="M198.452 225.965C198.172 225.965 197.963 225.965 197.683 225.895L187.901 223.938C185.875 223.519 184.617 221.563 184.966 219.606L186.364 212.759C186.783 210.732 188.739 209.475 190.766 209.894L200.548 211.85C202.574 212.27 203.832 214.226 203.483 216.252L202.085 223.17C201.736 224.707 200.268 225.965 198.452 225.965ZM190.067 210.453C188.67 210.453 187.482 211.431 187.202 212.829L185.805 219.676C185.525 221.283 186.503 222.82 188.111 223.1L197.893 225.056C199.5 225.406 201.037 224.358 201.317 222.82L202.714 215.973C203.063 214.366 202.015 212.829 200.408 212.549L190.696 210.523C190.486 210.523 190.277 210.453 190.067 210.453Z" fill="#0F3261"/>
<path d="M211.938 214.435L221.72 216.392C223.536 216.741 224.654 218.488 224.305 220.304L222.908 227.152C222.558 228.969 220.811 230.087 218.995 229.737L209.213 227.781C207.396 227.431 206.278 225.685 206.627 223.868L208.025 217.02C208.374 215.274 210.121 214.086 211.938 214.435Z" fill="white"/>
<path d="M219.624 230.227C219.344 230.227 219.065 230.227 218.855 230.157L209.073 228.2C207.047 227.781 205.789 225.825 206.208 223.798L207.606 216.951C208.025 214.924 209.982 213.667 212.008 214.016L221.79 215.973C223.816 216.392 225.074 218.348 224.655 220.375L223.257 227.222C222.908 228.969 221.441 230.227 219.624 230.227ZM211.239 214.785C209.842 214.785 208.654 215.763 208.374 217.16L206.977 224.008C206.837 224.776 206.977 225.545 207.396 226.174C207.815 226.803 208.514 227.292 209.283 227.432L219.065 229.388C220.672 229.737 222.209 228.689 222.489 227.082L223.886 220.235C224.236 218.628 223.187 217.09 221.58 216.811L211.798 214.855C211.658 214.785 211.449 214.785 211.239 214.785Z" fill="#0F3261"/>
<path d="M233.108 218.768L242.891 220.724C244.707 221.074 245.825 222.821 245.476 224.637L244.078 231.485C243.729 233.301 241.982 234.419 240.166 234.07L230.383 232.114C228.567 231.764 227.449 230.017 227.798 228.201L229.196 221.353C229.545 219.537 231.292 218.349 233.108 218.768Z" fill="white"/>
<path d="M240.795 234.558C240.515 234.558 240.306 234.558 240.026 234.488L230.244 232.462C228.218 232.043 226.96 230.086 227.31 228.06L228.707 221.212C229.126 219.186 231.083 217.928 233.109 218.278L242.891 220.234C244.917 220.653 246.175 222.61 245.826 224.636L244.428 231.484C244.079 233.3 242.612 234.558 240.795 234.558ZM232.41 219.046C231.851 219.046 231.292 219.256 230.803 219.536C230.174 219.955 229.685 220.653 229.545 221.422L228.148 228.27C227.799 229.877 228.847 231.414 230.454 231.693L240.236 233.65C241.843 233.999 243.38 232.951 243.66 231.344L245.057 224.497C245.407 222.889 244.359 221.352 242.751 221.073L232.969 219.116C232.83 219.116 232.62 219.046 232.41 219.046Z" fill="#0F3261"/>
<path d="M202.785 98.9363C202.226 97.469 202.995 95.8619 204.462 95.3728C204.532 95.3728 204.602 95.303 204.672 95.303C211.52 93.2767 229.058 88.1759 239.608 85.381C250.159 82.5861 266.02 78.0444 271.959 76.3674C273.287 75.9482 274.754 76.6469 275.313 77.9745L287.401 105.365C288.03 106.762 287.401 108.439 286.004 109.068C285.864 109.138 285.724 109.208 285.585 109.208C276.152 111.653 248.133 119.13 234.927 124.021C225.145 127.654 219.695 129.191 216.9 129.75C215.572 130.03 214.175 129.331 213.686 128.003L202.785 98.9363Z" fill="#0F3261"/>
<path d="M216.201 130.17C214.874 130.17 213.686 129.332 213.197 128.074L202.436 99.0768C201.807 97.4697 202.646 95.653 204.253 95.0241C204.323 95.0241 204.462 94.9543 204.532 94.9543C211.52 92.928 228.918 87.8273 239.469 85.0324C250.02 82.2374 265.601 77.8355 271.82 76.0188C273.357 75.5995 274.964 76.2982 275.593 77.7656L287.681 105.156C288.38 106.763 287.681 108.579 286.144 109.348C286.004 109.418 285.794 109.488 285.585 109.558C277.06 111.794 248.273 119.41 234.997 124.371C225.285 128.004 219.834 129.471 216.97 130.1C216.62 130.17 216.411 130.17 216.201 130.17ZM272.658 76.7175C272.449 76.7175 272.239 76.7175 272.029 76.7874C265.881 78.5342 250.299 83.006 239.678 85.8009C229.058 88.5959 211.729 93.6267 204.742 95.653C203.484 96.0024 202.716 97.33 203.065 98.5877C203.065 98.6575 203.135 98.7274 203.135 98.8671L213.895 127.934C214.315 129.052 215.502 129.681 216.62 129.471C219.485 128.843 224.935 127.375 234.578 123.742C247.923 118.781 276.711 111.095 285.235 108.929C285.934 108.789 286.493 108.3 286.842 107.671C287.122 107.042 287.122 106.274 286.842 105.645L274.824 78.1149C274.405 77.2765 273.567 76.7175 272.658 76.7175Z" fill="#0F3261"/>
<path d="M198.803 97.5399C198.244 96.0725 199.012 94.4655 200.41 93.9764C200.48 93.9764 200.55 93.9065 200.619 93.9065C207.467 91.8802 225.005 86.7795 235.556 83.9846C246.107 81.1896 261.968 76.6479 267.907 74.971C269.235 74.5517 270.702 75.2505 271.261 76.578L283.279 103.968C283.908 105.366 283.279 107.043 281.882 107.671C281.742 107.741 281.602 107.811 281.462 107.811C272.029 110.257 244.01 117.733 230.805 122.624C221.022 126.258 215.572 127.795 212.777 128.354C211.45 128.633 210.052 127.935 209.563 126.607L198.803 97.5399Z" fill="#0F3261"/>
<path d="M212.218 128.772C210.89 128.772 209.702 127.934 209.213 126.676L198.453 97.609C197.824 96.0019 198.662 94.1852 200.269 93.5564C200.339 93.5564 200.479 93.4865 200.549 93.4865C207.536 91.4602 225.004 86.3595 235.485 83.5646C245.966 80.7697 261.618 76.3677 267.836 74.551C269.374 74.1317 270.981 74.8305 271.61 76.2978L283.698 103.688C284.396 105.295 283.698 107.112 282.16 107.88C282.021 107.95 281.811 108.02 281.601 108.09C273.077 110.326 244.289 117.942 231.013 122.903C221.301 126.536 215.851 128.004 212.986 128.633C212.707 128.702 212.427 128.772 212.218 128.772ZM268.675 75.2497C268.465 75.2497 268.256 75.2497 268.046 75.3196C261.897 77.0664 246.385 81.5383 235.695 84.3332C225.004 87.1281 207.746 92.1589 200.759 94.2551C200.13 94.4647 199.571 94.884 199.291 95.4429C199.012 96.0019 198.942 96.7006 199.221 97.3295L209.982 126.327C210.401 127.445 211.589 128.074 212.707 127.864C215.572 127.235 221.022 125.768 230.664 122.134C244.01 117.173 272.797 109.487 281.322 107.321C282.58 106.972 283.348 105.714 283.069 104.457C282.999 104.317 282.999 104.177 282.929 104.037L270.911 76.6472C270.492 75.8786 269.583 75.3196 268.675 75.2497Z" fill="#0F3261"/>
<path d="M195.588 96.3521C195.029 94.8848 195.797 93.2777 197.265 92.7886C197.334 92.7886 197.404 92.7187 197.474 92.7187C204.322 90.6924 221.86 85.5917 232.411 82.8666C242.961 80.0717 258.823 75.53 264.762 73.853C266.089 73.5037 267.557 74.1325 268.116 75.4601L280.134 102.85C280.763 104.248 280.134 105.925 278.666 106.484C278.527 106.554 278.387 106.623 278.247 106.623C268.814 109.069 240.795 116.545 227.589 121.436C217.807 125.07 212.357 126.607 209.562 127.166C208.235 127.445 206.837 126.747 206.348 125.419L195.588 96.3521Z" fill="white"/>
<path d="M209.004 127.585C207.676 127.585 206.488 126.746 205.999 125.488L195.239 96.4912C194.61 94.8841 195.449 93.0674 197.056 92.4385C197.125 92.4385 197.265 92.3687 197.335 92.3687C204.322 90.3424 221.721 85.2416 232.271 82.4467C242.822 79.6518 258.404 75.2498 264.623 73.4332C266.16 73.0139 267.767 73.7825 268.396 75.2499L280.414 102.64C281.113 104.247 280.414 106.064 278.877 106.832C278.667 106.902 278.527 106.972 278.318 107.042C269.793 109.278 241.006 116.894 227.73 121.855C218.017 125.488 212.567 126.956 209.703 127.585C209.493 127.585 209.213 127.585 209.004 127.585ZM196.007 96.2117L206.768 125.209C207.187 126.327 208.375 126.956 209.493 126.746C212.358 126.117 217.808 124.65 227.45 121.017C240.796 116.056 269.584 108.37 278.108 106.203C278.807 106.064 279.366 105.575 279.715 104.946C279.995 104.317 280.064 103.548 279.785 102.919L267.627 75.5293C267.138 74.4114 265.95 73.8524 264.762 74.2018C258.544 75.9486 243.032 80.4204 232.411 83.2153C221.791 86.0103 204.462 91.0411 197.475 93.0674C196.217 93.4168 195.449 94.7444 195.798 96.0021C195.938 96.0719 195.938 96.1418 196.007 96.2117Z" fill="#0F3261"/>
<path d="M199.92 98.9364C201.667 98.4473 202.715 96.5608 202.156 94.8139C202.156 94.7441 202.086 94.6742 202.086 94.6043C210.331 92.2287 224.236 88.176 233.11 85.8702C242.054 83.4946 254.072 80.1407 261.478 77.9746C262.387 80.0009 264.553 81.049 266.649 80.4202L275.313 100.054C273.566 100.544 272.448 102.36 272.937 104.107C273.007 104.247 273.007 104.456 273.147 104.596C260.57 107.95 238.001 114.029 226.402 118.431C219.764 120.876 215.223 122.344 212.148 123.252C211.519 121.645 209.842 120.737 208.165 121.226L199.92 98.9364Z" fill="white"/>
<path d="M212.218 123.672C212.078 123.672 211.938 123.532 211.869 123.392C211.379 121.925 209.772 121.156 208.305 121.576C208.095 121.645 207.886 121.506 207.816 121.366L199.571 99.1464C199.501 99.0765 199.501 98.9368 199.571 98.797C199.641 98.7271 199.711 98.6573 199.781 98.5874C201.318 98.1682 202.226 96.4912 201.807 94.954C201.807 94.8841 201.737 94.8143 201.737 94.7444C201.667 94.6745 201.667 94.5348 201.737 94.395C201.807 94.3252 201.877 94.2553 201.947 94.1854C209.703 91.9495 223.957 87.827 233.04 85.4513C242.054 83.0756 254.701 79.5121 261.408 77.5557C261.618 77.4858 261.828 77.6256 261.897 77.7653C262.736 79.582 264.692 80.4904 266.649 80.0012C266.858 79.9314 267.068 80.0711 267.138 80.2109L275.802 99.8451C275.872 99.915 275.872 100.055 275.802 100.194C275.732 100.264 275.662 100.404 275.523 100.404C273.985 100.823 273.007 102.43 273.426 103.968C273.496 104.107 273.496 104.247 273.566 104.387C273.636 104.457 273.636 104.596 273.566 104.736C273.496 104.876 273.426 104.946 273.287 104.946C260.849 108.23 238.211 114.379 226.542 118.781C220.882 120.947 216.061 122.554 212.218 123.602V123.672ZM209.074 120.667C210.471 120.667 211.799 121.506 212.428 122.763C216.131 121.715 220.812 120.108 226.332 118.082C237.861 113.75 260.151 107.671 272.728 104.317C272.169 102.5 273.147 100.544 274.894 99.7752L266.579 80.8397C264.483 81.259 262.387 80.2807 261.408 78.3942C254.631 80.3506 242.193 83.8442 233.32 86.15C224.446 88.4558 210.471 92.5085 202.645 94.8143C202.855 95.6528 202.785 96.5611 202.366 97.3996C201.947 98.1682 201.318 98.797 200.479 99.1464L208.445 120.667C208.654 120.737 208.864 120.667 209.074 120.667Z" fill="#0F3261"/>
<path d="M237.863 110.955C230.945 110.955 225.355 105.645 225.355 99.1464C225.355 92.6482 230.945 87.3379 237.863 87.3379C244.78 87.3379 250.37 92.6482 250.37 99.1464C250.37 105.714 244.78 110.955 237.863 110.955ZM237.863 88.1764C231.365 88.1764 226.124 93.1373 226.124 99.2163C226.124 105.295 231.365 110.256 237.863 110.256C244.361 110.256 249.601 105.295 249.601 99.2163C249.601 93.1373 244.291 88.1764 237.863 88.1764Z" fill="#0F3261"/>
<path d="M244.22 68.2631C250.973 68.2631 256.448 62.7885 256.448 56.0354C256.448 49.2822 250.973 43.8076 244.22 43.8076C237.467 43.8076 231.992 49.2822 231.992 56.0354C231.992 62.7885 237.467 68.2631 244.22 68.2631Z" fill="#0F3261"/>
<path d="M244.22 68.6118C237.233 68.7515 231.503 63.1617 231.433 56.1744C231.293 49.1871 236.883 43.4576 243.871 43.3877C250.858 43.1781 256.657 48.6281 256.867 55.6154C257.077 62.6027 251.626 68.4021 244.639 68.6118H244.22ZM244.22 44.2262H243.801C237.303 44.4358 232.132 49.8858 232.342 56.4539C232.551 63.0219 238.001 68.1226 244.569 67.913C251.067 67.7034 256.238 62.2533 256.028 55.6853C255.819 49.257 250.578 44.1563 244.22 44.2262Z" fill="#0F3261"/>
<path d="M242.612 68.3324C249.365 68.3324 254.839 62.8579 254.839 56.1047C254.839 49.3515 249.365 43.877 242.612 43.877C235.858 43.877 230.384 49.3515 230.384 56.1047C230.384 62.8579 235.858 68.3324 242.612 68.3324Z" fill="white"/>
<path d="M242.542 68.6808C235.555 68.6808 229.895 63.0211 229.965 56.0338C230.035 49.0465 235.625 43.3868 242.612 43.4567C249.39 43.4567 254.979 48.8369 255.189 55.6844C255.399 62.6717 249.949 68.4711 242.961 68.6808H242.542ZM242.542 44.2253H242.123C235.625 44.4349 230.454 49.885 230.664 56.3832C230.873 62.8813 236.323 68.0519 242.822 67.8423C249.32 67.6327 254.49 62.1826 254.281 55.6844C254.141 49.326 248.901 44.2253 242.542 44.2253Z" fill="#0F3261"/>
<path d="M242.611 66.1654C248.168 66.1654 252.673 61.6606 252.673 56.1037C252.673 50.5468 248.168 46.042 242.611 46.042C237.055 46.042 232.55 50.5468 232.55 56.1037C232.55 61.6606 237.055 66.1654 242.611 66.1654Z" fill="white"/>
<path d="M242.541 66.5849C236.742 66.5849 232.061 61.9034 232.061 56.104C232.061 50.3045 236.742 45.623 242.541 45.623C248.201 45.623 252.813 50.0949 253.022 55.7546C253.232 61.554 248.69 66.3753 242.891 66.5849H242.541ZM242.541 46.3917H242.192C236.812 46.5314 232.62 51.0731 232.829 56.3835C232.969 61.7637 237.511 65.956 242.821 65.7464C248.201 65.6067 252.394 61.0649 252.184 55.7546C252.044 50.584 247.782 46.3917 242.541 46.3917Z" fill="#0F3261"/>
<path d="M245.548 56.6626C244.919 56.1735 244.22 55.8242 243.522 55.6145L243.102 55.4748L243.032 52.5401C243.522 52.6799 244.011 52.8895 244.43 53.2389C244.849 53.5882 245.478 53.5882 245.897 53.169C246.316 52.7498 246.247 52.1209 245.827 51.7017C244.989 51.0029 244.011 50.5837 242.963 50.3741L242.893 49.1164C242.823 48.8369 242.613 48.6273 242.334 48.6971C242.124 48.6971 241.914 48.9067 241.914 49.1164L241.984 50.3042C241.705 50.3741 241.425 50.4439 241.146 50.5138C239.469 51.0728 238.561 52.8895 239.12 54.5664V54.6363C239.748 55.894 240.866 56.8024 242.194 57.2216L242.264 60.1563C241.565 60.0165 240.866 59.6672 240.307 59.1781C239.329 58.2697 237.862 59.8069 238.91 60.7153C239.888 61.6236 241.076 62.1127 242.334 62.3223V63.0909C242.404 63.3704 242.613 63.58 242.893 63.5102C243.102 63.5102 243.312 63.3005 243.312 63.0909V62.2524H243.522C245.198 61.973 246.386 60.5755 246.456 58.8986C246.526 58.0601 246.177 57.2216 245.548 56.6626ZM241.635 54.6363C241.355 54.4267 241.146 54.2171 241.006 53.9376C240.936 53.728 240.936 53.5184 241.006 53.3087C241.146 52.8895 241.565 52.5401 241.984 52.4703L242.054 54.9158C241.914 54.8459 241.775 54.7761 241.635 54.6363ZM244.08 59.6672C243.871 59.9466 243.591 60.0864 243.242 60.2261L243.172 57.7107C243.382 57.7806 243.661 57.8505 243.871 57.9902C243.941 58.0601 244.08 58.13 244.15 58.1998C244.22 58.2697 244.29 58.3396 244.36 58.4094C244.5 58.8287 244.36 59.3178 244.08 59.6672Z" fill="#0F3261"/>
<path d="M221.93 45.6938C228.684 45.6938 234.158 40.2192 234.158 33.466C234.158 26.7128 228.684 21.2383 221.93 21.2383C215.177 21.2383 209.703 26.7128 209.703 33.466C209.703 40.2192 215.177 45.6938 221.93 45.6938Z" fill="#0F3261"/>
<path d="M221.929 46.0431C214.942 46.0431 209.282 40.3834 209.352 33.3961C209.352 26.4088 215.012 20.7491 221.999 20.819C228.777 20.819 234.367 26.1992 234.576 33.0467C234.786 40.034 229.336 45.8335 222.349 46.0431H221.929ZM221.929 21.5876H221.51C215.012 21.7972 209.841 27.2473 210.051 33.7455C210.261 40.2436 215.711 45.4142 222.209 45.2046C228.707 44.995 233.878 39.5449 233.668 33.0467C233.528 26.6184 228.288 21.5876 221.929 21.5876Z" fill="#0F3261"/>
<path d="M220.253 45.6938C227.006 45.6938 232.481 40.2192 232.481 33.466C232.481 26.7128 227.006 21.2383 220.253 21.2383C213.5 21.2383 208.025 26.7128 208.025 33.466C208.025 40.2192 213.5 45.6938 220.253 45.6938Z" fill="white"/>
<path d="M220.253 46.1134C213.265 46.1134 207.606 40.4537 207.675 33.4664C207.675 26.4791 213.335 20.8194 220.322 20.8893C227.1 20.8893 232.69 26.2695 232.9 33.117C233.109 40.1043 227.659 45.9038 220.672 46.1134H220.253ZM220.253 21.6579H219.833C213.335 21.8675 208.165 27.3176 208.374 33.8856C208.584 40.3838 214.034 45.5544 220.602 45.3448C227.1 45.1352 232.271 39.6851 232.061 33.117C231.851 26.6888 226.611 21.6579 220.253 21.6579Z" fill="#0F3261"/>
<path d="M220.253 43.5276C225.81 43.5276 230.314 39.0229 230.314 33.466C230.314 27.9091 225.81 23.4043 220.253 23.4043C214.696 23.4043 210.191 27.9091 210.191 33.466C210.191 39.0229 214.696 43.5276 220.253 43.5276Z" fill="white"/>
<path d="M220.253 43.9472C214.454 43.9472 209.772 39.2657 209.772 33.4663C209.772 27.6668 214.454 22.9854 220.253 22.9854C225.913 22.9854 230.525 27.4572 230.734 33.1169C230.944 38.9163 226.402 43.7376 220.603 43.9472H220.253ZM220.253 23.754H219.974C214.594 23.8937 210.401 28.3656 210.611 33.7458C210.751 39.126 215.223 43.3183 220.603 43.1087C223.188 43.0388 225.634 41.9209 227.38 40.0343C229.127 38.1477 230.105 35.6323 229.966 33.1169C229.756 27.9463 225.494 23.8238 220.253 23.754Z" fill="#0F3261"/>
<path d="M223.257 34.0249C222.628 33.5358 221.93 33.1865 221.231 32.9768L220.882 32.8371L220.812 29.9024C221.301 30.0422 221.79 30.3217 222.209 30.6012C222.628 30.9505 223.257 30.9505 223.676 30.5313C224.096 30.1121 224.026 29.4832 223.607 29.064C222.768 28.3652 221.79 27.946 220.742 27.7364L220.672 26.4787C220.602 26.1992 220.392 25.9896 220.113 26.0594C219.903 26.0594 219.694 26.2691 219.694 26.4787L219.764 27.6665C219.484 27.6665 219.205 27.7364 218.925 27.8761C217.248 28.4351 216.34 30.2518 216.899 31.9288C217.528 33.1865 218.646 34.0948 219.973 34.4442L220.043 37.3788C219.344 37.2391 218.646 36.8897 218.087 36.4006C217.108 35.4923 215.641 37.0295 216.689 37.9378C217.667 38.8462 218.855 39.4051 220.113 39.5449V40.3135C220.183 40.593 220.392 40.8026 220.672 40.7327C220.882 40.7327 221.091 40.5231 221.091 40.3135V39.5449H221.301C222.978 39.2654 224.166 37.8679 224.235 36.191C224.166 35.4224 223.886 34.6538 223.257 34.0249ZM219.344 32.0685C219.065 31.8589 218.855 31.6493 218.716 31.3698C218.646 31.1602 218.646 30.9505 218.716 30.7409C218.855 30.3217 219.275 29.9723 219.694 29.9024L219.764 32.348C219.624 32.2781 219.484 32.1384 219.344 32.0685ZM221.79 37.0295C221.58 37.309 221.301 37.4487 220.951 37.5884L220.882 35.0032C221.091 35.073 221.371 35.2128 221.58 35.2826C221.72 35.3525 221.79 35.4224 221.86 35.4923C221.93 35.5621 222 35.632 222 35.7019C222.139 36.191 222.069 36.6801 221.79 37.0295Z" fill="#0F3261"/>
<path d="M237.999 53.1693C244.752 53.1693 250.226 47.6948 250.226 40.9416C250.226 34.1884 244.752 28.7139 237.999 28.7139C231.246 28.7139 225.771 34.1884 225.771 40.9416C225.771 47.6948 231.246 53.1693 237.999 53.1693Z" fill="#0F3261"/>
<path d="M237.998 53.5187C231.01 53.5187 225.351 47.859 225.421 40.8717C225.421 33.8844 231.08 28.2247 238.068 28.2946C244.845 28.2946 250.435 33.6748 250.645 40.5223C250.854 47.5096 245.404 53.309 238.417 53.5187H237.998ZM237.998 29.0632H237.578C231.08 29.2728 225.91 34.7229 226.119 41.2909C226.329 47.7891 231.779 52.9597 238.347 52.75C244.845 52.5404 250.016 47.0904 249.806 40.5922C249.597 34.1639 244.426 29.1331 237.998 29.0632Z" fill="#0F3261"/>
<path d="M236.391 53.1693C243.144 53.1693 248.619 47.6948 248.619 40.9416C248.619 34.1884 243.144 28.7139 236.391 28.7139C229.638 28.7139 224.163 34.1884 224.163 40.9416C224.163 47.6948 229.638 53.1693 236.391 53.1693Z" fill="white"/>
<path d="M236.391 53.588C229.404 53.588 223.744 47.9283 223.814 40.941C223.814 33.9537 229.474 28.294 236.461 28.3639C243.239 28.3639 248.829 33.7441 249.038 40.5917C249.248 47.5789 243.798 53.3784 236.81 53.588H236.391ZM236.391 29.1325H235.972C229.474 29.3421 224.303 34.7922 224.513 41.3603C224.722 47.8584 230.173 53.029 236.741 52.8194C243.239 52.6098 248.409 47.1597 248.2 40.5917C247.99 34.2332 242.82 29.2024 236.391 29.1325Z" fill="#0F3261"/>
<path d="M236.391 51.0023C241.948 51.0023 246.452 46.4975 246.452 40.9406C246.452 35.3837 241.948 30.8789 236.391 30.8789C230.834 30.8789 226.329 35.3837 226.329 40.9406C226.329 46.4975 230.834 51.0023 236.391 51.0023Z" fill="white"/>
<path d="M236.391 51.4222C230.592 51.3524 225.91 46.5311 225.98 40.6618C226.05 34.8624 230.871 30.1809 236.741 30.2508C242.54 30.3206 247.222 35.1419 247.152 41.0112C247.082 46.7408 242.47 51.2825 236.741 51.4222H236.391ZM236.391 31.2989H236.042C230.801 31.3687 226.679 35.7009 226.749 40.9413C226.819 46.1818 231.151 50.3043 236.391 50.2344C241.632 50.1645 245.754 45.8324 245.684 40.5919C245.614 35.4912 241.492 31.3687 236.391 31.2989Z" fill="#0F3261"/>
<path d="M239.326 41.5005C238.697 41.0114 237.998 40.6621 237.299 40.4524L236.95 40.3127L236.88 37.378C237.369 37.5178 237.858 37.7973 238.278 38.0768C238.697 38.4261 239.326 38.4261 239.745 38.0069C240.164 37.5876 240.094 36.9588 239.675 36.5396C238.837 35.8408 237.858 35.4216 236.81 35.212L236.74 33.9543C236.67 33.6748 236.461 33.4652 236.181 33.535C235.972 33.535 235.762 33.7446 235.762 33.9543L235.832 35.1421C235.552 35.212 235.273 35.2818 234.994 35.3517C233.317 35.9107 232.408 37.7274 232.967 39.4043C232.967 39.4043 232.967 39.4043 232.967 39.4742C233.596 40.7319 234.714 41.6403 236.042 42.0595L236.111 44.9942C235.413 44.8544 234.714 44.505 234.155 44.0159C233.177 43.1076 231.709 44.6448 232.758 45.5531C233.736 46.4615 234.924 46.9506 236.181 47.1602V47.9288C236.181 48.2083 236.391 48.4179 236.67 48.4179C236.95 48.4179 237.16 48.2083 237.16 47.9288V47.1602H237.369C239.046 46.8807 240.234 45.4833 240.304 43.8063C240.304 42.9679 239.954 42.1294 239.326 41.5005ZM235.413 39.5441C235.133 39.3345 234.924 39.1248 234.784 38.8454C234.714 38.6357 234.714 38.4261 234.784 38.2165C234.924 37.7973 235.343 37.4479 235.762 37.378L235.832 39.8236C235.692 39.7537 235.552 39.6838 235.413 39.5441ZM237.858 44.5749C237.649 44.8544 237.369 44.9942 237.02 45.1339L236.95 42.5486C237.16 42.6185 237.439 42.6884 237.649 42.8281C237.719 42.898 237.858 42.9678 237.928 43.0377C237.998 43.1076 238.138 43.2473 238.138 43.2473C238.278 43.7365 238.208 44.1557 237.858 44.5749Z" fill="#0F3261"/>
<path d="M18.0402 224.915C24.7934 224.915 30.268 219.441 30.268 212.688C30.268 205.935 24.7934 200.46 18.0402 200.46C11.287 200.46 5.8125 205.935 5.8125 212.688C5.8125 219.441 11.287 224.915 18.0402 224.915Z" fill="#0F3261"/>
<path d="M18.0397 225.265C11.0524 225.265 5.39268 219.605 5.46255 212.618C5.53243 205.631 11.1222 199.971 18.1095 200.041C24.8872 200.041 30.477 205.421 30.6866 212.268C30.8962 219.256 25.4462 225.055 18.4589 225.265H18.0397ZM18.0397 200.879H17.6903C11.1921 201.089 6.02154 206.539 6.23115 213.107C6.44077 219.605 11.8908 224.776 18.4589 224.566C24.9571 224.356 30.1276 218.906 29.918 212.408C29.6385 205.91 24.3981 200.879 18.0397 200.879Z" fill="#0F3261"/>
<path d="M16.3625 224.985C23.1157 224.985 28.5902 219.51 28.5902 212.757C28.5902 206.004 23.1157 200.529 16.3625 200.529C9.60931 200.529 4.13477 206.004 4.13477 212.757C4.13477 219.51 9.60931 224.985 16.3625 224.985Z" fill="white"/>
<path d="M16.3624 225.334C9.37513 225.334 3.71544 219.674 3.78531 212.687C3.78531 205.7 9.445 200.04 16.4323 200.11C23.2099 200.11 28.7998 205.49 29.0094 212.338C29.219 219.325 23.7689 225.124 16.7816 225.334H16.3624ZM16.3624 200.948H15.9432C9.445 201.158 4.27442 206.608 4.48404 213.176C4.69365 219.674 10.1437 224.845 16.7118 224.635C23.2798 224.426 28.3805 218.976 28.1709 212.408C27.9613 205.979 22.7208 200.879 16.3624 200.948Z" fill="#0F3261"/>
<path d="M16.3625 222.82C21.9194 222.82 26.4241 218.315 26.4241 212.758C26.4241 207.201 21.9194 202.696 16.3625 202.696C10.8055 202.696 6.30078 207.201 6.30078 212.758C6.30078 218.315 10.8055 222.82 16.3625 222.82Z" fill="white"/>
<path d="M16.3618 223.238C10.5623 223.238 5.88086 218.557 5.88086 212.757C5.88086 206.958 10.5623 202.276 16.3618 202.276C22.0215 202.276 26.6331 206.748 26.8427 212.408C27.0523 218.207 22.5106 223.029 16.7111 223.238H16.3618ZM16.3618 203.045H16.0124C10.6322 203.255 6.43984 207.726 6.64946 213.037C6.85908 218.417 11.3309 222.609 16.6413 222.4C21.9516 222.19 26.144 217.788 26.0042 212.408C25.9343 207.167 21.6022 203.045 16.3618 203.045Z" fill="#0F3261"/>
<path d="M19.3677 213.317C18.7388 212.828 18.0401 212.478 17.3413 212.269L16.9221 212.129L16.8522 209.194C17.3413 209.334 17.8305 209.614 18.2497 209.893C18.6689 210.243 19.2978 210.243 19.717 209.823C20.1363 209.404 20.0664 208.775 19.6471 208.356C18.8087 207.657 17.8304 207.238 16.7824 207.028V205.771C16.7125 205.491 16.5029 205.282 16.2234 205.351C16.0138 205.351 15.8041 205.561 15.8041 205.771V206.959C15.5247 207.028 15.2452 207.098 14.9657 207.168C13.2887 207.727 12.3804 209.544 12.9394 211.221C13.5682 212.478 14.6862 213.387 16.0138 213.736L16.0836 216.671C15.3849 216.531 14.6862 216.182 14.1272 215.693C13.149 214.784 11.6816 216.321 12.7297 217.23C13.708 218.138 14.8958 218.697 16.1535 218.837V219.605C16.2234 219.885 16.433 220.095 16.7125 220.025C16.9221 220.025 17.1317 219.815 17.1317 219.605V218.837H17.3413C19.0183 218.557 20.2061 217.16 20.276 215.483C20.3459 214.714 19.9965 213.876 19.3677 213.317ZM15.4548 211.291C15.1753 211.081 14.9657 210.871 14.8259 210.592C14.756 210.382 14.756 210.173 14.8259 209.963C14.9657 209.544 15.3849 209.194 15.8041 209.125L15.874 211.57C15.7343 211.5 15.5945 211.43 15.4548 211.291ZM17.9003 216.321C17.6907 216.601 17.4112 216.741 17.0618 216.88L16.992 214.365C17.2016 214.435 17.4811 214.575 17.6907 214.645C17.8305 214.714 17.9003 214.784 17.9702 214.854C18.0401 214.924 18.1099 214.994 18.1798 215.064C18.3196 215.483 18.1798 215.972 17.9003 216.321Z" fill="#0F3261"/>
<path d="M51.718 238.612C58.4712 238.612 63.9457 233.137 63.9457 226.384C63.9457 219.631 58.4712 214.156 51.718 214.156C44.9648 214.156 39.4902 219.631 39.4902 226.384C39.4902 233.137 44.9648 238.612 51.718 238.612Z" fill="#0F3261"/>
<path d="M51.7174 238.961C44.7301 238.961 39.0704 233.301 39.1403 226.314C39.1403 219.327 44.8 213.667 51.7873 213.737C58.5649 213.737 64.1547 219.117 64.3644 225.965C64.574 232.952 59.1239 238.751 52.1366 238.961H51.7174ZM51.7174 214.575H51.2982C44.8 214.785 39.6294 220.235 39.839 226.803C40.0486 233.301 45.4987 238.472 52.0668 238.262C58.5649 238.053 63.7355 232.603 63.5259 226.035C63.3163 219.606 58.0758 214.575 51.7174 214.575Z" fill="#0F3261"/>
<path d="M50.1105 238.681C56.8637 238.681 62.3383 233.207 62.3383 226.453C62.3383 219.7 56.8637 214.226 50.1105 214.226C43.3574 214.226 37.8828 219.7 37.8828 226.453C37.8828 233.207 43.3574 238.681 50.1105 238.681Z" fill="white"/>
<path d="M50.0401 239.031C43.0529 239.031 37.3932 233.372 37.463 226.384C37.463 219.397 43.1227 213.737 50.11 213.807C56.8877 213.807 62.4775 219.187 62.6871 226.035C62.8967 233.022 57.4467 238.822 50.4594 239.031H50.0401ZM50.0401 214.576H49.6908C43.1926 214.786 38.022 220.236 38.2316 226.734C38.4413 233.232 43.8913 238.402 50.3895 238.193C56.8877 237.983 62.0583 232.533 61.8486 226.035C61.639 219.677 56.4684 214.646 50.0401 214.576Z" fill="#0F3261"/>
<path d="M50.1095 236.515C55.6664 236.515 60.1712 232.01 60.1712 226.453C60.1712 220.896 55.6664 216.392 50.1095 216.392C44.5526 216.392 40.0479 220.896 40.0479 226.453C40.0479 232.01 44.5526 236.515 50.1095 236.515Z" fill="white"/>
<path d="M50.041 236.934C44.2415 236.934 39.5601 232.253 39.5601 226.454C39.5601 220.654 44.2415 215.973 50.041 215.973C55.7007 215.973 60.3123 220.445 60.5219 226.104C60.7315 231.904 56.1898 236.725 50.3903 236.934H50.041ZM50.041 216.741H49.6916C44.3114 216.951 40.1889 221.423 40.3287 226.733C40.5383 232.113 45.0101 236.236 50.3205 236.096C55.6308 235.886 59.8232 231.484 59.6834 226.104C59.6135 220.934 55.2814 216.811 50.041 216.741Z" fill="#0F3261"/>
<path d="M53.0463 227.013C52.4175 226.524 51.7187 226.174 51.02 225.965L50.6008 225.825L50.5309 222.89C51.02 223.03 51.5091 223.24 51.9284 223.589C52.3476 224.008 52.9764 224.078 53.3957 223.659C53.8149 223.24 53.8848 222.611 53.4656 222.192C53.3957 222.122 53.3957 222.122 53.3258 222.052C52.4873 221.353 51.5091 220.934 50.461 220.724V219.467C50.461 219.187 50.2514 218.978 49.9719 218.978C49.6924 218.978 49.4828 219.187 49.4828 219.467L49.5527 220.655C49.2732 220.724 48.9937 220.794 48.7142 220.864C47.0373 221.423 46.1289 223.24 46.6879 224.917C46.6879 224.917 46.6879 224.917 46.6879 224.987C47.3167 226.244 48.4347 227.153 49.7623 227.572L49.8322 230.507C49.1334 230.367 48.4347 230.017 47.8757 229.528C46.8975 228.62 45.4302 230.157 46.4783 231.066C47.4565 231.974 48.6443 232.533 49.902 232.673V233.441C49.9719 233.721 50.1815 233.93 50.5309 233.86C50.7405 233.791 50.9501 233.651 50.9501 233.371V232.603L51.1598 232.533C52.8367 232.253 54.0245 230.856 54.0944 229.179C54.0245 228.34 53.6752 227.572 53.0463 227.013ZM49.1334 224.987C48.854 224.777 48.6443 224.567 48.5046 224.288C48.4347 224.078 48.4347 223.869 48.5046 223.659C48.6443 223.24 49.0636 222.89 49.4828 222.821L49.5527 225.266C49.4129 225.196 49.2732 225.126 49.1334 224.987ZM51.579 230.017C51.3694 230.297 51.0899 230.437 50.7405 230.576L50.6706 228.061C50.8803 228.131 51.1597 228.201 51.3694 228.341C51.4392 228.41 51.579 228.48 51.6489 228.55C51.7187 228.62 51.8585 228.76 51.8585 228.76C51.9284 229.179 51.8585 229.668 51.579 230.017Z" fill="#0F3261"/>
</svg>
