<svg width="368" height="300" viewBox="0 0 368 300" fill="none" xmlns="http://www.w3.org/2000/svg">
<path d="M353.809 81.6768L320.534 73.1846C329.546 64.9523 338.558 57.24 343.324 54.727C346.877 52.6472 350.95 51.694 355.109 51.954L359.875 53.1672C363.341 54.727 365.941 57.7599 366.894 61.3994C368.974 69.3717 353.809 81.6768 353.809 81.6768Z" fill="#0F3261"/>
<path d="M353.81 82.1115H353.723L320.447 73.6193C320.187 73.5326 320.014 73.2726 320.101 73.0127C320.101 72.926 320.187 72.8394 320.274 72.7527C331.279 62.7007 338.992 56.4615 343.151 54.2084C346.791 52.1287 350.95 51.0889 355.196 51.3488L360.049 52.562C363.688 54.1218 366.375 57.328 367.415 61.1409C369.581 69.3731 354.849 81.4182 354.243 81.9382C354.07 82.1115 353.983 82.1115 353.81 82.1115ZM321.66 72.926L353.81 81.0716C355.543 79.5985 368.368 68.6799 366.461 61.4875C365.508 57.9346 363.082 55.075 359.789 53.6019L355.109 52.3887C351.123 52.2154 347.137 53.1686 343.671 55.1617C339.598 57.328 332.232 63.3073 321.66 72.926Z" fill="#0F3261"/>
<path d="M355.108 51.8686C351.035 51.6086 346.962 52.6485 343.409 54.6415C338.643 57.1545 329.631 64.8669 320.619 73.0991C307.274 85.3175 293.842 98.7491 293.842 98.7491L226.338 81.5914C226.338 81.5914 264.12 43.8096 275.905 37.4838C281.104 34.7108 285.783 34.1042 289.77 34.9708H289.943L290.723 35.1441L355.108 51.8686Z" fill="white"/>
<path d="M293.843 99.2689H293.757L226.252 82.1111C226.079 82.1111 225.906 81.9378 225.906 81.7645C225.819 81.5912 225.906 81.4179 225.992 81.2446C227.552 79.6848 263.947 43.3761 275.646 37.0503C280.585 34.4506 285.438 33.4974 289.771 34.5373L290.724 34.7973L355.282 51.3484C355.542 51.4351 355.715 51.6951 355.629 51.955C355.542 52.215 355.369 52.3883 355.109 52.3883C351.123 52.215 347.136 53.1682 343.584 55.1613C339.511 57.3277 331.885 63.5669 320.88 73.5322C307.708 85.5773 294.277 99.0089 294.19 99.0956C294.103 99.2689 293.93 99.3555 293.843 99.2689ZM227.292 81.4179L293.67 98.3157C295.403 96.5826 307.968 84.1042 320.273 72.9256C331.278 62.8736 338.991 56.6344 343.15 54.3814C345.75 52.9082 348.61 51.955 351.556 51.6084L289.597 35.6638C285.524 34.7106 280.845 35.5772 276.079 38.0902C265.334 43.7228 232.231 76.4785 227.292 81.4179Z" fill="#0F3261"/>
<path d="M317.845 56.201H317.759L285.87 48.5754C285.61 48.4887 285.436 48.2287 285.523 47.9688C285.61 47.7088 285.87 47.5355 286.13 47.6222L318.019 55.2478C318.279 55.3345 318.452 55.5944 318.365 55.8544C318.279 56.0277 318.105 56.201 317.845 56.201Z" fill="#0F3261"/>
<path d="M269.926 68.1595L271.66 66.4264C270.273 66.0798 269.06 65.3866 268.02 64.3467L269.84 63.3935C270.793 64.3467 271.92 65.0399 273.219 65.3866C275.299 65.9931 277.292 65.7332 278.245 64.6933C279.199 63.6534 278.592 62.8736 277.032 61.747C274.779 60.1872 273.739 58.8874 275.212 57.4143C276.686 55.9411 279.372 55.4212 282.231 55.9411L283.965 54.208L285.784 54.7279L284.138 56.3744C285.264 56.721 286.391 57.2409 287.258 58.1075L285.438 59.0607C284.571 58.2808 283.531 57.6742 282.405 57.4143C280.238 56.721 278.592 57.3276 277.899 58.0209C277.032 58.8874 277.639 59.6673 279.545 60.9671C281.798 62.5269 282.405 63.9134 280.932 65.3866C279.632 66.773 276.772 67.5529 273.566 66.9464L271.833 68.7661L269.926 68.1595Z" fill="#0F3261"/>
<path d="M290.117 73.5326L291.85 71.7995C290.464 71.4528 289.251 70.7596 288.211 69.7197L290.031 68.7665C290.984 69.7197 292.11 70.413 293.41 70.7596C295.403 71.3662 297.483 71.1062 298.436 70.0663C299.389 69.0265 298.783 68.2466 297.223 67.1201C294.97 65.5603 293.93 64.2604 295.403 62.7873C296.876 61.3142 299.563 60.7942 302.422 61.3142L304.156 59.5811L305.975 60.101L304.329 61.7474C305.455 62.0941 306.582 62.614 307.448 63.4805L305.629 64.4337C304.762 63.6538 303.722 63.0473 302.596 62.7873C300.429 62.0941 298.783 62.7006 298.09 63.3939C297.223 64.2604 297.83 65.0403 299.736 66.3402C301.989 67.9 302.596 69.2865 301.123 70.7596C299.823 72.1461 296.963 72.926 293.757 72.3194L292.024 74.1391L290.117 73.5326Z" fill="#0F3261"/>
<path d="M312.561 47.3617H312.474L293.583 42.8556C293.323 42.769 293.15 42.509 293.236 42.249C293.323 41.9891 293.583 41.8158 293.843 41.9024L312.734 46.4085C312.994 46.4085 313.167 46.6685 313.167 46.9284C313.167 47.1884 312.821 47.4484 312.561 47.3617Z" fill="#0F3261"/>
<path d="M326.424 91.2959L329.37 99.6148C330.67 102.734 329.977 106.374 327.551 108.714L187.082 247.882C185.089 249.875 182.143 250.742 179.37 250.049L79.3696 226.392C76.6833 225.785 74.5169 223.879 73.5637 221.279L73.477 221.106L70.5308 212.7L79.6296 208.367L216.112 73.2716C218.105 71.2785 221.051 70.412 223.824 71.1052L320.792 94.0689L326.424 91.2959Z" fill="#0F3261"/>
<path d="M181.278 250.742C180.584 250.742 179.891 250.655 179.284 250.482L79.3708 226.738C76.5112 226.045 74.1715 224.052 73.2183 221.279L73.1316 221.105L70.1853 212.613C70.0987 212.353 70.1853 212.093 70.4453 212.007L79.4574 207.761L215.853 72.7514C218.019 70.5851 221.139 69.7185 224.085 70.4118L320.879 93.3754L326.512 90.6891C326.599 90.6024 326.772 90.6024 326.945 90.6891C327.032 90.7758 327.205 90.8624 327.205 90.9491L330.151 99.268C330.151 99.3546 330.151 99.3546 330.151 99.4413C331.451 102.734 330.671 106.46 328.158 108.887L187.43 248.229C185.784 249.875 183.531 250.742 181.278 250.742ZM71.1385 212.873L73.9982 221.019C74.8647 223.445 76.9444 225.265 79.4574 225.785L179.458 249.528C182.057 250.135 184.83 249.355 186.737 247.449L327.292 108.28C329.545 106.027 330.238 102.648 329.025 99.7013C329.025 99.6146 329.025 99.6146 329.025 99.528L326.252 91.9023L320.966 94.4153C320.879 94.4153 320.706 94.4153 320.619 94.4153L223.652 71.4516C221.052 70.845 218.279 71.6249 216.373 73.5313L79.8907 208.627C79.8907 208.627 79.8041 208.714 79.7174 208.714L71.1385 212.873Z" fill="#0F3261"/>
<path d="M324.258 99.2691L183.616 238.438C181.623 240.431 178.677 241.297 175.904 240.604L75.9038 216.86C71.4844 215.821 68.7114 211.401 69.7513 206.895C70.0979 205.335 70.8778 203.949 72.0043 202.909L212.646 63.7403C214.639 61.7473 217.585 60.8807 220.358 61.574L320.359 85.3175C324.778 86.3574 327.551 90.8635 326.424 95.2829C326.078 96.8427 325.298 98.1425 324.258 99.2691Z" fill="white"/>
<path d="M177.811 241.297C177.118 241.297 176.424 241.21 175.731 241.037L75.7309 217.294C71.0515 216.167 68.1052 211.401 69.3184 206.722C69.665 205.162 70.5315 203.775 71.6581 202.649L212.213 63.4802C214.379 61.3138 217.499 60.4473 220.445 61.2272L320.446 84.8841C325.125 86.0106 328.071 90.7767 326.945 95.456C326.598 97.0158 325.732 98.489 324.605 99.6155L183.963 238.784C182.317 240.344 180.151 241.297 177.811 241.297ZM218.366 61.8338C216.286 61.8338 214.379 62.6137 212.906 64.0868L72.3513 203.255C69.3184 206.288 69.2317 211.228 72.2646 214.261C73.3045 215.3 74.6043 215.994 75.9908 216.34L175.991 240.084C178.591 240.69 181.364 239.911 183.27 238.004L323.912 98.9223C326.945 95.8893 327.031 90.95 323.999 87.917C322.959 86.8772 321.659 86.1839 320.272 85.8373L220.185 62.0937C219.665 61.9204 219.059 61.8338 218.366 61.8338Z" fill="#0F3261"/>
<path d="M86.6484 205.682L218.711 74.9189L309.613 96.4961L177.463 227.259L86.6484 205.682Z" fill="white"/>
<path d="M177.464 227.779H177.377L86.4758 206.201C86.3025 206.115 86.1292 206.028 86.1292 205.855C86.0425 205.681 86.1291 205.508 86.2158 205.335L218.365 74.5718C218.452 74.4851 218.625 74.3985 218.799 74.4851L309.7 96.0623C309.873 96.0623 310.047 96.2356 310.047 96.4089C310.133 96.5822 310.047 96.7555 309.96 96.9289L177.811 227.605C177.724 227.692 177.637 227.779 177.464 227.779ZM87.6023 205.421L177.377 226.739L308.66 96.7555L218.885 75.4383L87.6023 205.421Z" fill="#0F3261"/>
<path d="M246.615 77.0852C246.356 77.0852 246.182 77.0852 245.922 76.9985C245.229 76.9119 244.709 76.4786 244.449 75.872C244.016 74.7455 245.056 73.359 246.702 72.7524C247.395 72.4925 248.175 72.4058 248.955 72.4925C249.908 72.5791 250.602 73.359 250.602 74.3122C250.602 74.7455 250.428 75.1788 250.082 75.4387C249.562 76.0453 248.955 76.4786 248.175 76.7386C247.655 76.9985 247.135 77.0852 246.615 77.0852ZM248.262 73.5323C247.829 73.5323 247.395 73.619 247.049 73.7923C245.836 74.2256 245.142 75.0921 245.316 75.6121C245.489 75.872 245.749 76.132 246.096 76.132C246.702 76.2186 247.222 76.132 247.829 75.9587C248.349 75.7854 248.869 75.4387 249.302 75.0055C249.562 74.7455 249.648 74.3989 249.562 74.1389C249.388 73.8789 249.129 73.7056 248.782 73.619C248.609 73.5323 248.435 73.5323 248.262 73.5323Z" fill="#0F3261"/>
<path d="M272.178 82.1101C272.005 82.1101 271.918 82.1101 271.745 82.1101L252.594 77.9507C252.161 77.864 251.814 77.5174 251.641 77.0841C251.468 76.6508 251.641 76.1309 251.901 75.8709L252.508 75.1777C253.028 74.6577 253.721 74.4844 254.414 74.5711L273.218 78.9039C273.911 79.0772 274.431 79.7704 274.258 80.5503C274.171 80.8103 274.085 80.9836 273.911 81.1569L273.652 81.5035C273.305 81.9368 272.698 82.1101 272.178 82.1101ZM253.981 75.611C253.721 75.611 253.461 75.6976 253.288 75.9576L252.681 76.6508C252.594 76.7375 252.594 76.9108 252.681 77.0841L252.768 77.1707L271.918 81.1569C272.265 81.2436 272.698 81.0702 272.872 80.8103L273.132 80.4637C273.218 80.377 273.218 80.2037 273.218 80.117C273.218 80.0304 273.045 79.8571 272.958 79.8571L254.154 75.611H253.981Z" fill="#0F3261"/>
<path d="M260.22 298.924C255.801 270.067 247.222 257.849 233.79 236.445C220.359 214.955 213.773 172.84 220.532 160.622C227.378 148.403 243.496 155.162 247.395 165.561C251.381 175.96 252.594 185.578 254.588 187.572C256.581 189.565 258.14 177.52 258.14 177.52L292.196 143.811C292.196 143.811 297.915 151.523 299.822 165.474C301.815 179.513 306.234 226.306 307.794 240.778C309.354 255.249 330.064 298.924 330.064 298.924H260.22Z" fill="white"/>
<path d="M330.064 299.443H260.133C259.873 299.443 259.7 299.269 259.613 299.009C255.454 272.059 247.568 259.494 235.696 240.517L233.27 236.704C220.272 215.993 212.906 173.186 220.012 160.361C222.611 155.595 226.944 153.255 232.057 153.602C238.642 154.035 245.402 159.148 247.741 165.387C249.388 169.893 250.774 174.399 251.987 179.078C253.027 183.151 253.894 186.357 254.847 187.311L254.934 187.397C255.627 187.224 256.927 182.631 257.533 177.518C257.533 177.432 257.62 177.345 257.707 177.258L291.762 143.636C291.849 143.55 292.022 143.463 292.109 143.463C292.282 143.463 292.369 143.55 292.455 143.636C292.715 143.983 298.261 151.522 300.254 165.56C301.554 174.919 303.981 198.749 305.887 217.987C306.84 227.692 307.707 236.097 308.227 240.864C309.787 255.075 330.237 298.403 330.411 298.836C330.497 299.009 330.497 299.183 330.411 299.269C330.411 299.356 330.237 299.443 330.064 299.443ZM260.653 298.403H329.371C326.598 292.51 308.92 254.382 307.447 240.864C306.927 236.011 306.06 227.692 305.107 217.987C303.201 198.836 300.774 174.919 299.475 165.647C297.828 153.862 293.409 146.496 292.195 144.676L258.746 177.778C258.4 180.291 257.273 187.657 255.454 188.264C255.02 188.437 254.587 188.264 254.327 187.917C253.201 186.791 252.334 183.671 251.207 179.252C250.081 174.659 248.694 170.153 247.048 165.647C244.795 159.754 238.383 154.901 232.23 154.468C227.464 154.122 223.564 156.375 221.138 160.707C214.639 172.319 220.531 214 234.31 236.097L236.736 239.91C248.521 258.975 256.493 271.54 260.653 298.403Z" fill="#0F3261"/>
<path d="M228.244 136.011C214.813 136.011 203.894 128.992 203.894 120.413C203.894 111.834 214.813 104.729 228.244 104.729C240.809 104.729 251.208 110.794 252.421 118.767C252.508 119.027 252.334 119.287 251.988 119.287C251.728 119.373 251.468 119.2 251.468 118.853C250.255 111.314 240.289 105.682 228.244 105.682C215.419 105.682 204.934 112.268 204.934 120.326C204.934 128.385 215.419 134.971 228.244 134.971C238.383 134.971 247.568 130.725 250.601 124.573C250.688 124.313 251.035 124.226 251.295 124.313C251.555 124.399 251.641 124.746 251.555 125.006C248.262 131.592 238.903 136.011 228.244 136.011Z" fill="#0F3261"/>
<path d="M221.138 124.312C220.878 124.312 220.618 124.139 220.618 123.879V112.267C220.618 112.007 220.878 111.747 221.138 111.747C221.398 111.747 221.658 112.007 221.658 112.267V123.359L259.613 117.64C259.873 117.553 260.133 117.813 260.133 118.073C260.133 118.333 259.96 118.593 259.7 118.68L221.138 124.312Z" fill="#0F3261"/>
<path d="M208.747 142.855C208.66 142.855 208.66 142.855 208.573 142.855L185.783 136.01C185.523 135.923 185.35 135.663 185.35 135.403C185.436 135.143 185.696 134.97 185.956 134.97H186.043L208.833 141.815C209.093 141.815 209.267 142.075 209.267 142.422C209.267 142.769 209.007 142.942 208.747 142.855Z" fill="#0F3261"/>
<path d="M211.259 156.028H211.086L177.463 145.889C177.203 145.802 177.03 145.542 177.117 145.282C177.203 145.022 177.463 144.849 177.723 144.936L211.432 155.074C211.692 155.161 211.866 155.421 211.779 155.681C211.692 155.941 211.519 156.028 211.259 156.028Z" fill="#0F3261"/>
<path d="M154.067 171.452L155.8 169.719C154.414 169.373 153.201 168.68 152.161 167.64L153.98 166.686C154.934 167.64 156.06 168.333 157.36 168.68C159.353 169.286 161.433 169.026 162.386 167.986C163.339 167.033 162.733 166.166 161.173 165.04C158.92 163.48 157.88 162.18 159.353 160.707C160.826 159.234 163.512 158.714 166.372 159.234L168.105 157.501L169.925 158.021L168.279 159.667C169.405 160.014 170.532 160.534 171.398 161.4L169.578 162.354C168.712 161.574 167.672 160.967 166.545 160.707C164.379 160.014 162.733 160.621 162.039 161.314C161.173 162.18 161.779 162.96 163.686 164.26C165.939 165.82 166.545 167.206 165.072 168.68C163.772 170.066 160.913 170.846 157.707 170.239L155.973 172.059L154.067 171.452Z" fill="#0F3261"/>
<path d="M175.732 177.692L177.465 175.959C176.078 175.612 174.865 174.919 173.825 173.966L175.645 173.013C176.598 173.966 177.725 174.659 179.025 175.006C181.104 175.612 183.097 175.266 184.051 174.312C185.004 173.359 184.397 172.493 182.837 171.366C180.584 169.806 179.544 168.507 181.018 167.033C182.491 165.56 185.177 165.04 188.037 165.56L189.77 163.827L191.59 164.347L189.943 165.994C191.07 166.34 192.196 166.86 193.063 167.727L191.243 168.68C190.376 167.9 189.337 167.293 188.21 167.033C186.044 166.34 184.397 166.947 183.704 167.64C182.837 168.507 183.444 169.286 185.35 170.586C187.603 172.146 188.21 173.533 186.737 175.006C185.437 176.392 182.577 177.172 179.371 176.565L177.638 178.385L175.732 177.692Z" fill="#0F3261"/>
<path d="M0.774902 66.7731C0.774902 66.7731 28.8512 69.3728 39.9431 61.4005C51.035 53.4282 59.0073 20.4991 73.912 18.4194C88.8168 16.3397 88.8168 43.7228 77.0316 63.8268C77.0316 63.8268 114.12 62.8736 128.332 68.6795C142.543 74.4854 137.69 87.0505 130.411 90.8633C130.411 90.8633 142.196 100.915 129.025 110.621C129.025 110.621 138.73 121.366 123.132 127.952C123.132 127.952 128.678 140.95 107.534 145.543C107.534 145.543 85.3505 154.988 63.1668 149.096C40.983 143.203 38.21 137.744 27.4648 135.664C16.7195 133.584 0.774902 135.664 0.774902 135.664V66.7731Z" fill="white"/>
<path d="M78.5913 151.348C73.3054 151.348 68.106 150.741 62.9934 149.355C54.7611 147.275 46.7022 144.242 39.1632 140.343C35.177 138.349 32.0574 136.79 27.378 135.836C16.8061 133.757 1.03478 135.836 0.861471 135.836C0.68816 135.836 0.601505 135.836 0.428194 135.75C0.341539 135.663 0.254883 135.49 0.254883 135.403V66.6855C0.254883 66.5122 0.341539 66.4255 0.428194 66.3389C0.51485 66.2522 0.688158 66.1656 0.774814 66.2522C1.03478 66.2522 28.7645 68.7652 39.5964 60.9662C44.1025 57.76 48.0886 50.3076 52.2481 42.422C58.4006 30.9835 64.7265 19.1117 73.7386 17.8985C77.3782 17.2053 81.0177 18.8517 82.9241 21.8847C88.4701 30.1169 86.1304 48.4879 77.8114 63.2193C83.6174 63.1326 115.333 62.6993 128.418 68.1586C134.311 70.585 137.604 74.4845 137.864 79.1639C138.037 83.5833 135.264 88.436 131.191 90.8623C132.491 92.1622 135.871 95.975 135.697 100.741C135.611 104.294 133.531 107.587 129.718 110.533C130.671 111.746 133.184 115.472 132.318 119.632C131.538 123.011 128.678 125.871 123.739 128.037C124.605 130.897 124.432 134.017 123.046 136.616C120.793 141.036 115.593 144.069 107.621 145.802C98.3488 149.441 88.4701 151.348 78.5913 151.348ZM15.7662 134.103C19.6657 134.017 23.6518 134.363 27.5513 135.057C32.404 136.01 35.5236 137.57 39.5964 139.649C47.1354 143.549 55.0211 146.495 63.2533 148.575C85.0038 154.381 107.014 145.195 107.274 145.022C114.987 143.375 119.926 140.429 122.092 136.356C123.392 133.757 123.565 130.81 122.612 128.124C122.526 127.864 122.612 127.604 122.872 127.518C127.725 125.438 130.585 122.838 131.278 119.632C132.231 115.126 128.678 111.053 128.592 110.966C128.505 110.88 128.418 110.706 128.505 110.62C128.505 110.446 128.591 110.36 128.678 110.273C132.578 107.414 134.571 104.294 134.744 100.914C134.917 95.5417 130.151 91.3823 130.065 91.2956C129.978 91.209 129.891 91.0356 129.891 90.8623C129.891 90.689 129.978 90.5157 130.151 90.5157C133.704 88.696 137.17 84.2765 136.91 79.4238C136.737 76.3909 135.177 72.1448 128.072 69.2852C114.12 63.4792 77.3782 64.4324 77.0316 64.4324C76.8582 64.4324 76.6849 64.3458 76.5983 64.1725C76.5116 63.9992 76.5116 63.8259 76.5983 63.6526C85.0038 49.3544 87.5169 30.5502 82.2309 22.5779C80.4978 19.8049 77.2049 18.3318 73.9986 19.025C65.5064 20.2382 59.2672 31.85 53.2013 43.0286C48.9552 51.0009 44.8824 58.5399 40.203 61.9194C29.8044 69.4585 5.36755 67.812 1.29475 67.4654V134.883C6.06079 134.363 10.9135 134.103 15.7662 134.103Z" fill="#0F3261"/>
<path d="M33.0969 132.024C33.0103 132.024 32.837 131.938 32.7503 131.851C26.5111 125.785 21.8317 110.707 23.1316 100.655C23.1316 100.395 23.3915 100.222 23.6515 100.222C23.9114 100.222 24.0848 100.482 24.0848 100.742C22.7849 110.274 27.3777 125.352 33.3569 131.071C33.5302 131.244 33.5302 131.591 33.3569 131.764C33.3569 131.938 33.2702 132.024 33.0969 132.024Z" fill="#0F3261"/>
<path d="M70.5319 111.92C70.4452 111.92 70.3586 111.92 70.2719 111.834C70.0119 111.66 70.0119 111.4 70.1852 111.14C76.6844 102.388 82.2303 80.2912 76.5977 63.9133C76.5111 63.6534 76.6844 63.3934 76.9444 63.3067C77.2043 63.2201 77.4643 63.3934 77.5509 63.6534C83.3569 80.2912 77.6376 102.908 70.9651 111.747C70.7918 111.834 70.6185 111.92 70.5319 111.92Z" fill="#0F3261"/>
<path d="M103.722 96.2359C98.4362 96.2359 93.9301 95.3694 91.0705 93.3763C89.1641 92.0764 87.9509 89.9101 88.0376 87.5704C88.0376 76.2185 117.067 72.0591 118.367 71.8857C118.627 71.8857 118.887 72.0591 118.887 72.319C118.887 72.579 118.714 72.8389 118.454 72.8389C118.194 72.8389 88.9908 77.0851 88.9908 87.5704C88.9908 89.5634 89.944 91.3832 91.5904 92.5097C96.7897 96.2359 111.694 96.5825 130.065 90.2567C130.325 90.17 130.585 90.3433 130.672 90.6033C130.759 90.8633 130.585 91.1232 130.325 91.2099C121.92 94.2428 111.868 96.2359 103.722 96.2359Z" fill="#0F3261"/>
<path d="M105.454 116.253C102.594 116.34 99.7348 115.82 97.0485 114.78C92.3691 112.613 91.5892 109.407 91.7625 107.154C92.1958 102.301 97.3084 96.7554 102.854 95.2823C103.114 95.1957 103.374 95.369 103.461 95.6289C103.548 95.8889 103.374 96.1489 103.114 96.2355C97.915 97.622 93.0623 102.735 92.7157 107.241C92.4557 110.1 94.1022 112.353 97.3951 113.913C107.707 118.593 128.504 110.187 128.764 110.1C129.024 110.014 129.284 110.1 129.458 110.36C129.544 110.62 129.458 110.88 129.198 110.967C128.418 111.227 115.939 116.253 105.454 116.253Z" fill="#0F3261"/>
<path d="M102.768 131.765C99.1282 131.765 95.9219 131.158 94.0155 129.598C91.3292 127.345 91.2425 125.006 91.6758 123.446C92.7157 119.373 97.915 115.994 102.421 115.127C102.681 115.127 102.941 115.3 103.028 115.56C103.114 115.82 102.941 116.08 102.681 116.167C98.0883 117.033 93.5822 120.5 92.8023 123.706C92.2824 125.612 92.9756 127.345 94.7954 128.905C100.775 133.931 122.872 127.432 123.045 127.432C123.305 127.345 123.565 127.519 123.652 127.779C123.738 128.039 123.565 128.299 123.305 128.385C122.525 128.472 111.433 131.765 102.768 131.765Z" fill="#0F3261"/>
<path d="M99.9958 144.07C96.7895 144.07 93.6699 143.29 92.89 140.69C92.2834 138.784 92.5434 136.704 93.7566 135.057C95.7497 132.284 99.5625 130.898 102.509 130.725C102.769 130.725 103.029 130.898 103.029 131.158C103.029 131.418 102.855 131.678 102.595 131.678C99.8225 131.851 96.3562 133.064 94.6231 135.577C93.6699 136.964 93.41 138.697 93.9299 140.343C95.2297 144.503 104.848 142.77 108.488 141.817C108.748 141.73 109.008 141.903 109.095 142.163C109.181 142.423 109.008 142.683 108.748 142.77C105.802 143.636 102.942 143.983 99.9958 144.07Z" fill="#0F3261"/>
<path d="M107.534 75.0917C107.448 75.0917 107.448 75.0917 107.361 75.0917C103.461 73.7052 99.3886 72.9253 95.3158 72.8387C95.0559 72.8387 94.7959 72.5787 94.7959 72.3188C94.7959 72.0588 95.0559 71.7988 95.3158 71.7988C99.5619 71.8855 103.721 72.6654 107.708 74.1385C107.968 74.2252 108.141 74.4852 108.141 74.7451C108.054 75.0917 107.794 75.265 107.534 75.0917Z" fill="#0F3261"/>
<path d="M81.9699 128.471C81.71 128.471 81.5367 128.211 81.5367 127.951C82.2299 115.473 75.8174 99.7882 75.7307 99.7016C75.6441 99.4416 75.7307 99.1817 75.9907 99.095C76.2507 99.0083 76.5106 99.095 76.5973 99.355C76.684 99.5283 83.1831 115.3 82.4899 128.038C82.5765 128.298 82.3166 128.558 81.9699 128.471C82.0566 128.558 82.0566 128.558 81.9699 128.471Z" fill="#0F3261"/>
<path d="M177.204 23.3583L186.91 41.8159C187.256 42.4225 188.036 41.9026 187.776 41.296L178.071 22.8384C177.724 22.3185 176.944 22.8384 177.204 23.3583Z" fill="#0F3261"/>
<path d="M204.24 1.43399L205.453 32.0233C205.453 32.6299 206.407 32.6299 206.407 32.0233L205.193 1.43399C205.193 0.740752 204.24 0.740752 204.24 1.43399Z" fill="#0F3261"/>
<path d="M220.359 34.5357C224.431 28.8164 228.851 23.3571 233.617 18.1578C234.05 17.7245 233.357 16.9446 232.924 17.4646C228.158 22.7505 223.738 28.2965 219.579 34.1024C219.145 34.6223 220.012 35.0556 220.359 34.5357Z" fill="#0F3261"/>
</svg>
