<svg width="344" height="323" viewBox="0 0 344 323" fill="none" xmlns="http://www.w3.org/2000/svg">
<path d="M20.2491 0.519531H268.837C279.421 0.519531 288.015 9.11336 288.015 19.6973V303.203C288.015 313.787 279.421 322.381 268.837 322.381H20.2491C9.66512 322.381 1.07129 313.787 1.07129 303.203V19.7878C1.07129 9.11336 9.66512 0.519531 20.2491 0.519531Z" fill="white"/>
<path d="M268.837 322.924H20.2494C9.39402 322.924 0.528809 314.059 0.528809 303.203V19.788C0.528809 8.9326 9.39402 0.0673828 20.2494 0.0673828H268.837C279.693 0.0673828 288.558 8.9326 288.558 19.788V303.294C288.558 314.149 279.693 322.924 268.837 322.924ZM20.2494 1.06246C9.93679 1.06246 1.52388 9.47536 1.52388 19.788V303.294C1.52388 313.607 9.93679 322.02 20.2494 322.02H268.837C279.15 322.02 287.563 313.607 287.563 303.294V19.788C287.563 9.47536 279.15 1.06246 268.837 1.06246H20.2494Z" fill="#0F3261"/>
<path d="M273.722 306.913H15.3641C15.0927 306.913 14.8213 306.642 14.8213 306.37V51.1785C14.8213 50.9071 15.0927 50.6357 15.3641 50.6357H273.722C273.993 50.6357 274.265 50.9071 274.265 51.1785V306.37C274.265 306.642 273.993 306.913 273.722 306.913ZM15.8164 305.918H273.179V51.7213H15.8164V305.918Z" fill="#0F3261"/>
<path d="M241.337 244.404H47.8401C47.5687 244.404 47.2974 244.132 47.2974 243.861V98.8514C47.2974 98.58 47.5687 98.3086 47.8401 98.3086H241.337C241.608 98.3086 241.88 98.58 241.88 98.8514V243.861C241.789 244.132 241.608 244.404 241.337 244.404ZM48.2924 243.409H240.794V99.3941H48.2924V243.409Z" fill="#0F3261"/>
<path d="M180.909 98.9424H62.4951V219.889H180.909V98.9424Z" fill="#0F3261"/>
<path d="M180.909 220.34H62.4954C62.224 220.34 61.9526 220.069 61.9526 219.798V98.9412C61.9526 98.6698 62.224 98.3984 62.4954 98.3984H180.909C181.181 98.3984 181.452 98.6698 181.452 98.9412V219.888C181.362 220.069 181.181 220.34 180.909 220.34ZM62.9477 219.255H180.367V99.3935H62.9477V219.255Z" fill="#0F3261"/>
<path d="M180.909 244.403H62.4954C62.224 244.403 61.9526 244.132 61.9526 243.86V219.798C61.9526 219.526 62.224 219.255 62.4954 219.255H180.909C181.181 219.255 181.452 219.526 181.452 219.798V243.86C181.362 244.132 181.181 244.403 180.909 244.403ZM62.9477 243.408H180.367V220.34H62.9477V243.408Z" fill="#0F3261"/>
<path d="M273.722 271.18C273.632 271.18 273.451 271.18 273.36 271.09L240.885 244.222C240.794 244.132 240.704 243.951 240.704 243.861V98.851C240.704 98.7606 240.704 98.6701 240.794 98.5796L273.27 50.816C273.36 50.6351 273.632 50.5446 273.812 50.6351C273.993 50.7256 274.174 50.9065 274.174 51.0874V270.637C274.174 270.818 274.084 270.999 273.903 271.09C273.903 271.18 273.812 271.18 273.722 271.18ZM241.789 243.68L273.27 269.642V52.8062L241.789 99.0319V243.68Z" fill="#0F3261"/>
<path d="M15.3644 271.18C15.274 271.18 15.1835 271.18 15.1835 271.09C15.0026 270.999 14.9121 270.818 14.9121 270.638V51.1782C14.9121 50.9973 15.093 50.7259 15.2739 50.7259C15.4549 50.6355 15.7263 50.7259 15.8167 50.9068L48.2924 98.6705C48.3828 98.7609 48.3828 98.8514 48.3828 98.9418V243.951C48.3828 244.132 48.2924 244.223 48.2019 244.313L15.7263 271.18C15.6358 271.18 15.5453 271.18 15.3644 271.18ZM15.9072 52.8065V269.552L47.3877 243.59V99.0323L15.9072 52.8065Z" fill="#0F3261"/>
<path d="M273.722 306.913H15.3641C15.0927 306.913 14.8213 306.641 14.8213 306.37V270.638C14.8213 270.366 15.0927 270.095 15.3641 270.095H273.722C273.993 270.095 274.265 270.366 274.265 270.638V306.37C274.265 306.641 273.993 306.913 273.722 306.913ZM15.8164 305.917H273.179V271.18H15.8164V305.917Z" fill="#0F3261"/>
<path d="M53.8103 140.372H56.3433C57.3383 140.372 58.2429 141.186 58.2429 142.272C58.2429 143.267 57.4288 144.171 56.3433 144.171H53.8103C52.8153 144.171 51.9106 143.357 51.9106 142.272C51.9106 141.277 52.7248 140.372 53.8103 140.372Z" fill="#0F3261"/>
<path d="M56.3424 144.625H53.8095C52.5431 144.625 51.4575 143.539 51.4575 142.273C51.4575 141.006 52.5431 139.921 53.8095 139.921H56.3424C57.6089 139.921 58.6944 141.006 58.6944 142.273C58.6944 143.63 57.6089 144.625 56.3424 144.625ZM53.8095 140.916C53.0858 140.916 52.4526 141.549 52.4526 142.273C52.4526 142.997 53.0858 143.63 53.8095 143.63H56.3424C57.0661 143.63 57.6994 142.997 57.6994 142.273C57.6994 141.549 57.0661 140.916 56.3424 140.916H53.8095Z" fill="#0F3261"/>
<path d="M53.8103 154.756H56.3433C57.3383 154.756 58.2429 155.57 58.2429 156.656C58.2429 157.651 57.4288 158.555 56.3433 158.555H53.8103C52.8153 158.555 51.9106 157.741 51.9106 156.656C51.9106 155.57 52.7248 154.756 53.8103 154.756Z" fill="#0F3261"/>
<path d="M56.3424 158.917H53.8095C52.5431 158.917 51.4575 157.831 51.4575 156.565C51.4575 155.298 52.5431 154.213 53.8095 154.213H56.3424C57.6089 154.213 58.6944 155.298 58.6944 156.565C58.6944 157.922 57.6089 158.917 56.3424 158.917ZM53.8095 155.208C53.0858 155.208 52.4526 155.841 52.4526 156.565C52.4526 157.289 53.0858 157.922 53.8095 157.922H56.3424C57.0661 157.922 57.6994 157.289 57.6994 156.565C57.6994 155.841 57.0661 155.208 56.3424 155.208H53.8095Z" fill="#0F3261"/>
<path d="M53.8103 169.049H56.3433C57.3383 169.049 58.2429 169.863 58.2429 170.949C58.2429 171.944 57.4288 172.848 56.3433 172.848H53.8103C52.8153 172.848 51.9106 172.034 51.9106 170.949C51.9106 169.863 52.7248 169.049 53.8103 169.049Z" fill="#0F3261"/>
<path d="M56.344 173.301H53.8111C52.4542 173.392 51.3686 172.397 51.2782 171.04C51.1877 169.683 52.1828 168.597 53.5397 168.507C53.6302 168.507 53.7206 168.507 53.8111 168.507H56.344C57.7009 168.597 58.696 169.683 58.6055 171.04C58.4246 172.216 57.52 173.211 56.344 173.301ZM53.8111 169.502C53.0874 169.411 52.3637 169.954 52.3637 170.768C52.2732 171.492 52.816 172.216 53.6302 172.216C53.7206 172.216 53.8111 172.216 53.9015 172.216H56.4345C57.1582 172.125 57.7009 171.492 57.7009 170.768C57.6105 170.135 57.1582 169.592 56.4345 169.502H53.8111Z" fill="#0F3261"/>
<path d="M53.8103 183.343H56.3433C57.3383 183.343 58.2429 184.157 58.2429 185.242C58.2429 186.238 57.4288 187.142 56.3433 187.142H53.8103C52.8153 187.142 51.9106 186.328 51.9106 185.242C51.9106 184.157 52.7248 183.343 53.8103 183.343Z" fill="#0F3261"/>
<path d="M56.344 187.594H53.8111C52.4542 187.685 51.3686 186.69 51.2782 185.333C51.1877 183.976 52.1828 182.89 53.5397 182.8C53.6302 182.8 53.7206 182.8 53.8111 182.8H56.344C57.7009 182.89 58.696 183.976 58.6055 185.333C58.4246 186.509 57.52 187.504 56.344 187.594ZM53.8111 183.795C53.0874 183.704 52.3637 184.247 52.3637 185.061C52.2732 185.785 52.816 186.509 53.6302 186.509C53.7206 186.509 53.8111 186.509 53.9015 186.509H56.4345C57.1582 186.418 57.7009 185.785 57.7009 185.061C57.6105 184.428 57.1582 183.885 56.4345 183.795H53.8111Z" fill="#0F3261"/>
<path d="M81.3118 163.078C81.0404 163.078 80.769 162.806 80.769 162.535V156.112C80.769 155.841 81.0404 155.569 81.3118 155.569C81.5832 155.569 81.8546 155.841 81.8546 156.112V162.535C81.8546 162.897 81.5832 163.078 81.3118 163.078Z" fill="white"/>
<path d="M84.4768 159.913H78.054C77.7826 159.913 77.5112 159.641 77.5112 159.37C77.5112 159.099 77.7826 158.827 78.054 158.827H84.4768C84.7481 158.827 85.0195 159.099 85.0195 159.37C85.0195 159.641 84.7481 159.913 84.4768 159.913Z" fill="white"/>
<path d="M78.9583 162.175C78.6869 162.175 78.4155 161.903 78.4155 161.632C78.4155 161.541 78.506 161.361 78.5964 161.27L83.1195 156.747C83.3004 156.566 83.6623 156.566 83.8432 156.747C84.0241 156.928 84.0241 157.29 83.8432 157.471L79.3201 161.994C79.2297 162.084 79.1392 162.175 78.9583 162.175Z" fill="white"/>
<path d="M83.5724 162.175C83.3914 162.175 83.301 162.084 83.2105 161.994L78.6874 157.471C78.5065 157.29 78.5065 156.928 78.6874 156.747C78.8684 156.566 79.2302 156.566 79.4111 156.747L83.9342 161.27C84.1151 161.451 84.1151 161.722 83.9342 161.994C83.8438 162.084 83.6628 162.175 83.5724 162.175Z" fill="white"/>
<path d="M97.4129 163.078C97.1415 163.078 96.8701 162.806 96.8701 162.535V156.112C96.8701 155.841 97.1415 155.569 97.4129 155.569C97.6843 155.569 97.9557 155.841 97.9557 156.112V162.535C97.9557 162.897 97.6843 163.078 97.4129 163.078Z" fill="white"/>
<path d="M100.67 159.913H94.2474C93.976 159.913 93.7046 159.641 93.7046 159.37C93.7046 159.099 93.976 158.827 94.2474 158.827H100.67C100.942 158.827 101.213 159.099 101.213 159.37C101.122 159.641 100.942 159.913 100.67 159.913Z" fill="white"/>
<path d="M95.1518 162.175C94.9709 162.175 94.8805 162.084 94.79 161.994C94.6091 161.813 94.6091 161.451 94.79 161.27L99.3131 156.747C99.494 156.566 99.8558 156.566 100.037 156.747C100.218 156.928 100.218 157.29 100.037 157.471L95.5137 161.994C95.4232 162.084 95.3328 162.175 95.1518 162.175Z" fill="white"/>
<path d="M99.6749 162.175C99.5844 162.175 99.4035 162.084 99.3131 161.994L94.79 157.471C94.6091 157.29 94.6091 156.928 94.79 156.747C94.9709 156.566 95.3327 156.566 95.5137 156.747L100.037 161.27C100.218 161.451 100.218 161.813 100.037 161.994C99.9463 162.084 99.8558 162.175 99.6749 162.175Z" fill="white"/>
<path d="M113.605 163.078C113.334 163.078 113.062 162.806 113.062 162.535V156.112C113.062 155.841 113.334 155.569 113.605 155.569C113.877 155.569 114.148 155.841 114.148 156.112V162.535C114.058 162.897 113.877 163.078 113.605 163.078Z" fill="white"/>
<path d="M116.771 159.913H110.348C110.077 159.913 109.806 159.641 109.806 159.37C109.806 159.099 110.077 158.827 110.348 158.827H116.771C117.043 158.827 117.314 159.099 117.314 159.37C117.314 159.641 117.133 159.913 116.771 159.913Z" fill="white"/>
<path d="M111.344 162.175C111.163 162.175 111.073 162.084 110.982 161.994C110.801 161.813 110.801 161.451 110.982 161.27L115.505 156.747C115.686 156.566 116.048 156.566 116.229 156.747C116.41 156.928 116.41 157.29 116.229 157.471L111.706 161.994C111.616 162.084 111.435 162.175 111.344 162.175Z" fill="white"/>
<path d="M115.867 162.175C115.777 162.175 115.596 162.084 115.505 161.994L110.982 157.471C110.801 157.29 110.801 156.928 110.982 156.747C111.163 156.566 111.525 156.566 111.706 156.747L116.229 161.27C116.41 161.451 116.41 161.722 116.229 161.994C116.139 162.084 115.958 162.175 115.867 162.175Z" fill="white"/>
<path d="M129.708 163.078C129.436 163.078 129.165 162.806 129.165 162.535V156.112C129.165 155.841 129.436 155.569 129.708 155.569C129.979 155.569 130.251 155.841 130.251 156.112V162.535C130.251 162.897 129.979 163.078 129.708 163.078Z" fill="white"/>
<path d="M132.964 159.913H126.541C126.27 159.913 125.999 159.641 125.999 159.37C125.999 159.099 126.27 158.827 126.541 158.827H132.964C133.235 158.827 133.507 159.099 133.507 159.37C133.507 159.641 133.235 159.913 132.964 159.913Z" fill="white"/>
<path d="M127.446 162.175C127.265 162.175 127.175 162.084 127.084 161.994C126.903 161.813 126.903 161.451 127.084 161.27L131.607 156.747C131.788 156.566 132.15 156.566 132.331 156.747C132.512 156.928 132.512 157.29 132.331 157.471L127.808 161.994C127.718 162.084 127.627 162.175 127.446 162.175Z" fill="white"/>
<path d="M132.059 162.175C131.969 162.175 131.788 162.084 131.697 161.994L127.174 157.471C126.993 157.29 126.993 156.928 127.174 156.747C127.355 156.566 127.717 156.566 127.898 156.747L132.421 161.27C132.602 161.451 132.602 161.722 132.421 161.994C132.24 162.084 132.15 162.175 132.059 162.175Z" fill="white"/>
<path d="M145.901 163.078C145.629 163.078 145.358 162.806 145.358 162.535V156.112C145.358 155.841 145.629 155.569 145.901 155.569C146.172 155.569 146.443 155.841 146.443 156.112V162.535C146.443 162.897 146.172 163.078 145.901 163.078Z" fill="white"/>
<path d="M149.157 159.913H142.734C142.463 159.913 142.191 159.641 142.191 159.37C142.191 159.099 142.463 158.827 142.734 158.827H149.157C149.428 158.827 149.7 159.099 149.7 159.37C149.609 159.641 149.428 159.913 149.157 159.913Z" fill="white"/>
<path d="M143.639 162.175C143.458 162.175 143.367 162.084 143.277 161.994C143.096 161.813 143.096 161.451 143.277 161.27L147.8 156.747C147.981 156.566 148.343 156.566 148.524 156.747C148.704 156.928 148.704 157.29 148.524 157.471L144 161.994C143.91 162.084 143.729 162.175 143.639 162.175Z" fill="white"/>
<path d="M148.162 162.175C148.071 162.175 147.89 162.084 147.8 161.994L143.277 157.471C143.096 157.29 143.096 156.928 143.277 156.747C143.458 156.566 143.82 156.566 144 156.747L148.524 161.27C148.704 161.451 148.704 161.813 148.524 161.994C148.433 162.084 148.343 162.175 148.162 162.175Z" fill="white"/>
<path d="M162.092 163.078C161.821 163.078 161.549 162.806 161.549 162.535V156.112C161.549 155.841 161.821 155.569 162.092 155.569C162.363 155.569 162.635 155.841 162.635 156.112V162.535C162.544 162.897 162.363 163.078 162.092 163.078Z" fill="white"/>
<path d="M165.259 159.913H158.837C158.565 159.913 158.294 159.641 158.294 159.37C158.294 159.099 158.565 158.827 158.837 158.827H165.259C165.531 158.827 165.802 159.099 165.802 159.37C165.802 159.641 165.531 159.913 165.259 159.913Z" fill="white"/>
<path d="M159.742 162.175C159.651 162.175 159.47 162.084 159.38 161.994C159.199 161.813 159.199 161.541 159.38 161.27L163.903 156.747C164.084 156.566 164.446 156.566 164.627 156.747C164.808 156.928 164.808 157.29 164.627 157.471L160.104 161.994C160.013 162.084 159.923 162.175 159.742 162.175Z" fill="white"/>
<path d="M164.355 162.175C164.265 162.175 164.084 162.084 163.993 161.994L159.38 157.471C159.199 157.29 159.199 156.928 159.38 156.747C159.561 156.566 159.923 156.566 160.104 156.747L164.627 161.27C164.808 161.451 164.808 161.813 164.627 161.994C164.627 162.084 164.446 162.175 164.355 162.175Z" fill="white"/>
<path d="M197.282 117.848H215.374C216.459 117.848 217.364 118.752 217.364 119.838C217.364 120.923 216.459 121.828 215.374 121.828H197.282C196.196 121.828 195.292 120.923 195.292 119.838C195.292 118.752 196.196 117.848 197.282 117.848Z" fill="white"/>
<path d="M215.375 122.46H197.283C195.926 122.46 194.75 121.284 194.75 119.927C194.75 118.571 195.926 117.395 197.283 117.395H215.375C216.732 117.395 217.908 118.571 217.908 119.927C217.908 121.284 216.823 122.46 215.375 122.46ZM197.283 118.39C196.469 118.39 195.745 119.113 195.745 119.927C195.745 120.742 196.469 121.465 197.283 121.465H215.375C216.189 121.465 216.913 120.742 216.913 119.927C216.913 119.113 216.189 118.39 215.375 118.39H197.283Z" fill="#0F3261"/>
<path d="M197.282 129.337H225.415C226.501 129.337 227.405 130.242 227.405 131.327C227.405 132.413 226.501 133.317 225.415 133.317H197.282C196.196 133.317 195.292 132.413 195.292 131.327C195.292 130.242 196.196 129.337 197.282 129.337Z" fill="white"/>
<path d="M225.416 133.859H197.283C195.926 133.859 194.75 132.683 194.75 131.326C194.75 129.969 195.926 128.793 197.283 128.793H225.416C226.773 128.793 227.949 129.969 227.949 131.326C227.949 132.773 226.773 133.859 225.416 133.859ZM197.283 129.879C196.469 129.879 195.745 130.602 195.745 131.416C195.745 132.23 196.469 132.954 197.283 132.954H225.416C226.231 132.954 226.954 132.23 226.954 131.416C226.954 130.602 226.231 129.879 225.416 129.879H197.283Z" fill="#0F3261"/>
<path d="M230.121 196.641H192.489V231.921H230.121V196.641Z" fill="#0F3261"/>
<path d="M230.03 232.373H192.398C192.127 232.373 191.855 232.102 191.855 231.831V196.551C191.855 196.279 192.127 196.008 192.398 196.008H230.03C230.302 196.008 230.573 196.279 230.573 196.551V231.831C230.573 232.102 230.302 232.373 230.03 232.373ZM192.941 231.378H229.487V197.184H192.941V231.378Z" fill="#0F3261"/>
<path d="M192.489 231.83L197.916 217.175H224.241L230.03 231.83H192.489Z" fill="white"/>
<path d="M230.03 232.372H192.398C192.217 232.372 192.036 232.282 191.946 232.192C191.855 232.101 191.855 231.92 191.855 231.739L197.283 217.085C197.374 216.904 197.555 216.723 197.735 216.723H224.06C224.241 216.723 224.422 216.813 224.512 216.994L230.302 231.649C230.392 231.83 230.302 232.011 230.211 232.101C230.392 232.282 230.211 232.372 230.03 232.372ZM193.212 231.377H229.306L223.879 217.718H198.278L193.212 231.377Z" fill="#0F3261"/>
<path d="M224.33 196.641H197.915V217.266H224.33V196.641Z" fill="#0F3261"/>
<path d="M224.33 217.719H198.006C197.734 217.719 197.463 217.447 197.463 217.176V196.551C197.463 196.279 197.734 196.008 198.006 196.008H224.33C224.601 196.008 224.873 196.279 224.873 196.551V217.176C224.782 217.447 224.601 217.719 224.33 217.719ZM198.458 216.723H223.787V197.184H198.458V216.723Z" fill="#0F3261"/>
<path d="M70.636 265.571C70.3646 265.571 70.0933 265.3 70.0933 265.028C70.0933 264.938 70.1837 264.757 70.1837 264.666L84.0243 249.288C84.1148 249.198 84.2957 249.107 84.3862 249.107L159.65 249.017C159.831 249.017 159.921 249.107 160.012 249.198L171.953 264.486C172.043 264.666 172.043 264.847 171.953 265.028C171.862 265.209 171.681 265.3 171.5 265.3L70.636 265.571ZM84.748 250.193L71.812 264.576L170.596 264.395L159.469 250.102L84.748 250.193Z" fill="#0F3261"/>
<path d="M171.682 265.39C171.501 265.39 171.411 265.3 171.32 265.21L159.379 249.831C159.198 249.56 159.289 249.288 159.47 249.107C159.651 248.926 159.922 249.017 160.103 249.198L172.044 264.486C172.225 264.667 172.225 265.029 171.954 265.21C171.954 265.3 171.863 265.39 171.682 265.39Z" fill="#0F3261"/>
<path d="M151.419 265.392C151.238 265.392 151.057 265.301 150.966 265.12L144.182 249.832C144.091 249.561 144.182 249.289 144.453 249.199C144.725 249.109 144.996 249.199 145.086 249.47L151.871 264.758C151.962 265.03 151.871 265.301 151.6 265.392C151.6 265.392 151.509 265.392 151.419 265.392Z" fill="#0F3261"/>
<path d="M131.246 265.481C130.974 265.481 130.793 265.3 130.703 265.029L129.075 249.741C129.075 249.47 129.256 249.198 129.527 249.198C129.798 249.198 130.07 249.379 130.07 249.651L131.698 265.029C131.789 265.21 131.608 265.481 131.246 265.481Z" fill="#0F3261"/>
<path d="M111.072 265.481H110.982C110.71 265.391 110.529 265.119 110.62 264.848L114.148 249.469C114.238 249.198 114.51 249.017 114.781 249.108C115.052 249.198 115.233 249.469 115.143 249.741L111.615 265.119C111.524 265.3 111.343 265.481 111.072 265.481Z" fill="#0F3261"/>
<path d="M90.899 265.481C90.8085 265.481 90.718 265.481 90.6276 265.391C90.3562 265.21 90.2657 264.939 90.4467 264.667L99.131 249.289C99.2214 249.017 99.5833 248.927 99.7642 249.108C100.036 249.289 100.126 249.56 99.9451 249.831L91.2608 265.21C91.2608 265.391 91.0799 265.481 90.899 265.481Z" fill="#0F3261"/>
<path d="M70.6367 265.571C70.5462 265.571 70.3653 265.481 70.2749 265.481C70.0939 265.3 70.0939 264.938 70.2749 264.757L84.1154 249.379C84.2964 249.198 84.6582 249.198 84.8391 249.379C85.0201 249.56 85.0201 249.922 84.8391 250.103L70.9985 265.481C70.9985 265.481 70.8176 265.571 70.6367 265.571Z" fill="#0F3261"/>
<path d="M80.5867 254.444C80.3153 254.444 80.0439 254.173 80.0439 253.901C80.0439 253.63 80.3153 253.359 80.5867 253.359L163.088 253.178C163.359 253.178 163.63 253.449 163.63 253.721C163.63 253.992 163.359 254.263 163.088 254.263L80.5867 254.444Z" fill="#0F3261"/>
<path d="M75.1595 260.596C74.8881 260.596 74.6167 260.324 74.6167 260.053C74.6167 259.781 74.8881 259.51 75.1595 259.51L167.792 259.329C168.063 259.329 168.335 259.6 168.335 259.872C168.335 260.143 168.063 260.415 167.792 260.415L75.1595 260.596Z" fill="#0F3261"/>
<path d="M161.641 229.658H84.4771V235.448H161.641V229.658Z" fill="#0F3261"/>
<path d="M161.641 235.99H84.4773C84.2059 235.99 83.9346 235.719 83.9346 235.448V229.658C83.9346 229.387 84.2059 229.115 84.4773 229.115H161.641C161.912 229.115 162.184 229.387 162.184 229.658V235.448C162.184 235.719 161.912 235.99 161.641 235.99ZM85.0201 234.905H161.189V230.201H85.0201V234.905Z" fill="#0F3261"/>
<path d="M149.609 233.276C159.379 243.499 177.109 250.283 186.155 248.383C186.155 248.383 146.805 262.948 139.296 266.204C139.296 266.204 112.61 257.882 108.54 233.367H149.609V233.276Z" fill="white"/>
<path d="M139.207 266.566C139.116 266.566 139.116 266.566 139.026 266.566C138.755 266.475 111.978 257.791 107.907 233.276C107.907 233.095 107.907 233.005 107.998 232.914C108.088 232.824 108.269 232.733 108.36 232.733H149.429C149.61 232.733 149.7 232.824 149.791 232.914C159.832 243.498 177.382 249.65 185.885 247.84C186.156 247.75 186.428 247.931 186.518 248.202C186.609 248.474 186.428 248.745 186.247 248.836C185.885 249.016 146.806 263.4 139.388 266.656C139.388 266.566 139.297 266.656 139.207 266.566ZM109.083 233.728C113.154 256.163 136.855 264.757 139.207 265.571C145.63 262.857 172.678 252.816 182.447 249.197C172.497 249.107 157.661 242.413 149.429 233.819H109.083V233.728Z" fill="#0F3261"/>
<path d="M142.643 233.276C142.643 233.276 146.714 237.257 144.905 241.237C143.095 245.127 132.511 245.579 127.717 243.589C122.922 241.599 120.028 236.623 120.57 233.276H142.643Z" fill="white"/>
<path d="M134.954 245.217C132.421 245.308 129.979 244.855 127.627 244.041C122.561 242.051 119.576 236.714 120.118 233.186C120.118 232.914 120.39 232.733 120.571 232.733H142.643C142.734 232.733 142.915 232.824 143.005 232.914C143.186 233.095 147.347 237.256 145.357 241.418C144.181 244.041 139.477 245.217 134.954 245.217ZM121.114 233.728C120.933 236.804 123.556 241.237 127.989 243.046C132.421 244.855 142.824 244.584 144.543 240.965C145.99 237.799 143.186 234.452 142.553 233.728H121.114Z" fill="#0F3261"/>
<path d="M156.213 242.865C161.46 247.026 171.23 249.107 171.23 249.107L167.068 251.097C167.068 251.097 156.846 250.102 152.052 243.951L156.213 242.865Z" fill="#0F3261"/>
<path d="M118.853 248.294C126.18 256.707 136.764 261.772 136.764 261.772L141.558 259.33C141.558 259.33 130.613 253.54 124.913 248.203L118.853 248.294Z" fill="#0F3261"/>
<path d="M295.07 235.446C272.364 260.595 232.199 258.423 214.107 257.338L186.064 288.547C186.064 288.547 231.747 311.524 284.395 296.87C337.044 282.215 342.653 270.726 342.653 270.726L295.07 235.446Z" fill="white"/>
<path d="M248.211 302.207C212.75 302.207 186.245 289.181 185.883 289C185.702 288.909 185.612 288.819 185.612 288.638C185.612 288.457 185.612 288.367 185.793 288.276L213.836 257.067C213.926 256.976 214.107 256.886 214.198 256.886C231.476 257.881 272.093 260.233 294.799 235.175C294.98 234.994 295.251 234.994 295.522 235.085L343.105 270.365C343.286 270.546 343.376 270.817 343.286 270.998C343.015 271.45 336.954 282.848 284.758 297.413C272.726 300.669 260.514 302.298 248.211 302.207ZM186.969 288.367C192.577 290.99 235.727 309.896 284.305 296.327C331.074 283.301 340.572 272.807 342.02 270.817L295.161 236.17C272.274 261.138 231.838 258.876 214.379 257.881L186.969 288.367Z" fill="#0F3261"/>
<path d="M254.725 263.127C265.851 260.594 273.993 264.212 277.249 270.725C280.506 277.239 277.249 289.541 262.323 291.893C247.397 294.245 237.989 286.375 237.989 278.415C237.989 270.545 247.307 263.941 254.725 263.127Z" fill="white"/>
<path d="M257.166 292.799C251.286 292.799 246.04 291.171 242.331 287.914C239.436 285.653 237.627 282.125 237.536 278.416C237.536 270.546 246.763 263.49 254.633 262.585C265.217 260.142 274.083 263.218 277.701 270.455C279.42 274.435 279.239 279.049 277.158 282.848C274.535 287.914 269.288 291.261 262.413 292.347C260.604 292.618 258.885 292.799 257.166 292.799ZM261.599 262.766C259.337 262.766 257.076 263.037 254.814 263.58H254.724C247.216 264.394 238.531 271.088 238.531 278.416C238.622 281.853 240.25 285.019 242.964 287.19C247.487 291.08 254.543 292.618 262.232 291.352C268.836 290.357 273.721 287.1 276.254 282.306C278.153 278.597 278.425 274.074 276.796 270.817C274.173 265.661 268.564 262.766 261.599 262.766Z" fill="#0F3261"/>
<path d="M233.556 268.104C227.405 268.194 221.344 267.38 215.464 265.842L216.549 261.952C223.515 263.761 230.661 264.485 237.808 263.942L237.989 268.013C236.541 268.104 235.004 268.104 233.556 268.104Z" fill="#0F3261"/>
<path d="M277.883 259.057L276.436 255.258C285.301 251.82 292.538 247.749 295.342 244.854L298.327 247.659C295.071 251.096 287.381 255.348 277.883 259.057Z" fill="#0F3261"/>
<path d="M234.823 296.327C222.791 295.241 210.941 292.527 199.633 288.185L201.081 284.386C212.027 288.547 223.515 291.17 235.185 292.256L234.823 296.327Z" fill="#0F3261"/>
<path d="M291.361 289.814L290.185 285.924C312.529 278.959 327.003 269.098 327.184 269.008L329.445 272.355C328.903 272.807 314.338 282.667 291.361 289.814Z" fill="#0F3261"/>
<path d="M246.764 172.125L306.559 121.376C308.82 119.386 312.348 119.747 314.248 122.009L341.386 154.032C343.376 156.294 343.015 159.822 340.753 161.721L280.958 212.47C278.697 214.46 275.169 214.099 273.269 211.837L246.13 179.814C244.231 177.552 244.502 174.115 246.764 172.125Z" fill="#0F3261"/>
<path d="M277.521 214.188C277.34 214.188 277.159 214.188 277.069 214.188C275.531 214.098 273.993 213.284 272.998 212.108L245.86 180.084C243.689 177.551 244.05 173.843 246.583 171.671L306.378 120.923C308.911 118.752 312.62 119.113 314.791 121.646L341.93 153.67C344.101 156.203 343.739 159.911 341.206 162.083L281.411 212.831C280.235 213.736 278.878 214.279 277.521 214.188ZM310.178 120.561C309.002 120.561 307.826 121.013 307.012 121.737L247.126 172.486C245.045 174.295 244.774 177.371 246.583 179.451L273.722 211.475C275.531 213.555 278.607 213.826 280.687 212.017L340.482 161.268C342.563 159.459 342.834 156.384 341.025 154.303L313.887 122.28C313.072 121.284 311.806 120.651 310.54 120.561H310.178Z" fill="#0F3261"/>
<path d="M272.354 175.253L263.25 182.979L267.874 188.428L276.978 180.701L272.354 175.253Z" fill="white"/>
<path d="M267.932 188.95C267.751 188.95 267.661 188.859 267.57 188.769L262.957 183.251C262.866 183.16 262.866 182.979 262.866 182.889C262.866 182.798 262.957 182.617 263.047 182.527L272.184 174.747C272.365 174.566 272.727 174.566 272.907 174.838L277.521 180.356C277.611 180.446 277.611 180.627 277.611 180.718C277.611 180.808 277.521 180.989 277.431 181.079L268.294 188.859C268.113 188.859 268.023 188.95 267.932 188.95ZM263.952 182.979L267.932 187.683L276.255 180.627L272.274 175.923L263.952 182.979Z" fill="#0F3261"/>
<path d="M311.082 142.363L311.806 141.729C313.344 140.463 315.605 140.644 316.872 142.182C318.138 143.72 317.957 145.981 316.419 147.248L315.696 147.881C314.158 149.147 311.896 148.966 310.63 147.429C309.454 145.891 309.635 143.629 311.082 142.363Z" fill="white"/>
<path d="M313.435 149.147C311.173 149.238 309.364 147.428 309.273 145.257C309.273 143.991 309.816 142.724 310.811 142.001L311.535 141.368C313.254 139.92 315.877 140.101 317.324 141.82C318.772 143.539 318.591 146.162 316.872 147.609L316.148 148.243C315.334 148.785 314.43 149.147 313.435 149.147ZM314.158 141.368C313.435 141.368 312.711 141.639 312.168 142.091L311.445 142.724C310.178 143.81 309.997 145.8 311.083 147.067C312.168 148.333 314.158 148.514 315.425 147.428L316.148 146.795C317.505 145.8 317.686 143.81 316.691 142.544C316.058 141.729 315.063 141.277 314.158 141.368Z" fill="#0F3261"/>
<path d="M274.445 193.744L284.034 185.602C284.667 185.06 285.662 185.15 286.205 185.783C286.748 186.417 286.657 187.412 286.024 187.954L276.435 196.096C275.802 196.639 274.807 196.548 274.264 195.915C273.721 195.282 273.812 194.287 274.445 193.744Z" fill="white"/>
<path d="M275.441 197.002C274.808 197.002 274.265 196.73 273.903 196.278C273.541 195.826 273.36 195.283 273.451 194.74C273.451 194.198 273.722 193.655 274.174 193.293L283.673 185.151C284.578 184.428 285.844 184.518 286.568 185.423C286.93 185.875 287.11 186.418 287.02 186.961C287.02 187.503 286.749 188.046 286.296 188.408L276.707 196.55C276.436 196.821 275.984 197.002 275.441 197.002ZM285.03 185.785C284.758 185.785 284.487 185.875 284.306 186.056L274.717 194.198C274.536 194.378 274.355 194.65 274.355 194.921C274.355 195.193 274.446 195.464 274.627 195.735C274.989 196.188 275.622 196.278 276.074 195.916C276.074 195.916 276.165 195.916 276.165 195.826L285.754 187.684C286.206 187.322 286.296 186.689 285.934 186.237C285.934 186.237 285.934 186.146 285.844 186.146C285.663 185.875 285.392 185.785 285.03 185.785Z" fill="#0F3261"/>
<path d="M289.281 181.17L298.87 173.028C299.503 172.485 300.498 172.576 301.041 173.209C301.584 173.842 301.493 174.838 300.86 175.38L291.271 183.522C290.638 184.065 289.643 183.974 289.1 183.341C288.557 182.708 288.648 181.713 289.281 181.17Z" fill="white"/>
<path d="M290.367 184.427H290.277C289.191 184.427 288.287 183.522 288.287 182.346C288.287 181.713 288.558 181.17 289.101 180.809L298.69 172.667C299.594 171.943 300.861 172.034 301.584 172.938C302.308 173.843 302.218 175.109 301.313 175.833L291.724 183.975C291.362 184.246 290.82 184.427 290.367 184.427ZM299.866 173.119C299.594 173.119 299.323 173.21 299.142 173.391L289.644 181.532C289.191 181.894 289.101 182.527 289.463 182.98C289.463 182.98 289.463 183.07 289.553 183.07C289.734 183.251 290.005 183.432 290.277 183.432C290.548 183.432 290.82 183.341 291.091 183.161L300.68 175.019C301.132 174.657 301.223 174.024 300.861 173.572C300.861 173.572 300.861 173.481 300.77 173.481C300.499 173.3 300.228 173.119 299.866 173.119Z" fill="#0F3261"/>
<path d="M304.207 168.505L313.796 160.363C314.429 159.82 315.424 159.911 315.967 160.544C316.51 161.177 316.419 162.172 315.786 162.715L306.197 170.857C305.564 171.4 304.569 171.309 304.026 170.676C303.483 170.043 303.483 169.048 304.207 168.505Z" fill="white"/>
<path d="M305.203 171.762H305.022C304.479 171.762 303.936 171.491 303.574 171.039C302.851 170.224 302.941 168.958 303.755 168.144C303.755 168.144 303.755 168.144 303.846 168.053L313.434 159.912C313.887 159.55 314.43 159.369 314.972 159.46C315.515 159.46 316.058 159.731 316.42 160.183C317.143 160.997 317.053 162.264 316.239 163.078C316.239 163.078 316.239 163.078 316.148 163.168L306.559 171.31C306.198 171.581 305.655 171.762 305.203 171.762ZM314.791 160.545C314.52 160.545 314.339 160.636 314.068 160.816L304.479 168.958C304.027 169.32 303.936 170.044 304.388 170.405C304.75 170.858 305.474 170.948 305.836 170.496L315.425 162.354C315.877 161.992 315.967 161.359 315.606 160.907C315.606 160.907 315.606 160.816 315.515 160.816C315.334 160.636 315.063 160.545 314.791 160.545Z" fill="#0F3261"/>
<path d="M319.043 155.932L323.385 152.223C324.019 151.68 325.014 151.77 325.556 152.404C326.099 153.037 326.009 154.032 325.375 154.575L321.033 158.284C320.4 158.826 319.405 158.736 318.862 158.103C318.319 157.469 318.41 156.474 319.043 155.932Z" fill="white"/>
<path d="M320.038 159.187C319.405 159.187 318.862 158.916 318.5 158.463C317.776 157.649 317.867 156.383 318.681 155.569C318.681 155.569 318.681 155.569 318.771 155.478L323.114 151.769C323.566 151.407 324.109 151.227 324.651 151.317C325.737 151.317 326.642 152.312 326.642 153.398C326.642 154.031 326.37 154.574 325.827 154.935L321.485 158.644C321.033 159.006 320.581 159.187 320.038 159.187ZM324.47 152.312C324.199 152.312 324.018 152.403 323.747 152.583L319.405 156.292C319.224 156.473 319.043 156.745 319.043 157.016C319.043 157.287 319.133 157.559 319.314 157.83C319.676 158.283 320.309 158.373 320.762 158.011C320.762 158.011 320.852 158.011 320.852 157.921L325.194 154.212C325.646 153.85 325.646 153.126 325.285 152.674C325.104 152.493 324.832 152.312 324.561 152.312H324.47Z" fill="#0F3261"/>
<path d="M230.661 214.821C230.39 214.821 230.119 214.64 230.119 214.369C230.119 214.098 230.3 213.826 230.571 213.826C242.421 210.57 254.272 198.448 254.362 198.357C254.543 198.176 254.905 198.176 255.086 198.357C255.267 198.538 255.267 198.9 255.086 199.081C254.996 199.172 242.874 211.565 230.842 214.821H230.661Z" fill="#0F3261"/>
<path d="M230.752 209.213C229.305 210.932 227.677 212.379 225.867 213.646C225.144 214.098 224.963 215.184 225.415 215.907C225.596 216.179 225.777 216.36 226.048 216.45L232.471 219.254C233.376 219.616 234.371 219.254 234.823 218.35C234.913 218.078 235.004 217.807 235.004 217.536C234.914 214.912 234.552 212.289 233.918 209.756C233.647 208.851 232.652 208.308 231.657 208.58C231.295 208.67 230.933 208.942 230.752 209.213Z" fill="white"/>
<path d="M233.195 219.979C232.833 219.979 232.562 219.888 232.29 219.798L225.868 216.994C224.782 216.541 224.33 215.275 224.782 214.189C224.963 213.828 225.234 213.466 225.596 213.285C227.405 212.109 229.034 210.661 230.391 208.943C230.933 208.219 231.838 207.948 232.652 208.128C233.466 208.309 234.19 208.943 234.371 209.757C235.095 212.38 235.456 215.004 235.547 217.717C235.547 218.532 235.185 219.255 234.552 219.708C234.1 219.798 233.647 219.888 233.195 219.979ZM231.205 209.576C229.757 211.295 228.039 212.832 226.139 214.099C225.777 214.28 225.596 214.732 225.687 215.094C225.687 215.456 225.958 215.818 226.32 215.999L232.743 218.803C233.104 218.984 233.557 218.893 233.919 218.712C234.28 218.441 234.461 218.079 234.461 217.627C234.371 215.004 234.009 212.471 233.376 209.938C233.285 209.485 232.924 209.124 232.471 209.033C231.928 208.943 231.476 209.124 231.205 209.576Z" fill="#0F3261"/>
</svg>
