<svg width="443" height="307" viewBox="0 0 443 307" fill="none" xmlns="http://www.w3.org/2000/svg">
<path d="M39.356 222.164C31.4481 222.372 26.4537 226.014 19.4823 241.518C12.5109 257.021 0.336914 287.3 0.336914 287.3C0.336914 287.3 84.6181 307.382 85.1384 306.446C85.6586 305.509 91.2774 241.934 91.2774 241.934C91.9017 237.46 89.4044 233.09 85.1384 231.529C77.6467 228.511 57.3568 221.332 39.356 222.164Z" fill="#0F3261"/>
<path d="M39.356 222.164C48.7205 222.476 58.0851 223.725 67.2416 225.702H67.4497C73.4846 226.95 79.4155 228.927 85.0343 231.425L92.3178 194.799C92.3178 194.799 101.682 183.769 105.012 175.549H81.4966C79.8317 175.549 78.1669 175.029 76.9183 173.885L81.6006 161.815L80.6642 145.271C86.1788 139.444 74.317 134.657 74.317 134.657V98.5518C64.6403 106.876 48.2003 141.109 48.2003 152.45C48.2003 164.624 52.6745 175.966 50.2813 188.66C47.8881 201.354 39.356 222.164 39.356 222.164Z" fill="white"/>
<path d="M85.0339 231.944C84.9299 231.944 84.9299 231.944 84.8258 231.944C79.2071 229.447 73.3802 227.47 67.3453 226.221H67.1372C57.9807 224.244 48.6161 223.1 39.2516 222.683C39.0435 222.683 38.9394 222.579 38.8354 222.475C38.7313 222.371 38.7313 222.163 38.8354 221.955C38.9394 221.747 47.3675 201.041 49.7607 188.451C51.2174 180.751 50.1769 173.467 49.1364 166.496C48.304 161.814 47.8878 157.131 47.7837 152.345C47.7837 140.795 64.4319 106.355 74.0045 98.1346C74.2126 97.9265 74.5248 97.9265 74.7329 98.1346C74.8369 98.2386 74.8369 98.3427 74.8369 98.4467V134.24C76.2937 134.865 81.7043 137.466 82.5367 141.108C82.8489 142.668 82.3286 144.229 81.1841 145.374L82.1205 161.71C82.1205 161.814 82.1205 161.814 82.1205 161.918L77.6463 173.675C78.7909 174.508 80.1435 174.924 81.6003 174.924H105.116C105.428 174.924 105.636 175.132 105.636 175.444C105.636 175.548 105.636 175.548 105.636 175.652C102.41 183.56 93.9823 193.757 93.0458 195.006L85.7623 231.528C85.7623 231.736 85.6582 231.84 85.4501 231.944C85.3461 231.944 85.138 232.048 85.0339 231.944ZM40.084 221.643C49.2404 222.059 58.3969 223.204 67.3453 225.181H67.5534C73.4843 226.429 79.2071 228.302 84.7218 230.695L91.9013 194.694C91.9013 194.59 92.0053 194.486 92.0053 194.486C92.1094 194.382 100.746 184.081 104.283 176.069H81.6003C79.8314 176.069 78.0625 175.444 76.7099 174.3C76.5018 174.196 76.5018 173.884 76.5018 173.675L81.08 161.71L80.1435 145.27C80.1435 145.166 80.1435 144.957 80.2476 144.853C81.2881 144.021 81.7043 142.668 81.4962 141.316C80.6638 137.778 74.2126 135.073 74.1086 134.969C73.9005 134.865 73.7964 134.656 73.7964 134.448V99.5913C64.2238 108.956 48.7202 141.212 48.7202 152.241C48.8242 156.923 49.2404 161.606 50.0729 166.184C51.1134 173.363 52.2579 180.751 50.6972 188.555C48.6161 200 41.5407 217.897 40.084 221.643Z" fill="#0F3261"/>
<path d="M83.0586 45.2783H164.01C168.797 45.2783 172.646 49.1282 172.646 53.9145V215.089C172.646 219.876 168.797 223.725 164.01 223.725H83.0586C78.2723 223.725 74.4224 219.876 74.4224 215.089V53.9145C74.3184 49.1282 78.2723 45.2783 83.0586 45.2783Z" fill="white"/>
<path d="M164.01 224.245H83.0583C77.9598 224.245 73.9019 220.188 73.9019 215.089V53.9143C73.9019 48.8158 78.0639 44.7578 83.0583 44.7578H164.01C169.108 44.7578 173.166 48.8158 173.166 53.9143V215.089C173.166 220.083 169.108 224.245 164.01 224.245ZM83.0583 45.7983C78.5841 45.7983 74.9424 49.4401 74.9424 53.9143V215.089C74.9424 219.563 78.5841 223.205 83.0583 223.205H164.01C168.484 223.205 172.126 219.563 172.126 215.089V53.9143C172.126 49.4401 168.484 45.7983 164.01 45.7983H83.0583Z" fill="#0F3261"/>
<path d="M166.82 60.5737V208.326C166.82 213.112 162.97 216.962 158.184 216.962H88.7817C83.9954 216.962 80.1455 213.112 80.1455 208.326V60.5737C80.1455 55.7874 83.9954 51.9375 88.7817 51.9375H101.372C103.453 51.9375 105.534 52.874 106.887 54.5388C108.135 55.9955 109.696 57.2441 111.465 58.0765C113.234 58.9089 115.107 59.3251 117.084 59.3251H129.986C131.963 59.3251 133.836 58.9089 135.605 58.0765C137.373 57.2441 138.934 55.9955 140.183 54.5388C141.535 52.874 143.512 51.9375 145.698 51.9375H158.288C162.97 51.9375 166.82 55.7874 166.82 60.5737Z" fill="white"/>
<path d="M158.183 217.586H88.781C83.6825 217.586 79.6245 213.424 79.6245 208.43V60.6775C79.6245 55.579 83.7865 51.521 88.781 51.521H101.371C103.66 51.521 105.845 52.5616 107.198 54.3304C109.591 57.2438 113.129 59.0127 116.979 58.9086H129.881C131.754 58.9086 133.627 58.4924 135.292 57.66C136.957 56.8276 138.517 55.6831 139.662 54.2264C141.119 52.4575 143.304 51.417 145.489 51.417H158.079C163.177 51.417 167.235 55.579 167.235 60.5735V208.326C167.339 213.424 163.281 217.586 158.183 217.586ZM88.781 52.4575C84.3068 52.4575 80.665 56.0993 80.665 60.5735V208.326C80.665 212.8 84.3068 216.442 88.781 216.442H158.183C162.657 216.442 166.299 212.8 166.299 208.326V60.5735C166.299 56.0993 162.657 52.4575 158.183 52.4575H145.593C143.616 52.4575 141.743 53.2899 140.494 54.8507C139.246 56.4114 137.581 57.66 135.812 58.4925C133.939 59.3249 131.962 59.8451 129.985 59.8451H117.083C115.106 59.8451 113.025 59.4289 111.256 58.4925C109.383 57.66 107.822 56.4114 106.574 54.7466C105.325 53.1859 103.452 52.3534 101.475 52.3534H88.781V52.4575Z" fill="#0F3261"/>
<path d="M125.926 141.838C140.235 141.838 151.835 130.238 151.835 115.929C151.835 101.62 140.235 90.0205 125.926 90.0205C111.617 90.0205 100.018 101.62 100.018 115.929C100.018 130.238 111.617 141.838 125.926 141.838Z" fill="#0F3261"/>
<path d="M125.926 142.461C111.254 142.461 99.4966 130.599 99.4966 115.928C99.4966 101.257 111.358 89.499 126.03 89.499C140.285 89.499 152.042 100.841 152.458 115.096C152.875 129.663 141.429 141.941 126.862 142.357L125.926 142.461ZM125.926 90.5395H125.093C111.046 90.9557 100.017 102.713 100.433 116.76C100.849 130.807 112.607 141.837 126.654 141.42C140.701 141.004 151.73 129.246 151.314 115.2C150.898 101.465 139.66 90.5395 125.926 90.5395Z" fill="#0F3261"/>
<path d="M122.388 141.942C136.697 141.942 148.296 130.343 148.296 116.034C148.296 101.725 136.697 90.125 122.388 90.125C108.079 90.125 96.479 101.725 96.479 116.034C96.479 130.343 108.079 141.942 122.388 141.942Z" fill="white"/>
<path d="M122.387 142.565C107.716 142.565 95.9585 130.704 95.9585 116.032C95.9585 101.361 107.82 89.6035 122.491 89.6035C136.746 89.6035 148.504 100.945 148.92 115.2C149.337 129.871 137.891 142.045 123.324 142.565H122.387ZM122.387 90.644H121.555C107.508 91.0602 96.4787 102.818 96.8949 116.865C97.3112 130.912 109.069 141.941 123.116 141.525C137.163 141.109 148.192 129.351 147.776 115.304C147.36 101.569 136.226 90.7481 122.387 90.644Z" fill="#0F3261"/>
<path d="M122.388 137.467C134.226 137.467 143.822 127.87 143.822 116.032C143.822 104.194 134.226 94.5977 122.388 94.5977C110.55 94.5977 100.953 104.194 100.953 116.032C100.953 127.87 110.55 137.467 122.388 137.467Z" fill="white"/>
<path d="M122.388 137.988C110.214 137.988 100.433 128.207 100.433 116.033C100.433 103.859 110.214 94.0781 122.388 94.0781C134.25 94.0781 144.03 103.547 144.343 115.409C144.759 127.478 135.186 137.675 123.116 137.988H122.388ZM122.388 95.1186H121.659C110.11 95.5348 101.057 105.108 101.37 116.657C101.786 128.207 111.358 137.259 122.908 136.947C128.423 136.739 133.729 134.346 137.475 130.392C141.325 126.334 143.302 121.027 143.094 115.513C142.886 104.171 133.729 95.2227 122.388 95.1186Z" fill="#0F3261"/>
<path d="M128.736 117.281C127.488 116.24 125.927 115.408 124.366 114.992C124.054 114.888 123.846 114.784 123.534 114.68L123.326 108.437C124.366 108.749 125.407 109.269 126.343 109.997C127.28 110.83 128.632 110.726 129.465 109.893C130.297 108.957 130.297 107.604 129.361 106.772C127.592 105.315 125.511 104.379 123.222 103.962L123.118 101.257C123.014 100.633 122.493 100.217 121.869 100.321C121.349 100.425 120.933 100.841 120.933 101.361L121.037 103.962C120.412 104.066 119.788 104.17 119.268 104.379C115.834 105.731 113.545 109.581 115.002 113.119C116.146 115.928 118.852 117.385 121.557 118.53L121.765 124.773C120.204 124.46 118.748 123.732 117.603 122.587C115.418 120.715 112.4 123.94 114.586 125.813C116.563 127.686 119.164 128.831 121.869 129.143V130.808C121.973 131.432 122.493 131.848 123.118 131.744C123.638 131.64 124.054 131.224 124.054 130.703L123.95 129.039L124.366 128.935C127.904 128.31 130.505 125.293 130.609 121.755C130.713 120.09 129.985 118.425 128.736 117.281ZM120.412 113.119C119.892 112.703 119.372 112.286 119.06 111.662C118.852 111.246 118.852 110.726 118.956 110.309C119.268 109.373 120.1 108.645 121.141 108.541L121.349 113.743C121.037 113.431 120.725 113.223 120.412 113.119ZM125.615 123.732C125.199 124.252 124.574 124.669 123.846 124.877L123.638 119.466C124.158 119.674 124.574 119.882 125.095 120.09C125.303 120.194 125.511 120.298 125.719 120.506C125.823 120.715 126.031 120.819 126.135 121.027C126.447 121.859 126.239 122.9 125.615 123.732Z" fill="#0F3261"/>
<path d="M70.2593 181.481L76.9186 173.989C92.7343 152.347 100.226 125.189 95.4396 122.692C91.3817 120.507 82.4333 126.542 74.3173 134.762C74.3173 134.762 71.612 137.259 67.9702 140.901" fill="white"/>
<path d="M70.2593 182.001C70.1552 182.001 70.0512 182.001 69.9471 181.897C69.739 181.689 69.739 181.377 69.9471 181.168L76.6064 173.677C90.6533 154.427 97.7287 131.536 96.168 124.773C96.0639 124.149 95.7518 123.524 95.2315 123.108C91.7978 121.235 83.5778 126.126 74.7335 135.074C74.7335 135.178 72.0282 137.571 68.3864 141.213C68.1783 141.421 67.8661 141.421 67.658 141.213C67.4499 141.005 67.4499 140.693 67.658 140.485C71.2998 136.843 73.9011 134.346 74.0051 134.346C81.3927 126.854 90.9654 119.674 95.7518 122.172C96.5842 122.692 97.1044 123.524 97.2085 124.461C98.0409 128.207 96.5842 135.906 93.1505 144.959C89.1966 155.364 83.89 165.249 77.4388 174.197L70.7796 181.793C70.5715 181.897 70.4674 182.001 70.2593 182.001Z" fill="#0F3261"/>
<path d="M150.274 195.319H96.7917C93.5661 195.319 90.9648 192.718 90.9648 189.492V178.775C90.9648 175.55 93.5661 172.948 96.7917 172.948H150.274C153.499 172.948 156.101 175.55 156.101 178.775V189.492C156.101 192.718 153.499 195.319 150.274 195.319ZM96.6876 173.989C94.0864 173.989 91.9013 176.174 91.9013 178.775V189.492C91.9013 192.094 94.0864 194.279 96.6876 194.279H150.17C152.771 194.279 154.956 192.094 154.956 189.492V178.775C154.956 176.174 152.771 173.989 150.17 173.989H96.6876Z" fill="#0F3261"/>
<path d="M261.09 67.0244C270.558 45.3819 284.293 24.9879 290.224 18.4327C296.155 11.8775 300.629 0.952148 300.629 0.952148L338.92 5.63444C330.18 11.3572 323.624 19.8894 320.399 29.8783C314.78 46.8386 308.329 69.6257 302.294 75.9728C296.259 82.3199 261.09 67.0244 261.09 67.0244Z" fill="white"/>
<path d="M296.987 77.844C285.229 77.844 262.13 67.9592 260.881 67.439C260.777 67.3349 260.673 67.2309 260.569 67.1268C260.465 67.0228 260.465 66.8147 260.569 66.7106C269.622 46.1085 283.356 25.1943 289.808 18.0148C295.53 11.6677 300.109 0.742378 300.213 0.638328C300.317 0.430226 300.525 0.326172 300.733 0.326172L339.024 5.00846C339.232 5.00846 339.44 5.21656 339.44 5.42466C339.44 5.63277 339.336 5.84087 339.232 5.94492C330.595 11.5637 324.144 20.0958 321.023 29.8766C320.086 32.79 319.046 35.9116 318.005 39.0331C313.011 54.6407 307.808 70.8726 302.71 76.1792C301.565 77.4278 299.588 77.844 296.987 77.844ZM261.818 66.7106C271.911 70.9767 297.299 80.4453 301.981 75.5549C306.976 70.3524 312.283 53.6002 317.069 38.825C318.109 35.7035 319.046 32.5819 320.086 29.6685C323.208 20.0958 329.347 11.7718 337.567 5.94492L301.149 1.47074C300.317 3.4477 296.051 12.9163 290.744 18.7432C285.437 24.57 271.495 44.6518 261.818 66.7106Z" fill="#0F3261"/>
<path d="M298.236 71.0813C294.594 71.9137 282.212 68.584 269.622 63.6937C278.779 44.4443 290.328 27.7961 295.01 22.6976C299.068 18.2234 302.502 11.9804 304.583 7.81836L324.457 10.2115C320.087 15.4141 316.757 21.449 314.572 27.9002C313.636 30.8136 312.595 33.9351 311.555 37.1607C307.601 49.4387 302.19 66.1909 298.236 71.0813Z" fill="white"/>
<path d="M296.883 71.7049C292.097 71.7049 281.067 68.6874 269.31 64.1092C269.206 64.1092 269.102 63.9011 268.997 63.797C268.893 63.693 268.893 63.4849 268.997 63.3808C277.842 44.6517 289.391 27.7954 294.386 22.2807C298.34 17.9106 301.773 11.7716 303.855 7.50551C303.959 7.29741 304.167 7.19336 304.375 7.19336L324.248 9.58652C324.561 9.58652 324.769 9.89867 324.665 10.2108C324.665 10.3149 324.665 10.4189 324.561 10.4189C320.191 15.6215 316.965 21.5524 314.78 27.8995C313.843 30.7088 312.907 33.7263 311.866 36.8478L311.762 37.16C307.808 49.542 302.398 66.3983 298.34 71.3927C298.236 71.4968 298.132 71.4968 298.028 71.6008C297.82 71.6008 297.403 71.7049 296.883 71.7049ZM270.246 63.3808C282.524 68.1671 294.282 71.1846 297.924 70.5603C301.878 65.5659 307.184 49.0218 311.034 36.8478L311.138 36.5357C312.075 33.5182 313.115 30.5007 314.052 27.5873C316.133 21.3443 319.254 15.6215 323.416 10.523L304.791 8.23387C302.294 13.5405 299.068 18.4308 295.322 22.905C290.432 28.4197 279.09 44.9638 270.246 63.3808Z" fill="#0F3261"/>
<path d="M305.471 45.6592C312.206 39.0678 314.05 30.0288 309.589 25.4699C305.127 20.9111 296.051 22.5588 289.315 29.1502C282.579 35.7416 280.736 44.7806 285.197 49.3395C289.658 53.8983 298.735 52.2506 305.471 45.6592Z" fill="white"/>
<path d="M291.993 52.3516C289.391 52.4557 286.79 51.5192 284.917 49.6463C282.628 47.3572 281.796 43.8195 282.628 39.8655C283.564 35.5994 285.854 31.7496 288.975 28.7321C295.842 21.9688 305.311 20.304 309.993 25.0903C314.676 29.8766 312.803 39.2412 305.831 46.0045C301.565 50.1666 296.467 52.3516 291.993 52.3516ZM302.918 23.4255C298.756 23.4255 293.865 25.6106 289.807 29.5645C286.79 32.3739 284.605 36.1197 283.668 40.1777C282.94 43.8195 283.668 46.941 285.645 49.022C289.912 53.3921 298.652 51.7273 305.207 45.2762C311.762 38.825 313.531 30.1888 309.369 25.8187C307.6 24.1538 305.207 23.3214 302.918 23.4255Z" fill="#0F3261"/>
<path d="M325.078 88.9781C336.419 65.8788 362.12 26.4435 362.12 26.4435L316.546 16.3506L284.394 82.4229L325.078 88.9781Z" fill="white"/>
<path d="M325.079 89.4971L284.395 82.9419C284.187 82.9419 284.082 82.8378 283.978 82.6297C283.874 82.5257 283.874 82.3176 283.978 82.2135L316.13 16.1413C316.234 15.9332 316.442 15.8291 316.754 15.8291L362.329 25.922C362.537 25.922 362.641 26.0261 362.745 26.2342C362.849 26.3382 362.849 26.5463 362.745 26.7544C362.537 27.1707 336.94 66.3978 325.703 89.289C325.495 89.4971 325.287 89.6011 325.079 89.4971ZM285.227 82.0054L324.766 88.4566C335.275 67.1262 357.959 31.957 361.288 26.8585L316.858 16.9737L285.227 82.0054Z" fill="#0F3261"/>
<path d="M293.759 77.5307L320.084 23.5283L352.027 30.6038C344.536 42.2575 330.385 65.0446 321.54 82.0049L293.759 77.5307Z" fill="white"/>
<path d="M321.54 82.6294L293.655 78.1552C293.447 78.1552 293.343 78.0511 293.239 77.843C293.135 77.739 293.135 77.5309 293.239 77.4268L319.564 23.4244C319.668 23.2163 319.876 23.1123 320.188 23.1123L352.131 30.1877C352.34 30.1877 352.444 30.2918 352.548 30.4999C352.652 30.604 352.652 30.8121 352.548 31.0202C344.952 42.986 330.905 65.565 322.165 82.4213C321.957 82.5253 321.749 82.6294 321.54 82.6294ZM294.591 77.1147L321.228 81.4848C329.865 64.9407 343.495 42.986 351.091 31.0202L320.292 24.1528L294.591 77.1147Z" fill="#0F3261"/>
<path d="M324.012 63.9338C331.833 61.815 336.832 55.1513 335.179 49.0501C333.526 42.9488 325.847 39.7204 318.026 41.8393C310.205 43.9581 305.205 50.6218 306.858 56.7231C308.511 62.8243 316.191 66.0527 324.012 63.9338Z" fill="white"/>
<path d="M319.252 65.0452C313.113 65.0452 307.807 61.9237 306.35 56.8252C304.581 50.4781 309.783 43.5067 317.899 41.3216C326.015 39.1365 334.027 42.4662 335.692 48.9173C336.525 52.2469 335.692 55.6806 333.611 58.2819C331.218 61.2994 327.888 63.4844 324.142 64.4209C322.582 64.8371 320.917 65.0452 319.252 65.0452ZM322.894 41.6337C321.333 41.6337 319.772 41.8419 318.212 42.2581C310.616 44.3391 305.83 50.6862 307.39 56.513C308.951 62.3399 316.339 65.3573 323.934 63.3804C327.472 62.4439 330.594 60.4669 332.779 57.5535C334.756 55.1604 335.484 52.0388 334.756 49.1254C333.507 44.5472 328.617 41.6337 322.894 41.6337Z" fill="#0F3261"/>
<path d="M210.625 34.3522L243.401 49.0234C253.181 36.0171 269.101 34.6644 283.148 27.4849C297.195 20.3054 301.565 8.23549 301.565 8.23549L272.639 2.5127C267.228 8.02739 260.465 11.9813 252.973 13.8542C240.799 16.8717 225.4 24.4674 210.625 34.3522Z" fill="white"/>
<path d="M243.297 49.543C243.193 49.543 243.193 49.543 243.089 49.543L210.313 34.8718C210.105 34.7678 210 34.6637 210 34.4556C210 34.2475 210.105 34.0394 210.209 33.9354C225.816 23.5303 240.904 16.2467 252.661 13.3333C260.049 11.3563 266.708 7.50645 272.015 2.0958C272.119 1.99175 272.327 1.8877 272.535 1.8877L301.461 7.61049C301.565 7.61049 301.773 7.71455 301.773 7.8186C301.877 7.92265 301.877 8.13075 301.773 8.2348C298.027 16.767 291.472 23.7384 283.148 27.7964C278.674 29.9814 274.096 31.8543 269.414 33.4151C259.529 36.9528 250.164 40.3865 243.609 49.1268C243.609 49.4389 243.505 49.543 243.297 49.543ZM211.665 34.3516L243.193 48.3984C249.956 39.6581 259.321 36.2245 269.205 32.6868C273.888 31.126 278.466 29.2531 282.836 27.068C290.744 23.1141 296.987 16.6629 300.733 8.651L272.639 3.13631C267.228 8.54695 260.361 12.5009 252.973 14.4779C241.528 17.1832 226.857 24.2586 211.665 34.3516Z" fill="#0F3261"/>
<path d="M221.654 33.6228C233.724 26.4433 245.169 21.1367 254.118 18.9516C261.609 16.9746 268.477 13.3329 274.199 8.23438L293.345 11.9802C290.015 16.5584 285.645 20.3043 280.651 22.9055C276.385 24.9865 272.014 26.7554 267.54 28.3162C258.488 31.5418 249.123 34.9754 241.84 42.7792L221.654 33.6228Z" fill="white"/>
<path d="M241.84 43.0931C241.736 43.0931 241.736 43.0931 241.632 43.0931L221.446 34.0407C221.238 33.9366 221.134 33.8326 221.134 33.6245C221.134 33.4164 221.238 33.2083 221.342 33.1042C233.412 25.8207 245.066 20.6181 254.014 18.4331C261.402 16.5601 268.165 12.8143 273.888 7.81987C273.992 7.71582 274.2 7.71582 274.304 7.71582L293.45 11.4616C293.658 11.4616 293.762 11.6697 293.866 11.7738C293.97 11.9819 293.866 12.0859 293.866 12.2941C290.536 16.9763 286.062 20.7222 280.963 23.3234C276.697 25.4045 272.327 27.1733 267.853 28.7341C258.905 31.9597 249.54 35.3933 242.361 42.989C242.049 43.0931 241.944 43.0931 241.84 43.0931ZM222.799 33.5204L241.736 41.9485C249.124 34.2488 258.384 30.9192 267.437 27.6936C271.911 26.1328 276.281 24.364 280.443 22.387C285.23 19.9938 289.288 16.5601 292.513 12.2941L274.408 8.75633C268.686 13.8548 261.818 17.4966 254.327 19.4736C245.69 21.5546 234.453 26.549 222.799 33.5204Z" fill="#0F3261"/>
<path d="M257.551 30.3979C265.597 30.3979 272.119 27.2767 272.119 23.4265C272.119 19.5763 265.597 16.4551 257.551 16.4551C249.506 16.4551 242.984 19.5763 242.984 23.4265C242.984 27.2767 249.506 30.3979 257.551 30.3979Z" fill="white"/>
<path d="M257.551 30.9179C249.123 30.9179 242.464 27.5883 242.464 23.4262C242.464 19.2642 249.123 15.9346 257.551 15.9346C265.979 15.9346 272.639 19.2642 272.639 23.4262C272.639 27.5883 265.979 30.9179 257.551 30.9179ZM257.551 16.9751C249.956 16.9751 243.504 19.8885 243.504 23.4262C243.504 26.964 249.956 29.8774 257.551 29.8774C265.147 29.8774 271.598 26.8599 271.598 23.4262C271.598 19.9925 265.147 16.9751 257.551 16.9751Z" fill="#0F3261"/>
<path d="M360.042 175.86H231.643C224.776 175.86 219.157 170.241 219.157 163.374V68.5838C219.157 61.7164 224.776 56.0977 231.643 56.0977H355.672C362.539 56.0977 368.158 61.7164 368.158 68.5838V167.536C368.262 172.218 364.516 175.86 360.042 175.86Z" fill="white"/>
<path d="M360.042 176.38H231.644C224.464 176.38 218.637 170.553 218.637 163.374V68.5835C218.637 61.404 224.464 55.5771 231.644 55.5771H355.672C362.852 55.5771 368.679 61.404 368.679 68.5835V167.64C368.783 172.426 364.829 176.38 360.042 176.38ZM231.644 56.6177C224.984 56.6177 219.678 62.0283 219.678 68.5835V163.374C219.678 170.033 225.088 175.34 231.644 175.34H359.938C364.204 175.34 367.638 171.906 367.638 167.64V68.5835C367.638 61.9242 362.227 56.6177 355.672 56.6177H231.644Z" fill="#0F3261"/>
<path d="M352.447 168.575H235.078C231.332 168.575 228.314 165.558 228.314 161.812V70.1432C228.314 66.3974 231.332 63.3799 235.078 63.3799H352.447C356.193 63.3799 359.21 66.3974 359.21 70.1432V161.812C359.21 165.558 356.193 168.575 352.447 168.575Z" fill="white"/>
<path d="M352.448 169.096H235.078C231.02 169.096 227.795 165.871 227.795 161.813V70.1439C227.795 66.0859 231.02 62.8604 235.078 62.8604H352.448C356.506 62.8604 359.731 66.0859 359.731 70.1439V161.709C359.731 165.767 356.506 169.096 352.448 169.096ZM235.078 63.9009C231.645 63.9009 228.835 66.7102 228.835 70.1439V161.813C228.835 165.246 231.645 168.056 235.078 168.056H352.448C355.881 168.056 358.691 165.246 358.691 161.813V70.248C358.691 66.8143 355.881 64.0049 352.448 64.0049L235.078 63.9009Z" fill="#0F3261"/>
<path d="M266.606 132.471H217.286C215.413 132.471 213.852 130.91 213.852 129.037V102.816C213.852 100.944 215.413 99.3828 217.286 99.3828H266.606C268.479 99.3828 270.039 100.944 270.039 102.816V129.037C270.039 130.91 268.479 132.471 266.606 132.471Z" fill="white"/>
<path d="M266.605 132.99H217.285C215.1 132.99 213.331 131.221 213.331 129.036V102.815C213.331 100.63 215.1 98.8613 217.285 98.8613H266.605C268.79 98.8613 270.559 100.63 270.559 102.815V129.036C270.455 131.221 268.79 132.99 266.605 132.99ZM217.285 99.9018C215.724 99.9018 214.372 101.15 214.372 102.815V129.036C214.372 130.597 215.62 131.95 217.285 131.95H266.605C268.166 131.95 269.518 130.597 269.518 129.036V102.815C269.518 101.255 268.27 99.9018 266.605 99.9018H217.285Z" fill="#0F3261"/>
<path d="M291.057 144.438V138.403C289.392 138.195 287.832 137.778 286.271 137.154C284.918 136.53 283.566 135.697 282.525 134.553C280.34 132.472 279.091 129.558 279.195 126.437V123.523H287.311V126.125C287.311 127.165 287.624 128.31 288.144 129.142C288.768 130.183 289.913 130.807 291.057 131.015V114.575L288.352 113.535C284.814 112.286 282.525 110.517 281.381 108.436C280.132 105.939 279.508 103.233 279.612 100.528C279.508 97.1985 280.548 93.973 282.421 91.2676C284.294 88.6664 287.207 87.1056 291.057 86.6894V81.3828H295.115V86.6894C296.78 86.8975 298.445 87.3137 300.006 88.0421C301.462 88.6664 302.711 89.6028 303.751 90.7474C304.792 91.7879 305.52 92.9324 306.145 94.2851C306.665 95.5337 306.977 96.8864 306.977 98.239V101.777H298.861V100.112C298.861 98.7593 298.653 97.4066 298.029 96.158C297.404 95.0135 296.364 94.1811 295.115 93.973V108.332L298.445 109.581C300.006 110.101 301.462 110.829 302.815 111.766C303.856 112.494 304.792 113.535 305.416 114.679C306.041 115.928 306.457 117.176 306.561 118.529C306.769 120.194 306.873 121.859 306.873 123.523C306.873 125.396 306.665 127.373 306.249 129.142C305.937 130.807 305.208 132.264 304.272 133.72C303.335 135.073 302.087 136.114 300.63 136.946C298.861 137.778 296.988 138.299 295.011 138.403V144.438H291.057ZM291.057 94.077C289.809 94.3892 288.768 95.3256 288.352 96.5742C287.936 97.9269 287.624 99.2796 287.728 100.632C287.624 101.985 287.832 103.233 288.248 104.482C288.872 105.627 289.913 106.459 291.057 106.771V94.077ZM295.115 131.223C296.572 131.015 297.717 130.079 298.237 128.726C298.653 127.061 298.861 125.396 298.861 123.627C298.861 122.483 298.861 121.442 298.757 120.61C298.757 119.882 298.549 119.257 298.237 118.633C297.508 117.488 296.364 116.656 295.115 116.344V131.223Z" fill="#0F3261"/>
<path d="M232.267 126.955C238.129 126.955 242.881 122.203 242.881 116.342C242.881 110.48 238.129 105.729 232.267 105.729C226.406 105.729 221.654 110.48 221.654 116.342C221.654 122.203 226.406 126.955 232.267 126.955Z" fill="white"/>
<path d="M232.268 127.581C226.129 127.581 221.03 122.586 221.03 116.447C221.03 110.308 226.025 105.21 232.164 105.21C238.303 105.21 243.401 110.204 243.401 116.343C243.401 122.586 238.407 127.581 232.268 127.581ZM232.268 106.25C226.649 106.25 222.071 110.829 222.071 116.343C222.071 121.962 226.649 126.54 232.164 126.54C237.782 126.54 242.361 121.962 242.361 116.447C242.361 110.829 237.887 106.25 232.268 106.25Z" fill="#0F3261"/>
<path d="M232.268 121.337C235.027 121.337 237.263 119.1 237.263 116.342C237.263 113.584 235.027 111.348 232.268 111.348C229.51 111.348 227.274 113.584 227.274 116.342C227.274 119.1 229.51 121.337 232.268 121.337Z" fill="#0F3261"/>
<path d="M232.268 121.961C229.251 121.961 226.753 119.464 226.753 116.446C226.753 113.429 229.251 110.932 232.268 110.932C235.286 110.932 237.783 113.429 237.783 116.446C237.783 119.464 235.286 121.857 232.268 121.961ZM232.268 111.868C229.771 111.868 227.794 113.845 227.794 116.342C227.794 118.84 229.771 120.816 232.268 120.816C234.765 120.816 236.742 118.84 236.742 116.342C236.742 113.845 234.765 111.868 232.268 111.868Z" fill="#0F3261"/>
<path d="M403.222 222.266C411.13 222.474 416.125 226.116 423.096 241.619C430.068 257.123 442.242 287.402 442.242 287.402C442.242 287.402 357.96 307.484 357.44 306.443C356.92 305.403 351.301 241.932 351.301 241.932C350.677 237.457 353.174 233.087 357.44 231.526C364.828 228.613 385.222 221.434 403.222 222.266Z" fill="#0F3261"/>
<path d="M403.221 222.267C393.856 222.579 384.492 223.827 375.231 225.804H375.023C368.988 227.053 363.057 229.03 357.439 231.527L350.155 194.901C350.155 194.901 340.895 183.872 337.565 175.652H361.08C362.745 175.652 364.41 175.132 365.659 173.987L360.976 161.917L361.913 145.373C356.398 139.546 368.26 134.76 368.26 134.76V98.6543C377.937 106.978 394.377 141.211 394.377 152.449C394.377 164.623 389.902 175.964 392.296 188.658C394.689 201.352 403.221 222.267 403.221 222.267Z" fill="white"/>
<path d="M357.44 232.151C357.336 232.151 357.232 232.151 357.232 232.151C357.128 232.047 357.023 231.943 356.919 231.735L349.636 195.213C348.595 194.068 340.271 183.767 337.046 175.859C336.942 175.651 337.046 175.547 337.046 175.339C337.15 175.235 337.254 175.131 337.462 175.131H360.977C362.434 175.131 363.787 174.715 364.931 173.882L360.353 162.125C360.353 162.021 360.353 162.021 360.353 161.917L361.29 145.581C360.145 144.436 359.625 142.875 359.937 141.315C360.769 137.673 366.18 135.072 367.637 134.447V98.5497C367.637 98.3416 367.741 98.1335 367.949 98.0294C368.157 97.9254 368.365 98.0294 368.469 98.1335C378.042 106.353 394.69 140.898 394.69 152.344C394.586 157.13 394.066 161.813 393.337 166.495C392.297 173.57 391.256 180.854 392.713 188.45C395.106 201.04 403.638 221.746 403.638 221.954C403.742 222.162 403.638 222.474 403.43 222.578C403.326 222.578 403.326 222.578 403.222 222.578C393.857 222.994 384.597 224.139 375.336 226.116C369.302 227.365 363.371 229.342 357.648 231.839C357.544 232.047 357.544 232.151 357.44 232.151ZM338.294 176.172C341.832 184.184 350.468 194.485 350.572 194.589C350.676 194.693 350.676 194.693 350.676 194.797L357.856 230.798C363.371 228.405 369.093 226.532 375.024 225.388L375.232 225.284C384.181 223.307 393.337 222.162 402.494 221.746C401.037 218 393.962 200.103 391.776 188.762C390.32 180.958 391.36 173.57 392.401 166.391C393.233 161.813 393.649 157.13 393.753 152.448C393.753 141.419 378.25 109.163 368.677 99.7983V134.863C368.677 135.072 368.573 135.28 368.365 135.384C368.261 135.384 361.81 138.089 360.977 141.731C360.769 143.083 361.186 144.332 362.226 145.268C362.33 145.373 362.33 145.477 362.33 145.685L361.394 162.125L366.076 174.091C366.18 174.299 366.076 174.507 365.972 174.715C364.619 175.859 362.85 176.484 361.081 176.484L338.294 176.172Z" fill="#0F3261"/>
<path d="M372.214 181.582L365.555 174.091C349.739 152.448 342.248 125.291 347.034 122.794C351.092 120.609 360.041 126.644 368.156 134.864C368.156 134.864 370.862 137.361 374.504 141.003" fill="white"/>
<path d="M372.216 182.104C372.112 182.104 371.904 182 371.799 181.896L365.14 174.404C358.585 165.352 353.278 155.571 349.325 145.166C345.891 136.114 344.434 128.414 345.267 124.668C345.371 123.732 345.891 122.899 346.723 122.379C351.406 119.882 361.082 126.957 368.47 134.553C368.47 134.553 371.175 137.05 374.817 140.692C375.025 140.9 375.025 141.212 374.817 141.42C374.609 141.628 374.297 141.628 374.089 141.42C370.447 137.778 367.846 135.281 367.846 135.281C359.001 126.229 350.781 121.443 347.348 123.315C346.827 123.732 346.515 124.252 346.411 124.98C344.85 131.639 351.926 154.635 366.077 173.884L372.736 181.376C372.944 181.584 372.944 181.896 372.736 182.104C372.528 182.104 372.424 182.104 372.216 182.104Z" fill="#0F3261"/>
<path d="M183.676 165.768C181.907 165.768 180.138 165.664 178.474 165.456C178.161 165.456 177.953 165.144 178.057 164.936C178.057 164.624 178.369 164.416 178.682 164.416C180.346 164.624 182.115 164.728 183.78 164.728C184.092 164.728 184.3 164.936 184.3 165.248C184.3 165.56 183.988 165.768 183.676 165.768ZM188.879 165.664C188.566 165.664 188.358 165.456 188.358 165.144C188.358 164.832 188.566 164.624 188.879 164.624C189.711 164.624 190.543 164.52 191.376 164.416C192.208 164.311 193.145 164.207 194.081 164.103C194.393 164.103 194.601 164.207 194.705 164.52C194.705 164.832 194.601 165.04 194.289 165.144C193.353 165.248 192.52 165.352 191.584 165.456C190.647 165.56 189.711 165.664 188.879 165.664ZM173.271 164.832C171.502 164.52 169.733 164.103 168.068 163.687C167.756 163.583 167.652 163.271 167.652 163.063C167.756 162.751 168.068 162.647 168.277 162.647C169.941 163.063 171.606 163.479 173.271 163.791C173.583 163.791 173.791 164.103 173.687 164.416C173.791 164.624 173.583 164.832 173.271 164.832ZM199.076 164.103C198.763 164.103 198.555 163.895 198.451 163.687C198.347 163.479 198.659 163.167 198.868 163.063C200.532 162.647 202.093 162.022 203.654 161.398C203.966 161.294 204.174 161.398 204.278 161.71C204.382 162.022 204.278 162.23 204.07 162.439C202.405 163.167 200.74 163.687 199.076 164.207V164.103ZM224.256 162.126C223.944 162.126 223.736 161.918 223.736 161.606C223.736 161.294 223.944 161.086 224.256 161.086C225.505 161.086 226.857 160.982 228.21 160.878L229.354 160.774C229.667 160.774 229.875 160.982 229.979 161.19C229.979 161.502 229.875 161.71 229.562 161.814L228.314 161.918C226.961 162.022 225.609 162.126 224.256 162.126ZM163.282 162.022H163.074C161.409 161.398 159.848 160.774 158.184 160.045C157.976 159.941 157.871 159.629 157.976 159.317C158.08 159.109 158.392 159.005 158.6 159.109C160.161 159.837 161.721 160.462 163.386 161.086C163.698 161.19 163.802 161.502 163.698 161.71C163.698 161.918 163.49 162.126 163.282 162.022ZM219.053 161.918C217.285 161.71 215.516 161.398 213.747 160.982C213.435 160.878 213.331 160.566 213.331 160.358C213.435 160.045 213.747 159.941 213.955 159.941C215.62 160.358 217.285 160.67 218.949 160.878C219.261 160.878 219.47 161.086 219.47 161.398C219.47 161.71 219.366 161.918 219.053 161.918ZM234.557 160.982C234.349 160.982 234.141 160.774 234.037 160.566C234.037 160.253 234.141 160.045 234.453 159.941C236.118 159.629 237.783 159.213 239.551 158.797C239.864 158.693 240.072 158.901 240.176 159.213C240.28 159.525 240.072 159.733 239.759 159.837C238.095 160.253 236.43 160.67 234.557 160.982ZM208.544 159.941C208.336 159.941 208.232 159.837 208.128 159.733C207.92 159.525 208.024 159.213 208.232 159.005C206.775 158.381 205.423 157.652 204.174 156.716C203.966 156.508 203.966 156.195 204.07 155.987C204.278 155.779 204.486 155.779 204.694 155.883C206.151 156.82 207.608 157.652 209.169 158.277C210.209 157.444 211.146 156.612 211.978 155.675C212.186 155.467 212.498 155.467 212.706 155.675C212.914 155.883 212.914 156.196 212.81 156.404C211.666 157.756 210.313 158.901 208.856 159.837C208.752 159.941 208.648 159.941 208.544 159.941ZM244.754 158.381C244.442 158.381 244.234 158.277 244.13 157.964C244.13 157.652 244.234 157.444 244.546 157.34C246.211 156.82 247.771 156.3 249.436 155.675C249.748 155.571 249.956 155.675 250.061 155.987C250.165 156.3 250.061 156.508 249.748 156.612C248.084 157.236 246.419 157.86 244.754 158.381ZM153.814 157.756C153.709 157.756 153.605 157.756 153.605 157.652C152.045 156.82 150.588 155.883 149.131 154.947C148.923 154.843 148.819 154.531 148.923 154.219C149.027 154.01 149.339 153.906 149.651 154.01C151.108 154.947 152.565 155.883 154.022 156.716C154.23 156.82 154.334 157.132 154.23 157.444C154.23 157.652 154.022 157.756 153.814 157.756ZM254.431 154.739C254.223 154.739 254.014 154.635 253.91 154.427C253.806 154.114 253.91 153.906 254.119 153.698C255.679 152.97 257.24 152.242 258.801 151.409C259.009 151.305 259.321 151.409 259.529 151.617C259.633 151.825 259.633 152.138 259.321 152.346C257.76 153.178 256.2 153.906 254.639 154.635C254.535 154.635 254.431 154.739 254.431 154.739ZM200.428 153.594C200.324 153.594 200.22 153.594 200.116 153.49C198.763 152.346 197.619 150.993 196.578 149.64C196.37 149.432 196.37 149.12 196.578 148.912C196.786 148.704 197.099 148.704 197.307 148.912C198.347 150.265 199.492 151.513 200.74 152.658C200.949 152.866 200.949 153.178 200.74 153.386C200.636 153.49 200.532 153.594 200.428 153.594ZM215.203 152.138C215.099 152.138 215.099 152.138 214.995 152.033C214.683 151.929 214.579 151.617 214.787 151.305C215.516 149.744 215.932 148.184 216.14 146.519C216.14 146.207 216.452 145.999 216.764 146.103C217.076 146.103 217.285 146.415 217.18 146.727C216.972 148.496 216.452 150.265 215.724 151.825C215.62 151.929 215.412 152.138 215.203 152.138ZM145.073 152.138C144.969 152.138 144.865 152.138 144.761 152.033C143.408 150.993 142.056 149.848 140.703 148.704C140.495 148.496 140.495 148.184 140.703 147.975C140.911 147.767 141.223 147.767 141.431 147.975C142.68 149.12 144.033 150.265 145.385 151.305C145.593 151.513 145.698 151.825 145.489 152.033C145.489 152.033 145.281 152.033 145.073 152.138ZM263.587 149.952C263.379 149.952 263.275 149.848 263.171 149.744C263.067 149.536 263.067 149.224 263.379 149.016C264.836 148.184 266.292 147.247 267.749 146.311C267.957 146.207 268.269 146.311 268.478 146.519C268.582 146.727 268.582 147.039 268.373 147.143C266.917 148.08 265.46 149.016 263.899 149.952C263.795 149.952 263.691 149.952 263.587 149.952ZM194.081 145.478C193.873 145.478 193.665 145.374 193.665 145.166C192.833 143.605 192.208 141.941 191.792 140.172C191.688 139.86 191.896 139.651 192.208 139.547C192.52 139.443 192.729 139.651 192.833 139.86C193.249 141.524 193.873 143.085 194.601 144.646C194.705 144.854 194.601 145.166 194.393 145.374C194.185 145.374 194.185 145.374 194.081 145.478ZM137.373 145.166C137.269 145.166 137.061 145.062 136.957 145.062C135.709 143.813 134.564 142.461 133.524 141.108C133.315 140.9 133.42 140.588 133.628 140.38C133.836 140.172 134.148 140.276 134.356 140.484C135.396 141.836 136.541 143.189 137.686 144.334C137.894 144.542 137.894 144.854 137.686 145.062C137.582 145.062 137.478 145.166 137.373 145.166ZM272.327 144.126C272.119 144.126 272.015 144.022 271.911 143.918C271.703 143.709 271.807 143.397 272.015 143.189C273.368 142.149 274.721 141.108 276.073 139.964C276.281 139.755 276.593 139.86 276.802 140.068C277.01 140.276 276.906 140.588 276.698 140.796C275.345 141.941 273.992 142.981 272.64 144.022C272.535 144.126 272.431 144.126 272.327 144.126ZM216.452 141.941C216.244 141.941 215.932 141.732 215.932 141.524C215.62 139.86 215.099 138.299 214.371 136.738C214.267 136.53 214.371 136.218 214.579 136.01C214.787 135.802 215.099 136.01 215.308 136.218C216.036 137.779 216.66 139.547 216.972 141.316C217.076 141.628 216.868 141.836 216.452 141.941ZM280.339 137.466C280.235 137.466 280.027 137.362 279.923 137.362C279.715 137.154 279.715 136.842 279.923 136.634C281.38 135.177 282.108 134.345 282.108 134.345C282.212 134.137 282.524 134.137 282.628 134.241C282.837 134.345 282.941 134.553 282.941 134.761C282.941 134.969 282.941 135.073 280.547 137.466C280.547 137.362 280.443 137.466 280.339 137.466ZM191.896 135.385C191.584 135.385 191.376 135.073 191.376 134.865C191.48 132.992 192.104 131.223 193.249 129.767C193.457 129.558 193.769 129.454 193.977 129.663C194.185 129.871 194.289 130.183 194.081 130.391C193.145 131.744 192.52 133.304 192.416 134.969C192.312 135.177 192.104 135.385 191.896 135.385C191.792 135.385 191.792 135.385 191.896 135.385ZM212.082 132.68C211.978 132.68 211.77 132.576 211.666 132.472C210.521 131.223 209.273 130.183 207.712 129.35C207.504 129.246 207.4 128.934 207.504 128.622C207.608 128.414 207.92 128.31 208.232 128.414C209.793 129.246 211.146 130.391 212.394 131.744C212.602 131.952 212.602 132.264 212.394 132.472C212.29 132.68 212.186 132.68 212.082 132.68ZM197.931 127.894C197.723 127.894 197.515 127.686 197.411 127.477C197.307 127.165 197.515 126.957 197.827 126.853C198.659 126.645 199.596 126.541 200.428 126.541C201.365 126.541 202.301 126.541 203.238 126.749C203.55 126.749 203.758 127.061 203.654 127.373C203.654 127.686 203.342 127.894 203.03 127.79C202.301 127.686 201.573 127.582 200.844 127.582H200.428C199.596 127.582 198.868 127.686 198.035 127.894H197.931Z" fill="#0F3261"/>
</svg>
