<svg width="257" height="338" viewBox="0 0 257 338" fill="none" xmlns="http://www.w3.org/2000/svg">
<circle cx="134.5" cy="6.73102" r="5.05719" fill="#FCD91E"/>
<circle cx="136.259" cy="5.85211" r="4.61743" stroke="black" stroke-width="0.879511"/>
<circle cx="48.5269" cy="48.2886" r="7.9156" fill="#FCD91E"/>
<circle cx="46.7681" cy="47.4078" r="7.47584" stroke="black" stroke-width="0.879511"/>
<circle cx="85.4664" cy="116.449" r="7.47584" fill="#FCD91E" stroke="black" stroke-width="0.879511"/>
<path d="M54.0148 93.9521C51.1901 105.251 57.1177 114.816 60.4346 118.187H44.8666C37.548 111.895 36.5744 99.409 37.0023 93.9521H54.0148Z" fill="#119B48"/>
<path d="M51.4464 91.3828C48.6217 102.682 54.5493 112.247 57.8662 115.618H42.2982C34.9797 109.326 34.006 96.8396 34.434 91.3828H51.4464Z" stroke="black" stroke-width="0.879511"/>
<path d="M54.4961 123.963C47.0491 118.186 43.6895 107.218 42.9405 102.457L27.533 107.914C30.1009 118.699 38.8746 125.568 42.9405 127.655L54.4961 123.963Z" fill="#119B48"/>
<path d="M51.9277 121.396C44.4808 115.618 41.1211 104.651 40.3721 99.8896L24.9646 105.346C27.5325 116.132 36.3063 123.001 40.3721 125.087L51.9277 121.396Z" stroke="black" stroke-width="0.879511"/>
<path d="M50.0029 129.581C44.7387 128.553 40.4267 119.416 38.9288 114.976L29.6201 120.593C31.4176 130.094 37.5378 134.395 40.3733 135.358L50.0029 129.581Z" fill="#119B48"/>
<path d="M47.4336 127.013C42.1694 125.986 37.8574 116.849 36.3595 112.408L27.0508 118.026C28.8483 127.527 34.9685 131.828 37.8039 132.791L47.4336 127.013Z" stroke="black" stroke-width="0.879511"/>
<path d="M0.59375 182.854H256.092V199.345C256.092 269.899 198.896 327.094 128.343 327.094C57.7889 327.094 0.59375 269.899 0.59375 199.345V182.854Z" fill="#61458D" fill-opacity="0.5" style="mix-blend-mode:hard-light"/>
<path d="M182.819 9.63915L187.474 4.83887L206.132 13.5463L243.761 39.9796L249.203 49.7754L244.382 54.5966C244.383 54.6999 244.383 54.8032 244.383 54.9066H218.71C218.71 51.4745 217.898 48.0911 216.34 45.0329C214.782 41.9748 212.522 39.3287 209.746 37.311C206.97 35.2933 203.755 33.9612 200.365 33.4237C196.976 32.8861 193.507 33.1583 190.242 34.218L182.315 9.79946C182.483 9.74507 182.651 9.69163 182.819 9.63915Z" fill="#9063C0"/>
<path d="M180.017 8.36571L184.672 3.56543L203.331 12.2729L240.959 38.7061L246.401 48.502L241.58 53.3232C241.581 53.4265 241.581 53.5298 241.581 53.6332H215.908C215.908 50.201 215.096 46.8176 213.538 43.7595C211.98 40.7014 209.721 38.0553 206.944 36.0376C204.168 34.0199 200.953 32.6878 197.564 32.1502C194.174 31.6127 190.705 31.8849 187.441 32.9446L179.514 8.52603C179.681 8.47163 179.849 8.4182 180.017 8.36571Z" stroke="black" stroke-width="0.879511"/>
<path d="M249.358 49.9312C249.358 42.4482 247.587 35.0714 244.19 28.4038C240.793 21.7361 235.867 15.9669 229.814 11.5677C223.76 7.16855 216.752 4.26422 209.361 3.09217C201.971 1.92011 194.407 2.5136 187.29 4.82411L195.217 29.2427C198.481 28.183 201.95 27.9108 205.34 28.4483C208.73 28.9859 211.944 30.318 214.721 32.3357C217.497 34.3534 219.757 36.9995 221.314 40.0576C222.872 43.1157 223.685 46.4991 223.685 49.9312H249.358Z" fill="#C28AFF"/>
<mask id="path-16-inside-1_37_839" fill="white">
<path d="M246.557 48.6578C246.557 41.1748 244.786 33.798 241.389 27.1303C237.993 20.4627 233.066 14.6935 227.013 10.2943C220.96 5.89511 213.951 2.99079 206.56 1.81873C199.17 0.646677 191.607 1.24016 184.489 3.55067L192.416 27.9692C195.681 26.9095 199.15 26.6373 202.539 27.1749C205.929 27.7125 209.143 29.0445 211.92 31.0622C214.696 33.08 216.956 35.726 218.514 38.7842C220.072 41.8423 220.884 45.2257 220.884 48.6578H246.557Z"/>
</mask>
<path d="M246.557 48.6578C246.557 41.1748 244.786 33.798 241.389 27.1303C237.993 20.4627 233.066 14.6935 227.013 10.2943C220.96 5.89511 213.951 2.99079 206.56 1.81873C199.17 0.646677 191.607 1.24016 184.489 3.55067L192.416 27.9692C195.681 26.9095 199.15 26.6373 202.539 27.1749C205.929 27.7125 209.143 29.0445 211.92 31.0622C214.696 33.08 216.956 35.726 218.514 38.7842C220.072 41.8423 220.884 45.2257 220.884 48.6578H246.557Z" stroke="black" stroke-width="1.75902" mask="url(#path-16-inside-1_37_839)"/>
<path fill-rule="evenodd" clip-rule="evenodd" d="M148.791 39.8131C151.529 30.8275 156.873 22.8572 164.147 16.9131L180.393 36.7921C177.057 39.5184 174.605 43.174 173.35 47.2953C172.431 50.3097 172.183 53.4739 172.604 56.5695L178.142 54.8774L173.28 59.7398C173.299 59.807 173.319 59.8741 173.34 59.9412L148.77 67.3849C146.046 58.395 146.054 48.7988 148.791 39.8131Z" fill="#C7AB14"/>
<path d="M164.147 16.9131L164.317 16.7739L164.178 16.6037L164.007 16.7428L164.147 16.9131ZM148.791 39.8131L148.581 39.749L148.791 39.8131ZM180.393 36.7921L180.532 36.9623L180.702 36.8232L180.563 36.6529L180.393 36.7921ZM173.35 47.2953L173.139 47.2312L173.35 47.2953ZM172.604 56.5695L172.386 56.5992L172.421 56.8554L172.669 56.7798L172.604 56.5695ZM178.142 54.8774L178.298 55.0329L178.078 54.6671L178.142 54.8774ZM173.28 59.7398L173.124 59.5843L173.032 59.6764L173.069 59.8015L173.28 59.7398ZM173.34 59.9412L173.404 60.1516L173.614 60.0878L173.55 59.8774L173.34 59.9412ZM148.77 67.3849L148.559 67.4486L148.623 67.6591L148.833 67.5953L148.77 67.3849ZM164.007 16.7428C156.7 22.7145 151.331 30.7218 148.581 39.749L149.001 39.8772C151.726 30.9332 157.046 22.9999 164.286 17.0833L164.007 16.7428ZM180.563 36.6529L164.317 16.7739L163.976 17.0522L180.222 36.9312L180.563 36.6529ZM173.56 47.3594C174.803 43.2797 177.229 39.6611 180.532 36.9623L180.253 36.6218C176.884 39.3757 174.408 43.0682 173.139 47.2312L173.56 47.3594ZM172.822 56.5399C172.405 53.4755 172.651 50.3433 173.56 47.3594L173.139 47.2312C172.212 50.2761 171.961 53.4723 172.386 56.5992L172.822 56.5399ZM172.669 56.7798L178.206 55.0877L178.078 54.6671L172.54 56.3592L172.669 56.7798ZM177.987 54.7219L173.124 59.5843L173.435 59.8952L178.298 55.0329L177.987 54.7219ZM173.55 59.8774C173.53 59.811 173.51 59.7446 173.491 59.6781L173.069 59.8015C173.089 59.8694 173.109 59.9372 173.129 60.0049L173.55 59.8774ZM148.833 67.5953L173.404 60.1516L173.276 59.7307L148.706 67.1745L148.833 67.5953ZM148.581 39.749C145.831 48.7763 145.823 58.4171 148.559 67.4486L148.98 67.3211C146.269 58.3729 146.277 48.8212 149.001 39.8772L148.581 39.749Z" fill="black"/>
<mask id="path-19-inside-2_37_839" fill="white">
<path d="M169.122 11.9364C161.849 17.8805 156.504 25.8508 153.767 34.8364C151.029 43.8221 151.022 53.4183 153.745 62.4082L178.315 54.9645C177.066 50.8412 177.07 46.4399 178.325 42.3186C179.581 38.1973 182.032 34.5417 185.368 31.8154L169.122 11.9364Z"/>
</mask>
<path d="M169.122 11.9364C161.849 17.8805 156.504 25.8508 153.767 34.8364C151.029 43.8221 151.022 53.4183 153.745 62.4082L178.315 54.9645C177.066 50.8412 177.07 46.4399 178.325 42.3186C179.581 38.1973 182.032 34.5417 185.368 31.8154L169.122 11.9364Z" fill="#FCD91E" stroke="black" stroke-width="1.75902" mask="url(#path-19-inside-2_37_839)"/>
<path fill-rule="evenodd" clip-rule="evenodd" d="M214.457 61.9429L219.345 57.0547L221.367 63.4298L220.03 64.2232L238.047 71.5945C234.904 79.2751 229.801 85.9966 223.248 91.0875C216.694 96.1785 208.92 99.4607 200.7 100.606C192.481 101.752 184.106 100.72 176.41 97.6155C168.714 94.5105 161.968 89.4405 156.845 82.9119L157.376 82.4948L161.968 78.0461L162.647 78.3592L177.042 67.0634C179.392 70.0577 182.486 72.3831 186.016 73.8073C189.545 75.2314 193.387 75.7044 197.157 75.179C200.926 74.6536 204.492 73.1482 207.498 70.8132C210.504 68.4782 212.844 65.3953 214.286 61.8726L214.457 61.9429Z" fill="#8D8A95"/>
<path d="M219.345 57.0547L219.555 56.9882L219.446 56.6435L219.19 56.8992L219.345 57.0547ZM214.457 61.9429L214.374 62.1464L214.509 62.2018L214.613 62.0984L214.457 61.9429ZM221.367 63.4298L221.479 63.6188L221.629 63.5297L221.576 63.3633L221.367 63.4298ZM220.03 64.2232L219.918 64.0341L219.539 64.2595L219.947 64.4267L220.03 64.2232ZM238.047 71.5945L238.25 71.6778L238.333 71.4743L238.13 71.391L238.047 71.5945ZM223.248 91.0875L223.383 91.2612L223.248 91.0875ZM200.7 100.606L200.67 100.388L200.7 100.606ZM176.41 97.6155L176.492 97.4116L176.41 97.6155ZM156.845 82.9119L156.709 82.7389L156.536 82.8747L156.672 83.0476L156.845 82.9119ZM157.376 82.4948L157.512 82.6678L157.521 82.6607L157.529 82.6527L157.376 82.4948ZM161.968 78.0461L162.061 77.8465L161.924 77.7833L161.815 77.8882L161.968 78.0461ZM162.647 78.3592L162.555 78.5588L162.677 78.6152L162.782 78.5322L162.647 78.3592ZM177.042 67.0634L177.215 66.9277L177.079 66.7547L176.906 66.8904L177.042 67.0634ZM197.157 75.179L197.187 75.3967L197.157 75.179ZM207.498 70.8132L207.633 70.9868L207.498 70.8132ZM214.286 61.8726L214.369 61.6691L214.165 61.5859L214.082 61.7894L214.286 61.8726ZM219.19 56.8992L214.302 61.7874L214.613 62.0984L219.501 57.2102L219.19 56.8992ZM221.576 63.3633L219.555 56.9882L219.136 57.1211L221.157 63.4962L221.576 63.3633ZM220.143 64.4122L221.479 63.6188L221.255 63.2407L219.918 64.0341L220.143 64.4122ZM219.947 64.4267L237.963 71.798L238.13 71.391L220.114 64.0197L219.947 64.4267ZM237.843 71.5112C234.715 79.1562 229.636 85.8465 223.113 90.9139L223.383 91.2612C229.966 86.1466 235.093 79.3939 238.25 71.6778L237.843 71.5112ZM223.113 90.9139C216.59 95.9812 208.851 99.2482 200.67 100.388L200.731 100.824C208.988 99.6731 216.799 96.3757 223.383 91.2612L223.113 90.9139ZM200.67 100.388C192.489 101.529 184.152 100.502 176.492 97.4116L176.327 97.8194C184.059 100.939 192.474 101.975 200.731 100.824L200.67 100.388ZM176.492 97.4116C168.832 94.321 162.117 89.2745 157.018 82.7762L156.672 83.0476C161.818 89.6065 168.596 94.7 176.327 97.8194L176.492 97.4116ZM156.98 83.0849L157.512 82.6678L157.241 82.3218L156.709 82.7389L156.98 83.0849ZM157.529 82.6527L162.121 78.2041L161.815 77.8882L157.223 82.3369L157.529 82.6527ZM161.876 78.2458L162.555 78.5588L162.739 78.1595L162.061 77.8465L161.876 78.2458ZM162.782 78.5322L177.178 67.2364L176.906 66.8904L162.511 78.1862L162.782 78.5322ZM176.869 67.1991C179.242 70.2238 182.368 72.5726 185.933 74.0112L186.098 73.6033C182.604 72.1936 179.541 69.8917 177.215 66.9277L176.869 67.1991ZM185.933 74.0112C189.499 75.4497 193.379 75.9274 197.187 75.3967L197.126 74.9612C193.395 75.4813 189.592 75.0131 186.098 73.6033L185.933 74.0112ZM197.187 75.3967C200.995 74.866 204.597 73.3454 207.633 70.9868L207.363 70.6395C204.388 72.9509 200.858 74.4411 197.126 74.9612L197.187 75.3967ZM207.633 70.9868C210.669 68.6282 213.033 65.5142 214.489 61.9559L214.082 61.7894C212.655 65.2765 210.338 68.3281 207.363 70.6395L207.633 70.9868ZM214.202 62.0761L214.374 62.1464L214.54 61.7394L214.369 61.6691L214.202 62.0761Z" fill="black"/>
<mask id="path-22-inside-3_37_839" fill="white">
<path d="M161.823 77.9339C166.946 84.4625 173.692 89.5325 181.388 92.6375C189.084 95.7425 197.46 96.7737 205.679 95.6282C213.898 94.4827 221.673 91.2005 228.226 86.1095C234.78 81.0186 239.882 74.2971 243.025 66.6165L219.264 56.8946C217.823 60.4173 215.482 63.5002 212.476 65.8352C209.471 68.1702 205.905 69.6756 202.135 70.201C198.365 70.7264 194.524 70.2534 190.994 68.8293C187.464 67.4051 184.37 65.0797 182.02 62.0854L161.823 77.9339Z"/>
</mask>
<path d="M161.823 77.9339C166.946 84.4625 173.692 89.5325 181.388 92.6375C189.084 95.7425 197.46 96.7737 205.679 95.6282C213.898 94.4827 221.673 91.2005 228.226 86.1095C234.78 81.0186 239.882 74.2971 243.025 66.6165L219.264 56.8946C217.823 60.4173 215.482 63.5002 212.476 65.8352C209.471 68.1702 205.905 69.6756 202.135 70.201C198.365 70.7264 194.524 70.2534 190.994 68.8293C187.464 67.4051 184.37 65.0797 182.02 62.0854L161.823 77.9339Z" fill="#ACA9B4" stroke="black" stroke-width="1.75902" mask="url(#path-22-inside-3_37_839)"/>
<path d="M133.56 61.3652C133.731 61.4057 133.897 61.4441 134.058 61.4805C139.511 62.7118 144.979 71.0819 147.031 75.1129C146.97 74.5819 146.906 74.0574 146.838 73.5394C151.818 81.7567 161.183 98.3986 160.664 102.378L159.344 106.555C157.477 99.8585 152.984 86.0557 148.461 78.508C157.508 104.631 154.032 112.95 153.188 113.372C152.484 113.723 144.539 112.785 140.655 112.272C140.808 111.2 138.748 105.377 137.293 101.52C137.87 104.197 137.751 109.049 137.576 111.613C132.574 108.063 121.391 109.176 115.164 110.402C114.858 108.364 114.816 106.17 115.105 103.817C124.039 101.427 129.398 94.7 132.2 86.8568C133.926 88.6576 141.314 84.8966 141.314 77.5316C141.314 71.6618 136.903 75.9625 134.048 79.6588C135.056 73.6288 134.852 67.5126 133.839 62.5799C133.755 62.1732 133.662 61.7683 133.56 61.3652Z" fill="#F8F5EF"/>
<path d="M82.0934 63.9124C83.4081 63.2061 84.6781 62.4735 85.9035 61.7209L85.6853 62.5799C82.9452 74.2581 82.1564 96.7497 97.6486 103.039C98.2348 104.602 98.7877 106.363 99.1657 108.14C97.3954 107.803 96.122 107.542 95.7997 107.435C94.7443 107.083 93.3078 105.236 92.7214 104.357V106.336C87.9721 105.632 83.2667 102.964 81.5076 101.718C80.1004 100.135 79.4555 94.6088 79.3089 92.0435C78.4294 93.0989 77.1834 97.7604 76.6703 99.9591C72.9764 99.6073 68.0951 97.0274 66.1162 95.7815C67.487 88.7754 76.2096 73.4615 82.0934 63.9124Z" fill="#F8F5EF"/>
<path d="M133.56 61.3652C133.731 61.4057 133.897 61.4441 134.058 61.4805C139.511 62.7118 144.979 71.0819 147.031 75.1129C146.97 74.5819 146.906 74.0574 146.838 73.5394C151.818 81.7567 161.183 98.3986 160.664 102.378L159.344 106.555C157.477 99.8585 152.984 86.0557 148.461 78.508C157.508 104.631 154.032 112.95 153.188 113.372C152.484 113.723 144.539 112.785 140.655 112.272C140.808 111.2 138.748 105.377 137.293 101.52C137.87 104.197 137.751 109.049 137.576 111.613C132.574 108.063 121.391 109.176 115.164 110.402C114.858 108.364 114.816 106.17 115.105 103.817C124.039 101.427 129.398 94.7 132.2 86.8568C133.926 88.6576 141.314 84.8966 141.314 77.5316C141.314 71.6618 136.903 75.9625 134.048 79.6588C135.056 73.6288 134.852 67.5126 133.839 62.5799C133.755 62.1732 133.662 61.7683 133.56 61.3652Z" stroke="black" stroke-width="0.879511"/>
<path d="M82.0934 63.9124C83.4081 63.2061 84.6781 62.4735 85.9035 61.7209L85.6853 62.5799C82.9452 74.2581 82.1564 96.7497 97.6486 103.039C98.2348 104.602 98.7877 106.363 99.1657 108.14C97.3954 107.803 96.122 107.542 95.7997 107.435C94.7443 107.083 93.3078 105.236 92.7214 104.357V106.336C87.9721 105.632 83.2667 102.964 81.5076 101.718C80.1004 100.135 79.4555 94.6088 79.3089 92.0435C78.4294 93.0989 77.1834 97.7604 76.6703 99.9591C72.9764 99.6073 68.0951 97.0274 66.1162 95.7815C67.487 88.7754 76.2096 73.4615 82.0934 63.9124Z" stroke="black" stroke-width="0.879511"/>
<path d="M37.7526 280.259C37.093 286.122 36.3454 300.356 38.6321 310.382C41.4905 322.915 49.8458 338.306 52.7042 337.427C54.4138 336.901 52.9773 334.094 51.2641 330.747C50.113 328.497 48.8369 326.004 48.3067 323.795C47.9603 322.351 47.6745 320.877 47.4732 319.417C48.8511 320.93 50.0241 318.763 50.5054 317.198C52.793 311.643 49.2754 299.143 48.6223 296.865L48.4544 296.255C47.6484 293.263 46.4032 289.323 44.5688 283.997L37.7526 280.259Z" fill="#201E25" stroke="black" stroke-width="0.879511"/>
<path d="M50.5054 317.198C50.024 318.763 48.8511 320.93 47.4732 319.417C46.9081 315.316 47.0096 311.322 48.3067 308.403" stroke="black" stroke-width="0.879511"/>
<path d="M164.125 92.3139C163.909 92.2561 163.707 92.1674 163.522 92.0443C162.516 91.6735 161.103 91.4712 161.327 92.6492C161.245 92.5418 161.17 92.4143 161.104 92.2642C160.224 90.2853 163.302 88.5263 165.281 88.7462C166.864 88.9221 165.208 91.1648 164.182 92.2642C164.164 92.2806 164.145 92.2972 164.125 92.3139Z" fill="#201E25" stroke="black" stroke-width="0.879511"/>
<path d="M174.558 87.4465C174.066 86.1342 173.844 84.1279 176.054 84.1279C179.132 84.1279 180.672 85.887 181.551 87.8659C181.552 87.8671 181.552 87.8684 181.553 87.8696C181.139 87.5391 180.699 87.2432 180.232 86.9863C179.645 86.4733 177.857 85.755 175.394 86.9863C175.136 87.1155 174.856 87.271 174.558 87.4465Z" fill="#201E25" stroke="black" stroke-width="0.879511"/>
<path d="M175.834 94.0238C175.482 91.0335 161.762 77.9727 154.945 71.8161C161.981 63.9005 169.75 62.8012 172.755 63.2409C174.339 66.0554 177.226 83.9094 178.472 92.4846L175.834 94.0238Z" fill="#119B48"/>
<path d="M173.196 93.1439C172.844 90.1536 159.124 77.0928 152.308 70.9363C159.344 63.0207 167.113 61.9213 170.118 62.361C171.701 65.1755 174.589 83.0295 175.835 91.6048L173.196 93.1439Z" stroke="black" stroke-width="0.879511"/>
<path d="M155.827 79.2906C163.567 82.6327 167.994 91.0907 169.24 94.9019L176.056 89.405C174.649 80.0822 170.925 71.5949 169.24 68.5166C161.148 72.2105 156.927 77.2384 155.827 79.2906Z" fill="#119B48"/>
<mask id="mask0_37_839" style="mask-type:alpha" maskUnits="userSpaceOnUse" x="153" y="67" width="22" height="29">
<path d="M154.068 79.2906C161.808 82.6327 166.235 91.0907 167.481 94.9019L174.297 89.405C172.89 80.0822 169.167 71.5949 167.481 68.5166C159.389 72.2105 155.168 77.2384 154.068 79.2906Z" fill="#D9D9D9" stroke="black" stroke-width="0.879511"/>
</mask>
<g mask="url(#mask0_37_839)">
<path d="M154.068 79.2906C161.808 82.6327 166.235 91.0907 167.481 94.9019L174.297 89.405C172.89 80.0822 169.167 71.5949 167.481 68.5166C159.389 72.2105 155.168 77.2384 154.068 79.2906Z" stroke="black" stroke-width="0.879511"/>
<path d="M170.119 93.8022C168.345 90.5951 164.69 84.1355 163.343 82.2657C163.254 82.1497 163.167 82.0373 163.083 81.9288C163.156 82.0138 163.243 82.1271 163.343 82.2657C165.908 85.596 170.609 91.8529 170.779 92.7028L170.119 93.8022Z" fill="#185832"/>
<path d="M172.538 91.6034C172.362 90.7239 168.067 80.976 165.941 76.212C166.821 76.9156 171.438 86.1798 173.637 90.7239L172.538 91.6034Z" fill="#185832"/>
<path d="M174.297 90.7239C174.297 90.0203 170.779 79.73 169.02 74.6729C169.547 75.2006 173.344 85.0071 175.176 89.8444C174.883 90.4308 174.297 91.4275 174.297 90.7239Z" fill="#185832"/>
</g>
<path d="M169.899 94.6822C166.732 96.7931 163.596 95.5617 162.423 94.6822C159.96 91.3401 162.13 91.5307 163.522 92.0437C166.161 93.8027 172.317 88.5257 175.396 86.9865C177.858 85.7552 179.647 86.4735 180.233 86.9865C189.028 91.8238 188.148 110.513 189.468 113.152C190.523 115.263 191.813 120.628 192.326 123.046C190.714 124.512 187.621 126.564 188.149 123.046C188.676 119.528 185.73 114.545 184.191 112.492" stroke="black" stroke-width="0.879511"/>
<path d="M192.326 123.046C191.813 120.628 190.523 115.263 189.468 113.152C189.123 112.463 188.929 110.681 188.673 108.337C187.949 101.701 186.732 90.5613 180.233 86.9865C179.647 86.4735 177.858 85.7552 175.396 86.9865C174.572 87.3984 173.527 88.0781 172.389 88.819C169.274 90.8463 165.455 93.3319 163.522 92.0437C162.13 91.5307 159.96 91.3401 162.423 94.6822C162.48 94.7249 162.541 94.7684 162.607 94.8123C162.539 95.8391 162.719 97.5488 163.811 98.5665C163.678 99.9484 164.076 101.953 166.381 102.818C167.177 103.116 168.063 103.28 168.973 103.333C169.363 104.861 170.393 106.852 172.537 106.995C173.996 107.093 175.756 107.061 177.38 106.862C179.069 109.856 181.215 112.269 184.191 112.492C185.73 114.545 188.676 119.528 188.149 123.046C187.621 126.564 190.714 124.512 192.326 123.046Z" fill="#201E25" stroke="black" stroke-width="0.879511"/>
<path d="M173.858 97.54C171.659 99.9587 166.162 100.179 164.183 98.8593C162.77 97.9173 162.536 95.971 162.607 94.834" stroke="black" stroke-width="0.879511"/>
<path d="M176.658 100.399C176.696 100.633 176.649 100.855 176.496 101.059C175.177 102.818 169.9 104.137 166.381 102.818C164.053 101.945 163.671 99.9074 163.816 98.5244" stroke="black" stroke-width="0.879511"/>
<path d="M91.1823 118.209C91.0064 117.329 90.0829 117.109 89.6432 117.109L88.7637 119.528L91.1823 118.209Z" fill="#D9D9D9" stroke="black" stroke-width="0.879511"/>
<path d="M92.0619 117.548C92.0619 113.678 95.5799 113.884 97.3389 114.47C97.3389 125.244 72.4488 179.818 70.5139 196.704C68.579 213.591 46.1074 283.776 45.0081 284.435C43.9087 285.095 39.9509 283.996 37.972 283.556C35.9931 283.116 34.6738 279.818 34.6738 279.818C19.7222 255.631 43.9087 205.939 45.0081 179.993C46.1074 154.048 63.2579 123.705 73.5922 122.605C81.8596 121.726 89.3501 118.867 92.0619 117.548Z" fill="#8DADFF"/>
<path d="M136.477 130.961C136.125 126.739 131.933 124.804 129.881 124.364C129.441 134.112 128.825 158.885 129.881 179.993C131.2 206.379 172.537 227.047 180.892 228.147C189.248 229.246 194.525 209.457 199.802 186.37C204.024 167.9 196.724 135.285 192.546 121.286C189.556 120.231 186.756 122.899 185.73 124.364C186.609 134.259 181.112 153.608 176.935 160.204C173.593 165.482 168.506 177.648 166.381 183.072C165.325 177.619 160.077 168.487 157.585 164.602C149.01 128.542 136.917 136.238 136.477 130.961Z" fill="#8DADFF"/>
<path d="M92.0619 117.548C92.0619 113.678 95.5799 113.884 97.3389 114.47C97.3389 125.244 72.4488 179.818 70.5139 196.704C68.579 213.591 46.1074 283.776 45.0081 284.435C43.9087 285.095 39.9509 283.996 37.972 283.556C35.9931 283.116 34.6738 279.818 34.6738 279.818C19.7222 255.631 43.9087 205.939 45.0081 179.993C46.1074 154.048 63.2579 123.705 73.5922 122.605C81.8596 121.726 89.3501 118.867 92.0619 117.548Z" stroke="black" stroke-width="0.879511"/>
<path d="M136.477 130.961C136.125 126.739 131.933 124.804 129.881 124.364C129.441 134.112 128.825 158.885 129.881 179.993C131.2 206.379 172.537 227.047 180.892 228.147C189.248 229.246 194.525 209.457 199.802 186.37C204.024 167.9 196.724 135.285 192.546 121.286C189.556 120.231 186.756 122.899 185.73 124.364C186.609 134.259 181.112 153.608 176.935 160.204C173.593 165.482 168.506 177.648 166.381 183.072C165.325 177.619 160.077 168.487 157.585 164.602C149.01 128.542 136.917 136.238 136.477 130.961Z" stroke="black" stroke-width="0.879511"/>
<path d="M58.6408 257.391C58.289 203.213 80.3354 141.296 91.4026 117.109C89.6436 117.109 85.979 118.868 84.3666 119.748C80.6286 122.386 67.8757 165.482 62.5987 188.79C58.377 207.435 55.1228 242.293 54.0234 257.391H58.6408Z" fill="#CCFAA9" stroke="black" stroke-width="0.879511"/>
<path d="M56.883 257.391C56.5312 203.213 78.5776 141.296 89.6448 117.109C87.8858 117.109 84.2212 118.868 82.6087 119.748C78.8708 122.386 66.1179 165.482 60.8409 188.79C56.6192 207.435 53.365 242.293 52.2656 257.391H56.883Z" stroke="black" stroke-width="0.879511"/>
<path d="M68.9761 256.293C58.422 254.006 50.7996 254.46 48.3076 254.973C48.3076 267.506 53.1449 278.5 56.4431 281.139C59.0816 283.25 63.5525 282.605 65.4581 282.018C63.6991 278.852 67.0705 263.549 68.9761 256.293Z" fill="#CCFAA9" stroke="black" stroke-width="0.879511"/>
<path d="M67.2164 256.293C56.6622 254.006 49.0398 254.46 46.5479 254.973C46.5479 267.506 51.3852 278.5 54.6833 281.139C57.3219 283.25 61.7927 282.605 63.6983 282.018C61.9393 278.852 65.3107 263.549 67.2164 256.293Z" stroke="black" stroke-width="0.879511"/>
<path d="M151.868 253.874C148.57 256.733 137.869 257.979 135.157 258.052L133.398 245.519C133.618 240.389 133.706 229.644 136.697 227.709C140.435 225.29 166.82 219.574 172.757 221.113C178.693 222.652 178.56 225.788 175.395 231.667C172.317 237.384 158.689 247.963 151.868 253.874Z" fill="#41138A" stroke="black" stroke-width="0.879511"/>
<mask id="mask1_37_839" style="mask-type:alpha" maskUnits="userSpaceOnUse" x="0" y="58" width="257" height="270">
<path d="M0.59375 58.4033H256.092V199.345C256.092 269.899 198.896 327.094 128.343 327.094C57.7889 327.094 0.59375 269.899 0.59375 199.345V58.4033Z" fill="#D9D9D9"/>
</mask>
<g mask="url(#mask1_37_839)">
<path d="M144.614 252.996C134.5 232.548 134.5 225.511 134.06 223.093L103.937 232.328L92.5029 332.812L119.548 341.167C132.814 341.24 160.269 338.88 163.963 328.854C168.581 316.321 154.728 273.445 144.614 252.996Z" fill="#8DADFF" stroke="black" stroke-width="0.879511"/>
<path d="M55.1236 297.632C58.4658 270.894 69.4157 248.672 74.4729 240.903C86.0531 238.485 108.774 234.615 107.015 238.485C104.816 243.322 108.334 254.316 109.214 257.834C110.093 261.352 108.334 262.891 105.256 265.09C102.177 267.288 101.298 278.062 101.078 293.014C100.902 304.976 102.471 328.928 103.277 339.408H87.2258C75.1325 336.623 51.7815 324.369 55.1236 297.632Z" fill="#8DADFF" stroke="black" stroke-width="0.879511"/>
</g>
<path d="M63.2601 211.657C68.3612 194.77 76.5993 171.493 75.5732 159.106L94.2628 118.429L132.522 127.444L147.033 156.468C148.353 191.428 172.1 217.154 176.057 220.012C180.015 222.871 182.874 223.31 170.56 238.482C160.174 251.28 147.328 256.512 146.374 256.512C146.154 256.512 146.594 256.512 147.033 256.292C156.494 251.562 176.937 232.105 176.057 225.509C175.178 218.913 147.473 220.672 117.79 239.361C88.1063 258.051 66.5582 254.313 58.6426 250.795C50.727 247.277 56.8836 232.765 63.2601 211.657Z" fill="#8DADFF"/>
<path d="M75.5732 159.107C76.5993 171.494 68.3612 194.771 63.2601 211.658C56.8836 232.766 50.727 247.278 58.6426 250.796C66.5582 254.314 88.1063 258.052 117.79 239.363C147.473 220.673 175.178 218.914 176.057 225.51C176.937 232.107 156.494 251.563 147.033 256.293C146.594 256.513 146.154 256.513 146.374 256.513C147.328 256.513 160.174 251.281 170.56 238.483C182.874 223.312 180.015 222.872 176.057 220.013C172.1 217.155 148.353 191.429 147.033 156.469" stroke="black" stroke-width="0.879511"/>
<path d="M132.641 127.857C132.596 127.998 132.473 128.157 132.184 128.309C131.894 128.463 131.475 128.589 130.919 128.672C129.81 128.84 128.256 128.827 126.355 128.63C122.562 128.238 117.481 127.126 112.02 125.382C106.559 123.638 101.774 121.6 98.455 119.722C96.7923 118.78 95.5182 117.891 94.711 117.111C94.3066 116.721 94.0378 116.375 93.8904 116.082C93.7439 115.791 93.7351 115.589 93.78 115.449C93.825 115.308 93.9489 115.149 94.237 114.996C94.5271 114.843 94.9464 114.717 95.5022 114.633C96.6118 114.466 98.1657 114.479 100.066 114.676C103.86 115.068 108.94 116.18 114.401 117.924C119.863 119.668 124.647 121.705 127.966 123.584C129.629 124.525 130.903 125.415 131.71 126.195C132.115 126.585 132.384 126.93 132.531 127.224C132.678 127.515 132.686 127.716 132.641 127.857Z" fill="#41138A" stroke="black" stroke-width="0.879511"/>
<path d="M85.9057 61.7205C97.8491 54.3849 105.544 45.1507 108.856 39.9082C111.842 54.6153 126.578 59.7113 133.562 61.3649C133.664 61.768 133.757 62.1729 133.841 62.5796C134.854 67.5122 135.058 73.6285 134.05 79.6585C136.905 75.9622 141.317 71.6614 141.317 77.5313C141.317 84.8963 133.928 88.6572 132.203 86.8565C129.4 94.6997 124.041 101.426 115.107 103.817C113.479 117.087 122.358 125.283 129.867 129.211C126.06 129.386 119.314 128.171 111.888 125.8C105.795 123.855 100.526 121.54 97.1735 119.475C97.7504 118.599 98.3293 117.594 98.8802 116.45C100.575 112.93 99.2343 107.26 97.6508 103.039C82.1586 96.7494 82.9474 74.2578 85.6876 62.5796L85.9057 61.7205Z" fill="#FFE1E6" stroke="#4E4E4E" stroke-width="0.879511"/>
<path d="M123.329 35.3101L122.271 36.4265L123.759 36.0382L123.962 35.9852C129.876 37.0851 142.576 45.8977 146.307 72.8873C145.242 71.0789 143.809 68.9342 142.158 66.9646C139.844 64.2034 137.034 61.7016 134.156 61.0518C130.803 60.2948 125.324 58.6833 120.312 55.4049C115.306 52.1308 110.785 47.2088 109.285 39.8213L109.067 38.748L108.482 39.674C104.85 45.4248 95.8627 56.0646 81.7101 63.6195C81.6392 58.8494 82.5508 52.2141 85.4592 46.7083C88.5002 40.9516 93.7088 36.4439 102.306 36.5463L103.439 36.5598L102.612 35.7855C100.681 33.9786 99.5385 31.6652 99.5385 29.1588C99.5385 23.5422 105.343 18.8245 112.731 18.8245C120.119 18.8245 125.924 23.5422 125.924 29.1588C125.924 31.4512 124.968 33.5808 123.329 35.3101Z" fill="#F8F5EF" stroke="black" stroke-width="0.879511"/>
<path d="M56.8822 245.078C54.5955 245.606 57.835 249.256 59.7406 251.015C65.6773 254.093 82.1682 253.434 73.3731 253.214C64.578 252.994 59.7406 244.419 56.8822 245.078Z" fill="#41138A"/>
<path d="M59.7406 251.236C57.835 249.477 54.5955 245.607 56.8822 245.079C59.7406 244.42 65.4575 253.435 74.2526 253.655" stroke="black" stroke-width="0.879511"/>
<g style="mix-blend-mode:overlay">
<path d="M0.59375 182.854H256.092V199.345C256.092 269.899 198.896 327.094 128.343 327.094C57.7889 327.094 0.59375 269.899 0.59375 199.345V182.854Z" fill="#61458D" fill-opacity="0.36" style="mix-blend-mode:hard-light"/>
</g>
</svg>
