<svg width="577" height="506" viewBox="0 0 577 506" fill="none" xmlns="http://www.w3.org/2000/svg">
<path d="M341.478 267.252C345.464 255.084 350.08 243.126 356.793 232.147C360.499 226.064 365.114 220.679 370.779 216.204C376.792 211.518 383.855 211.099 390.988 210.889C399.38 210.609 407.771 211.169 416.093 211.658C416.862 211.938 417.631 212.288 418.191 212.987C422.596 219.84 426.442 227.043 432.246 232.847C433.505 234.106 434.694 235.294 436.232 236.203C440.148 238.511 442.946 237.532 444.344 233.266C445.463 229.84 445.463 226.134 446.022 222.637C446.232 221.518 445.952 220.26 447.211 219.56C451.197 221.099 455.323 221.029 459.449 220.959C460.288 220.959 460.987 221.238 461.617 221.728C470.218 226.203 477.77 231.938 483.994 239.49C484.344 239.91 484.553 240.399 484.483 240.958C482.386 245.574 478.19 248.651 475.602 252.986C465.533 269.769 452.736 284.664 440.708 300.049C437.911 303.685 436.302 303.615 433.365 300.049C429.659 295.643 426.792 290.818 425.463 285.084C423.156 275.573 420.428 266.203 417.771 256.833C420.638 267.462 423.575 278.091 426.442 288.79C427.072 291.028 426.093 292.636 424.414 293.965C412.946 303.126 401.617 312.426 390.289 321.727C385.673 325.503 381.128 329.209 376.513 332.985C375.464 333.755 374.625 334.734 373.646 335.573C371.408 337.461 369.87 336.971 369.1 334.104C367.212 326.832 365.324 319.489 363.506 312.216C359.94 297.881 355.744 283.755 352.597 269.28C352.457 268.511 352.177 267.741 351.898 267.252C353.716 274.245 355.464 281.517 357.352 288.79C361.268 304.105 365.534 319.279 369.1 334.664C369.8 337.531 370.848 337.88 373.156 336.062C374.415 335.083 375.324 333.545 377.072 333.265C380.079 334.664 382.597 340.887 381.618 344.454C377.981 344.943 374.485 343.824 370.918 343.335C358.121 341.587 345.464 338.859 332.597 337.321C331.968 337.181 331.478 336.901 331.059 336.412C328.751 335.782 328.681 334.104 328.891 332.076C331.059 313.335 333.926 294.804 338.961 276.553C339.45 274.874 339.66 273.126 340.01 271.448C340.639 270.119 339.94 268.301 341.478 267.252Z" fill="#635EF0"/>
<path d="M276.934 57.9538C277.843 53.2686 276.234 49.5623 272.738 46.4155C271.129 44.947 269.591 43.2688 268.402 41.4507C266.025 37.8843 266.514 32.8493 269.661 29.4927C272.948 25.9962 276.304 22.6397 279.801 19.423C283.647 15.8566 289.451 15.7866 293.577 19.0033C295.395 20.4019 297.003 22.1502 298.682 23.7585C301.758 26.6256 305.185 27.7444 309.241 26.2759C313.646 24.7374 315.604 21.381 315.954 16.9754C316.164 14.8076 316.024 12.5699 316.094 10.3322C316.374 4.03855 320.29 0.122376 326.513 0.0524469C330.709 -0.0174823 334.905 -0.0174823 339.101 0.0524469C345.254 0.122376 349.24 4.03848 349.66 10.2622C349.8 12.4999 349.73 14.6677 349.8 16.9054C349.94 21.5208 352.247 24.6675 356.373 26.2759C360.149 27.7444 363.716 27.0451 366.723 24.178C368.191 22.8494 369.52 21.3808 370.918 19.9823C375.394 15.6467 381.827 15.5069 386.303 19.7726C389.52 22.7796 392.666 25.9263 395.673 29.1431C399.799 33.5486 399.869 39.0031 395.813 43.5485C394.205 45.3667 392.317 46.9751 390.708 48.7932C387.981 51.8701 387.492 55.3664 389.17 59.1426C390.848 62.9188 393.506 65.0866 397.771 65.0866C401.128 65.0866 404.554 64.9468 407.841 65.8559C411.058 66.695 413.296 68.653 413.855 71.9397C414.974 78.3032 414.974 84.7367 413.995 91.0304C413.226 96.0653 410.149 98.4429 405.114 98.7226C402.107 98.9324 399.03 98.4429 396.093 99.1422C389.1 100.681 385.883 108.513 390.009 114.387C391.548 116.554 393.575 118.373 395.394 120.331C399.799 124.946 399.869 130.61 395.394 135.226C392.317 138.372 389.17 141.519 385.953 144.596C381.478 148.792 375.744 148.722 371.268 144.526C369.8 143.198 368.541 141.659 367.002 140.4C363.716 137.533 360.079 136.275 355.744 138.233C351.548 140.121 349.59 143.337 349.59 147.883C349.59 150.121 349.66 152.288 349.52 154.526C349.17 159.561 346.373 162.708 341.618 163.757C340.08 162.987 340.569 161.519 340.569 160.33C340.569 145.785 340.499 131.24 340.569 116.694C340.849 114.666 342.597 114.317 344.066 113.757C365.674 105.576 373.086 79.7718 359.17 61.3105C348.751 47.5344 327.772 44.3876 313.786 54.5274C311.968 55.856 310.36 57.3246 308.542 58.5833C308.192 58.7232 307.772 58.793 307.353 58.8629C297.493 58.8629 287.703 59.0728 277.843 58.7231C277.493 58.6532 277.143 58.3734 276.934 57.9538Z" fill="#625EF2"/>
<path d="M279.801 474.242C279.801 478.508 280.01 482.843 279.801 487.109C279.661 489.627 280.57 490.676 282.947 490.746C282.598 491.725 281.269 491.934 281.129 493.053C280.5 495.151 280.849 497.319 280.71 499.487C280.64 500.815 280.71 502.214 279.521 503.263C278.472 503.892 277.283 503.822 276.094 503.822C268.332 503.822 260.57 503.822 252.738 503.822C251.2 503.822 249.731 503.752 248.332 503.123C247.074 501.934 247.144 500.396 247.423 498.857C248.193 494.312 247.773 489.837 247.633 485.291C246.934 489.976 247.283 494.732 247.144 499.417C247.074 500.745 247.773 502.214 246.374 503.333C240.64 504.382 234.836 503.682 229.032 503.752C225.466 503.822 221.829 504.382 218.333 503.263C217.004 502.144 217.144 500.606 217.144 499.067C217.144 494.592 217.074 490.116 217.144 485.641C217.074 490.046 217.144 494.452 217.074 498.787C217.074 500.256 217.214 501.864 216.095 503.123C213.088 504.172 210.081 504.102 207.074 503.193C205.746 501.864 205.955 500.186 205.955 498.578C205.885 494.032 206.025 489.487 205.885 484.172C205.955 489.767 205.955 494.522 205.885 499.277C205.885 500.676 205.885 502.074 204.767 503.193C203.788 503.752 202.739 503.752 201.69 503.752C190.291 503.752 178.893 503.752 167.424 503.752C166.515 503.752 165.536 503.752 164.697 503.333C163.299 502.494 163.648 501.165 163.578 499.906C163.438 495.291 163.718 490.676 163.998 486.06C163.648 491.095 163.508 496.13 163.578 501.165C163.578 502.004 163.438 502.773 162.669 503.333C160.711 504.172 158.543 503.822 156.515 503.822C150.432 503.892 144.278 503.822 138.194 503.822C136.935 503.822 135.677 503.892 134.488 503.263C133.159 502.144 133.229 500.606 133.229 499.137C133.229 494.662 133.159 490.186 133.229 485.711C133.159 490.116 133.229 494.452 133.159 498.857C133.159 500.326 133.299 501.864 132.18 503.123C128.963 504.242 125.817 504.102 122.6 503.263C121.9 502.703 121.9 501.934 121.9 501.095C122.18 496.13 121.9 491.095 122.04 486.13C121.97 490.256 122.04 494.382 121.97 498.508C121.97 500.186 122.18 502.004 120.642 503.333C119.453 503.892 118.124 503.822 116.866 503.822C102.39 503.822 87.9149 503.822 73.4395 503.822C71.971 503.822 70.4326 504.032 69.104 502.983C68.5445 493.892 69.034 484.871 68.8242 475.781C68.8242 474.172 69.5235 473.753 70.9221 473.823C71.6214 473.893 72.3207 473.823 73.02 473.823C140.641 473.823 208.263 473.823 275.884 473.823C277.283 473.893 278.612 473.473 279.801 474.242Z" fill="#625EF1"/>
<path d="M168.474 472.004C166.516 472.074 164.488 471.935 162.53 472.214C159.243 472.704 157.914 471.725 158.194 468.158C158.544 463.403 158.264 458.578 158.264 453.823C158.264 452.774 158.684 451.515 157.355 450.466C156.376 451.585 156.726 452.844 156.726 454.033C156.726 459.138 156.656 464.312 156.796 469.417C156.865 471.585 156.096 472.214 153.998 472.214C146.376 472.354 146.376 472.424 146.376 464.872C146.376 461.165 146.376 457.389 146.376 453.683C146.376 452.634 146.586 451.445 145.607 450.187C144.558 451.445 144.838 452.634 144.838 453.683C144.838 458.788 144.698 463.963 144.908 469.067C144.978 471.515 144.208 472.214 141.761 472.214C130.222 472.074 118.684 472.214 107.146 472.214C88.6146 472.214 70.0834 472.144 51.5521 472.284C48.685 472.284 47.7061 471.585 47.8459 468.578C48.0557 461.095 48.1257 453.683 47.8459 446.2C47.776 443.124 48.8249 442.634 51.5521 442.634C103.16 442.704 154.768 442.704 206.375 442.774C209.452 442.774 213.368 441.166 215.326 443.543C217.075 445.641 215.816 449.347 215.886 452.354C215.886 458.088 215.676 463.753 215.746 469.487C215.746 471.585 215.047 472.284 212.949 472.284C203.718 472.144 194.557 472.144 185.327 472.284C182.949 472.284 182.32 471.445 182.39 469.207C182.53 463.963 182.46 458.718 182.39 453.473C182.39 452.354 182.809 451.096 181.62 450.187C180.012 450.886 180.641 452.354 180.641 453.473C180.572 458.858 180.572 464.172 180.641 469.557C180.641 471.515 180.082 472.354 178.054 472.214C175.607 472.074 173.159 472.074 170.711 472.074C169.663 471.515 169.313 470.606 169.453 469.487C170.012 464.452 169.523 459.347 169.732 454.312C169.593 458.578 169.732 462.844 169.663 467.039C169.523 468.718 169.663 470.536 168.474 472.004Z" fill="#625EF1"/>
<path d="M647.418 412.565C645.321 412.495 646.23 410.887 646.23 409.977C646.16 406.411 646.16 402.845 646.16 398.229C643.153 402.635 640.635 406.271 638.188 409.907C629.656 422.285 619.587 433.334 608.957 443.823C608.188 444.522 607.559 445.362 606.86 446.131C603.923 450.327 599.797 453.403 596.16 456.83C593.223 459.557 590.286 462.424 587 464.872C584.762 466.55 584.622 468.158 586.37 470.396C590.496 475.571 594.132 481.095 597.559 486.83C601.335 493.123 600.636 498.158 595.251 502.494C594.762 502.703 594.202 502.773 593.713 502.634C593.363 502.494 593.084 502.354 592.874 502.074C592.734 500.885 593.573 500.186 594.202 499.347C596.86 495.99 597.209 492.424 595.041 488.648C583.783 469.627 569.727 453.054 552.175 439.488C538.888 429.208 524.413 421.236 508.679 415.362C507.91 415.082 507.21 414.663 505.742 414.872C508.399 422.914 511.406 430.816 512.385 439.208C512.175 440.117 511.966 440.956 510.987 441.446C509.448 440.886 509.588 439.418 509.308 438.229C507.7 430.816 505.392 423.614 503.015 416.481C502.106 413.823 500.637 412.145 497.98 411.166C493.854 409.628 489.728 408.019 485.602 406.411C482.875 405.362 482.595 405.572 483.085 408.649C483.854 414.243 484.973 419.837 484.973 425.572C484.973 448.928 478.26 469.767 462.945 487.599C460.428 490.536 460.498 490.606 464.344 491.305C476.372 493.473 488.33 495.85 500.357 497.808C504.693 498.508 504.903 498.368 506.301 494.172C508.05 488.858 509.518 483.473 510.287 477.949C510.427 476.97 510.427 475.781 511.756 475.431C512.525 475.781 512.875 476.41 513.154 477.179C513.085 483.543 511.336 489.487 509.448 495.501C508.469 498.717 508.539 499.067 511.896 499.487C515.322 499.906 518.749 500.536 522.245 500.536C523.644 500.536 525.392 500.186 526.021 502.074C523.434 502.913 520.987 504.382 518.119 504.102C500.287 500.815 482.386 498.018 464.554 494.732C448.54 491.795 432.526 488.788 416.932 484.172C416.233 483.962 415.603 483.823 414.904 483.613C412.666 482.913 411.757 483.473 411.967 486.13C412.386 491.025 412.666 495.85 413.785 500.606C413.995 501.515 414.135 502.424 413.645 503.333C413.086 504.032 412.386 504.102 411.617 503.892C409.869 501.025 409.869 497.739 409.24 494.592C408.68 491.725 408.191 488.857 408.331 485.92C408.47 482.774 407.142 481.305 404.205 480.466C394.205 477.669 384.415 474.312 374.695 470.816C359.59 465.431 344.765 459.208 330.22 452.424C315.884 445.711 301.828 438.508 288.122 430.537C283.297 427.739 278.472 424.942 274.486 420.607C279.871 435.921 287.773 449.487 298.332 461.725C311.339 476.62 327.283 487.109 345.324 494.662C351.898 497.389 358.821 499.067 365.744 500.676C367.072 500.955 369.17 500.536 369.24 502.983C367.632 503.892 365.814 504.102 363.996 504.032C358.751 501.864 353.156 500.815 347.842 498.788C345.674 497.948 343.366 497.459 341.338 496.41C339.59 495.571 338.331 495.78 337.073 497.319C334.905 500.116 331.898 501.864 328.891 503.683C327.772 503.822 327.353 503.053 327.073 502.214C327.353 500.186 329.381 500.116 330.569 499.137C330.989 498.788 331.478 498.438 331.898 498.018C336.094 494.312 336.024 493.753 330.989 491.235C330.29 490.885 329.45 490.606 328.821 490.116C326.164 488.298 323.646 487.669 320.989 490.186C320.639 490.466 320.15 490.536 319.66 490.466C319.171 490.256 318.821 489.907 318.751 489.347C323.367 486.06 323.297 486.06 318.611 482.844C297.073 467.949 282.039 447.949 273.088 423.404C270.85 417.32 268.053 411.446 265.605 405.432C258.542 388.02 261.549 372.006 273.857 358.02C285.745 344.524 301.129 339.139 318.821 339.768C319.87 339.838 320.919 339.768 321.828 340.468C321.688 341.027 321.339 341.447 320.849 341.727C315.674 342.845 310.43 341.726 305.255 342.915C287.003 347.181 272.878 356.482 266.584 374.943C260.29 393.264 267.703 414.243 284.206 424.453C300.849 434.732 318.332 443.543 336.094 451.725C350.289 458.229 364.835 463.893 379.45 469.277C390.289 473.263 401.338 476.62 412.456 479.557C425.533 483.053 438.54 486.55 451.827 489.067C454.833 489.627 456.931 489.067 458.959 486.83C471.547 473.053 478.819 456.97 480.917 438.369C482.036 428.439 481.197 418.649 480.008 408.789C479.588 405.012 477.91 402.845 474.274 401.446C451.966 392.915 429.939 383.824 407.771 374.873C386.163 366.202 364.555 357.461 343.017 348.719C341.758 348.23 340.289 347.88 339.66 346.412C339.66 345.852 340.01 345.433 340.429 345.083C342.038 344.454 343.366 345.433 344.765 345.992C357.982 351.447 371.268 356.621 384.485 362.006C388.471 363.614 392.317 365.433 396.862 366.971C391.827 361.656 387.771 355.992 384.345 349.978C383.576 348.58 382.527 347.251 382.876 345.503C383.086 345.013 383.506 344.664 383.995 344.524C385.743 345.013 386.023 346.691 386.722 347.95C391.058 355.572 395.953 362.775 402.736 368.439C406.373 371.516 410.918 372.775 415.254 374.593C419.589 376.341 423.995 377.88 428.191 379.838C430.708 381.027 432.876 380.747 435.183 379.628C443.155 375.852 449.659 370.258 455.323 363.754C470.008 346.901 480.777 327.671 489.798 307.321C493.085 299.979 496.022 292.496 498.749 284.944C499.169 283.755 499.588 282.497 501.127 282.147C501.476 282.147 501.826 282.287 502.036 282.497C502.945 284.734 501.616 286.622 500.847 288.441C496.791 297.951 493.295 307.741 488.609 316.972C486.721 320.818 486.861 321.936 490.148 324.874C498.05 332.076 505.742 339.489 514.623 345.573C523.504 351.656 532.595 357.181 542.874 360.537C543.783 360.817 544.692 361.027 544.832 362.286C544.692 363.125 544.063 363.405 543.294 363.544C536.441 361.936 530.147 358.999 524.063 355.433C518.329 352.076 512.875 348.3 507.63 344.244C505.322 342.426 503.015 342.146 500.148 342.845C490.497 345.083 481.127 348.3 471.477 350.607C469.239 351.167 467.91 352.705 466.652 354.384C460.498 362.775 453.505 370.397 445.253 376.831C442.246 379.209 439.03 381.236 435.253 382.565C451.547 389.208 467.77 395.922 484.134 402.285C486.861 403.334 489.378 404.733 492.106 405.782C494.693 406.761 496.721 406.341 498.889 404.733C512.245 395.152 525.532 385.502 538.888 375.992C542.874 373.125 546.72 370.188 550.776 367.46C551.965 366.621 552.944 365.712 553.434 364.314C555.182 363.195 556.86 362.985 558.469 364.454C558.119 366.551 556.161 367.181 554.692 368.23C537.49 380.817 520.077 393.124 502.805 405.642C501.756 406.411 500.637 406.97 499.728 408.299C502.595 409.907 505.602 410.956 508.609 412.075C527.63 419.068 544.832 429.138 560.147 442.355C566.86 448.159 573.154 454.313 578.748 461.166C581.545 464.592 582.174 464.732 585.461 461.865C603.853 445.641 621.475 428.718 635.81 408.719C643.502 398.02 650.286 386.761 654.551 374.174C657.278 366.132 658.747 357.88 657.139 349.489C655.53 340.608 650.845 333.195 644.831 326.692C633.712 314.664 619.796 311.167 604.062 314.734C594.972 316.762 586.021 319.349 577 321.797C572.454 323.055 572.245 323.405 573.014 328.16C572.944 329.419 573.224 330.817 571.755 331.517C570.147 330.887 570.077 329.419 569.867 328.09C566.51 307.182 557.769 288.441 546.86 270.609C544.483 266.762 542.175 266.693 539.378 270.259C536.511 273.965 533.364 277.042 528.329 277.252C527.42 277.112 526.581 276.902 525.951 276.203C525.951 274.455 527.49 274.734 528.469 274.385C530.777 273.546 533.084 272.776 535.322 270.539C533.154 270.888 531.616 271.727 530.077 272.147C529.308 272.357 528.399 272.497 527.979 271.518C527.63 270.539 528.399 270.049 529.098 269.629C530.077 269 531.266 268.721 532.315 268.371C538.958 265.923 545.532 263.336 551.755 259.909C553.084 259.14 554.273 258.231 555.322 257.112C556.161 256.133 557.14 255.154 556.161 253.756C555.322 252.567 554.063 252.357 552.734 252.777C548.329 254.315 543.993 255.853 539.728 257.742C536.441 259.21 533.084 260.469 529.658 261.658C528.679 262.007 527.42 262.497 526.861 261.308C526.371 260.119 527.63 259.49 528.539 259.07C534.972 255.714 541.965 253.826 548.609 251.028C550.916 250.049 553.573 249.49 555.042 247.182C555.671 246.133 556.93 245.084 556.091 243.756C555.392 242.567 553.923 242.427 552.664 242.497C550.357 242.637 548.049 242.847 545.741 243.196C544.483 243.406 543.224 243.686 542.105 242.777C542.874 240.819 544.623 239.979 546.371 239.21C546.441 240.539 547.28 240.539 548.329 240.399C550.147 240.189 552.035 239.98 553.853 240.05C558.818 240.189 560.427 242.917 557.769 247.112C556.511 249.07 555.811 250.329 558.049 252.287C560.147 254.035 559.238 256.343 557.629 258.161C555.252 260.818 552.245 262.567 549.028 263.965C547 264.874 546.581 265.783 547.909 267.881C557.769 283.895 566.021 300.608 570.357 319.07C570.776 320.818 571.685 321.237 573.433 320.748C577.909 319.419 582.384 318.16 586.86 316.972C588.468 316.552 589.097 315.993 588.748 314.034C586.37 302.286 584.692 290.468 583.573 278.58C582.175 264.175 581.405 249.77 584.832 235.574C586.58 228.441 589.447 221.658 596.86 218.581C605.531 214.945 612.943 218.022 619.726 223.616C620.775 224.455 621.475 225.854 623.153 226.273C624.622 221.099 625.531 215.854 627.419 210.889C629.447 205.365 631.894 200.19 635.6 195.575C644.971 183.826 660.845 184.386 669.306 196.833C673.922 203.616 676.229 211.309 677.978 219.141C680.845 231.868 681.824 244.875 682.103 257.951C682.453 277.042 681.754 296.133 680.565 315.223C680.425 316.972 680.075 318.65 679.866 320.398C677.068 318.72 678.817 315.923 678.257 313.755C679.796 299.769 680.005 285.643 680.075 271.658C680.145 258.581 680.215 245.364 677.908 232.357C676.439 224.106 675.32 215.784 672.453 207.882C670.635 202.847 667.978 198.442 664.201 194.665C657.558 188.092 647.558 187.882 640.495 193.966C636.999 197.043 634.621 200.819 632.594 204.945C628.747 212.777 626.649 221.099 625.181 229.63C624.901 231.238 624.901 232.917 623.363 233.966C621.684 233.686 621.964 232.217 621.685 231.099C621.545 229.42 620.636 228.092 619.517 226.833C615.671 222.497 610.776 220.19 605.111 219.84C599.727 219.49 595.111 221.238 591.825 225.924C587.07 232.707 585.601 240.469 585.321 248.371C584.552 269 586.16 289.489 590.496 309.769C591.475 314.384 591.755 314.734 596.23 313.405C602.314 311.657 608.538 311.028 614.831 310.468C617.699 310.188 618.258 309 618.118 306.412C617.209 294.105 617.209 281.797 618.118 269.49C618.398 265.923 618.048 262.287 618.258 258.651C618.398 256.273 618.188 253.756 620.146 251.798C622.104 252.707 621.475 254.525 621.615 256.063C621.754 257.462 621.615 258.86 621.685 260.259C620.706 275.154 621.055 290.049 620.985 304.944C620.985 310.608 620.985 310.538 626.51 311.867C632.523 313.265 637.768 316.272 642.453 320.188C643.293 320.888 644.132 322.286 645.321 321.867C646.649 321.377 646.09 319.839 646.09 318.72C645.74 298.37 647.279 278.021 646.859 257.602C646.719 249.7 646.789 241.728 646.859 233.826C646.859 232.008 646.509 229.141 648.677 229.141C650.985 229.141 650.355 232.008 650.355 233.686C650.425 246.483 650.915 259.35 650.216 272.147C649.307 288.72 650.006 305.223 649.656 321.727C649.586 325.223 650.355 328.23 652.453 331.167C664.271 347.74 662.593 365.083 654.971 382.565C653.362 386.271 651.754 390.048 649.656 393.544C648.607 395.292 648.258 397.25 648.258 399.278C648.258 402.285 648.328 405.362 648.258 408.369C648.537 409.838 648.747 411.376 647.418 412.565Z" fill="#7D7D7D"/>
<path d="M424.414 167.183C425.743 153.127 437.141 139.561 454.414 139.421C458.47 139.421 462.525 139.421 466.581 138.722C483.294 136.065 497.63 146.065 500.497 162.358C502.525 173.896 494.134 186.554 482.036 190.19C480.917 190.54 479.728 190.47 478.959 191.589C478.26 191.728 477.98 191.309 477.77 190.819C477.071 187.043 477.84 183.127 476.791 179.351C476.511 178.372 476.441 177.323 476.092 176.274C474.903 172.777 474.274 172.568 471.686 175.085C468.12 178.512 462.176 178.931 457.84 175.924C456.651 175.155 455.603 174.176 454.833 173.057C453.435 171.029 452.316 171.029 451.057 173.267C449.519 176.064 446.861 177.603 443.994 178.652C439.519 180.33 435.743 178.931 433.365 174.806C432.596 173.477 431.687 172.288 430.638 171.169C429.519 169.841 427.911 170.33 426.512 170.12C424.554 169.98 423.645 169.141 424.414 167.183Z" fill="#292929"/>
<path d="M212.948 204.246C217.214 205.714 221.829 205.085 226.235 206.343C249.102 212.987 264.696 227.252 271.898 249.909C280.779 277.881 271.129 306.062 247.353 322.985C238.193 329.489 227.983 333.475 216.654 334.454C215.396 334.524 214.137 334.873 212.878 335.153C212.389 335.433 211.969 335.782 211.34 335.922C209.522 336.202 207.634 336.272 205.815 335.852C203.787 335.363 201.969 335.852 200.151 336.692C198.613 335.433 196.864 334.803 194.836 334.384C189.522 333.265 184.417 331.447 179.662 328.789C178.263 328.02 176.795 327.251 176.235 325.573C175.746 322.356 175.536 319.209 176.375 315.992C177.984 314.384 179.172 315.993 180.361 316.622C185.466 319.419 190.641 322.076 196.375 323.405C220.57 329.139 245.185 319.279 257.843 297.461C274.276 269.07 262.947 234.455 235.116 220.329C217.424 211.308 199.452 212.008 181.969 221.868C181.34 222.217 180.781 222.567 180.151 222.917C177.424 224.315 176.165 223.756 176.095 220.609C176.026 217.742 175.396 214.805 176.655 212.008C184.067 207.952 191.969 205.434 200.291 203.896C203.997 204.455 207.564 202.917 211.27 203.546C211.899 203.616 212.389 204.036 212.948 204.246Z" fill="#625EEE"/>
<path d="M546.86 239.28C546.301 241.448 544.343 241.938 542.664 242.847C541.545 244.735 539.517 244.595 537.769 245.084C535.182 245.784 532.664 246.553 530.007 246.972C529.028 246.972 528.049 246.902 527.699 245.784C529.098 243.056 532.245 242.287 534.203 240.189C535.601 238.721 538.539 237.532 537.629 235.504C536.79 233.616 533.783 234.595 531.825 234.875C523.504 236.063 515.462 238.231 507.28 240.189C501.056 241.728 500.217 240.819 501.826 234.525C502.455 233.616 501.686 232.567 502.035 231.588C503.364 231.168 503.924 230.259 504.343 228.861C505.951 223.546 507.909 218.301 509.518 212.987C510.497 209.7 512.455 207.952 516.021 207.812C526.581 207.462 537.14 206.973 547.769 206.763C555.322 206.553 557.28 209.42 554.762 216.483C552.175 224.036 549.517 231.658 546.86 239.28Z" fill="#292929"/>
<path d="M93.02 347.391C78.4048 347.391 63.7197 347.391 49.1045 347.531C46.9367 347.531 46.3073 346.691 46.3073 344.664C46.2374 336.272 47.2164 327.95 46.5171 319.629C46.3073 317.181 48.2654 317.671 49.664 317.671C64.0694 317.671 78.4748 317.671 92.8802 317.671C93.0201 317.811 93.1599 318.021 93.2998 318.16C94.2089 321.727 93.6494 325.293 93.7193 328.86C93.8592 333.825 93.7893 338.859 93.7193 343.824C93.7193 345.013 94.1389 346.412 93.02 347.391Z" fill="#645FEE"/>
<path d="M92.8798 379.139C82.74 379.139 72.6702 379.208 62.5305 379.278C60.7823 379.278 60.013 378.719 60.083 376.901C60.1529 368.439 60.1529 359.908 60.083 351.447C60.083 349.209 61.2018 349.069 62.9501 349.069C72.9499 349.139 82.9498 349.139 92.9497 349.139C93.9287 349.908 93.7888 351.027 93.7888 352.006C93.7888 360.118 93.7888 368.23 93.7888 376.341C93.7189 377.32 93.9287 378.369 92.8798 379.139Z" fill="#625EF1"/>
<path d="M60.2927 409.837C60.2228 401.026 60.2229 392.145 60.083 383.334C60.083 381.376 60.9921 381.027 62.6704 381.027C72.5304 381.097 82.4603 381.167 92.3203 381.236C93.8588 381.866 93.7888 383.195 93.7888 384.453C93.7888 391.866 93.7888 399.348 93.7888 406.761C93.7888 408.019 93.8588 409.348 92.3903 410.047C81.6212 410.117 70.922 410.607 60.2927 409.837Z" fill="#625EF1"/>
<path d="M92.2508 441.166C84.209 441.236 76.1671 441.236 68.1952 441.305C65.6777 441.375 65.0483 440.257 65.0483 437.949C65.1882 429.348 65.1182 420.746 65.1882 412.075C65.9574 411.306 66.9364 411.586 67.7756 411.586C76.1671 411.655 84.6285 411.306 93.02 411.795C93.9291 412.774 93.7193 413.963 93.7193 415.082C93.7193 422.285 93.7193 429.488 93.7193 436.69C93.7892 438.369 93.8592 440.047 92.2508 441.166Z" fill="#635EEF"/>
<path d="M279.801 474.242C246.654 474.242 213.438 474.172 180.291 474.172C144.767 474.172 109.243 474.172 73.7893 474.172C69.3138 474.172 69.3138 474.172 69.3138 478.788C69.3138 486.829 69.3138 494.871 69.3837 502.913C69.5935 503.403 69.3837 503.752 68.8942 503.892C46.5868 503.892 24.2794 504.102 2.04194 503.752C2.04194 503.892 2.04194 503.962 2.04194 504.102C3.23074 503.682 4.41952 503.892 5.60832 503.892C25.2584 503.892 44.9085 503.892 64.6286 503.892C66.9362 503.892 69.2439 503.822 71.5516 503.542C140.502 503.542 209.452 503.542 278.402 503.542C294.136 502.913 309.87 503.263 325.534 503.333C331.758 503.333 338.052 503.123 344.275 503.263C363.716 503.612 383.086 503.263 402.526 503.263C437.631 503.333 472.735 503.263 507.91 503.263C542.804 503.263 577.699 502.983 612.594 503.333C662.103 503.752 711.613 503.403 761.053 503.542C761.543 503.542 761.962 503.473 762.452 503.403C763.151 504.242 762.732 504.731 761.892 504.871C760.983 505.011 760.004 504.941 759.095 504.941C671.474 504.941 583.853 504.871 496.231 504.871C332.737 504.871 169.313 504.941 5.81814 504.871C3.72026 504.871 -0.265735 505.571 0.0139814 504.032C0.363627 501.585 3.93 502.983 6.02787 502.983C25.7479 502.843 45.398 502.843 65.118 502.983C68.0551 502.983 68.8942 502.144 68.8243 499.277C68.6145 491.934 68.8942 484.592 68.6844 477.249C68.6145 474.102 69.5936 473.403 72.6005 473.403C138.754 473.473 204.976 473.473 271.129 473.543C273.927 473.543 277.003 472.494 279.801 474.242Z" fill="#ACACB0"/>
<path d="M92.9497 317.601C93.0896 316.552 93.2994 315.573 93.2994 314.524C93.2994 271.448 93.2993 228.371 93.3693 185.295C93.3693 150.82 93.3693 116.415 93.3693 81.9396C93.3693 76.0655 94.2084 70.6111 98.1245 65.9259C102.74 60.4714 108.614 58.1637 115.677 58.1637C167.844 58.1637 220.011 58.1637 272.178 58.1637C273.786 58.1637 275.395 58.0238 277.073 57.9538C277.143 58.0238 277.283 58.0937 277.353 58.1637C279.73 59.0028 282.108 58.5133 284.486 58.5133C292.388 58.4434 300.36 58.933 308.262 58.2337C308.332 58.1637 308.471 58.0938 308.611 58.0238C317.702 56.5553 326.653 56.1357 334.415 62.4992C338.051 65.4363 340.359 69.2125 341.058 73.9677C340.988 74.8069 340.639 75.506 339.87 75.9256C337.632 68.0935 333.017 62.6391 324.975 60.2615C322.807 59.6322 320.569 59.7721 318.401 59.7721C250.71 59.7721 183.018 59.8419 115.327 59.7021C105.607 59.7021 97.635 66.3454 95.677 73.5481C95.0476 76.0655 94.7678 78.5829 94.7678 81.1703C94.6979 111.939 94.3482 142.708 94.558 173.407C94.9077 218.022 94.5581 262.637 94.628 307.251C94.628 310.748 95.4672 314.174 94.628 317.671C94.2084 318.091 93.7189 318.16 93.1594 317.881L92.9497 317.601Z" fill="#797979"/>
<path d="M107.845 84.9466C107.845 110.331 107.845 135.715 107.845 161.099C107.845 253.126 107.915 345.153 107.915 437.11C107.915 438.438 108.195 439.837 107.495 441.166C106.097 440.397 106.586 439.208 106.586 438.299C106.586 392.845 106.307 347.461 106.656 302.007C106.866 271.028 106.237 240.049 106.516 209.071C106.726 189.77 107.006 170.4 106.726 151.099C106.446 130.61 106.656 110.121 106.446 89.6318C106.446 87.3241 106.446 84.9466 107.006 82.7089C108.824 83.0585 107.915 84.1074 107.845 84.9466Z" fill="#6E6E6E"/>
<path d="M212.948 204.246C212.319 204.246 211.759 204.246 211.13 204.316C210.291 203.407 210.221 202.218 209.941 201.099C207.424 191.029 197.564 183.617 188.053 184.596C176.235 185.854 168.194 194.316 168.124 205.924C168.054 234.805 168.124 263.685 168.124 292.566C168.124 306.342 168.054 320.048 168.124 333.824C168.194 342.985 174.417 351.027 183.158 353.544C192.249 356.202 201.76 352.845 206.934 345.223C208.403 343.055 209.382 340.747 209.941 338.23C210.221 337.111 210.291 335.922 211.2 335.083C211.759 335.083 212.249 335.083 212.808 335.153C211.829 348.58 200.99 357.391 188.893 357.321C175.816 357.181 165.606 346.622 165.536 333.405C165.466 295.224 165.466 256.972 165.536 218.791C165.536 212.497 164.697 206.134 166.305 199.98C169.452 188.372 180.081 180.889 191.41 182.078C203.228 183.197 211.829 192.148 212.948 204.246Z" fill="#888889"/>
<path d="M484.288 45.9475C485.686 42.451 488.553 41.0524 491.98 41.0524C514.147 40.9825 536.245 40.9825 558.413 41.0524C563.587 41.0524 566.874 44.5489 566.874 49.6538C566.944 69.7934 566.944 89.933 566.874 110.143C566.874 115.737 563.657 119.024 557.993 119.093C550.301 119.233 542.679 119.093 534.986 119.093C513.798 119.093 492.609 119.093 471.351 119.093C470.232 119.093 468.763 119.723 468.134 118.464C467.575 117.275 468.903 116.366 469.603 115.527C473.868 110.562 477.435 105.108 481.98 100.422C482.609 100.702 483.029 101.122 482.889 101.891C480.232 106.856 475.966 110.562 473.029 115.667C474.218 116.506 475.547 116.156 476.735 116.156C494.777 116.156 512.819 116.017 530.86 116.226C539.602 116.366 548.273 116.786 557.014 116.226C562.818 115.877 564.846 114.268 564.846 108.394C564.916 89.5134 564.916 70.7025 564.846 51.8216C564.846 45.8777 562.398 43.5 556.524 43.5C535.546 43.43 514.637 43.5001 493.658 43.4301C490.511 43.4301 488.064 44.7588 485.756 46.577C485.127 46.8567 484.637 46.6468 484.288 45.9475Z" fill="#757575"/>
<path d="M107.845 84.9465C107.635 84.1773 107.915 83.3382 107.146 82.7088C108.474 76.3453 113.719 71.59 120.152 70.9607C121.341 70.8208 122.46 70.8907 123.649 70.8907C186.235 70.8907 248.822 70.8907 311.339 70.9607C313.646 70.9607 316.514 70.0516 318.122 72.9187L318.192 72.8487C283.717 71.3802 249.242 72.4292 214.767 72.2194C184.837 72.0097 154.907 72.1494 124.977 72.1494C114.698 72.2194 110.852 75.0865 107.845 84.9465Z" fill="#858585"/>
<path d="M340.569 345.573C340.289 345.852 339.94 346.132 339.66 346.342C337.842 346.482 322.457 342.286 320.989 341.237C321.268 340.957 321.548 340.747 321.828 340.468C326.443 340.468 326.443 340.468 326.443 335.643C326.443 283.755 326.513 231.798 326.513 179.91C326.513 149.211 326.373 118.443 326.443 87.7437C326.443 81.0305 323.436 76.4151 318.122 72.8488L318.052 72.9188C322.317 73.1285 327.003 78.6529 327.352 83.8976C327.422 85.0864 327.352 86.2053 327.352 87.3941C327.352 170.26 327.352 253.126 327.422 335.992C327.422 337.741 326.094 340.817 328.681 341.027C331.059 341.307 330.219 338.02 330.919 336.342C331.338 336.342 331.758 336.412 332.177 336.412C331.968 340.677 334.205 342.845 338.261 343.545C339.31 343.754 340.289 344.384 340.569 345.573Z" fill="#6B6B6B"/>
<path d="M339.8 75.8558C340.01 75.3663 340.219 74.8768 340.499 74.3174C342.247 75.9957 342.317 78.3032 342.317 80.471C342.457 90.8905 342.387 101.38 342.387 111.799C342.387 113.058 342.247 114.387 341.408 115.436C341.408 130.61 341.338 145.785 341.338 160.96C341.338 161.869 341.548 162.778 341.618 163.687C340.569 166.484 341.059 169.491 341.059 172.358C340.989 202.917 341.059 233.476 341.059 264.105C341.059 265.154 341.268 266.133 341.408 267.182C341.128 268.65 340.989 270.189 339.94 271.448C339.94 270.469 339.87 269.56 339.87 268.581C340.359 267.811 340.15 266.972 340.15 266.203C340.15 235.994 340.15 205.784 340.15 175.575C340.15 174.875 340.219 174.176 339.94 173.477C339.87 154.736 339.73 135.995 339.73 117.324C339.73 103.548 339.8 89.7018 339.8 75.8558Z" fill="#4B4870"/>
<path d="M93.0895 317.811C93.579 317.741 94.0685 317.671 94.558 317.601C94.558 338.789 94.628 359.908 94.628 381.097C94.628 400.187 94.628 419.278 94.628 438.299C94.628 439.837 95.1874 441.935 92.3203 441.096C93.8588 431.376 92.8099 421.586 92.8798 411.865C92.67 411.586 92.7399 411.376 92.9497 411.166C93.0896 410.956 93.0895 410.746 93.0196 410.537C92.8098 410.257 92.3203 410.117 92.3902 409.628C93.0895 408.649 93.0895 407.46 93.0895 406.271C93.0895 398.998 93.0895 391.726 93.0895 384.453C93.0895 383.264 93.0196 382.146 92.3902 381.097C93.2294 380.607 93.4392 379.908 92.9497 378.999C92.9497 368.999 92.9497 358.999 92.9497 348.999C92.9497 348.44 93.0196 347.88 93.0196 347.321C93.0196 337.531 93.0895 327.671 93.0895 317.811Z" fill="#5A5A8B"/>
<path d="M424.414 167.183C424.484 168.861 425.253 169.421 427.002 169.281C428.61 169.141 430.498 168.792 431.477 170.82C430.918 171.379 430.218 171.239 429.519 171.169C425.463 171.029 424.065 172.288 424.135 176.414C424.204 179.491 425.114 182.358 427.211 184.735C428.4 186.064 429.939 187.253 431.757 186.833C434.974 186.134 435.533 188.162 435.883 190.54C436.512 195.295 437.771 199.91 439.239 204.386C440.568 208.442 442.736 212.008 445.882 214.945C446.792 215.784 447.771 216.693 447.91 218.092C447.771 218.651 447.421 219.001 446.931 219.211C442.036 217.392 439.939 212.987 437.981 208.721C435.603 203.686 433.785 198.442 432.876 192.847C432.666 191.728 432.596 190.33 431.127 190.19C429.659 189.98 429.379 191.449 428.89 192.428C426.093 198.232 423.785 204.386 420.358 209.91C419.659 211.099 419.17 212.427 417.561 212.777C416.792 212.707 416.302 212.358 416.163 211.518C421.617 204.945 424.274 196.973 427.561 189.281C428.051 188.232 427.141 187.882 426.582 187.323C421.897 182.218 420.428 176.554 423.645 170.12C423.925 169.211 423.505 168.022 424.414 167.183Z" fill="#7F8080"/>
<path d="M213.997 87.604C205.886 87.604 197.704 87.604 189.592 87.604C188.613 87.604 187.075 88.0934 186.935 86.6949C186.795 84.8767 188.613 85.5061 189.592 85.5061C206.095 85.4362 222.599 85.4362 239.102 85.5061C240.081 85.5061 241.619 84.9466 241.759 86.3452C241.899 88.1634 240.081 87.534 239.102 87.534C230.78 87.6039 222.389 87.604 213.997 87.604Z" fill="#B2B2B2"/>
<path d="M340.009 173.547C340.919 174.526 340.569 175.785 340.569 176.903C340.569 206.344 340.569 235.854 340.569 265.294C340.569 266.413 340.919 267.671 339.94 268.58C339.87 243.406 339.87 218.231 339.87 193.057C339.8 186.623 339.94 180.12 340.009 173.547Z" fill="#4F4F50"/>
<path d="M478.19 190.959C478.469 191.169 478.679 191.449 478.959 191.658C477.7 203.546 473.295 213.686 462.595 220.12C461.966 220.469 461.337 220.679 461.546 221.588C460.847 221.588 460.148 221.518 459.518 221.518C459.169 220.889 459.099 220.26 459.379 219.56C461.197 217.532 463.924 216.903 465.952 215.015C471.896 209.421 474.623 202.218 476.511 194.596C476.791 193.407 476.232 191.588 478.19 190.959Z" fill="#828285"/>
<path d="M318.681 489.417C318.961 489.627 319.24 489.906 319.52 490.116C318.192 492.354 315.884 492.564 313.716 492.634C303.576 493.053 293.367 492.843 283.227 492.774C282.178 492.774 281.129 492.634 280.36 491.795C280.919 490.676 282.108 491.165 282.947 490.815C292.108 490.746 301.269 490.676 310.499 490.676C313.296 490.606 316.024 490.396 318.681 489.417Z" fill="#565657"/>
<path d="M168.473 472.004C168.473 466.2 168.403 460.396 168.543 454.592C168.543 453.263 167.634 450.816 169.592 450.886C171.271 450.886 170.641 453.403 170.641 454.802C170.501 459.907 171.061 465.012 170.222 470.116C170.082 470.746 170.571 471.445 170.711 472.074C169.942 472.074 169.243 472.004 168.473 472.004Z" fill="#CBCAF7"/>
<path d="M561.615 63.1985C561.825 63.4782 562.035 63.6881 562.245 63.9678C562.734 64.5272 562.804 65.2265 562.804 65.9258C562.315 81.3102 562.734 96.6946 562.524 112.149C562.524 114.527 562.804 117.184 559.867 118.373C559.657 118.163 559.517 117.953 559.308 117.673C560.217 115.785 560.706 113.827 560.706 111.659C560.636 96.8345 560.776 82.0794 560.706 67.2544C560.846 65.7859 561.056 64.4572 561.615 63.1985Z" fill="#4D4D4D"/>
<path d="M502.105 231.588C502.525 232.217 503.993 232.497 502.875 233.756C497.42 234.875 492.525 237.392 488.12 240.819C487.56 241.238 487.001 241.658 486.301 241.728C485.392 241.728 484.623 241.448 484.064 240.749C483.994 240.329 483.994 239.91 483.924 239.49C485.322 240.399 486.162 239.42 487.28 238.721C491.826 235.504 496.371 232.287 502.105 231.588Z" fill="#87868F"/>
<path d="M92.3207 409.698C92.7402 409.837 93.02 410.047 92.95 410.607C83.2299 410.607 73.5097 410.607 63.7895 410.537C62.6007 410.537 61.2022 411.096 60.2231 409.837C70.9223 409.768 81.6215 409.768 92.3207 409.698Z" fill="#D1D1F1"/>
<path d="M92.9499 411.236C92.9499 411.446 92.9499 411.726 92.88 411.935C83.6494 412.005 74.4186 412.075 65.188 412.145C65.8873 410.747 67.216 411.236 68.2649 411.236C76.4466 411.166 84.6983 411.236 92.9499 411.236Z" fill="#D1D1F1"/>
<path d="M417.421 212.847C421.827 206.134 425.253 198.931 428.12 191.449C428.75 189.84 429.449 189.071 431.337 189.141C433.505 189.211 433.295 190.679 433.575 192.008C435.603 202.218 438.33 212.078 446.792 219.211C447.001 219.35 447.141 219.49 447.141 219.7C447.141 219.91 447.071 220.05 447.001 220.05C446.582 224.385 446.512 228.861 445.323 233.126C443.715 238.93 440.218 240.189 435.183 236.763C431.547 234.315 428.89 230.889 426.372 227.462C422.946 222.777 419.939 217.952 417.421 212.847Z" fill="#FEFEFE"/>
<path d="M340.569 345.573C338.541 344.733 336.583 343.615 334.415 343.195C331.198 342.496 330.989 340.747 331.828 338.16C332.038 337.601 332.108 337.041 332.178 336.482C341.968 337.251 351.618 339.349 361.338 340.817C368.051 341.866 374.834 342.845 381.548 343.824C382.736 343.754 383.296 344.314 383.156 345.503C386.722 354.244 392.596 361.447 398.68 368.859C395.463 367.6 392.247 366.342 389.03 365.013C372.876 358.51 356.723 352.076 340.569 345.573Z" fill="#FEFEFE"/>
<path d="M383.156 345.503C382.597 344.943 382.107 344.384 381.548 343.824C380.988 340.887 379.66 338.3 378.541 335.573C378.191 334.734 378.121 333.755 376.862 333.825C377.282 333.055 376.792 332.636 376.163 332.356C382.876 326.832 389.52 321.237 396.233 315.713C405.463 308.161 414.764 300.678 424.065 293.126C425.743 291.727 425.883 290.329 425.253 288.231C422.316 277.881 419.519 267.462 416.792 257.042C416.582 256.203 415.953 255.364 416.652 254.245C418.4 254.595 418.4 256.273 418.68 257.462C421.407 267.182 424.134 276.902 426.582 286.692C428.051 292.566 431.897 296.972 435.463 301.447C437.071 303.545 438.4 301.308 439.309 300.189C444.064 294.385 448.82 288.51 453.435 282.497C458.959 275.294 464.554 268.161 469.588 260.679C474.204 253.896 478.33 246.693 483.994 240.679C484.693 240.679 485.462 240.609 485.882 241.308C483.085 245.714 479.518 249.49 476.721 253.965C469.169 266.273 460.078 277.462 451.337 288.93C447.491 294.035 443.435 299 439.239 303.755C438.61 304.454 438.05 305.224 437.071 305.363C436.372 305.433 435.743 305.084 435.183 304.664C432.666 302.356 430.848 299.489 429.03 296.692C427.561 294.524 426.162 293.965 423.995 295.783C410.289 307.251 396.373 318.51 382.457 329.769C380.639 331.237 380.499 332.915 381.128 335.013C382.037 338.23 383.785 341.167 383.855 344.664C383.715 344.943 383.436 345.223 383.156 345.503Z" fill="#4B4A89"/>
<path d="M376.233 332.286C376.863 332.426 377.562 331.657 377.981 332.356C378.121 332.566 377.282 333.335 376.932 333.824C375.884 334.733 374.835 335.643 373.786 336.552C370.359 339.629 369.24 339.419 368.191 334.804C363.296 313.825 357.352 293.056 352.108 272.147C351.618 270.259 350.989 268.371 350.569 266.483C350.429 265.713 349.94 264.385 351.268 264.245C352.247 264.105 352.317 265.224 352.527 265.993C354.136 272.427 355.744 278.79 357.422 285.224C359.94 295.084 362.527 304.944 365.045 314.874C366.653 321.027 368.331 327.181 369.94 333.335C370.849 336.761 370.989 336.831 373.646 334.594C374.485 333.755 375.324 332.985 376.233 332.286Z" fill="#3A389A"/>
<path d="M446.931 219.91C446.861 219.63 446.792 219.35 446.722 219.141C447.001 218.861 447.281 218.581 447.491 218.371C451.337 219.49 455.323 219.77 459.239 220.26C460.078 220.609 459.798 221.099 459.449 221.658C455.183 222.218 450.917 222.148 446.931 219.91Z" fill="#39396C"/>
<path d="M341.408 115.506C340.779 105.296 341.269 95.0164 341.129 84.8068C341.059 81.3103 341.129 77.8137 340.429 74.3872C337.492 64.1076 329.87 58.2336 319.241 58.1637C315.605 58.1637 312.038 58.0938 308.402 58.0239C317.143 48.8631 327.912 45.996 339.94 48.5134C353.017 51.2407 361.688 59.3525 365.604 72.0097C371.618 91.1703 360.499 110.611 341.408 115.506Z" fill="#FEFEFE"/>
<path d="M308.192 58.2336C307.842 59.0728 307.073 58.9329 306.374 58.9329C297.213 58.9329 288.052 58.9329 278.892 58.9329C278.262 58.9329 277.493 59.0727 277.213 58.1636C287.563 58.2336 297.842 58.2336 308.192 58.2336Z" fill="#373573"/>
<path d="M280.36 491.725C290.57 491.725 300.849 491.725 311.059 491.795C314.066 491.795 316.793 491.235 319.52 490.046C323.087 486.13 326.653 487.389 330.219 490.046C331.058 490.676 332.037 491.025 332.947 491.515C337.352 493.822 337.352 494.032 333.716 497.599C331.828 499.487 329.38 500.606 327.142 502.004C325.394 504.382 322.737 503.822 320.429 503.822C307.283 503.892 294.206 503.892 281.059 503.822C280.29 503.752 279.8 503.333 279.73 502.564C280.36 498.997 279.031 495.291 280.36 491.725Z" fill="#FDFDFD"/>
<path d="M279.731 502.634C280.011 502.913 280.29 503.193 280.57 503.473C280.08 504.312 279.032 503.613 278.402 504.172C253.018 504.172 227.634 504.242 202.249 504.242C159.662 504.242 117.006 504.242 74.4188 504.242C73.3698 504.242 72.3209 504.172 71.272 504.172C70.6426 503.543 69.5936 504.242 69.0342 503.473C69.1041 503.263 69.1741 503.053 69.3139 502.843C86.5165 502.773 103.789 502.704 120.992 502.634C121.551 502.564 122.11 502.913 122.74 502.773C125.817 502.773 128.894 502.773 132.04 502.703C132.81 502.284 133.649 502.424 134.418 502.703C143.928 502.703 153.369 502.703 162.879 502.703C163.509 502.633 164.138 502.773 164.767 502.773C178.124 502.773 191.41 502.773 204.767 502.703C205.536 502.703 206.235 502.284 207.004 502.634C210.011 502.634 213.018 502.634 216.025 502.634C216.795 502.354 217.494 502.424 218.263 502.703C227.773 502.703 237.214 502.703 246.724 502.703C247.354 502.284 247.913 502.354 248.542 502.703C258.892 502.703 269.311 502.704 279.731 502.634Z" fill="#504F8D"/>
<path d="M248.472 502.773C247.843 503.053 247.283 503.053 246.654 502.773C245.955 496.759 246.095 490.676 246.584 484.662C246.654 483.822 246.234 482.074 247.703 482.144C249.311 482.214 248.892 483.892 248.892 484.941C248.822 490.885 248.612 496.829 248.472 502.773Z" fill="#C5C4EE"/>
<path d="M207.004 502.703C206.305 503.333 205.536 503.752 204.767 502.773C204.767 496.69 204.767 490.676 204.837 484.592C204.837 483.683 204.347 482.074 205.816 482.074C207.354 482.004 206.934 483.613 206.934 484.522C207.004 490.536 207.004 496.62 207.004 502.703Z" fill="#D7D6F0"/>
<path d="M134.418 502.773C133.648 503.473 132.809 503.403 132.04 502.773C132.04 496.759 132.11 490.676 132.18 484.662C132.18 483.683 131.62 481.935 133.439 482.004C134.837 482.074 134.348 483.683 134.348 484.592C134.418 490.676 134.418 496.759 134.418 502.773Z" fill="#D6D4F3"/>
<path d="M218.263 502.703C217.494 503.543 216.795 503.333 216.025 502.634C216.025 496.62 216.025 490.536 216.095 484.522C216.095 483.543 215.746 482.004 217.144 482.004C218.543 482.004 218.123 483.613 218.193 484.522C218.193 490.676 218.193 496.689 218.263 502.703Z" fill="#CBCAEC"/>
<path d="M122.74 502.843C122.11 503.403 121.551 503.123 120.991 502.703C120.991 496.759 120.921 490.885 120.991 484.941C120.991 483.962 120.362 482.144 121.97 482.144C123.299 482.214 123.089 483.962 123.019 485.081C123.019 491.025 122.88 496.899 122.74 502.843Z" fill="#DBDBF6"/>
<path d="M164.767 502.773C164.138 503.333 163.508 503.473 162.879 502.703C162.879 495.85 162.879 488.927 162.879 482.074C163.368 482.074 163.928 482.074 164.417 482.074C165.676 488.927 163.928 495.92 164.767 502.773Z" fill="#F0F0FA"/>
<path d="M320.989 341.307C327.352 342.426 333.646 343.894 339.66 346.412C352.247 351.516 364.834 356.691 377.422 361.796C410.708 375.222 444.064 388.649 477.351 402.075C478.749 402.635 479.868 403.194 480.148 404.803C486.022 435.921 481.057 464.242 459.169 488.368C457.351 490.396 455.603 490.955 452.805 490.396C405.673 481.095 360.639 465.641 317.702 444.243C306.863 438.858 296.234 433.124 285.814 426.9C270.36 417.6 262.668 403.754 263.577 385.922C264.486 368.719 273.717 356.481 288.612 348.16C298.751 342.356 309.66 340.747 320.989 341.307Z" fill="#FEFEFE"/>
<path d="M572.734 328.09C571.685 322.776 571.685 322.636 576.72 321.447C587.349 318.93 597.559 315.083 608.467 313.545C626.789 310.888 640.565 317.881 651.054 332.706C660.844 346.482 660.844 360.957 655.39 376.132C649.306 392.915 639.306 407.32 628.117 420.956C615.111 436.83 600.216 450.956 584.622 464.312C582.803 465.851 581.754 465.921 580.216 464.033C559.517 438.788 533.433 421.376 502.665 410.817C501.196 410.327 499.728 409.628 497.77 408.788C505.811 402.984 513.504 397.39 521.266 391.866C533.224 383.194 545.251 374.593 557.209 365.922C557.629 365.572 558.188 365.433 558.748 365.223C559.237 364.663 559.867 364.453 560.566 364.244C568.328 362.356 571.055 356.412 572.384 349.489C573.363 344.384 573.643 339.139 572.734 333.964C572.384 331.936 573.783 329.978 572.734 328.09Z" fill="#FEFEFE"/>
<path d="M383.925 344.733C382.666 341.377 381.548 337.95 380.149 334.663C379.17 332.426 379.799 331.027 381.617 329.629C394.834 318.929 407.911 308.16 421.058 297.461C427.002 292.636 427.072 292.706 431.687 299C433.015 300.818 434.274 302.566 435.603 304.314C436.442 305.084 436.092 305.853 435.533 306.412C432.246 310.258 429.379 314.314 426.372 317.811C430.078 314.034 432.736 308.72 437.281 305.084C451.127 287.951 465.043 270.888 476.861 252.287C479.448 248.231 482.385 244.595 485.952 241.308C490.218 238.091 494.623 235.154 499.798 233.546C500.777 233.266 501.896 232.147 502.875 233.686C501.406 240.749 501.336 240.609 508.259 238.931C516.581 236.903 524.902 234.525 533.504 233.686C534.063 233.616 534.693 233.546 535.252 233.546C536.72 233.546 538.609 233.196 539.378 234.735C540.147 236.343 538.539 237.462 537.49 238.511C534.692 241.308 531.476 243.686 528.119 245.714C524.902 248.161 520.916 248.79 517.42 250.399C515.742 251.168 513.924 251.658 512.945 252.217C518.329 250.539 523.784 247.252 530.147 246.343C534.343 245.154 538.539 244.035 542.734 242.847C546.79 242.637 550.706 241.308 554.832 241.728C558.538 242.147 559.098 243.266 557.21 246.483C556.021 248.581 554.343 250.049 552.035 250.888C544.622 253.686 537.28 256.623 529.937 259.56C529.028 259.909 527.839 259.979 527.28 261.378C528.609 262.147 529.658 261.098 530.637 260.748C537.909 257.951 545.182 255.154 552.385 252.147C554.692 251.168 556.51 251.448 557.839 253.476C559.238 255.644 557.489 256.972 556.161 258.161C551.685 262.217 546.021 264.245 540.497 266.413C536.581 268.021 532.595 269.42 528.749 271.238C531.825 271.867 534.273 269.56 537.49 269.35C535.741 273.056 532.525 274.175 529.308 275.294C528.329 275.643 527.35 275.853 526.301 276.203C524.763 277.671 522.735 277.741 520.847 277.881C515.812 278.301 510.847 279.28 505.742 279.419C503.504 279.489 502.315 281.028 501.126 282.566C498.05 287.671 496.721 293.475 494.413 298.93C484.973 321.027 474.274 342.426 458.749 361.027C452.246 368.859 445.043 375.922 435.673 380.397C432.876 381.726 430.358 382.006 427.421 380.537C423.225 378.509 418.89 376.691 414.484 375.362C403.645 372.146 396.373 364.733 390.429 355.712C388.121 352.216 386.093 348.44 383.925 344.733Z" fill="#FEFEFE"/>
<path d="M528.608 276.902C533.294 276.063 536.93 273.825 539.448 269.56C541.685 265.713 545.531 265.923 547.839 269.699C557.839 285.923 565.811 302.986 570.076 321.657C570.846 324.943 571.405 328.23 572.034 331.517C573.713 340.188 573.853 348.789 569.867 356.971C567.349 362.076 563.223 364.523 557.489 364.104C554.482 363.894 551.545 364.873 548.538 363.894C547.21 363.474 545.811 363.404 544.762 362.286C522.315 354.733 504.623 340.328 488.119 323.964C486.301 322.146 486.022 320.678 487.21 318.3C492.945 306.762 498.049 294.944 502.105 282.636C502.245 282.566 502.385 282.427 502.525 282.357C504.063 282.287 503.993 283.685 504.343 284.524C511.336 302.216 518.399 319.908 525.322 337.67C518.189 319.209 510.777 300.818 503.574 282.426C503.294 281.797 502.944 281.168 503.084 280.468C503.294 279.699 503.993 279.42 504.693 279.35C512.455 278.72 520.147 277.531 527.909 276.762C528.119 276.692 528.399 276.832 528.608 276.902Z" fill="#FEFEFE"/>
<path d="M511.756 439.348C510.147 430.537 507.49 422.075 504.203 413.474C506.86 413.124 508.749 414.453 510.707 415.222C547.629 429.627 575.671 454.382 595.81 488.368C598.957 493.752 598.188 497.249 592.943 502.144C591.475 504.521 589.027 503.962 586.999 503.892C576.3 503.542 565.671 503.682 554.972 503.612C546.51 503.543 538.049 503.962 529.587 503.263C528.329 503.193 527 503.263 526.091 502.144C520.567 501.375 515.042 501.165 509.518 500.326C507 499.906 507.14 499.207 507.839 497.249C510.147 490.675 511.965 484.032 512.595 477.039C511.476 474.941 512.385 472.704 512.385 470.536C512.385 461.725 512.734 452.914 511.616 444.173C511.266 442.494 511.476 440.886 511.756 439.348Z" fill="#FEFEFE"/>
<path d="M553.853 365.083C555.392 366.621 553.434 366.831 552.874 367.251C541.056 375.852 529.098 384.383 517.21 392.985C510.987 397.46 504.763 401.936 498.539 406.481C497.211 407.46 495.952 408.229 494.064 407.46C474.064 399.348 454.064 391.236 433.645 382.985C448.26 376.481 458.05 365.013 467.001 352.705C468.12 351.167 469.449 350.328 471.197 349.908C481.267 347.251 491.407 344.663 501.476 341.866C503.784 341.237 505.392 341.587 507.211 342.985C518.189 351.517 529.728 358.999 543.224 363.125C546.86 363.614 550.497 363.684 553.853 365.083Z" fill="#FEFEFE"/>
<path d="M369.38 502.703C355.743 499.626 342.457 495.501 330.219 488.578C302.667 473.123 283.786 450.326 273.367 420.607C273.227 420.187 273.087 419.697 273.017 419.278C272.947 419.068 273.087 418.858 273.017 419.138C295.884 436.55 322.107 448.229 348.401 459.767C367.282 468.019 386.722 474.522 406.442 480.466C407.981 480.885 409.239 481.165 409.239 483.263C409.239 489.347 409.939 495.291 411.477 501.235C411.687 502.074 411.617 502.843 411.057 503.542C410.009 504.382 408.82 503.962 407.701 503.962C397.072 504.032 386.372 504.032 375.743 503.962C373.575 503.892 371.338 504.032 369.38 502.703Z" fill="#FEFEFE"/>
<path d="M511.756 475.431C510.287 482.354 508.959 489.277 506.861 496.06C505.882 499.137 504.553 499.627 501.616 499.067C488.19 496.48 474.693 494.172 461.197 491.725C460.428 491.585 459.379 492.004 459.099 491.025C458.819 490.116 459.798 489.627 460.358 489.067C479.169 468.858 485.532 444.592 483.714 417.67C483.574 415.362 483.085 413.054 482.735 410.747C482.385 408.579 481.966 406.481 481.476 403.684C488.469 406.481 494.903 409.068 501.336 411.656C502.595 412.145 502.805 413.404 503.224 414.453C506.371 422.565 508.819 430.956 510.497 439.487C510.637 440.187 510.917 440.816 511.196 441.446C512.735 444.662 512.595 448.229 512.735 451.655C513.014 459.557 513.784 467.599 511.756 475.431Z" fill="#FEFEFE"/>
<path d="M413.506 503.403C411.617 497.109 411.128 490.675 410.778 484.172C410.638 481.794 411.617 481.795 413.506 482.284C427.421 486.27 441.547 489.557 455.813 492.144C474.903 495.571 493.924 498.787 513.015 502.144C514.693 502.424 516.371 502.983 518.05 503.403C517.141 504.242 516.022 503.822 515.043 503.822C482.176 503.822 449.379 503.822 416.512 503.822C415.464 503.892 414.345 504.242 413.506 503.403Z" fill="#FDFDFD"/>
<path d="M413.506 503.403C448.33 503.403 483.155 503.403 518.05 503.403C520.917 504.242 523.154 501.165 526.022 502.004C545.951 503.333 565.881 502.424 585.741 503.263C588.259 503.403 590.636 503.123 592.874 502.004C593.154 502.004 593.503 502.074 593.783 502.074C593.923 504.522 595.881 503.473 596.93 503.473C613.783 503.543 630.636 503.473 647.489 503.473C685.67 503.473 723.781 503.543 761.963 503.613C760.984 504.592 759.725 504.172 758.676 504.172C672.803 504.172 586.93 504.172 501.057 504.172C428.82 504.172 356.583 504.242 284.346 504.242C282.388 504.242 280.36 504.172 278.402 504.102C278.962 503.333 279.801 503.543 280.57 503.403C293.227 503.403 305.954 503.333 318.612 503.333C321.549 503.333 324.416 502.983 327.143 502.004C327.842 502.284 327.912 503.403 328.891 503.403C329.87 502.913 330.779 502.494 331.898 502.494C341.688 502.564 351.408 502.004 361.199 502.843C362.038 502.913 362.807 503.053 363.506 503.473C365.464 503.263 367.422 502.983 369.38 502.773C383.226 504.172 397.142 503.053 411.058 503.473C411.827 503.403 412.666 503.403 413.506 503.403Z" fill="#575757"/>
<path d="M503.294 339.908C492.106 342.915 481.476 345.713 469.938 348.789C475.602 340.328 480.148 332.286 484.413 324.244C484.903 323.335 485.532 323.055 486.301 323.895C491.406 329.419 497.07 334.384 503.294 339.908Z" fill="#FEFEFE"/>
<path d="M363.506 503.473C351.967 503.473 340.429 503.473 328.891 503.403C331.688 500.536 335.464 498.648 337.632 495.151C338.121 494.312 338.96 494.522 339.8 494.871C347.072 498.018 354.555 500.396 362.177 502.424C362.736 502.564 363.086 503.123 363.506 503.473Z" fill="#F8F8F8"/>
<path d="M553.853 365.083C550.217 365.153 546.651 364.663 543.294 363.055C543.853 362.985 544.483 362.915 544.762 362.286C547.63 362.775 550.427 363.614 553.294 363.754C565.042 364.523 570.636 359.488 571.895 346.831C572.385 341.796 572.035 336.622 572.035 331.517C573.154 330.538 572.454 329.209 572.664 328.02C574.622 337.74 575.112 347.391 570.846 356.691C568.468 361.866 564.483 364.873 558.608 365.083C557.07 363.964 555.462 364.104 553.853 365.083Z" fill="#969696"/>
<path d="M528.609 276.902C520.847 277.951 513.084 278.93 505.392 279.909C504.623 279.979 503.714 279.839 503.644 281.028C504.064 282.496 502.525 281.937 502.106 282.566C501.826 282.566 501.546 282.566 501.266 282.566C501.127 280.538 501.476 278.93 504.064 278.72C511.546 277.951 519.028 277.112 526.511 276.273C527.14 276.482 528.049 276.133 528.609 276.902Z" fill="#5C5C5C"/>
<path d="M511.755 475.431C513.084 464.103 512.595 452.774 511.056 441.446C511.336 440.746 510.986 439.837 511.685 439.278C513.713 451.795 514.203 464.312 512.455 476.9C512.245 476.41 512.035 475.921 511.755 475.431Z" fill="#505050"/>
<path d="M459.309 220.26C455.113 221.239 451.127 220.819 447.561 218.371C439.239 210.749 436.302 200.749 434.834 190.05C434.554 188.162 434.484 186.414 431.757 187.882C431.267 188.162 430.358 187.952 429.729 187.812C424.414 186.204 420.988 175.715 424.414 171.449C426.442 168.931 429.029 170.12 431.407 170.889C432.106 171.799 433.015 172.638 433.505 173.617C434.624 175.715 435.113 178.162 438.33 178.302C441.966 178.512 445.183 177.882 448.12 175.505C450.148 173.827 451.057 171.449 452.595 169.141C453.994 170.889 455.113 172.428 456.442 173.826C461.476 178.931 468.05 178.652 472.246 172.918C473.924 170.61 474.623 171.589 475.602 173.267C477.77 177.043 478.12 181.169 478.26 185.365C478.329 187.253 478.19 189.071 478.19 190.959C476.791 194.106 476.791 197.672 475.602 200.959C472.595 209.49 467.91 216.553 459.309 220.26Z" fill="#FEFEFE"/>
<path d="M211.34 335.013C210.641 347.181 200.92 355.782 188.053 355.502C177.005 355.293 167.215 345.363 167.215 334.174C167.145 291.098 167.145 247.951 167.215 204.875C167.215 193.477 177.214 183.756 188.893 183.547C200.291 183.337 210.71 192.288 211.34 202.847C211.34 203.337 211.27 203.756 211.2 204.246C207.494 203.546 203.857 206.204 200.151 204.246C199.732 203.966 199.452 203.616 199.312 203.197C197.983 198.302 194.487 195.924 189.732 195.504C184.977 195.085 181.27 197.323 178.683 201.309C178.403 201.728 178.193 202.078 177.984 202.497C176.935 210.399 175.326 218.301 177.984 226.273C178.054 253.266 177.984 280.259 177.984 307.321C177.984 309.279 177.844 311.307 178.193 313.265C178.263 314.244 177.914 315.014 177.005 315.573C177.005 319.069 177.075 322.566 177.075 326.062C178.123 327.881 177.844 329.908 177.844 331.866C177.984 337.671 180.921 341.936 185.746 343.265C191.06 344.803 194.837 343.125 198.263 337.741C198.753 336.971 199.032 335.992 200.221 336.062C200.711 334.454 201.83 334.174 203.368 334.384C206.025 334.803 208.683 334.873 211.34 335.013Z" fill="#FEFEFE"/>
<path d="M177.005 315.573C177.215 315.083 177.424 314.594 177.634 314.104C178.124 313.685 178.613 313.615 179.173 313.755C186.305 318.3 193.998 321.587 202.459 322.496C224.417 324.804 242.249 317.251 254.556 298.86C268.402 278.161 265.675 251.658 249.242 233.196C241.689 224.665 231.759 219.56 220.431 217.113C205.886 213.896 192.809 217.392 180.361 224.805C179.592 225.294 178.823 225.854 177.984 226.203C177.634 226.343 177.285 226.273 176.935 226.064C175.466 218.931 176.445 211.798 176.236 204.595C176.166 203.406 176.655 202.358 177.564 201.518C178.893 205.155 178.194 208.651 177.075 212.148C177.075 215.085 177.145 217.952 177.005 220.889C176.865 223.546 177.984 223.196 179.592 222.148C189.382 215.854 200.011 212.777 211.69 213.336C234.906 214.525 251.759 225.784 261.269 246.763C271.549 269.42 266.304 293.895 248.333 310.678C235.885 322.286 220.99 327.181 203.858 325.503C193.928 324.524 185.326 320.678 177.005 315.573Z" fill="#EAE9F9"/>
<path d="M177.074 212.148C176.795 208.581 177.075 205.015 177.564 201.518C182.739 193.337 192.319 192.008 197.844 198.651C199.242 200.33 200.221 202.078 200.081 204.316C192.319 206.483 184.697 209.281 177.074 212.148Z" fill="#272728"/>
<path d="M200.291 336.062C198.543 339.908 196.375 343.195 191.83 344.314C184.627 346.062 177.494 341.097 177.005 333.685C176.865 331.167 177.075 328.58 177.144 326.062C183.019 329.978 189.522 332.286 196.375 333.685C197.844 333.964 200.081 333.475 200.291 336.062Z" fill="#292929"/>
<path d="M530.077 246.343C523.574 248.861 517 251.448 510.497 253.965C510.357 253.546 510.217 253.196 510.007 252.777C515.881 250.119 521.825 247.602 528.049 245.714C528.748 245.923 529.448 246.133 530.077 246.343Z" fill="#8B8B8B"/>
<path d="M69.1045 503.473C69.8737 503.682 70.7827 503.403 71.3422 504.172C47.846 504.172 24.3497 504.172 0.853516 504.172C0.853516 503.962 0.853516 503.682 0.853516 503.473C23.5805 503.473 46.3076 503.473 69.1045 503.473Z" fill="#575757"/>
<path d="M482.609 101.052C484.427 99.2336 484.428 96.8559 484.428 94.5483C484.358 81.1918 484.358 67.9053 484.288 54.5488C484.288 51.8915 484.358 49.2342 484.987 46.6468C486.945 43.5699 489.672 42.3112 493.448 42.3112C514.847 42.4511 536.315 42.3811 557.783 42.451C563.238 42.451 565.895 45.0385 565.895 50.5629C565.895 70.1431 565.895 89.7232 565.895 109.233C565.895 114.758 563.447 117.345 558.133 117.345C529.742 117.345 501.28 117.345 472.889 117.345C472.19 117.345 471.491 117.275 470.302 117.135C474.567 111.611 478.553 106.296 482.609 101.052Z" fill="#FEFEFE"/>
<path d="M214.417 86.7646C234.925 86.7646 251.549 86.6708 251.549 86.555C251.549 86.4391 234.925 86.3452 214.417 86.3452C193.909 86.3452 177.285 86.4391 177.285 86.555C177.285 86.6708 193.909 86.7646 214.417 86.7646Z" fill="#6C6C6C"/>
<path d="M437.281 305.153C433.295 310.328 429.379 315.573 425.043 320.398C424.694 320.118 424.414 319.839 424.064 319.629C426.862 316.202 429.659 312.776 432.316 309.279C433.505 307.741 435.183 306.482 435.533 304.454C436.162 304.594 436.722 304.874 437.281 305.153Z" fill="#878788"/>
<path d="M502.105 282.636C502.595 282.147 503.154 281.587 503.644 281.098C510.217 297.601 516.791 314.105 523.364 330.608C524.553 333.685 526.161 336.622 527.07 340.957C524.483 338.37 523.993 335.852 523.084 333.615C516.651 317.391 510.357 301.168 503.924 284.944C503.504 284.035 503.574 282.706 502.105 282.636Z" fill="#7D7D7D"/>
<path d="M431.337 182.148C427.561 180.889 426.232 178.302 427.631 174.806C428.61 177.603 429.099 180.33 431.337 182.148Z" fill="#959595"/>
<path d="M177.005 226.064C177.215 225.994 177.425 225.994 177.704 225.994C179.243 227.742 178.823 229.98 178.823 232.008C178.893 256.623 178.893 281.238 178.823 305.853C178.823 308.72 179.662 311.587 179.103 314.454C178.613 314.314 178.194 314.244 177.704 314.104C176.865 313.125 176.935 312.007 176.935 310.818C176.935 282.566 177.005 254.315 177.005 226.064Z" fill="#6C6AB7"/>
<path d="M179.033 314.384C177.844 312.566 177.634 310.608 177.634 308.44C177.704 280.958 177.634 253.476 177.634 225.994C183.438 220.539 190.711 218.022 198.193 216.413C217.983 212.148 235.256 217.602 249.172 231.938C261.2 244.245 266.095 259.7 263.717 276.832C260.71 298.37 248.612 313.405 228.193 320.818C210.991 326.972 194.347 324.874 179.033 314.384Z" fill="#635EF1"/>
<path d="M556.105 61.6815C556.035 63.3598 555.266 64.5486 554.287 65.5276C544.287 75.8072 534.357 86.0869 524.357 96.3665C521.63 99.1637 519.322 99.0937 516.525 96.5063C510.791 91.0518 504.986 85.5974 499.322 80.143C496.315 77.2759 496.105 74.5486 498.483 72.2409C500.581 70.143 503.448 70.4227 506.175 73.01C510.021 76.5764 513.868 80.1429 517.504 83.9191C519.742 86.2966 521.07 85.877 523.098 83.7092C531 75.3177 539.112 67.0661 547.084 58.7446C548.902 56.8565 550.86 56.0173 553.308 57.1361C555.266 58.0452 556.175 59.7235 556.105 61.6815Z" fill="#6660F2"/>
<path d="M208.892 309.909C207.843 309.909 206.794 309.839 205.746 309.909C203.648 310.049 202.948 309.139 202.878 307.042C202.739 302.356 201.41 300.608 196.865 299.419C193.438 298.58 190.851 296.412 188.054 294.594C186.865 293.825 186.585 292.916 187.844 291.797C189.872 290.049 191.76 288.161 193.648 286.273C194.697 285.224 195.606 285.503 196.795 285.993C200.221 287.392 203.718 288.79 207.214 290.049C209.801 290.958 212.459 290.888 214.976 289.559C217.004 288.51 218.822 287.182 218.822 284.594C218.822 282.077 217.354 280.468 215.256 279.419C210.221 276.972 205.116 274.734 200.081 272.287C197.774 271.168 195.466 270.049 193.368 268.65C187.284 264.595 184.487 258.86 185.886 251.588C187.214 244.595 191.69 240.399 198.543 238.651C204.067 237.252 204.137 237.322 204.627 231.238C204.767 229.49 205.326 228.651 207.144 228.861C208.333 228.931 209.452 228.931 210.641 228.931C216.445 229.14 216.515 229.21 216.515 235.084C216.515 237.182 217.284 238.231 219.172 239.07C222.808 240.679 226.305 242.497 229.941 244.105C232.039 245.014 232.598 245.854 230.85 247.812C224.696 254.665 224.766 254.735 216.165 251.168C213.158 249.909 210.151 248.581 206.725 249.21C204.067 249.77 201.83 250.819 201.27 253.826C200.711 256.832 201.969 259.07 204.627 260.469C210.221 263.406 216.095 265.574 221.899 268.021C227.354 270.329 231.899 273.825 233.438 279.839C235.955 289.559 230.5 298.44 220.291 301.098C216.375 302.146 213.857 303.335 214.697 307.881C214.976 309.489 213.927 310.118 212.319 310.049C211.13 309.979 210.011 310.049 208.822 310.049C208.892 310.049 208.892 309.979 208.892 309.909Z" fill="#FEFEFE"/>
</svg>
