<svg width="523" height="414" viewBox="0 0 523 414" fill="none" xmlns="http://www.w3.org/2000/svg">
<path opacity="0.3" d="M212.299 364.9C231.899 369 252.099 371 272.699 371.8C324.899 374 379.799 369.4 429.799 354.1C496.399 333.7 524.199 252.7 480.999 196.9C468.399 180.7 451.799 171.1 435.599 159.1C416.599 144.9 399.199 128.6 385.799 109C374.099 91.8001 366.399 72.2001 353.599 55.7001C339.499 37.5001 318.399 26.2001 295.899 22.6001C214.999 9.70009 125.299 56.4001 76.2986 119.5C22.2986 189 68.3986 283.6 130.699 329.7C155.899 348.2 183.299 358.9 212.299 364.9Z" fill="#536DB4"/>
<path d="M207.499 33.6001C207.499 34.5001 207.499 35.5001 207.399 36.4001C207.299 37.3001 207.199 38.3001 206.999 39.2001C206.799 40.1001 206.599 41.0001 206.299 41.9001C205.999 42.8001 205.699 43.7001 205.399 44.5001C204.999 45.4001 204.599 46.2001 204.199 47.0001C203.799 47.8001 203.299 48.6001 202.799 49.4001C202.299 50.2001 201.699 50.9001 201.099 51.7001C200.499 52.4001 199.899 53.1001 199.199 53.8001C198.499 54.5001 197.799 55.1001 197.099 55.7001C196.399 56.3001 195.599 56.8001 194.799 57.4001C193.999 57.9001 193.199 58.4001 192.399 58.8001C191.599 59.2001 190.699 59.6001 189.899 60.0001C188.999 60.4001 188.199 60.7001 187.299 60.9001C186.399 61.2001 185.499 61.4001 184.599 61.6001C183.699 61.8001 182.799 61.9001 181.799 62.0001C180.899 62.1001 179.899 62.1001 178.999 62.1001C178.099 62.1001 177.099 62.1001 176.199 62.0001C175.299 61.9001 174.299 61.8001 173.399 61.6001C172.499 61.4001 171.599 61.2001 170.699 60.9001C169.799 60.6001 168.899 60.3001 168.099 60.0001C167.199 59.6001 166.399 59.2001 165.599 58.8001C164.799 58.4001 163.999 57.9001 163.199 57.4001C162.399 56.9001 161.699 56.3001 160.899 55.7001C160.199 55.1001 159.499 54.5001 158.799 53.8001C158.099 53.1001 157.499 52.4001 156.899 51.7001C156.299 51.0001 155.799 50.2001 155.199 49.4001C154.699 48.6001 154.199 47.8001 153.799 47.0001C153.399 46.2001 152.999 45.3001 152.599 44.5001C152.199 43.6001 151.899 42.8001 151.699 41.9001C151.399 41.0001 151.199 40.1001 150.999 39.2001C150.799 38.3001 150.699 37.4001 150.599 36.4001C150.499 35.5001 150.499 34.5001 150.499 33.6001C150.499 32.7001 150.499 31.7001 150.599 30.8001C150.699 29.9001 150.799 28.9001 150.999 28.0001C151.199 27.1001 151.399 26.2001 151.699 25.3001C151.999 24.4001 152.299 23.5001 152.599 22.7001C152.899 21.9001 153.399 21.0001 153.799 20.2001C154.199 19.4001 154.699 18.6001 155.199 17.8001C155.699 17.0001 156.299 16.3001 156.899 15.5001C157.499 14.8001 158.099 14.1001 158.799 13.4001C159.499 12.7001 160.199 12.1001 160.899 11.5001C161.599 10.9001 162.399 10.4001 163.199 9.80008C163.999 9.30008 164.799 8.80009 165.599 8.40009C166.399 8.00009 167.299 7.6001 168.099 7.2001C168.999 6.8001 169.799 6.50008 170.699 6.30008C171.599 6.00008 172.499 5.8001 173.399 5.6001C174.299 5.4001 175.199 5.3001 176.199 5.2001C177.099 5.1001 178.099 5.1001 178.999 5.1001C179.899 5.1001 180.899 5.1001 181.799 5.2001C182.699 5.3001 183.699 5.4001 184.599 5.6001C185.499 5.8001 186.399 6.00008 187.299 6.30008C188.199 6.60008 189.099 6.9001 189.899 7.2001C190.799 7.6001 191.599 8.00009 192.399 8.40009C193.199 8.80009 193.999 9.30008 194.799 9.80008C195.599 10.3001 196.299 10.9001 197.099 11.5001C197.799 12.1001 198.499 12.7001 199.199 13.4001C199.899 14.1001 200.499 14.8001 201.099 15.5001C201.699 16.2001 202.199 17.0001 202.799 17.8001C203.299 18.6001 203.799 19.4001 204.199 20.2001C204.599 21.0001 204.999 21.9001 205.399 22.7001C205.799 23.5001 206.099 24.4001 206.299 25.3001C206.599 26.2001 206.799 27.1001 206.999 28.0001C207.199 28.9001 207.299 29.8001 207.399 30.8001C207.399 31.7001 207.499 32.6001 207.499 33.6001Z" fill="#536DB4"/>
<path d="M184.098 39.1C184.098 37.4 182.598 36.6 180.498 36.1V42.2C182.998 41.7 184.098 40.5 184.098 39.1ZM177.698 31.2V25.1C175.298 25.5 174.198 26.7 174.198 28.2C174.298 29.8 175.798 30.6 177.698 31.2ZM180.598 45.8V49.6H177.798V45.8C174.398 45.6 171.198 44.5 169.398 43L170.898 39.5C172.598 40.9 175.098 41.9 177.698 42.1V35.3C173.898 34.4 169.798 33.1 169.798 28.4C169.798 24.9 172.298 21.9 177.698 21.4V17.5H180.498V21.3C182.998 21.4 185.598 22.2 187.398 23.4L185.998 26.9C184.198 25.8 182.298 25.3 180.498 25V31.9C184.298 32.8 188.398 34 188.398 38.8C188.498 42.2 185.898 45.3 180.598 45.8Z" fill="white"/>
<path opacity="0.3" d="M518.599 257.4C518.499 257.4 518.399 257.4 518.299 257.4C516.099 257.2 514.499 255.3 514.699 253.2C517.799 215.5 499.199 184.5 459.399 161.3C418.999 137.7 392.399 94.4999 391.299 92.6999C390.199 90.7999 390.799 88.3999 392.599 87.2999C394.499 86.1999 396.899 86.7999 397.999 88.5999C398.299 88.9999 424.699 132 463.299 154.5C505.999 179.4 525.899 212.8 522.499 253.8C522.399 255.9 520.699 257.4 518.599 257.4Z" fill="#536DB4"/>
<path d="M435.999 409C435.899 409.2 435.799 409.4 435.699 409.6L462.399 409.7C466.299 406.2 469.999 402.5 472.999 398.7C482.999 386.6 487.599 373.9 481.299 366.2C473.199 356.4 455.799 378.4 442.599 398.5C440.199 402.2 437.999 405.7 435.999 409Z" fill="#29AF82"/>
<path d="M435.799 409.6C435.899 409.4 435.999 409.2 435.999 409C437.199 405.7 438.499 402.2 439.799 398.6C457.299 349.5 483.099 269.6 467.399 265.3C449.599 260.4 435.299 330 429.899 360.1C428.499 368.3 427.699 373.6 427.699 373.6H428.599L423.799 398.5L421.699 409.5L435.799 409.6Z" fill="#29AF82"/>
<path d="M407.298 380.1V380.2C408.398 386.5 409.499 392.6 410.699 398.3C411.399 402.2 412.198 405.9 412.798 409.4L426.298 409.5C426.598 405.9 426.899 402.2 427.199 398.5C428.199 386 429.299 372.9 429.899 360.1C432.299 313.3 429.999 270.6 406.199 276.9C392.599 280.4 399.298 335.1 407.298 380.1Z" fill="#29AF82"/>
<path d="M394.898 398.3C397.098 402.1 399.298 405.8 401.398 409.4L414.998 409.5C414.198 406 413.298 402.3 412.298 398.4C410.798 392.5 409.098 386.4 407.298 380.3C407.298 380.2 407.298 380.2 407.298 380.2C399.298 353.8 388.198 328.2 375.198 329.7C359.798 331.3 377.598 368.2 394.898 398.3Z" fill="#29AF82"/>
<path d="M240.098 55.3001L185.498 388.4C183.598 400.1 190.298 409.6 200.498 409.6H393.998C406.098 409.6 416.898 399.1 418.098 386.3L450.498 24.2001C451.398 14.3001 443.398 7.60007 432.598 9.30007L384.398 16.8001C380.198 17.5001 376.398 21.2001 375.998 25.1001L309.298 35.2001C309.798 31.3001 307.098 28.7001 303.098 29.3001L259.598 36.0001C250.298 37.4001 241.598 46.0001 240.098 55.3001Z" fill="#29AF82"/>
<path d="M233.099 46.7001L178.099 376.2C176.199 387.7 182.698 397.1 192.898 397.1L383.999 396.1C395.898 396 406.699 385.6 407.899 373L441.199 15.2001C442.099 5.40006 434.198 -1.19995 423.598 0.500052L252.399 27.7001C243.199 29.0001 234.599 37.5001 233.099 46.7001Z" fill="#1C2451"/>
<path d="M384.798 385C391.098 384.9 396.898 379.4 397.498 372.7L431.898 16.2001C432.098 13.8001 431.298 11.7001 429.698 10.3001C427.998 8.90008 425.698 8.40008 423.098 8.80008L376.298 16.1001L375.498 23.2001L292.198 35.9001L293.198 29.0001L251.498 35.5001C246.598 36.3001 241.898 40.9001 241.098 45.8001L186.898 376.4C186.398 379.2 186.998 381.9 188.398 383.9C189.798 385.9 191.898 386.9 194.398 386.9L384.798 385Z" fill="white"/>
<path d="M300.799 43.1001L363.499 33.7001C363.999 33.6001 364.399 33.2001 364.399 32.8001C364.399 32.4001 363.999 32.1001 363.599 32.1001L300.899 41.5001C300.499 41.6001 300.099 42.0001 300.099 42.4001C299.999 42.8001 300.299 43.1001 300.799 43.1001Z" fill="#536DB4"/>
<path opacity="0.3" d="M373.498 251.7C374.198 251.6 382.198 171 382.298 170.3L386.398 135.1C386.398 134.9 386.398 134.7 386.298 134.6C386.198 134.5 385.998 134.5 385.798 134.5L261.898 149.4C261.298 149.5 242.398 260.9 242.398 260.9C242.298 260.8 242.398 261.1 242.398 260.9C242.498 261 242.698 261.6 242.898 261.5L373.498 251.7Z" fill="#536DB4"/>
<path d="M251.299 125C255.099 121.7 259.099 118.4 259.599 115.6C259.799 114.4 259.399 113.7 258.299 113.8C257.199 113.9 256.399 114.9 256.199 116.5L252.699 116.9C253.399 112.8 256.199 110.9 259.099 110.6C262.699 110.2 263.899 112.3 263.499 115.1C262.899 118.8 259.399 122 256.599 124.3L262.399 123.7L261.899 126.9L250.999 128L251.299 125Z" fill="#536DB4"/>
<path d="M271.399 109.2C274.699 108.8 276.299 110.7 275.899 113.2C275.599 115.4 274.099 116.7 272.899 117.2V117.3C274.399 117.7 275.299 118.9 274.999 121.1C274.599 123.9 272.299 126.2 268.999 126.5C265.699 126.8 263.499 125.4 263.999 121.6L267.598 121.2C267.398 122.5 267.998 123.3 269.298 123.2C270.498 123.1 271.199 122.2 271.399 121.1C271.599 119.6 270.899 119.1 268.899 119.3L268.199 119.4L268.699 116.2L269.399 116.1C270.699 116 271.899 115.5 272.199 114C272.399 112.9 271.798 112.3 270.798 112.4C269.598 112.5 268.998 113.5 268.798 114.4L265.199 114.8C265.899 111.5 268.199 109.5 271.399 109.2Z" fill="#536DB4"/>
<path d="M281.299 119.6C281.099 121.1 281.799 121.9 283.199 121.7C284.499 121.6 285.399 120.6 285.599 119.2C285.799 117.8 285.199 116.9 283.799 117.1C282.699 117.2 281.499 118 281.299 119.6ZM286.199 112.5C286.099 111.4 285.699 110.9 284.599 111C282.899 111.2 281.999 112.7 281.499 116C282.299 114.9 283.699 114.1 285.199 113.9C287.999 113.6 289.699 115.3 289.199 118.8C288.699 122.2 286.399 124.7 282.899 125C278.099 125.5 277.399 122 278.199 116.9C279.099 111.1 281.199 108.1 285.299 107.7C288.699 107.3 289.899 109.6 289.799 112L286.199 112.5Z" fill="#536DB4"/>
<path d="M294.199 110.8L291.999 111L292.499 107.3L298.599 106.7L296.199 123.6L292.299 124L294.199 110.8Z" fill="#536DB4"/>
<path d="M307.598 116.1L308.398 110.2L303.798 116.5L307.598 116.1ZM306.798 119.6L299.298 120.3L299.798 117.1L308.298 105.9L312.498 105.5L311.098 115.8L312.898 115.6L312.498 119L310.698 119.2L310.298 122.2L306.498 122.6L306.798 119.6Z" fill="#536DB4"/>
<path d="M323.799 108.9C323.999 107.6 323.299 107 322.099 107.1C320.999 107.2 320.099 108 319.899 109.3C319.699 110.5 320.499 111.2 321.599 111.1C322.699 110.9 323.599 110.1 323.799 108.9ZM318.499 116.3C318.299 117.6 319.099 118.5 320.599 118.3C322.099 118.2 322.999 117.1 323.199 115.8C323.399 114.4 322.499 113.6 321.199 113.8C319.799 114 318.699 114.9 318.499 116.3ZM316.299 109C316.599 106.6 318.699 104.3 322.599 103.9C326.499 103.5 327.999 105.5 327.699 107.9C327.499 109.7 326.399 111 325.099 111.8C326.599 112.4 327.299 113.8 327.099 115.7C326.699 119.1 323.699 121.3 320.299 121.7C316.899 122 314.499 120.4 314.999 117C315.299 115.1 316.399 113.5 317.999 112.6C316.699 111.9 315.999 110.8 316.299 109Z" fill="#536DB4"/>
<path d="M341.198 102.3L340.898 105.3L333.398 120L329.398 120.4L336.898 106.1L329.898 106.8L330.398 103.4L341.198 102.3Z" fill="#536DB4"/>
<path d="M345.498 113.1C345.298 114.6 345.998 115.4 347.498 115.3C348.798 115.2 349.798 114.2 349.998 112.8C350.198 111.4 349.498 110.5 348.098 110.6C346.798 110.7 345.698 111.6 345.498 113.1ZM350.398 105.9C350.298 104.8 349.798 104.2 348.698 104.4C346.998 104.6 346.098 106.2 345.598 109.5C346.398 108.3 347.798 107.5 349.298 107.4C352.198 107.1 353.998 108.8 353.598 112.4C353.198 115.8 350.798 118.4 347.198 118.7C342.198 119.2 341.398 115.6 342.098 110.5C342.798 104.7 344.998 101.6 349.198 101.1C352.798 100.7 354.098 103 353.998 105.5L350.398 105.9Z" fill="#536DB4"/>
<path d="M363.099 99.5999C366.599 99.1999 368.299 101.1 367.999 103.7C367.699 106 366.199 107.3 364.999 107.8V107.9C366.599 108.3 367.599 109.5 367.299 111.8C366.999 114.7 364.699 117 361.199 117.3C357.699 117.7 355.399 116.2 355.699 112.3L359.499 111.9C359.399 113.2 359.999 114.1 361.399 113.9C362.599 113.8 363.399 112.9 363.499 111.8C363.699 110.3 362.899 109.7 360.799 109.9L360.099 110L360.499 106.7L361.199 106.6C362.499 106.5 363.799 106 363.999 104.4C364.099 103.3 363.499 102.7 362.499 102.8C361.199 102.9 360.699 103.9 360.499 104.9L356.699 105.3C357.399 102.1 359.699 99.9999 363.099 99.5999Z" fill="#536DB4"/>
<path d="M372.598 102.7L370.298 103L370.698 99.2001L377.098 98.6001L375.098 115.8L370.998 116.2L372.598 102.7Z" fill="#536DB4"/>
<path d="M378.099 112.3C381.999 108.9 386.199 105.5 386.499 102.6C386.599 101.3 386.199 100.6 384.999 100.7C383.799 100.8 382.999 101.8 382.799 103.5L378.999 103.9C379.599 99.6999 382.399 97.6999 385.499 97.2999C389.399 96.8999 390.799 98.9999 390.499 101.9C390.099 105.7 386.399 109.1 383.499 111.5L389.799 110.9L389.399 114.2L377.699 115.4L378.099 112.3Z" fill="#536DB4"/>
<path d="M403.899 95.8L403.599 98.8L396.199 113.7L392.099 114.1L399.499 99.7001L392.299 100.4L392.599 97.0001L403.899 95.8Z" fill="#536DB4"/>
<path d="M300.199 198.3L296.299 198.6L296.899 194.5L300.799 194.2L300.199 198.3ZM309.499 189.3C305.499 189.6 301.499 189.9 297.399 190.3L296.799 194.5C295.499 194.6 294.099 194.7 292.799 194.9L292.199 199L288.199 199.3L287.599 203.6L299.799 202.7L299.199 207L303.199 206.7L304.899 194L308.999 193.7C309.099 192.1 309.299 190.7 309.499 189.3ZM350.299 190.4L349.799 194.6L349.299 198.9L353.399 198.6L354.399 190.2L350.299 190.4ZM327.899 204.6L328.399 200.3L324.299 200.6L325.399 192.2L321.299 192.5L321.799 188.4L317.799 188.7L316.699 197L320.699 196.7L320.099 201L316.099 201.3C315.899 202.7 315.699 204.1 315.499 205.5L311.399 205.8L311.999 201.5L316.099 201.2L316.599 197L312.399 197.3L312.999 193L308.999 193.3L307.299 206C308.599 205.9 309.999 205.8 311.299 205.8L310.699 210L306.599 210.3L307.199 206.1L303.199 206.4L301.499 219.1L309.699 218.5L310.799 210L314.899 209.7L315.499 205.4L319.599 205.1L318.499 213.6C319.899 213.5 321.199 213.4 322.599 213.3L323.099 209.1L327.299 208.8L327.899 204.6ZM308.399 168.7L307.799 172.9L311.799 172.6L311.299 176.7L315.299 176.4L316.399 168.1L308.399 168.7ZM310.199 185.1C309.999 186.5 309.799 187.8 309.599 189.2L313.699 188.9L314.199 184.8L310.199 185.1ZM325.999 188.1L325.499 192.2L329.499 191.9L329.999 187.8L325.999 188.1ZM332.099 239L331.599 243.2L335.699 242.9L336.199 238.6L332.099 239ZM344.699 238.2L344.199 242.5L348.299 242.2L348.799 237.9L344.699 238.2ZM349.199 233.6L348.699 237.8L352.799 237.5L353.299 233.2L349.199 233.6ZM300.999 223.9L299.799 232.6L303.999 232.3L304.599 227.7L308.499 227.4L308.999 223.3L300.999 223.9ZM328.399 234.8L324.099 235.1L325.199 226.6L329.499 226.3L328.399 234.8ZM326.399 217.7L330.399 217.4L329.899 221.6L325.899 221.9L326.399 217.7ZM333.499 225.8L334.599 217.1L330.499 217.4C330.699 216 330.799 214.6 330.999 213.1L322.699 213.7L320.999 226.7L316.799 227L315.699 235.5L311.399 235.8L311.899 231.7L307.799 232L306.699 240.6L310.899 240.3L310.299 244.6L314.399 244.3L314.999 240L319.299 239.7L318.799 243.9L322.799 243.6L323.299 239.3L327.599 239L328.099 234.6L332.199 234.3L332.699 230.1L336.899 229.8L335.799 238.4L344.199 237.9L345.799 224.7L333.499 225.8ZM344.099 207.8L343.599 212.1L347.799 211.8L348.299 207.5L344.099 207.8ZM351.499 215.9L351.999 211.6L347.799 211.9L347.299 216.3L338.899 216.9L338.399 221.2L350.999 220.3L350.499 224.6L354.599 224.3L355.599 215.6L351.499 215.9ZM349.199 198.8C347.899 198.9 346.499 199 345.099 199.1L346.599 186.4L342.399 186.7L341.899 190.9L337.799 191.2L338.299 187L334.299 187.3L332.699 200L336.799 199.7L337.299 195.5L341.299 195.2L340.299 203.6L332.099 204.2L330.999 212.9L339.399 212.3L339.899 208L343.999 207.7L344.499 203.4L348.699 203.1C348.899 201.7 349.099 200.3 349.199 198.8ZM348.799 203.2L348.299 207.5L352.499 207.2L351.999 211.5L356.099 211.2L357.099 202.6L348.799 203.2ZM318.599 213.9L314.699 214.2L314.199 218.3L318.199 218L318.599 213.9ZM290.999 207.5L290.399 211.6L298.499 211L299.099 206.9L290.999 207.5ZM313.399 223L312.899 227.2L316.899 226.9L317.399 222.7L313.399 223ZM270.899 209L270.299 213.1L274.199 212.8L274.799 208.7L270.899 209ZM284.899 166.7L283.199 178.9L294.999 177.9L296.699 165.6L284.899 166.7ZM296.599 165.7L284.899 166.7L283.199 178.9L294.999 177.9L296.599 165.7ZM298.399 181.7L278.499 183.3L281.499 163L301.299 161.3L298.399 181.7ZM278.199 159.2L273.999 187.9L301.899 185.6L305.799 156.7L278.199 159.2ZM284.899 166.7L283.199 178.9L294.999 177.9L296.699 165.6L284.899 166.7ZM284.899 166.7L283.199 178.9L294.999 177.9L296.699 165.6L284.899 166.7ZM354.899 185.9L354.399 190L358.399 189.7L358.899 185.6L354.899 185.9ZM341.599 161.8L340.099 174.2L352.299 173.2L353.799 160.8L341.599 161.8ZM341.599 161.8L340.099 174.2L352.299 173.2L353.799 160.8L341.599 161.8ZM353.699 160.8L341.499 161.9L339.999 174.3L352.199 173.3L353.699 160.8ZM355.999 177L335.499 178.7L338.099 157.9L358.499 156.1L355.999 177ZM334.399 154.2L330.699 183.2L359.599 180.9L362.999 151.6L334.399 154.2ZM341.599 161.8L340.099 174.2L352.299 173.2L353.799 160.8L341.599 161.8ZM341.599 161.8L340.099 174.2L352.299 173.2L353.799 160.8L341.599 161.8ZM326.199 154.9L325.699 159L329.599 158.7L330.099 154.5L326.199 154.9ZM276.399 225.6L274.599 238.3L286.699 237.5L288.499 224.8L276.399 225.6ZM288.399 224.8L276.399 225.6L274.599 238.3L286.699 237.5L288.399 224.8ZM290.199 241.6L269.999 242.9L273.099 221.6L293.199 220.2L290.199 241.6ZM269.599 217.6L265.199 247.5L293.599 245.7L297.699 215.6L269.599 217.6ZM276.399 225.6L274.599 238.3L286.699 237.5L288.499 224.8L276.399 225.6ZM276.399 225.6L274.599 238.3L286.699 237.5L288.499 224.8L276.399 225.6ZM302.799 240.9L303.399 236.3L299.199 236.6L297.999 245.4L306.199 244.9L306.799 240.7L302.799 240.9ZM313.499 160.1L313.999 156L309.999 156.4L309.399 160.7L308.899 164.6L312.899 164.3L313.499 160.1ZM276.399 225.6L274.599 238.3L286.699 237.5L288.499 224.8L276.399 225.6ZM321.199 163.4L322.299 155.3L318.099 155.7L316.999 163.9H317.099L316.599 168L324.699 167.3L323.599 175.7L327.499 175.4L329.099 162.8L321.199 163.4ZM284.899 166.7L283.199 178.9L294.999 177.9L296.699 165.6L284.899 166.7ZM273.299 192.3L272.099 200.5L275.999 200.2L276.599 196L284.399 195.4L284.999 191.3L273.299 192.3ZM314.799 180.6L314.299 184.8L318.299 184.5L318.799 180.3L314.799 180.6ZM322.899 180L322.399 184L326.499 183.7L326.999 179.7L322.899 180ZM307.299 177L306.199 185.3L310.099 185L311.199 176.7L307.299 177ZM289.299 191L288.699 195.1L292.699 194.8L293.299 190.7L289.299 191ZM283.499 203.9L284.099 199.7L275.999 200.3L274.799 208.7L278.899 208.4L278.299 212.6L282.299 212.3L282.899 208.1L286.899 207.8L287.499 203.6L283.499 203.9ZM319.399 176L318.899 180.1C320.199 180 321.499 179.9 322.899 179.8C323.099 178.4 323.299 177 323.499 175.6L319.399 176Z" fill="#1C2451"/>
<path d="M271.299 278.2L229.499 280.5L230.199 276.4L271.899 274.1L271.299 278.2Z" fill="#536DB4"/>
<path d="M289.499 289.2L227.699 292.3L228.299 288.3L289.999 285L289.499 289.2Z" fill="#536DB4"/>
<path d="M251.498 303.2L225.798 304.4L226.398 300.3L252.098 299.1L251.498 303.2Z" fill="#536DB4"/>
<path d="M355.499 273.6L382.299 272.1L382.699 267.9L355.899 269.4L355.499 273.6Z" fill="#536DB4"/>
<path d="M333.398 286.9L380.998 284.5L381.398 280.3L333.898 282.7L333.398 286.9Z" fill="#536DB4"/>
<path d="M346.599 298.7L379.699 297.1L380.099 292.8L347.099 294.5L346.599 298.7Z" fill="#536DB4"/>
<path d="M381.599 345.1L212.199 350.8L217.599 316.9L385.199 309.5L381.599 345.1Z" fill="#536DB4"/>
<path d="M262.599 331C263.699 331 264.299 330.3 264.399 329.3C264.499 328.3 264.199 327.7 262.999 327.7L261.499 327.8L260.999 331.1L262.599 331ZM262.399 333.6L260.699 333.7L259.999 338.4L257.199 338.5L259.099 325.3L263.599 325.1C266.399 325 267.599 326.7 267.199 329.2C266.899 331.4 265.399 333.5 262.399 333.6Z" fill="white"/>
<path d="M273.799 328.3L271.699 333.2L274.599 333.1L273.799 328.3ZM274.999 335.5L270.699 335.7L269.699 338.1L266.699 338.2L272.699 324.8L275.999 324.7L278.399 337.7L275.399 337.8L274.999 335.5Z" fill="white"/>
<path d="M280.499 324.5L283.799 324.3L285.299 329.8L288.299 324.2L291.499 324L286.199 333.1L285.599 337.4L282.799 337.6L283.399 333.2L280.499 324.5Z" fill="white"/>
<path d="M292.598 324L295.998 323.8L298.098 332.9L302.498 323.6L305.898 323.4L304.198 336.7L301.298 336.8L302.298 328.8L298.598 336.9L296.298 337L294.698 329.1L293.698 337.1L290.798 337.2L292.598 324Z" fill="white"/>
<path d="M314.898 325.6L310.498 325.8L310.198 328.5L313.998 328.3L313.698 330.8L309.898 331L309.498 333.9L313.898 333.8L313.498 336.4L306.298 336.6L307.998 323.3L315.198 323L314.898 325.6Z" fill="white"/>
<path d="M327.698 322.5L326.098 335.9L323.198 336L319.298 328L318.298 336.2L315.398 336.3L317.098 323L319.998 322.8L323.798 330.9L324.798 322.7L327.698 322.5Z" fill="white"/>
<path d="M329.198 322.5L338.498 322.1L338.198 324.7L334.998 324.8L333.698 335.7L330.798 335.8L331.998 325L328.898 325.1L329.198 322.5Z" fill="white"/>
<path d="M322.399 59.2999L331.399 57.8999L308.799 90.8999L298.999 91.7999L301.099 62.6999L309.299 61.3999L307.099 82.8999L322.399 59.2999Z" fill="#1C2451"/>
<path d="M344.698 65.3L336.898 76.5001L343.798 75.7001L344.698 65.3ZM343.198 82.5001L331.898 83.7001L328.098 89.1001L319.298 89.9001L343.598 56.0001L354.298 54.3L352.598 86.9001L342.798 87.8L343.198 82.5001Z" fill="#1C2451"/>
<path d="M58.9984 31.7C75.1984 31.7 88.2984 44.7999 88.2984 60.9999C88.2984 67.7999 85.9984 73.9999 82.1984 78.8999L85.7984 92.7999L71.4984 87.4999C67.6984 89.2999 63.4984 90.2999 59.0984 90.2999C42.8984 90.2999 29.7984 77.1999 29.7984 60.9999C29.6984 44.7999 42.7984 31.7 58.9984 31.7Z" fill="white"/>
<path d="M71.3985 86.1001L83.9985 90.8001L80.7985 78.6001L81.1985 78.1001C85.0985 73.1001 87.0985 67.2001 87.0985 60.9001C87.0985 45.4001 74.4985 32.9001 59.0985 32.9001C43.6985 32.9001 31.0985 45.5001 31.0985 60.9001C31.0985 76.4001 43.6985 88.9001 59.0985 88.9001C63.2985 88.9001 67.2985 88.0001 70.9985 86.2001L71.3985 86.1001ZM87.4985 94.8001L71.4985 88.9001C67.5985 90.7001 63.3985 91.6001 58.9985 91.6001C42.1985 91.6001 28.4985 77.9001 28.4985 61.1001C28.4985 44.3001 42.1985 30.6001 58.9985 30.6001C75.7985 30.6001 89.4985 44.3001 89.4985 61.1001C89.4985 67.7001 87.3985 74.0001 83.4985 79.3001L87.4985 94.8001Z" fill="#1C2451"/>
<path d="M46.9987 70.3001L46.1987 56.6001L49.8987 56.4001L50.3987 64.9001L77.6987 53.6001L79.0987 57.0001L46.9987 70.3001Z" fill="#1C2451"/>
<path d="M43.8984 29.7C43.2984 29.7 42.6984 29.2 42.6984 28.6L41.2984 15.2999C41.1984 14.5999 41.6984 13.9999 42.3984 13.8999C43.0984 13.7999 43.6984 14.3 43.7984 15L45.1984 28.2999C45.2984 28.9999 44.7984 29.6 44.0984 29.7C43.8984 29.7 43.8984 29.7 43.8984 29.7Z" fill="#1C2451"/>
<path d="M35.9984 32.8999C35.6984 32.8999 35.3984 32.7999 35.0984 32.4999L25.7983 23.0999C25.2983 22.5999 25.2983 21.7999 25.7983 21.3999C26.2983 20.8999 27.0984 20.8999 27.4984 21.3999L36.7983 30.7999C37.2983 31.2999 37.2983 32.0999 36.7983 32.4999C36.5983 32.7999 36.2984 32.8999 35.9984 32.8999Z" fill="#1C2451"/>
<path d="M30.4987 39.4999C30.3987 39.4999 30.1987 39.4999 30.0987 39.3999L16.3987 34.4999C15.7987 34.2999 15.3987 33.5999 15.6987 32.8999C15.8987 32.2999 16.5987 31.8999 17.2987 32.1999L30.9987 37.0999C31.5987 37.2999 31.9987 37.9999 31.6987 38.6999C31.4987 39.1999 30.9987 39.4999 30.4987 39.4999Z" fill="#1C2451"/>
<path d="M278.098 392.1C276.698 389.9 273.498 387.8 269.098 386.1C264.898 384.4 259.498 383 253.298 382C246.398 380.9 238.598 380.2 230.198 380.2C203.198 380.1 181.298 390.1 181.298 398.1C181.298 398.3 181.298 398.6 181.398 398.8C181.598 399.9 182.198 401 183.098 402C183.698 402.7 184.498 403.4 185.498 404C186.098 404.4 186.698 404.8 187.398 405.1C195.698 409.6 211.698 412.7 230.098 412.8C255.398 412.9 276.298 407.2 278.798 399.9C278.998 399.4 279.098 398.9 279.098 398.4C278.998 397.4 278.698 393 278.098 392.1Z" fill="#1C2451"/>
<path d="M181.298 388V398.8L185.198 394.8L183.398 389L181.298 388Z" fill="#1C2451"/>
<path d="M278.999 398.4V388.3H274.199L275.299 395.6L278.999 398.4Z" fill="#1C2451"/>
<path d="M278.098 385.5C276.698 383.3 273.498 381.2 269.098 379.5C264.898 377.8 259.498 376.4 253.298 375.4C246.398 374.3 238.598 373.6 230.198 373.6C203.198 373.5 181.298 379.9 181.298 388C181.298 388.2 181.298 388.5 181.398 388.7C181.598 389.8 182.198 390.9 183.098 391.9C183.698 392.6 184.498 393.3 185.498 393.9C186.098 394.3 186.698 394.7 187.398 395C195.698 399.5 211.698 402.6 230.098 402.7C255.398 402.8 276.298 397.1 278.798 389.8C278.998 389.3 279.098 388.8 279.098 388.3C278.998 387.4 278.698 386.5 278.098 385.5Z" fill="white"/>
<path d="M265.299 388.3C265.299 382.5 249.599 377.8 230.199 377.7C210.799 377.6 194.999 382.3 194.999 388C194.999 393.8 210.699 398.5 230.099 398.6C249.499 398.7 265.299 394.1 265.299 388.3ZM230.199 376.1C252.599 376.2 270.699 381.6 270.599 388.3C270.599 395 252.399 400.3 229.999 400.2C207.599 400.1 189.499 394.7 189.599 388C189.699 381.3 207.799 376 230.199 376.1Z" fill="#536DB4"/>
<path d="M236.898 390.3C236.898 389.4 235.298 389 231.498 388.7L228.998 391.7C229.398 391.7 229.798 391.7 230.198 391.7H230.398C234.298 391.8 236.898 391.3 236.898 390.3ZM228.598 387.4L230.898 384.5C230.698 384.5 230.398 384.5 230.098 384.5H229.898C226.298 384.5 223.598 385 223.598 385.9V386C223.598 386.7 224.898 387.2 228.598 387.4ZM235.798 383.5C239.798 384 241.698 385 241.698 386.4V386.6H236.698C236.698 385.8 235.998 385.2 234.698 384.9L232.498 387.5C238.698 387.8 241.998 388.6 241.998 390.1V390.2C241.998 392 237.698 393 230.298 393C229.498 393 228.798 393 228.098 393L226.798 394.6H222.798L224.398 392.7C220.398 392.2 218.298 391.2 218.298 389.8V389.7H223.298C223.298 390.4 224.098 390.9 225.498 391.3L227.798 388.5C221.398 388.2 218.698 387.4 218.698 386V385.9C218.698 384.2 223.298 383.2 230.298 383.2C230.898 383.2 231.598 383.2 232.198 383.2L233.498 381.6H237.498L235.798 383.5Z" fill="#536DB4"/>
<path d="M278.098 380C276.698 377.8 273.498 375.7 269.098 374C264.898 372.3 259.498 370.9 253.298 369.9C246.398 368.8 238.598 368.1 230.198 368.1C203.198 368 181.298 378 181.298 386C181.298 386.2 181.298 386.5 181.398 386.7C181.598 387.8 182.198 388.9 183.098 389.9C183.698 390.6 184.498 391.3 185.498 391.9C186.098 392.3 186.698 392.7 187.398 393C195.698 397.5 211.698 400.6 230.098 400.7C255.398 400.8 276.298 395.1 278.798 387.8C278.998 387.3 279.098 386.8 279.098 386.3C278.998 385.3 278.698 380.9 278.098 380Z" fill="#1C2451"/>
<path d="M181.298 375.9V386.7L185.198 382.7L183.398 376.9L181.298 375.9Z" fill="#1C2451"/>
<path d="M278.999 386.3V376.2H274.199L275.299 383.5L278.999 386.3Z" fill="#1C2451"/>
<path d="M278.098 373.4C276.698 371.2 273.498 369.1 269.098 367.4C264.898 365.7 259.498 364.3 253.298 363.3C246.398 362.2 238.598 361.5 230.198 361.5C203.198 361.4 181.298 367.8 181.298 375.9C181.298 376.1 181.298 376.4 181.398 376.6C181.598 377.7 182.198 378.8 183.098 379.8C183.698 380.5 184.498 381.2 185.498 381.8C186.098 382.2 186.698 382.6 187.398 382.9C195.698 387.4 211.698 390.5 230.098 390.6C255.398 390.7 276.298 385 278.798 377.7C278.998 377.2 279.098 376.7 279.098 376.2C278.998 375.3 278.698 374.4 278.098 373.4Z" fill="white"/>
<path d="M265.299 376.2C265.299 370.4 249.599 365.7 230.199 365.6C210.799 365.5 194.999 370.2 194.999 375.9C194.999 381.7 210.699 386.4 230.099 386.5C249.499 386.6 265.299 382 265.299 376.2ZM230.199 364C252.599 364.1 270.699 369.5 270.599 376.2C270.599 382.9 252.399 388.2 229.999 388.1C207.599 388 189.499 382.6 189.599 375.9C189.699 369.3 207.799 363.9 230.199 364Z" fill="#536DB4"/>
<path d="M236.898 378.2C236.898 377.3 235.298 376.9 231.498 376.6L228.998 379.6C229.398 379.6 229.798 379.6 230.198 379.6H230.398C234.298 379.7 236.898 379.2 236.898 378.2ZM228.598 375.3L230.898 372.4C230.698 372.4 230.398 372.4 230.098 372.4H229.898C226.298 372.4 223.598 372.9 223.598 373.8V373.9C223.598 374.6 224.898 375 228.598 375.3ZM235.798 371.4C239.798 371.9 241.698 372.9 241.698 374.3V374.5H236.698C236.698 373.7 235.998 373.1 234.698 372.8L232.498 375.5C238.698 375.8 241.998 376.6 241.998 378.1V378.2C241.998 380 237.698 381 230.298 381C229.498 381 228.798 381 228.098 381L226.798 382.6H222.798L224.398 380.7C220.398 380.2 218.298 379.2 218.298 377.8V377.7H223.298C223.298 378.4 224.098 378.9 225.498 379.3L227.798 376.5C221.398 376.2 218.698 375.4 218.698 374V373.9C218.698 372.2 223.298 371.2 230.298 371.2C230.898 371.2 231.598 371.2 232.198 371.2L233.498 369.6H237.498L235.798 371.4Z" fill="#536DB4"/>
<path d="M217.398 373C215.398 371.3 211.798 370.2 207.098 369.7C202.598 369.3 196.998 369.5 190.798 370.2C183.898 371 176.198 372.6 168.098 375C142.198 382.5 123.898 398.2 126.198 405.9C126.298 406.1 126.398 406.4 126.498 406.6C126.998 407.6 127.798 408.5 128.998 409.2C129.798 409.7 130.798 410.1 131.898 410.4C132.598 410.6 133.198 410.8 133.998 410.9C143.198 412.9 159.498 411.4 177.198 406.2C201.498 399.2 219.898 387.9 220.298 380.1C220.298 379.6 220.298 379.1 220.098 378.6C219.798 377.9 218.298 373.7 217.398 373Z" fill="#1C2451"/>
<path d="M123.398 396.3L126.398 406.7L129.098 401.8L125.698 396.7L123.398 396.3Z" fill="#1C2451"/>
<path d="M220.099 378.8L217.299 369.2L212.699 370.5L215.799 377.2L220.099 378.8Z" fill="#1C2451"/>
<path d="M215.599 366.8C213.599 365.1 209.999 364 205.299 363.5C200.799 363.1 195.199 363.3 188.999 364C182.099 364.8 174.399 366.4 166.299 368.8C140.399 376.3 121.199 388.6 123.399 396.3C123.499 396.5 123.599 396.8 123.699 397C124.199 398 124.999 398.9 126.199 399.6C126.999 400.1 127.999 400.5 129.099 400.8C129.799 401 130.399 401.2 131.199 401.3C140.399 403.3 156.699 401.8 174.399 396.6C198.699 389.6 217.099 378.3 217.499 370.5C217.499 370 217.499 369.5 217.299 369C216.999 368.3 216.399 367.5 215.599 366.8Z" fill="white"/>
<path d="M204.099 373C202.499 367.4 186.099 367.3 167.399 372.7C148.699 378.1 134.899 387 136.499 392.5C138.099 398.1 154.499 398.2 173.199 392.8C191.899 387.4 205.699 378.5 204.099 373ZM166.999 371.2C188.499 365 207.399 365.1 209.199 371.5C210.999 377.9 195.099 388.1 173.599 394.3C152.099 400.5 133.199 400.4 131.399 394C129.599 387.6 145.499 377.4 166.999 371.2Z" fill="#536DB4"/>
<path d="M177.398 382.9C177.198 382 175.398 382.1 171.798 382.9L170.298 386.5C170.698 386.4 171.098 386.3 171.398 386.2L171.598 386.1C175.298 385.1 177.698 383.9 177.398 382.9ZM168.698 382.4L170.098 379C169.898 379.1 169.598 379.1 169.298 379.2L169.098 379.3C165.698 380.3 163.098 381.5 163.398 382.4V382.5C163.698 383.2 164.998 383.3 168.698 382.4ZM174.498 376.7C178.498 376 180.598 376.5 180.998 377.8L181.098 378L176.298 379.4C176.098 378.6 175.298 378.3 173.898 378.3L172.598 381.4C178.698 379.9 181.998 379.7 182.398 381.2V381.3C182.898 383 179.098 385.2 171.998 387.3C171.298 387.5 170.498 387.7 169.798 387.9L168.998 389.9L165.098 391L166.098 388.7C162.098 389.4 159.798 389 159.398 387.7V387.6L164.198 386.2C164.398 386.9 165.298 387.2 166.798 387.1L168.198 383.8C161.898 385.3 159.098 385.3 158.698 383.9V383.8C158.198 382.2 162.398 379.9 169.098 378C169.698 377.8 170.298 377.7 170.898 377.5L171.698 375.6L175.598 374.5L174.498 376.7Z" fill="#536DB4"/>
<path d="M44.7983 282.2C44.7983 282.2 58.8983 270.8 58.8983 256C58.8983 241.2 55.8983 218.6 100.898 218.6C145.898 218.6 142.898 241.2 142.898 256C142.898 270.8 156.998 282.2 156.998 282.2H44.7983Z" fill="#1C2451"/>
<path d="M45.4986 282H156.399C153.799 279.7 142.799 269.1 142.799 256.1C142.799 255.3 142.799 254.4 142.799 253.5C142.899 245.6 142.999 235.8 135.999 228.7C129.499 222.1 117.999 218.9 100.999 218.9C83.9986 218.9 72.3986 222.1 65.9986 228.7C58.9986 235.7 59.0986 245.6 59.1986 253.5C59.1986 254.4 59.1986 255.3 59.1986 256.1C59.1986 269.1 48.0986 279.7 45.4986 282ZM157.099 282.5H44.0986L44.6986 282C44.7986 281.9 58.6986 270.5 58.6986 256C58.6986 255.2 58.6986 254.3 58.6986 253.4C58.5986 245.4 58.4986 235.5 65.5986 228.3C72.1986 221.6 83.7986 218.4 100.999 218.4C118.199 218.4 129.799 221.6 136.399 228.3C143.499 235.5 143.399 245.4 143.299 253.4C143.299 254.3 143.299 255.2 143.299 256C143.299 270.5 157.099 281.9 157.299 282L157.899 282.5H157.099Z" fill="#1C2451"/>
<path d="M53.2983 282.2C53.2983 282.2 65.1984 272.5 65.1984 260C65.1984 247.5 62.6983 228.3 100.898 228.3C139.098 228.3 136.598 247.5 136.598 260C136.598 272.5 148.498 282.2 148.498 282.2H53.2983Z" fill="#1C2451"/>
<path d="M53.9986 282H147.799C145.499 279.9 136.299 271 136.299 260C136.299 259.3 136.299 258.5 136.299 257.8C136.399 251.1 136.499 242.8 130.599 236.8C125.099 231.2 115.399 228.5 100.899 228.5C86.3986 228.5 76.6986 231.2 71.1986 236.8C65.2986 242.8 65.3986 251.1 65.4986 257.8C65.4986 258.6 65.4986 259.3 65.4986 260C65.4986 271 56.3986 279.9 53.9986 282ZM149.299 282.5H52.5986L53.1986 282C53.2986 281.9 64.9986 272.2 64.9986 260C64.9986 259.3 64.9986 258.5 64.9986 257.8C64.8986 251 64.7986 242.6 70.8986 236.5C76.4986 230.8 86.2986 228.1 100.999 228.1C115.599 228.1 125.499 230.9 131.099 236.5C137.099 242.6 136.999 251.1 136.999 257.8C136.999 258.6 136.999 259.3 136.999 260C136.999 272.3 148.699 281.9 148.799 282L149.299 282.5Z" fill="#1C2451"/>
<path d="M104.099 295.5H97.5986V404.3H104.099V295.5Z" fill="#1C2451"/>
<path d="M97.8984 404H103.898V295.7H97.8984V404ZM104.398 404.5H97.3984V295.2H104.398V404.5Z" fill="#1C2451"/>
<path d="M43.0986 284.6V294.5C43.0986 299.8 68.8986 304.1 100.799 304.1C132.699 304.1 158.499 299.8 158.499 294.5V284.6H43.0986Z" fill="#1C2451"/>
<path d="M43.3984 284.8V294.4C43.3984 299.4 69.6984 303.7 100.898 303.7C132.098 303.7 158.398 299.4 158.398 294.4V284.8H43.3984ZM100.898 304.3C68.3984 304.3 42.8984 300 42.8984 294.5V284.3H158.798V294.5C158.798 300 133.398 304.3 100.898 304.3Z" fill="#1C2451"/>
<path d="M158.599 284.6C158.599 289.9 132.799 294.2 100.899 294.2C68.9987 294.2 43.1987 289.9 43.1987 284.6C43.1987 279.3 68.9987 275 100.899 275C132.799 275 158.599 279.3 158.599 284.6Z" fill="#1C2451"/>
<path d="M100.898 275.3C69.6984 275.3 43.3984 279.6 43.3984 284.6C43.3984 289.6 69.6984 293.9 100.898 293.9C132.098 293.9 158.398 289.6 158.398 284.6C158.398 279.6 131.998 275.3 100.898 275.3ZM100.898 294.4C68.3984 294.4 42.8984 290.1 42.8984 284.6C42.8984 279.1 68.3984 274.8 100.898 274.8C133.398 274.8 158.898 279.1 158.898 284.6C158.898 290.1 133.398 294.4 100.898 294.4Z" fill="#1C2451"/>
<path d="M100.898 293.3C71.0983 293.3 47.7983 289.4 47.7983 284.3H48.0984C48.0984 286.5 53.6984 288.7 63.4984 290.3C73.4984 292 86.7983 292.9 100.898 292.9C114.998 292.9 128.298 292 138.298 290.3C148.098 288.7 153.698 286.5 153.698 284.3H153.998C153.998 289.4 130.698 293.3 100.898 293.3Z" fill="white"/>
<path d="M113.699 404.3H87.9985V400.1C87.9985 398.3 89.4985 396.8 91.2985 396.8H110.399C112.199 396.8 113.699 398.3 113.699 400.1V404.3Z" fill="#1C2451"/>
<path d="M88.2983 404H113.498V400C113.498 398.3 112.098 396.9 110.398 396.9H91.2983C89.5983 396.9 88.1984 398.3 88.1984 400L88.2983 404ZM113.998 404.5H87.7983V400C87.7983 398 89.3983 396.4 91.3983 396.4H110.498C112.498 396.4 114.098 398 114.098 400V404.5H113.998Z" fill="#1C2451"/>
<path d="M117.999 336.3L109.499 348L103.999 359.6L107.999 367.8L116.699 369.9C116.699 369.9 120.199 362.4 123.099 358.1C125.999 353.8 133.399 344.9 133.399 344.9L117.999 336.3Z" fill="#F9A57B"/>
<path d="M120.099 363.2C119.999 366.3 112.599 378.2 110.799 382C108.999 385.8 108.899 388.4 107.999 392.1C107.399 394.3 105.499 398.3 102.499 400.9C100.499 402.6 98.0987 403.7 95.3987 403.3C88.3987 402.2 86.3987 391.4 87.1987 384.8C87.9987 378.2 100.899 357.8 103.399 354.1C104.199 352.9 105.099 351.8 105.999 351C107.799 349.3 109.399 348.3 109.499 348.2C109.299 348.6 105.199 357.1 109.699 360.3C117.399 365.6 120.099 363.2 120.099 363.2Z" fill="#1C2451"/>
<path d="M108.898 348.7C108.198 349.2 107.198 349.9 106.198 351C105.198 352 104.298 353 103.598 354.1C100.598 358.6 88.1983 378.3 87.3983 384.7C86.5983 391.7 88.8983 402 95.3983 403C97.7983 403.4 100.098 402.6 102.298 400.7C105.298 398.1 107.198 394.1 107.698 392.1C107.998 391 108.198 389.9 108.398 388.9C108.898 386.7 109.298 384.6 110.498 382C111.098 380.8 112.198 378.8 113.498 376.4C116.098 371.8 119.198 366.2 119.698 363.8C118.598 364.3 115.598 364.8 109.398 360.4C105.598 357.4 107.898 351 108.898 348.7ZM96.4983 403.5C96.0983 403.5 95.6983 403.5 95.2983 403.4C88.4983 402.3 85.9983 391.8 86.8983 384.6C87.6983 378.1 100.098 358.3 103.198 353.7C103.898 352.6 104.798 351.6 105.898 350.5C107.798 348.7 109.498 347.7 109.498 347.7L110.298 347.2L109.898 348C109.898 348.1 105.598 356.6 109.998 359.7C117.398 365 120.098 362.9 120.098 362.8L120.498 362.4V363C120.398 365.2 116.998 371.4 114.198 376.4C112.898 378.7 111.798 380.7 111.198 382C109.998 384.6 109.598 386.6 109.098 388.8C108.898 389.8 108.698 390.9 108.398 392C107.898 393.8 106.098 398 102.798 400.9C100.698 402.7 98.5983 403.5 96.4983 403.5Z" fill="#1C2451"/>
<path d="M102.499 400.8C100.499 402.5 98.0987 403.6 95.3987 403.2C88.3987 402.1 86.3987 391.3 87.1987 384.7C87.9987 378.1 100.899 357.7 103.399 354C104.199 352.8 105.099 351.7 105.999 350.9C104.499 353.5 99.7987 362 97.1987 367.6C94.0987 374.3 87.7987 382.8 89.7987 390.6C91.7987 398.2 94.0987 403.7 102.499 400.8Z" fill="#536DB4"/>
<path d="M153.898 248.1C153.898 248.1 191.298 267.2 189.198 282.1C187.098 297 129.498 351.1 129.498 351.1C129.498 351.1 114.298 346.5 112.198 340.9C110.098 335.4 150.298 284.4 150.298 284.4L98.7983 247.9L153.898 248.1Z" fill="#536DB4"/>
<path d="M89.2987 343.5L80.6987 355.1L75.1987 366.7L79.1987 374.9L87.8987 377C87.8987 377 91.3987 369.5 94.2987 365.2C97.1987 360.9 104.599 352 104.599 352L89.2987 343.5Z" fill="#F9A57B"/>
<path d="M91.3985 370.3C91.2985 373.4 83.8985 385.3 82.0985 389.1C80.2985 392.9 80.1985 395.5 79.2985 399.2C78.6985 401.4 76.7985 405.4 73.7985 408C71.7985 409.7 69.3985 410.8 66.6985 410.4C59.6985 409.3 57.6985 398.5 58.4985 391.9C59.2985 385.3 72.1985 364.9 74.6985 361.2C75.4985 360 76.3985 358.9 77.2985 358.1C79.0985 356.4 80.6985 355.4 80.7985 355.3C80.5985 355.7 76.4985 364.2 80.9985 367.4C88.6985 372.7 91.3985 370.3 91.3985 370.3Z" fill="#1C2451"/>
<path d="M80.1986 355.8C79.4986 356.3 78.4986 357 77.4986 358.1C76.4986 359.1 75.5986 360.1 74.8986 361.2C71.8986 365.7 59.4986 385.5 58.6986 391.8C57.8986 398.8 60.1986 409.1 66.6986 410.1C69.0986 410.5 71.3986 409.7 73.5986 407.8C76.5986 405.2 78.4986 401.2 78.9986 399.2C79.2986 398.1 79.4986 397 79.6986 396C80.1986 393.8 80.5986 391.7 81.7986 389.1C82.3986 387.9 83.4986 385.9 84.7986 383.5C87.3986 378.9 90.4986 373.3 90.9986 370.9C89.8986 371.4 86.8986 371.9 80.6986 367.5C76.8986 364.6 79.1986 358.1 80.1986 355.8ZM67.7986 410.7C67.3986 410.7 66.9986 410.7 66.5986 410.6C59.7986 409.5 57.2986 399 58.1986 391.8C58.9986 385.3 71.3986 365.5 74.4986 360.9C75.1986 359.8 76.0986 358.7 77.1986 357.7C78.9986 355.9 80.6986 354.9 80.7986 354.9L81.5986 354.4L81.1986 355.2C81.1986 355.3 76.8986 363.8 81.2986 366.9C88.6986 372.2 91.3986 370.1 91.3986 370L91.7986 369.6V370.2C91.6986 372.4 88.2986 378.6 85.4986 383.6C84.1986 385.9 83.0986 387.9 82.4986 389.1C81.2986 391.7 80.8986 393.7 80.3986 395.9C80.1986 396.9 79.9986 398 79.6986 399.1C79.0986 401.2 77.1986 405.3 74.0986 408C71.9986 409.8 69.8986 410.7 67.7986 410.7Z" fill="#1C2451"/>
<path d="M73.7985 407.9C71.7985 409.6 69.3985 410.7 66.6985 410.3C59.6985 409.2 57.6985 398.4 58.4985 391.8C59.2985 385.2 72.1985 364.8 74.6985 361.1C75.4985 359.9 76.3985 358.8 77.2985 358C75.7985 360.6 71.0985 369.1 68.4985 374.7C65.3985 381.4 59.0985 389.9 61.0985 397.7C63.0985 405.3 65.3985 410.8 73.7985 407.9Z" fill="#536DB4"/>
<path d="M81.8984 245.6C81.8984 245.6 66.9984 282.1 85.4984 291.8C99.2984 299 119.798 291.1 119.798 291.1C119.798 291.1 98.6984 321.6 89.2984 343.5C89.2984 343.5 93.5984 355.1 103.898 353.8C103.898 353.8 161.798 297.3 159.898 280.4C157.898 263.5 98.7984 248 98.7984 248L81.8984 245.6Z" fill="#536DB4"/>
<path d="M103.999 354C103.899 354 103.899 354 103.899 353.9C103.799 353.8 103.799 353.7 103.899 353.6C104.499 353 161.799 297 159.799 280.3C157.899 263.7 120.999 253.8 120.599 253.7C120.499 253.7 120.399 253.6 120.499 253.5C120.499 253.4 120.599 253.3 120.699 253.4C121.099 253.5 158.199 263.4 160.199 280.3C160.999 287.4 151.799 301.9 132.899 323.5C118.799 339.6 104.299 353.7 104.199 353.9C103.999 354 103.999 354 103.999 354Z" fill="#1C2451"/>
<path d="M154.999 113.4L153.599 118.5L149.199 142L152.499 140.7L154.999 113.4Z" fill="#1C2451"/>
<path d="M154.398 116.4L153.798 118.6L149.498 141.6L152.198 140.5L154.398 116.4ZM148.898 142.5L153.398 118.5L154.798 113.4L155.298 113.5L152.898 141L148.898 142.5Z" fill="#1C2451"/>
<path d="M152.699 83.1C152.699 83.1 158.299 81.6 159.999 84.9C161.699 88.2 159.299 92.1 161.499 94.6C163.699 97.1 166.999 96.5 166.399 102.9C165.899 109.3 164.499 110.7 166.399 113.4C168.299 116.1 168.899 117.2 166.999 120.1C165.099 123 166.299 127.9 168.399 130.7C170.399 133.5 164.399 137.1 163.699 140.3C162.999 143.5 164.899 147.4 161.199 150.8C157.499 154.2 156.099 152.2 154.499 154.8C152.799 157.4 155.599 161.5 152.199 161.4C148.899 161.4 135.899 170.1 129.099 168C122.299 165.8 118.399 159.2 114.099 160.5C109.699 161.9 107.199 159.4 107.199 156.1C107.199 152.8 103.499 152.9 101.999 149.7C98.0986 141.6 103.599 139.8 101.699 135.9C99.6986 132 97.9986 130.2 99.2986 125.8C100.599 121.4 98.4986 119.6 98.6986 117.1C98.9986 112.3 101.099 109.9 103.299 107.9C105.499 105.9 103.999 98.7 106.999 95.2C109.999 91.6 114.199 92.8 115.799 89.8C117.399 86.8 118.399 82.4 119.799 81.1C122.799 78.5 124.299 80.2 126.699 79.5C129.099 78.9 131.099 75.5 133.999 75.5C136.899 75.5 138.099 78.2 141.099 78.3C144.099 78.4 144.699 77.2 147.999 77.7C151.199 78.1 150.599 82.3 152.699 83.1Z" fill="#1C2451"/>
<path d="M115.098 160C117.198 160 119.198 161.5 121.498 163.2C123.598 164.8 126.098 166.7 129.098 167.6C133.498 169 140.498 165.8 145.698 163.4C148.598 162.1 150.898 161 152.098 161C152.598 161 152.998 160.9 153.198 160.6C153.598 160.2 153.598 159.3 153.498 158.3C153.398 157 153.298 155.6 154.098 154.5C154.998 153.2 155.798 153 156.698 152.7C157.698 152.5 158.998 152.1 160.798 150.4C163.298 148.1 163.198 145.7 163.098 143.3C163.098 142.2 162.998 141.1 163.298 140C163.598 138.6 164.798 137.2 165.998 135.9C167.598 134 169.198 132.1 168.098 130.6C165.898 127.7 164.798 122.7 166.698 119.7C168.498 117 167.998 116.1 166.098 113.3C164.798 111.4 164.998 110 165.398 107.4C165.598 106.2 165.898 104.6 165.998 102.6C166.398 98.1 164.898 97.2 163.198 96.1C162.498 95.7 161.798 95.2 161.098 94.5C159.898 93.1 159.998 91.4 160.098 89.5C160.198 87.9 160.298 86.3 159.598 84.8C157.998 81.7 152.698 83.1 152.598 83.1H152.498H152.398C151.398 82.7 150.998 81.7 150.498 80.6C149.998 79.3 149.398 77.9 147.698 77.6C145.898 77.3 144.898 77.6 143.898 77.8C143.098 78 142.198 78.2 140.798 78.2C139.198 78.2 138.098 77.5 137.098 76.8C136.098 76.1 135.098 75.5 133.798 75.5C133.798 75.5 133.798 75.5 133.698 75.5C132.198 75.5 130.898 76.6 129.598 77.6C128.598 78.4 127.598 79.2 126.498 79.5C125.598 79.7 124.798 79.7 124.098 79.6C122.798 79.5 121.598 79.4 119.698 81C118.898 81.7 118.198 83.6 117.398 85.6C116.898 87 116.298 88.4 115.698 89.6C114.898 91.2 113.298 91.7 111.698 92.3C110.098 92.8 108.298 93.4 106.798 95.1C105.298 96.9 104.898 99.9 104.698 102.4C104.398 104.8 104.198 106.9 103.098 107.9C101.098 109.7 98.8985 112 98.5985 116.9C98.4985 117.7 98.7985 118.5 98.9985 119.4C99.4985 121 99.9985 122.8 99.1985 125.6C98.1985 129.1 99.0985 130.9 100.598 133.6C100.898 134.2 101.298 134.8 101.598 135.5C102.498 137.2 101.998 138.6 101.398 140.1C100.598 142.2 99.6985 144.7 101.898 149.4C102.498 150.7 103.598 151.5 104.598 152.2C105.898 153.1 107.198 154 107.098 155.9C107.098 157.5 107.698 158.8 108.798 159.6C109.998 160.5 111.698 160.6 113.698 160C114.298 160.1 114.698 160 115.098 160ZM131.398 168.5C130.498 168.5 129.598 168.4 128.898 168.1C125.798 167.1 123.398 165.2 121.198 163.6C118.498 161.5 116.298 159.9 113.998 160.6C111.298 161.4 109.598 160.8 108.698 160.1C107.498 159.2 106.798 157.7 106.798 155.9C106.798 154.2 105.698 153.5 104.498 152.6C103.498 151.9 102.298 151.1 101.598 149.6C99.2985 144.8 100.298 142.1 101.098 139.9C101.598 138.4 102.098 137.2 101.298 135.7C100.998 135 100.598 134.4 100.298 133.8C98.7985 131.1 97.7985 129.1 98.8985 125.4C99.6985 122.7 99.1985 121 98.6985 119.5C98.3985 118.6 98.1985 117.8 98.2985 116.8C98.5985 111.8 100.898 109.3 102.998 107.5C103.998 106.6 104.198 104.6 104.398 102.4C104.698 99.8 104.998 96.8 106.598 94.8C108.198 92.9 109.998 92.3 111.698 91.8C113.298 91.3 114.698 90.8 115.398 89.4C115.998 88.2 116.598 86.8 117.098 85.4C117.898 83.4 118.598 81.4 119.498 80.6C121.498 78.8 122.998 78.9 124.298 79.1C124.998 79.2 125.698 79.2 126.498 79C127.498 78.7 128.398 78 129.398 77.2C130.698 76.1 132.098 75 133.798 75C133.798 75 133.798 75 133.898 75C135.398 75 136.498 75.7 137.498 76.4C138.498 77.1 139.498 77.7 140.898 77.8C142.198 77.8 142.998 77.6 143.798 77.4C144.898 77.1 145.898 76.9 147.798 77.2C149.798 77.5 150.498 79.1 150.998 80.5C151.398 81.5 151.798 82.4 152.498 82.7C153.198 82.5 158.298 81.4 159.998 84.7C160.798 86.3 160.698 88 160.598 89.7C160.498 91.4 160.398 93.1 161.398 94.3C161.998 95 162.698 95.4 163.398 95.8C165.198 96.9 166.798 98 166.398 102.8C166.198 104.9 165.998 106.4 165.798 107.6C165.398 110.2 165.198 111.3 166.398 113.1C168.398 116 168.898 117.1 166.998 120.1C165.298 122.7 166.298 127.6 168.398 130.4C169.698 132.2 167.998 134.3 166.298 136.3C165.198 137.6 163.998 139 163.798 140.2C163.598 141.2 163.598 142.2 163.698 143.3C163.798 145.7 163.898 148.4 161.198 150.8C159.198 152.6 157.898 152.9 156.798 153.2C155.798 153.4 155.198 153.6 154.498 154.7C153.798 155.7 153.898 157 153.998 158.2C154.098 159.3 154.098 160.3 153.598 160.9C153.298 161.3 152.798 161.4 152.098 161.4C150.998 161.4 148.598 162.5 145.898 163.7C141.498 165.9 135.798 168.5 131.398 168.5Z" fill="#1C2451"/>
<path d="M140.298 143.6C140.298 143.6 141.598 158.8 142.398 161.1C143.198 163.5 123.498 160.1 119.498 158.5C115.398 156.9 114.298 153.5 114.298 153.5C114.298 153.5 121.598 135.7 120.498 129.2C119.298 122.8 140.298 143.6 140.298 143.6Z" fill="#F9A57B"/>
<path d="M135.799 146.1C127.199 145.7 121.699 135.5 120.099 126.4C118.499 117.3 120.799 86.1001 139.599 88.4001C158.399 90.7001 156.199 111.1 154.799 120.2C153.399 129.4 147.499 146.7 135.799 146.1Z" fill="#F9A57B"/>
<path d="M153.799 93.8C153.799 93.8 153.399 100.7 149.199 101.4C144.999 102.1 142.099 99.5 140.199 104.2C138.299 108.9 136.099 109.5 132.299 109.5C128.599 109.5 128.299 113.1 125.599 114C122.799 114.9 113.299 113.1 113.499 108.2C113.699 103.2 122.599 86.4 122.599 86.4C122.599 86.4 128.799 82.4 129.699 82.1C130.599 81.7 137.399 81.4 139.399 81.6C141.399 81.7 152.199 88.8 152.099 89.1C152.099 89.2 153.799 93.8 153.799 93.8Z" fill="#1C2451"/>
<path d="M122.799 86.4999C122.199 87.5999 113.999 103.4 113.799 108.1C113.699 109.4 114.399 110.5 115.699 111.5C118.499 113.6 123.699 114.3 125.699 113.7C126.799 113.3 127.499 112.5 128.199 111.7C129.199 110.5 130.199 109.2 132.499 109.2H132.599C136.499 109.2 138.399 108.5 140.199 104.1C141.499 100.7 143.499 100.9 145.699 101.2C146.799 101.3 147.999 101.4 149.299 101.2C152.999 100.5 153.599 94.4999 153.699 93.8999C152.399 90.3999 152.099 89.3999 151.999 89.0999C151.199 88.2999 141.299 81.8999 139.499 81.7999C137.399 81.5999 130.699 81.9999 129.899 82.2999C128.999 82.5999 123.399 86.0999 122.799 86.4999ZM123.799 114.4C121.299 114.4 117.599 113.6 115.299 111.9C113.899 110.8 113.199 109.6 113.199 108.1C113.399 103.1 121.899 86.9 122.299 86.2V86.0999H122.399C122.599 85.8999 128.599 82.1 129.499 81.7C130.499 81.3 137.299 80.9999 139.399 81.0999C141.499 81.2999 151.999 88.2 152.299 88.7L152.399 88.7999V88.8999C152.399 89.0999 153.299 91.4999 154.099 93.5999V93.7V93.7999C154.099 94.0999 153.599 100.9 149.299 101.6C147.899 101.8 146.599 101.7 145.499 101.6C143.199 101.4 141.699 101.2 140.499 104.2C138.599 108.8 136.399 109.6 132.399 109.6C132.399 109.6 132.399 109.6 132.299 109.6C130.299 109.6 129.299 110.7 128.399 111.9C127.699 112.8 126.899 113.7 125.699 114.1C125.299 114.3 124.599 114.4 123.799 114.4Z" fill="#1C2451"/>
<path d="M148.499 99.3001C148.499 99.3001 148.499 106.7 153.499 108.7C158.499 110.7 162.499 121.5 162.499 121.5L161.299 95.3001L156.299 84.1001L152.699 84.5001L148.499 99.3001Z" fill="#1C2451"/>
<path d="M148.699 99.2999C148.699 99.7999 148.899 106.6 153.499 108.4C157.499 110 160.799 116.9 162.099 119.9L160.999 95.2999L156.099 84.2999L152.899 84.6999L148.699 99.2999ZM162.799 123L162.199 121.5C162.199 121.4 158.199 110.8 153.399 108.9C148.299 106.9 148.199 99.5999 148.199 99.2999V99.1999L152.399 84.2999L156.399 83.8999L156.499 84.0999L161.499 95.3999L162.799 123Z" fill="#1C2451"/>
<path d="M136.398 146.3C136.198 146.3 135.998 146.3 135.798 146.3C131.898 146.1 127.898 143.7 124.498 139.4C124.398 139.3 124.398 139.2 124.498 139.2C124.598 139.1 124.698 139.1 124.798 139.2C128.098 143.4 131.998 145.8 135.798 146C137.098 146.1 138.398 145.9 139.598 145.5C139.698 145.5 139.798 145.5 139.798 145.6C139.798 145.7 139.798 145.8 139.698 145.8C138.698 146.2 137.498 146.3 136.398 146.3Z" fill="#1C2451"/>
<path d="M121.399 118.6C121.399 118.6 115.899 116 114.999 120.8C114.099 125.6 121.299 130.9 121.299 130.9L121.399 118.6Z" fill="#F9A57B"/>
<path d="M119.399 121.2C119.399 121.2 115.899 121.2 118.899 125.6L119.399 121.2Z" fill="#1C2451"/>
<path d="M119.099 121.4C118.799 121.5 118.299 121.6 118.099 122C117.899 122.4 117.799 123.2 118.799 124.8L119.099 121.4ZM119.099 126.3L118.699 125.7C117.499 124 117.199 122.7 117.599 121.8C118.099 120.9 119.299 120.9 119.299 120.9H119.599L119.099 126.3Z" fill="#1C2451"/>
<path d="M148.099 120.2C148.299 120.2 148.399 120.4 148.499 120.5C148.599 120.7 148.699 120.8 148.799 121.1C148.899 121.3 148.899 121.6 148.899 121.9C148.899 122.2 148.799 122.4 148.799 122.7C148.799 123 148.599 123.2 148.499 123.5C148.399 123.8 148.199 123.9 147.999 124.1C147.799 124.3 147.599 124.4 147.499 124.4C147.299 124.5 147.099 124.5 146.999 124.4C146.799 124.4 146.699 124.2 146.599 124.1C146.499 123.9 146.399 123.8 146.299 123.5C146.199 123.3 146.199 123 146.199 122.7C146.199 122.4 146.299 122.2 146.299 121.9C146.399 121.6 146.499 121.4 146.599 121.1C146.699 120.9 146.899 120.7 147.099 120.5C147.299 120.3 147.499 120.2 147.599 120.2C147.799 120.2 147.999 120.2 148.099 120.2Z" fill="#1C2451"/>
<path d="M147.898 120.5C147.398 120.5 146.798 121.2 146.498 122C146.198 123 146.498 124 146.998 124.1C147.598 124.3 148.298 123.6 148.598 122.6C148.898 121.6 148.598 120.6 148.098 120.5C147.998 120.5 147.998 120.5 147.898 120.5ZM147.198 124.7C147.098 124.7 146.998 124.7 146.898 124.7C145.998 124.5 145.598 123.2 145.998 121.9C146.398 120.6 147.298 119.8 148.198 120C149.098 120.2 149.498 121.5 149.098 122.8C148.798 123.9 147.998 124.7 147.198 124.7Z" fill="#1C2451"/>
<path d="M134.198 117.2C134.398 117.3 134.498 117.4 134.598 117.5C134.698 117.7 134.798 117.8 134.898 118.1C134.998 118.3 134.998 118.6 134.998 118.9C134.998 119.2 134.898 119.4 134.898 119.7C134.798 120 134.698 120.2 134.598 120.5C134.498 120.8 134.298 120.9 134.098 121.1C133.898 121.3 133.698 121.4 133.598 121.4C133.398 121.5 133.198 121.5 133.098 121.4C132.998 121.3 132.798 121.2 132.698 121.1C132.598 121 132.498 120.8 132.398 120.5C132.298 120.3 132.298 120 132.298 119.7C132.298 119.4 132.398 119.2 132.398 118.9C132.498 118.6 132.598 118.4 132.698 118.1C132.798 117.9 132.998 117.7 133.198 117.5C133.398 117.3 133.598 117.2 133.698 117.2C133.798 117.1 133.998 117.1 134.198 117.2Z" fill="#1C2451"/>
<path d="M133.898 117.4C133.398 117.4 132.798 118.1 132.498 118.9C132.198 119.9 132.498 120.9 132.998 121C133.598 121.2 134.298 120.5 134.598 119.5C134.698 119 134.798 118.5 134.598 118.1C134.498 117.7 134.298 117.5 133.998 117.4C134.098 117.4 133.998 117.4 133.898 117.4ZM133.198 121.6C133.098 121.6 132.998 121.6 132.898 121.6C131.998 121.4 131.598 120.1 131.998 118.8C132.398 117.5 133.298 116.7 134.198 116.9C134.598 117 134.998 117.4 135.098 117.9C135.198 118.4 135.198 119 135.098 119.6C134.798 120.8 133.998 121.6 133.198 121.6Z" fill="#1C2451"/>
<path d="M135.998 134.5L141.098 135.4C141.098 135.4 140.298 137 137.898 136.7C135.898 136.4 135.998 134.5 135.998 134.5Z" fill="white"/>
<path d="M139.998 131C139.898 131 139.798 131 139.798 131L139.398 130.9C139.198 130.9 139.098 130.7 139.198 130.6C139.198 130.4 139.398 130.3 139.498 130.4L139.898 130.5C140.298 130.6 140.598 130.4 140.898 130.2C141.198 130 141.298 129.6 141.298 129.3L141.098 127.2C141.098 127 141.198 126.9 141.398 126.9C141.498 126.9 141.698 127 141.698 127.2L141.898 129.3C141.898 129.8 141.698 130.3 141.398 130.7C140.898 130.8 140.498 131 139.998 131Z" fill="#1C2451"/>
<path d="M136.799 114.6C136.799 114.6 132.899 112.8 129.699 114.8L136.799 114.6Z" fill="#1C2451"/>
<path d="M133.198 114.2C132.398 114.2 131.598 114.3 130.898 114.6L135.298 114.4C134.698 114.3 133.998 114.2 133.198 114.2ZM128.798 115.2L129.598 114.7C132.798 112.7 136.798 114.4 136.898 114.4L137.898 114.9L128.798 115.2Z" fill="#1C2451"/>
<path d="M146.199 116.1C146.199 116.1 149.499 115.2 152.399 118L146.199 116.1Z" fill="#1C2451"/>
<path d="M147.498 116.3L151.198 117.5C149.898 116.5 148.498 116.3 147.498 116.3ZM153.398 118.6L145.298 116.1L146.198 115.9C146.298 115.9 149.698 115 152.698 117.9L153.398 118.6Z" fill="#1C2451"/>
<path d="M165.998 157.4C159.698 163.2 160.698 180.2 160.498 190.8C160.298 201.4 156.998 210.5 155.098 219.8C153.198 229.1 153.998 248.7 153.998 248.7C153.998 248.7 138.598 247.2 125.398 249.2C112.198 251.2 78.7983 253.4 78.7983 253.4C78.7983 253.4 82.9984 234.3 84.4984 225.9C85.9984 217.5 85.7984 205.6 84.9984 198.6C84.2984 191.7 84.7983 184 84.7983 175.8C84.7983 167.6 86.0984 150.7 86.0984 150.7C89.6984 149.7 105.598 147.3 113.898 146.1C115.898 145.8 117.098 145.6 117.098 145.6C117.098 145.6 122.698 155.7 131.398 155.2C140.198 154.6 140.798 148.7 140.798 148.7C141.698 149.1 142.798 149.5 144.098 150C153.298 153.4 165.998 157.4 165.998 157.4Z" fill="white"/>
<path d="M103.098 147.3C103.098 147.3 105.698 163.3 107.398 177.3C109.098 191.3 111.898 202.8 103.098 221.1C97.9984 231.7 94.7984 248.6 88.7984 258.9C84.4984 266.2 76.5984 268.7 75.7984 269.4C73.8984 271.1 74.6984 260.3 74.6984 257.3C74.9984 246.1 75.6984 246 76.7984 235.6C77.8984 225.2 82.3984 177.1 82.3984 177.1L85.9984 150.9C86.0984 150.6 93.9984 148.2 103.098 147.3Z" fill="#DE4F6B"/>
<path d="M150.499 152.1C150.499 152.1 146.399 160.3 143.099 169.5C139.899 178.7 134.299 192.9 138.799 205.6C143.399 218.3 146.899 245.6 147.399 252.1C147.399 252.1 162.699 257.8 162.799 253.7C162.899 247.1 154.399 225.8 155.399 222.3C156.999 216.5 160.099 205.9 160.699 198.5C161.299 191 160.199 180.1 164.799 171.8C169.399 163.5 165.799 157.5 165.799 157.5C165.799 157.5 154.699 153.6 150.499 152.1Z" fill="#DE4F6B"/>
<path d="M86.4988 150.6C86.4988 150.6 71.1988 154.1 70.0988 166.2C68.8988 178.2 70.0988 212.6 70.0988 212.6L77.9988 235.8C77.9988 235.8 86.3988 233.8 87.0988 227.2C87.7988 220.5 87.1988 199.9 87.1988 199.9L89.1988 184.5L91.4988 159.8L86.4988 150.6Z" fill="#DE4F6B"/>
<path d="M87.2987 226.7C87.0987 226.7 86.9987 226.6 86.9987 226.4C87.1987 221.3 86.8987 215.7 86.4987 210.4C85.9987 202.5 85.4987 195.1 86.7987 188.6C88.0987 182.1 88.5987 173.6 88.2987 165.9C88.2987 165.7 88.3987 165.6 88.5987 165.6C88.7987 165.6 88.8987 165.7 88.8987 165.9C89.1987 173.7 88.5987 182.3 87.3987 188.8C86.0987 195.2 86.5987 202.6 87.0987 210.5C87.4987 215.9 87.7987 221.4 87.5987 226.6C87.5987 226.6 87.3987 226.7 87.2987 226.7Z" fill="#1C2451"/>
<path d="M78.7983 211.4L64.9984 180.5L54.2983 187.7L60.6984 211.6L62.0984 222.1L74.5984 225.1L78.2983 217.8L78.7983 211.4Z" fill="#F9A57B"/>
<path d="M78.7987 211.4C78.7987 211.4 82.8987 218.9 83.8987 222C84.8987 225 87.3987 225.2 87.2987 226.4C86.9987 230.5 84.9987 242.8 78.7987 243.1C72.5987 243.5 64.4988 229.1 62.1988 223.2C59.8988 217.3 60.5988 211.5 60.5988 211.5C60.5988 211.5 61.2988 221.8 68.0988 220.4C75.0988 219.2 78.7987 211.4 78.7987 211.4Z" fill="#DE4F6B"/>
<path d="M83.8984 222.3C83.7984 222.3 83.6985 222.2 83.5985 222.1C82.5985 219.1 78.5985 211.7 78.4985 211.6C78.3985 211.5 78.4985 211.3 78.5985 211.2C78.6985 211.1 78.8985 211.2 78.9985 211.3C79.1985 211.6 83.0985 218.9 84.0985 221.9C84.1985 222.1 84.0984 222.2 83.8984 222.3Z" fill="#1C2451"/>
<path d="M119.799 291.2H119.699C119.599 291.1 119.599 291 119.699 290.9C119.999 290.5 126.599 282.4 130.999 281.7C131.099 281.7 131.199 281.8 131.199 281.8C131.199 281.9 131.099 282 131.099 282C126.799 282.7 120.099 291 119.999 291.1C119.899 291.2 119.899 291.2 119.799 291.2Z" fill="#1C2451"/>
<path d="M165.999 157.4C165.999 157.4 171.899 159 173.899 168.3C175.799 176.6 177.999 200.2 179.599 208.5C181.199 216.7 191.799 237.5 180.799 243.1C169.799 248.7 157.799 227.7 155.499 222.3C149.999 209.3 151.999 192.8 151.999 192.8L159.899 158.2L165.999 157.4Z" fill="#DE4F6B"/>
<path d="M155.098 220C154.998 220 154.898 219.9 154.898 219.8C155.498 217 156.198 214.1 156.898 211.3C158.498 204.8 160.198 198.1 160.298 190.7C160.398 184.7 161.598 178 163.498 172.2C163.498 172.1 163.598 172.1 163.698 172.1C163.798 172.1 163.798 172.2 163.798 172.3C161.898 178.1 160.698 184.8 160.598 190.7C160.498 198.1 158.798 204.8 157.198 211.3C156.498 214.1 155.798 216.9 155.198 219.7C155.198 220 155.198 220 155.098 220Z" fill="#1C2451"/>
<path d="M162.099 178.5L149.299 208L134.099 202.2L145.999 172.3L162.099 178.5Z" fill="#536DB4"/>
<path d="M163.298 179L150.598 208.5L135.398 202.6L147.298 172.8L163.298 179Z" fill="#1C2451"/>
<path d="M135.699 202.5L150.399 208.1L162.899 179.1L147.299 173.1L135.699 202.5ZM150.699 208.8L150.499 208.7L135.099 202.8L147.099 172.5L163.599 178.9L163.499 179.1L150.699 208.8Z" fill="#1C2451"/>
<path d="M148.998 175.2C149.098 175.2 149.198 175.3 149.298 175.4C149.398 175.5 149.398 175.6 149.498 175.7C149.498 175.8 149.498 176 149.498 176.2C149.498 176.4 149.498 176.5 149.398 176.7C149.298 176.9 149.298 177 149.198 177.1C149.098 177.2 148.998 177.3 148.898 177.4C148.798 177.5 148.698 177.6 148.598 177.6C148.498 177.6 148.398 177.6 148.298 177.6C148.198 177.6 148.098 177.5 147.998 177.4C147.898 177.3 147.898 177.2 147.798 177C147.798 176.9 147.798 176.7 147.798 176.5C147.798 176.3 147.798 176.2 147.898 176C147.998 175.8 147.998 175.7 148.098 175.6C148.198 175.5 148.298 175.3 148.398 175.3C148.498 175.2 148.598 175.1 148.698 175.1C148.798 175.1 148.898 175.1 148.998 175.2Z" fill="#536DB4"/>
<path d="M165.099 208.7C165.999 204.5 161.999 193.9 159.599 190.5C157.199 187.2 146.099 181.3 145.099 182.4C143.599 183.9 144.899 185.3 144.899 185.3C144.899 185.3 140.099 182.8 139.099 184.1C138.099 185.4 139.699 187.2 139.699 187.2C139.699 187.2 137.999 187.5 137.199 188.9C136.499 190.3 137.599 191.1 137.599 191.1C137.599 191.1 136.299 191.2 135.999 193.1C135.799 195 139.399 195 142.299 197.7C145.199 200.4 146.599 202 147.399 203.8C148.399 206 150.599 208.6 152.799 209.7C155.199 210.6 164.499 211.6 165.099 208.7Z" fill="#F9A57B"/>
<path d="M163.499 200.6L176.499 213.5L165.699 227L153.199 208.1L163.499 200.6Z" fill="#F9A57B"/>
<path d="M154.099 192C153.999 192 153.999 192 153.899 191.9C152.399 189.6 144.799 185.4 144.799 185.3C144.699 185.2 144.699 185.1 144.699 185.1C144.799 185 144.899 185 144.899 185C145.199 185.2 152.599 189.3 154.199 191.7C154.299 191.8 154.199 191.9 154.099 191.9C154.199 192 154.199 192 154.099 192Z" fill="#1C2451"/>
<path d="M150.499 194.9C150.499 194.9 150.399 194.9 150.399 194.8C146.499 191.2 139.799 187.2 139.699 187.2C139.599 187.1 139.599 187 139.599 187C139.699 186.9 139.799 186.9 139.799 186.9C139.899 186.9 146.599 190.9 150.599 194.6C150.699 194.7 150.699 194.8 150.599 194.9H150.499Z" fill="#1C2451"/>
<path d="M147.699 197.5C147.599 197.5 147.599 197.5 147.599 197.4C145.899 195.1 137.799 191.1 137.699 191C137.599 191 137.599 190.8 137.599 190.8C137.599 190.7 137.799 190.7 137.799 190.7C138.099 190.9 145.999 194.8 147.799 197.2C147.899 197.3 147.899 197.4 147.799 197.4C147.699 197.5 147.699 197.5 147.699 197.5Z" fill="#1C2451"/>
<path d="M182.398 219.4C178.698 213.1 172.898 209.4 172.898 209.4C172.898 209.4 172.398 216.7 160.398 219.9C160.398 219.9 162.198 234.3 167.598 238.3C172.998 242.3 180.398 239.3 180.398 239.3L184.898 227.4L182.398 219.4Z" fill="#DE4F6B"/>
<path d="M167.099 237.4C166.999 237.4 166.999 237.4 166.899 237.3C160.999 228 160.099 220 160.099 219.9C160.099 219.8 160.199 219.7 160.299 219.7C160.399 219.7 160.499 219.8 160.499 219.9C160.499 220 161.399 227.9 167.299 237.2C167.299 237.2 167.299 237.3 167.099 237.4C167.199 237.4 167.199 237.4 167.099 237.4Z" fill="#1C2451"/>
<path d="M180.199 215.9C180.099 215.9 180.099 215.9 180.099 215.8C178.299 213.9 172.899 210 172.799 210C172.699 209.9 172.699 209.8 172.799 209.8C172.899 209.7 172.999 209.7 172.999 209.8C173.199 210 178.499 213.7 180.299 215.7C180.399 215.8 180.399 215.9 180.299 216C180.299 215.9 180.299 215.9 180.199 215.9Z" fill="#1C2451"/>
<path d="M50.8984 159.1C50.8984 159.1 56.2984 156.9 57.5984 160.1C58.9984 163.3 61.1985 167 61.1985 167L52.4984 167.7L50.8984 159.1Z" fill="#F9A57B"/>
<path d="M67.1987 132.5L56.8987 161.5C56.5987 162.2 55.7987 162.6 55.0987 162.4L1.29865 143.2C0.598646 142.9 0.198652 142.1 0.398652 141.4L10.6987 112.4C10.9987 111.7 11.7987 111.3 12.4987 111.5L66.2986 130.7C67.0986 130.9 67.4987 131.7 67.1987 132.5Z" fill="#1C2451"/>
<path d="M12.0985 111.6C11.8985 111.6 11.7985 111.6 11.5985 111.7C11.2985 111.8 11.0985 112.1 10.9985 112.4L0.698499 141.4C0.498499 142 0.798481 142.7 1.39848 142.9L55.1985 162.1C55.4985 162.2 55.7985 162.2 56.0985 162.1C56.3985 162 56.5985 161.7 56.6985 161.4L66.9985 132.4C67.1985 131.8 66.8985 131.1 66.2985 130.9L12.4985 111.7C12.2985 111.6 12.1985 111.6 12.0985 111.6ZM55.4985 162.7C55.2985 162.7 55.0985 162.7 54.8985 162.6L1.09849 143.4C0.198493 143.1 -0.201507 142.1 0.0984928 141.2L10.3985 112.2C10.5985 111.8 10.8985 111.4 11.2985 111.2C11.6985 111 12.1985 111 12.5985 111.1L66.3985 130.3C67.2985 130.6 67.6985 131.6 67.3985 132.5L57.0985 161.5C56.8985 161.9 56.5985 162.3 56.1985 162.5C55.9985 162.7 55.7985 162.7 55.4985 162.7Z" fill="#1C2451"/>
<path d="M61.7988 134.5L43.7988 128.1C43.5988 128 43.3988 127.7 43.4988 127.5C43.5988 127.3 43.7988 127.1 44.0988 127.2L62.0988 133.6C62.2988 133.7 62.4988 134 62.3988 134.2C62.2988 134.5 61.9988 134.6 61.7988 134.5Z" fill="#1C2451"/>
<path d="M23.0987 143.9L4.69873 137.3L4.89871 136.9L23.1987 143.5L23.0987 143.9Z" fill="#536DB4"/>
<path d="M19.9983 126.5L11.1983 123.4C10.7983 123.3 10.5983 122.8 10.6983 122.4L12.2983 117.8C12.3983 117.4 12.8983 117.2 13.2983 117.3L22.0983 120.4C22.4983 120.5 22.6983 121 22.5983 121.4L20.9983 126C20.7983 126.4 20.3983 126.6 19.9983 126.5Z" fill="#536DB4"/>
<path d="M46.8983 148.1C46.9983 148.4 47.0984 148.6 47.1984 148.9C47.2984 149.2 47.2983 149.4 47.2983 149.7C47.2983 150 47.2983 150.3 47.2983 150.5C47.2983 150.8 47.1984 151 47.0984 151.3C46.9984 151.6 46.8984 151.8 46.6984 152.1C46.5984 152.3 46.3984 152.6 46.1984 152.8C45.9984 153 45.7984 153.2 45.5984 153.4C45.3984 153.6 45.0983 153.7 44.8983 153.8C44.5983 153.9 44.3984 154 44.0984 154.1C43.7984 154.2 43.5983 154.2 43.2983 154.2C42.9983 154.2 42.6984 154.2 42.4984 154.2C42.1984 154.2 41.9984 154.1 41.6984 154C41.3984 153.9 41.1983 153.8 40.8983 153.6C40.6983 153.5 40.3984 153.3 40.1984 153.1C39.9984 152.9 39.7984 152.7 39.5984 152.5C39.3984 152.3 39.2984 152 39.1984 151.8C39.0984 151.5 38.9983 151.3 38.8983 151C38.7983 150.7 38.7983 150.5 38.7983 150.2C38.7983 149.9 38.7983 149.6 38.7983 149.4C38.7983 149.1 38.8984 148.9 38.9984 148.6C39.0984 148.3 39.1983 148.1 39.3983 147.8C39.4983 147.6 39.6983 147.3 39.8983 147.1C40.0983 146.9 40.2984 146.7 40.4984 146.5C40.6984 146.3 40.9984 146.2 41.1984 146.1C41.4984 146 41.6984 145.9 41.9984 145.8C42.2984 145.7 42.4983 145.7 42.7983 145.7C43.0983 145.7 43.3984 145.7 43.5984 145.7C43.8984 145.7 44.0983 145.8 44.3983 145.9C44.6983 146 44.8984 146.1 45.1984 146.3C45.3984 146.4 45.6983 146.6 45.8983 146.8C46.0983 147 46.2984 147.2 46.4984 147.4C46.5984 147.6 46.7983 147.9 46.8983 148.1Z" fill="#536DB4"/>
<path d="M51.6986 149.8C51.7986 150.1 51.8986 150.3 51.9986 150.6C52.0986 150.9 52.0986 151.1 52.0986 151.4C52.0986 151.7 52.0986 152 52.0986 152.2C52.0986 152.4 51.9986 152.7 51.8986 153C51.7986 153.3 51.6986 153.5 51.4986 153.8C51.3986 154 51.1986 154.3 50.9986 154.5C50.7986 154.7 50.5986 154.9 50.3986 155.1C50.1986 155.3 49.8986 155.4 49.6986 155.5C49.4986 155.6 49.1986 155.7 48.8986 155.8C48.5986 155.9 48.3986 155.9 48.0986 155.9C47.7986 155.9 47.4986 155.9 47.2986 155.9C46.9986 155.9 46.7986 155.8 46.4986 155.7C46.1986 155.6 45.9986 155.5 45.6986 155.3C45.4986 155.2 45.1986 155 44.9986 154.8C44.7986 154.6 44.5986 154.4 44.3986 154.2C44.1986 154 44.0986 153.7 43.9986 153.5C43.8986 153.2 43.7986 153 43.6986 152.7C43.5986 152.4 43.5986 152.2 43.5986 151.9C43.5986 151.6 43.5986 151.3 43.5986 151.1C43.5986 150.8 43.6986 150.6 43.7986 150.3C43.8986 150 43.9986 149.8 44.1986 149.5C44.2986 149.3 44.4986 149 44.6986 148.8C44.8986 148.6 45.0986 148.4 45.2986 148.2C45.4986 148 45.7986 147.9 45.9986 147.8C46.2986 147.7 46.4986 147.6 46.7986 147.5C47.0986 147.4 47.2986 147.4 47.5986 147.4C47.8986 147.4 48.1986 147.4 48.3986 147.4C48.6986 147.4 48.8986 147.5 49.1986 147.6C49.4986 147.7 49.6986 147.8 49.9986 148C50.1986 148.1 50.4986 148.3 50.6986 148.5C50.8986 148.7 51.0986 148.9 51.2986 149.1C51.3986 149.3 51.4986 149.6 51.6986 149.8Z" fill="#536DB4"/>
<path d="M7.39871 133.7L7.09872 133.6L7.19873 133.3L7.79871 133.5L6.99872 135.7L6.69873 135.6L7.39871 133.7Z" fill="white"/>
<path d="M7.59863 135.7C8.29863 135.4 8.99864 135.2 9.19864 134.7C9.29864 134.5 9.19863 134.2 8.99863 134.1C8.69863 134 8.49862 134.1 8.39862 134.4L8.09863 134.3C8.29863 133.8 8.69863 133.7 9.09863 133.8C9.49863 133.9 9.69863 134.3 9.59863 134.7C9.39863 135.2 8.59863 135.5 8.09863 135.7L9.19864 136.1L9.09863 136.3L7.59863 135.8V135.7Z" fill="white"/>
<path d="M10.7987 134.5C11.1987 134.7 11.3987 135 11.2987 135.3C11.1987 135.5 10.9987 135.7 10.6987 135.7C10.8987 135.9 10.9987 136.1 10.8987 136.4C10.7987 136.7 10.3987 136.9 9.99872 136.8C9.59872 136.7 9.29872 136.3 9.49872 135.9L9.79871 136C9.69871 136.2 9.89872 136.5 10.0987 136.6C10.3987 136.7 10.5987 136.6 10.6987 136.4C10.7987 136.1 10.5987 135.9 10.1987 135.7H10.0987L10.1987 135.5H10.2987C10.6987 135.6 10.8987 135.6 10.9987 135.3C11.0987 135.1 10.9987 134.9 10.6987 134.8C10.3987 134.7 10.1987 134.8 10.0987 135L9.79871 134.9C9.99871 134.5 10.3987 134.4 10.7987 134.5Z" fill="white"/>
<path d="M11.0985 136.9C11.7985 136.6 12.4985 136.4 12.6985 135.9C12.7985 135.7 12.6985 135.4 12.3985 135.3C12.0985 135.2 11.8985 135.3 11.7985 135.6L11.4985 135.5C11.6985 135 12.0985 134.9 12.4985 135C12.8985 135.1 13.0985 135.5 12.9985 135.9C12.7985 136.4 11.9985 136.7 11.4985 136.9L12.5985 137.3L12.4985 137.5L10.9985 137L11.0985 136.9Z" fill="white"/>
<path d="M14.9984 137.7L15.3983 136.5L14.1984 137.4L14.9984 137.7ZM14.8983 138L13.7983 137.6L13.8983 137.4L15.4984 136.3L15.7983 136.4L15.2983 137.9L15.5984 138L15.4984 138.2L15.1984 138.1L14.9984 138.6L14.6984 138.5L14.8983 138Z" fill="white"/>
<path d="M17.7985 137.1L17.6985 137.3L16.5985 136.9L16.3985 137.6C16.4985 137.5 16.7985 137.5 16.9985 137.6C17.4985 137.8 17.5985 138.2 17.3985 138.6C17.1985 139 16.8985 139.3 16.3985 139.1C15.9985 138.9 15.7985 138.6 15.8985 138.2L16.1985 138.3C16.1985 138.5 16.2985 138.8 16.5985 138.8C16.8985 138.9 17.1985 138.7 17.2985 138.4C17.3985 138.1 17.2985 137.8 16.9985 137.7C16.7985 137.6 16.5985 137.7 16.3985 137.8L16.0985 137.7L16.4985 136.4L17.7985 137.1Z" fill="white"/>
<path d="M18.0987 138.8C17.9987 139.1 18.0987 139.4 18.3987 139.5C18.6987 139.6 18.8987 139.5 18.9987 139.2C19.0987 138.9 18.9987 138.6 18.6987 138.5C18.4987 138.4 18.1987 138.5 18.0987 138.8ZM19.2987 138.2C19.2987 138 19.1987 137.8 18.9987 137.7C18.5987 137.6 18.3987 137.8 18.0987 138.4C18.2987 138.2 18.5987 138.2 18.7987 138.3C19.1987 138.4 19.3987 138.8 19.1987 139.3C19.0987 139.7 18.6987 140 18.1987 139.8C17.4987 139.6 17.5987 139 17.7987 138.4C17.9987 137.7 18.3987 137.4 18.9987 137.5C19.3987 137.7 19.4987 138 19.4987 138.3L19.2987 138.2Z" fill="white"/>
<path d="M21.5987 138.4L21.4987 138.6L19.8987 140.3L19.6987 140.2L21.1987 138.6L19.9987 138.2L20.0987 137.9L21.5987 138.4Z" fill="white"/>
<path d="M23.3983 139C23.7983 139.2 23.9983 139.5 23.8983 139.8C23.7983 140 23.5983 140.2 23.2983 140.2C23.4983 140.4 23.5983 140.6 23.4983 140.9C23.3983 141.2 22.9983 141.4 22.5983 141.3C22.1983 141.2 21.8983 140.8 22.0983 140.4L22.3983 140.5C22.2983 140.7 22.4983 141 22.6983 141.1C22.9983 141.2 23.1983 141.1 23.2983 140.9C23.3983 140.6 23.1983 140.4 22.7983 140.2H22.6983L22.7983 140H22.8983C23.2983 140.1 23.4983 140.1 23.5983 139.8C23.6983 139.6 23.5983 139.4 23.2983 139.3C22.9983 139.2 22.7983 139.3 22.6983 139.5L22.3983 139.4C22.6983 139 22.9983 138.9 23.3983 139Z" fill="white"/>
<path d="M23.7983 141.4C24.4983 141.1 25.1983 140.9 25.3983 140.4C25.4983 140.2 25.4984 139.9 25.1984 139.8C24.8984 139.7 24.6984 139.8 24.5984 140.1L24.2983 140C24.4983 139.5 24.8983 139.4 25.2983 139.5C25.6983 139.6 25.8983 140 25.7983 140.4C25.5983 140.9 24.7983 141.2 24.2983 141.4L25.3983 141.8L25.2983 142L23.7983 141.5V141.4Z" fill="white"/>
<path d="M27.6985 140.6L27.5985 140.8L26.4984 140.4L26.2984 141.1C26.3984 141 26.6984 141 26.8984 141.1C27.3984 141.3 27.4984 141.7 27.2984 142.1C27.0984 142.5 26.7984 142.8 26.2984 142.6C25.8984 142.4 25.6984 142.1 25.7984 141.7L26.0985 141.8C26.0985 142 26.1984 142.3 26.4984 142.3C26.7984 142.4 27.0985 142.2 27.1985 141.9C27.2985 141.6 27.1984 141.3 26.8984 141.2C26.6984 141.1 26.4984 141.2 26.2984 141.3L25.9984 141.2L26.3984 139.9L27.6985 140.6Z" fill="white"/>
<path d="M27.9986 142.4C27.8986 142.7 27.9986 143 28.2986 143.1C28.5986 143.2 28.7986 143.1 28.8986 142.8C28.9986 142.5 28.8986 142.2 28.5986 142.1C28.3986 142 28.0986 142 27.9986 142.4ZM29.1986 141.8C29.1986 141.6 29.0986 141.4 28.8986 141.3C28.4986 141.2 28.2986 141.4 27.9986 142C28.1986 141.8 28.4986 141.8 28.6986 141.9C29.0986 142 29.2986 142.4 29.0986 142.9C28.9986 143.3 28.5986 143.6 28.0986 143.4C27.3986 143.2 27.4986 142.6 27.6986 142C27.8986 141.3 28.2986 141 28.8986 141.2C29.2986 141.4 29.3986 141.7 29.3986 142L29.1986 141.8Z" fill="white"/>
<path d="M31.0984 142.1L30.7984 142L30.8984 141.8L31.4984 142L30.6985 144.2L30.3984 144.1L31.0984 142.1Z" fill="white"/>
<path d="M31.1986 144.1C31.8986 143.8 32.5986 143.6 32.7986 143.1C32.8986 142.9 32.8986 142.6 32.4986 142.5C32.1986 142.4 31.9986 142.5 31.8986 142.8L31.5986 142.7C31.7986 142.2 32.1986 142.1 32.5986 142.2C32.9986 142.3 33.1986 142.7 33.0986 143.1C32.8986 143.6 32.0986 143.9 31.5986 144.1L32.6986 144.5L32.5986 144.7L31.0986 144.2L31.1986 144.1Z" fill="white"/>
<path d="M34.9986 143.3V143.5L33.3986 145.2L33.0986 145L34.6986 143.4L33.4986 143L33.5986 142.7L34.9986 143.3Z" fill="white"/>
<path d="M35.0983 144.9C34.9983 145.2 35.0983 145.5 35.3983 145.6C35.6983 145.7 35.8983 145.6 35.9983 145.3C36.0983 145 35.9983 144.7 35.6983 144.6C35.5983 144.5 35.2983 144.6 35.0983 144.9ZM36.3983 144.3C36.3983 144.1 36.2983 143.9 36.0983 143.8C35.6983 143.7 35.4983 143.9 35.1983 144.5C35.3983 144.3 35.6983 144.3 35.8983 144.4C36.2983 144.5 36.4983 144.9 36.2983 145.4C36.1983 145.8 35.7983 146.1 35.2983 145.9C34.5983 145.7 34.6983 145.1 34.8983 144.5C35.0983 143.8 35.4983 143.5 36.0983 143.7C36.4983 143.9 36.5983 144.2 36.5983 144.5L36.3983 144.3Z" fill="white"/>
<path d="M65.2988 176.5C65.1988 181.1 64.0988 184.8 64.0988 184.8C64.0988 184.8 61.5988 187.4 61.4988 187.5C61.3988 187.6 54.2988 187.7 54.2988 187.7L53.5988 186.8C53.5988 186.8 50.1988 183.9 47.8988 181.1C46.9988 180 46.1988 178.9 45.9988 178C45.1988 175 46.1988 174.3 46.1988 174.3C46.1988 174.3 45.7988 172 46.9988 170.9C46.9988 170.9 46.4988 166.8 48.0988 165.4C48.0988 165.4 44.5988 161.6 45.6988 160C45.7988 159.9 45.8988 159.7 46.0988 159.6C47.9988 158.1 54.1988 156.5 54.7988 158.1C54.7988 158.2 54.7988 158.2 54.7988 158.3C54.7988 158.7 54.7988 158.9 54.7988 159.2V159.3C54.6988 159.8 54.4988 160.2 54.3988 160.4C54.3988 160.4 54.3988 160.4 54.3988 160.5C54.0988 160.9 53.7988 160.9 53.7988 160.9L52.0988 161.3L52.9988 163.7C52.9988 163.7 59.4988 163.8 60.8988 165.3C62.3988 166.9 65.4988 171.9 65.2988 176.5Z" fill="#F9A57B"/>
<path d="M61.3987 174.9C62.0987 177.9 54.9987 175.9 51.7987 176.3C48.8987 176.7 47.9987 180.6 47.8987 181.2C46.9987 180.1 46.1987 179 45.9987 178.1C45.1987 175.1 46.1987 174.4 46.1987 174.4C46.1987 174.4 45.7987 172.1 46.9987 171C46.9987 171 46.4987 166.9 48.0987 165.5C51.0987 163.8 53.7987 163.8 55.3987 164.2C56.8987 164.6 58.0987 165.3 60.1987 166.5C62.1987 167.8 61.9987 171 61.9987 171C64.1987 172.9 61.3987 174.9 61.3987 174.9Z" fill="#F9A57B"/>
<path d="M46.9984 171.1C46.8984 171.1 46.7984 171 46.8984 170.9C46.8984 170.9 48.2984 167 51.4984 167C51.4984 167 51.4984 167 51.5984 167C54.7984 167.1 61.7984 170.6 62.0984 170.8C62.1984 170.8 62.1984 170.9 62.1984 171C62.1984 171.1 62.0984 171.1 61.9984 171.1C61.8984 171.1 54.6984 167.4 51.5984 167.4C51.5984 167.4 51.5984 167.4 51.4984 167.4C48.4984 167.4 47.1984 171.1 47.1984 171.1C47.1984 171.1 47.0984 171.1 46.9984 171.1Z" fill="#1C2451"/>
<path d="M61.3985 175C61.2985 174.9 57.2985 172.4 53.7985 172.2C53.5985 172.2 53.4985 172.2 53.2985 172.2C49.7985 172.2 46.5985 174.2 46.3985 174.5C46.2985 174.6 46.1985 174.6 46.1985 174.5C46.0985 174.4 46.0985 174.4 46.1985 174.3C46.4985 173.9 50.2985 171.7 53.8985 171.9C57.4985 172.1 61.5985 174.7 61.5985 174.7C61.6985 174.8 61.6985 174.8 61.6985 174.9C61.4985 175 61.4985 175 61.3985 175Z" fill="#1C2451"/>
<path d="M54.9984 158.6C54.9984 158.8 54.9983 159 54.8983 159.2V159.3C54.7983 159.7 54.5984 160.1 54.4984 160.4C54.4984 160.4 54.4984 160.4 54.4984 160.5C54.3984 160.7 54.1984 160.9 54.0984 160.9H53.9984C53.1984 161.2 49.2983 162 49.2983 162C49.2983 162 47.7983 160.8 46.2983 159.6C48.1983 158.1 54.3984 156.5 54.9984 158.1C54.9984 158.2 54.9984 158.2 54.9984 158.3C54.8984 158.5 54.9984 158.6 54.9984 158.6Z" fill="#F9A57B"/>
<path d="M49.6986 162.2C49.5986 162.2 49.5986 162.1 49.5986 162.1C49.5986 162 49.5986 161.9 49.6986 161.9L53.7986 160.9C53.8986 160.9 53.9986 160.9 53.9986 161C53.9986 161.1 53.9986 161.2 53.8986 161.2L49.6986 162.2Z" fill="#1C2451"/>
<path d="M53.7987 161.1C53.6987 161.1 53.6987 161.1 53.6987 161C53.6987 160.9 53.6987 160.8 53.7987 160.8C53.7987 160.8 54.8987 160.4 54.7987 158.4C54.7987 158.3 54.8987 158.2 54.8987 158.2C54.9987 158.2 55.0987 158.3 55.0987 158.3C55.1987 160.7 53.8987 161.1 53.7987 161.1Z" fill="#1C2451"/>
<path d="M48.1986 180.3C48.0986 180.3 47.9985 180.2 48.0985 180.1C48.5985 177.7 49.8985 176.3 51.8985 176C52.8985 175.9 54.2985 176 55.7985 176.1C58.0985 176.3 60.4986 176.5 61.1986 175.7C61.3986 175.5 61.3985 175.2 61.2985 174.8C61.2985 174.7 61.2985 174.7 61.3985 174.6C61.3985 174.6 62.6985 173.7 62.7985 172.5C62.7985 171.9 62.5985 171.4 61.9985 170.9L61.8985 170.8C61.8985 170.8 62.0986 167.7 60.1986 166.5C58.2986 165.3 57.0985 164.7 55.4985 164.2C54.6985 164 51.8985 163.4 48.3985 165.5C48.2985 165.6 48.2986 165.6 48.1986 165.5C48.0986 165.4 48.0986 165.3 48.1986 165.3C51.8986 163.2 54.7985 163.7 55.5985 164C57.1985 164.5 58.4985 165.1 60.3985 166.3C62.2985 167.5 62.2985 170.3 62.2985 170.8C62.8985 171.4 63.1985 172 63.0985 172.6C62.9985 173.7 61.9986 174.6 61.6986 174.9C61.7986 175.3 61.6985 175.7 61.4985 176C60.6985 176.9 58.3985 176.7 55.8985 176.5C54.4985 176.4 52.9985 176.3 51.9985 176.4C49.4985 176.7 48.6985 178.9 48.4985 180.2C48.2985 180.3 48.2986 180.3 48.1986 180.3Z" fill="#1C2451"/>
<path d="M488.199 408H2.59863V413.9H488.199V408Z" fill="#1C2451"/>
</svg>
