<svg width="39" height="39" viewBox="0 0 39 39" fill="none" xmlns="http://www.w3.org/2000/svg">
<path d="M37.2136 0.280273H2.40747C1.57043 0.280273 0.894165 0.956534 0.894165 1.79358V36.5997C0.894165 37.4367 1.57043 38.113 2.40747 38.113H37.2136C38.0506 38.113 38.7269 37.4367 38.7269 36.5997V1.79358C38.7269 0.956534 38.0506 0.280273 37.2136 0.280273ZM35.7003 35.0864H26.994V23.4623H31.9123L32.65 17.7543H26.994V14.1081C26.994 12.453 27.4527 11.3274 29.822 11.3274H32.8439V6.22001C32.319 6.14908 30.5267 5.99302 28.4364 5.99302C24.0762 5.99302 21.0921 8.65549 21.0921 13.5406V17.7495H16.1644V23.4576H21.0968V35.0864H3.92078V3.30689H35.7003V35.0864Z" fill="white"/>
</svg>
