<svg width="42" height="42" viewBox="0 0 42 42" fill="none" xmlns="http://www.w3.org/2000/svg">
<path d="M12.8785 17.1389V30.6467M29.0879 30.6467V23.8928C29.0879 22.4598 28.5187 21.0855 27.5054 20.0722C26.4921 19.0589 25.1178 18.4897 23.6848 18.4897C22.2518 18.4897 20.8775 19.0589 19.8642 20.0722C18.8509 21.0855 18.2817 22.4598 18.2817 23.8928V30.6467V17.1389M11.5277 13.0865H14.2293M4.77383 2.28027H37.1926C37.9091 2.28027 38.5963 2.5649 39.1029 3.07154C39.6095 3.57819 39.8942 4.26534 39.8942 4.98184V37.4006C39.8942 38.1171 39.6095 38.8043 39.1029 39.3109C38.5963 39.8176 37.9091 40.1022 37.1926 40.1022H4.77383C4.05733 40.1022 3.37018 39.8176 2.86354 39.3109C2.35689 38.8043 2.07227 38.1171 2.07227 37.4006V4.98184C2.07227 4.26534 2.35689 3.57819 2.86354 3.07154C3.37018 2.5649 4.05733 2.28027 4.77383 2.28027Z" stroke="white" stroke-width="2.70157"/>
</svg>
