<svg width="39" height="39" viewBox="0 0 39 39" fill="none" xmlns="http://www.w3.org/2000/svg">
<path d="M19.6255 9.47515C17.7063 9.47515 15.8302 10.0443 14.2344 11.1105C12.6387 12.1768 11.3949 13.6923 10.6605 15.4654C9.92601 17.2386 9.73384 19.1897 10.1083 21.072C10.4827 22.9543 11.4069 24.6834 12.764 26.0405C14.1211 27.3976 15.8501 28.3217 17.7324 28.6962C19.6148 29.0706 21.5659 28.8784 23.339 28.144C25.1121 27.4095 26.6276 26.1658 27.6939 24.57C28.7602 22.9742 29.3293 21.0981 29.3293 19.1789C29.3324 17.9037 29.0835 16.6405 28.597 15.4617C28.1104 14.283 27.3958 13.212 26.4941 12.3104C25.5924 11.4087 24.5214 10.694 23.3427 10.2074C22.164 9.7209 20.9007 9.47203 19.6255 9.47515ZM19.6255 25.4981C18.3757 25.4981 17.1539 25.1275 16.1148 24.4332C15.0756 23.7388 14.2656 22.7519 13.7873 21.5972C13.309 20.4425 13.1839 19.1719 13.4277 17.9461C13.6715 16.7202 14.2734 15.5943 15.1572 14.7105C16.0409 13.8267 17.1669 13.2249 18.3927 12.981C19.6185 12.7372 20.8891 12.8624 22.0438 13.3407C23.1985 13.8189 24.1854 14.6289 24.8798 15.6681C25.5742 16.7073 25.9448 17.9291 25.9448 19.1789C25.9448 20.8549 25.279 22.4622 24.0939 23.6473C22.9088 24.8324 21.3015 25.4981 19.6255 25.4981ZM32.0037 9.0728C32.0037 9.54091 31.8649 9.9985 31.6049 10.3877C31.3448 10.7769 30.9752 11.0803 30.5427 11.2594C30.1102 11.4385 29.6343 11.4854 29.1752 11.3941C28.7161 11.3028 28.2944 11.0774 27.9634 10.7464C27.6324 10.4154 27.407 9.99364 27.3157 9.53454C27.2243 9.07543 27.2712 8.59955 27.4504 8.16708C27.6295 7.73461 27.9328 7.36497 28.3221 7.10491C28.7113 6.84485 29.1689 6.70604 29.637 6.70604C30.2647 6.70604 30.8667 6.95539 31.3105 7.39925C31.7544 7.8431 32.0037 8.4451 32.0037 9.0728ZM38.4177 11.4396C38.4891 8.49682 37.3912 5.64573 35.3645 3.51091C34.3132 2.49459 33.0717 1.69554 31.7112 1.15947C30.3508 0.623397 28.8979 0.360827 27.4359 0.386778C24.3591 0.244772 14.892 0.244772 11.8152 0.386778C8.87382 0.323086 6.02557 1.41987 3.88656 3.4399C1.85988 5.57472 0.762 8.42582 0.833433 11.3686C0.691427 14.4454 0.691427 23.9124 0.833433 26.9892C0.762 29.932 1.85988 32.7831 3.88656 34.9179C6.02557 36.9379 8.87382 38.0347 11.8152 37.971C14.9394 38.1603 24.3117 38.1603 27.4359 37.971C30.3786 38.0424 33.2297 36.9445 35.3645 34.9179C37.3912 32.7831 38.4891 29.932 38.4177 26.9892C38.5597 23.9124 38.5597 14.4454 38.4177 11.3686V11.4396ZM34.3942 30.3737C34.0728 31.1877 33.5877 31.927 32.9689 32.5459C32.35 33.1647 31.6107 33.6498 30.7967 33.9712C27.1225 34.714 23.3664 34.9686 19.6255 34.7285C15.8926 34.9666 12.1445 34.7119 8.47808 33.9712C7.66406 33.6498 6.92472 33.1647 6.30589 32.5459C5.68707 31.927 5.20194 31.1877 4.8806 30.3737C3.88656 27.8649 4.09957 21.948 4.09957 19.2026C4.09957 16.4571 3.88656 10.5165 4.8806 8.03143C5.19288 7.20937 5.67453 6.46217 6.2943 5.83833C6.91407 5.21448 7.65809 4.72794 8.47808 4.41028C12.1445 3.66953 15.8926 3.41489 19.6255 3.65291C23.3664 3.4128 27.1225 3.66745 30.7967 4.41028C31.6107 4.73162 32.35 5.21674 32.9689 5.83557C33.5877 6.4544 34.0728 7.19374 34.3942 8.00776C35.3882 10.5165 35.1515 16.4334 35.1515 19.1789C35.1515 21.9243 35.3882 27.8649 34.3942 30.35V30.3737Z" fill="white"/>
</svg>
